<?xml version="1.0" encoding="UTF-8"?>
<COLLADA xmlns="http://www.collada.org/2005/11/COLLADASchema" version="1.4.1">
<!--
# File generated by ImageToStl.com - Free Image and 3D model conversion tools
-->
  <asset>
    <contributor>
      <author>ImageToStl.com</author>
      <authoring_tool>ImageToStl.com</authoring_tool>
    </contributor>
    <created>2026-04-04T07:46:13</created>
    <modified>2026-04-04T07:46:13</modified>
    <up_axis>Z_UP</up_axis>
  </asset>
  <library_effects>
    <effect id="effect_0">
        <profile_COMMON>
          <technique sid="common">
            <phong>
              <diffuse>
                <color>0.85 0.85 0.85 1</color>
              </diffuse>
              <specular>
                <color>0.05 0.05 0.05 1</color>
              </specular>
              <shininess>
                <float>64</float>
              </shininess>
            </phong>
          </technique>
        </profile_COMMON>
    </effect>
  </library_effects>
  <library_materials>
    <material id="mat_0">
      <instance_effect url="#effect_0"/>
    </material>
  </library_materials>
  <library_geometries>
    <geometry id="geometry_ae352723_f16b_44c9_a8af_c5b00c9d1c37">
      <mesh>
        <source id="pos_0">
          <float_array id="pos_0-array" count="1317">-0.01765784 0.0575 0.01461689 -0.01765784 -0.0575 0.01461689 -0 0.0575 0.01307203 -0 -0.0575 0.01307203 -0.01992389 -0.0575 -0.01128418 -0 -0.0575 -0.01302729 -0 0.0575 -0.01302729 -0.01992389 0.0575 -0.01128418 -0.01805222 0.02749427 0.01010911 -0.01800597 -0.02802499 0.01063782 -0.01798904 -0.02874999 0.01083135 -0.01896736 0.02749427 -0.00035094 -0.01915692 -0.02874999 -0.00251766 -0.0189211 0.02802501 0.00017778 -0.01913999 -0.02802499 -0.00232414 -0.01890417 0.02875001 0.0003713 -0.01909374 -0.02749426 -0.00179542 -0.01903055 -0.02729999 -0.00107318 -0.01800597 -0.02947499 0.01063782 -0.01805222 -0.03000573 0.01010911 -0.0181786 -0.03000573 0.00866462 -0.01822486 -0.02947499 0.00813591 -0.01890417 -0.02874999 0.0003713 -0.01824179 -0.02874999 0.00794238 -0.0189211 -0.02802499 0.00017778 -0.01822486 -0.02802499 0.00813591 -0.01896736 -0.02749426 -0.00035094 -0.0181786 -0.02749426 0.00866462 -0.01811541 0.02730001 0.00938686 -0.01811541 -0.02729999 0.00938686 -0.01805222 -0.02749426 0.01010911 -0.01811541 -0.0302 0.00938686 -0.0189211 -0.02947499 0.00017778 -0.01896736 -0.03000573 -0.00035094 -0.01822486 0.02947501 0.00813591 -0.0181786 0.03000574 0.00866462 -0.01805222 0.03000574 0.01010911 -0.01800597 0.02947501 0.01063782 -0.01798904 0.02875001 0.01083135 -0.01800597 0.02802501 0.01063782 -0.01915692 0.02875001 -0.00251766 -0.01913999 0.02947501 -0.00232414 -0.01909374 0.03000574 -0.00179542 -0.01811541 0.03020001 0.00938686 -0.01903055 -0.0302 -0.00107318 -0.0181786 0.02749427 0.00866462 -0.01903055 0.03020001 -0.00107318 -0.01896736 0.03000574 -0.00035094 -0.0189211 0.02947501 0.00017778 -0.01824179 0.02875001 0.00794238 -0.01822486 0.02802501 0.00813591 -0.01909374 -0.03000573 -0.00179542 -0.01913999 -0.02947499 -0.00232414 -0.01903055 0.02730001 -0.00107318 -0.01909374 0.02749427 -0.00179542 -0.01913999 0.02802501 -0.00232414 0 -0.02947499 -0.00399867 0 -0.03000573 -0.00346591 0 -0.0302 -0.00273814 -0 0.02947501 0.00654144 -0 0.02912529 0.00639603 -0 0.02749427 -0.00201037 0 0.02875001 0.00634643 0 0.02730001 -0.00273814 0 0.03000574 -0.00346591 0 0.02947501 -0.00399867 0 0.02802501 -0.00399867 0 0.02749427 -0.00346591 -0 -0.02802499 -0.0014776 -0 -0.02749426 -0.00201037 0 0.02749427 0.0070742 0 -0.02837471 -0.00414408 -0 -0.02874999 -0.00419368 0 -0.02912528 -0.00414408 0 0.02749427 0.00852974 -0 0.02802501 0.0090625 0 0.02912529 -0.00414408 -0 0.02875001 -0.00419368 0 0.02837472 -0.00414408 0 -0.02729999 -0.00273814 0 -0.02749426 -0.00346591 0 -0.02802499 -0.00399867 -0 0.02837472 0.00639603 -0 0.02802501 0.00654144 0 -0.03000573 0.0070742 -0 -0.0302 0.00780197 0 -0.03000573 0.00852974 -0 -0.02947499 0.0090625 0 0.02912529 -0.00133219 -0 0.02947501 -0.0014776 -0 0.03000574 -0.00201037 0 0.03020001 -0.00273814 -0 -0.02947499 0.00654144 -0 -0.02912528 0.00639603 0 -0.02874999 0.00634643 -0 -0.03000573 -0.00201037 -0 -0.02947499 -0.0014776 -0 0.02837472 0.00920791 0 0.02875001 0.00925751 -0 0.02912529 0.00920791 -0 0.02947501 0.0090625 0 0.03000574 0.0070742 -0 0.02802501 -0.0014776 0 0.02837472 -0.00133219 0 0.02875001 -0.0012826 -0 0.03020001 0.00780197 0 0.03000574 0.00852974 -0 -0.02837471 0.00920791 0 -0.02874999 0.00925751 -0 -0.02912528 0.00920791 -0 -0.02802499 0.0090625 0 -0.02749426 0.00852974 -0 0.02730001 0.00780197 -0 -0.02729999 0.00780197 0 -0.02749426 0.0070742 -0 -0.02802499 0.00654144 -0 -0.02837471 0.00639603 0 -0.02912528 -0.00133219 0 -0.02874999 -0.0012826 0 -0.02837471 -0.00133219 -0.03730763 -0.0575 0.00228254 -0.03608745 -0.0575 0.01622927 -0.04018842 -0.05703616 0.01658806 -0.0414086 -0.05703616 0.00264133 -0.04408375 -0.05566792 0.01692885 -0.04530393 -0.05566792 0.00298213 -0.04591402 -0.05566792 -0.00399124 -0.04887586 -0.05387447 -0.00373211 -0.04984416 -0.05346388 -0.00866649 -0.04826577 -0.05387447 0.00324126 -0.0463498 -0.05566792 -0.00897221 -0.04245447 -0.05703616 -0.00931301 -0.04201869 -0.05703616 -0.00433203 -0.0383535 -0.0575 -0.00967179 -0.03791772 -0.0575 -0.00469082 -0.04757812 -0.05346388 0.01723457 -0.05049629 -0.05053456 0.01748988 -0.05276234 -0.05053456 -0.00841118 -0.05269194 -0.04702685 0.01768197 -0.05495799 -0.04702685 -0.00821909 -0.05405498 -0.04311663 0.01780122 -0.05632103 -0.04311663 -0.00809984 -0.05451705 -0.039 0.01784165 -0.0567831 -0.039 -0.00805941 -0.02634948 0.04682624 0.00132383 -0.02695958 0.04682624 -0.00564953 -0.02660401 0.04629866 -0.00568064 -0.04923142 0.04629866 -0.003701 -0.04887586 0.04682624 -0.00373211 -0.04826577 0.04682624 0.00324126 -0.04953608 0.039 0.01740587 -0.05136634 0.039 -0.00351422 -0.04899131 0.04280339 0.01735821 -0.05082158 0.04280339 -0.00356188 -0.04740115 0.04629866 0.01721909 -0.04489442 0.04920262 0.01699978 -0.0461146 0.04920262 0.00305305 -0.04167421 0.05128004 0.01671805 -0.04289439 0.05128004 0.00277132 -0.03800138 0.05236259 0.01639672 -0.03922157 0.05236259 0.00244999 -0.03417351 0.05236259 0.01606182 -0.03539369 0.05236259 0.00211509 -0.03050068 0.05128004 0.01574049 -0.03172087 0.05128004 0.00179376 -0.02728047 0.04920262 0.01545876 -0.02850065 0.04920262 0.00151203 -0.02477374 0.04629866 0.01523945 -0.02318358 0.04280339 0.01510033 -0.02501385 0.04280339 -0.00581976 -0.02263882 0.039 0.01505267 -0.02446909 0.039 -0.00586742 -0.02309639 0.03020001 0.00982264 -0.0230332 0.03000574 0.01054488 -0.0230332 -0.02749426 0.01054488 -0.02298694 -0.02802499 0.0110736 -0.02297001 -0.02874999 0.01126712 -0.02263882 -0.039 0.01505267 -0.02298694 -0.02947499 0.0110736 -0.02401152 0.02730001 -0.0006374 -0.02407471 0.02749427 -0.00135964 -0.0241379 -0.02874999 -0.00208188 -0.02446909 -0.039 -0.00586742 -0.02412097 -0.02947499 -0.00188836 -0.02407471 -0.03000573 -0.00135964 -0.02412097 0.02802501 -0.00188836 -0.0241379 0.02875001 -0.00208188 -0.02412097 0.02947501 -0.00188836 -0.02407471 0.03000574 -0.00135964 -0.02309639 -0.02729999 0.00982264 -0.0230332 0.02749427 0.01054488 -0.0230332 -0.03000573 0.01054488 -0.02309639 -0.0302 0.00982264 -0.02315957 -0.03000573 0.0091004 -0.02320583 -0.02947499 0.00857168 -0.02315957 0.02749427 0.0091004 -0.02320583 0.02802501 0.00857168 -0.02394833 0.02749427 8.484E-05 -0.02298694 0.02947501 0.0110736 -0.02297001 0.02875001 0.01126712 -0.02298694 0.02802501 0.0110736 -0.02401152 -0.02729999 -0.0006374 -0.02394833 -0.02749426 8.484E-05 -0.02309639 0.02730001 0.00982264 -0.02315957 0.03000574 0.0091004 -0.02320583 0.02947501 0.00857168 -0.02412097 -0.02802499 -0.00188836 -0.02407471 -0.02749426 -0.00135964 -0.02322276 -0.02874999 0.00837816 -0.02320583 -0.02802499 0.00857168 -0.02315957 -0.02749426 0.0091004 -0.02401152 0.03020001 -0.0006374 -0.02394833 0.03000574 8.484E-05 -0.02390208 0.02947501 0.00061356 -0.02322276 0.02875001 0.00837816 -0.02388515 0.02875001 0.00080708 -0.02390208 0.02802501 0.00061356 -0.02390208 -0.02802499 0.00061356 -0.02388515 -0.02874999 0.00080708 -0.02390208 -0.02947499 0.00061356 -0.02394833 -0.03000573 8.484E-05 -0.02401152 -0.0302 -0.0006374 -0.04826577 -0.04682624 0.00324126 -0.04887586 -0.04682624 -0.00373211 -0.04923142 -0.04629865 -0.003701 -0.02660401 -0.04629865 -0.00568064 -0.02695958 -0.04682624 -0.00564953 -0.02634948 -0.04682624 0.00132383 -0.02318358 -0.04280338 0.01510033 -0.02501385 -0.04280338 -0.00581976 -0.02477374 -0.04629865 0.01523945 -0.02728047 -0.04920262 0.01545876 -0.02850065 -0.04920262 0.00151203 -0.03050068 -0.05128003 0.01574049 -0.03172087 -0.05128003 0.00179376 -0.03417351 -0.05236259 0.01606182 -0.03539369 -0.05236259 0.00211509 -0.03800138 -0.05236259 0.01639672 -0.03922157 -0.05236259 0.00244999 -0.04167421 -0.05128003 0.01671805 -0.04289439 -0.05128003 0.00277132 -0.04489442 -0.04920262 0.01699978 -0.0461146 -0.04920262 0.00305305 -0.04740115 -0.04629865 0.01721909 -0.04899131 -0.04280338 0.01735821 -0.05082158 -0.04280338 -0.00356188 -0.04953608 -0.039 0.01740587 -0.05136634 -0.039 -0.00351422 -0.01805222 -0.03000573 0.01010911 -0.01798904 -0.02874999 0.01083135 -0.01896736 -0.02749426 -0.00035094 -0.01915692 0.02875001 -0.00251766 -0.0189211 -0.02802499 0.00017778 -0.01913999 0.02802501 -0.00232414 -0.01890417 -0.02874999 0.0003713 -0.01811541 0.03020001 0.00938686 -0.01992389 0.0575 -0.01128418 -0.01822486 0.02947501 0.00813591 -0.01798904 0.02875001 0.01083135 -0.01805222 0.03000574 0.01010911 -0.01805222 -0.02749426 0.01010911 -0.01822486 -0.02802499 0.00813591 -0.01903055 -0.0302 -0.00107318 -0.01896736 -0.03000573 -0.00035094 -0.01915692 -0.02874999 -0.00251766 -0.01992389 -0.0575 -0.01128418 -0.01903055 0.02730001 -0.00107318 -0.01896736 0.02749427 -0.00035094 -0.01822486 0.02802501 0.00813591 -0.0189211 0.02802501 0.00017778 -0.01890417 0.02875001 0.0003713 -0.0189211 0.02947501 0.00017778 -0.01896736 0.03000574 -0.00035094 -0.01903055 0.03020001 -0.00107318 -0.01909374 0.02749427 -0.00179542 -0.0189211 -0.02947499 0.00017778 -0.01811541 -0.02729999 0.00938686 -0.01811541 0.02730001 0.00938686 -0.01805222 0.02749427 0.01010911 -0.01909374 0.03000574 -0.00179542 -0.01913999 0.02947501 -0.00232414 -0.01913999 -0.02947499 -0.00232414 -0.01909374 -0.03000573 -0.00179542 -0.01903055 -0.02729999 -0.00107318 -0.01909374 -0.02749426 -0.00179542 -0.01913999 -0.02802499 -0.00232414 -0.01822486 -0.02947499 0.00813591 -0.01811541 -0.0302 0.00938686 -0.04530393 0.05566793 0.00298213 -0.04826577 0.05387448 0.00324126 -0.04757812 0.05346389 0.01723457 -0.04887586 0.05387448 -0.00373211 -0.04984416 0.05346389 -0.00866649 -0.0463498 0.05566793 -0.00897221 -0.04408375 0.05566793 0.01692885 -0.04018842 0.05703617 0.01658806 -0.0414086 0.05703617 0.00264133 -0.03608745 0.0575 0.01622927 -0.03730763 0.0575 0.00228254 -0.04591402 0.05566793 -0.00399124 -0.04201869 0.05703617 -0.00433203 -0.04245447 0.05703617 -0.00931301 -0.03791772 0.0575 -0.00469082 -0.0383535 0.0575 -0.00967179 -0.05276234 0.05053457 -0.00841118 -0.05049629 0.05053457 0.01748988 -0.05495799 0.04702685 -0.00821909 -0.05269194 0.04702685 0.01768197 -0.05632103 0.04311664 -0.00809984 -0.05405498 0.04311664 0.01780122 -0.0567831 0.039 -0.00805941 -0.05451705 0.039 0.01784165 -0.02336984 0.05374693 0.01511662 -0.02284112 0.05427767 0.01507036 -0.02356336 0.05302193 0.01513355 -0.02211888 0.05447193 0.01500718 -0.02139664 0.05427767 0.01494399 -0.02086792 0.05374693 0.01489773 -0.02284112 0.05176619 0.01507036 -0.02336984 0.05229693 0.01511662 -0.05327752 0.000725 0.01773321 -0.05347104 0 0.01775014 -0.05327752 -0.000725 0.01773321 -0.0527488 -0.00125573 0.01768695 -0.02139664 -0.05176619 0.01494399 -0.02086792 -0.05229693 0.01489773 -0.02067439 -0.05302192 0.0148808 -0.02086792 -0.05374692 0.01489773 -0.02336984 -0.05374692 0.01511662 -0.02356336 -0.05302192 0.01513355 -0.02139664 -0.05427766 0.01494399 -0.02211888 -0.05447192 0.01500718 -0.02284112 -0.05427766 0.01507036 -0.02067439 0.05302193 0.0148808 -0.02086792 0.05229693 0.01489773 -0.02139664 0.05176619 0.01494399 -0.02211888 -0.05157192 0.01500718 -0.02211888 0.05157193 0.01500718 -0.05130432 -0.00125573 0.01756057 -0.05202656 -0.00144999 0.01762376 -0.02336984 -0.05229693 0.01511662 -0.05130432 0.00125574 0.01756057 -0.0507756 0.000725 0.01751431 -0.05058208 0 0.01749738 -0.0507756 -0.000725 0.01751431 -0.0527488 0.00125574 0.01768695 -0.05202656 0.00145 0.01762376 -0.02284112 -0.05176619 0.01507036 -0.0383535 0.02410001 -0.00967179 -0.03755654 0.02388565 -0.00974152 -0.03697313 0.02330001 -0.00979256 -0.03675959 0.02250001 -0.00981124 -0.03697313 0.02170001 -0.00979256 -0.03915045 -0.02111435 -0.00960207 -0.03973386 -0.02169999 -0.00955103 -0.03915045 0.02388565 -0.00960207 -0.03755654 -0.02388564 -0.00974152 -0.0383535 -0.02409999 -0.00967179 -0.03973386 0.02330001 -0.00955103 -0.03994741 0.02250001 -0.00953235 -0.03973386 0.02170001 -0.00955103 -0.03915045 0.02111436 -0.00960207 -0.0383535 -0.02089999 -0.00967179 -0.0383535 0.02090001 -0.00967179 -0.03755654 -0.02111435 -0.00974152 -0.03755654 0.02111436 -0.00974152 -0.03697313 -0.02169999 -0.00979256 -0.03675959 -0.0225 -0.00981124 -0.03697313 -0.02329999 -0.00979256 -0.03994741 -0.0225 -0.00953235 -0.03973386 -0.02329999 -0.00955103 -0.03915045 -0.02388564 -0.00960207 -0.03929808 -0.02329999 -0.00457005 -0.03951163 -0.0225 -0.00455137 -0.02695958 0.0575 -0.00564953 -0.02695958 -0.0575 -0.00564953 -0.03653735 -0.02169999 -0.00481159 -0.0363238 -0.0225 -0.00483027 -0.03653735 0.02330001 -0.00481159 -0.03712076 0.02388565 -0.00476055 -0.03791772 0.02410001 -0.00469082 -0.03951163 0.02250001 -0.00455137 -0.03929808 0.02330001 -0.00457005 -0.03871467 0.02388565 -0.0046211 -0.03929808 -0.02169999 -0.00457005 -0.03871467 -0.02111435 -0.0046211 -0.03791772 -0.02409999 -0.00469082 -0.03712076 -0.02388564 -0.00476055 -0.03653735 -0.02329999 -0.00481159 -0.03929808 0.02170001 -0.00457005 -0.03871467 0.02111436 -0.0046211 -0.03871467 -0.02388564 -0.0046211 -0.0363238 0.02250001 -0.00483027 -0.03653735 0.02170001 -0.00481159 -0.03712076 0.02111436 -0.00476055 -0.03791772 0.02090001 -0.00469082 -0.03791772 -0.02089999 -0.00469082 -0.03712076 -0.02111435 -0.00476055 -0.02634948 -0.0575 0.00132383 -0.02634948 0.0575 0.00132383 -0.0248707 -0.05302192 0.00019063 -0.02467717 -0.05374692 0.0001737 -0.02414845 -0.05427766 0.00012744 -0.02342621 -0.05447192 6.426E-05 -0.02270397 -0.05427766 1.07E-06 -0.02217525 -0.05374692 -4.519E-05 -0.02198173 -0.05302192 -6.212E-05 -0.02217525 -0.05229693 -4.519E-05 -0.02270397 -0.05176619 1.07E-06 -0.02342621 -0.05157192 6.426E-05 -0.02414845 -0.05176619 0.00012744 -0.02467717 -0.05229693 0.0001737 -0.02342621 -0.05302192 6.426E-05 -0.05477838 0 0.00280721 -0.05458486 -0.000725 0.00279028 -0.05405614 -0.00125573 0.00274403 -0.0533339 -0.00144999 0.00268084 -0.05261166 -0.00125573 0.00261765 -0.05208294 -0.000725 0.00257139 -0.05188942 0 0.00255446 -0.05208294 0.000725 0.00257139 -0.05261166 0.00125574 0.00261765 -0.0533339 0.00145 0.00268084 -0.05405614 0.00125574 0.00274403 -0.05458486 0.000725 0.00279028 -0.0533339 0 0.00268084 -0.0248707 0.05302193 0.00019063 -0.02467717 0.05229693 0.0001737 -0.02414845 0.05176619 0.00012744 -0.02342621 0.05157193 6.426E-05 -0.02270397 0.05176619 1.07E-06 -0.02217525 0.05229693 -4.519E-05 -0.02198173 0.05302193 -6.212E-05 -0.02217525 0.05374693 -4.519E-05 -0.02270397 0.05427767 1.07E-06 -0.02342621 0.05447193 6.426E-05 -0.02414845 0.05427767 0.00012744 -0.02467717 0.05374693 0.0001737 -0.02342621 0.05302193 6.426E-05</float_array>
          <technique_common>
            <accessor source="#pos_0-array" count="1317" stride="3">
              <param name="X" type="float"/>
              <param name="Y" type="float"/>
              <param name="Z" type="float"/>
            </accessor>
          </technique_common>
        </source>
        <source id="norm_0">
          <float_array id="norm_0-array" count="765">0.08716 -0 0.99619 0 -1 0 -0.08716 0 -0.99619 0 1 0 -0.99619 0 0.08716 -0.99619 0 0.08716 1 -0 0 1 0 -0 1 0 -0 1 0 -0 1 2E-05 -0 1 0 0 1 -0 0 1 0 -0 1 -0 0 1 -1E-05 2E-05 1 0 -1E-05 1 -0 0 1 0 0 1 0 0 1 -0 -1E-05 1 -0 -0 1 0 -1E-05 1 -0 0 1 -0 0 1 0 -0 1 -0 0 1 -0 0 1 -0 0 1 -0 0 1 0 -0 1 0 -0 1 -0 0 1 0 0 1 -0 -0 1 0 0 1 0 -1E-05 1 -0 0 1 0 -0 1 0 0 1 -0 -0 1 -0 -0 1 0 -0 1 -0 0 1 -0 0 1 2E-05 -0 1 0 -0 1 0 0 1 -0 -2E-05 1 -0 0 1 0 -1E-05 1 -0 0 1 -0 0 1 0 -0 1 -1E-05 0 1 0 -0 1 -0 0 1 1E-05 -0 1 -0 0 1 0 -0 1 -0 0 1 -0 -3E-05 1 0 0 1 -0 -1E-05 1 0 0 1 0 0 1 -0 0 1 -0 -0 1 -0 0 1 -0 -0 1 -0 -0 1 0 -0 1 -0 0 1 0 0 1 -0 0 1 0 0 0.08641 -0.13053 0.98767 0.08675 -0.25882 0.96202 0.08641 0.13053 0.98767 0.08675 0.25882 0.96202 0.08052 0.38268 0.92036 0.06163 0.70711 0.70442 0.02256 0.96593 0.25784 -0.02256 0.96593 -0.25784 -0.06163 0.70711 -0.70442 0.08052 -0.38268 0.92036 0.06163 -0.70711 0.70442 0.02256 -0.96593 0.25783 -0.02256 -0.96593 -0.25783 -0.06163 -0.70711 -0.70442 -0.08052 -0.38268 -0.92036 -0.08159 -0.25882 -0.96247 -0.08641 -0.13053 -0.98767 -0.08419 0.25882 -0.96225 -0.08127 0.13058 -0.9881 -0.08052 0.38268 -0.92036 0.08687 -0.25882 0.96201 0.08687 0.25882 0.96201 0.08052 0.38268 0.92036 0.06163 0.70711 0.70442 0.02256 0.96593 0.25783 -0.02256 0.96593 -0.25783 -0.06163 0.70711 -0.70442 0.08052 -0.38268 0.92036 0.06163 -0.70711 0.70442 0.02256 -0.96593 0.25784 -0.02256 -0.96593 -0.25784 -0.06163 -0.70711 -0.70442 -0.08052 -0.38269 -0.92036 -0.08146 -0.25882 -0.96248 -0.08419 0.25882 -0.96225 -0.08101 0.13059 -0.98812 -0.08052 0.38268 -0.92036 0.08675 -0.25882 0.96202 0.08675 0.25882 0.96202 0.02256 0.96593 0.25783 -0.02256 0.96593 -0.25783 0.02256 -0.96593 0.25784 -0.02256 -0.96593 -0.25784 -0.08052 -0.38268 -0.92036 -0.08159 -0.25882 -0.96247 -0.08419 0.25882 -0.96225 -0.08127 0.13058 -0.9881 -0.08052 0.38268 -0.92036 0.08687 -0.25882 0.96201 0.08687 0.25882 0.96201 0.02256 0.96593 0.25784 -0.02256 0.96593 -0.25784 0.02256 -0.96593 0.25783 -0.02256 -0.96593 -0.25783 -0.08052 -0.38268 -0.92036 -0.08146 -0.25882 -0.96248 -0.08419 0.25882 -0.96225 -0.08101 0.13059 -0.98812 -0.08052 0.38269 -0.92036 -0.11154 -0.99371 0.00976 -0.32902 -0.94388 0.02879 -0.51581 -0.85618 0.02998 -0.60682 -0.79306 0.05309 -0.53001 -0.84672 0.04637 -0.51455 -0.85628 0.04502 -0.52961 -0.84672 0.05087 -0.70442 -0.70711 0.06163 -0.8435 -0.53203 0.0738 -0.94029 -0.33028 0.08226 -0.98993 -0.11196 0.08661 -0.82511 -0.56034 0.07219 0.82511 -0.56034 -0.07219 0.98605 -0.14232 -0.08627 0.90617 -0.41541 -0.07928 0.75239 -0.65485 -0.07126 0.73727 -0.67251 -0.0645 0.53858 -0.84125 -0.04712 0.28066 -0.95949 -0.02455 -0 -1 0 -0.28066 -0.95949 0.02455 -0.53858 -0.84125 0.04712 -0.75287 -0.65486 0.06587 -0.73782 -0.67249 0.05805 -0.90617 -0.41541 0.07928 -0.98605 -0.14232 0.08627 -0.99619 0 0.08716 0.82511 0.56034 -0.07219 -0.82511 0.56034 0.07219 -0.98605 0.14232 0.08627 -0.90617 0.41541 0.07928 -0.75333 0.65485 0.06048 -0.73727 0.67251 0.0645 -0.53858 0.84125 0.04712 -0.28066 0.95949 0.02455 0 1 -0 0.28066 0.95949 -0.02455 0.53858 0.84125 -0.04712 0.75287 0.65486 -0.06587 0.73669 0.67249 -0.07095 0.90617 0.41541 -0.07928 0.98605 0.14232 -0.08627 0.99619 -0 -0.08716 -0.51408 0.85626 0.05039 -0.60682 0.79306 0.05309 -0.53107 0.84666 0.03376 -0.53001 0.84672 0.04637 -0.32902 0.94388 0.02879 -0.11154 0.99371 0.00976 -0.51455 0.85628 0.04502 -0.70442 0.70711 0.06163 -0.8435 0.53203 0.0738 -0.94029 0.33028 0.08226 -0.98993 0.11196 0.08661 -0.96225 0.25882 0.08419 -0.70442 0.70711 0.06163 -0.25783 0.96593 0.02256 0.25783 0.96593 -0.02256 0.70442 0.70711 -0.06163 0.96225 0.25882 -0.08419 0.96225 -0.25882 -0.08419 0.70442 -0.70711 -0.06163 0.25783 -0.96593 -0.02256 -0.25783 -0.96593 0.02256 -0.70442 -0.70711 0.06163 -0.96225 -0.25882 0.08419 -0.96225 0.25882 0.08419 0.96225 0.25882 -0.08419 0.96225 -0.25882 -0.08419 -0.96225 -0.25882 0.08419 0.96225 0.25882 -0.08419 0.70442 0.70711 -0.06163 -0.70442 0.70711 0.06163 -0.96225 0.25882 0.08419 -0.96225 -0.25882 0.08419 -0.70442 -0.70711 0.06163 0.70442 -0.70711 -0.06163 0.96225 -0.25882 -0.08419 0.96225 0.25882 -0.08419 0.70442 0.70711 -0.06163 0.25783 0.96593 -0.02256 -0.25783 0.96593 0.02256 -0.70442 0.70711 0.06163 -0.96225 0.25882 0.08419 -0.96225 -0.25882 0.08419 -0.70442 -0.70711 0.06163 -0.25783 -0.96593 0.02256 0.25783 -0.96593 -0.02256 0.70442 -0.70711 -0.06163 0.96225 -0.25882 -0.08419 0.96225 0.25882 -0.08419 -0.96225 0.25882 0.08419 -0.96225 -0.25882 0.08419 0.96225 -0.25882 -0.08419 -0.02256 -0.96593 -0.25784 -0.08419 -0.25882 -0.96225 -0.08419 0.25882 -0.96225 -0.02256 0.96593 -0.25783 0.02256 0.96593 0.25783 0.06163 0.70711 0.70442 0.08419 0.25882 0.96225 0.08419 -0.25882 0.96225 0.06163 -0.70711 0.70442 0.02256 -0.96593 0.25784 -0.08419 -0.25882 -0.96225 -0.08419 0.25882 -0.96225 0.02256 0.96593 0.25784 0.08419 0.25882 0.96225 0.08419 -0.25882 0.96225 0.02256 -0.96593 0.25783 0.02256 0.96593 0.25783 0.08419 0.25882 0.96225 0.08419 -0.25882 0.96225 0.02256 -0.96593 0.25784 -0.02256 -0.96593 -0.25783 -0.02256 0.96593 -0.25784 0.02256 0.96593 0.25784 0.08419 0.25882 0.96225 0.08419 -0.25882 0.96225 0.02256 -0.96593 0.25783</float_array>
          <technique_common>
            <accessor source="#norm_0-array" count="765" stride="3">
              <param name="X" type="float"/>
              <param name="Y" type="float"/>
              <param name="Z" type="float"/>
            </accessor>
          </technique_common>
        </source>
        <vertices id="vert_0">
          <input semantic="POSITION" source="#pos_0"/>
        </vertices>
        <triangles count="942" material="mat_0">
          <input semantic="VERTEX" source="#vert_0" offset="0"/>
          <input semantic="NORMAL" source="#norm_0" offset="1"/>
          <p>0 0 1 0 2 0 2 0 1 0 3 0 1 1 4 1 3 1 3 1 4 1 5 1 6 2 5 2 7 2 7 2 5 2 4 2 6 3 7 3 2 3 2 3 7 3 0 3 8 4 9 4 10 4 11 5 12 5 13 5 13 4 12 4 14 4 13 4 14 4 15 4 15 5 14 5 16 5 15 4 16 4 17 4 8 4 10 4 1 4 1 4 10 4 18 4 1 4 18 4 19 4 20 5 21 5 22 5 22 4 21 4 23 4 22 4 23 4 24 4 24 4 23 4 25 4 24 4 25 4 26 4 27 4 15 4 25 4 25 4 15 4 17 4 25 4 17 4 26 4 28 4 29 4 8 4 8 4 29 4 30 4 8 4 30 4 9 4 20 4 22 4 31 4 31 4 22 4 32 4 31 4 32 4 33 4 7 4 34 4 35 4 36 4 37 4 0 4 0 4 37 4 38 4 0 4 38 4 1 4 1 4 38 4 39 4 1 4 39 4 8 4 4 4 40 4 7 4 7 4 40 4 41 4 7 4 41 4 42 4 7 4 35 4 0 4 0 4 35 4 43 4 0 4 43 4 36 4 19 4 31 4 1 4 1 5 31 5 33 5 1 4 33 4 4 4 4 4 33 4 44 4 45 4 15 4 28 4 28 4 15 4 27 4 28 4 27 4 29 4 42 4 46 4 7 4 7 4 46 4 47 4 7 5 47 5 34 5 34 4 47 4 48 4 34 4 48 4 49 4 49 4 48 4 15 4 49 4 15 4 50 4 50 4 15 4 45 4 44 4 51 4 4 4 4 4 51 4 52 4 4 4 52 4 12 4 11 5 53 5 12 5 12 4 53 4 54 4 12 5 54 5 4 5 4 4 54 4 55 4 4 4 55 4 40 4 56 6 57 6 5 6 5 7 57 7 58 7 59 8 60 8 61 8 61 9 60 9 62 9 61 10 62 10 63 10 6 11 64 11 65 11 66 12 67 12 5 12 5 13 67 13 63 13 68 14 69 14 70 14 71 15 72 15 5 15 5 16 72 16 73 16 5 17 73 17 56 17 3 18 74 18 75 18 65 19 76 19 6 19 6 20 76 20 77 20 6 21 77 21 5 21 5 22 77 22 78 22 5 23 78 23 66 23 69 24 79 24 70 24 70 25 79 25 80 25 70 26 80 26 81 26 62 27 82 27 63 27 63 28 82 28 83 28 63 29 83 29 5 29 5 30 83 30 70 30 5 31 70 31 71 31 71 32 70 32 81 32 84 33 85 33 3 33 3 34 85 34 86 34 3 35 86 35 87 35 88 36 89 36 2 36 2 37 89 37 90 37 2 38 90 38 6 38 6 39 90 39 91 39 6 40 91 40 64 40 84 41 3 41 92 41 92 42 3 42 5 42 92 43 5 43 93 43 93 44 5 44 58 44 93 27 58 27 94 27 94 45 58 45 95 45 94 46 95 46 96 46 75 47 97 47 3 47 3 48 97 48 98 48 3 49 98 49 2 49 2 50 98 50 99 50 2 51 99 51 100 51 59 52 61 52 101 52 101 53 61 53 102 53 101 54 102 54 103 54 103 55 104 55 101 55 101 56 104 56 88 56 101 57 88 57 105 57 105 58 88 58 2 58 105 59 2 59 106 59 106 60 2 60 100 60 107 61 74 61 108 61 108 62 74 62 3 62 108 63 3 63 109 63 109 64 3 64 87 64 107 65 110 65 74 65 74 66 110 66 111 66 74 67 111 67 112 67 112 67 111 67 113 67 112 68 113 68 70 68 70 68 113 68 114 68 70 69 114 69 68 69 68 70 114 70 115 70 68 71 115 71 116 71 96 72 117 72 94 72 94 73 117 73 118 73 94 73 118 73 116 73 116 74 118 74 119 74 116 75 119 75 68 75 12 76 72 76 71 76 12 77 71 77 14 77 72 78 12 78 73 78 73 79 12 79 52 79 73 80 52 80 56 80 56 81 52 81 51 81 56 81 51 81 57 81 57 82 51 82 44 82 57 82 44 82 58 82 58 83 44 83 33 83 58 83 33 83 95 83 95 84 33 84 32 84 95 84 32 84 96 84 71 85 81 85 14 85 14 86 81 86 80 86 14 86 80 86 16 86 16 87 80 87 79 87 16 87 79 87 17 87 17 88 79 88 69 88 17 88 69 88 26 88 26 89 69 89 68 89 26 89 68 89 24 89 24 90 68 90 119 90 24 91 119 91 22 91 22 92 119 92 118 92 22 93 118 93 32 93 32 94 118 94 117 94 32 95 117 95 96 95 49 76 62 76 60 76 49 96 60 96 34 96 62 78 49 78 82 78 82 97 49 97 50 97 82 98 50 98 83 98 83 99 50 99 45 99 83 99 45 99 70 99 70 100 45 100 28 100 70 100 28 100 112 100 112 101 28 101 8 101 112 101 8 101 74 101 74 102 8 102 39 102 74 102 39 102 75 102 60 103 59 103 34 103 34 104 59 104 101 104 34 104 101 104 35 104 35 105 101 105 105 105 35 105 105 105 43 105 43 106 105 106 106 106 43 106 106 106 36 106 36 107 106 107 100 107 36 107 100 107 37 107 37 108 100 108 99 108 37 109 99 109 38 109 38 92 99 92 98 92 38 110 98 110 39 110 39 111 98 111 97 111 39 112 97 112 75 112 40 76 77 76 76 76 40 113 76 113 41 113 77 78 40 78 78 78 78 114 40 114 55 114 78 98 55 98 66 98 66 81 55 81 54 81 66 81 54 81 67 81 67 115 54 115 53 115 67 115 53 115 63 115 63 116 53 116 11 116 63 116 11 116 61 116 61 84 11 84 13 84 61 84 13 84 102 84 76 103 65 103 41 103 41 86 65 86 64 86 41 86 64 86 42 86 42 117 64 117 91 117 42 117 91 117 46 117 46 118 91 118 90 118 46 118 90 118 47 118 47 89 90 89 89 89 47 89 89 89 48 89 48 119 89 119 88 119 48 120 88 120 15 120 15 92 88 92 104 92 15 121 104 121 13 121 13 122 104 122 103 122 13 123 103 123 102 123 23 76 94 76 116 76 23 124 116 124 25 124 94 78 23 78 93 78 93 125 23 125 21 125 93 80 21 80 92 80 92 99 21 99 20 99 92 99 20 99 84 99 84 126 20 126 31 126 84 126 31 126 85 126 85 127 31 127 19 127 85 127 19 127 86 127 86 102 19 102 18 102 86 102 18 102 87 102 116 85 115 85 25 85 25 104 115 104 114 104 25 104 114 104 27 104 27 128 114 128 113 128 27 128 113 128 29 128 29 129 113 129 111 129 29 129 111 129 30 129 30 107 111 107 110 107 30 107 110 107 9 107 9 130 110 130 107 130 9 131 107 131 10 131 10 92 107 92 108 92 10 132 108 132 18 132 18 133 108 133 109 133 18 134 109 134 87 134 120 135 121 135 122 135 120 135 122 135 123 135 123 136 122 136 124 136 123 136 124 136 125 136 126 137 127 137 128 137 128 138 127 138 129 138 128 139 130 139 126 139 126 136 130 136 131 136 126 136 131 136 132 136 132 135 131 135 133 135 132 135 133 135 134 135 125 140 124 140 129 140 129 141 124 141 135 141 129 138 135 138 128 138 128 142 135 142 136 142 128 142 136 142 137 142 137 143 136 143 138 143 137 143 138 143 139 143 139 144 138 144 140 144 139 144 140 144 141 144 141 145 140 145 142 145 141 145 142 145 143 145 144 146 145 146 146 146 147 147 148 147 149 147 150 148 151 148 152 148 152 148 151 148 153 148 152 149 153 149 154 149 153 149 147 149 154 149 154 147 147 147 149 147 154 150 149 150 155 150 155 151 149 151 156 151 155 152 156 152 157 152 157 152 156 152 158 152 157 153 158 153 159 153 159 153 158 153 160 153 159 154 160 154 161 154 161 154 160 154 162 154 161 155 162 155 163 155 163 155 162 155 164 155 163 156 164 156 165 156 165 156 164 156 166 156 165 157 166 157 167 157 166 158 144 158 167 158 167 146 144 146 146 146 167 159 146 159 168 159 168 159 146 159 169 159 168 160 169 160 170 160 170 160 169 160 171 160 172 161 173 161 170 161 174 161 175 161 170 161 170 161 175 161 176 161 170 161 176 161 177 161 177 161 176 161 178 161 179 161 180 161 181 161 181 161 180 161 182 161 181 161 182 161 183 161 183 161 182 161 184 161 180 161 185 161 182 161 182 161 185 161 186 161 182 161 186 161 171 161 171 161 186 161 187 161 171 161 187 161 188 161 189 161 174 161 190 161 178 161 191 161 177 161 177 161 191 161 192 161 177 161 192 161 182 161 182 161 192 161 193 161 182 161 193 161 194 161 195 161 196 161 179 161 179 161 196 161 197 161 173 161 198 161 170 161 170 161 198 161 199 161 170 161 199 161 174 161 174 161 199 161 200 161 174 161 200 161 190 161 201 161 202 161 203 161 172 161 170 161 204 161 204 161 170 161 171 161 204 161 171 161 205 161 179 161 181 161 195 161 195 161 181 161 206 161 195 161 206 161 203 161 203 161 206 161 207 161 203 161 207 161 201 161 202 161 208 161 203 161 203 161 208 161 209 161 203 161 209 161 190 161 190 161 209 161 210 161 190 161 210 161 189 161 188 161 211 161 171 161 171 161 211 161 212 161 171 161 212 161 205 161 205 161 212 161 213 161 205 161 213 161 214 161 214 161 213 161 215 161 214 161 215 161 196 161 196 161 215 161 216 161 196 161 216 161 197 161 202 161 217 161 208 161 208 161 217 161 218 161 208 161 218 161 194 161 218 161 219 161 194 161 194 161 219 161 220 161 194 161 220 161 182 161 182 161 220 161 221 161 182 161 221 161 184 161 222 162 223 162 224 162 225 163 226 163 227 163 177 164 182 164 228 164 228 164 182 164 229 164 228 165 229 165 230 165 229 165 225 165 230 165 230 163 225 163 227 163 230 166 227 166 231 166 231 167 227 167 232 167 231 168 232 168 233 168 233 168 232 168 234 168 233 169 234 169 235 169 235 169 234 169 236 169 235 170 236 170 237 170 237 170 236 170 238 170 237 171 238 171 239 171 239 171 238 171 240 171 239 172 240 172 241 172 241 172 240 172 242 172 241 173 242 173 243 173 242 174 222 174 243 174 243 162 222 162 224 162 243 175 224 175 244 175 244 175 224 175 245 175 244 176 245 176 246 176 246 176 245 176 247 176 150 177 246 177 151 177 151 177 246 177 247 177 248 177 18 177 1 177 1 177 18 177 249 177 1 177 249 177 0 177 250 177 251 177 252 177 252 177 251 177 253 177 252 177 253 177 254 177 0 177 255 177 256 177 256 177 255 177 35 177 256 177 35 177 257 177 258 177 37 177 0 177 0 177 37 177 259 177 0 177 259 177 255 177 249 177 9 177 0 177 0 177 9 177 260 177 0 177 260 177 258 177 258 177 260 177 39 177 261 177 262 177 263 177 264 177 265 177 256 177 266 177 267 177 268 177 268 177 267 177 269 177 268 177 269 177 49 177 49 177 269 177 270 177 49 177 270 177 257 177 257 177 270 177 271 177 257 177 271 177 256 177 256 177 271 177 272 177 256 177 272 177 273 177 268 177 45 177 266 177 266 177 45 177 254 177 266 177 254 177 274 177 274 177 254 177 253 177 263 177 275 177 261 177 261 177 275 177 254 177 261 177 254 177 27 177 27 177 254 177 45 177 27 177 45 177 276 177 276 177 45 177 277 177 276 177 277 177 260 177 260 177 277 177 278 177 260 177 278 177 39 177 273 177 279 177 256 177 256 177 279 177 280 177 256 177 280 177 251 177 264 177 281 177 265 177 265 177 281 177 282 177 265 177 282 177 262 177 250 177 283 177 251 177 251 177 283 177 284 177 251 177 284 177 256 177 256 177 284 177 285 177 256 177 285 177 264 177 261 177 23 177 262 177 262 177 23 177 286 177 262 177 286 177 265 177 265 177 286 177 20 177 265 177 20 177 1 177 1 177 20 177 287 177 1 177 287 177 248 177 288 178 289 178 290 178 289 179 291 179 292 179 292 180 291 180 293 180 290 181 294 181 288 181 288 182 294 182 295 182 288 182 295 182 296 182 296 183 295 183 297 183 296 183 297 183 298 183 291 184 299 184 293 184 293 182 299 182 300 182 293 182 300 182 301 182 301 183 300 183 302 183 301 183 302 183 303 183 289 179 292 179 290 179 290 185 292 185 304 185 290 185 304 185 305 185 305 186 304 186 306 186 305 186 306 186 307 186 307 187 306 187 308 187 307 187 308 187 309 187 309 188 308 188 310 188 309 188 310 188 311 188 142 161 311 161 143 161 143 161 311 161 310 161 312 0 313 0 297 0 294 0 290 0 314 0 297 0 313 0 0 0 312 0 297 0 314 0 314 0 297 0 295 0 314 0 295 0 294 0 313 0 315 0 0 0 0 0 315 0 316 0 0 0 316 0 317 0 244 0 246 0 142 0 161 0 318 0 319 0 320 0 311 0 321 0 321 0 311 0 142 0 321 0 142 0 322 0 322 0 142 0 323 0 0 0 324 0 325 0 0 0 325 0 1 0 1 0 325 0 326 0 1 0 326 0 327 0 121 0 328 0 122 0 122 0 328 0 329 0 122 0 329 0 124 0 124 0 329 0 135 0 327 0 330 0 1 0 1 0 330 0 331 0 1 0 331 0 121 0 121 0 331 0 332 0 121 0 332 0 328 0 317 0 333 0 0 0 0 0 333 0 334 0 0 0 334 0 324 0 324 0 334 0 335 0 324 0 335 0 336 0 336 0 335 0 337 0 246 0 338 0 142 0 142 0 338 0 339 0 142 0 339 0 323 0 237 0 135 0 235 0 235 0 135 0 329 0 235 0 329 0 233 0 233 0 329 0 340 0 307 0 309 0 311 0 341 0 342 0 150 0 150 0 342 0 343 0 150 0 343 0 246 0 246 0 343 0 344 0 246 0 344 0 338 0 161 0 163 0 318 0 318 0 163 0 165 0 318 0 165 0 337 0 337 0 165 0 167 0 337 0 167 0 168 0 142 0 140 0 244 0 244 0 140 0 138 0 244 0 138 0 243 0 243 0 138 0 136 0 243 0 136 0 241 0 241 0 136 0 135 0 241 0 135 0 239 0 239 0 135 0 237 0 320 0 345 0 311 0 311 0 345 0 346 0 311 0 346 0 307 0 307 0 346 0 341 0 341 0 150 0 307 0 307 0 150 0 152 0 307 0 152 0 305 0 305 0 152 0 154 0 305 0 154 0 290 0 290 0 154 0 155 0 290 0 155 0 157 0 168 0 170 0 337 0 337 0 170 0 177 0 337 0 177 0 336 0 336 0 177 0 228 0 336 0 228 0 347 0 347 0 228 0 230 0 347 0 230 0 340 0 340 0 230 0 231 0 340 0 231 0 233 0 319 0 314 0 161 0 161 0 314 0 290 0 161 0 290 0 159 0 159 0 290 0 157 0 301 2 303 2 348 2 348 2 303 2 349 2 349 2 303 2 256 2 349 2 256 2 350 2 350 2 256 2 351 2 351 2 256 2 265 2 351 2 265 2 352 2 310 2 353 2 354 2 355 2 292 2 348 2 348 2 292 2 293 2 348 2 293 2 301 2 310 2 354 2 143 2 356 2 265 2 357 2 357 2 265 2 133 2 357 2 133 2 131 2 358 2 310 2 355 2 355 2 310 2 308 2 308 2 306 2 355 2 355 2 306 2 304 2 355 2 304 2 292 2 358 2 359 2 310 2 310 2 359 2 360 2 310 2 360 2 353 2 353 2 360 2 361 2 353 2 361 2 362 2 362 2 361 2 363 2 362 2 363 2 364 2 364 2 363 2 365 2 364 2 365 2 366 2 366 2 365 2 352 2 366 2 352 2 367 2 367 2 352 2 265 2 367 2 265 2 368 2 368 2 265 2 356 2 354 2 369 2 143 2 143 2 369 2 370 2 143 2 370 2 141 2 141 2 370 2 371 2 141 2 371 2 139 2 131 2 130 2 357 2 357 2 130 2 128 2 357 2 128 2 371 2 371 2 128 2 137 2 371 2 137 2 139 2 372 0 373 0 247 0 145 0 374 0 302 0 182 0 223 0 229 0 229 0 223 0 225 0 148 0 147 0 145 0 145 0 147 0 153 0 145 0 153 0 151 0 225 0 223 0 226 0 226 0 223 0 127 0 226 0 127 0 126 0 126 0 132 0 226 0 226 0 132 0 134 0 226 0 134 0 375 0 171 0 376 0 182 0 182 0 376 0 377 0 291 0 148 0 299 0 299 0 148 0 145 0 299 0 145 0 300 0 300 0 145 0 302 0 378 0 171 0 379 0 379 0 171 0 169 0 379 0 169 0 380 0 381 0 382 0 151 0 151 0 382 0 383 0 151 0 383 0 145 0 145 0 383 0 380 0 145 0 380 0 146 0 146 0 380 0 169 0 247 0 373 0 151 0 151 0 373 0 384 0 151 0 384 0 385 0 386 0 223 0 387 0 387 0 223 0 182 0 387 0 182 0 388 0 388 0 182 0 377 0 381 0 151 0 389 0 389 0 151 0 385 0 389 0 385 0 390 0 372 0 247 0 391 0 391 0 247 0 245 0 391 0 245 0 386 0 386 0 245 0 224 0 386 0 224 0 223 0 378 0 392 0 171 0 171 0 392 0 393 0 171 0 393 0 376 0 376 0 393 0 394 0 390 0 385 0 395 0 395 0 385 0 396 0 395 0 396 0 394 0 394 0 396 0 397 0 394 0 397 0 376 0 377 189 367 189 388 189 388 189 367 189 368 189 388 190 368 190 387 190 387 190 368 190 356 190 387 191 356 191 386 191 386 191 356 191 357 191 386 192 357 192 391 192 391 192 357 192 371 192 391 193 371 193 372 193 372 193 371 193 370 193 372 194 370 194 373 194 373 194 370 194 369 194 373 195 369 195 384 195 384 195 369 195 354 195 384 196 354 196 385 196 385 196 354 196 353 196 385 197 353 197 396 197 396 197 353 197 362 197 396 198 362 198 397 198 397 198 362 198 364 198 397 199 364 199 376 199 376 199 364 199 366 199 376 200 366 200 377 200 377 200 366 200 367 200 392 201 351 201 393 201 393 201 351 201 352 201 393 190 352 190 394 190 394 190 352 190 365 190 394 191 365 191 395 191 395 191 365 191 363 191 395 192 363 192 390 192 390 192 363 192 361 192 390 193 361 193 389 193 389 193 361 193 360 193 389 202 360 202 381 202 381 202 360 202 359 202 381 203 359 203 382 203 382 203 359 203 358 203 382 196 358 196 383 196 383 196 358 196 355 196 383 197 355 197 380 197 380 197 355 197 348 197 380 198 348 198 379 198 379 198 348 198 349 198 379 199 349 199 378 199 378 199 349 199 350 199 378 204 350 204 392 204 392 204 350 204 351 204 134 154 133 154 375 154 375 154 133 154 265 154 375 154 265 154 398 154 398 154 265 154 1 154 398 154 1 154 120 154 120 154 1 154 121 154 298 170 297 170 399 170 399 170 297 170 0 170 399 170 0 170 374 170 374 170 0 170 256 170 374 170 256 170 302 170 302 170 256 170 303 170 400 205 329 205 401 205 401 205 329 205 328 205 401 206 328 206 402 206 402 206 328 206 332 206 402 192 332 192 403 192 403 192 332 192 331 192 403 191 331 191 404 191 404 191 331 191 330 191 404 207 330 207 405 207 405 207 330 207 327 207 405 208 327 208 406 208 406 208 327 208 326 208 406 209 326 209 407 209 407 209 326 209 325 209 407 210 325 210 408 210 408 210 325 210 324 210 408 198 324 198 409 198 409 198 324 198 336 198 409 197 336 197 410 197 410 197 336 197 347 197 410 211 347 211 411 211 411 211 347 211 340 211 411 212 340 212 400 212 400 212 340 212 329 212 404 0 405 0 412 0 412 0 405 0 406 0 412 0 406 0 407 0 401 0 402 0 412 0 412 0 402 0 403 0 412 0 403 0 404 0 410 0 411 0 412 0 412 0 411 0 400 0 412 0 400 0 401 0 407 0 408 0 412 0 412 0 408 0 409 0 412 0 409 0 410 0 413 213 321 213 414 213 414 213 321 213 322 213 414 214 322 214 415 214 415 214 322 214 323 214 415 215 323 215 416 215 416 215 323 215 339 215 416 216 339 216 417 216 417 216 339 216 338 216 417 217 338 217 418 217 418 217 338 217 344 217 418 218 344 218 419 218 419 218 344 218 343 218 419 219 343 219 420 219 420 219 343 219 342 219 420 220 342 220 421 220 421 220 342 220 341 220 421 221 341 221 422 221 422 221 341 221 346 221 422 222 346 222 423 222 423 222 346 222 345 222 423 223 345 223 424 223 424 223 345 223 320 223 424 224 320 224 413 224 413 224 320 224 321 224 423 0 424 0 425 0 425 0 424 0 413 0 425 0 413 0 414 0 420 0 421 0 425 0 425 0 421 0 422 0 425 0 422 0 423 0 417 0 418 0 425 0 425 0 418 0 419 0 425 0 419 0 420 0 414 0 415 0 425 0 425 0 415 0 416 0 425 0 416 0 417 0 426 225 314 225 427 225 427 225 314 225 319 225 427 206 319 206 428 206 428 206 319 206 318 206 428 192 318 192 429 192 429 192 318 192 337 192 429 191 337 191 430 191 430 191 337 191 335 191 430 207 335 207 431 207 431 207 335 207 334 207 431 226 334 226 432 226 432 226 334 226 333 226 432 227 333 227 433 227 433 227 333 227 317 227 433 210 317 210 434 210 434 210 317 210 316 210 434 198 316 198 435 198 435 198 316 198 315 198 435 197 315 197 436 197 436 197 315 197 313 197 436 211 313 211 437 211 437 211 313 211 312 211 437 228 312 228 426 228 426 228 312 228 314 228 436 0 437 0 438 0 438 0 437 0 426 0 438 0 426 0 427 0 433 0 434 0 438 0 438 0 434 0 435 0 438 0 435 0 436 0 430 0 431 0 438 0 438 0 431 0 432 0 438 0 432 0 433 0 427 0 428 0 438 0 438 0 428 0 429 0 438 0 429 0 430 0 172 229 255 229 173 229 173 229 255 229 259 229 173 107 259 107 198 107 198 107 259 107 37 107 198 230 37 230 199 230 199 230 37 230 258 230 199 231 258 231 200 231 200 231 258 231 39 231 200 102 39 102 190 102 190 102 39 102 278 102 190 232 278 232 203 232 203 232 278 232 277 232 203 233 277 233 195 233 195 233 277 233 45 233 195 234 45 234 196 234 196 234 45 234 268 234 196 235 268 235 214 235 214 235 268 235 49 235 214 236 49 236 205 236 205 236 49 236 257 236 205 237 257 237 204 237 204 237 257 237 35 237 204 238 35 238 172 238 172 238 35 238 255 238 201 129 283 129 202 129 202 129 283 129 250 129 202 107 250 107 217 107 217 107 250 107 252 107 217 239 252 239 218 239 218 239 252 239 254 239 218 240 254 240 219 240 219 240 254 240 275 240 219 102 275 102 220 102 220 102 275 102 263 102 220 127 263 127 221 127 221 127 263 127 262 127 221 241 262 241 184 241 184 241 262 241 282 241 184 234 282 234 183 234 183 234 282 234 281 234 183 242 281 242 181 242 181 242 281 242 264 242 181 243 264 243 206 243 206 243 264 243 285 243 206 237 285 237 207 237 207 237 285 237 284 237 207 244 284 244 201 244 201 244 284 244 283 244 211 106 273 106 212 106 212 106 273 106 272 106 212 107 272 107 213 107 213 107 272 107 271 107 213 230 271 230 215 230 215 230 271 230 270 230 215 231 270 231 216 231 216 231 270 231 269 231 216 102 269 102 197 102 197 102 269 102 267 102 197 101 267 101 179 101 179 101 267 101 266 101 179 245 266 245 180 245 180 245 266 245 274 245 180 234 274 234 185 234 185 234 274 234 253 234 185 246 253 246 186 246 186 246 253 246 251 246 186 247 251 247 187 247 187 247 251 247 280 247 187 237 280 237 188 237 188 237 280 237 279 237 188 248 279 248 211 248 211 248 279 248 273 248 189 249 276 249 174 249 174 249 276 249 260 249 174 107 260 107 175 107 175 107 260 107 9 107 175 239 9 239 176 239 176 239 9 239 249 239 176 240 249 240 178 240 178 240 249 240 18 240 178 102 18 102 191 102 191 102 18 102 248 102 191 250 248 250 192 250 192 250 248 250 287 250 192 251 287 251 193 251 193 251 287 251 20 251 193 234 20 234 194 234 194 234 20 234 286 234 194 252 286 252 208 252 208 252 286 252 23 252 208 253 23 253 209 253 209 253 23 253 261 253 209 237 261 237 210 237 210 237 261 237 27 237 210 254 27 254 189 254 189 254 27 254 276 254 144 2 166 2 399 2 399 2 166 2 164 2 399 2 164 2 298 2 298 2 164 2 162 2 298 2 162 2 296 2 296 2 162 2 160 2 296 2 160 2 288 2 288 2 160 2 158 2 288 2 158 2 289 2 289 2 158 2 156 2 289 2 156 2 149 2 399 161 374 161 144 161 144 161 374 161 145 161 291 177 289 177 148 177 148 177 289 177 149 177 222 177 129 177 223 177 223 177 129 177 127 177 232 2 227 2 398 2 129 2 222 2 242 2 129 2 242 2 125 2 125 2 242 2 240 2 125 2 240 2 123 2 123 2 240 2 238 2 123 2 238 2 120 2 120 2 238 2 236 2 120 2 236 2 398 2 398 2 236 2 234 2 398 2 234 2 232 2 375 161 398 161 226 161 226 161 398 161 227 161</p>
        </triangles>
      </mesh>
    </geometry>
  </library_geometries>
  <library_visual_scenes>
    <visual_scene id="DefaultScene">
      <node id="node_4acc05fd_6ce3_4edf_baa0_387f8891e8ef" type="NODE">
        <matrix>1 0 0 0 0 1 0 0 0 0 1 0 0 0 0 1</matrix>
        <node id="node_cc7562fa_aaa7_4ebe_88bc_71fbadd433d7" type="NODE">
          <matrix>1 0 0 0 0 1 0 0 0 0 1 0 0 0 0 1</matrix>
          <node id="node_cc7562fa_aaa7_4ebe_88bc_71fbadd433d7_mesh0" type="NODE">
            <matrix>1 0 0 0 0 1 0 0 0 0 1 0 0 0 0 1</matrix>
            <instance_geometry url="#geometry_ae352723_f16b_44c9_a8af_c5b00c9d1c37">
              <bind_material>
                <technique_common>
                  <instance_material symbol="mat_0" target="#mat_0"/>
                </technique_common>
              </bind_material>
            </instance_geometry>
          </node>
        </node>
      </node>
    </visual_scene>
  </library_visual_scenes>
  <scene>
    <instance_visual_scene url="#DefaultScene"/>
  </scene>
</COLLADA>
