<?xml version="1.0" encoding="UTF-8"?>
<COLLADA xmlns="http://www.collada.org/2005/11/COLLADASchema" version="1.4.1">
<!--
# File generated by ImageToStl.com - Free Image and 3D model conversion tools
-->
  <asset>
    <contributor>
      <author>ImageToStl.com</author>
      <authoring_tool>ImageToStl.com</authoring_tool>
    </contributor>
    <created>2026-04-04T07:43:02</created>
    <modified>2026-04-04T07:43:02</modified>
    <up_axis>Z_UP</up_axis>
  </asset>
  <library_effects>
    <effect id="effect_0">
        <profile_COMMON>
          <technique sid="common">
            <phong>
              <diffuse>
                <color>0.85 0.85 0.85 1</color>
              </diffuse>
              <specular>
                <color>0.05 0.05 0.05 1</color>
              </specular>
              <shininess>
                <float>64</float>
              </shininess>
            </phong>
          </technique>
        </profile_COMMON>
    </effect>
  </library_effects>
  <library_materials>
    <material id="mat_0">
      <instance_effect url="#effect_0"/>
    </material>
  </library_materials>
  <library_geometries>
    <geometry id="geometry_081ab2e9_513f_4b87_a3c6_8c5ed1634193">
      <mesh>
        <source id="pos_0">
          <float_array id="pos_0-array" count="4824">0.02265 0.043 -0.003 0.02145 0.04449282 -0.003 0.02145 0.05150718 -0.003 0.02025 0.05161436 -0.003 0.02105 0.0414 -0.003 0.026 -0.01111504 -0.003 0.02025 0.04161436 -0.003 0.01966436 0.0422 -0.003 0.01947467 -0.01087936 -0.003 0.02017099 -0.01008804 -0.003 0.01955718 0.07340001 -0.003 0.0161 0.078 -0.003 0.02065 0.07449283 -0.003 0.02015501 -0.00401289 -0.003 0.018 -0.00241928 -0.003 0.02014068 -0.000911 -0.003 0.02025 0.06438564 -0.003 0.01955718 0.0626 -0.003 0.02025 0.07161436 -0.003 0.01966436 0.0538 -0.003 0.0161 0.03869154 -0.003 0.02025 0.04438564 -0.003 0.018 -0.00870246 -0.003 0.02015501 -0.00715448 -0.003 0.02254282 0.0726 -0.003 0.026 0.078 -0.003 0.02214282 0.07409282 -0.003 0.018 0.00742693 -0.003 0.02025 0.01014709 -0.003 0.018 0.00658407 -0.003 0.02265 0.053 -0.003 0.02185 0.05438564 -0.003 0.02243564 0.0622 -0.003 0.02065 0.06150718 -0.003 0.02065 0.05449282 -0.003 0.02185 0.04161436 -0.003 0.02243564 0.0422 -0.003 0.02265 0.063 -0.003 0.018 0.02941808 -0.003 0.02022547 0.03346984 -0.003 0.018 0.02857522 -0.003 0.0201513 0.01773975 -0.003 0.018 0.01915044 -0.003 0.018 0.0199933 -0.003 0.02005261 0.03725291 -0.003 0.02185 0.06438564 -0.003 0.018 0.00030089 -0.003 0.018 0.00114374 -0.003 0.02243564 0.0522 -0.003 0.018 0.00344248 -0.003 0.018 0.00428534 -0.003 0.02010424 0.00266355 -0.003 0.02105 0.0646 -0.003 0.02145 0.07150719 -0.003 0.018 0.02543363 -0.003 0.018 0.02627649 -0.003 0.0201513 0.02402293 -0.003 0.018 0.03485841 -0.003 0.018 0.03570126 -0.003 0.018 0.02229204 -0.003 0.018 0.02313489 -0.003 0.018 0.03171682 -0.003 0.018 0.03255967 -0.003 0.018 0.00972567 -0.003 0.018 0.01056852 -0.003 0.02010424 0.01208832 -0.003 0.018 0.01328869 -0.003 0.02010424 0.01448905 -0.003 0.018 -0.00556087 -0.003 0.018 0.01685171 -0.003 0.018 0.01600885 -0.003 0.018 0.03570126 -0 0.02005261 0.03644835 -0 0.02005261 0.03644835 -0.003 0.018 -0.00199785 -0 0.02005261 -0.00125076 -0 0.018 -0.00199785 -0.003 0.02005261 -0.00125076 -0.003 0.02005261 -0.0004462 -0 0.018 0.00030089 -0 0.02005261 -0.0004462 -0.003 0.018 0.00114374 -0 0.02005261 0.00189083 -0 0.02005261 0.00189083 -0.003 0.02005261 0.00269539 -0 0.018 0.00344248 -0 0.02005261 0.00269539 -0.003 0.018 0.00428534 -0 0.02005261 0.00503242 -0 0.02005261 0.00503242 -0.003 0.02005261 0.00583699 -0 0.018 0.00658407 -0 0.02005261 0.00583699 -0.003 0.018 0.00742693 -0 0.02005261 0.00817402 -0 0.02005261 0.00817402 -0.003 0.02005261 0.00897858 -0 0.018 0.00972567 -0 0.02005261 0.00897858 -0.003 0.018 0.01056852 -0 0.02005261 0.01131561 -0 0.02005261 0.01131561 -0.003 0.02005261 0.01212017 -0 0.018 0.01286726 -0 0.02005261 0.01212017 -0.003 0.018 0.01286726 -0.003 0.018 0.01371012 -0 0.02005261 0.0144572 -0 0.018 0.01371012 -0.003 0.02005261 0.0144572 -0.003 0.02005261 0.01526176 -0 0.018 0.01600885 -0 0.02005261 0.01526176 -0.003 0.018 0.01685171 -0 0.02005261 0.01759879 -0 0.02005261 0.01759879 -0.003 0.02005261 0.01840336 -0 0.018 0.01915044 -0 0.02005261 0.01840336 -0.003 0.018 0.0199933 -0 0.02005261 0.02074039 -0 0.02005261 0.02074039 -0.003 0.02005261 0.02154495 -0 0.018 0.02229204 -0 0.02005261 0.02154495 -0.003 0.018 0.02313489 -0 0.02005261 0.02388198 -0 0.02005261 0.02388198 -0.003 0.02005261 0.02468654 -0 0.018 0.02543363 -0 0.02005261 0.02468654 -0.003 0.018 0.02627649 -0 0.02005261 0.02702357 -0 0.02005261 0.02702357 -0.003 0.02005261 0.02782813 -0 0.018 0.02857522 -0 0.02005261 0.02782813 -0.003 0.018 0.02941808 -0 0.02005261 0.03016517 -0 0.02005261 0.03016517 -0.003 0.02005261 0.03096973 -0 0.018 0.03171682 -0 0.02005261 0.03096973 -0.003 0.018 0.03255967 -0 0.02005261 0.03330676 -0 0.02005261 0.03330676 -0.003 0.02005261 0.03411132 -0 0.018 0.03485841 -0 0.02005261 0.03411132 -0.003 0.018 -0.00513944 -0 0.02005261 -0.00439236 -0 0.018 -0.00513944 -0.003 0.02005261 -0.00439236 -0.003 0.02005261 -0.00672939 -0 0.018 -0.0059823 -0 0.02005261 -0.00672939 -0.003 0.018 -0.0059823 -0.003 0.018 -0.00828103 -0 0.02005261 -0.00753394 -0 0.018 -0.00828103 -0.003 0.02005261 -0.00753394 -0.003 0.02005261 -0.00987098 -0 0.018 -0.00912389 -0 0.02005261 -0.00987098 -0.003 0.018 -0.00912389 -0.003 0.02005261 -0.01067554 -0 0.02005261 -0.01067554 -0.003 0.01884509 -0.01111504 -0 0.01884509 -0.01111504 -0.003 0.0161 0.078 -0 0.026 0.078 -0 0.02185 0.05438564 -0 0.02265 0.053 -0 0.02214282 0.06190718 -0 0.02254282 0.0434 -0 0.026 -0.01111504 -0 0.02022547 -0.01027326 -0 0.01955718 0.07340001 -0 0.02025 0.07438564 -0 0.02145 0.07449283 -0 0.02254282 0.07340001 -0 0.02065 0.05150718 -0 0.02025 0.04438564 -0 0.02145 0.04449282 -0 0.02185 0.05161436 -0 0.02010424 0.00266355 -0 0.02025 0.0070055 -0 0.02010424 0.00506427 -0 0.01966436 0.0422 -0 0.0161 0.03869154 -0 0.01966436 0.0522 -0 0.02243564 0.0422 -0 0.02185 0.04161436 -0 0.01966436 0.0638 -0 0.02065 0.06449282 -0 0.02025 0.07161436 -0 0.02185 0.06438564 -0 0.02243564 0.0638 -0 0.01995718 0.05409282 -0 0.02025 0.06161436 -0 0.02010873 -0.00073995 -0 0.02105 0.0614 -0 0.02105 0.0546 -0 0.018 -0.0028407 -0 0.02185 0.07161436 -0 0.02105 0.0714 -0 0.01947467 -0.01087936 -0 0.018 0.00386391 -0 0.02005261 0.03725291 -0 0.02013903 0.02146341 -0 0.018 0.01957187 -0 0.02010424 0.01800108 -0 0.02016485 0.03050183 -0 0.02016485 0.02736024 -0 0.02013903 0.024605 -0 0.02016485 0.03666542 -0 0.018 0.03527983 -0 0.02010424 0.03407947 -0 0.018 0.02585506 -0 0.02010424 0.01448905 -0 0.02005261 -0.00358779 -0 0.02005261 -0.00358779 -0.003 0.018 -0.0028407 -0.003 -0.0096 0.0491 -0.0004 -0.0097 0.0491 -0.0078 -0.0045 0.0491 -0.0065 -0.0045 0.0491 -0.008 0.00361128 0.0491 -0.00567678 0.0045 0.0491 -0.008 0.0045 0.0491 -0.0045 -0.0044 0.0491 -0.0036 -0.0045 0.0491 -0.0045 0.0006 0.0491 -0.0003 0.0006 0.0491 -0.0018 0.0096 0.0491 -0.0004 0.0044 0.0491 -0.0036 0.0097 0.0491 -0.0078 -0.0006 0.0491 -0.0018 -0.0006 0.0491 -0.0003 -0.0043 0.078 -0.0035 0.0043 0.078 -0.0035 -0.0043 0.0491 -0.0035 0.0043 0.0491 -0.0035 0.0045 0.078 -0.0037 0.0045 0.078 -0.0045 0.0045 0.0491 -0.0041 0.0045 0.0491 -0.0065 0.0045 0.078 -0.008 0.0095 0.0541 -0.008 0.0095 0.0491 -0.008 0.0097 0.0541 -0.0078 0.0097 0.0541 -0.0005 0.0097 0.0491 -0.0005 0.0095 0.0491 -0.0003 0.0095 0.0541 -0.0003 -0.0095 0.0541 -0.0003 -0.0095 0.0491 -0.0003 -0.0095 0.0491 -0.008 -0.0045 0.0541 -0.008 0.0044 0.0501 -0.0036 0.0097 0.0501 -0.0078 0.0045 0.0501 -0.0065 0.0045 0.0501 -0.008 0.0096 0.0501 -0.0004 -0.0045 0.0501 -0.008 -0.0095 0.0501 -0.008 -0.0045 0.0501 -0.0065 -0.0095 0.0501 -0.0003 -0.0045 0.0501 -0.0045 -0.0044 0.0501 -0.0036 -0.00033481 0.0501 -0.0022299 0.00053971 0.0501 -0.001875 -0.00055981 0.0501 -0.00165 0.00015 0.0501 -0.00124019 0.0097 0.078 -0.0078 0.0045 0.078 -0.0065 -0.0045 0.078 -0.0045 -0.0045 0.078 -0.008 -0.0095 0.078 -0.0003 -0.0095 0.078 -0.008 -0.00359225 0.078 -0.00522755 0.0044 0.078 -0.0036 0.0096 0.078 -0.0004 -0.0006 0.078 -0.0003 -0.0006 0.078 -0.0018 -0.0044 0.078 -0.0036 0.0006 0.078 -0.0018 0.0006 0.078 -0.0003 -0.0097 0.073 -0.0078 -0.0097 0.078 -0.0005 -0.0097 0.078 -0.0078 -0.0045 0.073 -0.008 -0.0095 0.073 -0.008 -0.0045 0.078 -0.0065 0.0095 0.078 -0.008 0.0045 0.073 -0.008 -0.0095 0.073 -0.0003 0.0095 0.073 -0.0003 0.0095 0.078 -0.0003 -0.0097 0.077 -0.0078 -0.0045 0.077 -0.008 -0.0045 0.077 -0.0065 -0.0045 0.077 -0.0045 0.00361128 0.077 -0.00567678 0.0045 0.077 -0.008 0.0045 0.077 -0.0045 -0.00357612 0.077 -0.00511732 -0.0096 0.077 -0.0004 -0.0044 0.077 -0.0036 0.0096 0.077 -0.0004 0.0044 0.077 -0.0036 0.0097 0.077 -0.0078 0.0001299 0.077 -0.00228481 -0.00048481 0.077 -0.0016701 0.0003549 0.077 -0.0014451 -0.0097 0.0501 -0.0078 0.00370861 0.0501 -0.00500762 -0.0096 0.0501 -0.0004 0.00055981 0.0501 -0.00165 -0.00044731 0.0501 -0.00166005 0.0001299 0.0501 -0.00228481 -0.0095 0.0541 -0.008 -0.0097 0.0491 -0.0005 -0.0097 0.0541 -0.0078 -0.0097 0.0541 -0.0005 0.0045 0.0541 -0.008 0.0045 0.0541 -0.0065 0.00362162 0.0541 -0.00507699 0.0044 0.0541 -0.0036 0.0096 0.0541 -0.0004 -0.0096 0.0541 -0.0004 -0.0044 0.0541 -0.0036 -0.0045 0.0541 -0.0045 0.00053971 0.0541 -0.001875 -0.00055981 0.0541 -0.00165 0.00015 0.0541 -0.00124019 -0.00033481 0.0541 -0.0022299 0.01 0.073 -0.0002 0.01 0.0541 -0.0002 0.01 0.073 -0.0078 0.01 0.0541 -0.0078 0.005 0.073 0 0.00656284 0.06929736 0 0.0075 0.06974868 0 0.0098 0.0541 0 0.00843716 0.05780264 0 0.00737675 0.05741068 0 0.0098 0.073 0 0.00843716 0.06929736 0 0.00860774 0.06801654 0 0.00802008 0.06747003 0 0.00697991 0.06747003 0 0.00639226 0.06801654 0 0.005 0.0541 0 0.00633138 0.05828327 0 0.00826658 0.05951126 0 0.00673342 0.05951126 0 0.0075 0.05974868 0 -0.0098 0.073 0 -0.00843716 0.06929736 0 -0.0075 0.06974868 0 -0.005 0.073 0 -0.00656284 0.06929736 0 -0.0098 0.0541 0 -0.00860774 0.06801654 0 -0.00673342 0.06758874 0 -0.00697991 0.05962997 0 -0.00834435 0.05787665 0 -0.00826658 0.05951126 0 -0.00639226 0.05908346 0 -0.005 0.0541 0 -0.00689462 0.05757698 0 -0.0075 0.06735133 0 -0.01 0.073 -0.0047 -0.01 0.0541 -0.0047 -0.01 0.073 -0.0002 -0.01 0.0541 -0.0002 -0.01 0.073 -0.0078 -0.01 0.0541 -0.0078 -0.01 0.073 -0.0053 -0.01 0.0541 -0.0053 -0.0098 0.073 -0.008 -0.0098 0.0541 -0.008 -0.0045 0.073 -0.0045 -0.004 0.0541 -0.00463397 -0.004 0.073 -0.00463397 -0.00363397 0.0541 -0.005 -0.00363397 0.073 -0.005 -0.0035 0.0541 -0.0055 -0.0035 0.073 -0.0055 -0.00363397 0.0541 -0.006 -0.00363397 0.073 -0.006 -0.004 0.0541 -0.00636603 -0.004 0.073 -0.00636603 -0.0045 0.0541 -0.0065 -0.0045 0.073 -0.0065 0.0045 0.073 -0.0065 0.004 0.0541 -0.00636603 0.004 0.073 -0.00636603 0.00363397 0.0541 -0.006 0.00363397 0.073 -0.006 0.0035 0.0541 -0.0055 0.0035 0.073 -0.0055 0.00363397 0.0541 -0.005 0.00363397 0.073 -0.005 0.004 0.0541 -0.00463397 0.004 0.073 -0.00463397 0.0045 0.0541 -0.0045 0.0045 0.073 -0.0045 0.0098 0.073 -0.008 0.0098 0.0541 -0.008 -0.00980882 0.0541 -0.00491127 -0.005 0.0541 -7.5E-05 -0.0043 0.0541 -0.0035 0.005 0.0541 -0.00015 0.0043 0.0541 -0.0035 -0.005 0.073 -0.00015 -0.00987377 0.073 -0.00490123 0.0099 0.073 -0.0001 0.005 0.073 -0.00015 0.00369199 0.073 -0.00571651 0.0043 0.073 -0.0035 -0.0043 0.073 -0.0035 -0.005 0.0541 -0.00015 0.0045 0.077 -0.0065 0.00053971 0.077 -0.001875 0.00015 0.077 -0.00124019 -0.00055981 0.077 -0.00165 -0.00033481 0.077 -0.0022299 -0.0097 0.073 -0.0005 0.0095 0.073 -0.008 0.0097 0.078 -0.0005 0.0097 0.073 -0.0078 0.0097 0.073 -0.0005 0.0001299 0.073 -0.00228481 -0.0044 0.073 -0.0036 0.0044 0.073 -0.0036 -0.0096 0.073 -0.0004 0.0003549 0.073 -0.0014451 -0.00048481 0.073 -0.0016701 0.0096 0.073 -0.0004 -0.01 0.07197626 0.00801606 -0.01 0.07405 0.01 -0.01 0.06999524 0.00796627 -0.01 0.05305 0.01 -0.01 0.07246818 0.00659649 -0.01 0.07405 0.004 -0.01 0.07169074 0.00572107 -0.01 0.07003946 0.00589149 -0.01 0.05305 0.004 -0.01 0.06963183 0.00659649 -0.01 0.05999523 0.00796627 -0.01 0.06210477 0.00796627 -0.01 0.06246817 0.00659649 -0.01 0.06155527 0.00569574 -0.01 0.0602738 0.00574639 -0.01 0.05963182 0.00659649 -0.016 0.05305 0.01 -0.01427893 0.05540926 0.01 -0.01340351 0.05746818 0.01 -0.01209605 0.06485298 0.01 -0.01286395 0.06458183 0.01 -0.01340351 0.05463183 0.01 -0.01396111 0.06499053 0.01 -0.01444935 0.06632093 0.01 -0.016 0.07405 0.01 -0.01388856 0.06722665 0.01 -0.01286395 0.06751817 0.01 -0.01191036 0.06704333 0.01 -0.01152554 0.06632563 0.01 -0.01172467 0.05683965 0.01 -0.01198394 0.05512374 0.01 -0.01234278 0.05736988 0.01 -0.016 0.07405 0.004 -0.016 0.05305 0.004 -0.016 0.07003946 0.00589149 -0.016 0.06236988 0.00765722 -0.016 0.05999523 0.00796627 -0.016 0.0602738 0.00574639 -0.016 0.06226436 0.00624399 -0.016 0.07169074 0.00572107 -0.016 0.07246818 0.00659649 -0.016 0.07197626 0.00801606 -0.016 0.06963183 0.00659649 -0.016 0.06973012 0.00765722 -0.016 0.05963182 0.00659649 -0.016 0.07026035 0.00827533 -0.01198394 0.05512374 0.004 -0.01203373 0.05710477 0.004 -0.01203373 0.06710476 0.004 -0.01203373 0.06499524 0.004 -0.01340351 0.06746817 0.004 -0.01425361 0.06682621 0.004 -0.01340351 0.05463183 0.004 -0.01430426 0.06554472 0.004 -0.01340351 0.06463183 0.004 -0.01340351 0.05746818 0.004 -0.01410851 0.05706054 0.004 -0.01427893 0.05540926 0.004 0.016 0.07197626 0.00801606 0.016 0.07405 0.01 0.016 0.06999524 0.00796627 0.016 0.05305 0.01 0.016 0.07246818 0.00659649 0.016 0.07405 0.004 0.016 0.07169074 0.00572107 0.016 0.07003946 0.00589149 0.016 0.05305 0.004 0.016 0.06963183 0.00659649 0.016 0.05999523 0.00796627 0.016 0.06210477 0.00796627 0.016 0.06246817 0.00659649 0.016 0.06155527 0.00569574 0.016 0.0602738 0.00574639 0.016 0.05963182 0.00659649 0.01 0.05305 0.01 0.01172107 0.05540926 0.01 0.0125965 0.05746818 0.01 0.01390395 0.06485298 0.01 0.01313605 0.06458183 0.01 0.0125965 0.05463183 0.01 0.01203889 0.06499053 0.01 0.01155065 0.06632093 0.01 0.01 0.07405 0.01 0.01211144 0.06722665 0.01 0.01313605 0.06751817 0.01 0.01408964 0.06704333 0.01 0.01447446 0.06632563 0.01 0.01427533 0.05683965 0.01 0.01401606 0.05512374 0.01 0.01365722 0.05736988 0.01 0.01 0.07405 0.004 0.01 0.05305 0.004 0.01 0.07003946 0.00589149 0.01 0.06236988 0.00765722 0.01 0.05999523 0.00796627 0.01 0.0602738 0.00574639 0.01 0.06226436 0.00624399 0.01 0.07169074 0.00572107 0.01 0.07246818 0.00659649 0.01 0.07197626 0.00801606 0.01 0.06963183 0.00659649 0.01 0.06973012 0.00765722 0.01 0.05963182 0.00659649 0.01 0.07026035 0.00827533 0.01401606 0.05512374 0.004 0.01396627 0.05710477 0.004 0.01396627 0.06710476 0.004 0.01396627 0.06499524 0.004 0.0125965 0.06746817 0.004 0.01174639 0.06682621 0.004 0.0125965 0.05463183 0.004 0.01169574 0.06554472 0.004 0.0125965 0.06463183 0.004 0.0125965 0.05746818 0.004 0.01189149 0.05706054 0.004 0.01172107 0.05540926 0.004 -0.00862697 0.05742303 0 -0.0102 0.0491 0 -0.00892894 0.059375 0 -0.0102 0.078 0 0.00862697 0.06967697 0 0.0102 0.078 0 0.00903947 0.0681375 0 0.0102 0.0491 0 0.0070875 0.05701053 0 0.00862697 0.05742303 0 -0.0075 0.0569 0 -0.00637303 0.05742303 0 0.0075 0.0702 0 0.00637303 0.06967697 0 -0.00596053 0.0589625 0 0.00607106 0.059375 0 0.00585 0.05855 0 -0.0070875 0.07008947 0 -0.008325 0.06997894 0 -0.00892894 0.069375 0 -0.008325 0.06712106 0 -0.006675 0.06712106 0 0.0070875 0.06008947 0 -0.00607106 0.067725 0 -0.008325 0.05997894 0 -0.0070875 0.06008947 0 0.0070875 0.06701053 0 0.008325 0.05997894 0 0.008325 0.06712106 0 0.00903947 0.0589625 0 -0.00585 0.06855 0 0.00596053 0.0681375 0 0.016 0.078 -0.003 0.0102 0.078 -0.003 0.016 0.078 0 -0.0102 0.078 -0.003 -0.016 0.078 -0.003 -0.016 0.078 0.0005 0.026 0.078 0.004 -0.019 0.078 0.004 -0.019 0.078 0.0005 0.026 0.078 0 -0.019 0.0491 0.004 -0.019 0.0491 0.0005 -0.016 0.0491 0.0005 -0.016 0.0491 -0.003 -0.0102 0.0491 -0.003 0.0102 0.0491 -0.003 0.016 0.0491 -0.003 0.016 0.0491 0 0.026 0.0491 0.004 0.026 0.0491 0 0.01453947 0.0556375 0.004 0.013 0.0544 0.004 0.016275 0.0568375 0.004 -0.01453947 0.0664625 0.004 -0.019 0.061375 0.004 -0.01412697 0.06492303 0.004 -0.0134125 0.06758947 0.004 -0.00997768 0.07045119 0.004 -0.01187303 0.06717697 0.004 -0.01146053 0.0656375 0.004 -0.013 0.0644 0.004 -0.01453947 0.0556375 0.004 -0.01442894 0.056875 0.004 -0.0134125 0.05758947 0.004 -0.011 0.0491 0.004 -0.013 0.0544 0.004 0.01356349 0.05743849 0.004 0.00997768 0.06045119 0.004 0.01146053 0.0556375 0.004 0.01187303 0.05717697 0.004 0.01187303 0.06717697 0.004 0.00997768 0.07045119 0.004 0.01146053 0.0656375 0.004 0.01356349 0.06743848 0.004 -0 0.0491 0.004 -0.00461468 0.05735486 0.004 -0.00614176 0.05578982 0.004 -0.00869514 0.05566467 0.004 -0.01022798 0.056975 0.004 -0.00997768 0.06045119 0.004 -0.01146053 0.0556375 0.004 -0.01187303 0.05717697 0.004 -0.011 0.06397501 0.004 -0.00869514 0.06143532 0.004 -0.00650868 0.06146216 0.004 -0.00502232 0.06045119 0.004 -0 0.06397501 0.004 -0.00440367 0.05895764 0.004 -0.00440367 0.06895764 0.004 -0.00461468 0.06735486 0.004 -0.00614176 0.06578983 0.004 -0.01022798 0.066975 0.004 -0.00869514 0.06566468 0.004 -0.00869514 0.07143532 0.004 -0.00650868 0.07146215 0.004 0.0055 0.078 0.004 -0.00502232 0.07045119 0.004 0.00440367 0.06895764 0.004 0.00461468 0.05735486 0.004 0.01022798 0.056975 0.004 0.00869514 0.05566467 0.004 0.00668472 0.05550733 0.004 0.00559881 0.05607232 0.004 0.00440367 0.05895764 0.004 0.00518541 0.06057634 0.004 0.00709236 0.06164633 0.004 0.0125875 0.06451053 0.004 0.00869514 0.06143532 0.004 0.01022798 0.066975 0.004 0.00869514 0.06566468 0.004 0.00668472 0.06550733 0.004 0.00559881 0.06607231 0.004 0.00461468 0.06735486 0.004 0.016275 0.078 0.004 0.00849132 0.07146215 0.004 0.00502232 0.07045119 0.004 0.005925 0.07127798 0.004 0.02396216 0.05200868 0.004 0.026 0.05994375 0.004 0.02393532 0.05419514 0.004 0.02220442 0.05021299 0.004 0.0136375 0.0491 0.004 0.01933874 0.05044365 0.004 0.01816468 0.05180486 0.004 0.01795367 0.05340764 0.004 0.01857232 0.05490119 0.004 0.02204132 0.05591216 0.004 0.01985486 0.05588532 0.004 0.02404083 0.06339375 0.004 0.02352768 0.06109881 0.004 0.02204132 0.06008784 0.004 0.01921359 0.06060674 0.004 0.01438849 0.06548651 0.004 0.026 0.0668375 0.004 0.01849364 0.06471127 0.004 0.01985486 0.06588532 0.004 0.02204132 0.06591216 0.004 0.01795367 0.06259236 0.004 0.02393532 0.07180486 0.004 0.02295119 0.07052232 0.004 0.01985486 0.07011467 0.004 0.02145764 0.06990366 0.004 0.01857232 0.0710988 0.004 0.02327739 0.07522739 0.004 0.01849364 0.07471126 0.004 0.01985486 0.07588533 0.004 0.02145764 0.07609633 0.004 0.01795367 0.07259236 0.004 0.01146053 0.0664625 -0.003 0.01187303 0.06492303 -0.003 0.01187303 0.05492303 -0.003 0.01135 0.05605 -0.003 0.012175 0.05747894 -0.003 0.013825 0.06747894 -0.003 0.0125875 0.06758947 -0.003 0.01412697 0.05492303 -0.003 0.013 0.0544 -0.003 0.01442894 0.056875 -0.003 0.0134125 0.05758947 -0.003 0.013 0.0644 -0.003 0.013825 0.06462106 -0.003 0.01442894 0.066875 -0.003 -0.01135 0.06605 -0.003 -0.01187303 0.06717697 -0.003 -0.01187303 0.05492303 -0.003 -0.01146053 0.0564625 -0.003 -0.0125875 0.05758947 -0.003 -0.012175 0.06462106 -0.003 -0.01412697 0.05492303 -0.003 -0.013 0.0544 -0.003 -0.013825 0.05747894 -0.003 -0.01442894 0.056875 -0.003 -0.0134125 0.06758947 -0.003 -0.01442894 0.066875 -0.003 -0.013825 0.06462106 -0.003 -0.013 0.0644 -0.003 -0.01135 0.06605 0.004 -0.01157106 0.066875 -0.003 -0.01157106 0.066875 0.004 -0.012175 0.06747894 -0.003 -0.012175 0.06747894 0.004 -0.013 0.0677 -0.003 -0.013 0.0677 0.004 -0.013825 0.06747894 -0.003 -0.013825 0.06747894 0.004 -0.01442894 0.066875 0.004 -0.01465 0.06605 -0.003 -0.01465 0.06605 0.004 -0.01442894 0.065225 -0.003 -0.01442894 0.065225 0.004 -0.013825 0.06462106 0.004 -0.012175 0.06462106 0.004 -0.01157106 0.065225 -0.003 -0.01157106 0.065225 0.004 -0.01135 0.05605 -0.003 -0.01135 0.05605 0.004 -0.01157106 0.056875 -0.003 -0.01157106 0.056875 0.004 -0.012175 0.05747894 -0.003 -0.012175 0.05747894 0.004 -0.013 0.0577 -0.003 -0.013 0.0577 0.004 -0.013825 0.05747894 0.004 -0.01465 0.05605 -0.003 -0.01465 0.05605 0.004 -0.01442894 0.055225 -0.003 -0.01442894 0.055225 0.004 -0.013825 0.05462106 -0.003 -0.013825 0.05462106 0.004 -0.012175 0.05462106 -0.003 -0.012175 0.05462106 0.004 -0.01157106 0.055225 -0.003 -0.01157106 0.055225 0.004 0.01465 0.05605 -0.003 0.01465 0.05605 0.004 0.01442894 0.056875 0.004 0.013825 0.05747894 -0.003 0.013825 0.05747894 0.004 0.013 0.0577 -0.003 0.013 0.0577 0.004 0.012175 0.05747894 0.004 0.01157106 0.056875 -0.003 0.01157106 0.056875 0.004 0.01135 0.05605 0.004 0.01157106 0.055225 -0.003 0.01157106 0.055225 0.004 0.012175 0.05462106 -0.003 0.012175 0.05462106 0.004 0.013825 0.05462106 -0.003 0.013825 0.05462106 0.004 0.01442894 0.055225 -0.003 0.01442894 0.055225 0.004 0.01465 0.06605 -0.003 0.01465 0.06605 0.004 0.01442894 0.066875 0.004 0.013825 0.06747894 0.004 0.013 0.0677 -0.003 0.013 0.0677 0.004 0.012175 0.06747894 -0.003 0.012175 0.06747894 0.004 0.01157106 0.066875 -0.003 0.01157106 0.066875 0.004 0.01135 0.06605 -0.003 0.01135 0.06605 0.004 0.01157106 0.065225 -0.003 0.01157106 0.065225 0.004 0.012175 0.06462106 -0.003 0.012175 0.06462106 0.004 0.013 0.0644 0.004 0.013825 0.06462106 0.004 0.01442894 0.065225 -0.003 0.01442894 0.065225 0.004 0.020225 0.07442894 0 0.0214625 0.07453947 0 0.02258947 0.0734125 0 0.01951053 0.0525875 0 0.020225 0.05157106 0 0.0214625 0.05146053 0 0.02258947 0.0525875 0 0.02217697 0.05412697 0 0.02247894 0.062175 0 0.01951053 0.0734125 0 0.020225 0.07157106 0 0.0194 0.063 0 0.01962106 0.063825 0 0.021875 0.07157106 0 0.020225 0.06157106 0 0.02105 0.05465 0 0.020225 0.05442894 0 0.0214625 0.06146053 0 0.021875 0.06442894 0 0.02105 0.07135 0 0.0206375 0.06453947 0 -0.0188 0.06222586 0.02396053 -0.0188 0.06335283 0.0250875 -0.0188 0.07708796 0.01626372 -0.0188 0.06263836 0.02692894 -0.0188 0.06181336 0.02715 -0.0188 0.06025635 0.0465875 -0.0188 0.05207993 0.03492025 -0.0188 0.06098836 0.02692894 -0.0188 0.06027389 0.0259125 -0.0188 0.0632423 0.026325 -0.0188 0.06367721 0.07185103 -0.0188 0.04949884 0.02074635 -0.0188 0.06068639 0.02437303 -0.0188 0.04914864 0.01625523 -0.0188 0.05167106 0.085175 -0.0188 0.04946071 0.08686467 -0.0188 0.05197303 0.08712697 -0.0188 0.05126621 0.08900848 -0.0188 0.0535125 0.08753947 -0.0188 0.05388945 0.08999556 -0.0188 0.0557623 0.08954526 -0.0188 0.05463947 0.0864125 -0.0188 0.05732595 0.08842039 -0.0188 0.05834832 0.08678788 -0.0188 0.053925 0.08457106 -0.0188 0.0531 0.08435 -0.0188 0.05289447 0.04986182 -0.0188 0.05231283 0.05732835 -0.0188 0.06014582 0.047825 -0.0188 0.05954187 0.04842894 -0.0188 0.05871687 0.04865 -0.0188 0.0571774 0.0474125 -0.0188 0.05281664 0.04237308 -0.0188 0.05789188 0.04557106 -0.0188 0.05871687 0.04535 -0.0188 0.05954187 0.04557106 -0.0188 0.04998012 0.0709157 -0.0188 0.0493203 0.07717817 -0.0188 0.0491 0.085 -0.0188 0.06247894 0.007825 -0.0188 0.06308168 0.004 -0.0188 0.06197072 0.00581776 -0.0188 0.0511 0.004 -0.0188 0.04973397 0.00463397 -0.0188 0.0491 0.006 -0.0188 0.05962106 0.006175 -0.0188 0.0614625 0.00853947 -0.0188 0.05992303 0.00812697 -0.0188 0.0594 0.007 -0.0188 0.07258947 0.0074125 -0.0188 0.0714625 0.00853947 -0.0188 0.06951053 0.0065875 -0.0188 0.0706375 0.00546053 -0.0188 0.076 0.004 -0.0188 0.07799079 0.00999957 -0.0188 0.07792388 0.00561732 -0.0188 0.06831405 0.05668506 -0.0188 0.07224901 0.04132203 -0.0188 0.07547379 0.02579439 -0.0188 0.06992303 0.00812697 -0.0188 0.07217697 0.00587303 -0.0188 0.07708979 0.00436901 -0.0158 0.05834832 0.08678788 -0.0158 0.05732595 0.08842039 -0.0158 0.05463947 0.0864125 -0.0158 0.05289447 0.04986182 -0.0158 0.05281664 0.04237308 -0.0158 0.0571774 0.0465875 -0.0158 0.05231283 0.05732835 -0.0158 0.0531 0.08435 -0.0158 0.0535125 0.08753947 -0.0158 0.0557623 0.08954526 -0.0158 0.05388945 0.08999556 -0.0158 0.05197303 0.08712697 -0.0158 0.05204163 0.08955666 -0.0158 0.04997575 0.08766248 -0.0158 0.05156053 0.0855875 -0.0158 0.06222586 0.02396053 -0.0158 0.06068639 0.02437303 -0.0158 0.04914864 0.01625523 -0.0158 0.04949884 0.02074635 -0.0158 0.06027389 0.0259125 -0.0158 0.05207993 0.03492025 -0.0158 0.06098836 0.02692894 -0.0158 0.05871687 0.04865 -0.0158 0.06367721 0.07185103 -0.0158 0.05954187 0.04842894 -0.0158 0.06014582 0.047825 -0.0158 0.04998012 0.0709157 -0.0158 0.05871687 0.04535 -0.0158 0.05954187 0.04557106 -0.0158 0.06181336 0.02715 -0.0158 0.06025635 0.0465875 -0.0158 0.06263836 0.02692894 -0.0158 0.0632423 0.026325 -0.0158 0.053925 0.08457106 -0.0158 0.05789188 0.04842894 -0.0158 0.0491 0.085 -0.0158 0.0493203 0.07717817 -0.0158 0.07547379 0.02579439 -0.0158 0.07224901 0.04132203 -0.0158 0.06831405 0.05668506 -0.0158 0.07708796 0.01626372 -0.0158 0.06335283 0.0250875 -0.0158 0.07217697 0.00587303 -0.0158 0.076 0.004 -0.0158 0.07258947 0.0074125 -0.0158 0.07708979 0.00436901 -0.0158 0.0706375 0.00546053 -0.0158 0.06308168 0.004 -0.0158 0.06951053 0.0065875 -0.0158 0.06992303 0.00812697 -0.0158 0.0714625 0.00853947 -0.0158 0.07799079 0.00999957 -0.0158 0.0614625 0.00853947 -0.0158 0.06247894 0.007825 -0.0158 0.06217697 0.00587303 -0.0158 0.060225 0.00557106 -0.0158 0.0511 0.004 -0.0158 0.05951053 0.0065875 -0.0158 0.04973397 0.00463397 -0.0158 0.0491 0.006 -0.0158 0.05992303 0.00812697 -0.0188 0.05069007 0.0275612 -0.0158 0.05069007 0.0275612 -0.0188 0.05107623 0.0647147 -0.0158 0.05107623 0.0647147 -0.0158 0.0491 0.08347145 -0.0188 0.0491 0.08347145 -0.0158 0.04946071 0.08686467 -0.0158 0.05049079 0.0884603 -0.0188 0.05049079 0.0884603 -0.0188 0.05204163 0.08955666 -0.0158 0.07798158 0.01013497 -0.0188 0.07798158 0.01013497 -0.0188 0.078 0.006 -0.0188 0.078 0.00986418 -0.0158 0.078 0.006 -0.0158 0.078 0.00986418 -0.0158 0.0501 0.00426795 -0.0188 0.0501 0.00426795 -0.0158 0.04936795 0.005 -0.0188 0.04936795 0.005 -0.0188 0.0491 0.01383969 -0.0158 0.0491 0.01383969 0.016 0.06222586 0.02396053 0.016 0.06335283 0.0250875 0.016 0.07708796 0.01626372 0.016 0.06263836 0.02692894 0.016 0.06181336 0.02715 0.016 0.06025635 0.0465875 0.016 0.05207993 0.03492025 0.016 0.06098836 0.02692894 0.016 0.06027389 0.0259125 0.016 0.0632423 0.026325 0.016 0.06367721 0.07185103 0.016 0.04949884 0.02074635 0.016 0.06068639 0.02437303 0.016 0.04914864 0.01625523 0.016 0.05167106 0.085175 0.016 0.04946071 0.08686467 0.016 0.05197303 0.08712697 0.016 0.05126621 0.08900848 0.016 0.0535125 0.08753947 0.016 0.05388945 0.08999556 0.016 0.0557623 0.08954526 0.016 0.05463947 0.0864125 0.016 0.05732595 0.08842039 0.016 0.05834832 0.08678788 0.016 0.053925 0.08457106 0.016 0.0531 0.08435 0.016 0.05289447 0.04986182 0.016 0.05231283 0.05732835 0.016 0.06014582 0.047825 0.016 0.05954187 0.04842894 0.016 0.05871687 0.04865 0.016 0.0571774 0.0474125 0.016 0.05281664 0.04237308 0.016 0.05789188 0.04557106 0.016 0.05871687 0.04535 0.016 0.05954187 0.04557106 0.016 0.04998012 0.0709157 0.016 0.052275 0.08457106 0.016 0.0493203 0.07717817 0.016 0.0491 0.085 0.016 0.06247894 0.007825 0.016 0.06308168 0.004 0.016 0.06197072 0.00581776 0.016 0.0511 0.004 0.016 0.04973397 0.00463397 0.016 0.0491 0.006 0.016 0.05962106 0.006175 0.016 0.0614625 0.00853947 0.016 0.05992303 0.00812697 0.016 0.0594 0.007 0.016 0.07258947 0.0074125 0.016 0.0714625 0.00853947 0.016 0.06951053 0.0065875 0.016 0.0706375 0.00546053 0.016 0.076 0.004 0.016 0.07799079 0.00999957 0.016 0.07792388 0.00561732 0.016 0.06831405 0.05668506 0.016 0.07224901 0.04132203 0.016 0.07547379 0.02579439 0.016 0.06992303 0.00812697 0.016 0.07217697 0.00587303 0.016 0.07708979 0.00436901 0.019 0.05834832 0.08678788 0.019 0.05732595 0.08842039 0.019 0.05463947 0.0864125 0.019 0.05289447 0.04986182 0.019 0.05281664 0.04237308 0.019 0.0571774 0.0465875 0.019 0.05231283 0.05732835 0.019 0.0531 0.08435 0.019 0.0535125 0.08753947 0.019 0.0557623 0.08954526 0.019 0.05388945 0.08999556 0.019 0.05197303 0.08712697 0.019 0.05204163 0.08955666 0.019 0.04997575 0.08766248 0.019 0.05156053 0.0855875 0.019 0.06222586 0.02396053 0.019 0.06068639 0.02437303 0.019 0.04914864 0.01625523 0.019 0.04949884 0.02074635 0.019 0.06027389 0.0259125 0.019 0.05207993 0.03492025 0.019 0.06098836 0.02692894 0.019 0.05871687 0.04865 0.019 0.06367721 0.07185103 0.019 0.05954187 0.04842894 0.019 0.06014582 0.047825 0.019 0.04998012 0.0709157 0.019 0.05871687 0.04535 0.019 0.05954187 0.04557106 0.019 0.06181336 0.02715 0.019 0.06025635 0.0465875 0.019 0.06263836 0.02692894 0.019 0.0632423 0.026325 0.019 0.053925 0.08457106 0.019 0.05789188 0.04842894 0.019 0.0491 0.085 0.019 0.0493203 0.07717817 0.019 0.07547379 0.02579439 0.019 0.07224901 0.04132203 0.019 0.06831405 0.05668506 0.019 0.07708796 0.01626372 0.019 0.06335283 0.0250875 0.019 0.07217697 0.00587303 0.019 0.076 0.004 0.019 0.07258947 0.0074125 0.019 0.07708979 0.00436901 0.019 0.0706375 0.00546053 0.019 0.06308168 0.004 0.019 0.06951053 0.0065875 0.019 0.06992303 0.00812697 0.019 0.0714625 0.00853947 0.019 0.07799079 0.00999957 0.019 0.0614625 0.00853947 0.019 0.06247894 0.007825 0.019 0.06217697 0.00587303 0.019 0.060225 0.00557106 0.019 0.0511 0.004 0.019 0.05951053 0.0065875 0.019 0.04973397 0.00463397 0.019 0.0491 0.006 0.019 0.05992303 0.00812697 -0.0158 0.05207993 0.03492025 -0.0158 0.05281664 0.04237308 -0.0158 0.05289447 0.04986182 -0.0158 0.05231283 0.05732835 -0.0158 0.05107623 0.0647147 0.019 0.05107623 0.0647147 -0.0158 0.04998012 0.0709157 -0.0158 0.0493203 0.07717817 0.019 0.0491 0.08347145 -0.0158 0.0491 0.08347145 -0.0158 0.0491 0.085 0.019 0.04946071 0.08686467 -0.0158 0.04946071 0.08686467 0.019 0.05049079 0.0884603 -0.0158 0.05204163 0.08955666 -0.0158 0.05388945 0.08999556 -0.0158 0.0557623 0.08954526 -0.0158 0.05834832 0.08678788 0.019 0.07798158 0.01013497 0.016 0.07798158 0.01013497 0.016 0.078 0.006 0.016 0.078 0.00986418 0.019 0.078 0.006 0.019 0.078 0.00986418 0.019 0.0501 0.00426795 0.016 0.0501 0.00426795 0.019 0.04936795 0.005 0.016 0.04936795 0.005 0.016 0.0491 0.01383969 0.019 0.0491 0.01383969 0.019 0.05069007 0.0275612 0.016 0.05069007 0.0275612 -0.0158 0.05475 0.086 -0.0158 0.05452894 0.086825 0.019 0.05452894 0.086825 0.019 0.053925 0.08742894 -0.0158 0.053925 0.08742894 -0.0158 0.0531 0.08765 -0.0158 0.052275 0.08742894 0.019 0.0531 0.08765 0.019 0.052275 0.08742894 -0.0158 0.05167106 0.086825 0.019 0.05167106 0.086825 0.019 0.05145 0.086 -0.0158 0.05145 0.086 -0.0158 0.05167106 0.085175 0.019 0.05197303 0.08487303 -0.0158 0.052275 0.08457106 -0.0158 0.0531 0.08435 0.019 0.0535125 0.08446053 -0.0158 0.053925 0.08457106 0.019 0.05422697 0.08487303 -0.0158 0.05452894 0.085175 -0.0158 0.05954187 0.04842894 -0.0158 0.05871687 0.04865 -0.0158 0.05789188 0.04842894 0.019 0.0575899 0.04812697 -0.0158 0.05728793 0.047825 -0.0158 0.05706688 0.047 0.019 0.05706688 0.047 0.019 0.05728793 0.046175 -0.0158 0.05789188 0.04557106 0.019 0.05789188 0.04557106 0.019 0.05830438 0.04546053 -0.0158 0.05871687 0.04535 -0.0158 0.05954187 0.04557106 0.019 0.05984385 0.04587303 -0.0158 0.06014582 0.046175 -0.0158 0.06036688 0.047 -0.0158 0.06263836 0.02692894 -0.0158 0.06181336 0.02715 0.019 0.06140086 0.02703947 -0.0158 0.06098836 0.02692894 0.019 0.06068639 0.02662697 -0.0158 0.06038442 0.026325 -0.0158 0.06016336 0.0255 0.019 0.06027389 0.0250875 -0.0158 0.06038442 0.024675 -0.0158 0.06098836 0.02407106 0.019 0.06140086 0.02396053 -0.0158 0.06181336 0.02385 -0.0158 0.06263836 0.02407106 0.019 0.06263836 0.02407106 0.019 0.0632423 0.024675 -0.0158 0.0632423 0.024675 -0.0158 0.06346336 0.0255 -0.016 0.0459589 0.08142408 0.016 0.0459589 0.08142408 -0.016 0.04683831 0.0817531 0.016 0.04683831 0.0817531 -0.016 0.04747083 0.0824469 0.016 0.04747083 0.0824469 -0.016 0.04771712 0.08335289 0.016 0.04771712 0.08335289 -0.016 0.04752281 0.08427127 0.016 0.04752281 0.08427127 -0.016 0.04693082 0.08499988 0.016 0.04693082 0.08499988 -0.016 0.04909995 0.08499988 0.016 0.04909995 0.08499988 -0.016 0.04909995 0.08347162 0.016 0.04909995 0.08347162 -0.016 0.04932025 0.07717832 0.016 0.04932025 0.07717832 -0.016 0.04998007 0.07091554 0.016 0.04998007 0.07091554 -0.016 0.0510762 0.06471475 0.016 0.0510762 0.06471475 0.016 0.05231288 0.05732854 -0.016 0.05231288 0.05732854 0.016 0.0528945 0.04986175 -0.016 0.0528945 0.04986175 0.016 0.05281666 0.04237302 -0.016 0.05281666 0.04237302 0.016 0.05207994 0.03492006 -0.016 0.05207994 0.03492006 0.016 0.05069008 0.02756103 -0.016 0.05069008 0.02756103 -0.016 0.04982271 0.02312454 0.016 0.04982271 0.02312454 -0.016 0.04929199 0.01863511 0.016 0.04929199 0.01863511 -0.016 0.04796734 0.01878675 0.016 0.04796734 0.01878675 -0.016 0.0483599 0.01974281 0.016 0.0483599 0.01974281 -0.016 0.04822293 0.02076705 0.016 0.04822293 0.02076705 -0.016 0.04759302 0.02158626 0.016 0.04759302 0.02158626 -0.016 0.04663828 0.02198156 0.016 0.04663828 0.02198156 0.016 0.04578879 0.02230152 -0.016 0.04578879 0.02230152 0.016 0.04516831 0.02296432 -0.016 0.04516831 0.02296432 0.016 0.04490462 0.02383312 -0.016 0.04490462 0.02383312 0.016 0.04505208 0.02472862 -0.016 0.04505208 0.02472862 0.016 0.04558029 0.02546676 -0.016 0.04558029 0.02546676 0.016 0.04638055 0.02589544 -0.016 0.04638055 0.02589544 0.016 0.04728773 0.02592643 -0.016 0.04728773 0.02592643 -0.016 0.0483146 0.02599367 0.016 0.0483146 0.02599367 -0.016 0.04917219 0.02656206 0.016 0.04917219 0.02656206 -0.016 0.04963353 0.02748187 0.016 0.04963353 0.02748187 -0.016 0.04957643 0.02850946 0.016 0.04957643 0.02850946 -0.016 0.04901614 0.02937253 0.016 0.04901614 0.02937253 -0.016 0.04810086 0.0298427 0.016 0.04810086 0.0298427 0.016 0.04719331 0.03030618 -0.016 0.04719331 0.03030618 0.016 0.04663184 0.03115638 -0.016 0.04663184 0.03115638 0.016 0.04656198 0.03217252 -0.016 0.04656198 0.03217252 0.016 0.04700198 0.03309186 -0.016 0.04700198 0.03309186 0.016 0.04783764 0.03367456 -0.016 0.04783764 0.03367456 0.016 0.04885199 0.0337704 -0.016 0.04885199 0.0337704 -0.016 0.04975381 0.03382858 0.016 0.04975381 0.03382858 -0.016 0.05053809 0.03427776 0.016 0.05053809 0.03427776 -0.016 0.05104449 0.03502639 0.016 0.05104449 0.03502639 -0.016 0.05116966 0.03592141 0.016 0.05116966 0.03592141 -0.016 0.05088809 0.0367802 0.016 0.05088809 0.0367802 -0.016 0.05025723 0.03742727 0.016 0.05025723 0.03742727 -0.016 0.04940596 0.03773053 0.016 0.04940596 0.03773053 0.016 0.04845622 0.03810104 -0.016 0.04845622 0.03810104 0.016 0.04781249 0.03889211 -0.016 0.04781249 0.03889211 0.016 0.04764226 0.03989728 -0.016 0.04764226 0.03989728 0.016 0.04798975 0.04085572 -0.016 0.04798975 0.04085572 0.016 0.04876449 0.04151853 -0.016 0.04876449 0.04151853 0.016 0.04976526 0.04171308 -0.016 0.04976526 0.04171308 -0.016 0.05065694 0.04185947 0.016 0.05065694 0.04185947 -0.016 0.05139342 0.04238303 0.016 0.05139342 0.04238303 -0.016 0.05182424 0.04317744 0.016 0.05182424 0.04317744 -0.016 0.05186143 0.0440801 0.016 0.05186143 0.0440801 -0.016 0.05149737 0.04490741 0.016 0.05149737 0.04490741 -0.016 0.05080631 0.04548963 0.016 0.05080631 0.04548963 -0.016 0.04992953 0.0457085 0.016 0.04992953 0.0457085 0.016 0.04894819 0.04598506 -0.016 0.04894819 0.04598506 0.016 0.04823044 0.0467089 -0.016 0.04823044 0.0467089 0.016 0.04796305 0.04769309 -0.016 0.04796305 0.04769309 0.016 0.0482153 0.04868062 -0.016 0.0482153 0.04868062 0.016 0.04892161 0.04941591 -0.016 0.04892161 0.04941591 0.016 0.04989865 0.04970725 -0.016 0.04989865 0.04970725 -0.016 0.05077198 0.04993947 0.016 0.05077198 0.04993947 -0.016 0.05145385 0.05053266 0.016 0.05145385 0.05053266 -0.016 0.05180505 0.05136522 0.016 0.05180505 0.05136522 -0.016 0.05175402 0.05226739 0.016 0.05175402 0.05226739 -0.016 0.05131104 0.05305513 0.016 0.05131104 0.05305513 -0.016 0.05056658 0.05356725 0.016 0.05056658 0.05356725 -0.016 0.04967263 0.05369981 0.016 0.04967263 0.05369981 0.016 0.04866889 0.0538791 -0.016 0.04866889 0.0538791 0.016 0.04788401 0.05452951 -0.016 0.04788401 0.05452951 0.016 0.04752186 0.0554827 -0.016 0.04752186 0.0554827 0.016 0.04767659 0.05649026 -0.016 0.04767659 0.05649026 0.016 0.04830792 0.05729087 -0.016 0.04830792 0.05729087 0.016 0.04925194 0.05767616 -0.016 0.04925194 0.05767616 -0.016 0.05009845 0.05799277 0.016 0.05009845 0.05799277 -0.016 0.05071917 0.05864938 0.016 0.05071917 0.05864938 -0.016 0.05098763 0.05951246 0.016 0.05098763 0.05951246 -0.016 0.05084875 0.06040509 0.016 0.05084875 0.06040509 -0.016 0.05033102 0.0611461 0.016 0.05033102 0.0611461 -0.016 0.04954019 0.06158336 0.016 0.04954019 0.06158336 -0.016 0.04863765 0.0616277 0.016 0.04863765 0.0616277 0.016 0.04761317 0.06171115 -0.016 0.04761317 0.06171115 0.016 0.04676535 0.06229242 -0.016 0.04676535 0.06229242 0.016 0.04631832 0.06321796 -0.016 0.04631832 0.06321796 0.016 0.04638984 0.06424316 -0.016 0.04638984 0.06424316 0.016 0.04696121 0.06509765 -0.016 0.04696121 0.06509765 0.016 0.04788151 0.06555542 -0.016 0.04788151 0.06555542 -0.016 0.04879453 0.0660065 0.016 0.04879453 0.0660065 -0.016 0.04936674 0.06684908 0.016 0.04936674 0.06684908 -0.016 0.04945007 0.06786426 0.016 0.04945007 0.06786426 -0.016 0.0490227 0.06878837 0.016 0.0490227 0.06878837 -0.016 0.04819551 0.06938251 0.016 0.04819551 0.06938251 -0.016 0.04718294 0.06949266 0.016 0.04718294 0.06949266 0.016 0.04628387 0.06956276 -0.016 0.04628387 0.06956276 0.016 0.04550698 0.07002052 -0.016 0.04550698 0.07002052 0.016 0.04501035 0.07077345 -0.016 0.04501035 0.07077345 0.016 0.04489496 0.07166799 -0.016 0.04489496 0.07166799 0.016 0.04518404 0.07252201 -0.016 0.04518404 0.07252201 0.016 0.04581907 0.0731624 -0.016 0.04581907 0.0731624 0.016 0.04667082 0.07345852 -0.016 0.04667082 0.07345852 -0.016 0.04762473 0.07382377 0.016 0.04762473 0.07382377 -0.016 0.04827395 0.07461198 0.016 0.04827395 0.07461198 -0.016 0.04844918 0.07561859 0.016 0.04844918 0.07561859 -0.016 0.04810479 0.07657989 0.016 0.04810479 0.07657989 -0.016 0.04733052 0.07724603 0.016 0.04733052 0.07724603 -0.016 0.04632821 0.07744297 0.016 0.04632821 0.07744297 0.016 0.04533007 0.07763799 -0.016 0.04533007 0.07763799 0.016 0.04455676 0.07829841 -0.016 0.04455676 0.07829841 0.016 0.04420843 0.07925399 -0.016 0.04420843 0.07925399 0.016 0.04437509 0.08025726 -0.016 0.04437509 0.08025726 0.016 0.04501357 0.08104929 -0.016 0.04501357 0.08104929 -0.016 0.04761996 0.08381208 -0.016 0.04598042 0.0256811 -0.016 0.04965016 0.07404693 -0.016 0.0494084 0.06735667 -0.016 0.04542929 0.0726287 -0.016 0.04525867 0.07039698 -0.016 0.05057266 0.03710373 -0.016 0.04494342 0.0779682 -0.016 0.04469433 0.08065327 -0.016 0.05093881 0.05331119 -0.016 0.04678198 0.03263219 -0.016 0.05160883 0.04278024 -0.016 0.04971072 0.041689 -0.016 0.05162945 0.05094894 -0.016 0.04858932 0.04634698 -0.016 0.0508534 0.05908092 -0.016 0.047816 0.0403765 -0.016 0.04813435 0.03849657 -0.016 0.04856845 0.04904826 -0.016 0.04770293 0.05500611 -0.016 0.04799226 0.05689057 -0.016 0.04667553 0.06467041 -0.016 0.04654184 0.06275519 0.016 0.0463303 0.07744201 0.016 0.04761996 0.08381208 0.016 0.04827699 0.07609924 0.016 0.04541263 0.02285012 0.016 0.04531619 0.02509769 0.016 0.04794934 0.07421788 0.016 0.04589542 0.06979164 0.016 0.04469433 0.08065327 0.016 0.0443826 0.0787762 0.016 0.05110708 0.0354739 0.016 0.05102518 0.04212125 0.016 0.04837712 0.04118713 0.016 0.04691258 0.03073128 0.016 0.04678198 0.03263219 0.016 0.04923638 0.06832632 0.016 0.05091819 0.05995877 0.016 0.05093881 0.05331119 0.016 0.04813435 0.03849657 0.016 0.04808917 0.04818686 0.016 0.04795357 0.05663868 0.016 0.04654184 0.06275519 -0.0158 0.05633427 0.042924 -0.0158 0.05533427 0.041924 -0.0158 0.05540669 0.044137 -0.0158 0.06027389 0.0259125 -0.0158 0.05565125 0.02996617 -0.0158 0.05432774 0.01383969 -0.0158 0.05533427 0.03064919 -0.0158 0.05633427 0.02964919 -0.0158 0.07047444 0.0296994 -0.0158 0.07654512 0.01965462 -0.0158 0.07652832 0.01792887 -0.0158 0.07592579 0.01631164 -0.0158 0.06222586 0.02396053 -0.0158 0.07161198 0.01383969 -0.0158 0.07331191 0.01413754 -0.0158 0.07480932 0.0149956 -0.0158 0.06753027 0.042924 -0.0158 0.06335283 0.0259125 -0.0158 0.07104187 0.03003072 -0.0158 0.07399692 0.0333535 -0.0158 0.07122806 0.03088417 -0.0158 0.07089764 0.04693831 -0.0158 0.06850228 0.04215899 -0.0158 0.04987484 0.02345115 -0.0158 0.04934845 0.01929423 -0.0158 0.05068588 0.01551513 -0.0158 0.05558557 0.05580137 -0.0158 0.0571774 0.0474125 -0.0158 0.0575899 0.04587303 -0.0158 0.05583034 0.07639311 -0.0158 0.06025635 0.0465875 -0.0158 0.06725234 0.06038689 -0.0158 0.05984385 0.04812697 -0.0158 0.06307378 0.05544656 -0.0158 0.05830438 0.04853947 -0.0158 0.05627378 0.05540403 -0.0158 0.05764934 0.07605625 -0.0158 0.06306696 0.07367731 -0.0158 0.06365481 0.05643124 -0.0158 0.05705314 0.07658311 -0.0158 0.05732595 0.08842039 -0.0158 0.0554202 0.08968699 -0.0158 0.05197303 0.08712697 -0.0158 0.05126621 0.08900848 -0.0158 0.05422697 0.08712697 0.016 0.05422697 0.08712697 0.016 0.05452894 0.085175 0.016 0.0554202 0.08968699 0.016 0.05549276 0.03030768 0.016 0.04934845 0.01929423 0.016 0.05432774 0.01383969 0.016 0.04987484 0.02345115 0.016 0.04947264 0.01764471 0.016 0.05196992 0.0145088 0.016 0.06181336 0.02385 0.016 0.06098836 0.02407106 0.016 0.07654512 0.01965462 0.016 0.06346336 0.0255 0.016 0.06294033 0.02437303 0.016 0.07480932 0.0149956 0.016 0.07047444 0.0296994 0.016 0.05533427 0.041924 0.016 0.05633427 0.042924 0.016 0.05540669 0.044137 0.016 0.07161198 0.01383969 0.016 0.07331191 0.01413754 0.016 0.05633427 0.02964919 0.016 0.07113747 0.03023338 0.016 0.06753027 0.042924 0.016 0.07123964 0.04554278 0.016 0.06850228 0.04215899 0.016 0.07399692 0.0333535 0.016 0.07122806 0.03088417 0.016 0.05156053 0.0855875 0.016 0.04997575 0.08766248 0.016 0.05296554 0.08977611 0.016 0.0531 0.08765 0.016 0.06365481 0.05643124 0.016 0.05984385 0.04812697 0.016 0.05583034 0.07639311 0.016 0.0575899 0.04587303 0.016 0.05558557 0.05580137 0.016 0.05705314 0.07658311 0.016 0.05764934 0.07605625 0.016 0.06306696 0.07367731 0.016 0.06725234 0.06038689 0.016 0.05830438 0.04853947 0.016 0.05627378 0.05540403 0.016 0.06289492 0.05540403 -0.0158 0.05069007 0.0275612 -0.0158 0.05049079 0.0884603 0.016 0.07089764 0.04693831 -0.0158 0.07158165 0.04414725 0.016 0.07158165 0.04414725 -0.0158 0.05627378 0.0766184 -0.0158 0.05688945 0.0766184 0.016 0.05627378 0.0766184 0.016 0.05688945 0.0766184 -0.0158 0.06289492 0.05540403 -0.0158 0.0554791 0.0561987 -0.0158 0.0554791 0.07582372 0.016 0.0554791 0.0561987 0.016 0.0554791 0.07582372 -0.0158 0.05583427 0.04279003 0.016 0.05583427 0.04279003 -0.0158 0.05546824 0.042424 0.016 0.05546824 0.042424 -0.0158 0.06830676 0.04255414 0.016 0.06830676 0.04255414 -0.0158 0.06796031 0.04282681 0.016 0.06796031 0.04282681 -0.0158 0.07025605 0.02964919 0.016 0.07025605 0.02964919 -0.0158 0.07069282 0.02974961 0.016 0.07069282 0.02974961 0.016 0.07104187 0.03003072 -0.0158 0.07123308 0.03043604 0.016 0.07123308 0.03043604 0.016 0.05533427 0.03064919 -0.0158 0.05546824 0.03014919 0.016 0.05546824 0.03014919 -0.0158 0.05583427 0.02978316 0.016 0.05583427 0.02978316 0.019 0.052275 0.08457106 0.019 0.05452894 0.085175 0.019 0.05475 0.086 0.019 0.06036688 0.047 -0.0158 0.06014582 0.047825 0.019 0.05728793 0.047825 -0.0158 0.05728793 0.046175 0.019 0.06346336 0.0255 -0.0158 0.0632423 0.026325 0.016 0.05269634 0.01411332 -0.0158 0.05269634 0.01411332 0.016 0.0512435 0.01490428 -0.0158 0.0512435 0.01490428 0.016 0.05012824 0.01612598 -0.0158 0.05012824 0.01612598 -0.0158 0.04947264 0.01764471 0.016 0.07652832 0.01792887 0.016 0.07592579 0.01631164</float_array>
          <technique_common>
            <accessor source="#pos_0-array" count="4824" stride="3">
              <param name="X" type="float"/>
              <param name="Y" type="float"/>
              <param name="Z" type="float"/>
            </accessor>
          </technique_common>
        </source>
        <source id="norm_0">
          <float_array id="norm_0-array" count="1182">0 0 -1 -0.34202 0.93969 0 -0.34202 0.93969 0 -0.34202 -0.93969 -0 -0.34202 -0.93969 -0 -0.34202 0.93969 0 -0.34202 0.93969 0 -0.34202 -0.93969 -0 -0.34202 0.93969 0 -0.34202 0.93969 0 -0.34202 0.93969 0 0 1 0 0 0 1 0 0 1 0 -0 1 -0 -0 1 0 0 1 0 -0 1 0 0 1 0 -0 1 -0 0 1 -0 0 1 0 -0 1 -0 -0 1 0 -0 1 -0 0 1 0 0 1 -0 -0 1 0 0 1 0 0 1 -0 0 1 -0 0 1 0 0 1 0 -0 1 -0 0 1 0 0 1 0 0 1 0 0 1 0 -0 1 0 0 1 0 0 1 0 -0 1 0 0 1 -0 0 1 0 0 1 0 -0 1 0 0 1 0 -0 1 0 0 1 0 0 1 0 -0 1 -0 0 1 -0 0 1 0 -0 1 0 -0 1 0 -0 1 -0 0 1 -0 0 1 0 -0 1 -0 0 1 0 -0 1 0 0 1 -0.34202 -0.93969 -0 -1 0 0 1 0 0 0 -1 0 0 0 1 -0 0 1 -0 0 1 0 0 1 0 0 1 0 -0 1 -0 0 1 -0 0 1 -0 0 1 0 -0 1 -0 0 1 0 0 1 -0 -0 1 -0 -0 1 0 0 1 -0 0 1 -0 0 1 -0 0 1 0 -0 1 0 0 1 0 0 1 -0 0 1 -0 0 1 0 0 1 0.25882 0 0.96593 0.70711 0 0.70711 0.96593 0 0.25882 0.96593 0 -0.25882 0.70711 0 -0.70711 0.25882 0 -0.96593 -0.25882 -0 -0.96593 -0.70711 -0 -0.70711 -0.96593 -0 -0.25882 -0.96593 0 0.25882 -0.70711 0 0.70711 -0.25882 0 0.96593 -0 0 -1 -0 0 -1 0 0 -1 -0 -0 -1 0 0 -1 -0 0 -1 0 0 -1 0 -0 -1 0 -0 -1 0 0 -1 0 0 -1 -0 0 -1 -0 0 -1 0 -0 -1 0 -0 -1 -0 0 -1 -0 -0 -1 0 0 -1 -0 -0 -1 -0 -0 -1 0 -0 -1 -0 0 -1 -0 -0 -1 0 0 -1 -0 0 -1 -0 -0 -1 0 0 -1 -0 0 -1 0 -0 -1 0 -0 -1 -0.96593 -0.25882 0 -0.7071 -0.70711 0 -0.25882 -0.96593 0 0.25882 -0.96593 0 0.7071 -0.70711 0 0.96593 -0.25882 0 0.96593 0.25882 -0 0.7071 0.70711 -0 0.25882 0.96593 -0 -0.25882 0.96593 0 -0.7071 0.70711 0 -0.96593 0.25882 0 -0.70711 -0.70711 0 0.70711 -0.70711 0 0.96593 0.25882 -0 0.70711 0.70711 -0 -0.70711 0.70711 0 -0.96593 0.25882 0 -0.96593 -0.25882 0 -0.70711 -0.70711 0 0.70711 -0.70711 0 0.96593 -0.25882 0 0.96593 0.25882 -0 0.70711 0.70711 -0 -0.70711 0.70711 0 -0.96593 0.25882 0 -0.7071 -0.70711 0 0.7071 -0.70711 0 0.96593 0.25882 -0 0.7071 0.70711 -0 -0.7071 0.70711 0 -0.96593 0.25882 0 -0 0 -1 -0 0 -1 0 0 -1 -0 0 -1 -0 0 -1 -0 -0 -1 -0 -0 -1 -0 0 -1 -0 0 -1 -0 -0 -1 -0 0 -1 -0 0 -1 -0 -0 -1 -0 0 -1 0 0 -1 0 -0 -1 -0 -0 -1 0 0 -1 0 -0 -1 -0 -0 -1 -0 -0 -1 -0 0 -1 -0 -0 -1 -0 -0 -1 0 -0 -1 0 -0.98263 0.18558 0 -0.99515 0.09837 0 -0.99995 0.01039 0 -0.99698 -0.07766 0 -0.98627 -0.16512 0 -0.98473 -0.17406 0 -0.9945 -0.10478 0 -0.99939 -0.03498 0 -0.9818 0.18992 0 -0.84014 0.54237 0 -0.57726 0.81656 0 -0.2311 0.97293 -0 0.23377 0.97229 -0 0.58398 0.81177 -0 0.84752 0.53077 0 0.97911 0.20334 0 0.96873 0.24812 0 0.9563 0.29238 0 0.94186 0.33602 0 0.98954 0.14428 0 0.98596 0.16699 0 -0.25882 -0.96593 0 -0.70711 -0.7071 0 -0.96593 -0.25882 0 -0.9998 0.02013 0 -0.99697 0.07774 0 -0.98506 0.17219 0 -0.96593 -0.25882 0 -0.70711 -0.7071 0 -0.25882 -0.96593 0 0.25882 -0.96593 0 0.70711 -0.7071 0 0.96593 -0.25882 0 0.96593 0.25882 0 0.70711 0.7071 0 -0.25882 0.96593 0 -0.70711 0.7071 0 0.25882 -0.96593 0 0.7071 -0.70711 -0 0.96593 0.25882 -0 0.7071 0.70711 0 0.25882 0.96593 0 -0.7071 0.70711 0 -0.96593 0.25882 0 0.70711 -0.70711 0 0.96593 -0.25882 0 0.96593 0.25882 0 -0.96593 0.25882 0 -0.35041 0.9366 0 -0.73899 0.67372 0 -0.96498 0.26232 0 -0.97834 -0.207 0 -0.77611 -0.63059 -0 0.99939 0.03498 -0 0.9945 0.10478 -0 0.98473 0.17407 -0 0.98627 0.16513 -0 0.99698 0.07766 0 0.99995 -0.01039 0 0.99515 -0.09837 0 0.98263 -0.18558 0 0.98142 -0.19187 0 0.99308 -0.1174 0 -0.92506 0.37983 0 -0.99118 -0.13255 0 -0.79274 -0.60955 0 -0.38254 -0.92394 0 -0.35248 -0.93582 0 -0.73003 -0.68342 0 -0.9569 -0.29043 0 -0.98671 0.16248 0 -0.81323 0.58195 0 -0.4722 0.88149 0 -0.03415 0.99942 0 -0.06533 0.99786 0 -0.55245 0.83354 0 -0.89387 0.44833 0 -0.99846 -0.05548 0 -0.83876 -0.5445 0 -0.45692 -0.88951 0 -0.45482 -0.89058 0 -0.83445 -0.55108 0 -0.99765 -0.06859 0 -0.90201 0.43171 0 -0.57197 0.82028 0 -0.09407 0.99557 0 -0.06437 0.99793 0 -0.49699 0.86776 0 -0.8283 0.56029 0 -0.99036 0.1385 0 -0.95023 -0.31155 0 -0.71602 -0.69808 0 -0.33559 -0.94201 0 -0.36343 -0.93162 0 -0.77564 -0.63117 0 -0.98596 -0.16698 0 -0.94012 0.34085 0 -0.65008 0.75987 0 -0.19083 0.98162 0 -0.162 0.98679 0 -0.57941 0.81503 0 -0.87905 0.47673 0 -0.99915 0.04117 0 -0.9153 -0.40278 0 -0.64431 -0.76476 0 -0.24219 -0.97023 0 -0.27126 -0.96251 0 -0.71008 -0.70412 0 -0.96502 -0.26218 0 -0.96889 0.24749 0 -0.72117 0.69276 0 -0.28576 0.9583 0 -0.25697 0.96642 0 -0.65634 0.75447 0 -0.92138 0.38866 0 -0.9984 -0.05646 0 -0.87163 -0.49016 0 -0.56676 -0.82388 0 -0.14668 -0.98918 0 -0.17584 -0.98442 0 -0.63807 -0.76998 0 -0.9348 -0.35517 0 -0.98841 0.15179 0 -0.78523 0.6192 0 -0.37787 0.92586 0 -0.35033 0.93663 0 -0.72668 0.68697 0 -0.95487 0.29701 0 -0.98811 -0.15373 0 -0.81974 -0.57274 0 -0.48387 -0.87514 0 -0.04908 -0.9988 0 -0.08118 -0.9967 0 -0.56547 -0.82477 0 -0.90047 -0.43492 0 -0.99758 0.0696 0 -0.83128 0.55585 0 -0.44536 0.89535 0 -0.44295 0.89655 0 -0.82727 0.56181 0 -0.99665 0.08181 0 -0.90764 -0.41975 0 -0.58337 -0.8122 0 -0.10814 -0.99414 0 -0.07773 -0.99697 0 -0.50766 -0.86156 0 -0.83476 -0.55061 0 -0.99178 -0.12794 0 -0.94721 0.32063 0 -0.71007 0.70413 0 -0.32838 0.94455 0 -0.35759 0.93388 0 -0.77188 0.63576 0 -0.98518 0.17151 0 -0.94141 -0.33727 0 -0.65219 -0.75805 0 -0.19279 -0.98124 0 -0.19176 -0.98144 0 -0.64942 -0.76043 0 -0.93953 -0.34248 0 -0.98648 0.16387 0 -0.77853 0.62761 0 -0.36856 0.9296 0 -0.11373 -0.99351 -0 0.19761 0.98028 -0 0.94091 0.33865 -0 0.95382 0.30037 -0 0.96517 0.26161 -0 0.97126 0.23803 -0 0.97587 0.21837 -0 0.98314 0.18288 0 -0.99208 0.12563 0 -0.98089 0.19456 0 -0.95623 -0.29262 0 0.25882 -0.96593 0 0.70711 -0.70711 0 0.96593 -0.25882 0 -0.89629 -0.44347 0 -0.61847 -0.78581 0 -0.22044 -0.9754 0 -0.972 -0.23499 0 -0.22408 0.97457 0 -0.62723 0.77883 0 -0.90441 0.42666 0 -0.99994 -0.01121 -0 0.96593 0.25882 -0 0.70711 0.70711 -0 0.25882 0.96593 -0 0.25882 0.96593 0 -0.96593 0.25882 0 -0.96593 -0.25882 0 -0.7071 -0.70711 0 0.96593 -0.25881 0 -0.96593 -0.25882 0 -0.70711 -0.70711 0 -0.16542 -0.98622 0 -0.47815 -0.87828 0 -0.73855 -0.6742 0 -0.91811 -0.39633 0 -0.99718 -0.07508 0 0.99995 -0.00974 0 0.93708 -0.34912 0 0.76256 -0.64692 0 0.49719 -0.86764 0 0.17258 -0.985</float_array>
          <technique_common>
            <accessor source="#norm_0-array" count="1182" stride="3">
              <param name="X" type="float"/>
              <param name="Y" type="float"/>
              <param name="Z" type="float"/>
            </accessor>
          </technique_common>
        </source>
        <vertices id="vert_0">
          <input semantic="POSITION" source="#pos_0"/>
        </vertices>
        <triangles count="2000" material="mat_0">
          <input semantic="VERTEX" source="#vert_0" offset="0"/>
          <input semantic="NORMAL" source="#norm_0" offset="1"/>
          <p>0 0 1 0 2 0 2 0 1 0 3 0 4 0 5 0 6 0 6 0 5 0 7 0 5 0 8 0 9 0 10 0 11 0 12 0 13 0 14 0 15 0 16 0 17 0 18 0 17 0 19 0 11 0 17 0 11 0 18 0 18 0 11 0 10 0 7 0 20 0 21 0 21 0 20 0 11 0 21 0 11 0 19 0 21 0 19 0 1 0 1 0 19 0 3 0 9 0 22 0 23 0 24 0 25 0 5 0 24 0 26 0 25 0 25 0 26 0 11 0 11 0 26 0 12 0 27 0 28 0 29 0 30 0 31 0 32 0 32 0 31 0 33 0 33 0 31 0 34 0 33 0 34 0 17 0 17 0 34 0 19 0 4 0 35 0 5 0 5 0 35 0 36 0 5 0 36 0 0 0 32 0 37 0 5 0 38 0 39 0 40 0 41 0 42 0 43 0 7 0 44 0 20 0 5 0 37 0 24 0 24 0 37 0 45 0 46 0 47 0 15 0 0 0 2 0 48 0 0 0 48 0 5 0 5 0 48 0 30 0 5 0 30 0 32 0 49 0 50 0 51 0 16 0 18 0 52 0 52 0 18 0 53 0 52 0 53 0 45 0 45 0 53 0 24 0 54 0 55 0 56 0 39 0 57 0 58 0 5 0 41 0 56 0 56 0 41 0 43 0 59 0 60 0 56 0 61 0 62 0 39 0 9 0 23 0 5 0 63 0 64 0 28 0 65 0 66 0 67 0 56 0 55 0 39 0 44 0 7 0 5 0 44 0 5 0 39 0 65 0 67 0 28 0 23 0 68 0 13 0 23 0 13 0 5 0 69 0 41 0 70 0 56 0 39 0 5 0 13 0 15 0 5 0 51 0 50 0 28 0 51 0 28 0 5 0 51 0 5 0 15 0 51 0 15 0 47 0 70 0 41 0 28 0 28 0 41 0 5 0 71 1 72 1 58 1 58 1 72 1 73 1 74 2 75 2 76 2 76 2 75 2 77 2 78 3 79 3 80 3 80 3 79 3 46 3 81 1 82 1 47 1 47 1 82 1 83 1 84 3 85 3 86 3 86 3 85 3 49 3 87 1 88 1 50 1 50 1 88 1 89 1 90 4 91 4 92 4 92 4 91 4 29 4 93 5 94 5 27 5 27 5 94 5 95 5 96 3 97 3 98 3 98 3 97 3 63 3 99 6 100 6 64 6 64 6 100 6 101 6 102 3 103 3 104 3 104 3 103 3 105 3 106 6 107 6 108 6 108 6 107 6 109 6 110 4 111 4 112 4 112 4 111 4 70 4 113 1 114 1 69 1 69 1 114 1 115 1 116 4 117 4 118 4 118 4 117 4 42 4 119 1 120 1 43 1 43 1 120 1 121 1 122 4 123 4 124 4 124 4 123 4 59 4 125 6 126 6 60 6 60 6 126 6 127 6 128 3 129 3 130 3 130 3 129 3 54 3 131 6 132 6 55 6 55 6 132 6 133 6 134 3 135 3 136 3 136 3 135 3 40 3 137 1 138 1 38 1 38 1 138 1 139 1 140 3 141 3 142 3 142 3 141 3 61 3 143 1 144 1 62 1 62 1 144 1 145 1 146 7 147 7 148 7 148 7 147 7 57 7 149 8 150 8 151 8 151 8 150 8 152 8 153 3 154 3 155 3 155 3 154 3 156 3 157 9 158 9 159 9 159 9 158 9 160 9 161 7 162 7 163 7 163 7 162 7 164 7 165 10 166 10 167 10 167 10 166 10 168 10 169 11 170 11 11 11 11 11 170 11 25 11 171 12 172 12 173 12 170 13 174 13 175 13 154 14 176 14 149 14 177 15 178 15 169 15 169 16 178 16 179 16 169 17 179 17 170 17 170 18 179 18 180 18 181 18 182 18 183 18 181 18 183 18 184 18 184 18 183 18 174 18 184 18 174 18 172 18 172 19 174 19 170 19 185 20 186 20 187 20 182 21 181 21 188 21 188 22 181 22 189 22 189 18 181 18 190 18 174 23 191 23 175 23 175 18 191 18 192 18 193 18 194 18 195 18 196 24 197 24 170 24 170 25 197 25 172 25 172 26 197 26 173 26 198 18 199 18 193 18 200 27 186 27 81 27 199 18 198 18 201 18 201 18 198 18 202 18 201 28 202 28 173 28 173 29 202 29 171 29 74 30 203 30 200 30 170 18 180 18 204 18 170 31 204 31 196 31 196 32 204 32 194 32 194 33 204 33 205 33 194 18 205 18 195 18 200 34 81 34 79 34 162 14 176 14 157 14 192 35 176 35 175 35 175 36 176 36 206 36 177 37 169 37 195 37 195 38 169 38 189 38 195 18 189 18 193 18 193 18 189 18 190 18 193 18 190 18 198 18 200 39 203 39 176 39 187 18 207 18 185 18 208 18 192 18 188 18 208 40 188 40 189 40 97 41 186 41 99 41 209 42 210 42 211 42 192 43 212 43 213 43 213 44 212 44 135 44 192 45 213 45 214 45 192 46 214 46 209 46 209 47 214 47 125 47 212 48 143 48 141 48 215 49 216 49 217 49 214 50 213 50 218 50 209 47 125 47 123 47 176 51 192 51 200 51 208 52 215 52 192 52 186 53 219 53 103 53 143 54 212 54 217 54 217 55 212 55 192 55 217 56 192 56 215 56 211 18 113 18 111 18 219 18 106 18 103 18 93 57 91 57 186 57 186 58 200 58 192 58 211 59 192 59 209 59 186 60 192 60 211 60 186 61 211 61 219 61 208 62 189 62 44 62 44 62 189 62 20 62 189 63 169 63 20 63 20 63 169 63 11 63 5 64 25 64 175 64 175 64 25 64 170 64 220 3 203 3 221 3 221 3 203 3 222 3 167 65 168 65 175 65 175 65 168 65 5 65 223 65 224 65 225 65 225 65 224 65 226 65 227 65 228 65 229 65 230 65 223 65 231 65 231 65 223 65 225 65 232 65 233 65 234 65 234 65 233 65 235 65 234 65 235 65 236 65 236 65 235 65 229 65 236 65 229 65 228 65 235 65 233 65 237 65 235 65 237 65 230 65 230 65 237 65 223 65 223 65 237 65 238 65 239 0 240 0 241 0 241 0 240 0 242 0 243 63 244 63 245 63 246 63 247 63 228 63 228 0 248 0 249 0 250 64 251 64 236 64 236 64 251 64 252 64 232 18 253 18 254 18 232 18 254 18 238 18 238 18 254 18 255 18 238 18 255 18 256 18 257 0 258 0 226 0 259 11 260 11 261 11 261 11 260 11 262 11 259 11 263 11 260 11 264 11 265 11 266 11 266 11 265 11 267 11 266 11 267 11 268 11 268 11 267 11 269 11 259 11 269 11 270 11 271 11 263 11 259 11 271 11 259 11 270 11 272 11 267 11 273 11 273 11 267 11 263 11 273 11 263 11 271 11 267 11 272 11 269 11 269 11 272 11 270 11 274 11 247 11 275 11 276 11 277 11 278 11 274 11 275 11 244 11 279 11 278 11 277 11 277 11 276 11 280 11 281 11 282 11 244 11 244 11 282 11 274 11 283 11 284 11 278 11 278 11 284 11 285 11 278 11 285 11 276 11 285 11 284 11 286 11 285 11 286 11 281 11 281 11 286 11 282 11 282 11 286 11 287 11 288 63 289 63 290 63 291 0 292 0 277 0 277 0 292 0 279 0 293 64 226 64 277 64 247 63 246 63 275 63 294 0 295 0 247 0 283 18 278 18 296 18 283 18 296 18 287 18 287 18 296 18 297 18 287 18 297 18 298 18 299 65 300 65 301 65 302 65 299 65 301 65 303 65 304 65 305 65 301 65 306 65 302 65 299 65 302 65 307 65 307 65 302 65 308 65 309 65 310 65 311 65 311 65 310 65 305 65 311 65 305 65 304 65 308 65 310 65 312 65 313 65 307 65 308 65 313 65 308 65 312 65 309 65 314 65 310 65 310 65 314 65 312 65 307 65 313 65 314 65 307 65 314 65 309 65 225 64 226 64 293 64 261 65 262 65 260 65 315 65 264 65 266 65 315 65 266 65 269 65 263 65 259 65 260 65 260 65 259 65 261 65 261 65 259 65 316 65 269 65 317 65 315 65 318 65 263 65 319 65 319 65 263 65 317 65 269 65 259 65 320 65 269 65 320 65 319 65 269 65 319 65 317 65 263 65 318 65 259 65 259 65 318 65 320 65 258 0 257 0 321 0 224 63 322 63 323 63 323 63 322 63 324 63 248 0 228 0 325 0 250 11 325 11 326 11 327 11 328 11 250 11 327 11 250 11 326 11 328 11 329 11 250 11 330 11 331 11 323 11 323 11 331 11 332 11 323 11 332 11 258 11 333 11 329 11 328 11 334 11 330 11 335 11 335 11 330 11 329 11 335 11 329 11 333 11 333 11 328 11 336 11 336 11 328 11 331 11 330 11 334 11 331 11 331 11 334 11 336 11 337 64 338 64 339 64 339 64 338 64 340 64 341 66 342 66 343 66 344 18 345 18 346 18 341 67 343 67 347 67 347 68 343 68 348 68 347 69 348 69 349 69 347 70 349 70 344 70 344 18 349 18 350 18 351 71 352 71 353 71 353 72 352 72 341 72 341 73 352 73 342 73 344 18 346 18 353 18 346 74 354 74 353 74 353 75 354 75 351 75 350 18 355 18 345 18 350 18 345 18 344 18 354 76 356 76 351 76 351 77 356 77 357 77 351 78 357 78 350 78 350 79 357 79 355 79 358 80 359 80 360 80 358 67 360 67 361 67 361 81 360 81 362 81 363 82 364 82 358 82 358 83 364 83 359 83 365 18 366 18 362 18 362 84 366 84 361 84 363 18 367 18 364 18 364 18 367 18 368 18 366 85 369 85 361 85 361 86 369 86 370 86 370 18 369 18 371 18 370 18 371 18 363 18 363 18 371 18 367 18 366 87 365 87 372 87 366 88 372 88 368 88 368 89 372 89 364 89 373 63 374 63 375 63 375 63 374 63 376 63 377 63 378 63 379 63 379 63 378 63 380 63 381 0 291 0 382 0 382 0 291 0 258 0 383 90 332 90 384 90 383 90 384 90 385 90 385 91 384 91 386 91 385 91 386 91 387 91 387 92 386 92 388 92 387 92 388 92 389 92 389 93 388 93 390 93 389 93 390 93 391 93 391 94 390 94 392 94 391 94 392 94 393 94 393 95 392 95 394 95 393 95 394 95 395 95 396 96 326 96 397 96 396 96 397 96 398 96 398 97 397 97 399 97 398 97 399 97 400 97 400 98 399 98 401 98 400 98 401 98 402 98 402 99 401 99 403 99 402 99 403 99 404 99 404 100 403 100 405 100 404 100 405 100 406 100 406 101 405 101 407 101 406 101 407 101 408 101 295 0 409 0 325 0 325 0 409 0 410 0 326 65 325 65 340 65 363 65 411 65 412 65 382 65 258 65 394 65 382 65 394 65 332 65 332 65 413 65 411 65 411 65 413 65 412 65 412 65 413 65 414 65 414 65 413 65 415 65 407 65 326 65 340 65 407 65 340 65 415 65 415 65 340 65 414 65 414 65 340 65 338 65 411 65 382 65 332 65 395 11 291 11 381 11 416 11 417 11 375 11 418 11 409 11 419 11 420 11 421 11 295 11 381 11 417 11 383 11 381 11 383 11 395 11 409 11 295 11 421 11 409 11 421 11 419 11 419 11 421 11 416 11 416 11 421 11 422 11 416 11 422 11 417 11 417 11 422 11 383 11 416 18 423 18 419 18 419 18 423 18 414 18 424 11 310 11 311 11 424 11 311 11 304 11 310 11 309 11 311 11 310 11 425 11 309 11 425 11 426 11 309 11 309 11 426 11 307 11 307 11 426 11 427 11 427 11 428 11 308 11 308 11 428 11 310 11 310 11 428 11 425 11 307 11 427 11 308 11 307 11 308 11 299 11 299 11 308 11 302 11 299 11 302 11 301 11 299 11 301 11 300 11 289 63 288 63 429 63 295 0 294 0 430 0 274 64 431 64 432 64 432 64 431 64 433 64 288 65 291 65 395 65 434 65 435 65 436 65 288 65 395 65 435 65 435 65 437 65 288 65 438 65 434 65 436 65 439 65 437 65 435 65 439 65 435 65 434 65 437 65 439 65 438 65 437 65 438 65 440 65 440 65 438 65 436 65 440 65 436 65 432 65 432 65 436 65 408 65 432 65 408 65 295 65 441 64 442 64 443 64 443 64 442 64 444 64 445 64 446 64 441 64 441 64 446 64 442 64 446 64 445 64 447 64 446 64 447 64 448 64 446 64 448 64 449 64 449 64 448 64 450 64 444 64 451 64 452 64 444 64 452 64 443 64 450 64 453 64 454 64 443 64 452 64 450 64 450 64 452 64 453 64 450 64 454 64 449 64 449 64 454 64 455 64 455 64 456 64 449 64 449 64 456 64 444 64 444 64 456 64 451 64 457 18 458 18 459 18 460 18 461 18 457 18 462 18 458 18 457 18 457 18 461 18 463 18 457 18 463 18 464 18 457 18 464 18 465 18 465 18 464 18 466 18 465 18 466 18 467 18 465 18 467 18 442 18 442 18 467 18 468 18 460 18 457 18 459 18 460 18 459 18 469 18 442 18 470 18 444 18 444 18 470 18 471 18 442 18 468 18 469 18 444 18 471 18 457 18 457 18 471 18 462 18 469 18 459 18 472 18 469 18 472 18 442 18 442 18 472 18 470 18 473 63 474 63 475 63 476 63 477 63 457 63 475 63 474 63 478 63 475 63 478 63 479 63 475 63 480 63 473 63 480 63 481 63 473 63 473 63 481 63 465 63 465 63 481 63 482 63 483 63 476 63 484 63 484 63 476 63 457 63 457 63 477 63 474 63 474 63 477 63 485 63 485 63 478 63 474 63 475 63 479 63 483 63 483 63 479 63 476 63 465 63 482 63 486 63 465 63 486 63 457 63 457 63 486 63 484 63 449 0 487 0 488 0 489 0 446 0 490 0 490 0 446 0 449 0 490 0 449 0 488 0 446 0 489 0 473 0 489 0 491 0 473 0 473 0 491 0 492 0 474 0 493 0 449 0 449 0 493 0 487 0 494 0 495 0 488 0 488 0 495 0 490 0 496 0 497 0 473 0 473 0 497 0 474 0 474 0 497 0 498 0 474 0 498 0 493 0 473 0 492 0 494 0 473 0 494 0 496 0 496 0 494 0 488 0 457 65 474 65 444 65 444 65 474 65 449 65 473 11 465 11 446 11 446 11 465 11 442 11 499 64 500 64 501 64 501 64 500 64 502 64 503 64 504 64 499 64 499 64 504 64 500 64 504 64 503 64 505 64 504 64 505 64 506 64 504 64 506 64 507 64 507 64 506 64 508 64 502 64 509 64 510 64 502 64 510 64 501 64 508 64 511 64 512 64 501 64 510 64 508 64 508 64 510 64 511 64 508 64 512 64 507 64 507 64 512 64 513 64 513 64 514 64 507 64 507 64 514 64 502 64 502 64 514 64 509 64 515 18 516 18 517 18 518 18 519 18 515 18 520 18 516 18 515 18 515 18 519 18 521 18 515 18 521 18 522 18 515 18 522 18 523 18 523 18 522 18 524 18 523 18 524 18 525 18 523 18 525 18 500 18 500 18 525 18 526 18 518 18 515 18 517 18 518 18 517 18 527 18 500 18 528 18 502 18 502 18 528 18 529 18 500 18 526 18 527 18 502 18 529 18 515 18 515 18 529 18 520 18 527 18 517 18 530 18 527 18 530 18 500 18 500 18 530 18 528 18 531 63 532 63 533 63 534 63 535 63 515 63 533 63 532 63 536 63 533 63 536 63 537 63 533 63 538 63 531 63 538 63 539 63 531 63 531 63 539 63 523 63 523 63 539 63 540 63 541 63 534 63 542 63 542 63 534 63 515 63 515 63 535 63 532 63 532 63 535 63 543 63 543 63 536 63 532 63 533 63 537 63 541 63 541 63 537 63 534 63 523 63 540 63 544 63 523 63 544 63 515 63 515 63 544 63 542 63 507 0 545 0 546 0 547 0 504 0 548 0 548 0 504 0 507 0 548 0 507 0 546 0 504 0 547 0 531 0 547 0 549 0 531 0 531 0 549 0 550 0 532 0 551 0 507 0 507 0 551 0 545 0 552 0 553 0 546 0 546 0 553 0 548 0 554 0 555 0 531 0 531 0 555 0 532 0 532 0 555 0 556 0 532 0 556 0 551 0 531 0 550 0 552 0 531 0 552 0 554 0 554 0 552 0 546 0 515 65 532 65 502 65 502 65 532 65 507 65 531 11 523 11 504 11 504 11 523 11 500 11 557 0 558 0 559 0 559 102 558 102 560 102 561 103 562 103 563 103 563 104 562 104 564 104 564 105 565 105 566 105 558 0 557 0 567 0 558 0 567 0 564 0 564 106 567 106 568 106 562 107 561 107 569 107 562 0 569 0 560 0 560 108 569 108 570 108 571 109 572 109 573 109 571 110 573 110 568 110 568 111 573 111 564 111 564 112 573 112 565 112 560 113 574 113 575 113 560 114 575 114 576 114 577 115 578 115 579 115 579 116 578 116 580 116 559 117 560 117 581 117 581 118 560 118 576 118 581 119 576 119 582 119 582 120 576 120 577 120 582 121 577 121 571 121 571 122 577 122 579 122 571 123 579 123 572 123 579 124 583 124 584 124 584 125 583 125 585 125 584 126 585 126 586 126 586 126 585 126 563 126 586 0 563 0 564 0 586 127 564 127 566 127 574 128 560 128 587 128 587 129 560 129 570 129 587 0 570 0 588 0 587 0 588 0 580 0 580 130 588 130 579 130 579 131 588 131 583 131 589 11 590 11 591 11 591 11 590 11 562 11 592 11 593 11 560 11 560 11 593 11 594 11 595 11 562 11 560 11 595 11 560 11 596 11 596 11 560 11 594 11 596 11 594 11 597 11 595 11 598 11 591 11 595 11 591 11 562 11 599 65 600 65 601 65 602 65 603 65 601 65 601 65 603 65 558 65 601 65 558 65 599 65 604 65 605 65 564 65 564 65 605 65 606 65 564 65 607 65 558 65 558 65 607 65 599 65 607 65 564 65 606 65 607 65 606 65 608 65 609 18 610 18 611 18 612 18 596 18 613 18 612 18 613 18 614 18 612 18 615 18 596 18 596 18 615 18 616 18 615 18 617 18 616 18 616 18 617 18 618 18 614 18 613 18 619 18 613 18 599 18 620 18 620 18 621 18 613 18 613 18 621 18 622 18 623 18 624 18 599 18 599 18 624 18 620 18 611 18 625 18 609 18 626 18 627 18 628 18 629 18 630 18 631 18 630 18 629 18 632 18 633 18 634 18 635 18 636 18 637 18 623 18 633 18 635 18 623 18 623 18 635 18 636 18 623 18 637 18 638 18 623 18 638 18 639 18 639 18 638 18 640 18 641 18 638 18 642 18 643 18 644 18 645 18 645 18 644 18 646 18 641 18 642 18 643 18 641 18 643 18 645 18 647 18 648 18 645 18 645 18 648 18 649 18 618 18 641 18 616 18 616 18 641 18 650 18 651 18 650 18 641 18 645 18 649 18 641 18 641 18 649 18 651 18 596 18 616 18 652 18 596 18 652 18 653 18 596 18 653 18 654 18 653 18 655 18 654 18 654 18 655 18 656 18 656 18 655 18 647 18 657 18 646 18 633 18 633 18 646 18 634 18 658 18 659 18 627 18 627 18 659 18 660 18 627 18 660 18 633 18 633 18 660 18 661 18 626 18 658 18 627 18 633 18 661 18 657 18 657 18 662 18 646 18 646 18 662 18 645 18 645 18 662 18 663 18 663 18 664 18 645 18 645 18 664 18 665 18 665 18 664 18 666 18 666 18 626 18 665 18 667 18 668 18 631 18 669 18 645 18 631 18 669 18 631 18 668 18 630 18 667 18 631 18 669 18 670 18 645 18 645 18 670 18 671 18 645 18 671 18 656 18 645 18 656 18 647 18 672 18 673 18 630 18 654 18 656 18 674 18 674 18 675 18 654 18 654 18 675 18 672 18 672 18 675 18 673 18 676 18 607 18 677 18 676 18 677 18 678 18 607 18 676 18 679 18 607 18 679 18 680 18 680 18 679 18 681 18 680 18 681 18 682 18 610 18 680 18 611 18 611 18 680 18 682 18 611 18 682 18 683 18 611 18 683 18 684 18 677 18 685 18 678 18 684 18 686 18 611 18 611 18 686 18 677 18 677 18 686 18 685 18 687 18 688 18 677 18 677 18 688 18 689 18 677 18 689 18 611 18 611 18 689 18 690 18 628 18 625 18 626 18 626 18 625 18 611 18 626 18 611 18 691 18 691 18 611 18 690 18 692 18 687 18 677 18 693 18 694 18 632 18 632 18 694 18 692 18 692 18 694 18 695 18 692 18 695 18 687 18 690 18 696 18 691 18 691 18 696 18 632 18 632 18 696 18 693 18 692 18 697 18 698 18 699 18 632 18 700 18 700 18 632 18 692 18 700 18 692 18 698 18 632 18 699 18 701 18 595 18 702 18 697 18 672 18 703 18 704 18 672 18 704 18 705 18 672 18 705 18 595 18 595 18 705 18 702 18 680 18 610 18 627 18 680 18 627 18 633 18 624 18 623 18 639 18 619 18 613 18 641 18 641 18 613 18 638 18 638 18 613 18 622 18 638 18 622 18 640 18 691 18 665 18 626 18 665 18 631 18 645 18 619 18 641 18 618 18 701 18 706 18 632 18 632 18 706 18 672 18 632 18 672 18 630 18 706 18 703 18 672 18 692 18 595 18 697 18 593 63 602 63 594 63 594 63 602 63 601 63 605 64 589 64 606 64 606 64 589 64 591 64 590 63 604 63 562 63 562 63 604 63 564 63 590 0 707 0 604 0 604 0 707 0 708 0 709 0 604 0 710 0 710 0 604 0 708 0 710 0 708 0 711 0 589 0 712 0 590 0 590 0 712 0 713 0 590 0 713 0 707 0 714 0 605 0 715 0 715 0 605 0 604 0 715 0 604 0 709 0 605 0 714 0 716 0 605 0 716 0 589 0 589 0 716 0 717 0 708 0 718 0 711 0 711 0 718 0 719 0 711 0 719 0 717 0 717 0 719 0 720 0 717 0 720 0 589 0 589 0 720 0 712 0 603 64 592 64 558 64 558 64 592 64 560 64 592 0 721 0 722 0 603 0 723 0 724 0 603 0 724 0 592 0 592 0 724 0 721 0 721 0 724 0 725 0 721 0 725 0 726 0 602 0 727 0 603 0 603 0 727 0 728 0 603 0 728 0 723 0 729 0 730 0 593 0 593 0 730 0 602 0 602 0 730 0 727 0 731 0 593 0 592 0 731 0 592 0 722 0 731 0 732 0 593 0 593 0 732 0 729 0 732 0 733 0 729 0 729 0 733 0 725 0 725 0 733 0 734 0 725 0 734 0 726 0 721 132 735 132 736 132 736 132 735 132 737 132 736 133 737 133 738 133 738 133 737 133 739 133 738 134 739 134 740 134 740 134 739 134 741 134 740 135 741 135 742 135 742 135 741 135 743 135 742 136 743 136 732 136 732 136 743 136 744 136 732 137 744 137 745 137 745 137 744 137 746 137 745 138 746 138 747 138 747 138 746 138 748 138 747 139 748 139 733 139 733 139 748 139 749 139 733 140 749 140 734 140 734 140 749 140 619 140 734 141 619 141 726 141 726 141 619 141 750 141 726 142 750 142 751 142 751 142 750 142 752 142 751 143 752 143 721 143 721 143 752 143 735 143 753 132 754 132 755 132 755 132 754 132 756 132 755 144 756 144 757 144 757 144 756 144 758 144 757 134 758 134 759 134 759 134 758 134 760 134 759 135 760 135 729 135 729 135 760 135 761 135 729 145 761 145 730 145 730 145 761 145 621 145 730 137 621 137 762 137 762 137 621 137 763 137 762 146 763 146 764 146 764 146 763 146 765 146 764 147 765 147 766 147 766 147 765 147 767 147 766 140 767 140 728 140 728 140 767 140 624 140 728 141 624 141 768 141 768 141 624 141 769 141 768 148 769 148 770 148 770 148 769 148 771 148 770 149 771 149 753 149 753 149 771 149 754 149 772 150 773 150 716 150 716 150 773 150 774 150 716 151 774 151 775 151 775 151 774 151 776 151 775 134 776 134 777 134 777 134 776 134 778 134 777 135 778 135 711 135 711 135 778 135 779 135 711 152 779 152 780 152 780 152 779 152 781 152 780 153 781 153 710 153 710 153 781 153 782 153 710 154 782 154 783 154 783 154 782 154 784 154 783 155 784 155 785 155 785 155 784 155 786 155 785 140 786 140 715 140 715 140 786 140 610 140 715 141 610 141 787 141 787 141 610 141 788 141 787 156 788 156 789 156 789 156 788 156 790 156 789 157 790 157 772 157 772 157 790 157 773 157 791 150 792 150 720 150 720 150 792 150 793 150 720 158 793 158 712 158 712 158 793 158 794 158 712 134 794 134 795 134 795 134 794 134 796 134 795 135 796 135 797 135 797 135 796 135 798 135 797 159 798 159 799 159 799 159 798 159 800 159 799 153 800 153 801 153 801 153 800 153 802 153 801 160 802 160 803 160 803 160 802 160 804 160 803 161 804 161 805 161 805 161 804 161 806 161 805 140 806 140 718 140 718 140 806 140 807 140 718 141 807 141 719 141 719 141 807 141 808 141 719 162 808 162 809 162 809 162 808 162 810 162 809 163 810 163 791 163 791 163 810 163 792 163 811 164 591 164 812 164 812 165 591 165 598 165 812 0 598 0 813 0 814 166 815 166 606 166 606 167 815 167 816 167 606 168 816 168 608 168 816 169 817 169 608 169 608 170 817 170 818 170 819 171 608 171 818 171 811 172 820 172 591 172 591 173 820 173 821 173 822 174 591 174 823 174 823 175 591 175 821 175 819 176 824 176 608 176 608 177 824 177 598 177 598 0 824 0 813 0 825 178 826 178 822 178 822 179 826 179 827 179 822 180 827 180 591 180 591 181 827 181 606 181 606 182 827 182 814 182 826 183 825 183 828 183 826 184 828 184 818 184 818 185 828 185 819 185 819 0 829 0 824 0 824 0 829 0 830 0 830 186 829 186 831 186 830 187 831 187 821 187 821 188 831 188 823 188 595 64 607 64 598 64 598 64 607 64 608 64 600 0 597 0 601 0 601 0 597 0 594 0 599 63 597 63 600 63 597 63 599 63 596 63 832 63 833 63 834 63 835 63 836 63 837 63 838 63 839 63 840 63 835 63 837 63 841 63 841 63 837 63 842 63 838 63 840 63 843 63 843 63 840 63 844 63 843 63 844 63 845 63 845 63 844 63 834 63 834 63 844 63 832 63 846 63 847 63 848 63 848 63 847 63 849 63 848 63 849 63 850 63 850 63 849 63 851 63 850 63 851 63 852 63 850 63 852 63 853 63 853 63 852 63 854 63 853 63 854 63 855 63 853 63 855 63 856 63 856 63 855 63 842 63 857 63 858 63 859 63 837 63 860 63 842 63 842 63 860 63 861 63 842 63 861 63 856 63 856 63 861 63 862 63 856 63 862 63 857 63 857 63 862 63 858 63 862 63 863 63 858 63 858 63 863 63 864 63 864 63 863 63 865 63 864 63 865 63 838 63 838 63 865 63 839 63 839 63 865 63 866 63 839 63 866 63 836 63 836 63 866 63 867 63 836 63 867 63 837 63 859 63 868 63 857 63 857 63 868 63 869 63 857 63 869 63 846 63 846 63 869 63 870 63 846 63 870 63 847 63 871 63 834 63 872 63 871 63 872 63 873 63 874 63 875 63 876 63 876 63 877 63 874 63 874 63 877 63 872 63 872 63 877 63 873 63 871 63 878 63 834 63 834 63 878 63 845 63 845 63 878 63 879 63 845 63 879 63 876 63 876 63 879 63 880 63 876 63 880 63 877 63 881 63 882 63 834 63 883 63 884 63 872 63 872 63 884 63 885 63 834 63 886 63 881 63 881 63 886 63 887 63 842 63 888 63 841 63 841 63 888 63 889 63 841 63 889 63 833 63 833 63 889 63 890 63 833 63 890 63 834 63 882 63 891 63 834 63 834 63 891 63 872 63 872 63 891 63 883 63 884 63 892 63 885 63 885 63 892 63 893 63 893 63 892 63 881 63 893 63 881 63 887 63 894 64 895 64 896 64 897 64 898 64 899 64 900 64 897 64 901 64 896 64 895 64 902 64 902 64 895 64 903 64 902 64 903 64 904 64 902 64 904 64 905 64 905 64 904 64 906 64 905 64 906 64 907 64 905 64 907 64 908 64 909 64 910 64 911 64 911 64 910 64 912 64 912 64 910 64 913 64 912 64 913 64 914 64 914 64 913 64 915 64 894 64 916 64 917 64 917 64 916 64 918 64 917 64 918 64 919 64 900 64 901 64 920 64 899 64 898 64 921 64 921 64 898 64 914 64 921 64 914 64 915 64 921 64 915 64 922 64 922 64 915 64 923 64 922 64 923 64 924 64 924 64 923 64 925 64 924 64 925 64 926 64 894 64 896 64 927 64 894 64 927 64 916 64 916 64 927 64 928 64 928 64 927 64 901 64 928 64 901 64 897 64 928 64 897 64 899 64 908 64 907 64 929 64 908 64 929 64 901 64 901 64 929 64 930 64 901 64 930 64 920 64 931 64 932 64 926 64 919 64 924 64 917 64 917 64 924 64 926 64 917 64 926 64 933 64 933 64 926 64 932 64 909 64 934 64 935 64 935 64 934 64 931 64 935 64 931 64 926 64 936 64 937 64 938 64 938 64 937 64 939 64 937 64 936 64 940 64 937 64 940 64 941 64 941 64 940 64 942 64 942 64 943 64 909 64 909 64 943 64 934 64 943 64 944 64 934 64 934 64 944 64 945 64 945 64 944 64 938 64 945 64 938 64 939 64 909 64 946 64 947 64 941 64 947 64 948 64 941 64 942 64 909 64 941 64 909 64 947 64 941 64 948 64 949 64 941 64 949 64 950 64 950 64 949 64 951 64 952 64 950 64 953 64 953 64 950 64 951 64 953 64 951 64 911 64 911 64 951 64 954 64 911 64 954 64 909 64 909 64 954 64 946 64 955 189 956 189 838 189 838 189 956 189 914 189 838 190 914 190 864 190 864 190 914 190 898 190 864 191 898 191 858 191 858 191 898 191 897 191 858 192 897 192 859 192 859 192 897 192 900 192 859 193 900 193 957 193 957 193 900 193 958 193 957 194 958 194 920 194 957 194 920 194 868 194 868 195 920 195 930 195 868 195 930 195 869 195 869 196 930 196 959 196 869 196 959 196 960 196 870 65 960 65 929 65 929 65 960 65 959 65 870 197 929 197 961 197 870 197 961 197 847 197 847 198 961 198 962 198 847 198 962 198 963 198 963 199 962 199 906 199 963 199 906 199 964 199 964 200 906 200 904 200 964 200 904 200 851 200 851 201 904 201 903 201 851 201 903 201 852 201 852 202 903 202 895 202 852 202 895 202 854 202 854 203 895 203 894 203 854 203 894 203 855 203 931 204 889 204 932 204 932 205 889 205 888 205 932 205 888 205 933 205 933 206 888 206 842 206 933 206 842 206 917 206 917 207 842 207 855 207 917 207 855 207 894 207 965 208 966 208 934 208 934 208 966 208 834 208 934 209 834 209 931 209 931 209 834 209 890 209 931 204 890 204 889 204 967 11 968 11 969 11 969 11 968 11 970 11 950 0 874 0 937 0 937 0 874 0 885 0 874 210 950 210 971 210 874 210 971 210 972 210 972 211 971 211 973 211 972 211 973 211 974 211 974 212 973 212 953 212 974 212 953 212 876 212 975 65 876 65 976 65 976 65 876 65 953 65 975 213 976 213 845 213 845 213 976 213 911 213 845 214 911 214 843 214 911 214 912 214 843 214 843 215 912 215 956 215 843 215 956 215 955 215 977 63 978 63 979 63 980 63 981 63 982 63 983 63 984 63 985 63 980 63 982 63 986 63 986 63 982 63 987 63 983 63 985 63 988 63 988 63 985 63 989 63 988 63 989 63 990 63 990 63 989 63 979 63 979 63 989 63 977 63 991 63 992 63 993 63 993 63 992 63 994 63 993 63 994 63 995 63 995 63 994 63 996 63 995 63 996 63 997 63 995 63 997 63 998 63 998 63 997 63 999 63 998 63 999 63 1000 63 998 63 1000 63 1001 63 1001 63 1000 63 987 63 1002 63 1003 63 1004 63 982 63 1005 63 987 63 987 63 1005 63 1006 63 987 63 1006 63 1001 63 1001 63 1006 63 1007 63 1001 63 1007 63 1002 63 1002 63 1007 63 1003 63 1007 63 1008 63 1003 63 1003 63 1008 63 1009 63 1009 63 1008 63 1010 63 1009 63 1010 63 983 63 983 63 1010 63 984 63 984 63 1010 63 1011 63 984 63 1011 63 981 63 981 63 1011 63 1012 63 981 63 1012 63 982 63 1004 63 1013 63 1002 63 1002 63 1013 63 1014 63 1014 63 1013 63 1015 63 1014 63 1015 63 991 63 991 63 1015 63 1016 63 991 63 1016 63 992 63 1017 63 979 63 1018 63 1017 63 1018 63 1019 63 1020 63 1021 63 1022 63 1022 63 1023 63 1020 63 1020 63 1023 63 1018 63 1018 63 1023 63 1019 63 1017 63 1024 63 979 63 979 63 1024 63 990 63 990 63 1024 63 1025 63 990 63 1025 63 1022 63 1022 63 1025 63 1026 63 1022 63 1026 63 1023 63 1027 63 1028 63 979 63 1029 63 1030 63 1018 63 1018 63 1030 63 1031 63 979 63 1032 63 1027 63 1027 63 1032 63 1033 63 987 63 1034 63 986 63 986 63 1034 63 1035 63 986 63 1035 63 978 63 978 63 1035 63 1036 63 978 63 1036 63 979 63 1028 63 1037 63 979 63 979 63 1037 63 1018 63 1018 63 1037 63 1029 63 1030 63 1038 63 1031 63 1031 63 1038 63 1039 63 1039 63 1038 63 1027 63 1039 63 1027 63 1033 63 1040 64 1041 64 1042 64 1043 64 1044 64 1045 64 1046 64 1043 64 1047 64 1042 64 1041 64 1048 64 1048 64 1041 64 1049 64 1048 64 1049 64 1050 64 1048 64 1050 64 1051 64 1051 64 1050 64 1052 64 1051 64 1052 64 1053 64 1051 64 1053 64 1054 64 1055 64 1056 64 1057 64 1057 64 1056 64 1058 64 1058 64 1056 64 1059 64 1058 64 1059 64 1060 64 1060 64 1059 64 1061 64 1040 64 1062 64 1063 64 1063 64 1062 64 1064 64 1063 64 1064 64 1065 64 1046 64 1047 64 1066 64 1045 64 1044 64 1067 64 1067 64 1044 64 1060 64 1067 64 1060 64 1061 64 1067 64 1061 64 1068 64 1068 64 1061 64 1069 64 1068 64 1069 64 1070 64 1070 64 1069 64 1071 64 1070 64 1071 64 1072 64 1040 64 1042 64 1073 64 1040 64 1073 64 1062 64 1062 64 1073 64 1074 64 1074 64 1073 64 1047 64 1074 64 1047 64 1043 64 1074 64 1043 64 1045 64 1054 64 1053 64 1075 64 1054 64 1075 64 1047 64 1047 64 1075 64 1076 64 1047 64 1076 64 1066 64 1077 64 1078 64 1072 64 1065 64 1070 64 1063 64 1063 64 1070 64 1072 64 1063 64 1072 64 1079 64 1079 64 1072 64 1078 64 1055 64 1080 64 1081 64 1081 64 1080 64 1077 64 1081 64 1077 64 1072 64 1082 64 1083 64 1084 64 1084 64 1083 64 1085 64 1083 64 1082 64 1086 64 1083 64 1086 64 1087 64 1087 64 1086 64 1088 64 1088 64 1089 64 1055 64 1055 64 1089 64 1080 64 1089 64 1090 64 1080 64 1080 64 1090 64 1091 64 1091 64 1090 64 1084 64 1091 64 1084 64 1085 64 1055 64 1092 64 1093 64 1087 64 1093 64 1094 64 1087 64 1088 64 1055 64 1087 64 1055 64 1093 64 1087 64 1094 64 1095 64 1087 64 1095 64 1096 64 1096 64 1095 64 1097 64 1098 64 1096 64 1099 64 1099 64 1096 64 1097 64 1099 64 1097 64 1057 64 1057 64 1097 64 1100 64 1057 64 1100 64 1055 64 1055 64 1100 64 1092 64 1101 190 1060 190 1044 190 1102 191 1044 191 1043 191 1103 192 1043 192 1046 192 1104 193 1046 193 1105 193 1105 193 1046 193 1106 193 1105 194 1106 194 1066 194 1105 194 1066 194 1107 194 1066 195 1076 195 1108 195 1076 196 1109 196 1110 196 1111 65 1110 65 1075 65 1075 65 1110 65 1109 65 1075 197 1112 197 1113 197 1113 198 1112 198 1114 198 1114 199 1052 199 1115 199 1052 200 1050 200 1116 200 996 201 1050 201 1049 201 996 201 1049 201 997 201 1117 202 1049 202 1041 202 1041 203 1040 203 1118 203 1077 204 1035 204 1078 204 1078 205 1035 205 1034 205 1078 205 1034 205 1079 205 1079 206 1034 206 987 206 1079 206 987 206 1063 206 1063 207 987 207 1000 207 1063 207 1000 207 1040 207 1119 208 1120 208 1080 208 1080 208 1120 208 979 208 1080 209 979 209 1077 209 1077 209 979 209 1036 209 1077 204 1036 204 1035 204 1121 11 1122 11 1123 11 1123 11 1122 11 1124 11 1096 0 1020 0 1083 0 1083 0 1020 0 1031 0 1020 210 1096 210 1125 210 1020 210 1125 210 1126 210 1126 211 1125 211 1127 211 1126 211 1127 211 1128 211 1128 212 1127 212 1099 212 1128 212 1099 212 1022 212 1129 65 1022 65 1130 65 1130 65 1022 65 1099 65 1129 213 1130 213 990 213 990 213 1130 213 1057 213 990 214 1057 214 988 214 1057 214 1058 214 988 214 988 215 1058 215 1131 215 988 215 1131 215 1132 215 1133 216 1042 216 1134 216 1134 217 1135 217 1136 217 1137 218 1048 218 1138 218 1139 219 1140 219 1141 219 1139 220 1051 220 1142 220 1142 221 1143 221 1144 221 1145 222 1054 222 1146 222 1146 223 1147 223 1148 223 1149 224 1150 224 1151 224 1151 225 1152 225 1153 225 1154 218 1064 218 1062 218 1155 226 1062 226 1074 226 1156 227 1157 227 1158 227 1159 228 1160 228 1161 228 1162 229 1161 229 1163 229 1162 230 1164 230 1165 230 1166 224 1067 224 1068 224 1166 231 1167 231 1168 231 1168 232 1070 232 1169 232 1170 218 1071 218 1069 218 1171 226 1172 226 1173 226 1173 233 1174 233 1175 233 1175 234 1059 234 1176 234 1176 235 1177 235 1178 235 1178 229 1056 229 1179 229 1179 230 1180 230 1181 230 1181 224 1055 224 1182 224 1182 231 1183 231 1184 231 1185 236 1081 236 1186 236 1187 237 1188 237 1189 237 1189 237 1188 237 1190 237 1189 238 1190 238 1191 238 1191 238 1190 238 1192 238 1191 239 1192 239 1193 239 1193 239 1192 239 1194 239 1193 240 1194 240 1195 240 1195 240 1194 240 1196 240 1195 241 1196 241 1197 241 1197 241 1196 241 1198 241 1199 18 1197 18 1200 18 1200 18 1197 18 1198 18 1201 11 1199 11 1202 11 1202 11 1199 11 1200 11 1201 242 1202 242 1203 242 1203 242 1202 242 1204 242 1203 243 1204 243 1205 243 1205 243 1204 243 1206 243 1205 244 1206 244 1207 244 1207 244 1206 244 1208 244 1207 245 1208 245 1209 245 1207 245 1209 245 1210 245 1210 246 1209 246 1211 246 1210 246 1211 246 1212 246 1212 247 1211 247 1213 247 1212 247 1213 247 1214 247 1214 248 1213 248 1215 248 1214 248 1215 248 1216 248 1216 249 1215 249 1217 249 1216 249 1217 249 1218 249 1218 250 1217 250 1219 250 1219 250 1217 250 1220 250 1219 251 1220 251 1221 251 1221 251 1220 251 1222 251 1223 252 1224 252 1225 252 1225 252 1224 252 1226 252 1225 253 1226 253 1227 253 1227 253 1226 253 1228 253 1227 254 1228 254 1229 254 1229 254 1228 254 1230 254 1229 255 1230 255 1231 255 1231 255 1230 255 1232 255 1231 256 1232 256 1233 256 1231 256 1233 256 1234 256 1234 257 1233 257 1235 257 1234 257 1235 257 1236 257 1236 258 1235 258 1237 258 1236 258 1237 258 1238 258 1238 259 1237 259 1239 259 1238 259 1239 259 1240 259 1240 260 1239 260 1241 260 1240 260 1241 260 1242 260 1242 261 1241 261 1243 261 1242 261 1243 261 1244 261 1244 262 1243 262 1245 262 1244 262 1245 262 1246 262 1246 263 1245 263 1247 263 1247 263 1245 263 1248 263 1247 264 1248 264 1249 264 1249 264 1248 264 1250 264 1249 265 1250 265 1251 265 1251 265 1250 265 1252 265 1251 266 1252 266 1253 266 1253 266 1252 266 1254 266 1253 267 1254 267 1255 267 1255 267 1254 267 1256 267 1255 268 1256 268 1257 268 1257 268 1256 268 1258 268 1257 269 1258 269 1259 269 1257 269 1259 269 1260 269 1260 270 1259 270 1261 270 1260 270 1261 270 1262 270 1262 271 1261 271 1263 271 1262 271 1263 271 1264 271 1264 272 1263 272 1265 272 1264 272 1265 272 1266 272 1266 273 1265 273 1267 273 1266 273 1267 273 1268 273 1268 274 1267 274 1269 274 1268 274 1269 274 1270 274 1270 275 1269 275 1271 275 1271 275 1269 275 1272 275 1271 276 1272 276 1273 276 1273 276 1272 276 1274 276 1273 277 1274 277 1275 277 1275 277 1274 277 1276 277 1275 278 1276 278 1277 278 1277 278 1276 278 1278 278 1277 279 1278 279 1279 279 1279 279 1278 279 1280 279 1279 280 1280 280 1281 280 1281 280 1280 280 1282 280 1281 281 1282 281 1283 281 1283 281 1282 281 1284 281 1283 282 1284 282 1285 282 1283 282 1285 282 1286 282 1286 283 1285 283 1287 283 1286 283 1287 283 1288 283 1288 284 1287 284 1289 284 1288 284 1289 284 1290 284 1290 285 1289 285 1291 285 1290 285 1291 285 1292 285 1292 286 1291 286 1293 286 1292 286 1293 286 1294 286 1294 287 1293 287 1295 287 1294 287 1295 287 1296 287 1296 288 1295 288 1297 288 1297 288 1295 288 1298 288 1297 289 1298 289 1299 289 1299 289 1298 289 1300 289 1299 290 1300 290 1301 290 1301 290 1300 290 1302 290 1301 291 1302 291 1303 291 1303 291 1302 291 1304 291 1303 292 1304 292 1305 292 1305 292 1304 292 1306 292 1305 293 1306 293 1307 293 1307 293 1306 293 1308 293 1307 294 1308 294 1309 294 1309 294 1308 294 1310 294 1309 295 1310 295 1311 295 1309 295 1311 295 1312 295 1312 296 1311 296 1313 296 1312 296 1313 296 1314 296 1314 297 1313 297 1315 297 1314 297 1315 297 1316 297 1316 298 1315 298 1317 298 1316 298 1317 298 1318 298 1318 299 1317 299 1319 299 1318 299 1319 299 1320 299 1320 300 1319 300 1321 300 1320 300 1321 300 1322 300 1322 301 1321 301 1323 301 1323 301 1321 301 1324 301 1323 302 1324 302 1325 302 1325 302 1324 302 1326 302 1325 303 1326 303 1327 303 1327 303 1326 303 1328 303 1327 304 1328 304 1329 304 1329 304 1328 304 1330 304 1329 305 1330 305 1331 305 1331 305 1330 305 1332 305 1331 306 1332 306 1333 306 1333 306 1332 306 1334 306 1333 307 1334 307 1335 307 1335 307 1334 307 1336 307 1335 308 1336 308 1337 308 1335 308 1337 308 1338 308 1338 309 1337 309 1339 309 1338 309 1339 309 1340 309 1340 310 1339 310 1341 310 1340 310 1341 310 1342 310 1342 311 1341 311 1343 311 1342 311 1343 311 1344 311 1344 312 1343 312 1345 312 1344 312 1345 312 1346 312 1346 313 1345 313 1347 313 1346 313 1347 313 1348 313 1348 314 1347 314 1349 314 1349 314 1347 314 1350 314 1349 315 1350 315 1351 315 1351 315 1350 315 1352 315 1351 316 1352 316 1353 316 1353 316 1352 316 1354 316 1353 317 1354 317 1355 317 1355 317 1354 317 1356 317 1355 318 1356 318 1357 318 1357 318 1356 318 1358 318 1357 319 1358 319 1359 319 1359 319 1358 319 1360 319 1359 320 1360 320 1361 320 1361 320 1360 320 1362 320 1361 321 1362 321 1363 321 1361 321 1363 321 1364 321 1364 322 1363 322 1365 322 1364 322 1365 322 1366 322 1366 323 1365 323 1367 323 1366 323 1367 323 1368 323 1368 324 1367 324 1369 324 1368 324 1369 324 1370 324 1370 325 1369 325 1371 325 1370 325 1371 325 1372 325 1372 326 1371 326 1373 326 1372 326 1373 326 1374 326 1374 327 1373 327 1375 327 1375 327 1373 327 1376 327 1375 328 1376 328 1377 328 1377 328 1376 328 1378 328 1377 329 1378 329 1379 329 1379 329 1378 329 1380 329 1379 330 1380 330 1381 330 1381 330 1380 330 1382 330 1381 331 1382 331 1383 331 1383 331 1382 331 1384 331 1383 332 1384 332 1385 332 1385 332 1384 332 1386 332 1385 333 1386 333 1387 333 1385 333 1387 333 1388 333 1388 334 1387 334 1389 334 1388 334 1389 334 1390 334 1390 335 1389 335 1391 335 1390 335 1391 335 1392 335 1392 336 1391 336 1393 336 1392 336 1393 336 1394 336 1394 337 1393 337 1395 337 1394 337 1395 337 1396 337 1396 338 1395 338 1397 338 1396 338 1397 338 1398 338 1398 339 1397 339 1399 339 1398 339 1399 339 1400 339 1400 340 1399 340 1401 340 1401 340 1399 340 1402 340 1401 341 1402 341 1403 341 1403 341 1402 341 1404 341 1403 342 1404 342 1405 342 1405 342 1404 342 1406 342 1405 343 1406 343 1407 343 1407 343 1406 343 1408 343 1407 344 1408 344 1409 344 1409 344 1408 344 1410 344 1409 345 1410 345 1411 345 1411 345 1410 345 1412 345 1411 346 1412 346 1413 346 1411 346 1413 346 1414 346 1414 347 1413 347 1415 347 1414 347 1415 347 1416 347 1416 348 1415 348 1417 348 1416 348 1417 348 1418 348 1418 349 1417 349 1419 349 1418 349 1419 349 1420 349 1420 350 1419 350 1421 350 1420 350 1421 350 1422 350 1422 351 1421 351 1188 351 1422 351 1188 351 1187 351 1423 63 1197 63 1199 63 1229 63 1219 63 1227 63 1227 63 1219 63 1221 63 1227 63 1221 63 1223 63 1216 63 1253 63 1255 63 1253 63 1216 63 1219 63 1253 63 1219 63 1247 63 1247 63 1219 63 1229 63 1247 63 1229 63 1234 63 1238 63 1424 63 1247 63 1238 63 1247 63 1234 63 1425 63 1407 63 1199 63 1199 63 1407 63 1409 63 1425 63 1401 63 1407 63 1268 63 1271 63 1255 63 1255 63 1271 63 1216 63 1210 63 1426 63 1425 63 1425 63 1426 63 1383 63 1425 63 1383 63 1401 63 1401 63 1383 63 1427 63 1427 63 1383 63 1428 63 1271 63 1277 63 1216 63 1216 63 1277 63 1214 63 1214 63 1277 63 1429 63 1430 63 1431 63 1189 63 1432 63 1210 63 1212 63 1423 63 1199 63 1189 63 1189 63 1199 63 1409 63 1189 63 1409 63 1430 63 1260 63 1433 63 1268 63 1260 63 1268 63 1255 63 1434 63 1214 63 1435 63 1435 63 1214 63 1429 63 1323 63 1436 63 1212 63 1212 63 1436 63 1432 63 1214 63 1434 63 1305 63 1214 63 1305 63 1212 63 1212 63 1305 63 1307 63 1212 63 1307 63 1323 63 1323 63 1307 63 1437 63 1349 63 1438 63 1210 63 1439 63 1435 63 1429 63 1439 63 1429 63 1440 63 1437 63 1441 63 1323 63 1438 63 1357 63 1210 63 1210 63 1357 63 1375 63 1210 63 1375 63 1426 63 1210 63 1432 63 1349 63 1349 63 1432 63 1338 63 1349 63 1338 63 1442 63 1349 63 1442 63 1443 63 1375 63 1357 63 1359 63 1375 63 1359 63 1444 63 1444 63 1359 63 1445 63 1215 64 1256 64 1254 64 1217 64 1230 64 1222 64 1222 64 1230 64 1224 64 1215 64 1254 64 1217 64 1204 64 1200 64 1446 64 1200 64 1198 64 1447 64 1446 64 1448 64 1204 64 1204 64 1448 64 1206 64 1217 64 1254 64 1248 64 1217 64 1248 64 1230 64 1230 64 1248 64 1449 64 1449 64 1248 64 1450 64 1448 64 1451 64 1206 64 1206 64 1451 64 1384 64 1384 64 1451 64 1397 64 1393 64 1452 64 1384 64 1393 64 1384 64 1397 64 1190 64 1453 64 1454 64 1455 64 1215 64 1282 64 1282 64 1215 64 1213 64 1190 64 1454 64 1446 64 1190 64 1446 64 1200 64 1190 64 1200 64 1447 64 1213 64 1456 64 1282 64 1282 64 1456 64 1457 64 1215 64 1455 64 1272 64 1215 64 1272 64 1256 64 1256 64 1272 64 1458 64 1458 64 1272 64 1459 64 1384 64 1460 64 1206 64 1206 64 1460 64 1209 64 1209 64 1460 64 1376 64 1209 64 1376 64 1461 64 1308 64 1306 64 1211 64 1211 64 1306 64 1213 64 1213 64 1306 64 1456 64 1209 64 1462 64 1211 64 1457 64 1463 64 1282 64 1209 64 1461 64 1350 64 1209 64 1350 64 1462 64 1462 64 1350 64 1337 64 1462 64 1326 64 1211 64 1211 64 1326 64 1308 64 1308 64 1326 64 1324 64 1308 64 1324 64 1311 64 1311 64 1324 64 1464 64 1337 64 1350 64 1465 64 1371 64 1466 64 1363 64 1371 64 1363 64 1360 64 1371 64 1360 64 1376 64 1376 64 1360 64 1461 64 1221 352 1222 352 1223 352 1223 352 1222 352 1224 352 1467 63 1468 63 1469 63 1470 63 1179 63 1471 63 1471 63 1179 63 1472 63 1471 63 1472 63 1473 63 1470 63 1471 63 1474 63 1470 63 1474 63 1173 63 1173 63 1474 63 1475 63 1173 63 1475 63 1170 63 1476 63 1477 63 1185 63 1185 63 1477 63 1478 63 1472 63 1179 63 1479 63 1472 63 1479 63 1480 63 1480 63 1479 63 1481 63 1481 63 1479 63 1185 63 1481 63 1185 63 1482 63 1482 63 1185 63 1478 63 1483 63 1467 63 1469 63 1185 63 1484 63 1476 63 1476 63 1484 63 1475 63 1475 63 1484 63 1170 63 1475 63 1485 63 1476 63 1476 63 1485 63 1486 63 1486 63 1485 63 1487 63 1486 63 1487 63 1488 63 1488 63 1487 63 1489 63 1473 63 1472 63 1490 63 1490 63 1472 63 1491 63 1491 63 1472 63 1492 63 1493 63 1494 63 1469 63 1469 63 1494 63 1495 63 1495 63 1166 63 1469 63 1469 63 1166 63 1488 63 1469 63 1488 63 1483 63 1483 63 1488 63 1489 63 1496 63 1493 63 1469 63 1488 63 1166 63 1497 63 1488 63 1497 63 1498 63 1498 63 1497 63 1499 63 1498 63 1499 63 1500 63 1500 63 1499 63 1501 63 1500 63 1501 63 1502 63 1502 63 1501 63 1493 63 1493 63 1501 63 1494 63 1503 63 1118 63 1504 63 1503 63 1504 63 1505 63 1505 63 1504 63 1498 63 1505 63 1498 63 1500 63 1503 63 1506 63 1118 63 1118 63 1506 63 1507 63 1507 63 1506 63 1496 63 1507 63 1496 63 1508 63 1469 63 1151 63 1153 63 1508 63 1496 63 1469 63 1508 63 1469 63 1153 63 1149 63 1103 63 1104 63 1149 63 1151 63 1103 63 1103 63 1151 63 1469 63 1103 63 1469 63 1102 63 1102 63 1469 63 1468 63 1102 63 1468 63 1101 63 1101 63 1468 63 1473 63 1101 63 1473 63 1490 63 1146 63 1113 63 1509 63 1509 63 1113 63 1510 63 1509 63 1510 63 1138 63 1138 63 1510 63 1116 63 1138 63 1116 63 1511 63 1511 63 1116 63 1508 63 1511 63 1508 63 1153 63 1104 63 1107 63 1149 63 1149 63 1107 63 1148 63 1148 63 1107 63 1108 63 1148 63 1108 63 1146 63 1146 63 1108 63 1111 63 1146 63 1111 63 1113 63 1512 64 1513 64 1514 64 1009 64 983 64 1515 64 1516 64 1517 64 1518 64 1519 64 1520 64 1517 64 1519 64 1517 64 1516 64 1521 64 1522 64 1517 64 1517 64 1522 64 1515 64 983 64 1518 64 1515 64 1515 64 1518 64 1517 64 1523 64 1524 64 1525 64 1523 64 1525 64 1526 64 980 64 1527 64 984 64 1528 64 1529 64 1530 64 1521 64 1517 64 1525 64 1525 64 1517 64 1531 64 1525 64 1531 64 1532 64 1525 64 1532 64 1526 64 1522 64 985 64 1515 64 1515 64 985 64 1533 64 1533 64 985 64 984 64 1533 64 984 64 1527 64 1534 64 1527 64 1523 64 1523 64 1527 64 980 64 1523 64 980 64 1524 64 1530 64 1529 64 1535 64 1530 64 1535 64 1536 64 1536 64 1535 64 1537 64 1536 64 1537 64 1538 64 1538 64 1537 64 1539 64 1538 64 1539 64 1523 64 1523 64 1539 64 1534 64 1514 64 1513 64 1530 64 1530 64 1513 64 1001 64 1530 64 1001 64 1002 64 1540 64 993 64 1541 64 1515 64 1528 64 1009 64 1009 64 1528 64 1530 64 1009 64 1530 64 1003 64 1003 64 1530 64 1002 64 1003 64 1002 64 1004 64 1004 64 1002 64 1013 64 1541 64 993 64 1542 64 1542 64 993 64 1543 64 1542 64 1543 64 1514 64 1514 64 1543 64 1512 64 1540 64 1541 64 1016 64 1540 64 1016 64 1002 64 1002 64 1016 64 1015 64 1002 64 1015 64 1013 64 982 64 1536 64 1544 64 982 64 1544 64 1545 64 1514 64 1546 64 999 64 982 64 1012 64 1536 64 1536 64 1012 64 1530 64 1530 64 1012 64 1547 64 1530 64 1547 64 1008 64 1530 64 1008 64 1548 64 1000 64 1549 64 1550 64 1000 64 1550 64 1551 64 1551 64 1550 64 1552 64 1552 64 1550 64 1544 64 1552 64 1544 64 1536 64 1549 64 1000 64 1546 64 1546 64 1000 64 999 64 1548 64 1008 64 1553 64 1548 64 1553 64 1554 64 1554 64 1553 64 1555 64 1555 64 1553 64 1545 64 1555 64 1545 64 1544 64 1530 64 1548 64 1546 64 1530 64 1546 64 1514 64 1556 189 1131 189 1101 189 1101 189 1131 189 1060 189 1102 190 1101 190 1044 190 1103 191 1102 191 1043 191 1104 192 1103 192 1046 192 1107 195 1066 195 1108 195 1108 196 1076 196 1110 196 1111 197 1075 197 1113 197 1113 198 1114 198 1557 198 1557 199 1114 199 1115 199 1115 200 1052 200 1116 200 1116 353 996 353 1508 353 1508 353 996 353 1514 353 1117 202 1041 202 1507 202 1507 203 1041 203 1118 203 1118 354 1000 354 1551 354 1118 354 1551 354 1504 354 1504 355 1551 355 1552 355 1504 355 1552 355 1498 355 1498 356 1552 356 1558 356 1498 356 1558 356 1488 356 1488 357 1558 357 1559 357 1559 357 1558 357 1560 357 1559 358 1560 358 1486 358 1560 358 1538 358 1486 358 1486 359 1538 359 1523 359 1486 359 1523 359 1476 359 1491 360 1516 360 1518 360 1491 360 1518 360 1490 360 1490 361 1518 361 1132 361 1490 361 1132 361 1556 361 1561 0 1562 0 1563 0 1563 0 1562 0 1564 0 1503 362 1505 362 1550 362 1550 362 1505 362 1544 362 1565 18 1502 18 1555 18 1555 18 1502 18 1554 18 1566 11 1567 11 1568 11 1568 11 1567 11 1569 11 1467 363 1529 363 1570 363 1570 363 1529 363 1571 363 1570 364 1571 364 1572 364 1572 364 1571 364 1573 364 1572 365 1573 365 1468 365 1468 365 1573 365 1528 365 1467 0 1483 0 1529 0 1529 0 1483 0 1535 0 1489 366 1537 366 1574 366 1574 366 1537 366 1575 366 1574 367 1575 367 1576 367 1576 367 1575 367 1577 367 1576 368 1577 368 1483 368 1483 368 1577 368 1535 368 1489 369 1487 369 1537 369 1537 369 1487 369 1539 369 1578 370 1579 370 1580 370 1580 370 1579 370 1581 370 1580 371 1581 371 1485 371 1485 371 1581 371 1582 371 1485 372 1582 372 1583 372 1583 372 1582 372 1584 372 1583 373 1584 373 1487 373 1487 373 1584 373 1539 373 1578 18 1474 18 1579 18 1579 18 1474 18 1533 18 1473 374 1585 374 1586 374 1586 374 1585 374 1587 374 1586 375 1587 375 1588 375 1588 375 1587 375 1589 375 1588 376 1589 376 1474 376 1474 376 1589 376 1533 376 1473 11 1468 11 1585 11 1585 11 1468 11 1528 11 1137 217 1134 217 1136 217 1138 219 1140 219 1139 219 1145 221 1142 221 1144 221 1148 377 1590 377 1149 377 1149 377 1590 377 1047 377 1153 378 1591 378 1133 378 1133 378 1591 378 1592 378 1169 379 1593 379 1594 379 1594 379 1593 379 1065 379 1594 380 1065 380 1154 380 1154 380 1065 380 1064 380 1155 218 1154 218 1062 218 1156 226 1155 226 1074 226 1158 381 1595 381 1159 381 1159 381 1595 381 1160 381 1596 228 1159 228 1161 228 1596 229 1161 229 1162 229 1165 224 1067 224 1166 224 1186 382 1597 382 1598 382 1598 382 1597 382 1072 382 1598 383 1072 383 1170 383 1170 383 1072 383 1071 383 1171 218 1170 218 1069 218 1185 231 1182 231 1184 231 1517 0 1472 0 1531 0 1531 0 1472 0 1480 0 1472 384 1517 384 1599 384 1472 384 1599 384 1600 384 1600 385 1599 385 1601 385 1600 385 1601 385 1602 385 1602 386 1601 386 1603 386 1602 386 1603 386 1604 386 1604 387 1603 387 1519 387 1604 387 1519 387 1605 387 1605 388 1519 388 1516 388 1605 388 1516 388 1491 388 1476 389 1523 389 1606 389 1476 389 1606 389 1477 389 1477 390 1606 390 1607 390 1477 390 1607 390 1478 390 1478 391 1607 391 1526 391 1478 391 1526 391 1482 391 1482 392 1526 392 1532 392 1482 392 1532 392 1481 392 1481 393 1532 393 1531 393 1481 393 1531 393 1480 393</p>
        </triangles>
      </mesh>
    </geometry>
  </library_geometries>
  <library_visual_scenes>
    <visual_scene id="DefaultScene">
      <node id="node_cd2bb36f_ffd6_4dc7_994f_d2b472bd3a67" type="NODE">
        <matrix>1 0 0 0 0 1 0 0 0 0 1 0 0 0 0 1</matrix>
        <node id="node_6b7eebaf_2983_4423_a569_66be6da8772e" type="NODE">
          <matrix>1 0 0 0 0 1 0 0 0 0 1 0 0 0 0 1</matrix>
          <node id="node_6b7eebaf_2983_4423_a569_66be6da8772e_mesh0" type="NODE">
            <matrix>1 0 0 0 0 1 0 0 0 0 1 0 0 0 0 1</matrix>
            <instance_geometry url="#geometry_081ab2e9_513f_4b87_a3c6_8c5ed1634193">
              <bind_material>
                <technique_common>
                  <instance_material symbol="mat_0" target="#mat_0"/>
                </technique_common>
              </bind_material>
            </instance_geometry>
          </node>
        </node>
      </node>
    </visual_scene>
  </library_visual_scenes>
  <scene>
    <instance_visual_scene url="#DefaultScene"/>
  </scene>
</COLLADA>
