<?xml version="1.0" encoding="UTF-8"?>
<COLLADA xmlns="http://www.collada.org/2005/11/COLLADASchema" version="1.4.1">
<!--
# File generated by ImageToStl.com - Free Image and 3D model conversion tools
-->
  <asset>
    <contributor>
      <author>ImageToStl.com</author>
      <authoring_tool>ImageToStl.com</authoring_tool>
    </contributor>
    <created>2026-04-08T11:07:01</created>
    <modified>2026-04-08T11:07:01</modified>
    <up_axis>Z_UP</up_axis>
  </asset>
  <library_effects>
    <effect id="effect_0">
        <profile_COMMON>
          <technique sid="common">
            <phong>
              <diffuse>
                <color>0.85 0.85 0.85 1</color>
              </diffuse>
              <specular>
                <color>0.05 0.05 0.05 1</color>
              </specular>
              <shininess>
                <float>64</float>
              </shininess>
            </phong>
          </technique>
        </profile_COMMON>
    </effect>
  </library_effects>
  <library_materials>
    <material id="mat_0">
      <instance_effect url="#effect_0"/>
    </material>
  </library_materials>
  <library_geometries>
    <geometry id="geometry_6b006304_10dd_4f8b_8834_b1027e5b8383">
      <mesh>
        <source id="pos_0">
          <float_array id="pos_0-array" count="4815">0.02265 0.043 -0.003 0.02145 0.04449282 -0.003 0.02145 0.05150718 -0.003 0.02025 0.05161436 -0.003 0.02105 0.0414 -0.003 0.026 -0.01111504 -0.003 0.02025 0.04161436 -0.003 0.01966436 0.0422 -0.003 0.01947467 -0.01087936 -0.003 0.02017099 -0.01008804 -0.003 0.01955718 0.07340001 -0.003 0.0161 0.078 -0.003 0.02065 0.07449283 -0.003 0.02015501 -0.00401289 -0.003 0.018 -0.00241928 -0.003 0.02014068 -0.000911 -0.003 0.02025 0.06438564 -0.003 0.01955718 0.0626 -0.003 0.02025 0.07161436 -0.003 0.01966436 0.0538 -0.003 0.0161 0.03869154 -0.003 0.02025 0.04438564 -0.003 0.018 -0.00870246 -0.003 0.02015501 -0.00715448 -0.003 0.02254282 0.0726 -0.003 0.026 0.078 -0.003 0.02214282 0.07409282 -0.003 0.018 0.00742693 -0.003 0.02025 0.01014709 -0.003 0.018 0.00658407 -0.003 0.02265 0.053 -0.003 0.02185 0.05438564 -0.003 0.02243564 0.0622 -0.003 0.02065 0.06150718 -0.003 0.02065 0.05449282 -0.003 0.02185 0.04161436 -0.003 0.02243564 0.0422 -0.003 0.02265 0.063 -0.003 0.018 0.02941808 -0.003 0.02022547 0.03346984 -0.003 0.018 0.02857522 -0.003 0.0201513 0.01773975 -0.003 0.018 0.01915044 -0.003 0.018 0.0199933 -0.003 0.02005261 0.03725291 -0.003 0.02185 0.06438564 -0.003 0.018 0.00030089 -0.003 0.018 0.00114374 -0.003 0.02243564 0.0522 -0.003 0.018 0.00344248 -0.003 0.018 0.00428534 -0.003 0.02010424 0.00266355 -0.003 0.02105 0.0646 -0.003 0.02145 0.07150719 -0.003 0.018 0.02543363 -0.003 0.018 0.02627649 -0.003 0.0201513 0.02402293 -0.003 0.018 0.03485841 -0.003 0.018 0.03570126 -0.003 0.018 0.02229204 -0.003 0.018 0.02313489 -0.003 0.018 0.03171682 -0.003 0.018 0.03255967 -0.003 0.018 0.00972567 -0.003 0.018 0.01056852 -0.003 0.02010424 0.01208832 -0.003 0.018 0.01328869 -0.003 0.02010424 0.01448905 -0.003 0.018 -0.00556087 -0.003 0.018 0.01685171 -0.003 0.018 0.01600885 -0.003 0.018 0.03570126 -0 0.02005261 0.03644835 -0 0.02005261 0.03644835 -0.003 0.018 -0.00199785 -0 0.02005261 -0.00125076 -0 0.018 -0.00199785 -0.003 0.02005261 -0.00125076 -0.003 0.02005261 -0.0004462 -0 0.018 0.00030089 -0 0.02005261 -0.0004462 -0.003 0.018 0.00114374 -0 0.02005261 0.00189083 -0 0.02005261 0.00189083 -0.003 0.02005261 0.00269539 -0 0.018 0.00344248 -0 0.02005261 0.00269539 -0.003 0.018 0.00428534 -0 0.02005261 0.00503242 -0 0.02005261 0.00503242 -0.003 0.02005261 0.00583699 -0 0.018 0.00658407 -0 0.02005261 0.00583699 -0.003 0.018 0.00742693 -0 0.02005261 0.00817402 -0 0.02005261 0.00817402 -0.003 0.02005261 0.00897858 -0 0.018 0.00972567 -0 0.02005261 0.00897858 -0.003 0.018 0.01056852 -0 0.02005261 0.01131561 -0 0.02005261 0.01131561 -0.003 0.02005261 0.01212017 -0 0.018 0.01286726 -0 0.02005261 0.01212017 -0.003 0.018 0.01286726 -0.003 0.018 0.01371012 -0 0.02005261 0.0144572 -0 0.018 0.01371012 -0.003 0.02005261 0.0144572 -0.003 0.02005261 0.01526176 -0 0.018 0.01600885 -0 0.02005261 0.01526176 -0.003 0.018 0.01685171 -0 0.02005261 0.01759879 -0 0.02005261 0.01759879 -0.003 0.02005261 0.01840336 -0 0.018 0.01915044 -0 0.02005261 0.01840336 -0.003 0.018 0.0199933 -0 0.02005261 0.02074039 -0 0.02005261 0.02074039 -0.003 0.02005261 0.02154495 -0 0.018 0.02229204 -0 0.02005261 0.02154495 -0.003 0.018 0.02313489 -0 0.02005261 0.02388198 -0 0.02005261 0.02388198 -0.003 0.02005261 0.02468654 -0 0.018 0.02543363 -0 0.02005261 0.02468654 -0.003 0.018 0.02627649 -0 0.02005261 0.02702357 -0 0.02005261 0.02702357 -0.003 0.02005261 0.02782813 -0 0.018 0.02857522 -0 0.02005261 0.02782813 -0.003 0.018 0.02941808 -0 0.02005261 0.03016517 -0 0.02005261 0.03016517 -0.003 0.02005261 0.03096973 -0 0.018 0.03171682 -0 0.02005261 0.03096973 -0.003 0.018 0.03255967 -0 0.02005261 0.03330676 -0 0.02005261 0.03330676 -0.003 0.02005261 0.03411132 -0 0.018 0.03485841 -0 0.02005261 0.03411132 -0.003 0.018 -0.00513944 -0 0.02005261 -0.00439236 -0 0.018 -0.00513944 -0.003 0.02005261 -0.00439236 -0.003 0.02005261 -0.00672939 -0 0.018 -0.0059823 -0 0.02005261 -0.00672939 -0.003 0.018 -0.0059823 -0.003 0.018 -0.00828103 -0 0.02005261 -0.00753394 -0 0.018 -0.00828103 -0.003 0.02005261 -0.00753394 -0.003 0.02005261 -0.00987098 -0 0.018 -0.00912389 -0 0.02005261 -0.00987098 -0.003 0.018 -0.00912389 -0.003 0.02005261 -0.01067554 -0 0.02005261 -0.01067554 -0.003 0.01884509 -0.01111504 -0 0.01884509 -0.01111504 -0.003 0.0161 0.078 -0 0.026 0.078 -0 0.02185 0.05438564 -0 0.02265 0.053 -0 0.02214282 0.06190718 -0 0.02254282 0.0434 -0 0.026 -0.01111504 -0 0.02022547 -0.01027326 -0 0.01955718 0.07340001 -0 0.02025 0.07438564 -0 0.02145 0.07449283 -0 0.02254282 0.07340001 -0 0.02065 0.05150718 -0 0.02025 0.04438564 -0 0.02145 0.04449282 -0 0.02185 0.05161436 -0 0.02010424 0.00266355 -0 0.02025 0.0070055 -0 0.02010424 0.00506427 -0 0.01966436 0.0422 -0 0.0161 0.03869154 -0 0.01966436 0.0522 -0 0.02243564 0.0422 -0 0.02185 0.04161436 -0 0.01966436 0.0638 -0 0.02065 0.06449282 -0 0.02025 0.07161436 -0 0.02185 0.06438564 -0 0.02243564 0.0638 -0 0.01995718 0.05409282 -0 0.02025 0.06161436 -0 0.02010873 -0.00073995 -0 0.02105 0.0614 -0 0.02105 0.0546 -0 0.018 -0.0028407 -0 0.02185 0.07161436 -0 0.02105 0.0714 -0 0.01947467 -0.01087936 -0 0.018 0.00386391 -0 0.02005261 0.03725291 -0 0.02013903 0.02146341 -0 0.018 0.01957187 -0 0.02010424 0.01800108 -0 0.02016485 0.03050183 -0 0.02016485 0.02736024 -0 0.02013903 0.024605 -0 0.02016485 0.03666542 -0 0.018 0.03527983 -0 0.02010424 0.03407947 -0 0.018 0.02585506 -0 0.02010424 0.01448905 -0 0.02005261 -0.00358779 -0 0.02005261 -0.00358779 -0.003 0.018 -0.0028407 -0.003 0.016 0.07197626 0.00801606 0.016 0.07405 0.01 0.016 0.06999524 0.00796627 0.016 0.05305 0.01 0.016 0.07246818 0.00659649 0.016 0.07405 0.004 0.016 0.07169074 0.00572107 0.016 0.07003946 0.00589149 0.016 0.05305 0.004 0.016 0.06963183 0.00659649 0.016 0.05999523 0.00796627 0.016 0.06210477 0.00796627 0.016 0.06246817 0.00659649 0.016 0.06155527 0.00569574 0.016 0.0602738 0.00574639 0.016 0.05963182 0.00659649 0.01 0.05305 0.01 0.01172107 0.05540926 0.01 0.0125965 0.05746818 0.01 0.01390395 0.06485298 0.01 0.01313605 0.06458183 0.01 0.0125965 0.05463183 0.01 0.01203889 0.06499053 0.01 0.01155065 0.06632093 0.01 0.01 0.07405 0.01 0.01211144 0.06722665 0.01 0.01313605 0.06751817 0.01 0.01408964 0.06704333 0.01 0.01447446 0.06632563 0.01 0.01427533 0.05683965 0.01 0.01401606 0.05512374 0.01 0.01365722 0.05736988 0.01 0.01 0.07405 0.004 0.01 0.05305 0.004 0.01 0.07003946 0.00589149 0.01 0.06236988 0.00765722 0.01 0.05999523 0.00796627 0.01 0.0602738 0.00574639 0.01 0.06226436 0.00624399 0.01 0.07169074 0.00572107 0.01 0.07246818 0.00659649 0.01 0.07197626 0.00801606 0.01 0.06963183 0.00659649 0.01 0.06973012 0.00765722 0.01 0.05963182 0.00659649 0.01 0.07026035 0.00827533 0.01401606 0.05512374 0.004 0.01396627 0.05710477 0.004 0.01396627 0.06710476 0.004 0.01396627 0.06499524 0.004 0.0125965 0.06746817 0.004 0.01174639 0.06682621 0.004 0.0125965 0.05463183 0.004 0.01169574 0.06554472 0.004 0.0125965 0.06463183 0.004 0.0125965 0.05746818 0.004 0.01189149 0.05706054 0.004 0.01172107 0.05540926 0.004 -0.0096 0.0491 -0.0004 -0.0097 0.0491 -0.0078 -0.0045 0.0491 -0.0065 -0.0045 0.0491 -0.008 0.00361128 0.0491 -0.00567678 0.0045 0.0491 -0.008 0.0045 0.0491 -0.0045 -0.0044 0.0491 -0.0036 -0.0045 0.0491 -0.0045 0.0006 0.0491 -0.0003 0.0006 0.0491 -0.0018 0.0096 0.0491 -0.0004 0.0044 0.0491 -0.0036 0.0097 0.0491 -0.0078 -0.0006 0.0491 -0.0018 -0.0006 0.0491 -0.0003 -0.0045 0.078 -0.008 -0.0043 0.078 -0.0035 0.0043 0.078 -0.0035 -0.0043 0.0491 -0.0035 0.0043 0.0491 -0.0035 0.0045 0.0491 -0.0065 0.0045 0.078 -0.008 0.0095 0.0541 -0.008 0.0095 0.0491 -0.008 0.0097 0.0541 -0.0078 0.0097 0.0541 -0.0005 0.0097 0.0491 -0.0005 0.0095 0.0491 -0.0003 0.0095 0.0541 -0.0003 -0.0095 0.0541 -0.0003 -0.0095 0.0491 -0.0003 -0.0095 0.0491 -0.008 -0.0045 0.0541 -0.008 0.0044 0.0501 -0.0036 0.0097 0.0501 -0.0078 0.0045 0.0501 -0.0065 0.0045 0.0501 -0.008 0.0096 0.0501 -0.0004 -0.0045 0.0501 -0.008 -0.0095 0.0501 -0.008 -0.0045 0.0501 -0.0065 -0.0095 0.0501 -0.0003 -0.0045 0.0501 -0.0045 -0.0044 0.0501 -0.0036 -0.00033481 0.0501 -0.0022299 0.00046471 0.0501 -0.0017451 -0.0003549 0.0501 -0.0014451 0.0097 0.078 -0.0078 0.0045 0.078 -0.0065 -0.0045 0.078 -0.0045 -0.0095 0.078 -0.0003 0.0045 0.078 -0.0045 -0.0095 0.078 -0.008 -0.00359225 0.078 -0.00522755 0.0044 0.078 -0.0036 0.0096 0.078 -0.0004 -0.0006 0.078 -0.0003 -0.0006 0.078 -0.0018 -0.0044 0.078 -0.0036 0.0006 0.078 -0.0018 0.0006 0.078 -0.0003 -0.0097 0.073 -0.0078 -0.0097 0.078 -0.0005 -0.0097 0.078 -0.0078 -0.0045 0.073 -0.008 -0.0095 0.073 -0.008 0.0095 0.078 -0.008 0.0045 0.073 -0.008 -0.0095 0.073 -0.0003 0.0095 0.073 -0.0003 0.0095 0.078 -0.0003 -0.0097 0.077 -0.0078 -0.0045 0.077 -0.008 -0.0045 0.077 -0.0065 -0.0045 0.077 -0.0045 0.00361128 0.077 -0.00567678 0.0045 0.077 -0.008 0.0045 0.077 -0.0045 -0.00357612 0.077 -0.00511732 -0.0096 0.077 -0.0004 -0.0044 0.077 -0.0036 0.0096 0.077 -0.0004 0.0044 0.077 -0.0036 0.0097 0.077 -0.0078 0.0001299 0.077 -0.00228481 -0.00044731 0.077 -0.00166005 0.00055981 0.077 -0.00165 -0.0097 0.0501 -0.0078 0.00370861 0.0501 -0.00500762 -0.0096 0.0501 -0.0004 0.00055981 0.0501 -0.00165 -0.00044731 0.0501 -0.00166005 0.0001299 0.0501 -0.00228481 -0.0095 0.0541 -0.008 -0.0097 0.0491 -0.0005 -0.0097 0.0541 -0.0078 -0.0097 0.0541 -0.0005 0.0045 0.0541 -0.008 0.0045 0.0541 -0.0065 0.00362162 0.0541 -0.00507699 0.0044 0.0541 -0.0036 0.0096 0.0541 -0.0004 -0.0096 0.0541 -0.0004 -0.0044 0.0541 -0.0036 -0.0045 0.0541 -0.0045 0.00046471 0.0541 -0.0017451 -0.0003549 0.0541 -0.0014451 -0.00033481 0.0541 -0.0022299 0.01 0.073 -0.0002 0.01 0.0541 -0.0002 0.01 0.073 -0.0078 0.01 0.0541 -0.0078 0.005 0.073 0 0.00656284 0.06929736 0 0.0075 0.06974868 0 0.0098 0.0541 0 0.00843716 0.05780264 0 0.00737675 0.05741068 0 0.0098 0.073 0 0.00843716 0.06929736 0 0.00860774 0.06801654 0 0.00802008 0.06747003 0 0.00697991 0.06747003 0 0.00639226 0.06801654 0 0.005 0.0541 0 0.00633138 0.05828327 0 0.00826658 0.05951126 0 0.00673342 0.05951126 0 0.0075 0.05974868 0 -0.0098 0.073 0 -0.00843716 0.06929736 0 -0.0075 0.06974868 0 -0.005 0.073 0 -0.00656284 0.06929736 0 -0.0098 0.0541 0 -0.00860774 0.06801654 0 -0.00673342 0.06758874 0 -0.00697991 0.05962997 0 -0.00834435 0.05787665 0 -0.00826658 0.05951126 0 -0.00639226 0.05908346 0 -0.005 0.0541 0 -0.00689462 0.05757698 0 -0.0075 0.06735133 0 -0.01 0.073 -0.0047 -0.01 0.0541 -0.0047 -0.01 0.073 -0.0002 -0.01 0.0541 -0.0002 -0.01 0.073 -0.0078 -0.01 0.0541 -0.0078 -0.01 0.073 -0.0053 -0.01 0.0541 -0.0053 -0.0098 0.073 -0.008 -0.0098 0.0541 -0.008 -0.0045 0.073 -0.0045 -0.004 0.0541 -0.00463397 -0.004 0.073 -0.00463397 -0.00363397 0.0541 -0.005 -0.00363397 0.073 -0.005 -0.0035 0.0541 -0.0055 -0.0035 0.073 -0.0055 -0.00363397 0.0541 -0.006 -0.00363397 0.073 -0.006 -0.004 0.0541 -0.00636603 -0.004 0.073 -0.00636603 -0.0045 0.0541 -0.0065 -0.0045 0.073 -0.0065 0.0045 0.073 -0.0065 0.004 0.0541 -0.00636603 0.004 0.073 -0.00636603 0.00363397 0.0541 -0.006 0.00363397 0.073 -0.006 0.0035 0.0541 -0.0055 0.0035 0.073 -0.0055 0.00363397 0.0541 -0.005 0.00363397 0.073 -0.005 0.004 0.0541 -0.00463397 0.004 0.073 -0.00463397 0.0045 0.0541 -0.0045 0.0045 0.073 -0.0045 0.0098 0.073 -0.008 0.0098 0.0541 -0.008 -0.00980882 0.0541 -0.00491127 -0.005 0.0541 -7.5E-05 -0.0043 0.0541 -0.0035 0.005 0.0541 -0.00015 0.0043 0.0541 -0.0035 -0.005 0.073 -0.00015 -0.00987377 0.073 -0.00490123 0.0099 0.073 -0.0001 0.005 0.073 -0.00015 0.00369199 0.073 -0.00571651 0.0043 0.073 -0.0035 -0.0043 0.073 -0.0035 -0.005 0.0541 -0.00015 -0.0045 0.078 -0.0065 0.0045 0.078 -0.0037 0.0045 0.0491 -0.0037 0.0045 0.077 -0.0065 0.00046471 0.077 -0.0017451 -0.0003549 0.077 -0.0014451 -0.00033481 0.077 -0.0022299 -0.0097 0.073 -0.0005 0.0095 0.073 -0.008 0.0097 0.078 -0.0005 0.0097 0.073 -0.0078 0.0097 0.073 -0.0005 0.0001299 0.073 -0.00228481 -0.0044 0.073 -0.0036 0.0044 0.073 -0.0036 -0.0096 0.073 -0.0004 0.00055981 0.073 -0.00165 -0.00044731 0.073 -0.00166005 0.0096 0.073 -0.0004 -0.00862697 0.05742303 -0 -0.0102 0.0491 -0 -0.00892894 0.059375 -0 -0.0102 0.078 -0 0.00862697 0.06967697 -0 0.0102 0.078 -0 0.00903947 0.0681375 -0 0.0102 0.0491 -0 0.0070875 0.05701053 -0 0.00862697 0.05742303 -0 -0.0075 0.0569 -0 -0.00637303 0.05742303 -0 0.0075 0.0702 -0 0.00637303 0.06967697 -0 -0.00596053 0.0589625 -0 0.00607106 0.059375 -0 0.00585 0.05855 -0 -0.0070875 0.07008947 -0 -0.008325 0.06997894 -0 -0.00892894 0.069375 -0 -0.008325 0.06712106 -0 -0.006675 0.06712106 -0 0.0070875 0.06008947 -0 -0.00607106 0.067725 -0 -0.008325 0.05997894 -0 -0.0070875 0.06008947 -0 0.0070875 0.06701053 -0 0.008325 0.05997894 -0 0.008325 0.06712106 -0 0.00903947 0.0589625 -0 -0.00585 0.06855 -0 0.00596053 0.0681375 -0 0.016 0.078 -0.003 0.0102 0.078 -0.003 0.016 0.078 -0 -0.0102 0.078 -0.003 -0.016 0.078 -0.003 -0.016 0.078 0.0005 -0.019 0.078 0.004 -0.019 0.078 0.0005 0.026 0.078 0.004 0.026 0.078 -0 -0.019 0.0491 0.004 -0.019 0.0491 0.0005 -0.016 0.0491 0.0005 -0.016 0.0491 -0.003 -0.0102 0.0491 -0.003 0.0102 0.0491 -0.003 0.016 0.0491 -0.003 0.016 0.0491 -0 0.026 0.0491 0.004 0.026 0.0491 -0 0.01453947 0.0556375 0.004 0.013 0.0544 0.004 0.016275 0.0568375 0.004 -0.01453947 0.0664625 0.004 -0.019 0.061375 0.004 -0.01412697 0.06492303 0.004 -0.0134125 0.06758947 0.004 -0.00997768 0.07045119 0.004 -0.01187303 0.06717697 0.004 -0.01146053 0.0656375 0.004 -0.013 0.0644 0.004 -0.01453947 0.0556375 0.004 -0.01442894 0.056875 0.004 -0.0134125 0.05758947 0.004 -0.011 0.0491 0.004 -0.013 0.0544 0.004 0.01356349 0.05743849 0.004 0.01146053 0.0556375 0.004 0.011 0.0491 0.004 0.00997768 0.06045119 0.004 0.01187303 0.05717697 0.004 0.01187303 0.06717697 0.004 0.00997768 0.07045119 0.004 0.01146053 0.0656375 0.004 0.01356349 0.06743848 0.004 -0 0.0491 0.004 -0.00461468 0.05735486 0.004 -0.00614176 0.05578982 0.004 -0.00869514 0.05566467 0.004 -0.01022798 0.056975 0.004 -0.00997768 0.06045119 0.004 -0.01146053 0.0556375 0.004 -0.01187303 0.05717697 0.004 -0.011 0.06397501 0.004 -0.00869514 0.06143532 0.004 -0.00650868 0.06146216 0.004 -0.00502232 0.06045119 0.004 -0 0.06397501 0.004 0.00440367 0.05895764 0.004 -0.00440367 0.05895764 0.004 -0.00440367 0.06895764 0.004 -0.00461468 0.06735486 0.004 -0.00614176 0.06578983 0.004 -0.01022798 0.066975 0.004 -0.00869514 0.06566468 0.004 -0.00869514 0.07143532 0.004 -0.00650868 0.07146215 0.004 0.00275 0.078 0.004 -0.00502232 0.07045119 0.004 0.00461468 0.05735486 0.004 0.01022798 0.056975 0.004 0.00869514 0.05566467 0.004 0.00614176 0.05578982 0.004 0.00518541 0.06057634 0.004 0.00709236 0.06164633 0.004 0.0125875 0.06451053 0.004 0.00869514 0.06143532 0.004 0.01022798 0.066975 0.004 0.00869514 0.06566468 0.004 0.00668472 0.06550733 0.004 0.00518541 0.06652366 0.004 0.00440367 0.06814235 0.004 0.011 0.073925 0.004 0.00849132 0.07146215 0.004 0.00461468 0.06974514 0.004 0.005925 0.07127798 0.004 0.02396216 0.05200868 0.004 0.026 0.05994375 0.004 0.02393532 0.05419514 0.004 0.02220442 0.05021299 0.004 0.016275 0.0491 0.004 0.01933874 0.05044365 0.004 0.01816468 0.05180486 0.004 0.01795367 0.05340764 0.004 0.01857232 0.05490119 0.004 0.02204132 0.05591216 0.004 0.01985486 0.05588532 0.004 0.02404083 0.06339375 0.004 0.02352768 0.06109881 0.004 0.02204132 0.06008784 0.004 0.01921359 0.06060674 0.004 0.01438849 0.06548651 0.004 0.026 0.0668375 0.004 0.01849364 0.06471127 0.004 0.01985486 0.06588532 0.004 0.02204132 0.06591216 0.004 0.01795367 0.06259236 0.004 0.02393532 0.07180486 0.004 0.02295119 0.07052232 0.004 0.01985486 0.07011467 0.004 0.02145764 0.06990366 0.004 0.01857232 0.0710988 0.004 0.02327739 0.07522739 0.004 0.016275 0.078 0.004 0.01849364 0.07471126 0.004 0.01985486 0.07588533 0.004 0.02145764 0.07609633 0.004 0.01795367 0.07259236 0.004 0.01146053 0.0664625 -0.003 0.01187303 0.06492303 -0.003 0.01187303 0.05492303 -0.003 0.01135 0.05605 -0.003 0.012175 0.05747894 -0.003 0.013825 0.06747894 -0.003 0.0125875 0.06758947 -0.003 0.01412697 0.05492303 -0.003 0.013 0.0544 -0.003 0.01442894 0.056875 -0.003 0.0134125 0.05758947 -0.003 0.013 0.0644 -0.003 0.013825 0.06462106 -0.003 0.01442894 0.066875 -0.003 -0.01135 0.06605 -0.003 -0.01187303 0.06717697 -0.003 -0.01187303 0.05492303 -0.003 -0.01146053 0.0564625 -0.003 -0.0125875 0.05758947 -0.003 -0.012175 0.06462106 -0.003 -0.01412697 0.05492303 -0.003 -0.013 0.0544 -0.003 -0.013825 0.05747894 -0.003 -0.01442894 0.056875 -0.003 -0.0134125 0.06758947 -0.003 -0.01442894 0.066875 -0.003 -0.013825 0.06462106 -0.003 -0.013 0.0644 -0.003 -0.01135 0.06605 0.004 -0.01157106 0.066875 -0.003 -0.01157106 0.066875 0.004 -0.012175 0.06747894 -0.003 -0.012175 0.06747894 0.004 -0.013 0.0677 -0.003 -0.013 0.0677 0.004 -0.013825 0.06747894 -0.003 -0.013825 0.06747894 0.004 -0.01442894 0.066875 0.004 -0.01465 0.06605 -0.003 -0.01465 0.06605 0.004 -0.01442894 0.065225 -0.003 -0.01442894 0.065225 0.004 -0.013825 0.06462106 0.004 -0.012175 0.06462106 0.004 -0.01157106 0.065225 -0.003 -0.01157106 0.065225 0.004 -0.01135 0.05605 -0.003 -0.01135 0.05605 0.004 -0.01157106 0.056875 -0.003 -0.01157106 0.056875 0.004 -0.012175 0.05747894 -0.003 -0.012175 0.05747894 0.004 -0.013 0.0577 -0.003 -0.013 0.0577 0.004 -0.013825 0.05747894 0.004 -0.01465 0.05605 -0.003 -0.01465 0.05605 0.004 -0.01442894 0.055225 -0.003 -0.01442894 0.055225 0.004 -0.013825 0.05462106 -0.003 -0.013825 0.05462106 0.004 -0.012175 0.05462106 -0.003 -0.012175 0.05462106 0.004 -0.01157106 0.055225 -0.003 -0.01157106 0.055225 0.004 0.01465 0.05605 -0.003 0.01465 0.05605 0.004 0.01442894 0.056875 0.004 0.013825 0.05747894 -0.003 0.013825 0.05747894 0.004 0.013 0.0577 -0.003 0.013 0.0577 0.004 0.012175 0.05747894 0.004 0.01157106 0.056875 -0.003 0.01157106 0.056875 0.004 0.01135 0.05605 0.004 0.01157106 0.055225 -0.003 0.01157106 0.055225 0.004 0.012175 0.05462106 -0.003 0.012175 0.05462106 0.004 0.013825 0.05462106 -0.003 0.013825 0.05462106 0.004 0.01442894 0.055225 -0.003 0.01442894 0.055225 0.004 0.01465 0.06605 -0.003 0.01465 0.06605 0.004 0.01442894 0.066875 0.004 0.013825 0.06747894 0.004 0.013 0.0677 -0.003 0.013 0.0677 0.004 0.012175 0.06747894 -0.003 0.012175 0.06747894 0.004 0.01157106 0.066875 -0.003 0.01157106 0.066875 0.004 0.01135 0.06605 -0.003 0.01135 0.06605 0.004 0.01157106 0.065225 -0.003 0.01157106 0.065225 0.004 0.012175 0.06462106 -0.003 0.012175 0.06462106 0.004 0.013 0.0644 0.004 0.013825 0.06462106 0.004 0.01442894 0.065225 -0.003 0.01442894 0.065225 0.004 0.020225 0.07442894 -0 0.0214625 0.07453947 -0 0.02258947 0.0734125 -0 0.01951053 0.0525875 -0 0.020225 0.05157106 -0 0.0214625 0.05146053 -0 0.02258947 0.0525875 -0 0.02217697 0.05412697 -0 0.02247894 0.062175 -0 0.01951053 0.0734125 -0 0.020225 0.07157106 -0 0.0194 0.063 -0 0.01962106 0.063825 -0 0.021875 0.07157106 -0 0.020225 0.06157106 -0 0.02105 0.05465 -0 0.020225 0.05442894 -0 0.0214625 0.06146053 -0 0.021875 0.06442894 -0 0.02105 0.07135 -0 0.0206375 0.06453947 -0 -0.01 0.07197626 0.00801606 -0.01 0.07405 0.01 -0.01 0.06999524 0.00796627 -0.01 0.05305 0.01 -0.01 0.07246818 0.00659649 -0.01 0.07405 0.004 -0.01 0.07169074 0.00572107 -0.01 0.07003946 0.00589149 -0.01 0.05305 0.004 -0.01 0.06963183 0.00659649 -0.01 0.05999523 0.00796627 -0.01 0.06210477 0.00796627 -0.01 0.06246817 0.00659649 -0.01 0.06155527 0.00569574 -0.01 0.0602738 0.00574639 -0.01 0.05963182 0.00659649 -0.016 0.05305 0.01 -0.01427893 0.05540926 0.01 -0.01340351 0.05746818 0.01 -0.01209605 0.06485298 0.01 -0.01286395 0.06458183 0.01 -0.01340351 0.05463183 0.01 -0.01396111 0.06499053 0.01 -0.01444935 0.06632093 0.01 -0.016 0.07405 0.01 -0.01388856 0.06722665 0.01 -0.01286395 0.06751817 0.01 -0.01191036 0.06704333 0.01 -0.01152554 0.06632563 0.01 -0.01172467 0.05683965 0.01 -0.01198394 0.05512374 0.01 -0.01234278 0.05736988 0.01 -0.016 0.07405 0.004 -0.016 0.05305 0.004 -0.016 0.07003946 0.00589149 -0.016 0.06236988 0.00765722 -0.016 0.05999523 0.00796627 -0.016 0.0602738 0.00574639 -0.016 0.06226436 0.00624399 -0.016 0.07169074 0.00572107 -0.016 0.07246818 0.00659649 -0.016 0.07197626 0.00801606 -0.016 0.06963183 0.00659649 -0.016 0.06973012 0.00765722 -0.016 0.05963182 0.00659649 -0.016 0.07026035 0.00827533 -0.01198394 0.05512374 0.004 -0.01203373 0.05710477 0.004 -0.01203373 0.06710476 0.004 -0.01203373 0.06499524 0.004 -0.01340351 0.06746817 0.004 -0.01425361 0.06682621 0.004 -0.01340351 0.05463183 0.004 -0.01430426 0.06554472 0.004 -0.01340351 0.06463183 0.004 -0.01340351 0.05746818 0.004 -0.01410851 0.05706054 0.004 -0.01427893 0.05540926 0.004 -0.0188 0.06222586 0.02396053 -0.0188 0.06335283 0.0250875 -0.0188 0.07708796 0.01626372 -0.0188 0.06263836 0.02692894 -0.0188 0.06181336 0.02715 -0.0188 0.06025635 0.0465875 -0.0188 0.05207993 0.03492025 -0.0188 0.06098836 0.02692894 -0.0188 0.06027389 0.0259125 -0.0188 0.0632423 0.026325 -0.0188 0.06367721 0.07185103 -0.0188 0.04949884 0.02074635 -0.0188 0.06068639 0.02437303 -0.0188 0.04914864 0.01625523 -0.0188 0.05167106 0.085175 -0.0188 0.04946071 0.08686467 -0.0188 0.05197303 0.08712697 -0.0188 0.05126621 0.08900848 -0.0188 0.0535125 0.08753947 -0.0188 0.05388945 0.08999556 -0.0188 0.0557623 0.08954526 -0.0188 0.05463947 0.0864125 -0.0188 0.05732595 0.08842039 -0.0188 0.05834832 0.08678788 -0.0188 0.053925 0.08457106 -0.0188 0.0531 0.08435 -0.0188 0.05289447 0.04986182 -0.0188 0.05231283 0.05732835 -0.0188 0.06014582 0.047825 -0.0188 0.05954187 0.04842894 -0.0188 0.05871687 0.04865 -0.0188 0.0571774 0.0474125 -0.0188 0.05281664 0.04237308 -0.0188 0.05789188 0.04557106 -0.0188 0.05871687 0.04535 -0.0188 0.05954187 0.04557106 -0.0188 0.04998012 0.0709157 -0.0188 0.052275 0.08457106 -0.0188 0.0493203 0.07717817 -0.0188 0.0491 0.085 -0.0188 0.06247894 0.007825 -0.0188 0.06308168 0.004 -0.0188 0.06197072 0.00581776 -0.0188 0.0511 0.004 -0.0188 0.04973397 0.00463397 -0.0188 0.0491 0.006 -0.0188 0.05962106 0.006175 -0.0188 0.0614625 0.00853947 -0.0188 0.05992303 0.00812697 -0.0188 0.0594 0.007 -0.0188 0.07258947 0.0074125 -0.0188 0.0714625 0.00853947 -0.0188 0.06951053 0.0065875 -0.0188 0.0706375 0.00546053 -0.0188 0.076 0.004 -0.0188 0.07799079 0.00999957 -0.0188 0.07792388 0.00561732 -0.0188 0.06831405 0.05668506 -0.0188 0.07224901 0.04132203 -0.0188 0.07547379 0.02579439 -0.0188 0.06992303 0.00812697 -0.0188 0.07217697 0.00587303 -0.0188 0.07708979 0.00436901 -0.0158 0.05834832 0.08678788 -0.0158 0.05732595 0.08842039 -0.0158 0.05463947 0.0864125 -0.0158 0.05289447 0.04986182 -0.0158 0.05281664 0.04237308 -0.0158 0.0571774 0.0465875 -0.0158 0.05231283 0.05732835 -0.0158 0.0531 0.08435 -0.0158 0.0535125 0.08753947 -0.0158 0.0557623 0.08954526 -0.0158 0.05388945 0.08999556 -0.0158 0.05197303 0.08712697 -0.0158 0.05204163 0.08955666 -0.0158 0.04997575 0.08766248 -0.0158 0.05156053 0.0855875 -0.0158 0.06222586 0.02396053 -0.0158 0.06068639 0.02437303 -0.0158 0.04914864 0.01625523 -0.0158 0.04949884 0.02074635 -0.0158 0.06027389 0.0259125 -0.0158 0.05207993 0.03492025 -0.0158 0.06098836 0.02692894 -0.0158 0.05871687 0.04865 -0.0158 0.06367721 0.07185103 -0.0158 0.05954187 0.04842894 -0.0158 0.06014582 0.047825 -0.0158 0.04998012 0.0709157 -0.0158 0.05871687 0.04535 -0.0158 0.05954187 0.04557106 -0.0158 0.06181336 0.02715 -0.0158 0.06025635 0.0465875 -0.0158 0.06263836 0.02692894 -0.0158 0.0632423 0.026325 -0.0158 0.053925 0.08457106 -0.0158 0.05789188 0.04842894 -0.0158 0.0491 0.085 -0.0158 0.0493203 0.07717817 -0.0158 0.07547379 0.02579439 -0.0158 0.07224901 0.04132203 -0.0158 0.06831405 0.05668506 -0.0158 0.07708796 0.01626372 -0.0158 0.06335283 0.0250875 -0.0158 0.07217697 0.00587303 -0.0158 0.076 0.004 -0.0158 0.07258947 0.0074125 -0.0158 0.07708979 0.00436901 -0.0158 0.0706375 0.00546053 -0.0158 0.06308168 0.004 -0.0158 0.06951053 0.0065875 -0.0158 0.06992303 0.00812697 -0.0158 0.0714625 0.00853947 -0.0158 0.07799079 0.00999957 -0.0158 0.0614625 0.00853947 -0.0158 0.06247894 0.007825 -0.0158 0.06217697 0.00587303 -0.0158 0.060225 0.00557106 -0.0158 0.0511 0.004 -0.0158 0.05951053 0.0065875 -0.0158 0.04973397 0.00463397 -0.0158 0.0491 0.006 -0.0158 0.05992303 0.00812697 -0.0188 0.05069007 0.0275612 -0.0158 0.05069007 0.0275612 -0.0188 0.05107623 0.0647147 -0.0158 0.05107623 0.0647147 -0.0158 0.0491 0.08347145 -0.0188 0.0491 0.08347145 -0.0158 0.04946071 0.08686467 -0.0158 0.05049079 0.0884603 -0.0188 0.05049079 0.0884603 -0.0188 0.05204163 0.08955666 -0.0158 0.07798158 0.01013497 -0.0188 0.07798158 0.01013497 -0.0188 0.078 0.006 -0.0188 0.078 0.00986418 -0.0158 0.078 0.006 -0.0158 0.078 0.00986418 -0.0158 0.0501 0.00426795 -0.0188 0.0501 0.00426795 -0.0158 0.04936795 0.005 -0.0188 0.04936795 0.005 -0.0188 0.0491 0.01383969 -0.0158 0.0491 0.01383969 0.016 0.06222586 0.02396053 0.016 0.06335283 0.0250875 0.016 0.07708796 0.01626372 0.016 0.06263836 0.02692894 0.016 0.06181336 0.02715 0.016 0.06025635 0.0465875 0.016 0.05207993 0.03492025 0.016 0.06098836 0.02692894 0.016 0.06027389 0.0259125 0.016 0.0632423 0.026325 0.016 0.06367721 0.07185103 0.016 0.04949884 0.02074635 0.016 0.06068639 0.02437303 0.016 0.04914864 0.01625523 0.016 0.05167106 0.085175 0.016 0.04946071 0.08686467 0.016 0.05197303 0.08712697 0.016 0.05126621 0.08900848 0.016 0.0535125 0.08753947 0.016 0.05388945 0.08999556 0.016 0.0557623 0.08954526 0.016 0.05463947 0.0864125 0.016 0.05732595 0.08842039 0.016 0.05834832 0.08678788 0.016 0.053925 0.08457106 0.016 0.0531 0.08435 0.016 0.05289447 0.04986182 0.016 0.05231283 0.05732835 0.016 0.06014582 0.047825 0.016 0.05954187 0.04842894 0.016 0.05871687 0.04865 0.016 0.0571774 0.0474125 0.016 0.05281664 0.04237308 0.016 0.05789188 0.04557106 0.016 0.05871687 0.04535 0.016 0.05954187 0.04557106 0.016 0.04998012 0.0709157 0.016 0.052275 0.08457106 0.016 0.0493203 0.07717817 0.016 0.0491 0.085 0.016 0.06247894 0.007825 0.016 0.06308168 0.004 0.016 0.06197072 0.00581776 0.016 0.0511 0.004 0.016 0.04973397 0.00463397 0.016 0.0491 0.006 0.016 0.05962106 0.006175 0.016 0.0614625 0.00853947 0.016 0.05992303 0.00812697 0.016 0.0594 0.007 0.016 0.07258947 0.0074125 0.016 0.0714625 0.00853947 0.016 0.06951053 0.0065875 0.016 0.0706375 0.00546053 0.016 0.076 0.004 0.016 0.07799079 0.00999957 0.016 0.07792388 0.00561732 0.016 0.06831405 0.05668506 0.016 0.07224901 0.04132203 0.016 0.07547379 0.02579439 0.016 0.06992303 0.00812697 0.016 0.07217697 0.00587303 0.016 0.07708979 0.00436901 0.019 0.05834832 0.08678788 0.019 0.05732595 0.08842039 0.019 0.05463947 0.0864125 0.019 0.05289447 0.04986182 0.019 0.05281664 0.04237308 0.019 0.0571774 0.0465875 0.019 0.05231283 0.05732835 0.019 0.0531 0.08435 0.019 0.0535125 0.08753947 0.019 0.0557623 0.08954526 0.019 0.05388945 0.08999556 0.019 0.05197303 0.08712697 0.019 0.05204163 0.08955666 0.019 0.04997575 0.08766248 0.019 0.05156053 0.0855875 0.019 0.06222586 0.02396053 0.019 0.06068639 0.02437303 0.019 0.04914864 0.01625523 0.019 0.04949884 0.02074635 0.019 0.06027389 0.0259125 0.019 0.05207993 0.03492025 0.019 0.06098836 0.02692894 0.019 0.05871687 0.04865 0.019 0.06367721 0.07185103 0.019 0.05954187 0.04842894 0.019 0.06014582 0.047825 0.019 0.04998012 0.0709157 0.019 0.05871687 0.04535 0.019 0.05954187 0.04557106 0.019 0.06181336 0.02715 0.019 0.06025635 0.0465875 0.019 0.06263836 0.02692894 0.019 0.0632423 0.026325 0.019 0.053925 0.08457106 0.019 0.05789188 0.04842894 0.019 0.0491 0.085 0.019 0.0493203 0.07717817 0.019 0.07547379 0.02579439 0.019 0.07224901 0.04132203 0.019 0.06831405 0.05668506 0.019 0.07708796 0.01626372 0.019 0.06335283 0.0250875 0.019 0.07217697 0.00587303 0.019 0.076 0.004 0.019 0.07258947 0.0074125 0.019 0.07708979 0.00436901 0.019 0.0706375 0.00546053 0.019 0.06308168 0.004 0.019 0.06951053 0.0065875 0.019 0.06992303 0.00812697 0.019 0.0714625 0.00853947 0.019 0.07799079 0.00999957 0.019 0.0614625 0.00853947 0.019 0.06247894 0.007825 0.019 0.06217697 0.00587303 0.019 0.060225 0.00557106 0.019 0.0511 0.004 0.019 0.05951053 0.0065875 0.019 0.04973397 0.00463397 0.019 0.0491 0.006 0.019 0.05992303 0.00812697 -0.0158 0.05207993 0.03492025 -0.0158 0.05281664 0.04237308 -0.0158 0.05289447 0.04986182 -0.0158 0.05231283 0.05732835 -0.0158 0.05107623 0.0647147 0.019 0.05107623 0.0647147 -0.0158 0.04998012 0.0709157 -0.0158 0.0493203 0.07717817 0.019 0.0491 0.08347145 -0.0158 0.0491 0.08347145 -0.0158 0.0491 0.085 0.019 0.04946071 0.08686467 -0.0158 0.04946071 0.08686467 0.019 0.05049079 0.0884603 -0.0158 0.05204163 0.08955666 -0.0158 0.05388945 0.08999556 -0.0158 0.0557623 0.08954526 -0.0158 0.05834832 0.08678788 0.019 0.07798158 0.01013497 0.016 0.07798158 0.01013497 0.016 0.078 0.006 0.016 0.078 0.00986418 0.019 0.078 0.006 0.019 0.078 0.00986418 0.019 0.0501 0.00426795 0.016 0.0501 0.00426795 0.019 0.04936795 0.005 0.016 0.04936795 0.005 0.016 0.0491 0.01383969 0.019 0.0491 0.01383969 0.019 0.05069007 0.0275612 0.016 0.05069007 0.0275612 -0.0158 0.05475 0.086 -0.0158 0.05452894 0.086825 0.019 0.05452894 0.086825 0.019 0.053925 0.08742894 -0.0158 0.053925 0.08742894 -0.0158 0.0531 0.08765 -0.0158 0.052275 0.08742894 0.019 0.0531 0.08765 0.019 0.052275 0.08742894 -0.0158 0.05167106 0.086825 0.019 0.05167106 0.086825 0.019 0.05145 0.086 -0.0158 0.05145 0.086 -0.0158 0.05167106 0.085175 0.019 0.05197303 0.08487303 -0.0158 0.052275 0.08457106 -0.0158 0.0531 0.08435 0.019 0.0535125 0.08446053 -0.0158 0.053925 0.08457106 0.019 0.05422697 0.08487303 -0.0158 0.05452894 0.085175 -0.0158 0.05954187 0.04842894 -0.0158 0.05871687 0.04865 -0.0158 0.05789188 0.04842894 0.019 0.0575899 0.04812697 -0.0158 0.05728793 0.047825 -0.0158 0.05706688 0.047 0.019 0.05706688 0.047 0.019 0.05728793 0.046175 -0.0158 0.05789188 0.04557106 0.019 0.05789188 0.04557106 0.019 0.05830438 0.04546053 -0.0158 0.05871687 0.04535 -0.0158 0.05954187 0.04557106 0.019 0.05984385 0.04587303 -0.0158 0.06014582 0.046175 -0.0158 0.06036688 0.047 -0.0158 0.06263836 0.02692894 -0.0158 0.06181336 0.02715 0.019 0.06140086 0.02703947 -0.0158 0.06098836 0.02692894 0.019 0.06068639 0.02662697 -0.0158 0.06038442 0.026325 -0.0158 0.06016336 0.0255 0.019 0.06027389 0.0250875 -0.0158 0.06038442 0.024675 -0.0158 0.06098836 0.02407106 0.019 0.06140086 0.02396053 -0.0158 0.06181336 0.02385 -0.0158 0.06263836 0.02407106 0.019 0.06263836 0.02407106 0.019 0.0632423 0.024675 -0.0158 0.0632423 0.024675 -0.0158 0.06346336 0.0255 -0.016 0.0459589 0.08142408 0.016 0.0459589 0.08142408 -0.016 0.04683831 0.0817531 0.016 0.04683831 0.0817531 -0.016 0.04747083 0.0824469 0.016 0.04747083 0.0824469 -0.016 0.04771712 0.08335289 0.016 0.04771712 0.08335289 -0.016 0.04752281 0.08427127 0.016 0.04752281 0.08427127 -0.016 0.04693082 0.08499988 0.016 0.04693082 0.08499988 -0.016 0.04909995 0.08499988 0.016 0.04909995 0.08499988 -0.016 0.04909995 0.08347162 0.016 0.04909995 0.08347162 -0.016 0.04932025 0.07717832 0.016 0.04932025 0.07717832 -0.016 0.04998007 0.07091554 0.016 0.04998007 0.07091554 -0.016 0.0510762 0.06471475 0.016 0.0510762 0.06471475 0.016 0.05231288 0.05732854 -0.016 0.05231288 0.05732854 0.016 0.0528945 0.04986175 -0.016 0.0528945 0.04986175 0.016 0.05281666 0.04237302 -0.016 0.05281666 0.04237302 0.016 0.05207994 0.03492006 -0.016 0.05207994 0.03492006 0.016 0.05069008 0.02756103 -0.016 0.05069008 0.02756103 -0.016 0.04982271 0.02312454 0.016 0.04982271 0.02312454 -0.016 0.04929199 0.01863511 0.016 0.04929199 0.01863511 -0.016 0.04796734 0.01878675 0.016 0.04796734 0.01878675 -0.016 0.0483599 0.01974281 0.016 0.0483599 0.01974281 -0.016 0.04822293 0.02076705 0.016 0.04822293 0.02076705 -0.016 0.04759302 0.02158626 0.016 0.04759302 0.02158626 -0.016 0.04663828 0.02198156 0.016 0.04663828 0.02198156 0.016 0.04578879 0.02230152 -0.016 0.04578879 0.02230152 0.016 0.04516831 0.02296432 -0.016 0.04516831 0.02296432 0.016 0.04490462 0.02383312 -0.016 0.04490462 0.02383312 0.016 0.04505208 0.02472862 -0.016 0.04505208 0.02472862 0.016 0.04558029 0.02546676 -0.016 0.04558029 0.02546676 0.016 0.04638055 0.02589544 -0.016 0.04638055 0.02589544 0.016 0.04728773 0.02592643 -0.016 0.04728773 0.02592643 -0.016 0.0483146 0.02599367 0.016 0.0483146 0.02599367 -0.016 0.04917219 0.02656206 0.016 0.04917219 0.02656206 -0.016 0.04963353 0.02748187 0.016 0.04963353 0.02748187 -0.016 0.04957643 0.02850946 0.016 0.04957643 0.02850946 -0.016 0.04901614 0.02937253 0.016 0.04901614 0.02937253 -0.016 0.04810086 0.0298427 0.016 0.04810086 0.0298427 0.016 0.04719331 0.03030618 -0.016 0.04719331 0.03030618 0.016 0.04663184 0.03115638 -0.016 0.04663184 0.03115638 0.016 0.04656198 0.03217252 -0.016 0.04656198 0.03217252 0.016 0.04700198 0.03309186 -0.016 0.04700198 0.03309186 0.016 0.04783764 0.03367456 -0.016 0.04783764 0.03367456 0.016 0.04885199 0.0337704 -0.016 0.04885199 0.0337704 -0.016 0.04975381 0.03382858 0.016 0.04975381 0.03382858 -0.016 0.05053809 0.03427776 0.016 0.05053809 0.03427776 -0.016 0.05104449 0.03502639 0.016 0.05104449 0.03502639 -0.016 0.05116966 0.03592141 0.016 0.05116966 0.03592141 -0.016 0.05088809 0.0367802 0.016 0.05088809 0.0367802 -0.016 0.05025723 0.03742727 0.016 0.05025723 0.03742727 -0.016 0.04940596 0.03773053 0.016 0.04940596 0.03773053 0.016 0.04845622 0.03810104 -0.016 0.04845622 0.03810104 0.016 0.04781249 0.03889211 -0.016 0.04781249 0.03889211 0.016 0.04764226 0.03989728 -0.016 0.04764226 0.03989728 0.016 0.04798975 0.04085572 -0.016 0.04798975 0.04085572 0.016 0.04876449 0.04151853 -0.016 0.04876449 0.04151853 0.016 0.04976526 0.04171308 -0.016 0.04976526 0.04171308 -0.016 0.05065694 0.04185947 0.016 0.05065694 0.04185947 -0.016 0.05139342 0.04238303 0.016 0.05139342 0.04238303 -0.016 0.05182424 0.04317744 0.016 0.05182424 0.04317744 -0.016 0.05186143 0.0440801 0.016 0.05186143 0.0440801 -0.016 0.05149737 0.04490741 0.016 0.05149737 0.04490741 -0.016 0.05080631 0.04548963 0.016 0.05080631 0.04548963 -0.016 0.04992953 0.0457085 0.016 0.04992953 0.0457085 0.016 0.04894819 0.04598506 -0.016 0.04894819 0.04598506 0.016 0.04823044 0.0467089 -0.016 0.04823044 0.0467089 0.016 0.04796305 0.04769309 -0.016 0.04796305 0.04769309 0.016 0.0482153 0.04868062 -0.016 0.0482153 0.04868062 0.016 0.04892161 0.04941591 -0.016 0.04892161 0.04941591 0.016 0.04989865 0.04970725 -0.016 0.04989865 0.04970725 -0.016 0.05077198 0.04993947 0.016 0.05077198 0.04993947 -0.016 0.05145385 0.05053266 0.016 0.05145385 0.05053266 -0.016 0.05180505 0.05136522 0.016 0.05180505 0.05136522 -0.016 0.05175402 0.05226739 0.016 0.05175402 0.05226739 -0.016 0.05131104 0.05305513 0.016 0.05131104 0.05305513 -0.016 0.05056658 0.05356725 0.016 0.05056658 0.05356725 -0.016 0.04967263 0.05369981 0.016 0.04967263 0.05369981 0.016 0.04866889 0.0538791 -0.016 0.04866889 0.0538791 0.016 0.04788401 0.05452951 -0.016 0.04788401 0.05452951 0.016 0.04752186 0.0554827 -0.016 0.04752186 0.0554827 0.016 0.04767659 0.05649026 -0.016 0.04767659 0.05649026 0.016 0.04830792 0.05729087 -0.016 0.04830792 0.05729087 0.016 0.04925194 0.05767616 -0.016 0.04925194 0.05767616 -0.016 0.05009845 0.05799277 0.016 0.05009845 0.05799277 -0.016 0.05071917 0.05864938 0.016 0.05071917 0.05864938 -0.016 0.05098763 0.05951246 0.016 0.05098763 0.05951246 -0.016 0.05084875 0.06040509 0.016 0.05084875 0.06040509 -0.016 0.05033102 0.0611461 0.016 0.05033102 0.0611461 -0.016 0.04954019 0.06158336 0.016 0.04954019 0.06158336 -0.016 0.04863765 0.0616277 0.016 0.04863765 0.0616277 0.016 0.04761317 0.06171115 -0.016 0.04761317 0.06171115 0.016 0.04676535 0.06229242 -0.016 0.04676535 0.06229242 0.016 0.04631832 0.06321796 -0.016 0.04631832 0.06321796 0.016 0.04638984 0.06424316 -0.016 0.04638984 0.06424316 0.016 0.04696121 0.06509765 -0.016 0.04696121 0.06509765 0.016 0.04788151 0.06555542 -0.016 0.04788151 0.06555542 -0.016 0.04879453 0.0660065 0.016 0.04879453 0.0660065 -0.016 0.04936674 0.06684908 0.016 0.04936674 0.06684908 -0.016 0.04945007 0.06786426 0.016 0.04945007 0.06786426 -0.016 0.0490227 0.06878837 0.016 0.0490227 0.06878837 -0.016 0.04819551 0.06938251 0.016 0.04819551 0.06938251 -0.016 0.04718294 0.06949266 0.016 0.04718294 0.06949266 0.016 0.04628387 0.06956276 -0.016 0.04628387 0.06956276 0.016 0.04550698 0.07002052 -0.016 0.04550698 0.07002052 0.016 0.04501035 0.07077345 -0.016 0.04501035 0.07077345 0.016 0.04489496 0.07166799 -0.016 0.04489496 0.07166799 0.016 0.04518404 0.07252201 -0.016 0.04518404 0.07252201 0.016 0.04581907 0.0731624 -0.016 0.04581907 0.0731624 0.016 0.04667082 0.07345852 -0.016 0.04667082 0.07345852 -0.016 0.04762473 0.07382377 0.016 0.04762473 0.07382377 -0.016 0.04827395 0.07461198 0.016 0.04827395 0.07461198 -0.016 0.04844918 0.07561859 0.016 0.04844918 0.07561859 -0.016 0.04810479 0.07657989 0.016 0.04810479 0.07657989 -0.016 0.04733052 0.07724603 0.016 0.04733052 0.07724603 -0.016 0.04632821 0.07744297 0.016 0.04632821 0.07744297 0.016 0.04533007 0.07763799 -0.016 0.04533007 0.07763799 0.016 0.04455676 0.07829841 -0.016 0.04455676 0.07829841 0.016 0.04420843 0.07925399 -0.016 0.04420843 0.07925399 0.016 0.04437509 0.08025726 -0.016 0.04437509 0.08025726 0.016 0.04501357 0.08104929 -0.016 0.04501357 0.08104929 -0.016 0.04761996 0.08381208 -0.016 0.04598042 0.0256811 -0.016 0.04965016 0.07404693 -0.016 0.0494084 0.06735667 -0.016 0.04542929 0.0726287 -0.016 0.04525867 0.07039698 -0.016 0.05057266 0.03710373 -0.016 0.04494342 0.0779682 -0.016 0.04469433 0.08065327 -0.016 0.05093881 0.05331119 -0.016 0.04678198 0.03263219 -0.016 0.05160883 0.04278024 -0.016 0.04971072 0.041689 -0.016 0.05162945 0.05094894 -0.016 0.04858932 0.04634698 -0.016 0.0508534 0.05908092 -0.016 0.047816 0.0403765 -0.016 0.04813435 0.03849657 -0.016 0.04856845 0.04904826 -0.016 0.04770293 0.05500611 -0.016 0.04799226 0.05689057 -0.016 0.04667553 0.06467041 -0.016 0.04654184 0.06275519 0.016 0.0463303 0.07744201 0.016 0.04761996 0.08381208 0.016 0.04827699 0.07609924 0.016 0.04541263 0.02285012 0.016 0.04531619 0.02509769 0.016 0.04794934 0.07421788 0.016 0.04589542 0.06979164 0.016 0.04469433 0.08065327 0.016 0.0443826 0.0787762 0.016 0.05110708 0.0354739 0.016 0.05102518 0.04212125 0.016 0.04837712 0.04118713 0.016 0.04691258 0.03073128 0.016 0.04678198 0.03263219 0.016 0.04923638 0.06832632 0.016 0.05091819 0.05995877 0.016 0.04813435 0.03849657 0.016 0.04808917 0.04818686 0.016 0.04795357 0.05663868 0.016 0.04654184 0.06275519 -0.0158 0.05633427 0.042924 -0.0158 0.05533427 0.041924 -0.0158 0.05540669 0.044137 -0.0158 0.06027389 0.0259125 -0.0158 0.05565125 0.02996617 -0.0158 0.05432774 0.01383969 -0.0158 0.05533427 0.03064919 -0.0158 0.05633427 0.02964919 -0.0158 0.07047444 0.0296994 -0.0158 0.07654512 0.01965462 -0.0158 0.07652832 0.01792887 -0.0158 0.07592579 0.01631164 -0.0158 0.06222586 0.02396053 -0.0158 0.07161198 0.01383969 -0.0158 0.07331191 0.01413754 -0.0158 0.07480932 0.0149956 -0.0158 0.06753027 0.042924 -0.0158 0.06335283 0.0259125 -0.0158 0.07104187 0.03003072 -0.0158 0.07399692 0.0333535 -0.0158 0.07122806 0.03088417 -0.0158 0.07089764 0.04693831 -0.0158 0.06850228 0.04215899 -0.0158 0.04987484 0.02345115 -0.0158 0.04934845 0.01929423 -0.0158 0.05068588 0.01551513 -0.0158 0.05558557 0.05580137 -0.0158 0.0571774 0.0474125 -0.0158 0.0575899 0.04587303 -0.0158 0.05583034 0.07639311 -0.0158 0.06025635 0.0465875 -0.0158 0.06725234 0.06038689 -0.0158 0.05984385 0.04812697 -0.0158 0.06307378 0.05544656 -0.0158 0.05830438 0.04853947 -0.0158 0.05627378 0.05540403 -0.0158 0.05764934 0.07605625 -0.0158 0.06306696 0.07367731 -0.0158 0.06365481 0.05643124 -0.0158 0.05705314 0.07658311 -0.0158 0.05732595 0.08842039 -0.0158 0.0554202 0.08968699 -0.0158 0.05197303 0.08712697 -0.0158 0.05126621 0.08900848 -0.0158 0.05422697 0.08712697 0.016 0.05422697 0.08712697 0.016 0.05452894 0.085175 0.016 0.0554202 0.08968699 0.016 0.05549276 0.03030768 0.016 0.04934845 0.01929423 0.016 0.05432774 0.01383969 0.016 0.04987484 0.02345115 0.016 0.04947264 0.01764471 0.016 0.05196992 0.0145088 0.016 0.06181336 0.02385 0.016 0.06098836 0.02407106 0.016 0.07654512 0.01965462 0.016 0.06346336 0.0255 0.016 0.06294033 0.02437303 0.016 0.07480932 0.0149956 0.016 0.07047444 0.0296994 0.016 0.05533427 0.041924 0.016 0.05633427 0.042924 0.016 0.05540669 0.044137 0.016 0.07161198 0.01383969 0.016 0.07331191 0.01413754 0.016 0.05633427 0.02964919 0.016 0.07113747 0.03023338 0.016 0.06753027 0.042924 0.016 0.07123964 0.04554278 0.016 0.06850228 0.04215899 0.016 0.07399692 0.0333535 0.016 0.07122806 0.03088417 0.016 0.05156053 0.0855875 0.016 0.04997575 0.08766248 0.016 0.05296554 0.08977611 0.016 0.0531 0.08765 0.016 0.06365481 0.05643124 0.016 0.05984385 0.04812697 0.016 0.05583034 0.07639311 0.016 0.0575899 0.04587303 0.016 0.05558557 0.05580137 0.016 0.05705314 0.07658311 0.016 0.05764934 0.07605625 0.016 0.06306696 0.07367731 0.016 0.06725234 0.06038689 0.016 0.05830438 0.04853947 0.016 0.05627378 0.05540403 0.016 0.06289492 0.05540403 -0.0158 0.05069007 0.0275612 -0.0158 0.05049079 0.0884603 0.016 0.07089764 0.04693831 -0.0158 0.07158165 0.04414725 0.016 0.07158165 0.04414725 -0.0158 0.05627378 0.0766184 -0.0158 0.05688945 0.0766184 0.016 0.05627378 0.0766184 0.016 0.05688945 0.0766184 -0.0158 0.06289492 0.05540403 -0.0158 0.0554791 0.0561987 -0.0158 0.0554791 0.07582372 0.016 0.0554791 0.0561987 0.016 0.0554791 0.07582372 -0.0158 0.05583427 0.04279003 0.016 0.05583427 0.04279003 -0.0158 0.05546824 0.042424 0.016 0.05546824 0.042424 -0.0158 0.06830676 0.04255414 0.016 0.06830676 0.04255414 -0.0158 0.06796031 0.04282681 0.016 0.06796031 0.04282681 -0.0158 0.07025605 0.02964919 0.016 0.07025605 0.02964919 -0.0158 0.07069282 0.02974961 0.016 0.07069282 0.02974961 0.016 0.07104187 0.03003072 -0.0158 0.07123308 0.03043604 0.016 0.07123308 0.03043604 0.016 0.05533427 0.03064919 -0.0158 0.05546824 0.03014919 0.016 0.05546824 0.03014919 -0.0158 0.05583427 0.02978316 0.016 0.05583427 0.02978316 0.019 0.052275 0.08457106 0.019 0.05452894 0.085175 0.019 0.05475 0.086 0.019 0.06036688 0.047 -0.0158 0.06014582 0.047825 0.019 0.05728793 0.047825 -0.0158 0.05728793 0.046175 0.019 0.06346336 0.0255 -0.0158 0.0632423 0.026325 0.016 0.05269634 0.01411332 -0.0158 0.05269634 0.01411332 0.016 0.0512435 0.01490428 -0.0158 0.0512435 0.01490428 0.016 0.05012824 0.01612598 -0.0158 0.05012824 0.01612598 -0.0158 0.04947264 0.01764471 0.016 0.07652832 0.01792887 0.016 0.07592579 0.01631164</float_array>
          <technique_common>
            <accessor source="#pos_0-array" count="4815" stride="3">
              <param name="X" type="float"/>
              <param name="Y" type="float"/>
              <param name="Z" type="float"/>
            </accessor>
          </technique_common>
        </source>
        <source id="norm_0">
          <float_array id="norm_0-array" count="1179">0 0 -1 -0.34202 0.93969 0 -0.34202 0.93969 0 -0.34202 -0.93969 -0 -0.34202 -0.93969 -0 -0.34202 0.93969 0 -0.34202 0.93969 0 -0.34202 -0.93969 -0 -0.34202 0.93969 0 -0.34202 0.93969 0 -0.34202 0.93969 0 0 1 0 0 0 1 0 0 1 -0 0 1 -0 -0 1 0 0 1 0 -0 1 0 -0 1 -0 0 1 -0 0 1 0 -0 1 -0 -0 1 0 -0 1 -0 0 1 0 0 1 -0 -0 1 0 0 1 0 0 1 -0 0 1 -0 0 1 0 0 1 0 -0 1 -0 0 1 0 0 1 0 -0 1 0 0 1 0 -0 1 0 0 1 0 0 1 0 -0 1 0 0 1 -0 0 1 0 0 1 0 -0 1 0 0 1 0 -0 1 0 0 1 0 0 1 0 -0 1 -0 0 1 -0 0 1 0 -0 1 0 -0 1 0 -0 1 -0 0 1 -0 0 1 0 -0 1 -0 0 1 0 -0 1 0 0 1 -0.34202 -0.93969 -0 -1 0 0 1 0 0 0 -1 0 0 0 1 -0 0 1 -0 0 1 0 0 1 0 0 1 0 -0 1 -0 0 1 -0 0 1 -0 0 1 0 -0 1 -0 0 1 0 0 1 -0 -0 1 -0 -0 1 0 0 1 -0 0 1 -0 0 1 -0 0 1 0 -0 1 0 0 1 0 0 1 -0 0 1 -0 0 1 0 0 1 0.25882 0 0.96593 0.70711 0 0.70711 0.96593 0 0.25882 0.96593 0 -0.25882 0.70711 0 -0.70711 0.25882 0 -0.96593 -0.25882 -0 -0.96593 -0.70711 -0 -0.70711 -0.96593 -0 -0.25882 -0.96593 0 0.25882 -0.70711 0 0.70711 -0.25882 0 0.96593 -0 0 -1 -0 0 -1 0 0 -1 -0 -0 -1 0 0 -1 -0 0 -1 0 0 -1 0 -0 -1 0 -0 -1 0 0 -1 0 0 -1 -0 0 -1 -0 0 -1 0 -0 -1 0 -0 -1 -0 0 -1 -0 -0 -1 0 0 -1 -0 -0 -1 -0 -0 -1 0 -0 -1 -0 0 -1 -0 -0 -1 0 0 -1 -0 0 -1 -0 -0 -1 0 0 -1 -0 0 -1 0 -0 -1 0 -0 -1 -0.96593 -0.25882 0 -0.7071 -0.70711 0 -0.25882 -0.96593 0 0.25882 -0.96593 0 0.7071 -0.70711 0 0.96593 -0.25882 0 0.96593 0.25882 -0 0.7071 0.70711 -0 0.25882 0.96593 -0 -0.25882 0.96593 0 -0.7071 0.70711 0 -0.96593 0.25882 0 -0.70711 -0.70711 0 0.70711 -0.70711 0 0.96593 0.25882 -0 0.70711 0.70711 -0 -0.70711 0.70711 0 -0.96593 0.25882 0 -0.96593 -0.25882 0 -0.70711 -0.70711 0 0.70711 -0.70711 0 0.96593 -0.25882 0 0.96593 0.25882 -0 0.70711 0.70711 -0 -0.70711 0.70711 0 -0.96593 0.25882 0 -0.7071 -0.70711 0 0.7071 -0.70711 0 0.96593 0.25882 -0 0.7071 0.70711 -0 -0.7071 0.70711 0 -0.96593 0.25882 0 -0 0 -1 -0 0 -1 0 0 -1 -0 0 -1 -0 0 -1 -0 -0 -1 -0 -0 -1 -0 0 -1 -0 0 -1 -0 -0 -1 -0 0 -1 -0 0 -1 -0 -0 -1 -0 0 -1 0 0 -1 0 -0 -1 -0 -0 -1 0 0 -1 0 -0 -1 -0 -0 -1 -0 -0 -1 -0 0 -1 -0 -0 -1 -0 -0 -1 0 -0 -1 0 -0.98263 0.18558 0 -0.99515 0.09837 0 -0.99995 0.01039 0 -0.99698 -0.07766 0 -0.98627 -0.16512 0 -0.98473 -0.17406 0 -0.9945 -0.10478 0 -0.99939 -0.03498 0 -0.9818 0.18992 0 -0.84014 0.54237 0 -0.57726 0.81656 0 -0.2311 0.97293 -0 0.23377 0.97229 -0 0.58398 0.81177 -0 0.84752 0.53077 0 0.97911 0.20334 0 0.96873 0.24812 0 0.9563 0.29238 0 0.94186 0.33602 0 0.98954 0.14428 0 0.98596 0.16699 0 -0.25882 -0.96593 0 -0.70711 -0.7071 0 -0.96593 -0.25882 0 -0.9998 0.02013 0 -0.99697 0.07774 0 -0.98506 0.17219 0 -0.96593 -0.25882 0 -0.70711 -0.7071 0 -0.25882 -0.96593 0 0.25882 -0.96593 0 0.70711 -0.7071 0 0.96593 -0.25882 0 0.96593 0.25882 0 0.70711 0.7071 0 -0.25882 0.96593 0 -0.70711 0.7071 0 0.25882 -0.96593 0 0.7071 -0.70711 -0 0.96593 0.25882 -0 0.7071 0.70711 0 0.25882 0.96593 0 -0.7071 0.70711 0 -0.96593 0.25882 0 0.70711 -0.70711 0 0.96593 -0.25882 0 0.96593 0.25882 0 -0.96593 0.25882 0 -0.35041 0.9366 0 -0.73899 0.67372 0 -0.96498 0.26232 0 -0.97834 -0.207 0 -0.77611 -0.63059 -0 0.99939 0.03498 -0 0.9945 0.10478 -0 0.98473 0.17407 -0 0.98627 0.16513 -0 0.99698 0.07766 0 0.99995 -0.01039 0 0.99515 -0.09837 0 0.98263 -0.18558 0 0.98142 -0.19187 0 0.99308 -0.1174 0 -0.92506 0.37983 0 -0.99118 -0.13255 0 -0.79274 -0.60955 0 -0.38254 -0.92394 0 -0.35248 -0.93582 0 -0.73003 -0.68342 0 -0.9569 -0.29043 0 -0.98671 0.16248 0 -0.81323 0.58195 0 -0.4722 0.88149 0 -0.03415 0.99942 0 -0.06533 0.99786 0 -0.55245 0.83354 0 -0.89387 0.44833 0 -0.99846 -0.05548 0 -0.83876 -0.5445 0 -0.45692 -0.88951 0 -0.45482 -0.89058 0 -0.83445 -0.55108 0 -0.99765 -0.06859 0 -0.90201 0.43171 0 -0.57197 0.82028 0 -0.09407 0.99557 0 -0.06437 0.99793 0 -0.49699 0.86776 0 -0.8283 0.56029 0 -0.99036 0.1385 0 -0.95023 -0.31155 0 -0.71602 -0.69808 0 -0.33559 -0.94201 0 -0.36343 -0.93162 0 -0.77564 -0.63117 0 -0.98596 -0.16698 0 -0.94012 0.34085 0 -0.65008 0.75987 0 -0.19083 0.98162 0 -0.162 0.98679 0 -0.57941 0.81503 0 -0.87905 0.47673 0 -0.99915 0.04117 0 -0.9153 -0.40278 0 -0.64431 -0.76476 0 -0.24219 -0.97023 0 -0.27126 -0.96251 0 -0.71008 -0.70412 0 -0.96502 -0.26218 0 -0.96889 0.24749 0 -0.72117 0.69276 0 -0.28576 0.9583 0 -0.25697 0.96642 0 -0.65634 0.75447 0 -0.92138 0.38866 0 -0.9984 -0.05646 0 -0.87163 -0.49016 0 -0.56676 -0.82388 0 -0.14668 -0.98918 0 -0.17584 -0.98442 0 -0.63807 -0.76998 0 -0.9348 -0.35517 0 -0.98841 0.15179 0 -0.78523 0.6192 0 -0.37787 0.92586 0 -0.35033 0.93663 0 -0.72668 0.68697 0 -0.95487 0.29701 0 -0.98811 -0.15373 0 -0.81974 -0.57274 0 -0.48387 -0.87514 0 -0.04908 -0.9988 0 -0.08118 -0.9967 0 -0.56547 -0.82477 0 -0.90047 -0.43492 0 -0.99758 0.0696 0 -0.83128 0.55585 0 -0.44536 0.89535 0 -0.44295 0.89655 0 -0.82727 0.56181 0 -0.99665 0.08181 0 -0.90764 -0.41975 0 -0.58337 -0.8122 0 -0.10814 -0.99414 0 -0.07773 -0.99697 0 -0.50766 -0.86156 0 -0.83476 -0.55061 0 -0.99178 -0.12794 0 -0.94721 0.32063 0 -0.71007 0.70413 0 -0.32838 0.94455 0 -0.35759 0.93388 0 -0.77188 0.63576 0 -0.98518 0.17151 0 -0.94141 -0.33727 0 -0.65219 -0.75805 0 -0.19279 -0.98124 0 -0.19176 -0.98144 0 -0.64942 -0.76043 0 -0.93953 -0.34248 0 -0.98648 0.16387 0 -0.77853 0.62761 0 -0.36856 0.9296 0 -0.11373 -0.99351 -0 0.19761 0.98028 -0 0.94091 0.33865 -0 0.95382 0.30037 -0 0.96517 0.26161 -0 0.97126 0.23803 -0 0.97587 0.21837 -0 0.98314 0.18288 0 -0.99208 0.12563 0 -0.98089 0.19456 0 -0.95623 -0.29262 0 0.25882 -0.96593 0 0.70711 -0.70711 0 0.96593 -0.25882 0 -0.89629 -0.44347 0 -0.61847 -0.78581 0 -0.22044 -0.9754 0 -0.972 -0.23499 0 -0.22408 0.97457 0 -0.62723 0.77883 0 -0.90441 0.42666 0 -0.99994 -0.01121 -0 0.96593 0.25882 -0 0.70711 0.70711 -0 0.25882 0.96593 -0 0.25882 0.96593 0 -0.96593 0.25882 0 -0.96593 -0.25882 0 -0.7071 -0.70711 0 0.96593 -0.25881 0 -0.96593 -0.25882 0 -0.70711 -0.70711 0 -0.16542 -0.98622 0 -0.47815 -0.87828 0 -0.73855 -0.6742 0 -0.91811 -0.39633 0 -0.99718 -0.07508 0 0.99995 -0.00974 0 0.93708 -0.34912 0 0.76256 -0.64692 0 0.49719 -0.86764 0 0.17258 -0.985</float_array>
          <technique_common>
            <accessor source="#norm_0-array" count="1179" stride="3">
              <param name="X" type="float"/>
              <param name="Y" type="float"/>
              <param name="Z" type="float"/>
            </accessor>
          </technique_common>
        </source>
        <vertices id="vert_0">
          <input semantic="POSITION" source="#pos_0"/>
        </vertices>
        <triangles count="2000" material="mat_0">
          <input semantic="VERTEX" source="#vert_0" offset="0"/>
          <input semantic="NORMAL" source="#norm_0" offset="1"/>
          <p>0 0 1 0 2 0 2 0 1 0 3 0 4 0 5 0 6 0 6 0 5 0 7 0 5 0 8 0 9 0 10 0 11 0 12 0 13 0 14 0 15 0 16 0 17 0 18 0 17 0 19 0 11 0 17 0 11 0 18 0 18 0 11 0 10 0 7 0 20 0 21 0 21 0 20 0 11 0 21 0 11 0 19 0 21 0 19 0 1 0 1 0 19 0 3 0 9 0 22 0 23 0 24 0 25 0 5 0 24 0 26 0 25 0 25 0 26 0 11 0 11 0 26 0 12 0 27 0 28 0 29 0 30 0 31 0 32 0 32 0 31 0 33 0 33 0 31 0 34 0 33 0 34 0 17 0 17 0 34 0 19 0 4 0 35 0 5 0 5 0 35 0 36 0 5 0 36 0 0 0 32 0 37 0 5 0 38 0 39 0 40 0 41 0 42 0 43 0 7 0 44 0 20 0 5 0 37 0 24 0 24 0 37 0 45 0 46 0 47 0 15 0 0 0 2 0 48 0 0 0 48 0 5 0 5 0 48 0 30 0 5 0 30 0 32 0 49 0 50 0 51 0 16 0 18 0 52 0 52 0 18 0 53 0 52 0 53 0 45 0 45 0 53 0 24 0 54 0 55 0 56 0 39 0 57 0 58 0 5 0 41 0 56 0 56 0 41 0 43 0 59 0 60 0 56 0 61 0 62 0 39 0 9 0 23 0 5 0 63 0 64 0 28 0 65 0 66 0 67 0 56 0 55 0 39 0 44 0 7 0 5 0 44 0 5 0 39 0 65 0 67 0 28 0 23 0 68 0 13 0 23 0 13 0 5 0 69 0 41 0 70 0 56 0 39 0 5 0 13 0 15 0 5 0 51 0 50 0 28 0 51 0 28 0 5 0 51 0 5 0 15 0 51 0 15 0 47 0 70 0 41 0 28 0 28 0 41 0 5 0 71 1 72 1 58 1 58 1 72 1 73 1 74 2 75 2 76 2 76 2 75 2 77 2 78 3 79 3 80 3 80 3 79 3 46 3 81 1 82 1 47 1 47 1 82 1 83 1 84 3 85 3 86 3 86 3 85 3 49 3 87 1 88 1 50 1 50 1 88 1 89 1 90 4 91 4 92 4 92 4 91 4 29 4 93 5 94 5 27 5 27 5 94 5 95 5 96 3 97 3 98 3 98 3 97 3 63 3 99 6 100 6 64 6 64 6 100 6 101 6 102 3 103 3 104 3 104 3 103 3 105 3 106 6 107 6 108 6 108 6 107 6 109 6 110 4 111 4 112 4 112 4 111 4 70 4 113 1 114 1 69 1 69 1 114 1 115 1 116 4 117 4 118 4 118 4 117 4 42 4 119 1 120 1 43 1 43 1 120 1 121 1 122 4 123 4 124 4 124 4 123 4 59 4 125 6 126 6 60 6 60 6 126 6 127 6 128 3 129 3 130 3 130 3 129 3 54 3 131 6 132 6 55 6 55 6 132 6 133 6 134 3 135 3 136 3 136 3 135 3 40 3 137 1 138 1 38 1 38 1 138 1 139 1 140 3 141 3 142 3 142 3 141 3 61 3 143 1 144 1 62 1 62 1 144 1 145 1 146 7 147 7 148 7 148 7 147 7 57 7 149 8 150 8 151 8 151 8 150 8 152 8 153 3 154 3 155 3 155 3 154 3 156 3 157 9 158 9 159 9 159 9 158 9 160 9 161 7 162 7 163 7 163 7 162 7 164 7 165 10 166 10 167 10 167 10 166 10 168 10 169 11 170 11 11 11 11 11 170 11 25 11 171 12 172 12 173 12 170 13 174 13 175 13 154 14 176 14 149 14 177 15 178 15 169 15 169 16 178 16 179 16 169 17 179 17 170 17 170 14 179 14 180 14 181 14 182 14 183 14 181 14 183 14 184 14 184 14 183 14 174 14 184 14 174 14 172 14 172 18 174 18 170 18 185 19 186 19 187 19 182 20 181 20 188 20 188 21 181 21 189 21 189 14 181 14 190 14 174 22 191 22 175 22 175 14 191 14 192 14 193 14 194 14 195 14 196 23 197 23 170 23 170 24 197 24 172 24 172 25 197 25 173 25 198 14 199 14 193 14 200 26 186 26 81 26 199 14 198 14 201 14 201 14 198 14 202 14 201 27 202 27 173 27 173 28 202 28 171 28 74 29 203 29 200 29 170 14 180 14 204 14 170 30 204 30 196 30 196 31 204 31 194 31 194 32 204 32 205 32 194 14 205 14 195 14 200 33 81 33 79 33 162 14 176 14 157 14 192 34 176 34 175 34 175 35 176 35 206 35 177 36 169 36 195 36 195 37 169 37 189 37 195 14 189 14 193 14 193 14 189 14 190 14 193 14 190 14 198 14 200 38 203 38 176 38 187 14 207 14 185 14 208 14 192 14 188 14 208 39 188 39 189 39 97 40 186 40 99 40 209 41 210 41 211 41 192 42 212 42 213 42 213 43 212 43 135 43 192 44 213 44 214 44 192 45 214 45 209 45 209 46 214 46 125 46 212 47 143 47 141 47 215 48 216 48 217 48 214 49 213 49 218 49 209 46 125 46 123 46 176 50 192 50 200 50 208 51 215 51 192 51 186 52 219 52 103 52 143 53 212 53 217 53 217 54 212 54 192 54 217 55 192 55 215 55 211 14 113 14 111 14 219 14 106 14 103 14 93 56 91 56 186 56 186 57 200 57 192 57 211 58 192 58 209 58 186 59 192 59 211 59 186 60 211 60 219 60 208 61 189 61 44 61 44 61 189 61 20 61 189 62 169 62 20 62 20 62 169 62 11 62 5 63 25 63 175 63 175 63 25 63 170 63 220 3 203 3 221 3 221 3 203 3 222 3 167 64 168 64 175 64 175 64 168 64 5 64 223 63 224 63 225 63 225 63 224 63 226 63 227 63 228 63 223 63 223 63 228 63 224 63 228 63 227 63 229 63 228 63 229 63 230 63 228 63 230 63 231 63 231 63 230 63 232 63 226 63 233 63 234 63 226 63 234 63 225 63 232 63 235 63 236 63 225 63 234 63 232 63 232 63 234 63 235 63 232 63 236 63 231 63 231 63 236 63 237 63 237 63 238 63 231 63 231 63 238 63 226 63 226 63 238 63 233 63 239 14 240 14 241 14 242 14 243 14 239 14 244 14 240 14 239 14 239 14 243 14 245 14 239 14 245 14 246 14 239 14 246 14 247 14 247 14 246 14 248 14 247 14 248 14 249 14 247 14 249 14 224 14 224 14 249 14 250 14 242 14 239 14 241 14 242 14 241 14 251 14 224 14 252 14 226 14 226 14 252 14 253 14 224 14 250 14 251 14 226 14 253 14 239 14 239 14 253 14 244 14 251 14 241 14 254 14 251 14 254 14 224 14 224 14 254 14 252 14 255 62 256 62 257 62 258 62 259 62 239 62 257 62 256 62 260 62 257 62 260 62 261 62 257 62 262 62 255 62 262 62 263 62 255 62 255 62 263 62 247 62 247 62 263 62 264 62 265 62 258 62 266 62 266 62 258 62 239 62 239 62 259 62 256 62 256 62 259 62 267 62 267 62 260 62 256 62 257 62 261 62 265 62 265 62 261 62 258 62 247 62 264 62 268 62 247 62 268 62 239 62 239 62 268 62 266 62 231 0 269 0 270 0 271 0 228 0 272 0 272 0 228 0 231 0 272 0 231 0 270 0 228 0 271 0 255 0 271 0 273 0 255 0 255 0 273 0 274 0 256 0 275 0 231 0 231 0 275 0 269 0 276 0 277 0 270 0 270 0 277 0 272 0 278 0 279 0 255 0 255 0 279 0 256 0 256 0 279 0 280 0 256 0 280 0 275 0 255 0 274 0 276 0 255 0 276 0 278 0 278 0 276 0 270 0 239 64 256 64 226 64 226 64 256 64 231 64 255 11 247 11 228 11 228 11 247 11 224 11 281 64 282 64 283 64 283 64 282 64 284 64 285 64 286 64 287 64 288 64 281 64 289 64 289 64 281 64 283 64 290 64 291 64 292 64 292 64 291 64 293 64 292 64 293 64 294 64 294 64 293 64 287 64 294 64 287 64 286 64 293 64 291 64 295 64 293 64 295 64 288 64 288 64 295 64 281 64 281 64 295 64 296 64 297 63 283 63 284 63 298 0 299 0 300 0 300 0 299 0 301 0 302 62 303 62 286 62 286 0 304 0 305 0 306 63 307 63 294 63 294 63 307 63 308 63 290 14 309 14 310 14 290 14 310 14 296 14 296 14 310 14 311 14 296 14 311 14 312 14 313 0 314 0 284 0 315 11 316 11 317 11 317 11 316 11 318 11 315 11 319 11 316 11 320 11 321 11 322 11 322 11 321 11 323 11 322 11 323 11 324 11 324 11 323 11 325 11 315 11 325 11 326 11 327 11 319 11 315 11 327 11 315 11 326 11 328 11 323 11 319 11 328 11 319 11 327 11 323 11 328 11 325 11 325 11 328 11 326 11 329 11 303 11 330 11 331 11 297 11 332 11 329 11 330 11 333 11 334 11 332 11 297 11 297 11 331 11 335 11 336 11 337 11 333 11 333 11 337 11 329 11 338 11 339 11 332 11 332 11 339 11 340 11 332 11 340 11 331 11 340 11 339 11 341 11 340 11 341 11 336 11 336 11 341 11 337 11 337 11 341 11 342 11 343 62 344 62 345 62 346 0 347 0 297 0 297 0 347 0 334 0 303 62 302 62 330 62 348 0 349 0 303 0 338 14 332 14 350 14 338 14 350 14 342 14 342 14 350 14 351 14 342 14 351 14 352 14 353 64 354 64 355 64 356 64 353 64 355 64 357 64 358 64 359 64 355 64 360 64 356 64 353 64 356 64 361 64 361 64 356 64 362 64 363 64 364 64 365 64 365 64 364 64 359 64 365 64 359 64 358 64 362 64 364 64 366 64 367 64 361 64 362 64 367 64 362 64 366 64 363 64 368 64 364 64 364 64 368 64 366 64 361 64 367 64 363 64 363 64 367 64 368 64 317 64 318 64 316 64 369 64 320 64 322 64 369 64 322 64 325 64 319 64 315 64 316 64 316 64 315 64 317 64 317 64 315 64 370 64 325 64 371 64 369 64 372 64 319 64 373 64 373 64 319 64 371 64 325 64 315 64 374 64 325 64 374 64 373 64 325 64 373 64 371 64 319 64 372 64 315 64 315 64 372 64 374 64 314 0 313 0 375 0 282 62 376 62 377 62 377 62 376 62 378 62 304 0 286 0 379 0 306 11 379 11 380 11 381 11 382 11 306 11 381 11 306 11 380 11 382 11 383 11 306 11 384 11 385 11 377 11 377 11 385 11 386 11 377 11 386 11 314 11 387 11 383 11 382 11 388 11 384 11 383 11 388 11 383 11 387 11 387 11 382 11 389 11 389 11 382 11 385 11 384 11 388 11 385 11 385 11 388 11 389 11 390 63 391 63 392 63 392 63 391 63 393 63 394 65 395 65 396 65 397 14 398 14 399 14 394 66 396 66 400 66 400 67 396 67 401 67 400 68 401 68 402 68 400 69 402 69 397 69 397 14 402 14 403 14 404 70 405 70 406 70 406 71 405 71 394 71 394 72 405 72 395 72 397 14 399 14 406 14 399 73 407 73 406 73 406 74 407 74 404 74 403 14 408 14 398 14 403 14 398 14 397 14 407 75 409 75 404 75 404 76 409 76 410 76 404 77 410 77 403 77 403 78 410 78 408 78 411 79 412 79 413 79 411 66 413 66 414 66 414 80 413 80 415 80 416 81 417 81 411 81 411 82 417 82 412 82 418 14 419 14 415 14 415 83 419 83 414 83 416 14 420 14 417 14 417 14 420 14 421 14 419 84 422 84 414 84 414 85 422 85 423 85 423 14 422 14 424 14 423 14 424 14 416 14 416 14 424 14 420 14 419 86 418 86 425 86 419 87 425 87 421 87 421 88 425 88 417 88 426 62 427 62 428 62 428 62 427 62 429 62 430 62 431 62 432 62 432 62 431 62 433 62 434 0 346 0 435 0 435 0 346 0 314 0 436 89 386 89 437 89 436 89 437 89 438 89 438 90 437 90 439 90 438 90 439 90 440 90 440 91 439 91 441 91 440 91 441 91 442 91 442 92 441 92 443 92 442 92 443 92 444 92 444 93 443 93 445 93 444 93 445 93 446 93 446 94 445 94 447 94 446 94 447 94 448 94 449 95 380 95 450 95 449 95 450 95 451 95 451 96 450 96 452 96 451 96 452 96 453 96 453 97 452 97 454 97 453 97 454 97 455 97 455 98 454 98 456 98 455 98 456 98 457 98 457 99 456 99 458 99 457 99 458 99 459 99 459 100 458 100 460 100 459 100 460 100 461 100 349 0 462 0 379 0 379 0 462 0 463 0 380 64 379 64 393 64 416 64 464 64 465 64 435 64 314 64 447 64 435 64 447 64 386 64 386 64 466 64 464 64 464 64 466 64 465 64 465 64 466 64 467 64 467 64 466 64 468 64 460 64 380 64 393 64 460 64 393 64 468 64 468 64 393 64 467 64 467 64 393 64 391 64 464 64 435 64 386 64 448 11 346 11 434 11 469 11 470 11 428 11 471 11 462 11 472 11 473 11 474 11 349 11 434 11 470 11 436 11 434 11 436 11 448 11 462 11 349 11 474 11 462 11 474 11 472 11 472 11 474 11 469 11 469 11 474 11 475 11 469 11 475 11 470 11 470 11 475 11 436 11 469 14 476 14 472 14 472 14 476 14 467 14 297 63 477 63 283 63 478 62 287 62 479 62 480 11 364 11 365 11 480 11 365 11 358 11 364 11 363 11 365 11 364 11 481 11 363 11 363 11 481 11 482 11 363 11 482 11 361 11 482 11 483 11 362 11 362 11 483 11 364 11 364 11 483 11 481 11 361 11 482 11 362 11 361 11 362 11 353 11 353 11 362 11 356 11 353 11 356 11 355 11 353 11 355 11 354 11 344 62 343 62 484 62 349 0 348 0 485 0 329 63 486 63 487 63 487 63 486 63 488 63 343 64 346 64 448 64 489 64 490 64 491 64 343 64 448 64 490 64 490 64 492 64 343 64 493 64 489 64 491 64 494 64 492 64 490 64 494 64 490 64 489 64 492 64 494 64 495 64 495 64 494 64 493 64 495 64 493 64 491 64 495 64 491 64 487 64 487 64 491 64 461 64 487 64 461 64 349 64 496 0 497 0 498 0 498 101 497 101 499 101 500 102 501 102 502 102 502 103 501 103 503 103 503 104 504 104 505 104 497 0 496 0 506 0 497 0 506 0 503 0 503 105 506 105 507 105 501 106 500 106 508 106 501 0 508 0 499 0 499 107 508 107 509 107 510 108 511 108 512 108 510 109 512 109 507 109 507 110 512 110 503 110 503 111 512 111 504 111 499 112 513 112 514 112 499 113 514 113 515 113 516 114 517 114 518 114 518 115 517 115 519 115 498 116 499 116 520 116 520 117 499 117 515 117 520 118 515 118 521 118 521 119 515 119 516 119 521 120 516 120 510 120 510 121 516 121 518 121 510 122 518 122 511 122 518 123 522 123 523 123 523 124 522 124 524 124 523 125 524 125 525 125 525 125 524 125 502 125 525 0 502 0 503 0 525 126 503 126 505 126 513 127 499 127 526 127 526 128 499 128 509 128 526 0 509 0 527 0 526 0 527 0 519 0 519 129 527 129 518 129 518 130 527 130 522 130 528 11 529 11 530 11 530 11 529 11 501 11 531 11 532 11 499 11 499 11 532 11 533 11 534 11 501 11 499 11 534 11 499 11 533 11 534 11 533 11 535 11 536 11 537 11 530 11 536 11 530 11 501 11 536 11 501 11 534 11 538 64 539 64 540 64 541 64 542 64 540 64 540 64 542 64 497 64 540 64 497 64 538 64 543 64 544 64 503 64 503 64 544 64 545 64 503 64 538 64 497 64 538 64 503 64 545 64 538 64 545 64 546 64 546 64 545 64 547 64 548 14 549 14 550 14 551 14 534 14 552 14 551 14 552 14 553 14 551 14 554 14 534 14 534 14 554 14 555 14 554 14 556 14 555 14 555 14 556 14 557 14 553 14 552 14 558 14 552 14 538 14 559 14 559 14 560 14 552 14 552 14 560 14 561 14 562 14 563 14 538 14 538 14 563 14 559 14 550 14 564 14 548 14 549 14 565 14 566 14 566 14 565 14 567 14 567 14 565 14 568 14 569 14 570 14 571 14 570 14 569 14 572 14 573 14 574 14 575 14 576 14 577 14 562 14 573 14 575 14 562 14 562 14 575 14 576 14 562 14 577 14 578 14 562 14 578 14 579 14 579 14 578 14 580 14 581 14 578 14 582 14 583 14 584 14 585 14 585 14 584 14 586 14 586 14 584 14 587 14 581 14 582 14 583 14 581 14 583 14 585 14 588 14 589 14 585 14 585 14 589 14 590 14 557 14 581 14 555 14 555 14 581 14 591 14 592 14 591 14 581 14 585 14 590 14 581 14 581 14 590 14 592 14 534 14 555 14 593 14 534 14 593 14 594 14 534 14 594 14 595 14 594 14 596 14 595 14 595 14 596 14 588 14 597 14 586 14 573 14 573 14 586 14 587 14 573 14 587 14 574 14 598 14 599 14 566 14 566 14 599 14 600 14 566 14 600 14 573 14 567 14 598 14 566 14 573 14 600 14 597 14 585 14 586 14 601 14 601 14 602 14 585 14 585 14 602 14 603 14 603 14 602 14 604 14 604 14 567 14 603 14 605 14 606 14 571 14 607 14 585 14 571 14 607 14 571 14 606 14 570 14 605 14 571 14 607 14 608 14 585 14 608 14 609 14 585 14 585 14 609 14 595 14 585 14 595 14 588 14 610 14 611 14 570 14 595 14 609 14 612 14 595 14 612 14 613 14 595 14 613 14 610 14 610 14 613 14 611 14 614 14 546 14 615 14 614 14 615 14 616 14 546 14 614 14 617 14 546 14 617 14 618 14 618 14 617 14 619 14 618 14 619 14 620 14 549 14 566 14 618 14 549 14 618 14 550 14 550 14 618 14 620 14 550 14 620 14 621 14 550 14 621 14 622 14 615 14 623 14 616 14 622 14 624 14 550 14 550 14 624 14 615 14 615 14 624 14 623 14 625 14 626 14 615 14 615 14 626 14 627 14 615 14 627 14 550 14 550 14 627 14 628 14 568 14 564 14 567 14 567 14 564 14 550 14 567 14 550 14 629 14 629 14 550 14 628 14 630 14 625 14 615 14 631 14 632 14 572 14 572 14 632 14 630 14 630 14 632 14 633 14 630 14 633 14 625 14 628 14 634 14 629 14 629 14 634 14 572 14 572 14 634 14 631 14 630 14 635 14 636 14 637 14 572 14 638 14 638 14 572 14 630 14 638 14 630 14 636 14 572 14 637 14 639 14 536 14 640 14 635 14 641 14 642 14 643 14 641 14 643 14 644 14 641 14 644 14 536 14 536 14 644 14 640 14 563 14 562 14 579 14 558 14 552 14 581 14 581 14 552 14 578 14 578 14 552 14 561 14 578 14 561 14 580 14 629 14 603 14 567 14 603 14 571 14 585 14 558 14 581 14 557 14 639 14 645 14 572 14 572 14 645 14 641 14 572 14 641 14 570 14 570 14 641 14 610 14 645 14 642 14 641 14 610 14 641 14 595 14 630 14 536 14 635 14 532 62 541 62 533 62 533 62 541 62 540 62 544 63 528 63 545 63 545 63 528 63 530 63 529 62 543 62 501 62 501 62 543 62 503 62 529 0 646 0 543 0 543 0 646 0 647 0 648 0 543 0 649 0 649 0 543 0 647 0 649 0 647 0 650 0 528 0 651 0 529 0 529 0 651 0 652 0 529 0 652 0 646 0 653 0 544 0 654 0 654 0 544 0 543 0 654 0 543 0 648 0 544 0 653 0 655 0 544 0 655 0 528 0 528 0 655 0 656 0 647 0 657 0 650 0 650 0 657 0 658 0 650 0 658 0 656 0 656 0 658 0 659 0 656 0 659 0 528 0 528 0 659 0 651 0 542 63 531 63 497 63 497 63 531 63 499 63 531 0 660 0 661 0 542 0 662 0 663 0 542 0 663 0 531 0 531 0 663 0 660 0 660 0 663 0 664 0 660 0 664 0 665 0 541 0 666 0 542 0 542 0 666 0 667 0 542 0 667 0 662 0 668 0 669 0 532 0 532 0 669 0 541 0 541 0 669 0 666 0 670 0 532 0 531 0 670 0 531 0 661 0 670 0 671 0 532 0 532 0 671 0 668 0 671 0 672 0 668 0 668 0 672 0 664 0 664 0 672 0 673 0 664 0 673 0 665 0 660 131 674 131 675 131 675 131 674 131 676 131 675 132 676 132 677 132 677 132 676 132 678 132 677 133 678 133 679 133 679 133 678 133 680 133 679 134 680 134 681 134 681 134 680 134 682 134 681 135 682 135 671 135 671 135 682 135 683 135 671 136 683 136 684 136 684 136 683 136 685 136 684 137 685 137 686 137 686 137 685 137 687 137 686 138 687 138 672 138 672 138 687 138 688 138 672 139 688 139 673 139 673 139 688 139 558 139 673 140 558 140 665 140 665 140 558 140 689 140 665 141 689 141 690 141 690 141 689 141 691 141 690 142 691 142 660 142 660 142 691 142 674 142 692 131 693 131 694 131 694 131 693 131 695 131 694 143 695 143 696 143 696 143 695 143 697 143 696 133 697 133 698 133 698 133 697 133 699 133 698 134 699 134 668 134 668 134 699 134 700 134 668 144 700 144 669 144 669 144 700 144 560 144 669 136 560 136 701 136 701 136 560 136 702 136 701 145 702 145 703 145 703 145 702 145 704 145 703 146 704 146 705 146 705 146 704 146 706 146 705 139 706 139 667 139 667 139 706 139 563 139 667 140 563 140 707 140 707 140 563 140 708 140 707 147 708 147 709 147 709 147 708 147 710 147 709 148 710 148 692 148 692 148 710 148 693 148 711 149 712 149 655 149 655 149 712 149 713 149 655 150 713 150 714 150 714 150 713 150 715 150 714 133 715 133 716 133 716 133 715 133 717 133 716 134 717 134 650 134 650 134 717 134 718 134 650 151 718 151 719 151 719 151 718 151 720 151 719 152 720 152 649 152 649 152 720 152 721 152 649 153 721 153 722 153 722 153 721 153 723 153 722 154 723 154 724 154 724 154 723 154 725 154 724 139 725 139 654 139 654 139 725 139 549 139 654 140 549 140 726 140 726 140 549 140 727 140 726 155 727 155 728 155 728 155 727 155 729 155 728 156 729 156 711 156 711 156 729 156 712 156 730 149 731 149 659 149 659 149 731 149 732 149 659 157 732 157 651 157 651 157 732 157 733 157 651 133 733 133 734 133 734 133 733 133 735 133 734 134 735 134 736 134 736 134 735 134 737 134 736 158 737 158 738 158 738 158 737 158 739 158 738 152 739 152 740 152 740 152 739 152 741 152 740 159 741 159 742 159 742 159 741 159 743 159 742 160 743 160 744 160 744 160 743 160 745 160 744 139 745 139 657 139 657 139 745 139 746 139 657 140 746 140 658 140 658 140 746 140 747 140 658 161 747 161 748 161 748 161 747 161 749 161 748 162 749 162 730 162 730 162 749 162 731 162 750 163 530 163 751 163 751 164 530 164 537 164 751 0 537 0 752 0 753 165 754 165 545 165 545 166 754 166 755 166 545 167 755 167 547 167 755 168 756 168 547 168 547 169 756 169 757 169 758 170 547 170 757 170 750 171 759 171 530 171 530 172 759 172 760 172 761 173 530 173 762 173 762 174 530 174 760 174 758 175 763 175 547 175 547 176 763 176 537 176 537 0 763 0 752 0 764 177 765 177 761 177 761 178 765 178 766 178 761 179 766 179 530 179 530 180 766 180 545 180 545 181 766 181 753 181 765 182 764 182 767 182 765 183 767 183 757 183 757 184 767 184 758 184 758 0 768 0 763 0 763 0 768 0 769 0 769 185 768 185 770 185 769 186 770 186 760 186 760 187 770 187 762 187 537 63 536 63 547 63 547 63 536 63 546 63 539 0 535 0 540 0 540 0 535 0 533 0 534 62 535 62 539 62 534 62 539 62 538 62 771 63 772 63 773 63 773 63 772 63 774 63 775 63 776 63 771 63 771 63 776 63 772 63 776 63 775 63 777 63 776 63 777 63 778 63 776 63 778 63 779 63 779 63 778 63 780 63 774 63 781 63 782 63 774 63 782 63 773 63 780 63 783 63 784 63 773 63 782 63 780 63 780 63 782 63 783 63 780 63 784 63 779 63 779 63 784 63 785 63 785 63 786 63 779 63 779 63 786 63 774 63 774 63 786 63 781 63 787 14 788 14 789 14 790 14 791 14 787 14 792 14 788 14 787 14 787 14 791 14 793 14 787 14 793 14 794 14 787 14 794 14 795 14 795 14 794 14 796 14 795 14 796 14 797 14 795 14 797 14 772 14 772 14 797 14 798 14 790 14 787 14 789 14 790 14 789 14 799 14 772 14 800 14 774 14 774 14 800 14 801 14 772 14 798 14 799 14 774 14 801 14 787 14 787 14 801 14 792 14 799 14 789 14 802 14 799 14 802 14 772 14 772 14 802 14 800 14 803 62 804 62 805 62 806 62 807 62 787 62 805 62 804 62 808 62 805 62 808 62 809 62 805 62 810 62 803 62 810 62 811 62 803 62 803 62 811 62 795 62 795 62 811 62 812 62 813 62 806 62 814 62 814 62 806 62 787 62 787 62 807 62 804 62 804 62 807 62 815 62 815 62 808 62 804 62 805 62 809 62 813 62 813 62 809 62 806 62 795 62 812 62 816 62 795 62 816 62 787 62 787 62 816 62 814 62 779 0 817 0 818 0 819 0 776 0 820 0 820 0 776 0 779 0 820 0 779 0 818 0 776 0 819 0 803 0 819 0 821 0 803 0 803 0 821 0 822 0 804 0 823 0 779 0 779 0 823 0 817 0 824 0 825 0 818 0 818 0 825 0 820 0 826 0 827 0 803 0 803 0 827 0 804 0 804 0 827 0 828 0 804 0 828 0 823 0 803 0 822 0 824 0 803 0 824 0 826 0 826 0 824 0 818 0 787 64 804 64 774 64 774 64 804 64 779 64 803 11 795 11 776 11 776 11 795 11 772 11 829 62 830 62 831 62 832 62 833 62 834 62 835 62 836 62 837 62 832 62 834 62 838 62 838 62 834 62 839 62 835 62 837 62 840 62 840 62 837 62 841 62 840 62 841 62 842 62 842 62 841 62 831 62 831 62 841 62 829 62 843 62 844 62 845 62 845 62 844 62 846 62 845 62 846 62 847 62 847 62 846 62 848 62 847 62 848 62 849 62 847 62 849 62 850 62 850 62 849 62 851 62 850 62 851 62 852 62 850 62 852 62 853 62 853 62 852 62 839 62 854 62 855 62 856 62 834 62 857 62 839 62 839 62 857 62 858 62 839 62 858 62 853 62 853 62 858 62 859 62 853 62 859 62 854 62 854 62 859 62 855 62 859 62 860 62 855 62 855 62 860 62 861 62 861 62 860 62 862 62 861 62 862 62 835 62 835 62 862 62 836 62 836 62 862 62 863 62 836 62 863 62 833 62 833 62 863 62 864 62 833 62 864 62 834 62 856 62 865 62 854 62 854 62 865 62 866 62 866 62 865 62 867 62 866 62 867 62 843 62 843 62 867 62 868 62 843 62 868 62 844 62 869 62 831 62 870 62 869 62 870 62 871 62 872 62 873 62 874 62 874 62 875 62 872 62 872 62 875 62 870 62 870 62 875 62 871 62 869 62 876 62 831 62 831 62 876 62 842 62 842 62 876 62 877 62 842 62 877 62 874 62 874 62 877 62 878 62 874 62 878 62 875 62 879 62 880 62 831 62 881 62 882 62 870 62 870 62 882 62 883 62 831 62 884 62 879 62 879 62 884 62 885 62 839 62 886 62 838 62 838 62 886 62 887 62 838 62 887 62 830 62 830 62 887 62 888 62 830 62 888 62 831 62 880 62 889 62 831 62 831 62 889 62 870 62 870 62 889 62 881 62 882 62 890 62 883 62 883 62 890 62 891 62 891 62 890 62 879 62 891 62 879 62 885 62 892 63 893 63 894 63 895 63 896 63 897 63 898 63 895 63 899 63 894 63 893 63 900 63 900 63 893 63 901 63 900 63 901 63 902 63 900 63 902 63 903 63 903 63 902 63 904 63 903 63 904 63 905 63 903 63 905 63 906 63 907 63 908 63 909 63 909 63 908 63 910 63 910 63 908 63 911 63 910 63 911 63 912 63 912 63 911 63 913 63 892 63 914 63 915 63 915 63 914 63 916 63 915 63 916 63 917 63 898 63 899 63 918 63 897 63 896 63 919 63 919 63 896 63 912 63 919 63 912 63 913 63 919 63 913 63 920 63 920 63 913 63 921 63 920 63 921 63 922 63 922 63 921 63 923 63 922 63 923 63 924 63 892 63 894 63 925 63 892 63 925 63 914 63 914 63 925 63 926 63 926 63 925 63 899 63 926 63 899 63 895 63 926 63 895 63 897 63 906 63 905 63 927 63 906 63 927 63 899 63 899 63 927 63 928 63 899 63 928 63 918 63 929 63 930 63 924 63 917 63 922 63 915 63 915 63 922 63 924 63 915 63 924 63 931 63 931 63 924 63 930 63 907 63 932 63 933 63 933 63 932 63 929 63 933 63 929 63 924 63 934 63 935 63 936 63 936 63 935 63 937 63 935 63 934 63 938 63 935 63 938 63 939 63 939 63 938 63 940 63 940 63 941 63 907 63 907 63 941 63 932 63 941 63 942 63 932 63 932 63 942 63 943 63 943 63 942 63 936 63 943 63 936 63 937 63 907 63 944 63 945 63 939 63 945 63 946 63 939 63 940 63 907 63 939 63 907 63 945 63 939 63 946 63 947 63 939 63 947 63 948 63 948 63 947 63 949 63 950 63 948 63 951 63 951 63 948 63 949 63 951 63 949 63 909 63 909 63 949 63 952 63 909 63 952 63 907 63 907 63 952 63 944 63 953 188 954 188 835 188 835 188 954 188 912 188 835 189 912 189 861 189 861 189 912 189 896 189 861 190 896 190 855 190 855 190 896 190 895 190 855 191 895 191 856 191 856 191 895 191 898 191 856 192 898 192 955 192 955 192 898 192 956 192 955 193 956 193 918 193 955 193 918 193 865 193 865 194 918 194 928 194 865 194 928 194 867 194 867 195 928 195 957 195 867 195 957 195 958 195 868 64 958 64 927 64 927 64 958 64 957 64 868 196 927 196 959 196 868 196 959 196 844 196 844 197 959 197 960 197 844 197 960 197 961 197 961 198 960 198 904 198 961 198 904 198 962 198 962 199 904 199 902 199 962 199 902 199 848 199 848 200 902 200 901 200 848 200 901 200 849 200 849 201 901 201 893 201 849 201 893 201 851 201 851 202 893 202 892 202 851 202 892 202 852 202 929 203 887 203 930 203 930 204 887 204 886 204 930 204 886 204 931 204 931 205 886 205 839 205 931 205 839 205 915 205 915 206 839 206 852 206 915 206 852 206 892 206 963 207 964 207 932 207 932 207 964 207 831 207 932 208 831 208 929 208 929 208 831 208 888 208 929 203 888 203 887 203 965 11 966 11 967 11 967 11 966 11 968 11 948 0 872 0 935 0 935 0 872 0 883 0 872 209 948 209 969 209 872 209 969 209 970 209 970 210 969 210 971 210 970 210 971 210 972 210 972 211 971 211 951 211 972 211 951 211 874 211 973 64 874 64 974 64 974 64 874 64 951 64 973 212 974 212 842 212 842 212 974 212 909 212 842 213 909 213 840 213 909 213 910 213 840 213 840 214 910 214 954 214 840 214 954 214 953 214 975 62 976 62 977 62 978 62 979 62 980 62 981 62 982 62 983 62 978 62 980 62 984 62 984 62 980 62 985 62 981 62 983 62 986 62 986 62 983 62 987 62 986 62 987 62 988 62 988 62 987 62 977 62 977 62 987 62 975 62 989 62 990 62 991 62 991 62 990 62 992 62 991 62 992 62 993 62 993 62 992 62 994 62 993 62 994 62 995 62 993 62 995 62 996 62 996 62 995 62 997 62 996 62 997 62 998 62 996 62 998 62 999 62 999 62 998 62 985 62 1000 62 1001 62 1002 62 980 62 1003 62 985 62 985 62 1003 62 1004 62 985 62 1004 62 999 62 999 62 1004 62 1005 62 999 62 1005 62 1000 62 1000 62 1005 62 1001 62 1005 62 1006 62 1001 62 1001 62 1006 62 1007 62 1007 62 1006 62 1008 62 1007 62 1008 62 981 62 981 62 1008 62 982 62 982 62 1008 62 1009 62 982 62 1009 62 979 62 979 62 1009 62 1010 62 979 62 1010 62 980 62 1002 62 1011 62 1000 62 1000 62 1011 62 1012 62 1012 62 1011 62 1013 62 1012 62 1013 62 989 62 989 62 1013 62 1014 62 989 62 1014 62 990 62 1015 62 977 62 1016 62 1015 62 1016 62 1017 62 1018 62 1019 62 1020 62 1020 62 1021 62 1018 62 1018 62 1021 62 1016 62 1016 62 1021 62 1017 62 1015 62 1022 62 977 62 977 62 1022 62 988 62 988 62 1022 62 1023 62 988 62 1023 62 1020 62 1020 62 1023 62 1024 62 1020 62 1024 62 1021 62 1025 62 1026 62 977 62 1027 62 1028 62 1016 62 1016 62 1028 62 1029 62 977 62 1030 62 1025 62 1025 62 1030 62 1031 62 985 62 1032 62 984 62 984 62 1032 62 1033 62 984 62 1033 62 976 62 976 62 1033 62 1034 62 976 62 1034 62 977 62 1026 62 1035 62 977 62 977 62 1035 62 1016 62 1016 62 1035 62 1027 62 1028 62 1036 62 1029 62 1029 62 1036 62 1037 62 1037 62 1036 62 1025 62 1037 62 1025 62 1031 62 1038 63 1039 63 1040 63 1041 63 1042 63 1043 63 1044 63 1041 63 1045 63 1040 63 1039 63 1046 63 1046 63 1039 63 1047 63 1046 63 1047 63 1048 63 1046 63 1048 63 1049 63 1049 63 1048 63 1050 63 1049 63 1050 63 1051 63 1049 63 1051 63 1052 63 1053 63 1054 63 1055 63 1055 63 1054 63 1056 63 1056 63 1054 63 1057 63 1056 63 1057 63 1058 63 1058 63 1057 63 1059 63 1038 63 1060 63 1061 63 1061 63 1060 63 1062 63 1061 63 1062 63 1063 63 1044 63 1045 63 1064 63 1043 63 1042 63 1065 63 1065 63 1042 63 1058 63 1065 63 1058 63 1059 63 1065 63 1059 63 1066 63 1066 63 1059 63 1067 63 1066 63 1067 63 1068 63 1068 63 1067 63 1069 63 1068 63 1069 63 1070 63 1038 63 1040 63 1071 63 1038 63 1071 63 1060 63 1060 63 1071 63 1072 63 1072 63 1071 63 1045 63 1072 63 1045 63 1041 63 1072 63 1041 63 1043 63 1052 63 1051 63 1073 63 1052 63 1073 63 1045 63 1045 63 1073 63 1074 63 1045 63 1074 63 1064 63 1075 63 1076 63 1070 63 1063 63 1068 63 1061 63 1061 63 1068 63 1070 63 1061 63 1070 63 1077 63 1077 63 1070 63 1076 63 1053 63 1078 63 1079 63 1079 63 1078 63 1075 63 1079 63 1075 63 1070 63 1080 63 1081 63 1082 63 1082 63 1081 63 1083 63 1081 63 1080 63 1084 63 1081 63 1084 63 1085 63 1085 63 1084 63 1086 63 1086 63 1087 63 1053 63 1053 63 1087 63 1078 63 1087 63 1088 63 1078 63 1078 63 1088 63 1089 63 1089 63 1088 63 1082 63 1089 63 1082 63 1083 63 1053 63 1090 63 1091 63 1085 63 1091 63 1092 63 1085 63 1086 63 1053 63 1085 63 1053 63 1091 63 1085 63 1092 63 1093 63 1085 63 1093 63 1094 63 1094 63 1093 63 1095 63 1096 63 1094 63 1097 63 1097 63 1094 63 1095 63 1097 63 1095 63 1055 63 1055 63 1095 63 1098 63 1055 63 1098 63 1053 63 1053 63 1098 63 1090 63 1099 189 1058 189 1042 189 1100 190 1042 190 1041 190 1101 191 1041 191 1044 191 1102 192 1044 192 1103 192 1103 192 1044 192 1104 192 1103 193 1104 193 1064 193 1103 193 1064 193 1105 193 1064 194 1074 194 1106 194 1074 195 1107 195 1108 195 1109 64 1108 64 1073 64 1073 64 1108 64 1107 64 1073 196 1110 196 1111 196 1111 197 1110 197 1112 197 1112 198 1050 198 1113 198 1050 199 1048 199 1114 199 994 200 1048 200 1047 200 994 200 1047 200 995 200 1115 201 1047 201 1039 201 1039 202 1038 202 1116 202 1075 203 1033 203 1076 203 1076 204 1033 204 1032 204 1076 204 1032 204 1077 204 1077 205 1032 205 985 205 1077 205 985 205 1061 205 1061 206 985 206 998 206 1061 206 998 206 1038 206 1117 207 1118 207 1078 207 1078 207 1118 207 977 207 1078 208 977 208 1075 208 1075 208 977 208 1034 208 1075 203 1034 203 1033 203 1119 11 1120 11 1121 11 1121 11 1120 11 1122 11 1094 0 1018 0 1081 0 1081 0 1018 0 1029 0 1018 209 1094 209 1123 209 1018 209 1123 209 1124 209 1124 210 1123 210 1125 210 1124 210 1125 210 1126 210 1126 211 1125 211 1097 211 1126 211 1097 211 1020 211 1127 64 1020 64 1128 64 1128 64 1020 64 1097 64 1127 212 1128 212 988 212 988 212 1128 212 1055 212 988 213 1055 213 986 213 1055 213 1056 213 986 213 986 214 1056 214 1129 214 986 214 1129 214 1130 214 1131 215 1040 215 1132 215 1132 216 1133 216 1134 216 1135 217 1046 217 1136 217 1137 218 1138 218 1139 218 1137 219 1049 219 1140 219 1140 220 1141 220 1142 220 1143 221 1052 221 1144 221 1144 222 1145 222 1146 222 1147 223 1148 223 1149 223 1149 224 1150 224 1151 224 1152 217 1062 217 1060 217 1153 225 1060 225 1072 225 1154 226 1155 226 1156 226 1157 227 1158 227 1159 227 1160 228 1159 228 1161 228 1160 229 1162 229 1163 229 1164 223 1065 223 1066 223 1164 230 1165 230 1166 230 1166 231 1068 231 1167 231 1168 217 1069 217 1067 217 1169 225 1170 225 1171 225 1171 232 1172 232 1173 232 1173 233 1057 233 1174 233 1174 234 1175 234 1176 234 1176 228 1054 228 1177 228 1177 229 1178 229 1179 229 1179 223 1053 223 1180 223 1180 230 1181 230 1182 230 1183 235 1079 235 1184 235 1185 236 1186 236 1187 236 1187 236 1186 236 1188 236 1187 237 1188 237 1189 237 1189 237 1188 237 1190 237 1189 238 1190 238 1191 238 1191 238 1190 238 1192 238 1191 239 1192 239 1193 239 1193 239 1192 239 1194 239 1193 240 1194 240 1195 240 1195 240 1194 240 1196 240 1197 14 1195 14 1198 14 1198 14 1195 14 1196 14 1199 11 1197 11 1200 11 1200 11 1197 11 1198 11 1199 241 1200 241 1201 241 1201 241 1200 241 1202 241 1201 242 1202 242 1203 242 1203 242 1202 242 1204 242 1203 243 1204 243 1205 243 1205 243 1204 243 1206 243 1205 244 1206 244 1207 244 1205 244 1207 244 1208 244 1208 245 1207 245 1209 245 1208 245 1209 245 1210 245 1210 246 1209 246 1211 246 1210 246 1211 246 1212 246 1212 247 1211 247 1213 247 1212 247 1213 247 1214 247 1214 248 1213 248 1215 248 1214 248 1215 248 1216 248 1216 249 1215 249 1217 249 1217 249 1215 249 1218 249 1217 250 1218 250 1219 250 1219 250 1218 250 1220 250 1221 251 1222 251 1223 251 1223 251 1222 251 1224 251 1223 252 1224 252 1225 252 1225 252 1224 252 1226 252 1225 253 1226 253 1227 253 1227 253 1226 253 1228 253 1227 254 1228 254 1229 254 1229 254 1228 254 1230 254 1229 255 1230 255 1231 255 1229 255 1231 255 1232 255 1232 256 1231 256 1233 256 1232 256 1233 256 1234 256 1234 257 1233 257 1235 257 1234 257 1235 257 1236 257 1236 258 1235 258 1237 258 1236 258 1237 258 1238 258 1238 259 1237 259 1239 259 1238 259 1239 259 1240 259 1240 260 1239 260 1241 260 1240 260 1241 260 1242 260 1242 261 1241 261 1243 261 1242 261 1243 261 1244 261 1244 262 1243 262 1245 262 1245 262 1243 262 1246 262 1245 263 1246 263 1247 263 1247 263 1246 263 1248 263 1247 264 1248 264 1249 264 1249 264 1248 264 1250 264 1249 265 1250 265 1251 265 1251 265 1250 265 1252 265 1251 266 1252 266 1253 266 1253 266 1252 266 1254 266 1253 267 1254 267 1255 267 1255 267 1254 267 1256 267 1255 268 1256 268 1257 268 1255 268 1257 268 1258 268 1258 269 1257 269 1259 269 1258 269 1259 269 1260 269 1260 270 1259 270 1261 270 1260 270 1261 270 1262 270 1262 271 1261 271 1263 271 1262 271 1263 271 1264 271 1264 272 1263 272 1265 272 1264 272 1265 272 1266 272 1266 273 1265 273 1267 273 1266 273 1267 273 1268 273 1268 274 1267 274 1269 274 1269 274 1267 274 1270 274 1269 275 1270 275 1271 275 1271 275 1270 275 1272 275 1271 276 1272 276 1273 276 1273 276 1272 276 1274 276 1273 277 1274 277 1275 277 1275 277 1274 277 1276 277 1275 278 1276 278 1277 278 1277 278 1276 278 1278 278 1277 279 1278 279 1279 279 1279 279 1278 279 1280 279 1279 280 1280 280 1281 280 1281 280 1280 280 1282 280 1281 281 1282 281 1283 281 1281 281 1283 281 1284 281 1284 282 1283 282 1285 282 1284 282 1285 282 1286 282 1286 283 1285 283 1287 283 1286 283 1287 283 1288 283 1288 284 1287 284 1289 284 1288 284 1289 284 1290 284 1290 285 1289 285 1291 285 1290 285 1291 285 1292 285 1292 286 1291 286 1293 286 1292 286 1293 286 1294 286 1294 287 1293 287 1295 287 1295 287 1293 287 1296 287 1295 288 1296 288 1297 288 1297 288 1296 288 1298 288 1297 289 1298 289 1299 289 1299 289 1298 289 1300 289 1299 290 1300 290 1301 290 1301 290 1300 290 1302 290 1301 291 1302 291 1303 291 1303 291 1302 291 1304 291 1303 292 1304 292 1305 292 1305 292 1304 292 1306 292 1305 293 1306 293 1307 293 1307 293 1306 293 1308 293 1307 294 1308 294 1309 294 1307 294 1309 294 1310 294 1310 295 1309 295 1311 295 1310 295 1311 295 1312 295 1312 296 1311 296 1313 296 1312 296 1313 296 1314 296 1314 297 1313 297 1315 297 1314 297 1315 297 1316 297 1316 298 1315 298 1317 298 1316 298 1317 298 1318 298 1318 299 1317 299 1319 299 1318 299 1319 299 1320 299 1320 300 1319 300 1321 300 1321 300 1319 300 1322 300 1321 301 1322 301 1323 301 1323 301 1322 301 1324 301 1323 302 1324 302 1325 302 1325 302 1324 302 1326 302 1325 303 1326 303 1327 303 1327 303 1326 303 1328 303 1327 304 1328 304 1329 304 1329 304 1328 304 1330 304 1329 305 1330 305 1331 305 1331 305 1330 305 1332 305 1331 306 1332 306 1333 306 1333 306 1332 306 1334 306 1333 307 1334 307 1335 307 1333 307 1335 307 1336 307 1336 308 1335 308 1337 308 1336 308 1337 308 1338 308 1338 309 1337 309 1339 309 1338 309 1339 309 1340 309 1340 310 1339 310 1341 310 1340 310 1341 310 1342 310 1342 311 1341 311 1343 311 1342 311 1343 311 1344 311 1344 312 1343 312 1345 312 1344 312 1345 312 1346 312 1346 313 1345 313 1347 313 1347 313 1345 313 1348 313 1347 314 1348 314 1349 314 1349 314 1348 314 1350 314 1349 315 1350 315 1351 315 1351 315 1350 315 1352 315 1351 316 1352 316 1353 316 1353 316 1352 316 1354 316 1353 317 1354 317 1355 317 1355 317 1354 317 1356 317 1355 318 1356 318 1357 318 1357 318 1356 318 1358 318 1357 319 1358 319 1359 319 1359 319 1358 319 1360 319 1359 320 1360 320 1361 320 1359 320 1361 320 1362 320 1362 321 1361 321 1363 321 1362 321 1363 321 1364 321 1364 322 1363 322 1365 322 1364 322 1365 322 1366 322 1366 323 1365 323 1367 323 1366 323 1367 323 1368 323 1368 324 1367 324 1369 324 1368 324 1369 324 1370 324 1370 325 1369 325 1371 325 1370 325 1371 325 1372 325 1372 326 1371 326 1373 326 1373 326 1371 326 1374 326 1373 327 1374 327 1375 327 1375 327 1374 327 1376 327 1375 328 1376 328 1377 328 1377 328 1376 328 1378 328 1377 329 1378 329 1379 329 1379 329 1378 329 1380 329 1379 330 1380 330 1381 330 1381 330 1380 330 1382 330 1381 331 1382 331 1383 331 1383 331 1382 331 1384 331 1383 332 1384 332 1385 332 1383 332 1385 332 1386 332 1386 333 1385 333 1387 333 1386 333 1387 333 1388 333 1388 334 1387 334 1389 334 1388 334 1389 334 1390 334 1390 335 1389 335 1391 335 1390 335 1391 335 1392 335 1392 336 1391 336 1393 336 1392 336 1393 336 1394 336 1394 337 1393 337 1395 337 1394 337 1395 337 1396 337 1396 338 1395 338 1397 338 1396 338 1397 338 1398 338 1398 339 1397 339 1399 339 1399 339 1397 339 1400 339 1399 340 1400 340 1401 340 1401 340 1400 340 1402 340 1401 341 1402 341 1403 341 1403 341 1402 341 1404 341 1403 342 1404 342 1405 342 1405 342 1404 342 1406 342 1405 343 1406 343 1407 343 1407 343 1406 343 1408 343 1407 344 1408 344 1409 344 1409 344 1408 344 1410 344 1409 345 1410 345 1411 345 1409 345 1411 345 1412 345 1412 346 1411 346 1413 346 1412 346 1413 346 1414 346 1414 347 1413 347 1415 347 1414 347 1415 347 1416 347 1416 348 1415 348 1417 348 1416 348 1417 348 1418 348 1418 349 1417 349 1419 349 1418 349 1419 349 1420 349 1420 350 1419 350 1186 350 1420 350 1186 350 1185 350 1421 62 1195 62 1197 62 1227 62 1217 62 1225 62 1225 62 1217 62 1219 62 1225 62 1219 62 1221 62 1214 62 1251 62 1253 62 1251 62 1214 62 1217 62 1251 62 1217 62 1245 62 1245 62 1217 62 1227 62 1245 62 1227 62 1232 62 1236 62 1422 62 1245 62 1236 62 1245 62 1232 62 1423 62 1405 62 1197 62 1197 62 1405 62 1407 62 1423 62 1399 62 1405 62 1266 62 1269 62 1253 62 1253 62 1269 62 1214 62 1208 62 1424 62 1423 62 1423 62 1424 62 1381 62 1423 62 1381 62 1399 62 1399 62 1381 62 1425 62 1425 62 1381 62 1426 62 1269 62 1275 62 1214 62 1214 62 1275 62 1212 62 1212 62 1275 62 1427 62 1428 62 1429 62 1187 62 1430 62 1208 62 1210 62 1421 62 1197 62 1187 62 1187 62 1197 62 1407 62 1187 62 1407 62 1428 62 1258 62 1431 62 1266 62 1258 62 1266 62 1253 62 1432 62 1212 62 1433 62 1433 62 1212 62 1427 62 1321 62 1434 62 1210 62 1210 62 1434 62 1430 62 1212 62 1432 62 1303 62 1212 62 1303 62 1210 62 1210 62 1303 62 1305 62 1210 62 1305 62 1321 62 1321 62 1305 62 1435 62 1347 62 1436 62 1208 62 1437 62 1433 62 1427 62 1437 62 1427 62 1438 62 1435 62 1439 62 1321 62 1436 62 1355 62 1208 62 1208 62 1355 62 1373 62 1208 62 1373 62 1424 62 1208 62 1430 62 1347 62 1347 62 1430 62 1336 62 1347 62 1336 62 1440 62 1347 62 1440 62 1441 62 1373 62 1355 62 1357 62 1373 62 1357 62 1442 62 1442 62 1357 62 1443 62 1213 63 1254 63 1252 63 1215 63 1228 63 1220 63 1220 63 1228 63 1222 63 1213 63 1252 63 1215 63 1202 63 1198 63 1444 63 1198 63 1196 63 1445 63 1444 63 1446 63 1202 63 1202 63 1446 63 1204 63 1215 63 1252 63 1246 63 1215 63 1246 63 1228 63 1228 63 1246 63 1447 63 1447 63 1246 63 1448 63 1446 63 1449 63 1204 63 1204 63 1449 63 1382 63 1382 63 1449 63 1395 63 1391 63 1450 63 1382 63 1391 63 1382 63 1395 63 1188 63 1451 63 1452 63 1453 63 1213 63 1280 63 1280 63 1213 63 1211 63 1188 63 1452 63 1444 63 1188 63 1444 63 1198 63 1188 63 1198 63 1445 63 1211 63 1454 63 1280 63 1280 63 1454 63 1455 63 1213 63 1453 63 1270 63 1213 63 1270 63 1254 63 1254 63 1270 63 1456 63 1456 63 1270 63 1457 63 1382 63 1458 63 1204 63 1204 63 1458 63 1207 63 1207 63 1458 63 1374 63 1207 63 1374 63 1459 63 1306 63 1304 63 1209 63 1209 63 1304 63 1211 63 1211 63 1304 63 1454 63 1332 63 1330 63 1207 63 1207 63 1330 63 1209 63 1455 63 1460 63 1280 63 1207 63 1459 63 1348 63 1207 63 1348 63 1332 63 1332 63 1348 63 1335 63 1330 63 1324 63 1209 63 1209 63 1324 63 1306 63 1306 63 1324 63 1322 63 1306 63 1322 63 1309 63 1309 63 1322 63 1461 63 1335 63 1348 63 1462 63 1369 63 1463 63 1361 63 1369 63 1361 63 1358 63 1369 63 1358 63 1374 63 1374 63 1358 63 1459 63 1219 351 1220 351 1221 351 1221 351 1220 351 1222 351 1464 62 1465 62 1466 62 1467 62 1177 62 1468 62 1468 62 1177 62 1469 62 1468 62 1469 62 1470 62 1467 62 1468 62 1471 62 1467 62 1471 62 1171 62 1171 62 1471 62 1472 62 1171 62 1472 62 1168 62 1473 62 1474 62 1183 62 1183 62 1474 62 1475 62 1469 62 1177 62 1476 62 1469 62 1476 62 1477 62 1477 62 1476 62 1478 62 1478 62 1476 62 1183 62 1478 62 1183 62 1479 62 1479 62 1183 62 1475 62 1480 62 1464 62 1466 62 1183 62 1481 62 1473 62 1473 62 1481 62 1472 62 1472 62 1481 62 1168 62 1472 62 1482 62 1473 62 1473 62 1482 62 1483 62 1483 62 1482 62 1484 62 1483 62 1484 62 1485 62 1485 62 1484 62 1486 62 1470 62 1469 62 1487 62 1487 62 1469 62 1488 62 1488 62 1469 62 1489 62 1490 62 1491 62 1466 62 1466 62 1491 62 1492 62 1492 62 1164 62 1466 62 1466 62 1164 62 1485 62 1466 62 1485 62 1480 62 1480 62 1485 62 1486 62 1493 62 1490 62 1466 62 1485 62 1164 62 1494 62 1485 62 1494 62 1495 62 1495 62 1494 62 1496 62 1495 62 1496 62 1497 62 1497 62 1496 62 1498 62 1497 62 1498 62 1499 62 1499 62 1498 62 1490 62 1490 62 1498 62 1491 62 1500 62 1116 62 1501 62 1500 62 1501 62 1502 62 1502 62 1501 62 1495 62 1502 62 1495 62 1497 62 1500 62 1503 62 1116 62 1116 62 1503 62 1504 62 1504 62 1503 62 1493 62 1504 62 1493 62 1505 62 1466 62 1149 62 1151 62 1505 62 1493 62 1466 62 1505 62 1466 62 1151 62 1147 62 1101 62 1102 62 1147 62 1149 62 1101 62 1101 62 1149 62 1466 62 1101 62 1466 62 1100 62 1100 62 1466 62 1465 62 1100 62 1465 62 1099 62 1099 62 1465 62 1470 62 1099 62 1470 62 1487 62 1144 62 1111 62 1506 62 1506 62 1111 62 1507 62 1506 62 1507 62 1136 62 1136 62 1507 62 1114 62 1136 62 1114 62 1508 62 1508 62 1114 62 1505 62 1508 62 1505 62 1151 62 1102 62 1105 62 1147 62 1147 62 1105 62 1146 62 1146 62 1105 62 1106 62 1146 62 1106 62 1144 62 1144 62 1106 62 1109 62 1144 62 1109 62 1111 62 1509 63 1510 63 1511 63 1007 63 981 63 1512 63 1513 63 1514 63 1515 63 1516 63 1517 63 1514 63 1516 63 1514 63 1513 63 1518 63 1519 63 1514 63 1514 63 1519 63 1512 63 981 63 1515 63 1512 63 1512 63 1515 63 1514 63 1520 63 1521 63 1522 63 1520 63 1522 63 1523 63 978 63 1524 63 982 63 1525 63 1526 63 1527 63 1518 63 1514 63 1522 63 1522 63 1514 63 1528 63 1522 63 1528 63 1529 63 1522 63 1529 63 1523 63 1519 63 983 63 1512 63 1512 63 983 63 1530 63 1530 63 983 63 982 63 1530 63 982 63 1524 63 1531 63 1524 63 1520 63 1520 63 1524 63 978 63 1520 63 978 63 1521 63 1527 63 1526 63 1532 63 1527 63 1532 63 1533 63 1533 63 1532 63 1534 63 1533 63 1534 63 1535 63 1535 63 1534 63 1536 63 1535 63 1536 63 1520 63 1520 63 1536 63 1531 63 1511 63 1510 63 1527 63 1527 63 1510 63 999 63 1527 63 999 63 1000 63 1537 63 991 63 1538 63 1512 63 1525 63 1007 63 1007 63 1525 63 1527 63 1007 63 1527 63 1001 63 1001 63 1527 63 1000 63 1001 63 1000 63 1002 63 1002 63 1000 63 1011 63 1538 63 991 63 1539 63 1539 63 991 63 1540 63 1539 63 1540 63 1511 63 1511 63 1540 63 1509 63 1537 63 1538 63 1014 63 1537 63 1014 63 1000 63 1000 63 1014 63 1013 63 1000 63 1013 63 1011 63 980 63 1533 63 1541 63 980 63 1541 63 1542 63 1511 63 1543 63 997 63 980 63 1010 63 1533 63 1533 63 1010 63 1527 63 1527 63 1010 63 1544 63 1527 63 1544 63 1006 63 1527 63 1006 63 1545 63 998 63 1546 63 1547 63 998 63 1547 63 1548 63 1548 63 1547 63 1549 63 1549 63 1547 63 1541 63 1549 63 1541 63 1533 63 1546 63 998 63 1543 63 1543 63 998 63 997 63 1545 63 1006 63 1550 63 1545 63 1550 63 1551 63 1551 63 1550 63 1552 63 1552 63 1550 63 1542 63 1552 63 1542 63 1541 63 1527 63 1545 63 1543 63 1527 63 1543 63 1511 63 1553 188 1129 188 1099 188 1099 188 1129 188 1058 188 1100 189 1099 189 1042 189 1101 190 1100 190 1041 190 1102 191 1101 191 1044 191 1105 194 1064 194 1106 194 1106 195 1074 195 1108 195 1109 196 1073 196 1111 196 1111 197 1112 197 1554 197 1554 198 1112 198 1113 198 1113 199 1050 199 1114 199 1114 352 994 352 1505 352 1505 352 994 352 1511 352 1115 201 1039 201 1504 201 1504 202 1039 202 1116 202 1116 353 998 353 1548 353 1116 353 1548 353 1501 353 1501 354 1548 354 1549 354 1501 354 1549 354 1495 354 1495 355 1549 355 1555 355 1495 355 1555 355 1485 355 1485 356 1555 356 1556 356 1556 356 1555 356 1557 356 1556 357 1557 357 1483 357 1557 357 1535 357 1483 357 1483 358 1535 358 1520 358 1483 358 1520 358 1473 358 1488 359 1513 359 1515 359 1488 359 1515 359 1487 359 1487 360 1515 360 1130 360 1487 360 1130 360 1553 360 1558 0 1559 0 1560 0 1560 0 1559 0 1561 0 1500 361 1502 361 1547 361 1547 361 1502 361 1541 361 1562 14 1499 14 1552 14 1552 14 1499 14 1551 14 1563 11 1564 11 1565 11 1565 11 1564 11 1566 11 1464 362 1526 362 1567 362 1567 362 1526 362 1568 362 1567 363 1568 363 1569 363 1569 363 1568 363 1570 363 1569 364 1570 364 1465 364 1465 364 1570 364 1525 364 1464 0 1480 0 1526 0 1526 0 1480 0 1532 0 1486 365 1534 365 1571 365 1571 365 1534 365 1572 365 1571 366 1572 366 1573 366 1573 366 1572 366 1574 366 1573 367 1574 367 1480 367 1480 367 1574 367 1532 367 1486 368 1484 368 1534 368 1534 368 1484 368 1536 368 1575 369 1576 369 1577 369 1577 369 1576 369 1578 369 1577 370 1578 370 1482 370 1482 370 1578 370 1579 370 1482 371 1579 371 1580 371 1580 371 1579 371 1581 371 1580 372 1581 372 1484 372 1484 372 1581 372 1536 372 1575 14 1471 14 1576 14 1576 14 1471 14 1530 14 1470 373 1582 373 1583 373 1583 373 1582 373 1584 373 1583 374 1584 374 1585 374 1585 374 1584 374 1586 374 1585 375 1586 375 1471 375 1471 375 1586 375 1530 375 1470 11 1465 11 1582 11 1582 11 1465 11 1525 11 1135 216 1132 216 1134 216 1136 218 1138 218 1137 218 1143 220 1140 220 1142 220 1146 376 1587 376 1147 376 1147 376 1587 376 1045 376 1151 377 1588 377 1131 377 1131 377 1588 377 1589 377 1167 378 1590 378 1591 378 1591 378 1590 378 1063 378 1591 379 1063 379 1152 379 1152 379 1063 379 1062 379 1153 217 1152 217 1060 217 1154 225 1153 225 1072 225 1156 380 1592 380 1157 380 1157 380 1592 380 1158 380 1593 227 1157 227 1159 227 1593 228 1159 228 1160 228 1163 223 1065 223 1164 223 1184 381 1594 381 1595 381 1595 381 1594 381 1070 381 1595 382 1070 382 1168 382 1168 382 1070 382 1069 382 1169 217 1168 217 1067 217 1183 230 1180 230 1182 230 1514 0 1469 0 1528 0 1528 0 1469 0 1477 0 1469 383 1514 383 1596 383 1469 383 1596 383 1597 383 1597 384 1596 384 1598 384 1597 384 1598 384 1599 384 1599 385 1598 385 1600 385 1599 385 1600 385 1601 385 1601 386 1600 386 1516 386 1601 386 1516 386 1602 386 1602 387 1516 387 1513 387 1602 387 1513 387 1488 387 1473 388 1520 388 1603 388 1473 388 1603 388 1474 388 1474 389 1603 389 1604 389 1474 389 1604 389 1475 389 1475 390 1604 390 1523 390 1475 390 1523 390 1479 390 1479 391 1523 391 1529 391 1479 391 1529 391 1478 391 1478 392 1529 392 1528 392 1478 392 1528 392 1477 392</p>
        </triangles>
      </mesh>
    </geometry>
  </library_geometries>
  <library_visual_scenes>
    <visual_scene id="DefaultScene">
      <node id="node_63900803_465d_4c6c_a92f_082fa1d5bf50" type="NODE">
        <matrix>1 0 0 0 0 1 0 0 0 0 1 0 0 0 0 1</matrix>
        <node id="node_0c299447_cd09_4c41_b2cb_c9e9e673150d" type="NODE">
          <matrix>1 0 0 0 0 1 0 0 0 0 1 0 0 0 0 1</matrix>
          <node id="node_0c299447_cd09_4c41_b2cb_c9e9e673150d_mesh0" type="NODE">
            <matrix>1 0 0 0 0 1 0 0 0 0 1 0 0 0 0 1</matrix>
            <instance_geometry url="#geometry_6b006304_10dd_4f8b_8834_b1027e5b8383">
              <bind_material>
                <technique_common>
                  <instance_material symbol="mat_0" target="#mat_0"/>
                </technique_common>
              </bind_material>
            </instance_geometry>
          </node>
        </node>
      </node>
    </visual_scene>
  </library_visual_scenes>
  <scene>
    <instance_visual_scene url="#DefaultScene"/>
  </scene>
</COLLADA>
