<?xml version="1.0" encoding="UTF-8"?>
<COLLADA xmlns="http://www.collada.org/2005/11/COLLADASchema" version="1.4.1">
<!--
# File generated by ImageToStl.com - Free Image and 3D model conversion tools
-->
  <asset>
    <contributor>
      <author>ImageToStl.com</author>
      <authoring_tool>ImageToStl.com</authoring_tool>
    </contributor>
    <created>2026-04-08T11:07:02</created>
    <modified>2026-04-08T11:07:02</modified>
    <up_axis>Z_UP</up_axis>
  </asset>
  <library_effects>
    <effect id="effect_0">
        <profile_COMMON>
          <technique sid="common">
            <phong>
              <diffuse>
                <color>0.85 0.85 0.85 1</color>
              </diffuse>
              <specular>
                <color>0.05 0.05 0.05 1</color>
              </specular>
              <shininess>
                <float>64</float>
              </shininess>
            </phong>
          </technique>
        </profile_COMMON>
    </effect>
  </library_effects>
  <library_materials>
    <material id="mat_0">
      <instance_effect url="#effect_0"/>
    </material>
  </library_materials>
  <library_geometries>
    <geometry id="geometry_7baf0dff_4593_4fdf_af59_5dae192c7e04">
      <mesh>
        <source id="pos_0">
          <float_array id="pos_0-array" count="5229">0.035 0.0393 0.11385 0.035 0.0363 0.11385 0.035 0.0393 0.03315 -0.035 0.0393 0.03315 -0.035 0.0363 0.11385 -0.035 0.0393 0.11385 -0.03165849 0.0363 0.11400849 -0.035 0.0363 0.05445042 0.022 0.0363 0.09890083 0.01398144 0.0363 0.11321856 -0.01214221 0.0363 0.11491138 -0.01458144 0.0363 0.11367215 -0.0121958 0.0363 0.14158145 -0.01695852 0.0363 0.09880714 -0.021 0.0363 0.08793118 -0.0175359 0.0363 0.09516878 -0.02279332 0.0363 0.18565187 -0.01831094 0.0363 0.20538223 -0.01802669 0.0363 0.20717569 -0.0257 0.0363 0.21136035 -0.01553533 0.0363 0.22690982 -0.01797396 0.0363 0.23814389 -0.01317021 0.0363 0.23880005 0.01317021 0.0363 0.22119993 0.00309017 0.0363 0.21446466 0.01640874 0.0363 0.20799999 -0.01640874 0.0363 0.20799999 -0.00880006 0.0363 0.21682978 0.00880006 0.0363 0.24317022 0.01553533 0.0363 0.23309016 0.01662939 0.0363 0.2411114 0.02348397 0.0363 0.21963067 0.00930201 0.0363 0.24740283 -0.00309017 0.0363 0.24553533 0 0.0363 0.25 -0.00930201 0.0363 0.24740283 -0.0287268 0.0363 0.12747321 -0.02951891 0.0363 0.11708644 -0.03165849 0.0363 0.13999151 0.03006821 0.0363 0.1173685 0.0289866 0.0363 0.1267768 0.03164175 0.0363 0.13892901 0.02285355 0.0363 0.04630397 0.02379134 0.0363 0.07407718 0.03140849 0.0363 0.03274151 0.035 0.0363 0.03315 0.029 0.0363 0.0266 0.03114641 0.0363 0.02335222 0.03175 0.0363 0.01291699 0.0288 0.0363 0.01574641 0.0175359 0.0363 0.01373205 0.035 0.0363 0.002 0.0165359 0.0363 0.01 0.01985 0.0363 -0.005 0.02000849 0.0363 0.00034151 -0.024 0.0363 0.012 -0.02185 0.0363 -0 -0.01985 0.0363 -0.005 0.00361436 0.0363 0.003 -0.01376077 0.0363 0.00314641 -0.02845359 0.0363 0.01554641 -0.03156998 0.0363 0.0133835 -0.03332925 0.0363 0.03307075 -0.0288634 0.0363 0.0252366 -0.02379134 0.0363 0.03482365 -0.02344585 0.0363 0.08724959 -0.03496592 0.0363 0.1766478 -0.024 0.0363 0.15099999 -0.022 0.0363 0.06195042 -0.021 0.0363 0.03598076 -0.0175359 0.0363 0.04321837 -0.0165359 0.0363 0.04695041 0.0165359 0.0363 0.06195042 0.021 0.0363 0.07292007 0.0175359 0.0363 0.06568246 0.00926147 0.0363 0.15161777 0.0200978 0.0363 0.18498452 0.0019022 0.0363 0.15485717 0.01373503 0.0363 0.14106183 0.02327245 0.0363 0.15009224 0.02949871 0.0363 0.19718337 0.02373937 0.0363 0.18499827 -0.0105322 0.0363 0.14926057 -0.035 0.0363 0.14862749 -0.00926147 0.0363 0.15161777 -0.0019022 0.0363 0.15485717 -0.0200978 0.0363 0.18498452 0.02160224 0.0363 0.02086289 -0.035 0.0363 0.01185 -0.01438144 0.0363 0.14238143 0.035 0.0363 0.14015 0.03493185 0.0363 0.17690662 -0.02865359 0.0393 0.01629282 -0.021 0.0393 0.03598076 -0.023 0.0393 0.011 0.03156998 0.0393 0.0133835 0.0345 0.0393 0.00113397 0.02185 0.0393 -0 -0.03165849 0.0393 0.03299151 -0.01721771 0.0393 0.20758784 -0.01831094 0.0393 0.20538223 -0.01797396 0.0393 0.23814389 0.01398144 0.0393 0.11531138 0.01274221 0.0393 0.11336497 -0.01228862 0.0393 0.11545779 0.022 0.0393 0.09890083 -0.01288862 0.0393 0.11321856 -0.02348397 0.0393 0.11658248 -0.0165359 0.0393 0.09890083 -0.0175359 0.0393 0.09516878 -0.021 0.0393 0.08793118 0.021 0.0393 0.07292007 -0.00880006 0.0393 0.24317022 -0.01553533 0.0393 0.23309016 -0.00930201 0.0393 0.24740283 0.00309017 0.0393 0.24553533 0 0.0393 0.25 0.00930201 0.0393 0.24740283 0.01317021 0.0393 0.23880005 -0.01492065 0.0393 0.22381966 -0.00880006 0.0393 0.21682978 0.01640874 0.0393 0.20799999 0 0.0393 0.21384999 0.00880006 0.0393 0.21682978 0.02348397 0.0393 0.21963067 0.01553533 0.0393 0.22690982 0.01797396 0.0393 0.23814389 -0.02810718 0.0393 0.11814641 -0.029 0.0393 0.12685359 -0.03051103 0.0393 0.11684608 -0.03157925 0.0393 0.13882075 0.03175 0.0393 0.11391699 0.0291866 0.0393 0.12715 0.0315 0.0393 0.14001602 0.01378144 0.0393 0.1401422 0.02855359 0.0393 0.11722679 -0.035 0.0393 0.14015 -0.035 0.0393 0.17638898 -0.029 0.0393 0.0266 -0.03114641 0.0393 0.02335222 -0.02348397 0.0393 0.04159956 -0.0302634 0.0393 0.01391519 -0.01385359 0.0393 0.00389282 -0.01991699 0.0393 0.00025 -0.01985 0.0393 -0.005 -0.01458038 0.0393 0.0019268 0.00445359 0.0393 0.00245359 0.01985 0.0393 -0.005 0.01991699 0.0393 0.00025 0.021 0.0393 0.02096965 0.02845359 0.0393 0.01554641 0.03114641 0.0393 0.02335222 0.02862679 0.0393 0.02619282 0.03332925 0.0393 0.03307075 0.02379134 0.0393 0.07407718 0.035 0.0393 0.14862749 0.0175359 0.0393 0.06568246 0.0165359 0.0393 0.06195042 -0.0165359 0.0393 0.04695041 -0.01793788 0.0393 0.04371078 0.02285355 0.0393 0.04630397 -0.022 0.0393 0.06195042 -0.02344585 0.0393 0.08724959 0.02344787 0.0393 0.18517636 0.03493185 0.0393 0.17690662 0.02381549 0.0393 0.1504551 0.01023896 0.0393 0.14996836 0.01326182 0.0393 0.14208144 0.02054075 0.0393 0.18550466 0.0019022 0.0393 0.15485717 -0.02359909 0.0393 0.1502656 -0.02373937 0.0393 0.18499827 -0.0019022 0.0393 0.15485717 -0.00926147 0.0393 0.15161777 -0.0200978 0.0393 0.18498452 -0.0105322 0.0393 0.14926057 0.01938029 0.0393 0.01066626 -0.01465464 0.0393 0.14116183 -0.01241541 0.0393 0.14130823 -0.035 0.0393 0.002 0.035 0.0393 0.17638898 0.035 0.0363 0.17638898 -0.035 0.0363 0.17638898 -0.035 0.0363 0.14015 -0.01931852 0.0363 0.23517638 -0.01931852 0.0393 0.23517638 -0.03493185 0.0393 0.17690662 -0.03493185 0.0363 0.17690662 0.01931852 0.0393 0.23517638 0.01931852 0.0363 0.23517638 -0.032 0.0393 0.11585 -0.032 0.0363 0.11585 -0.032 0.0378 0.13815001 0.032 0.0363 0.01385 0.032 0.0393 0.01385 0.032 0.0378 0.03115 0.022 0.0378 0.09890083 -0.0165359 0.0363 0.09890083 0.024 0.0363 0.07465212 0.024 0.0363 0.09690084 0.024 0.0393 0.07465212 0.024 0.0393 0.09690084 -0.024 0.0393 0.08619913 -0.024 0.0363 0.08619913 -0.024 0.0378 0.06395041 0.0200978 0.0393 0.18498452 0.00926147 0.0393 0.15161777 0.024 0.0393 0.15099999 0.024 0.0363 0.15099999 0.024 0.0393 0.18436675 0.024 0.0363 0.18436675 -0.024 0.0393 0.18436675 -0.024 0.0363 0.18436675 -0.024 0.0393 0.15099999 0.01831094 0.0363 0.20538223 0.01831094 0.0393 0.20538223 -0.01640874 0.0393 0.20799999 -0.024 0.0393 0.012 -0.024 0.0378 0.03424871 -0.022 0.0393 0.01 -0.022 0.0363 0.01 0.0165359 0.0378 0.01 0.0175359 0.0393 0.01373205 0.022 0.0363 0.04695041 0.021 0.0363 0.02096965 -0.0175359 0.0393 0.04321837 0.024 0.0393 0.04495042 0.024 0.0378 0.0227017 0.024 0.0363 0.04495042 0 0.0022 0.1565 0 -0.0313 0.1565 0.00469095 -0.0313 0.1561113 0.00469095 0.0022 0.1561113 0.00925393 -0.0313 0.15495579 0.00925393 0.0022 0.15495579 0.0135645 -0.0313 0.153065 0.0135645 0.0022 0.153065 0.01750506 -0.0313 0.15049051 0.01750506 0.0022 0.15049051 0.02096813 -0.0313 0.14730252 0.02096813 0.0022 0.14730252 0.02385924 -0.0313 0.14358802 0.02385924 0.0022 0.14358802 0.02609954 -0.0313 0.13944831 0.02609954 0.0022 0.13944831 0.02762791 -0.0313 0.13499634 0.02762791 0.0022 0.13499634 0.02840266 -0.0313 0.13035351 0.02840266 0.0022 0.13035351 0.02840266 -0.0313 0.12564649 0.02840266 0.0022 0.12564649 0.02762791 -0.0313 0.12100367 0.02762791 0.0022 0.12100367 0.02609954 -0.0313 0.11655168 0.02609954 0.0022 0.11655168 0.02385924 -0.0313 0.11241198 0.02385924 0.0022 0.11241198 0.02096813 -0.0313 0.10869747 0.02096813 0.0022 0.10869747 0.01750506 -0.0313 0.1055095 0.01750506 0.0022 0.1055095 0.0135645 -0.0313 0.102935 0.0135645 0.0022 0.102935 0.00925393 -0.0313 0.10104421 0.00925393 0.0022 0.10104421 0.00469095 -0.0313 0.0998887 0.00469095 0.0022 0.0998887 0 -0.0313 0.0995 0 0.0022 0.0995 0.01695611 0.0006 0.11354199 0.01438202 0.0006 0.11057578 -0.00780353 0.0006 0.1041971 0.02482051 0.0006 0.13229242 -0.01734059 0.0006 0.1136465 -0.01733992 0.0006 0.14236982 -0.01433729 0.0006 0.11057657 0.02195936 0.0006 0.14002901 0.01620613 0.0006 0.14295262 0.02504543 0.0006 0.12378671 0.01421003 0.0006 0.14799306 -0.01433718 0.0006 0.14544024 -0.02069567 0.0006 0.11444208 0.00994636 0.0006 0.1051375 -0.01386945 0.0006 0.14849348 0.00784847 0.0006 0.15181911 0.02616484 0.0022 0.132062 0.02840266 0.0022 0.12799999 0.01532291 0.0022 0.15145345 0.02008324 0.0022 0.14219186 0.01532291 0.0022 0.10454655 0.00782847 0.0022 0.1041941 0.01420445 0.0022 0.10793921 0.02728294 0.0022 0.12412091 0.02081118 0.0022 0.11421426 -0.01140922 0.0022 0.1019896 -0.0192366 0.0022 0.10710348 -0.01410702 0.0022 0.10912964 0.01415195 0.0022 0.14688657 -0.01532291 0.0022 0.15145345 -0.01415952 0.0022 0.148077 -0.02154153 0.0022 0.1407651 -0.02649734 0.0022 0.13709655 0.00234547 0.0022 0.09969436 -0.00780353 0.0022 0.1041971 -0.00117274 0.0022 0.15620847 -0.00778353 0.0022 0.15182211 0.00784847 0.0022 0.15181911 -0.02763319 0.0022 0.12221208 -0.02154148 0.0022 0.11525542 -0.00469095 -0.0313 0.0998887 -0.00469095 0.0022 0.0998887 -0.00925393 -0.0313 0.10104421 -0.00925393 0.0022 0.10104421 -0.0135645 -0.0313 0.102935 -0.0135645 0.0022 0.102935 -0.01750506 -0.0313 0.1055095 -0.01750506 0.0022 0.1055095 -0.02096813 -0.0313 0.10869747 -0.02096813 0.0022 0.10869747 -0.02385924 -0.0313 0.11241198 -0.02385924 0.0022 0.11241198 -0.02609954 -0.0313 0.11655168 -0.02609954 0.0022 0.11655168 -0.02762791 -0.0313 0.12100367 -0.02762791 0.0022 0.12100367 -0.02840266 -0.0313 0.12564649 -0.02840266 0.0022 0.12564649 -0.02840266 -0.0313 0.13035351 -0.02840266 0.0022 0.13035351 -0.02762791 -0.0313 0.13499634 -0.02762791 0.0022 0.13499634 -0.02609954 -0.0313 0.13944831 -0.02609954 0.0022 0.13944831 -0.02385924 -0.0313 0.14358802 -0.02385924 0.0022 0.14358802 -0.02096813 -0.0313 0.14730252 -0.02096813 0.0022 0.14730252 -0.01750506 -0.0313 0.15049051 -0.01750506 0.0022 0.15049051 -0.0135645 -0.0313 0.153065 -0.0135645 0.0022 0.153065 -0.00925393 -0.0313 0.15495579 -0.00925393 0.0022 0.15495579 -0.00469095 -0.0313 0.1561113 -0.00469095 0.0022 0.1561113 -0.01368948 -0.0303 0.15066108 -0.01293857 -0.0303 0.14543259 0.0051212 -0.0303 0.15196064 0.00635551 -0.0303 0.14895132 0.01347973 -0.0303 0.15047133 -0.00234132 -0.0303 0.15529919 0.01388945 -0.0303 0.14492434 -0.00538906 -0.0303 0.10167697 0.00468264 -0.0303 0.1009016 0.01309076 -0.0303 0.10504465 -0.02414018 -0.0303 0.14058557 -0.0263268 -0.0303 0.1277134 0.00635551 -0.0303 0.10704869 0.01457344 -0.0303 0.11190911 -0.00702657 -0.0303 0.10555781 -0.02178864 -0.0303 0.130146 0.02414018 -0.0303 0.14058557 0.0263268 -0.0303 0.1282866 -0.02414018 -0.0303 0.11541443 -0.01347973 -0.0303 0.10552868 0.02414018 -0.0303 0.11541443 -0.01893783 -0.0303 0.11787752 0.02147566 -0.0303 0.13117775 0.02095131 -0.0303 0.12164448 -0.01631948 -0.0358 0.12172739 -0.01820614 -0.0358 0.11826862 -0.0086335 -0.0358 0.11304633 -0.00599256 -0.0358 0.10824519 0.0053358 -0.0358 0.1115781 0.00973138 -0.0358 0.10979386 0.0157742 -0.0358 0.12097687 0.01975481 -0.0358 0.12200744 0.01631948 -0.0358 0.13427261 0.01820614 -0.0358 0.13773139 0.0086335 -0.0358 0.14295366 0.00599256 -0.0358 0.14775482 -0.0053358 -0.0358 0.14442191 -0.00973138 -0.0358 0.14620614 -0.0157742 -0.0358 0.13502312 -0.01975481 -0.0358 0.13399255 -0.00184343 -0.0313 0.11991599 0.00312034 -0.0313 0.11215269 0.00436376 -0.0313 0.11698531 -0.00473206 -0.0313 0.13380778 -0.01528434 -0.0313 0.13322136 -0.01151676 -0.0313 0.12968466 0.00653467 -0.0313 0.13071661 0.01558133 -0.0313 0.13175738 0.0077174 -0.0313 0.13766952 0.00456921 -0.0338 0.12890887 -0.0043118 -0.0338 0.12670588 -0.00090887 -0.0338 0.12343079 -0.00083969 -0.0338 0.1322214 -0.00268909 -0.0373 0.14502616 -0.00021651 -0.0373 0.14061651 0.01028624 -0.0373 0.14215779 -0.01740413 -0.0373 0.12617075 -0.01408024 -0.0373 0.11777011 -0.01238823 -0.0373 0.122425 -0.01355524 -0.0373 0.12870996 -0.01589947 -0.0373 0.13507891 -0.00450501 -0.0373 0.13152291 0.00393192 -0.0373 0.13163611 -0.00209814 -0.0373 0.12276395 -0.00817539 -0.0373 0.11890913 0.00289609 -0.0373 0.12318485 0.00812485 -0.0373 0.11340913 0.00770418 -0.0373 0.11911913 0.01282995 -0.0373 0.12842533 0.01589947 -0.0373 0.12092111 0.01067622 -0.0373 0.12224976 -0.00605029 -0.0373 0.1133305 -0.01164564 -0.0373 0.14093378 0.00651734 -0.0373 0.13889934 0.01740413 -0.0373 0.12982924 0.02685948 0.0077 0.12610543 0.02624533 0.0077 0.13401696 0.01798044 0.0077 0.14274439 0.01820112 0.0077 0.113089 -0.0071565 0.0047 0.11780294 -0.01372515 0.0047 0.11496343 -0.01477928 0.0047 0.1102128 -0.0066 0.0042 0.12 -0.0164 0.0042 0.13789999 -0.0164 0.0042 0.1181 -0.0165 0.0043 0.1181 -0.0165 0.0043 0.13789999 -0.0165 0.0077 0.12799999 -0.0165 0.0077 0.138 -0.0261471 0.0077 0.13473268 -0.02652594 0.0077 0.12463366 -0.0165 0.0077 0.118 -0.01798044 0.0077 0.11325561 -0.01798044 0.0077 0.14274439 -0.01491101 0.0077 0.14620112 0.01474439 0.0077 0.14598045 -0.0072 0.0077 0.15474723 0.00451827 0.0077 0.15515152 -0.01293873 0.0086 0.10260631 -0.01293873 0.0022 0.10260631 -0.01675188 0.0022 0.10494301 -0.01675188 0.0086 0.10494301 -0.02015254 0.0022 0.10784746 -0.02015254 0.0086 0.10784746 -0.02539369 0.0086 0.11506127 -0.02539369 0.0022 0.11506127 -0.02710511 0.0022 0.11919302 -0.02710511 0.0086 0.11919302 -0.02814912 0.0086 0.12354162 -0.02814912 0.0022 0.12354162 -0.0285 0.0022 0.12800001 -0.0285 0.0086 0.12800001 -0.02814912 0.0022 0.13245839 -0.02814912 0.0086 0.13245839 -0.02710511 0.0086 0.13680698 -0.02710511 0.0022 0.13680698 -0.02539369 0.0022 0.14093873 -0.02539369 0.0086 0.14093873 -0.02305698 0.0086 0.14475188 -0.02305698 0.0022 0.14475188 -0.02015254 0.0022 0.14815255 -0.02015254 0.0086 0.14815255 -0.01675188 0.0022 0.15105699 -0.01675188 0.0086 0.15105699 -0.01293873 0.0086 0.15339369 -0.01293873 0.0022 0.15339369 -0.00880698 0.0022 0.15510511 -0.00880698 0.0086 0.15510511 -0.00708579 0.0058 0.11773223 -0.01457777 0.00625 0.11024024 -0.00141421 0.00725 0.1234038 -0.00708579 0.0047 0.13826777 -0.00141421 0.0072 0.13259619 -0.01457777 0.0062 0.14575976 0.01293873 0.0022 0.10260631 0.01293873 0.0086 0.10260631 0.01675188 0.0086 0.10494301 0.01675188 0.0022 0.10494301 0.02015254 0.0086 0.10784746 0.02015254 0.0022 0.10784746 0.02539369 0.0022 0.11506127 0.02539369 0.0086 0.11506127 0.02710511 0.0086 0.11919302 0.02710511 0.0022 0.11919302 0.02710511 0.0022 0.13680698 0.02710511 0.0086 0.13680698 0.02539369 0.0086 0.14093873 0.02539369 0.0022 0.14093873 0.02305698 0.0022 0.14475188 0.02305698 0.0086 0.14475188 0.02015254 0.0086 0.14815255 0.02015254 0.0022 0.14815255 0.01675188 0.0086 0.15105699 0.01675188 0.0022 0.15105699 0.01293873 0.0022 0.15339369 0.01293873 0.0086 0.15339369 0.00880698 0.0086 0.15510511 0.00880698 0.0022 0.15510511 0.0072 0.0077 0.10052783 0.01457777 0.0077 0.11024024 -0.01491101 0.0077 0.10979888 0.00141421 0.0077 0.1234038 -0.0072 0.0077 0.10125276 -0.0065 0.0067 0.13685356 0.00020091 0.0067 0.1239697 0.00219193 0.0067 0.13019592 0.01255331 0.0067 0.11586851 0.02008183 0.0087 0.10791817 0.01847518 0.0087 0.11195065 0.02314715 0.0087 0.12795697 0.01816861 0.0087 0.14794445 0.02520832 0.0087 0.14053555 0.01759884 0.0087 0.14362337 0.01056608 0.0087 0.15397999 -0.00170713 0.0087 0.15620653 0.00380941 0.0087 0.15406618 -0.02171657 0.0087 0.14503716 -0.02194411 0.0087 0.13813886 -0.02682302 0.0087 0.13684136 -0.02401221 0.0087 0.13083453 -0.01854867 0.0087 0.13033195 -0.02372997 0.0087 0.12505518 -0.02798346 0.0087 0.12333763 -0.02274141 0.0087 0.11902115 -0.02365215 0.0087 0.1131042 -0.01698081 0.0087 0.11025023 -0.01334443 0.0087 0.10315095 0.02809951 0.0087 0.12693197 0.01240598 0.0087 0.11479549 -0.00448627 0.0087 0.10293914 0.01568555 0.0087 0.10611986 -0.01234421 0.0087 0.11427268 -0.0009708 0.0087 0.09984151 0.00418225 0.0087 0.15153986 -0.01401668 0.0087 0.14243205 -0.01617597 0.0087 0.15054294 0.01249035 0.0087 0.14135066 0.00761367 0.0087 0.10249659 -0.00492756 0.00745 0.10953309 0.00697244 0.00745 0.11020809 0.00697244 0.00745 0.10140809 -0.00692756 0.00745 0.10140809 0.00697244 0.00615 0.10320809 0.00697244 0.00485 0.11020809 0.00697244 0.00225 0.10140809 0.00497244 0.00745 0.14648309 -0.00692756 0.00745 0.1458081 -0.00692756 0.00745 0.1546081 0.00697244 0.00745 0.1546081 -0.00617756 0.0068 0.15430811 -0.00617756 0.0068 0.14860807 0.00182244 0.0068 0.15430811 0.00182244 0.0068 0.14860807 -0.00692756 0.00615 0.1528081 -0.00692756 0.00485 0.1458081 -0.00692756 0.00225 0.1546081 -0.02020193 0.00064999 0.11596356 -0.0136022 0.00064999 0.1415423 -0.02154153 0.00064999 0.1407651 -0.01066168 0.00064999 0.15042634 -0.00460124 0.00064999 0.14343975 -0.00344832 0.00064999 0.15182127 0.02216726 0.00064999 0.12029935 0.02632036 0.00064999 0.12408336 0.02083213 0.00064999 0.1417883 0.02667771 0.00064999 0.12995148 -0.00287174 0.00064999 0.11176372 -0.00147168 0.00064999 0.10523294 0.00431288 0.00064999 0.10967142 -0.00771384 0.00064999 0.10579656 0.01378299 0.00064999 0.11022907 -0.01411121 0.00064999 0.11451302 0.0127676 0.00064999 0.11518369 0.0136971 0.00064999 0.14192337 0.00266903 0.00064999 0.14444861 0.00784847 0.00064999 0.15181911 0.01202149 0.00225 0.11414807 0.00740045 0.00225 0.10419419 0.00575924 0.00225 0.11152131 0.01384057 0.00225 0.1128058 0.02658793 0.00225 0.12624593 0.02129802 0.00225 0.11680628 0.02444348 0.00225 0.12994067 0.01326645 0.00225 0.14190595 0.00258147 0.00225 0.14487474 0.00716045 0.00225 0.15141362 -0.01406762 0.00225 0.14265767 -0.01926299 0.00225 0.11503544 -0.02154153 0.00225 0.1407651 -0.01280641 0.00225 0.11340228 -0.00252098 0.00225 0.11188211 -0.00642756 0.00225 0.1050081 -0.00577885 0.00225 0.14435422 -0.00692756 0.00225 0.15182194 0.0204598 0.00225 0.14216949 0.00622244 0.0068 0.10170809 0.00622244 0.0068 0.10740812 -0.00177756 0.0068 0.1017081 -0.00177756 0.0068 0.10740812 0.02407508 -0.0303 0.11537566 0.01303315 -0.0303 0.10522678 0.02619828 -0.0303 0.12799303 0.00108941 -0.0303 0.10086155 -0.00302398 -0.0303 0.10636897 0.01169449 -0.0303 0.11001574 0.02163284 -0.0303 0.13101108 0.01756095 -0.0303 0.14126141 0.0130875 -0.0303 0.15066822 0.02189496 -0.0303 0.14411178 -0.01324381 -0.0303 0.1508272 -0.02622327 -0.0303 0.12792157 -0.02128147 -0.0303 0.14525859 -0.012225 -0.0303 0.10483382 -0.02153876 -0.0303 0.12999587 -0.01756095 -0.0303 0.14126141 -0.02633574 -0.0303 0.12692721 -0.01409159 -0.03029989 0.1057334 -0.02008675 -0.0303 0.10936449 -0.01969872 -0.0303 0.1181912 0.00881624 -0.0303 0.147983 -0.00781403 -0.0303 0.14817035 -0.01223876 -0.0303 0.1513436 0.00435764 -0.0303 0.15505126 -0.00504338 -0.0358 0.1113742 -0.00747813 -0.0358 0.10869671 -0.01532242 -0.0358 0.11981 -0.01853095 -0.0358 0.11877269 -0.0166258 -0.0358 0.13304338 -0.01991094 -0.0358 0.13366514 -0.00819001 -0.0358 0.14332242 -0.01418788 -0.0358 0.14356336 -0.00664855 -0.0358 0.14781696 0.00504338 -0.0358 0.1446258 0.00747813 -0.0358 0.14730328 0.01532242 -0.0358 0.13619 0.01853095 -0.0358 0.13722731 0.0166258 -0.0358 0.12295662 0.01991094 -0.0358 0.12233485 0.00819001 -0.0358 0.11267757 0.01418788 -0.0358 0.11243664 0.00664855 -0.0358 0.10818306 -0.00549873 -0.0363 0.10038241 -0.00028004 -0.0363 0.1036717 -0.00674368 -0.0363 0.10507147 -0.00685003 -0.0363 0.11146256 -0.01292034 -0.0363 0.10600565 -0.02179158 -0.0363 0.11632607 -0.02211108 -0.0363 0.11056247 -0.02753018 -0.0363 0.12139059 -0.02540379 -0.0363 0.12794606 -0.02174321 -0.0363 0.14030702 -0.02644981 -0.0363 0.13747877 -0.01169926 -0.0363 0.15013996 -0.00444274 -0.0363 0.15605034 0.00175326 -0.0363 0.15273467 0.00549873 -0.0363 0.15561759 0.00951957 -0.0363 0.15162158 -0.00171251 -0.0363 0.1453874 0.01465832 -0.0363 0.14968827 0.02165064 -0.0363 0.13935179 0.02461716 -0.0363 0.14166076 0.02008183 -0.0363 0.14808184 0.01571037 -0.0363 0.11960263 0.02677609 -0.0363 0.13037126 0.0254735 -0.0363 0.12639931 0.02134318 -0.0363 0.11554101 0.02651832 -0.0363 0.11845492 0.02152896 -0.0363 0.10961253 0.01341122 -0.0363 0.1062998 0.01222873 -0.0363 0.10245727 -0.01515385 -0.0363 0.1189245 0.00994471 -0.0363 0.1131167 0.01515385 -0.0363 0.1370755 0.00839737 -0.0363 0.14371037 -0.01663322 -0.0363 0.13394475 -0.01130096 -0.0363 0.14177026 -0.00077439 -0.0403 0.14731091 0.00494274 -0.0403 0.14204662 0.0154754 -0.0403 0.13913402 0.0131125 -0.0403 0.13094336 0.00973839 -0.0403 0.1270645 0.01463609 -0.0403 0.12525722 0.01711094 -0.0403 0.11901518 0.01926346 -0.0403 0.12955894 0.00339791 -0.0403 0.11954017 0.01025376 -0.0403 0.11178497 0.00641442 -0.0403 0.11375964 -0.00537329 -0.0403 0.10943554 -0.00773389 -0.0403 0.11393335 -0.01486085 -0.0403 0.11586649 -0.01587531 -0.0403 0.12898389 -0.0111419 -0.0403 0.12806158 -0.01152528 -0.0403 0.14333737 -0.01916951 -0.0403 0.1272275 -0.01756016 -0.0403 0.13633239 -0.00680015 -0.0403 0.14205322 -0.00632301 -0.0403 0.12161476 -0.00339791 -0.0403 0.13645983 0.00473502 -0.0403 0.13661847 0.0050399 -0.0373 0.13212439 0.01661476 -0.0373 0.11840747 0.00665 -0.0373 0.11613546 -0.00312802 -0.0373 0.10875252 0.00610359 -0.0373 0.13986455 0.01383632 -0.0373 0.14128996 0.00346978 -0.0373 0.14695244 -0.01866937 -0.0373 0.13340765 -0.00689019 -0.0373 0.14001454 -0.00471208 -0.0373 0.13148408 -0.00311788 -0.0373 0.14718506 -0.01383632 -0.0373 0.14128996 -0.00705 -0.0373 0.11630866 -0.0134 -0.0373 0.1278 -0.01879735 -0.0373 0.1241625 -0.01406345 -0.0373 0.11449187 0.00386952 -0.0373 0.1090649 0.0139 -0.0373 0.1276 0.01904519 -0.0373 0.1303125 0.00021344 -0.0373 0.12190095 0.00649315 -0.0433 0.13375244 5.719E-05 -0.0433 0.12279657 0.00481114 -0.0433 0.13010436 0.00842269 -0.0433 0.12592399 -0.00104563 -0.0433 0.13661152 -0.00745792 -0.0433 0.12381458 0.00194718 -0.0433 0.12025759 -0.00469114 -0.0433 0.13113531 -0.00768112 -0.0433 0.13203137 -0.032 -0.02 0.006 -0.032 -0.01371041 0.003 -0.032 -0.02 -0 -0.032 0.02 0.006 -0.032 0.00388838 0.00291286 -0.032 0.00620618 0.00275133 -0.032 0.02 -0 -0.02924867 -0.00620618 0.006 -0.026 -0.02 0.006 -0.02949734 0.01371041 0.006 -0.026 0.02 0.006 -0.029 -0.00390986 0.006 -0.026 -0.02 -0 -0.026 -0.01379382 0.00284107 -0.026 0.02 -0 -0.026 0.00620618 0.00275133 -0.026 0.00376936 0.00304721 -0.02949734 0.01371041 -0 -0.02850266 -0.00628959 -0 -0.02886565 -0.00379084 -0 0.02 -0.0363 0.006 0.01371041 -0.0363 0.003 0.02 -0.0363 -0 -0.02 -0.0363 0.006 -0.00388838 -0.0363 0.00291286 -0.00620618 -0.0363 0.00275133 -0.02 -0.0363 -0 0.00620618 -0.03354867 0.006 0.02 -0.0303 0.006 -0.02 -0.0303 0.006 0.00388838 -0.03338714 0.006 -0.01379382 -0.03354867 0.006 0.02 -0.0303 -0 0.01379382 -0.0303 0.00284107 -0.02 -0.0303 -0 -0.00620618 -0.0303 0.00275133 -0.00376936 -0.0303 0.00304721 -0.01379382 -0.03345893 -0 0.00620618 -0.03354867 -0 0.00376936 -0.03325279 -0 0.035 -0.0393 0.03315 0.035 -0.0363 0.03315 0.035 -0.0378 0.11385 -0.035 -0.0363 0.03315 -0.035 -0.0393 0.03315 -0.035 -0.0393 0.11385 0.03175 -0.0393 0.13908301 0.035 -0.0393 0.14015 0.02560735 -0.0393 0.15530828 -0.03114641 -0.0393 0.02335222 -0.02845359 -0.0393 0.01554641 -0.022 -0.0393 0.01 -0.03113995 -0.0393 0.01291699 -0.02862679 -0.0393 0.02619282 -0.032 -0.0393 0.03315 -0.02366913 -0.0393 0.03499186 -0.035 -0.0393 0.06087584 -0.02044306 -0.0393 0.11647017 -0.02852679 -0.0393 0.12747321 -0.02914641 -0.0393 0.11823923 -0.03165849 -0.0393 0.11400849 -0.035 -0.0393 0.10517521 -0.03165849 -0.0393 0.13999151 -0.035 -0.0393 0.14015 -0.0115041 -0.0393 0.16382509 -0.02237631 -0.0393 0.1958251 -0.02075779 -0.0393 0.199 -0.01931852 -0.0393 0.23517638 0.01141977 -0.0393 0.21858022 0.00618034 -0.0393 0.21507934 0.02075779 -0.0393 0.199 0 -0.0393 0.21384999 -0.00618034 -0.0393 0.21507934 -0.01141977 -0.0393 0.21858022 0.01553533 -0.0393 0.23309016 0.01931852 -0.0393 0.23517638 0.00880006 -0.0393 0.24317022 -0.01553533 -0.0393 0.23309016 -0.01141977 -0.0393 0.24141978 0.00930201 -0.0393 0.24740283 -0.00309017 -0.0393 0.24553533 0 -0.0393 0.25 -0.00930201 -0.0393 0.24740283 0.02237631 -0.0393 0.1958251 0.02414784 -0.0393 0.18422611 0.03 -0.0393 0.19531253 0.03496592 -0.0393 0.1766478 0.02091753 -0.0393 0.12450948 0.0289134 -0.0393 0.12732321 0.03017177 -0.0393 0.11705802 0.023 -0.0393 0.09790084 0.0326009 -0.0393 0.11433104 0.0289268 -0.0393 0.02601961 0.0315 -0.0393 0.03301603 0.02936387 -0.0393 0.05846631 0.0305366 -0.0393 0.02301562 0.024 -0.0393 0.0227017 0.03011184 -0.0393 0.01493256 0.02000849 -0.0393 0.00034151 0.035 -0.0393 0.002 0.0165359 -0.0393 0.01 -0.033 -0.0393 -0 -0.02025849 -0.0393 0.00059151 0.01436295 -0.0393 0.14360233 0.02099285 -0.0393 0.13694051 0.02127743 -0.0393 0.14134641 0.00149282 -0.0393 0.1534 0.00175124 -0.0393 0.14913434 -0.00111962 -0.0393 0.1529 -0.02167384 -0.0393 0.14034019 -0.02120677 -0.0393 0.12799999 -0.01673512 -0.0393 0.14102547 0.00091962 -0.0393 0.10255359 -0.0016 -0.0393 0.103 0.00175124 -0.0393 0.10686566 0.02182384 -0.0393 0.1156 -0.011599 -0.0393 0.11024641 0.024 -0.0393 0.07465212 -0.0165359 -0.0393 0.09890083 -0.0175359 -0.0393 0.09516878 -0.02269679 -0.0393 0.087406 0.021 -0.0393 0.07292007 0.0115041 -0.0393 0.16382509 -0.02338148 -0.0393 0.18359165 -0.00161852 -0.0393 0.16722964 -0.01106048 -0.0393 0.16661851 0.00161852 -0.0393 0.16722964 -0.035 -0.0393 0.17638898 -0.027 -0.0393 0.18241674 -0.027 -0.0393 0.15649965 -0.021 -0.0393 0.03598076 -0.0175359 -0.0393 0.04321837 -0.0165359 -0.0393 0.04695041 0.02309909 -0.0393 0.0461848 0.021 -0.0393 0.02096965 0.0175359 -0.0393 0.01373205 -0.035 -0.0393 0.01185 0.01722098 -0.0393 0.17510508 0.02617538 -0.0393 0.1838198 -0.022 -0.0393 0.06195042 0.0165359 -0.0393 0.06195042 0.0179613 -0.0393 0.06467786 0.01985 -0.0393 -0.005 -0.00356077 -0.0393 0.0032 0.01361436 -0.0393 0.003 -0.00621962 -0.0393 0.0032732 -0.03175 -0.0363 0.03308301 -0.035 -0.0363 0.06908813 0.03014034 -0.0363 0.0145423 0.0345 -0.0363 0.00113397 0.02185 -0.0363 -0 0.02091753 -0.0363 0.12450948 0.02173724 -0.0363 0.11562321 0.01461326 -0.0363 0.11269611 0.00143923 -0.0363 0.1032 0.023 -0.0363 0.09790084 -0.0165359 -0.0363 0.09890083 -0.00149282 -0.0363 0.1026 -0.011599 -0.0363 0.11024641 0.00175124 -0.0363 0.10686566 -0.01890869 -0.0363 0.11776713 -0.02175063 -0.0363 0.1154732 -0.02120677 -0.0363 0.12799999 -0.0238251 -0.0363 0.15488113 -0.02232384 -0.0363 0.1402268 -0.0289268 -0.0363 0.12801962 -0.01890869 -0.0363 0.13823287 0.00094641 -0.0363 0.1539464 0.0173047 -0.0363 0.14057142 0.00112203 -0.0363 0.15049396 0.02165063 -0.0363 0.14049999 0.0238251 -0.0363 0.15488113 0.0115041 -0.0363 0.16382509 -0.0115041 -0.0363 0.16382509 -0.00134641 -0.0363 0.15354641 -0.011599 -0.0363 0.14575359 0.0175359 -0.0363 0.01373205 0.0306366 -0.0363 0.02291562 0.032 -0.0363 0.03315 0.0291268 -0.0363 0.02601961 0.02319134 -0.0363 0.04591236 0.03024498 -0.0363 0.11698481 0.0291732 -0.0363 0.12710001 0.03182925 -0.0363 0.13907075 0.0272 -0.0363 0.1493749 0.01931852 -0.0363 0.23517638 0.02954143 -0.0363 0.19702393 0.02075779 -0.0363 0.199 0.00309017 -0.0363 0.21446466 0.01141977 -0.0363 0.21858022 -0.01553533 -0.0363 0.23309016 -0.01492065 -0.0363 0.22381966 -0.02075779 -0.0363 0.199 -0.00880006 -0.0363 0.21682978 -0.00880006 -0.0363 0.24317022 -0.01797396 -0.0363 0.23814389 0.01553533 -0.0363 0.23309016 0.01141977 -0.0363 0.24141978 -0.00930201 -0.0363 0.24740283 0.00309017 -0.0363 0.24553533 0 -0.0363 0.25 0.00930201 -0.0363 0.24740283 -0.0255 -0.0363 0.21210676 -0.02237631 -0.0363 0.1958251 -0.02338148 -0.0363 0.18359165 -0.027 -0.0363 0.18241674 -0.03496592 -0.0363 0.1766478 -0.03157925 -0.0363 0.13882075 -0.035 -0.0363 0.15493859 -0.035 -0.0363 0.14015 -0.0303634 -0.0363 0.12389019 -0.0288268 -0.0363 0.11724641 -0.035 -0.0363 0.11385 -0.02290775 -0.0363 0.01072755 -0.03114641 -0.0363 0.02335222 -0.02865359 -0.0363 0.02629282 -0.02366913 -0.0363 0.03499186 -0.0302634 -0.0363 0.01391519 -0.02865359 -0.0363 0.01629282 0.024 -0.0363 0.07465212 -0.00161852 -0.0363 0.16722964 0.00161852 -0.0363 0.16722964 0.01106048 -0.0363 0.16661851 0.02338148 -0.0363 0.18359165 0.02237631 -0.0363 0.1958251 -0.02690486 -0.0363 0.15607396 -0.01106048 -0.0363 0.16661851 -0.0165359 -0.0363 0.04695041 -0.022 -0.0363 0.06195042 -0.0175359 -0.0363 0.04321837 -0.021 -0.0363 0.03598076 0.02139547 -0.0363 0.02084116 -0.02029199 -0.0363 0.00071651 -0.035 -0.0363 0.002 0.0165359 -0.0363 0.01 0.0165359 -0.0363 0.06195042 -0.02379134 -0.0363 0.08677407 -0.0175359 -0.0363 0.09516878 -0.021 -0.0363 0.08793118 0.021 -0.0363 0.07292007 0.035 -0.0363 0.14015 0.03496592 -0.0363 0.1766478 0.0325384 -0.0363 0.11434779 -0.00614641 -0.0363 0.00250718 0.01985 -0.0363 -0.005 0.01385359 -0.0363 0.00349282 -0.00361436 -0.0363 0.003 -0.01985 -0.0363 -0.005 0.035 -0.0363 0.17638898 0.035 -0.0393 0.17638898 0.035 -0.0378 0.14015 -0.035 -0.0378 0.17638898 0.03493185 -0.0393 0.17690662 0.03493185 -0.0363 0.17690662 -0.01931852 -0.0363 0.23517638 -0.03493185 -0.0378 0.17690662 -0.01985 -0.0378 -0.005 -0.032 -0.0363 0.13815001 -0.032 -0.0393 0.11585 -0.032 -0.0393 0.13815001 -0.032 -0.0363 0.01385 -0.032 -0.0393 0.01385 -0.032 -0.0378 0.03115 0.032 -0.0393 0.01385 0.032 -0.0363 0.01385 0.032 -0.0378 0.03115 0.032 -0.0393 0.11585 0.032 -0.0363 0.11585 0.032 -0.0363 0.13815001 0.022 -0.0363 0.09890083 0.024 -0.0363 0.09690084 0.024 -0.0393 0.09690084 -0.027 -0.0363 0.15649965 0.021 -0.0363 0.02096965 0.022 -0.0378 0.04695041 0.024 -0.0393 0.04495042 0.024 -0.0363 0.04495042 -0.022 -0.0378 0.01 0.0115041 -0.0378 0.16382509 0.0238251 -0.0393 0.15488113 0.027 -0.0393 0.18241674 0.027 -0.0363 0.18241674 0.027 -0.0378 0.15649965 -0.024 -0.0393 0.08619913 -0.024 -0.0363 0.06395041 -0.024 -0.0363 0.08619913 -0.021 -0.0393 0.08793118 0.0175359 -0.0393 0.06568246 0.032 0.02 0.006 0.032 0.01371041 0.003 0.032 0.02 -0 0.032 -0.02 0.006 0.032 -0.00388838 0.00291286 0.032 -0.00620618 0.00275133 0.032 -0.02 -0 0.02924867 0.00620618 0.006 0.026 0.02 0.006 0.02949734 -0.01371041 0.006 0.026 -0.02 0.006 0.029 0.00390986 0.006 0.026 0.02 -0 0.026 0.01379382 0.00284107 0.026 -0.02 -0 0.026 -0.00620618 0.00275133 0.026 -0.00376936 0.00304721 0.02949734 -0.01371041 -0 0.02850266 0.00628959 -0 0.02886565 0.00379084 -0 -0.02 0.0363 0.006 -0.01371041 0.0363 0.003 -0.02 0.0363 -0 0.02 0.0363 0.006 0.00388838 0.0363 0.00291286 0.00620618 0.0363 0.00275133 0.02 0.0363 -0 -0.00620618 0.03354867 0.006 -0.02 0.0303 0.006 0.02 0.0303 0.006 -0.00388838 0.03338714 0.006 0.01379382 0.03354867 0.006 -0.02 0.0303 -0 -0.01379382 0.0303 0.00284107 0.02 0.0303 -0 0.00620618 0.0303 0.00275133 0.00376936 0.0303 0.00304721 0.01379382 0.03345893 -0 -0.00620618 0.03354867 -0 -0.00376936 0.03325279 -0 -0.01124367 -0.0403 0.13389456 -0.00457138 -0.0403 0.13834186 -0.01033929 -0.0403 0.12758592 0.00455772 -0.0403 0.11665981 -0.00496999 -0.0403 0.11664101 0.01091859 -0.0403 0.12222558 -0.01053356 -0.0403 0.12174266 -0.00493161 -0.0403 0.12072789 0.00293891 -0.0403 0.1199647 0.00889354 -0.0403 0.1333953 0.01265332 -0.0403 0.12796757 0.00858136 -0.0433 0.12988806 0.00490123 -0.0433 0.13030902 0.00133087 -0.0433 0.13632062 -0.00637847 -0.0433 0.13404314 -0.00448536 -0.0433 0.13051313 -0.00852626 -0.0433 0.12512806 0.00458641 -0.0433 0.12036738 -0.00145638 -0.0433 0.11912171 -0.00066211 -0.0433 0.12325238 -0.0057088 -0.0493 0.13093317 -0.01459621 -0.0493 0.12294409 -0.01028838 -0.0493 0.11676183 -0.01503543 -0.0493 0.13046639 0.00530589 -0.0493 0.12940088 0.00615883 -0.0493 0.11406385 0.01341994 -0.0493 0.12078525 -0.01035018 -0.0493 0.13918129 -0.00369277 -0.0493 0.13188231 -0.00172148 -0.0493 0.12229764 -0.001854 -0.0493 0.11275764 -0.00130006 -0.0493 0.14318082 0.00849556 -0.0493 0.14052634 0.00019316 -0.0493 0.12183679 0.01502161 -0.0493 0.13054925 0.00635039 -0.0493 0.13118759 -0.01173678 -0.0483 0.12109887 -0.00623019 -0.0483 0.11669341 -0.00327169 -0.0483 0.1137228 -0.035 -0.0363 0.03485 -0.032 -0.0363 0.03485 -0.035 -0.0363 0.11215 -0.032 -0.0363 0.11215 -0.035 0.0363 0.11215 -0.032 0.0363 0.11215 -0.032 0.0363 0.03485 -0.035 0.0363 0.03485 -0.032 -0.0343 -0 -0.035 -0.0343 -0 -0.035 0.0343 -0 -0.032 0.0363 0.05830094 -0.032 0.0283 0.11984061 -0.032 0.0393 0.11415 -0.032 0.03898301 0.13853301 -0.032 0.03374641 0.12108038 -0.032 0.02992466 0.01989031 -0.032 0.03325359 0.0302268 -0.032 0.0393 0.03285 -0.032 0.03595849 0.03469151 -0.032 0.03577099 0.01100825 -0.032 0.02440794 0.01936122 -0.032 0.0343 -0 -0.032 -0.03315359 0.02876077 -0.032 -0.0393 0.025 -0.032 -0.0283 0.02000939 -0.032 -0.0393 0.03285 -0.032 -0.03399901 0.03218405 -0.032 -0.0363 0.05830094 -0.032 -0.03589834 0.11310294 -0.032 -0.0325 0.12061436 -0.032 -0.0393 0.11415 -0.032 0.0373 0.13984999 -0.032 0.0333134 0.1322232 -0.032 -0.03404641 0.1322 -0.032 -0.0373 0.13984999 -0.032 0.02755 0.06485801 -0.032 0.0268 0.07405898 -0.032 0.01125566 0.065925 -0.032 0.01079813 0.07403581 -0.032 0.0004059 0.06103311 -0.032 0.0093636 0.07657317 -0.032 0.02440794 0.12048878 -0.032 0.0189364 0.12920183 -0.032 0.0189364 0.01064817 -0.032 -0.0268 0.07405898 -0.032 -0.0268 0.06579103 -0.032 -0.02440794 0.01936122 -0.032 -0.0189364 0.01064817 -0.032 -0.0093636 0.06327683 -0.032 -0.0093636 0.07657317 -0.032 -0.01062007 0.07418973 -0.032 -0.00189206 0.07944806 -0.032 -0.01125566 0.065925 -0.032 -0.00292783 -0 -0.032 -0.01378038 0.0032732 -0.032 -0.01591961 0.0031 -0.032 -0.01704434 0.008 -0.032 0.00467679 0.0030866 -0.032 0.01767993 0.00826473 -0.032 0.0016236 0.07903668 -0.032 -0.02440794 0.12048878 -0.032 -0.0283 0.11984061 -0.032 -0.0189364 0.12920183 -0.032 -0.0393 0.13785 -0.032 0.03459282 0.02034641 -0.032 0.0393 0.01215 -0.032 -0.03421962 0.02044641 -0.032 -0.0393 0.01215 -0.032 -0.03594175 0.01092901 -0.035 0.00189206 0.06040194 -0.035 0.0093636 0.06327683 -0.035 0.02440794 0.01936122 -0.035 -0.0334634 0.02929019 -0.035 -0.03401894 0.03250266 -0.035 -0.0283 0.02000939 -0.035 -0.02683609 0.13984999 -0.035 -0.0332134 0.13225 -0.035 -0.0373 0.13984999 -0.035 -0.03769153 0.11412524 -0.035 0.03350981 0.12186339 -0.035 0.03352321 0.13191339 -0.035 0.0393 0.1298625 -0.035 0.0373 0.13984999 -0.035 0.03591274 0.11319575 -0.035 0.0393 0.11415 -0.035 -0.0325 0.12061436 -0.035 -0.03599607 0.11226888 -0.035 -0.02798301 0.07524198 -0.035 -0.0393 0.03285 -0.035 0.02954947 0.01958017 -0.035 0.03594175 0.01092901 -0.035 0.0273 0.064925 -0.035 0.03350841 0.03138873 -0.035 0.03357321 0.02878039 -0.035 0.0393 0.025 -0.035 0.0393 0.03285 -0.035 0.0283 0.11984061 -0.035 0.02465629 0.1208811 -0.035 0.0263 0.073925 -0.035 0.01079813 0.07403581 -0.035 -0.00189206 0.06040194 -0.035 0.01079813 0.0658142 -0.035 0.0189364 0.01064817 -0.035 -0.03748137 0.01150212 -0.035 -0.02440794 0.01936122 -0.035 -0.0189364 0.01064817 -0.035 -0.0263 0.065925 -0.035 -0.0093636 0.06327683 -0.035 -0.01062007 0.06566027 -0.035 -0.0093636 0.07657317 -0.035 -0.01125566 0.073925 -0.035 0.01704434 0.008 -0.035 0.00435359 0.00317321 -0.035 -0.00292783 0.008 -0.035 -0.00292783 -0 -0.035 -0.01376077 0.00285359 -0.035 -0.01591961 0.0031 -0.035 -0.01704434 0.008 -0.035 0.01767993 0.13158527 -0.035 0.0189364 0.12920183 -0.035 0.0016236 0.07903668 -0.035 -0.00189206 0.07944806 -0.035 -0.02440794 0.12048878 -0.035 -0.0189364 0.12920183 -0.035 -0.0283 0.11984061 -0.035 0.0393 0.01215 -0.035 0.03441961 0.0201 -0.035 -0.03272679 0.02084641 -0.035 -0.0393 0.11415 -0.035 0.0393 0.13785 -0.0335 -0.0373 0.13984999 -0.035 0.0093636 0.07657317 -0.035 0.02440794 0.12048878 -0.035 0.0283 0.075925 -0.032 0.0283 0.063925 -0.035 0.0283 0.063925 -0.0335 0.0283 0.02000939 -0.032 0.0093636 0.06327683 -0.032 0.00189206 0.06040194 -0.032 0.01704434 0.008 -0.0335 -0.00189206 0.06040194 -0.032 -0.01704434 0.13185 -0.035 -0.01704434 0.13185 -0.035 0.01704434 0.13185 -0.032 0.01704434 0.13185 -0.035 0.00189206 0.07944806 -0.032 0.00189206 0.07944806 -0.0335 -0.0283 0.075925 0.02910513 -0.0363 0.01613456 0.03054371 -0.0363 0.01301107 0.032 -0.0363 0.033 0.026 -0.0363 0.012 0.026 -0.0363 0.033 0.02959634 -0.0363 0.02507009 0.032 -0.03184371 0.03198893 0.032 -0.03305069 0.02010938 0.032 -0.0303 0.012 0.032 -0.0363 0.012 0.032 -0.03358138 0.02876353 0.02733285 -0.0303 0.01355913 0.026 -0.0303 0.033 0.02897785 -0.0303 0.02486475 0.03098314 -0.0303 0.01402738 0.032 -0.0303 0.033 0.026 -0.03336253 0.01996613 0.026 -0.03484371 0.03198893 0.026 -0.03254399 0.02878564 0.026 -0.0303 0.012 0.01464204 0.0363 0.14508392 0.01464204 0.0087 0.14508392 0.01677293 0.0087 0.14299729 0.01677293 0.0363 0.14299729 0.01860912 0.0087 0.14064716 0.01860912 0.0363 0.14064716 0.02011835 0.0087 0.13807482 0.02011835 0.0363 0.13807482 0.02127411 0.0087 0.13532546 0.02127411 0.0363 0.13532546 0.02205608 0.0087 0.13244741 0.02205608 0.0363 0.13244741 0.02245053 0.0087 0.1294912 0.02245053 0.0363 0.1294912 0.02245053 0.0087 0.1265088 0.02245053 0.0363 0.1265088 0.02205608 0.0087 0.1235526 0.02205608 0.0363 0.1235526 0.02127411 0.0087 0.12067454 0.02127411 0.0363 0.12067454 0.02011835 0.0087 0.11792518 0.02011835 0.0363 0.11792518 0.01860912 0.0087 0.11535284 0.01860912 0.0363 0.11535284 0.01677293 0.0087 0.11300271 0.01677293 0.0363 0.11300271 0.01464204 0.0087 0.11091607 0.01464204 0.0363 0.11091607 0.01936373 0.0363 0.13936099 0.02205781 0.0363 0.12505679 0.0122502 0.0363 0.14096919 0.01275368 0.0363 0.14525524 0.01753561 0.0363 0.1142992 0.01143632 0.0363 0.1126475 0.01520675 0.0363 0.12473221 0.02205781 0.0087 0.12505679 0.02166509 0.0087 0.13388643 0.01478144 0.0087 0.14088862 0.01275368 0.0087 0.14525524 0.01275368 0.0087 0.11074475 0.01936373 0.0087 0.11663901 0.0122502 0.0087 0.11503081 0.01011896 0.0087 0.14144975 0.01519892 0.0087 0.13284481 -0.01464204 0.0363 0.11091607 -0.01464204 0.0087 0.11091607 -0.01677293 0.0087 0.11300271 -0.01677293 0.0363 0.11300271 -0.01860912 0.0087 0.11535284 -0.01860912 0.0363 0.11535284 -0.02011835 0.0087 0.11792518 -0.02011835 0.0363 0.11792518 -0.02127411 0.0087 0.12067454 -0.02127411 0.0363 0.12067454 -0.02205608 0.0087 0.1235526 -0.02205608 0.0363 0.1235526 -0.02245053 0.0087 0.1265088 -0.02245053 0.0363 0.1265088 -0.02245053 0.0087 0.1294912 -0.02245053 0.0363 0.1294912 -0.02205608 0.0087 0.13244741 -0.02205608 0.0363 0.13244741 -0.02127411 0.0087 0.13532546 -0.02127411 0.0363 0.13532546 -0.02011835 0.0087 0.13807482 -0.02011835 0.0363 0.13807482 -0.01860912 0.0087 0.14064716 -0.01860912 0.0363 0.14064716 -0.01677293 0.0087 0.14299729 -0.01677293 0.0363 0.14299729 -0.01464204 0.0087 0.14508392 -0.01464204 0.0363 0.14508392 -0.01936373 0.0363 0.11663901 -0.02205781 0.0363 0.13094321 -0.0122502 0.0363 0.11503081 -0.01275368 0.0363 0.11074475 -0.01753561 0.0363 0.1417008 -0.01143632 0.0363 0.14335251 -0.01520675 0.0363 0.13126779 -0.02205781 0.0087 0.13094321 -0.02166509 0.0087 0.12211357 -0.01478144 0.0087 0.11511138 -0.01275368 0.0087 0.11074475 -0.01275368 0.0087 0.14525524 -0.01936373 0.0087 0.13936099 -0.0122502 0.0087 0.14096919 -0.01011896 0.0087 0.11455025 -0.01519892 0.0087 0.12315518 -0.026 -0.03340513 0.02886544 -0.026 -0.03484371 0.03198893 -0.026 -0.0363 0.012 -0.026 -0.0303 0.033 -0.026 -0.0303 0.012 -0.026 -0.03336253 0.01996613 -0.03045629 -0.0363 0.01301107 -0.02911406 -0.0363 0.02486643 -0.032 -0.0363 0.033 -0.026 -0.0363 0.033 -0.02871861 -0.0363 0.01623647 -0.032 -0.03163285 0.03144088 -0.032 -0.0303 0.012 -0.032 -0.03330973 0.02009557 -0.032 -0.03528314 0.03097262 -0.032 -0.0363 0.012 -0.02894489 -0.0303 0.02493103 -0.02745629 -0.0303 0.01301107 -0.02975601 -0.0303 0.01621436 -0.032 -0.0303 0.033 0.02910513 0.0303 0.01613456 0.03054371 0.0303 0.01301107 0.032 0.0303 0.033 0.026 0.0303 0.012 0.026 0.0303 0.033 0.02959634 0.0303 0.02507009 0.032 0.03475629 0.03198893 0.032 0.03354931 0.02010938 0.032 0.0363 0.012 0.032 0.0303 0.012 0.032 0.03301862 0.02876353 0.02733285 0.0363 0.01355913 0.026 0.0363 0.033 0.02897785 0.0363 0.02486475 0.03098314 0.0363 0.01402738 0.032 0.0363 0.033 0.026 0.03323747 0.01996613 0.026 0.03175629 0.03198893 0.026 0.03405601 0.02878564 0.026 0.0363 0.012 0.035 0.0363 0.03485 0.032 0.0363 0.03485 0.035 0.0363 0.11215 0.032 0.0363 0.11215 0.035 -0.0363 0.11215 0.032 -0.0363 0.11215 0.032 -0.0363 0.03485 0.035 -0.0363 0.03485 0.032 0.0343 -0 0.035 0.0343 -0 0.035 -0.0343 -0 0.032 -0.0363 0.05830094 0.032 -0.0283 0.11984061 0.032 -0.0393 0.11415 0.032 -0.03898301 0.13853301 0.032 -0.03374641 0.12108038 0.032 -0.02992466 0.01989031 0.032 -0.03325359 0.0302268 0.032 -0.0393 0.03285 0.032 -0.03595849 0.03469151 0.032 -0.03577099 0.01100825 0.032 -0.02440794 0.01936122 0.032 -0.0343 -0 0.032 0.0393 0.01730352 0.032 0.03594175 0.01092901 0.032 0.0283 0.02000939 0.032 0.03315359 0.02876077 0.032 0.03 0.025 0.032 0.0393 0.03285 0.032 0.03399901 0.03218405 0.032 0.0363 0.05830094 0.032 0.03589834 0.11310294 0.032 0.0325 0.12061436 0.032 0.0393 0.11415 0.032 -0.0373 0.13984999 0.032 -0.0333134 0.1322232 0.032 0.0189364 0.12920183 0.032 0.0335366 0.13216339 0.032 0.0373 0.13984999 0.032 -0.02755 0.06485801 0.032 -0.0268 0.07405898 0.032 -0.0093636 0.06327683 0.032 -0.01125566 0.065925 0.032 -0.00135514 0.06122469 0.032 -0.01079813 0.07403581 0.032 -0.0093636 0.07657317 0.032 -0.02440794 0.12048878 0.032 -0.0189364 0.12920183 0.032 -0.0189364 0.01064817 0.032 0.0268 0.07405898 0.032 0.0268 0.06579103 0.032 0.03350981 0.02000981 0.032 0.02440794 0.01936122 0.032 0.0189364 0.01064817 0.032 0.00189206 0.06040194 0.032 0.0093636 0.06327683 0.032 0.0093636 0.07657317 0.032 0.01062007 0.07418973 0.032 0.01125566 0.065925 0.032 0.00292783 -0 0.032 0.01378038 0.0032732 0.032 0.01591961 0.0031 0.032 0.01704434 0.008 0.032 -0.00467679 0.0030866 0.032 -0.01767993 0.00826473 0.032 0.00189206 0.07944806 0.032 -0.0016236 0.07903668 0.032 0.02440794 0.12048878 0.032 0.0283 0.11984061 0.032 0.0393 0.13785 0.032 -0.03459282 0.02034641 0.032 -0.0393 0.01215 0.035 -0.00189206 0.06040194 0.035 -0.0093636 0.06327683 0.035 -0.02440794 0.01936122 0.035 0.0334634 0.02929019 0.035 0.03401894 0.03250266 0.035 0.0283 0.02000939 0.035 0.02683609 0.13984999 0.035 0.0332134 0.13225 0.035 0.0373 0.13984999 0.035 -0.03350981 0.12186339 0.035 -0.03352321 0.13191339 0.035 -0.0393 0.1298625 0.035 -0.0373 0.13984999 0.035 -0.0393 0.11415 0.035 0.0325 0.12061436 0.035 0.0393 0.11415 0.035 0.03599607 0.11226888 0.035 0.02798301 0.07524198 0.035 0.0393 0.03285 0.035 -0.02954947 0.01958017 0.035 -0.03594175 0.01092901 0.035 -0.0273 0.064925 0.035 -0.03350841 0.03138873 0.035 -0.03357321 0.02878039 0.035 -0.0393 0.025 0.035 -0.0393 0.03285 0.035 -0.0283 0.11984061 0.035 -0.02465629 0.1208811 0.035 -0.0263 0.073925 0.035 -0.01079813 0.07403581 0.035 0.00189206 0.06040194 0.035 -0.01079813 0.0658142 0.035 -0.0189364 0.01064817 0.035 0.03748137 0.01150212 0.035 0.02440794 0.01936122 0.035 0.0189364 0.01064817 0.035 0.0263 0.065925 0.035 0.0093636 0.06327683 0.035 0.01062007 0.06566027 0.035 0.0093636 0.07657317 0.035 0.01125566 0.073925 0.035 -0.01704434 0.008 0.035 -0.00435359 0.00317321 0.035 0.00292783 0.008 0.035 0.00292783 -0 0.035 0.01376077 0.00285359 0.035 0.01591961 0.0031 0.035 0.01704434 0.008 0.035 -0.01767993 0.13158527 0.035 -0.0189364 0.12920183 0.035 -0.0016236 0.07903668 0.035 0.00189206 0.07944806 0.035 0.02440794 0.12048878 0.035 0.0189364 0.12920183 0.035 0.0283 0.11984061 0.035 -0.0393 0.01215 0.035 -0.03441961 0.0201 0.035 0.03272679 0.02084641 0.032 0.0393 0.01215 0.0335 0.0373 0.13984999 0.035 -0.0093636 0.07657317 0.035 -0.02440794 0.12048878 0.035 -0.0283 0.075925 0.032 -0.0283 0.063925 0.035 -0.0283 0.063925 0.0335 -0.0283 0.02000939 0.032 0.0283 0.063925 0.0335 0.0283 0.02000939 0.035 0.0283 0.063925 0.032 -0.00189206 0.06040194 0.032 -0.01704434 0.008 0.0335 0.00189206 0.06040194 0.032 0.01704434 0.13185 0.035 0.01704434 0.13185 0.035 -0.01704434 0.13185 0.032 -0.01704434 0.13185 0.035 -0.00189206 0.07944806 0.032 -0.00189206 0.07944806 0.0335 0.0283 0.075925 -0.00979852 0.0130004 -0.005 -0.02063242 0.00879065 -0.005 -0.01679727 -0.00032903 -0.005 -0.01121352 0.01942239 -0.005 -0.0047811 0.01555362 -0.005 -0.0004566 0.02199273 -0.005 -0.00761151 -0.01615194 -0.005 0.00357279 -0.02201167 -0.005 0.00867155 -0.0130004 -0.005 0.00849178 -0.01677069 -0.005 0.02009801 -0.00902796 -0.005 0.01614964 -0.00076974 -0.005 0.01848799 0.00048799 -0.005 0.02127286 0.00710193 -0.005 -0.00448598 -0.0219738 -0.005 -0.01121352 -0.01942239 -0.005 -0.0094228 -0.01354473 -0.005 -0.02084906 -0.00791171 -0.005 -0.02235432 0.00180463 -0.005 0.00882175 0.01188586 -0.005 0.00835362 0.01625507 -0.005 0.01533457 0.01596498 -0.005 -0.0084227 -0.01640975 -0.008 -0.02063242 -0.00879065 -0.008 -0.00979852 -0.0130004 -0.008 0.01792913 -0.01347287 -0.008 0.00835362 -0.01625507 -0.008 0.00882175 -0.01188586 -0.008 0.00357279 -0.02201167 -0.008 -0.00448598 -0.0219738 -0.008 0.00867155 0.0130004 -0.008 0.01533457 0.01596498 -0.008 0.01558615 -0.00020625 -0.008 0.00849178 0.01677069 -0.008 0.00357279 0.02201167 -0.008 -0.00784975 0.02069809 -0.008 -0.00838825 0.01464899 -0.008 -0.01701734 -0.00084951 -0.008 0.02127286 -0.00710193 -0.008 0.01838487 0.00087286 -0.008 0.02184619 0.0053846 -0.008 -0.01838487 0.0012301 -0.008 -0.02084906 0.00791171 -0.008 0.033 -0.0393 -0.005 0.0202 -0.0393 -0 0.0202 -0.0393 -0.005 -0.033 0.0393 -0.005 -0.033 0.0393 -0 -0.0202 0.0393 -0.0025 -0.033 -0.0393 -0 -0.033 -0.0393 -0.005 -0.0202 -0.0393 -0.005 -0.0202 -0.0393 -0 -0.035 0.0373 -0 -0.035 0.0373 -0.005 -0.035 -0.0373 -0 -0.035 -0.0373 -0.005 0.033 0.0393 -0 0.0202 0.0393 -0.005 0.0202 0.0393 -0 0.035 -0.0373 -0.005 0.035 0.0373 -0.0025 0.035 -0.0373 -0 -0.01434228 0.00265943 -0.005 -0.035 0.00591106 -0.005 -0.00343927 0.01443427 -0.005 0.035 0.01437716 -0.005 0.01799375 0.03585024 -0.005 0.01488306 0.03265732 -0.005 -0.00504786 0.03199441 -0.005 -0.01962075 0.03562925 -0.005 -0.00961505 0.01622102 -0.005 -0.009 -0.01723846 -0.005 -0.01794112 -0.03411288 -0.005 -0.01407928 -0.03211776 -0.005 -0.0117125 -0.0363 -0.005 0.0054125 -0.03176053 -0.005 0.007 -0.0363 -0.005 -0.00638669 -0.01357241 -0.005 0.01957051 -0.03560024 -0.005 0.00966661 -0.01623484 -0.005 0.03436603 0.03866602 -0.005 -0.02889688 0.01520625 -0.005 0.02805165 -0.01453964 -0.005 0.035 -0.00932211 -0.005 0.00948597 -0.01146656 -0.005 0.01716531 -0.00054869 -0.005 0.00987286 0.01617957 -0.005 0.01131528 0.00934643 -0.005 0.02891069 0.00533331 -0.005 -0.01953947 0.0004125 -0.005 -0.029244 -0.005244 -0.005 -0.035 0.00932211 -0 -0.0293333 0.01491069 -0 -0.01434228 -0.00265943 -0 -0.01988301 -0.03561699 -0 -0.01495214 -0.03199441 -0 -0.0125875 -0.0363 -0 -0.01897901 0.03594175 -0 0.01464276 0.03196678 -0 0.01957051 0.03560024 -0 0.035 -0.01182211 -0 0.02919243 -0.01494844 -0 0.01127419 -0.00979558 -0 0.0182 -0.0363 -0 -0.00902525 -0.01455086 -0 0.00464276 -0.03196678 -0 0.00229375 -0.03556973 -0 -0.009 -0.01723846 -0 -0.0202 0.0393 -0 -0.00966661 0.01623484 -0 -0.00479375 0.03253026 -0 0.00987286 0.01617957 -0 0.00940378 0.01236485 -0 0.01786347 0.00015395 -0 0.00966661 -0.01623484 -0 0.00094186 0.0149704 -0 -0.01894835 -0.00010312 -0 -0.0293333 -0.00491069 -0 0.02869062 0.00538487 -0 0.035 0.0373 -0 -0.0182 -0.0363 -0 -0.0182 -0.0363 -0.005 0.0182 -0.0363 -0.0025 -0.0182 0.0363 -0 0.0182 0.0363 -0.0025 -0.0182 0.0363 -0.005 -0.01031628 -0.03915 0.21812816 -0.00281018 -0.03915 0.2144011 0.00446829 -0.03915 0.21862781 -0.00798752 -0.03915 0.23891684 -0.01404106 -0.03915 0.23708624 -0.01220817 -0.03915 0.22949696 -0.01543283 -0.03915 0.22696784 -0.00848832 -0.03915 0.22121131 0.00123947 -0.03915 0.24215551 0.00084916 -0.03915 0.24570493 -0.00736342 -0.03915 0.24403578 0.00672791 -0.03915 0.21578376 0.0109378 -0.03915 0.22427657 0.01404106 -0.03915 0.22291377 0.01581144 -0.03915 0.23110512 0.0092853 -0.03915 0.23794201 0.00989574 -0.03915 0.24238133 -0.01186789 -0.03515 0.22660203 -0.00667166 -0.03515 0.21976373 -0.01459819 -0.03515 0.22183707 -0.00511116 -0.03515 0.21432891 0.00223534 -0.03515 0.21798769 0.00634378 -0.03515 0.21452431 0.01047512 -0.03515 0.22420496 0.01464005 -0.03515 0.22242533 0.00299122 -0.03515 0.24197689 0.0002298 -0.03515 0.24672386 0.01023044 -0.03515 0.24323173 0.01149115 -0.03515 0.23451069 -0.01152064 -0.03515 0.2340703 -0.01101598 -0.03515 0.24226193 -0.00552905 -0.03515 0.24089597 -0.01657423 -0.03515 0.23224397 0.01612751 -0.03515 0.23443215 -0.00963804 0.03915 0.24242878 -0.00193574 0.03915 0.24573137 0.00509564 0.03915 0.24110527 -0.00847244 0.03915 0.22154255 -0.01441445 0.03915 0.22370796 -0.01216111 0.03915 0.2311832 -0.01523968 0.03915 0.23388824 -0.0079849 0.03915 0.23924845 0.00055954 0.03915 0.21779428 -2.814E-05 0.03915 0.21427214 -0.00813483 0.03915 0.21639678 0.00751038 0.03915 0.24381885 0.01124001 0.03915 0.23510443 0.01441445 0.03915 0.23629203 0.01572519 0.03915 0.22801469 0.00882787 0.03915 0.22155243 0.00918974 0.03915 0.21708599 -0.01165989 0.03515 0.23405464 -0.00609032 0.03515 0.24059248 -0.01412016 0.03515 0.23896445 -0.00422911 0.03515 0.24593177 0.00290187 0.03515 0.24186894 0.0071971 0.03515 0.24509776 0.01078204 0.03515 0.23520175 0.01503975 0.03515 0.23674631 0.00231852 0.03515 0.21787493 -0.00070337 0.03515 0.21328935 0.00947649 0.03515 0.21621826 0.01122167 0.03515 0.22485538 -0.01172973 0.03515 0.22657862 -0.01168276 0.03515 0.2183716 -0.00612819 0.03515 0.21942939 -0.01667359 0.03515 0.22868399 0.01585519 0.03515 0.22467521</float_array>
          <technique_common>
            <accessor source="#pos_0-array" count="5229" stride="3">
              <param name="X" type="float"/>
              <param name="Y" type="float"/>
              <param name="Z" type="float"/>
            </accessor>
          </technique_common>
        </source>
        <source id="norm_0">
          <float_array id="norm_0-array" count="624">1 0 0 -1 0 0 0 -1 0 -0 1 0 -0.96593 0 0.25882 0.96593 0 0.25882 0 0 -1 0.5 -0 0.86603 -0 0 1 -0.5 0 -0.86603 0.9511 0 -0.30888 -0.9511 0 -0.30888 0.9511 -0 0.30888 -0.9511 0 0.30888 -0.5 0 -0.86603 0.08258 0 0.99658 0.08258 0 0.99658 0.24549 0 0.9694 0.4017 0 0.91577 0.54695 0 0.83717 0.67728 0 0.73572 0.78914 0 0.61421 0.87947 0 0.47595 0.94582 0 0.3247 0.98636 0 0.16459 0.98636 0 -0.16459 0.94582 0 -0.3247 0.87947 0 -0.47595 0.78914 0 -0.61421 0.67728 0 -0.73572 0.54695 0 -0.83717 0.4017 0 -0.91577 0.24548 0 -0.9694 0.08258 0 -0.99658 0.08258 0 -0.99658 -0.08258 -0 -0.99658 -0.08258 0 -0.99658 -0.24548 -0 -0.9694 -0.4017 -0 -0.91577 -0.54695 -0 -0.83717 -0.67728 -0 -0.73572 -0.78914 -0 -0.61421 -0.87947 -0 -0.47595 -0.94582 -0 -0.3247 -0.98636 -0 -0.16459 -0.98636 0 0.16459 -0.94582 0 0.3247 -0.87947 0 0.47595 -0.78914 0 0.61421 -0.67728 0 0.73572 -0.54695 0 0.83717 -0.4017 0 0.91577 -0.24549 0 0.9694 -0.08258 0 0.99658 -0.08258 -0 0.99658 -0.5225 -0 -0.85264 -0.64945 -0 -0.76041 -0.92388 -0 -0.38268 -0.99692 -0 -0.07846 -0.99692 0 0.07846 -0.92388 0 0.38268 -0.76041 0 0.64945 -0.64945 0 0.76041 -0.38268 0 0.92388 0.70711 -0 -0.70711 0.70711 0 0.70711 0.5225 0 -0.85264 0.64945 0 -0.76041 0.92388 0 -0.38268 0.92388 -0 0.38268 0.76041 -0 0.64945 0.64945 -0 0.76041 0.38268 -0 0.92388 1 -0 -0 -1 0 0 0 1 -0 -0 1 -0 -0 1 0 0 1 -0 -0 1 -0 -0 1 0 -0 1 -0 0 1 0 -0 1 -0 -0 1 0 0 1 -0 -2E-05 1 -1E-05 0 1 0 -0 1 -0 0 1 -0 0 1 0 -0 1 -0 -0 1 -0 0 -1 0 0 -1 0 0 -1 -0 0 -1 -0 0 -1 0 0 -0 -1 0 -0 -1 0 0 -1 0 0 -1 -0 -0 -1 -0 0 -1 -0 -0 -1 0 -0 -1 -0 0 -1 -0 0 -1 -0 -0 -1 -0 -0 -1 -0 -0 -1 0 0 -1 -0 0 -1 -0 0 -1 -0.80926 0 0.58745 0.80926 0 0.58745 0.58745 0 0.80926 0 0 -1 -0 -0 -1 0 -0 -1 -0 0 -1 -0 0 -1 0 0 -1 -0 -0 -1 -0 -0 -1 -0 -0 -1 -0 0 -1 -0 0 -1 -0 -0 -1 -0 -0 -1 0 0.94603 -0.32408 0 0.94603 0.32408 0 -0.94603 0.32408 -0 -0.94603 -0.32408 0 0.94603 -0.32408 0 -0.94603 0.32408 0 0.94603 0.32408 0 -0.94603 -0.32408 0.69965 0 0.71449 0.788 0 0.61567 0.86251 0 0.50605 0.92186 0 0.38753 0.96501 0 0.2622 0.99122 0 0.13226 0.99122 0 -0.13226 0.96501 0 -0.2622 0.92186 0 -0.38753 0.86251 0 -0.50605 0.788 0 -0.61568 0.69965 0 -0.71449 -0.69965 -0 -0.71449 -0.788 -0 -0.61568 -0.86251 -0 -0.50605 -0.92186 -0 -0.38753 -0.96501 -0 -0.2622 -0.99122 -0 -0.13226 -0.99122 0 0.13226 -0.96501 0 0.2622 -0.92186 0 0.38753 -0.86251 0 0.50605 -0.788 0 0.61567 -0.69965 0 0.71449 -0 0 1 0 0 1 0 0 1 0 0 1 0 0 1 0 0 1 0 -0 1 0 0 1 0 0 1 0 0 1 0 0 1 0 -0 1 0 0 1 0 0 1 -0 0 1 -0 0 1 0 0 1 0 0 1 0 -0 1 0 0 1 0 0 1 0 0 1 0 -0 1 -0 -0 1 -0 0 1 0 -0 1 0 0 1 0 0 1 0 -0 1 0 0 1 -0 0 1 0 0 1 0 0 1 0 -0 1 -0 -0 1 0 0 1 0 -0 1 0 0 1 -0 0 1 -0 0 1 -0 0 1 0 0 1 0 -0 1 0 0 1 -0 0 1 0 0 1</float_array>
          <technique_common>
            <accessor source="#norm_0-array" count="624" stride="3">
              <param name="X" type="float"/>
              <param name="Y" type="float"/>
              <param name="Z" type="float"/>
            </accessor>
          </technique_common>
        </source>
        <vertices id="vert_0">
          <input semantic="POSITION" source="#pos_0"/>
        </vertices>
        <triangles count="2000" material="mat_0">
          <input semantic="VERTEX" source="#vert_0" offset="0"/>
          <input semantic="NORMAL" source="#norm_0" offset="1"/>
          <p>0 0 1 0 2 0 3 1 4 1 5 1 6 2 4 2 7 2 8 2 9 2 10 2 11 2 10 2 12 2 12 2 10 2 9 2 8 2 10 2 13 2 13 2 10 2 11 2 14 2 15 2 13 2 14 2 13 2 12 2 13 2 11 2 12 2 16 2 17 2 18 2 19 2 20 2 21 2 21 2 20 2 22 2 23 2 24 2 25 2 25 2 24 2 26 2 26 2 24 2 27 2 26 2 27 2 18 2 18 2 27 2 19 2 19 2 27 2 20 2 28 2 29 2 30 2 30 2 29 2 31 2 31 2 29 2 23 2 31 2 23 2 25 2 28 2 30 2 32 2 28 2 32 2 33 2 33 2 32 2 34 2 33 2 34 2 35 2 33 2 35 2 22 2 22 2 35 2 21 2 12 2 36 2 37 2 38 2 36 2 12 2 37 2 36 2 38 2 9 2 1 2 39 2 40 2 39 2 41 2 40 2 9 2 39 2 42 2 1 2 43 2 42 2 44 2 45 2 44 2 46 2 47 2 48 2 49 2 50 2 49 2 48 2 47 2 51 2 48 2 50 2 52 2 53 2 54 2 55 2 56 2 57 2 52 2 58 2 53 2 57 2 59 2 55 2 55 2 59 2 52 2 58 2 59 2 53 2 53 2 59 2 57 2 59 2 58 2 52 2 56 2 60 2 61 2 62 2 63 2 64 2 61 2 60 2 63 2 63 2 62 2 61 2 7 2 62 2 64 2 37 2 6 2 65 2 19 2 66 2 67 2 18 2 19 2 16 2 1 2 8 2 43 2 7 2 68 2 65 2 69 2 70 2 71 2 68 2 71 2 72 2 72 2 71 2 42 2 15 2 14 2 73 2 73 2 14 2 74 2 12 2 65 2 14 2 75 2 76 2 77 2 78 2 79 2 75 2 77 2 76 2 31 2 31 2 76 2 80 2 80 2 76 2 81 2 80 2 81 2 79 2 82 2 83 2 78 2 75 2 77 2 84 2 75 2 84 2 78 2 78 2 84 2 82 2 77 2 85 2 84 2 84 2 85 2 86 2 86 2 85 2 17 2 17 2 16 2 86 2 19 2 67 2 16 2 56 2 55 2 63 2 56 2 63 2 60 2 50 2 52 2 54 2 70 2 69 2 50 2 70 2 50 2 87 2 64 2 69 2 7 2 7 2 69 2 68 2 68 2 69 2 71 2 63 2 55 2 64 2 42 2 87 2 49 2 49 2 87 2 50 2 42 2 49 2 44 2 44 2 49 2 47 2 74 2 72 2 73 2 73 2 72 2 42 2 73 2 42 2 43 2 61 2 88 2 56 2 54 2 51 2 50 2 6 2 7 2 65 2 45 2 1 2 42 2 65 2 12 2 37 2 82 2 67 2 83 2 12 2 83 2 38 2 78 2 12 2 9 2 83 2 12 2 89 2 83 2 89 2 78 2 78 2 89 2 12 2 79 2 78 2 9 2 41 2 79 2 9 2 41 2 9 2 40 2 9 2 8 2 1 2 66 2 83 2 67 2 41 2 90 2 91 2 41 2 91 2 80 2 41 2 80 2 79 2 92 3 93 3 94 3 95 3 96 3 97 3 98 3 3 3 5 3 99 3 100 3 101 3 102 3 103 3 104 3 104 3 103 3 105 3 105 3 103 3 102 3 104 3 106 3 107 3 105 3 108 3 106 3 105 3 106 3 104 3 109 3 110 3 108 3 108 3 110 3 107 3 108 3 107 3 106 3 110 3 109 3 111 3 112 3 113 3 101 3 112 3 101 3 114 3 112 3 114 3 115 3 115 3 114 3 116 3 115 3 116 3 117 3 115 3 117 3 118 3 101 3 113 3 119 3 101 3 119 3 99 3 99 3 119 3 120 3 99 3 120 3 121 3 120 3 122 3 121 3 121 3 122 3 123 3 121 3 123 3 124 3 123 3 125 3 124 3 124 3 125 3 126 3 126 3 125 3 118 3 126 3 118 3 117 3 5 3 127 3 107 3 107 3 127 3 128 3 129 3 128 3 127 3 130 3 128 3 129 3 131 3 132 3 133 3 134 3 132 3 135 3 133 3 132 3 134 3 135 3 132 3 131 3 136 3 137 3 130 3 98 3 138 3 139 3 98 3 93 3 92 3 98 3 92 3 139 3 98 3 140 3 93 3 94 3 141 3 92 3 92 3 141 3 139 3 94 3 142 3 143 3 144 3 143 3 145 3 145 3 143 3 142 3 144 3 145 3 146 3 144 3 146 3 147 3 146 3 142 3 94 3 142 3 146 3 145 3 148 3 147 3 146 3 149 3 150 3 97 3 151 3 95 3 150 3 97 3 150 3 95 3 151 3 149 3 152 3 152 3 149 3 153 3 151 3 150 3 149 3 153 3 151 3 152 3 131 3 154 3 135 3 155 3 133 3 134 3 154 3 105 3 135 3 111 3 156 3 110 3 157 3 156 3 111 3 158 3 159 3 140 3 157 3 160 3 158 3 157 3 158 3 161 3 5 3 161 3 140 3 161 3 158 3 140 3 110 3 162 3 5 3 5 3 162 3 161 3 163 3 164 3 165 3 155 3 165 3 164 3 166 3 155 3 167 3 124 3 163 3 168 3 168 3 166 3 169 3 168 3 169 3 124 3 137 3 170 3 128 3 101 3 171 3 137 3 137 3 171 3 170 3 172 3 173 3 100 3 173 3 174 3 100 3 100 3 174 3 101 3 101 3 174 3 171 3 170 3 175 3 167 3 172 3 169 3 173 3 173 3 169 3 166 3 173 3 166 3 167 3 173 3 167 3 175 3 140 3 159 3 149 3 140 3 149 3 93 3 93 3 149 3 176 3 97 3 148 3 176 3 176 3 148 3 146 3 176 3 146 3 94 3 153 3 160 3 154 3 160 3 157 3 111 3 160 3 111 3 154 3 153 3 149 3 160 3 128 3 130 3 137 3 124 3 164 3 163 3 170 3 177 3 128 3 102 3 178 3 167 3 167 3 178 3 170 3 170 3 178 3 177 3 102 3 167 3 134 3 155 3 134 3 167 3 177 3 178 3 128 3 128 3 178 3 102 3 128 3 102 3 107 3 107 3 102 3 104 3 102 3 134 3 135 3 5 3 107 3 110 3 166 3 165 3 155 3 102 3 135 3 105 3 140 3 98 3 5 3 154 3 131 3 0 3 154 3 0 3 153 3 179 3 141 3 94 3 179 3 94 3 143 3 176 3 149 3 97 3 180 0 181 0 90 0 182 1 137 1 183 1 183 1 137 1 136 1 184 4 185 4 186 4 184 4 186 4 187 4 188 5 189 5 164 5 164 5 189 5 91 5 57 6 144 6 53 6 53 6 144 6 147 6 190 1 191 1 192 1 193 0 194 0 195 0 108 6 196 6 197 6 15 7 73 7 109 7 109 7 73 7 111 7 198 1 199 1 200 1 200 1 199 1 201 1 202 0 203 0 204 0 161 8 68 8 157 8 157 8 68 8 72 8 74 9 14 9 156 9 156 9 14 9 110 9 76 10 75 10 205 10 205 10 75 10 206 10 207 1 208 1 209 1 209 1 208 1 210 1 84 11 86 11 173 11 173 11 86 11 174 11 211 0 212 0 213 0 213 0 212 0 67 0 17 12 85 12 100 12 100 12 85 12 172 12 77 13 214 13 169 13 169 13 214 13 215 13 216 6 25 6 26 6 217 0 218 0 55 0 219 8 220 8 221 8 69 14 93 14 50 14 50 14 93 14 222 14 158 6 223 6 71 6 224 7 149 7 70 7 70 7 149 7 225 7 226 1 227 1 228 1 229 15 230 15 231 15 229 16 231 16 232 16 232 17 231 17 233 17 232 17 233 17 234 17 234 18 233 18 235 18 234 18 235 18 236 18 236 19 235 19 237 19 236 19 237 19 238 19 238 20 237 20 239 20 238 20 239 20 240 20 240 21 239 21 241 21 240 21 241 21 242 21 242 22 241 22 243 22 242 22 243 22 244 22 244 23 243 23 245 23 244 23 245 23 246 23 246 24 245 24 247 24 246 24 247 24 248 24 248 0 247 0 249 0 248 0 249 0 250 0 250 25 249 25 251 25 250 25 251 25 252 25 252 26 251 26 253 26 252 26 253 26 254 26 254 27 253 27 255 27 254 27 255 27 256 27 256 28 255 28 257 28 256 28 257 28 258 28 258 29 257 29 259 29 258 29 259 29 260 29 260 30 259 30 261 30 260 30 261 30 262 30 262 31 261 31 263 31 262 31 263 31 264 31 264 32 263 32 265 32 264 32 265 32 266 32 266 33 265 33 267 33 266 34 267 34 268 34 269 3 270 3 271 3 271 3 272 3 269 3 273 3 274 3 275 3 276 3 272 3 277 3 277 3 272 3 271 3 278 3 269 3 272 3 271 3 275 3 277 3 277 3 275 3 279 3 279 3 275 3 274 3 279 3 274 3 280 3 273 3 281 3 274 3 282 3 271 3 270 3 280 3 283 3 279 3 283 3 284 3 279 3 285 3 244 3 286 3 287 3 244 3 288 3 289 3 290 3 291 3 254 3 292 3 286 3 286 3 292 3 285 3 289 3 291 3 293 3 289 3 293 3 254 3 288 3 244 3 285 3 294 3 295 3 296 3 287 3 288 3 297 3 298 3 299 3 300 3 298 3 300 3 301 3 290 3 289 3 302 3 290 3 302 3 303 3 294 3 296 3 303 3 294 3 303 3 302 3 293 3 292 3 254 3 298 3 304 3 305 3 305 3 304 3 306 3 298 3 305 3 299 3 307 3 308 3 295 3 287 3 297 3 306 3 287 3 306 3 304 3 295 3 308 3 296 3 307 3 301 3 300 3 308 3 307 3 300 3 268 35 267 35 309 35 268 36 309 36 310 36 310 37 309 37 311 37 310 37 311 37 312 37 312 38 311 38 313 38 312 38 313 38 314 38 314 39 313 39 315 39 314 39 315 39 316 39 316 40 315 40 317 40 316 40 317 40 318 40 318 41 317 41 319 41 318 41 319 41 320 41 320 42 319 42 321 42 320 42 321 42 322 42 322 43 321 43 323 43 322 43 323 43 324 43 324 44 323 44 325 44 324 44 325 44 326 44 326 1 325 1 327 1 326 1 327 1 328 1 328 45 327 45 329 45 328 45 329 45 330 45 330 46 329 46 331 46 330 46 331 46 332 46 332 47 331 47 333 47 332 47 333 47 334 47 334 48 333 48 335 48 334 48 335 48 336 48 336 49 335 49 337 49 336 49 337 49 338 49 338 50 337 50 339 50 338 50 339 50 340 50 340 51 339 51 341 51 340 51 341 51 342 51 342 52 341 52 343 52 342 52 343 52 344 52 344 53 343 53 230 53 344 54 230 54 229 54 345 2 346 2 347 2 348 2 349 2 347 2 350 2 345 2 347 2 351 2 349 2 348 2 352 2 353 2 354 2 355 2 356 2 345 2 357 2 354 2 358 2 352 2 354 2 359 2 359 2 354 2 357 2 345 2 360 2 346 2 361 2 349 2 362 2 363 2 364 2 356 2 359 2 364 2 352 2 365 2 362 2 354 2 359 2 366 2 364 2 358 2 354 2 362 2 360 2 345 2 356 2 360 2 356 2 366 2 366 2 356 2 364 2 349 2 351 2 362 2 362 2 351 2 367 2 362 2 367 2 368 2 362 2 368 2 358 2 369 2 370 2 371 2 371 2 370 2 372 2 371 2 372 2 373 2 373 2 372 2 374 2 373 2 374 2 375 2 375 2 374 2 376 2 375 2 376 2 377 2 377 2 376 2 378 2 377 2 378 2 379 2 379 2 378 2 380 2 379 2 380 2 381 2 381 2 380 2 382 2 381 2 382 2 383 2 383 2 382 2 384 2 383 2 384 2 369 2 369 2 384 2 370 2 385 2 386 2 387 2 388 2 389 2 390 2 391 2 392 2 393 2 394 2 395 2 396 2 394 2 397 2 395 2 398 2 399 2 400 2 401 2 402 2 403 2 403 2 404 2 401 2 401 2 404 2 405 2 406 2 407 2 399 2 408 2 406 2 403 2 408 2 403 2 409 2 403 2 406 2 404 2 410 2 411 2 412 2 413 2 410 2 412 2 406 2 399 2 398 2 412 2 411 2 414 2 412 2 414 2 415 2 413 2 412 2 415 2 413 2 415 2 414 2 402 2 409 2 403 2 408 2 409 2 416 2 402 2 416 2 409 2 398 2 417 2 406 2 400 2 399 2 418 2 407 2 418 2 399 2 410 2 413 2 407 2 414 2 419 2 413 2 420 2 421 2 422 2 420 2 422 2 423 2 424 2 425 2 426 2 427 2 428 2 429 2 430 1 431 1 432 1 433 2 434 2 435 2 433 2 435 2 436 2 436 2 435 2 437 2 433 2 438 2 434 2 439 2 440 2 441 2 440 2 442 2 441 2 443 55 444 55 445 55 443 55 445 55 446 55 446 56 445 56 447 56 446 56 447 56 448 56 449 57 450 57 451 57 449 57 451 57 452 57 453 58 454 58 455 58 453 58 455 58 456 58 456 59 455 59 457 59 456 59 457 59 458 59 459 60 460 60 461 60 459 60 461 60 462 60 463 61 464 61 465 61 463 61 465 61 466 61 466 62 465 62 467 62 466 62 467 62 468 62 469 63 470 63 471 63 469 63 471 63 472 63 473 64 474 64 475 64 476 65 477 65 478 65 479 66 480 66 481 66 479 66 481 66 482 66 482 67 481 67 483 67 482 67 483 67 484 67 485 68 486 68 487 68 485 68 487 68 488 68 489 69 490 69 491 69 489 69 491 69 492 69 493 70 494 70 495 70 493 70 495 70 496 70 496 71 495 71 497 71 496 71 497 71 498 71 499 72 500 72 501 72 499 72 501 72 502 72 503 2 504 2 505 2 505 2 504 2 506 2 505 2 507 2 503 2 508 2 509 2 510 2 509 2 511 2 510 2 512 3 513 3 514 3 515 3 516 3 517 3 518 3 515 3 517 3 519 3 518 3 520 3 521 3 522 3 523 3 524 3 523 3 522 3 525 3 526 3 524 3 523 3 524 3 527 3 527 3 526 3 528 3 527 3 528 3 529 3 530 3 529 3 528 3 531 3 529 3 530 3 532 3 514 3 516 3 528 3 525 3 514 3 524 3 526 3 527 3 514 3 533 3 534 3 534 3 533 3 535 3 528 3 536 3 530 3 531 3 536 3 514 3 531 3 530 3 536 3 531 3 534 3 537 3 519 3 520 3 538 3 525 3 539 3 538 3 539 3 540 3 538 3 516 3 541 3 517 3 517 3 541 3 518 3 516 3 514 3 541 3 522 3 525 3 524 3 521 3 539 3 522 3 526 3 525 3 528 3 514 3 532 3 512 3 522 3 539 3 525 3 528 3 514 3 536 3 533 3 514 3 513 3 540 3 519 3 538 3 535 3 533 3 513 3 514 3 534 3 531 3 538 3 541 3 525 3 514 3 525 3 541 3 534 3 535 3 542 3 518 3 541 3 538 3 534 3 542 3 537 3 543 3 544 3 545 3 546 3 543 3 545 3 547 73 548 73 549 73 550 3 551 3 552 3 553 3 550 3 552 3 554 2 555 2 556 2 556 2 555 2 557 2 558 74 559 74 560 74 561 2 562 2 563 2 564 2 565 2 566 2 567 2 568 2 569 2 568 2 570 2 569 2 564 2 562 2 565 2 571 2 572 2 573 2 571 2 574 2 572 2 572 2 575 2 573 2 571 2 576 2 574 2 575 2 577 2 573 2 577 2 575 2 567 2 573 2 577 2 571 2 578 2 577 2 567 2 569 2 578 2 567 2 577 2 578 2 571 2 562 2 561 2 565 2 566 2 571 2 579 2 561 2 576 2 565 2 580 2 571 2 578 2 566 2 579 2 580 2 580 2 579 2 571 2 566 2 565 2 571 2 571 2 565 2 576 2 581 75 582 75 583 75 581 76 584 76 582 76 585 3 586 3 587 3 588 3 589 3 590 3 591 3 592 3 593 3 594 3 595 3 596 3 584 3 581 3 587 3 595 3 594 3 581 3 591 3 594 3 592 3 589 3 591 3 597 3 598 77 597 77 591 77 587 3 586 3 584 3 594 3 587 3 581 3 589 3 588 3 591 3 591 3 588 3 587 3 591 3 587 3 594 3 588 3 599 3 587 3 595 3 581 3 583 3 600 2 601 2 602 2 602 2 601 2 603 2 604 78 605 78 606 78 605 3 607 3 608 3 605 3 608 3 609 3 605 79 609 79 606 79 606 80 609 80 610 80 606 81 610 81 611 81 612 82 613 82 606 82 612 83 606 83 611 83 614 84 615 84 616 84 617 3 608 3 607 3 618 85 615 85 619 85 620 86 621 86 622 86 623 87 615 87 618 87 612 88 611 88 624 88 619 89 615 89 614 89 619 3 614 3 625 3 626 90 627 90 612 90 614 91 612 91 625 91 625 92 612 92 624 92 628 3 629 3 630 3 630 3 629 3 631 3 630 3 631 3 632 3 632 3 631 3 633 3 632 3 633 3 634 3 634 3 633 3 635 3 634 3 635 3 636 3 634 3 636 3 637 3 637 3 636 3 638 3 637 3 638 3 639 3 639 3 638 3 640 3 639 3 640 3 641 3 641 3 640 3 642 3 641 3 642 3 643 3 643 3 642 3 644 3 643 3 644 3 645 3 643 3 645 3 628 3 628 3 645 3 629 3 646 93 647 93 648 93 648 2 647 2 649 2 648 94 650 94 646 94 650 2 648 2 649 2 650 2 651 2 652 2 652 2 651 2 653 2 653 2 651 2 654 2 654 2 655 2 656 2 654 2 657 2 655 2 658 95 659 95 660 95 659 96 658 96 657 96 661 2 659 2 662 2 663 2 661 2 662 2 664 2 665 2 666 2 667 2 664 2 666 2 668 2 665 2 664 2 668 2 664 2 667 2 668 2 667 2 669 2 667 2 670 2 669 2 671 2 670 2 672 2 669 2 670 2 671 2 649 2 673 2 672 2 649 2 674 2 673 2 646 97 674 97 647 97 649 2 647 2 674 2 649 2 675 2 650 2 650 2 675 2 654 2 650 2 654 2 651 2 672 2 670 2 667 2 672 2 667 2 676 2 672 2 676 2 649 2 666 2 677 2 667 2 663 2 662 2 666 2 666 2 662 2 678 2 666 2 678 2 677 2 656 2 655 2 657 2 657 2 679 2 680 2 657 2 680 2 662 2 675 2 679 2 654 2 654 2 679 2 657 2 657 2 662 2 659 2 681 2 682 2 683 2 684 2 683 2 685 2 686 2 687 2 688 2 684 2 688 2 683 2 687 2 686 2 689 2 689 2 686 2 685 2 690 2 691 2 692 2 692 2 693 2 694 2 695 2 696 2 697 2 698 2 695 2 699 2 694 2 696 2 698 2 699 2 695 2 697 2 697 2 700 2 681 2 681 2 700 2 682 2 691 2 689 2 692 2 687 2 689 2 690 2 689 2 701 2 692 2 702 2 697 2 696 2 700 2 702 2 682 2 702 2 703 2 682 2 683 2 682 2 703 2 703 2 685 2 683 2 694 2 693 2 701 2 694 2 701 2 696 2 704 3 705 3 706 3 707 3 706 3 705 3 704 3 708 3 709 3 708 3 710 3 709 3 711 3 712 3 713 3 714 3 712 3 715 3 713 3 716 3 717 3 718 3 716 3 719 3 719 3 716 3 707 3 714 3 710 3 713 3 714 3 713 3 712 3 713 3 717 3 711 3 711 3 717 3 718 3 718 3 717 3 716 3 705 3 720 3 707 3 705 3 721 3 722 3 721 3 705 3 704 3 715 3 712 3 711 3 722 3 721 3 709 3 713 3 710 3 723 3 723 3 710 3 708 3 723 3 708 3 704 3 707 3 723 3 704 3 716 3 713 3 707 3 707 3 704 3 706 3 704 3 709 3 721 3 707 3 713 3 723 3 724 2 725 2 726 2 725 2 727 2 726 2 726 2 727 2 724 2 724 2 728 2 725 2 725 2 729 2 730 2 725 2 730 2 727 2 728 2 731 2 725 2 725 2 731 2 729 2 729 2 731 2 732 2 732 2 731 2 728 2 733 1 734 1 735 1 736 1 734 1 733 1 734 1 737 1 735 1 738 1 736 1 739 1 735 1 737 1 739 1 739 1 737 1 738 1 736 1 738 1 737 1 737 1 734 1 736 1 740 8 733 8 741 8 736 8 742 8 743 8 743 8 744 8 741 8 741 8 744 8 740 8 733 8 740 8 744 8 742 8 736 8 733 8 742 8 733 8 744 8 742 8 744 8 743 8 745 0 746 0 741 0 741 0 746 0 743 0 747 0 746 0 745 0 743 0 748 0 747 0 747 0 748 0 749 0 747 0 749 0 746 0 748 0 743 0 749 0 749 0 743 0 746 0 739 98 750 98 735 98 750 99 739 99 747 99 745 100 751 100 752 100 752 101 750 101 745 101 745 102 750 102 747 102 752 103 735 103 750 103 735 104 752 104 751 104 735 105 751 105 745 105 743 3 747 3 736 3 736 3 747 3 739 3 745 2 741 2 735 2 735 2 741 2 733 2 753 2 754 2 755 2 756 2 754 2 753 2 754 2 757 2 755 2 758 2 756 2 759 2 755 2 757 2 759 2 759 2 757 2 758 2 756 2 758 2 757 2 757 2 754 2 756 2 760 8 753 8 761 8 762 8 763 8 761 8 761 8 763 8 760 8 753 8 760 8 763 8 762 8 756 8 764 8 764 8 756 8 753 8 764 8 753 8 763 8 764 8 763 8 762 8 765 3 766 3 761 3 761 3 766 3 762 3 767 3 766 3 765 3 762 3 768 3 767 3 767 3 768 3 769 3 767 3 769 3 766 3 768 3 762 3 769 3 769 3 762 3 766 3 759 106 770 106 755 106 770 107 759 107 767 107 765 108 771 108 772 108 772 109 770 109 765 109 765 110 770 110 767 110 771 111 755 111 772 111 772 112 755 112 770 112 755 113 771 113 765 113 762 1 767 1 756 1 756 1 767 1 759 1 765 0 761 0 755 0 755 0 761 0 753 0 773 0 774 0 775 0 776 1 777 1 778 1 779 2 780 2 781 2 782 2 783 2 784 2 782 2 785 2 783 2 784 2 783 2 785 2 784 2 786 2 782 2 787 2 782 2 786 2 787 2 786 2 788 2 787 2 788 2 789 2 790 2 791 2 792 2 793 2 794 2 790 2 793 2 790 2 792 2 793 2 792 2 791 2 791 2 795 2 793 2 796 2 795 2 797 2 795 2 791 2 797 2 798 2 799 2 800 2 801 2 802 2 803 2 803 2 802 2 804 2 803 2 804 2 799 2 799 2 804 2 805 2 799 2 805 2 806 2 799 2 806 2 800 2 807 2 808 2 809 2 806 2 810 2 800 2 800 2 810 2 811 2 809 2 808 2 812 2 809 2 812 2 813 2 813 2 812 2 814 2 813 2 814 2 815 2 813 2 815 2 811 2 811 2 815 2 800 2 803 2 816 2 808 2 807 2 801 2 808 2 808 2 801 2 803 2 808 2 816 2 817 2 808 2 817 2 818 2 781 2 819 2 818 2 820 2 779 2 781 2 821 2 822 2 779 2 820 2 821 2 779 2 823 2 824 2 822 2 823 2 822 2 821 2 824 2 823 2 773 2 825 2 826 2 827 2 828 2 826 2 825 2 829 2 828 2 825 2 829 2 830 2 828 2 831 2 832 2 830 2 831 2 830 2 833 2 834 2 835 2 784 2 836 2 837 2 838 2 781 2 838 2 837 2 781 2 837 2 820 2 836 2 839 2 840 2 840 2 839 2 841 2 842 2 843 2 844 2 791 2 842 2 797 2 797 2 842 2 844 2 842 2 791 2 843 2 843 2 791 2 790 2 845 2 794 2 823 2 845 2 846 2 794 2 846 2 845 2 847 2 847 2 845 2 848 2 848 2 845 2 823 2 821 2 820 2 848 2 849 2 790 2 794 2 821 2 848 2 823 2 797 2 841 2 839 2 850 2 827 2 823 2 794 2 851 2 823 2 851 2 794 2 852 2 852 2 794 2 853 2 827 2 850 2 854 2 853 2 854 2 852 2 839 2 855 2 797 2 798 2 800 2 856 2 798 2 856 2 857 2 857 2 856 2 858 2 857 2 858 2 797 2 857 2 797 2 859 2 859 2 797 2 855 2 817 2 816 2 859 2 800 2 860 2 861 2 861 2 860 2 862 2 862 2 860 2 796 2 796 2 797 2 862 2 800 2 861 2 856 2 863 2 864 2 789 2 789 2 864 2 865 2 789 2 865 2 827 2 827 2 865 2 866 2 867 2 864 2 863 2 868 2 867 2 863 2 868 2 829 2 867 2 830 2 829 2 833 2 833 2 829 2 868 2 827 2 866 2 825 2 825 2 866 2 829 2 789 2 788 2 863 2 784 2 788 2 786 2 784 2 869 2 834 2 855 2 870 2 859 2 859 2 870 2 817 2 818 2 817 2 871 2 789 2 853 2 794 2 789 2 872 2 853 2 827 2 873 2 789 2 789 2 873 2 872 2 853 2 874 2 854 2 854 2 874 2 827 2 827 2 874 2 873 2 835 2 875 2 831 2 835 2 831 2 876 2 833 2 877 2 831 2 876 2 877 2 878 2 877 2 876 2 831 2 878 2 784 2 835 2 878 2 835 2 876 2 878 2 877 2 784 2 784 2 877 2 833 2 785 2 869 2 784 2 789 2 777 2 787 2 849 2 794 2 846 2 849 2 846 2 847 2 773 2 823 2 827 2 827 2 826 2 773 2 844 2 841 2 797 2 855 2 839 2 836 2 855 2 836 2 781 2 781 2 836 2 838 2 818 2 871 2 781 2 819 2 781 2 780 2 879 3 776 3 880 3 881 3 882 3 883 3 884 3 885 3 886 3 887 3 888 3 889 3 887 3 889 3 890 3 891 3 892 3 890 3 891 3 890 3 889 3 885 3 888 3 886 3 886 3 888 3 887 3 886 3 887 3 892 3 892 3 887 3 890 3 893 3 894 3 895 3 896 3 897 3 898 3 899 3 897 3 896 3 897 3 895 3 898 3 895 3 897 3 899 3 900 3 901 3 902 3 901 3 903 3 884 3 885 3 884 3 903 3 895 3 894 3 880 3 904 3 900 3 905 3 906 3 907 3 896 3 896 3 907 3 908 3 905 3 900 3 906 3 906 3 900 3 907 3 909 3 881 3 883 3 910 3 881 3 909 3 911 3 912 3 909 3 909 3 912 3 910 3 910 3 912 3 911 3 774 3 911 3 913 3 914 3 915 3 916 3 916 3 915 3 917 3 918 3 919 3 920 3 921 3 922 3 920 3 923 3 924 3 925 3 924 3 926 3 925 3 925 3 926 3 920 3 920 3 926 3 921 3 927 3 923 3 928 3 920 3 922 3 918 3 922 3 929 3 918 3 918 3 929 3 930 3 927 3 928 3 931 3 927 3 931 3 932 3 932 3 931 3 933 3 932 3 933 3 934 3 932 3 934 3 930 3 930 3 934 3 918 3 928 3 923 3 925 3 928 3 925 3 935 3 935 3 925 3 936 3 935 3 936 3 937 3 935 3 938 3 939 3 898 3 940 3 941 3 942 3 941 3 940 3 943 3 898 3 895 3 940 3 898 3 943 3 944 3 945 3 943 3 880 3 944 3 895 3 895 3 944 3 943 3 945 3 944 3 880 3 946 3 947 3 948 3 946 3 948 3 949 3 879 3 948 3 947 3 949 3 948 3 879 3 950 3 951 3 946 3 946 3 951 3 947 3 951 3 950 3 947 3 888 3 914 3 952 3 953 3 954 3 905 3 905 3 954 3 955 3 955 3 954 3 956 3 956 3 954 3 957 3 956 3 957 3 919 3 919 3 957 3 920 3 939 3 938 3 941 3 941 3 938 3 958 3 953 3 905 3 906 3 953 3 906 3 959 3 953 3 959 3 936 3 936 3 959 3 937 3 935 3 937 3 938 3 913 3 960 3 961 3 961 3 960 3 962 3 961 3 962 3 963 3 963 3 962 3 909 3 909 3 962 3 964 3 913 3 911 3 909 3 965 3 966 3 946 3 961 3 949 3 880 3 880 3 949 3 879 3 961 3 963 3 949 3 883 3 967 3 909 3 917 3 904 3 919 3 919 3 904 3 956 3 968 3 913 3 961 3 961 3 880 3 969 3 889 3 970 3 971 3 971 3 969 3 889 3 971 3 970 3 972 3 971 3 972 3 968 3 968 3 972 3 913 3 899 3 896 3 908 3 908 3 907 3 902 3 901 3 900 3 903 3 917 3 919 3 916 3 916 3 919 3 973 3 919 3 974 3 973 3 958 3 896 3 941 3 941 3 896 3 898 3 880 3 894 3 889 3 880 3 889 3 969 3 891 3 889 3 894 3 891 3 894 3 893 3 885 3 914 3 888 3 900 3 904 3 917 3 900 3 917 3 903 3 903 3 917 3 885 3 885 3 917 3 915 3 885 3 915 3 914 3 972 3 952 3 913 3 914 3 975 3 774 3 914 3 774 3 952 3 913 3 952 3 774 3 966 3 950 3 946 3 946 3 976 3 965 3 967 3 883 3 977 3 967 3 977 3 978 3 979 3 978 3 976 3 976 3 978 3 965 3 965 3 978 3 977 3 967 3 978 3 946 3 978 3 979 3 946 3 946 3 979 3 976 3 977 3 980 3 965 3 981 0 982 0 983 0 796 1 984 1 942 1 918 5 808 5 985 5 918 5 985 5 986 5 800 4 987 4 988 4 875 6 989 6 977 6 990 1 991 1 992 1 993 1 994 1 995 1 996 0 997 0 998 0 999 0 1000 0 1001 0 972 7 970 7 854 7 854 7 970 7 852 7 851 6 889 6 1002 6 1003 1 952 1 1004 1 1004 1 952 1 850 1 957 114 954 114 816 114 816 114 954 114 859 114 953 115 936 115 857 115 857 115 936 115 798 115 799 6 925 6 803 6 861 0 1005 0 938 0 962 7 864 7 867 7 962 7 867 7 1006 7 865 6 960 6 1007 6 1008 1 1009 1 829 1 833 8 967 8 1010 8 909 14 868 14 963 14 963 14 868 14 863 14 904 116 1011 116 1012 116 1013 1 1014 1 1015 1 873 8 968 8 872 8 872 8 968 8 961 8 1016 0 1017 0 1018 0 1019 9 971 9 1020 9 1021 0 1022 0 1023 0 1024 0 1022 0 1021 0 1022 0 1025 0 1023 0 1026 0 1024 0 1027 0 1023 0 1025 0 1027 0 1027 0 1025 0 1026 0 1024 0 1026 0 1025 0 1025 0 1022 0 1024 0 1028 8 1021 8 1029 8 1024 8 1030 8 1031 8 1031 8 1032 8 1029 8 1029 8 1032 8 1028 8 1021 8 1028 8 1032 8 1030 8 1024 8 1021 8 1030 8 1021 8 1032 8 1030 8 1032 8 1031 8 1033 1 1034 1 1029 1 1029 1 1034 1 1031 1 1035 1 1034 1 1033 1 1031 1 1036 1 1035 1 1035 1 1036 1 1037 1 1035 1 1037 1 1034 1 1036 1 1031 1 1037 1 1037 1 1031 1 1034 1 1027 6 1038 6 1023 6 1038 6 1027 6 1035 6 1033 117 1039 117 1040 117 1040 118 1038 118 1033 118 1033 6 1038 6 1035 6 1040 119 1023 119 1038 119 1023 120 1040 120 1039 120 1023 6 1039 6 1033 6 1031 2 1035 2 1024 2 1024 2 1035 2 1027 2 1033 3 1029 3 1023 3 1023 3 1029 3 1021 3 1041 3 1042 3 1043 3 1044 3 1042 3 1041 3 1042 3 1045 3 1043 3 1046 3 1044 3 1047 3 1043 3 1045 3 1047 3 1047 3 1045 3 1046 3 1044 3 1046 3 1045 3 1045 3 1042 3 1044 3 1048 8 1041 8 1049 8 1050 8 1051 8 1049 8 1049 8 1051 8 1048 8 1041 8 1048 8 1051 8 1050 8 1044 8 1052 8 1052 8 1044 8 1041 8 1052 8 1041 8 1051 8 1052 8 1051 8 1050 8 1053 2 1054 2 1049 2 1049 2 1054 2 1050 2 1055 2 1054 2 1053 2 1050 2 1056 2 1055 2 1055 2 1056 2 1057 2 1055 2 1057 2 1054 2 1056 2 1050 2 1057 2 1057 2 1050 2 1054 2 1047 121 1058 121 1043 121 1058 122 1047 122 1055 122 1053 123 1059 123 1060 123 1060 124 1058 124 1053 124 1053 125 1058 125 1055 125 1059 126 1043 126 1060 126 1060 127 1043 127 1058 127 1043 128 1059 128 1053 128 1050 0 1055 0 1044 0 1044 0 1055 0 1047 0 1053 1 1049 1 1043 1 1043 1 1049 1 1041 1 1061 3 1062 3 1063 3 1064 3 1065 3 1066 3 1065 3 1067 3 1063 3 1065 3 1063 3 1068 3 1065 3 1068 3 1069 3 1069 3 1070 3 1071 3 1069 3 1071 3 1066 3 1065 3 1069 3 1066 3 1072 3 1073 3 1074 3 1075 3 1076 3 1077 3 1072 3 1078 3 1073 3 1079 3 1077 3 1080 3 1080 3 1077 3 1076 3 1080 3 1076 3 1074 3 1074 3 1076 3 1075 3 1074 3 1073 3 1080 3 1078 3 1079 3 1080 3 1078 3 1080 3 1073 3 1081 2 1082 2 1083 2 1081 2 1084 2 1082 2 1085 2 1086 2 1087 2 1081 2 1088 2 1084 2 1089 2 1088 2 1081 2 1090 2 1083 2 1091 2 1089 2 1092 2 1088 2 1089 2 1093 2 1092 2 1094 2 1086 2 1085 2 1083 2 1090 2 1081 2 1085 2 1090 2 1094 2 1086 2 1094 2 1091 2 1091 2 1094 2 1090 2 1095 2 1093 2 1096 2 1085 2 1095 2 1096 2 1085 2 1087 2 1095 2 1090 2 1089 2 1081 2 1096 2 1093 2 1085 2 1085 2 1093 2 1089 2 1085 2 1089 2 1090 2 1097 3 1098 3 1099 3 1100 2 1101 2 1102 2 1102 2 1101 2 1103 2 1104 3 1105 3 1106 3 1104 3 1106 3 1107 3 1108 129 1109 129 1110 129 1111 0 1105 0 1112 0 1112 0 1105 0 1113 0 1114 0 1115 0 1113 0 1115 0 1112 0 1113 0 1116 0 1117 0 1111 0 1117 0 1118 0 1119 0 1119 0 1111 0 1117 0 1120 0 1121 0 1122 0 1123 0 1124 0 1125 0 1124 0 1123 0 1126 0 1123 0 1127 0 1126 0 1128 0 1127 0 1125 0 1125 0 1127 0 1123 0 1129 0 1130 0 1131 0 1130 0 1129 0 1128 0 1132 0 1133 0 1114 0 1130 0 1134 0 1135 0 1114 0 1133 0 1112 0 1112 0 1115 0 1114 0 1136 0 1111 0 1137 0 1136 0 1137 0 1138 0 1137 0 1139 0 1138 0 1138 0 1139 0 1140 0 1140 0 1139 0 1141 0 1142 0 1143 0 1141 0 1143 0 1142 0 1112 0 1111 0 1112 0 1137 0 1140 0 1144 0 1121 0 1136 0 1116 0 1111 0 1145 0 1128 0 1146 0 1128 0 1125 0 1146 0 1147 0 1148 0 1149 0 1150 0 1151 0 1152 0 1149 0 1152 0 1153 0 1153 0 1152 0 1151 0 1145 0 1146 0 1151 0 1151 0 1146 0 1153 0 1154 0 1155 0 1156 0 1154 0 1156 0 1108 0 1108 0 1156 0 1148 0 1148 0 1156 0 1157 0 1155 0 1157 0 1156 0 1154 0 1158 0 1157 0 1154 0 1157 0 1155 0 1157 0 1158 0 1159 0 1122 0 1158 0 1154 0 1159 0 1122 0 1144 0 1144 0 1122 0 1121 0 1159 0 1158 0 1122 0 1149 0 1148 0 1152 0 1152 0 1148 0 1140 0 1160 0 1152 0 1140 0 1141 0 1143 0 1140 0 1140 0 1143 0 1160 0 1133 0 1143 0 1112 0 1161 0 1150 0 1152 0 1162 0 1161 0 1134 0 1152 0 1163 0 1161 0 1161 0 1163 0 1134 0 1128 0 1145 0 1130 0 1130 0 1145 0 1162 0 1135 0 1134 0 1132 0 1132 0 1134 0 1163 0 1132 0 1163 0 1143 0 1132 0 1143 0 1133 0 1162 0 1134 0 1130 0 1135 0 1164 0 1130 0 1130 0 1164 0 1131 0 1138 0 1140 0 1121 0 1116 0 1118 0 1117 0 1165 0 1166 0 1118 0 1165 0 1118 0 1116 0 1125 0 1167 0 1168 0 1167 0 1125 0 1124 0 1124 0 1168 0 1167 0 1120 0 1166 0 1121 0 1121 0 1166 0 1116 0 1116 0 1166 0 1165 0 1168 0 1169 0 1125 0 1147 0 1125 0 1108 0 1147 0 1108 0 1148 0 1125 0 1169 0 1108 0 1170 1 1171 1 1172 1 1173 1 1174 1 1175 1 1176 1 1177 1 1178 1 1178 1 1177 1 1179 1 1180 1 1181 1 1182 1 1181 1 1183 1 1182 1 1184 1 1107 1 1180 1 1184 1 1180 1 1185 1 1185 1 1180 1 1182 1 1186 1 1187 1 1179 1 1177 1 1186 1 1179 1 1187 1 1186 1 1188 1 1175 1 1174 1 1187 1 1173 1 1189 1 1174 1 1190 1 1191 1 1110 1 1192 1 1107 1 1193 1 1192 1 1193 1 1190 1 1190 1 1193 1 1194 1 1190 1 1194 1 1195 1 1195 1 1194 1 1196 1 1196 1 1194 1 1193 1 1180 1 1197 1 1198 1 1107 1 1199 1 1197 1 1107 1 1197 1 1180 1 1198 1 1200 1 1201 1 1107 1 1192 1 1199 1 1199 1 1192 1 1200 1 1200 1 1192 1 1202 1 1190 1 1203 1 1172 1 1200 1 1202 1 1201 1 1201 1 1202 1 1171 1 1204 1 1175 1 1205 1 1204 1 1205 1 1109 1 1109 1 1205 1 1206 1 1187 1 1188 1 1207 1 1187 1 1207 1 1175 1 1201 1 1208 1 1209 1 1210 1 1201 1 1211 1 1211 1 1201 1 1209 1 1211 1 1209 1 1207 1 1211 1 1207 1 1188 1 1201 1 1206 1 1205 1 1110 1 1212 1 1190 1 1190 1 1212 1 1203 1 1110 1 1213 1 1212 1 1212 1 1213 1 1214 1 1215 1 1213 1 1110 1 1215 1 1216 1 1214 1 1215 1 1214 1 1213 1 1109 1 1217 1 1215 1 1215 1 1217 1 1216 1 1214 1 1216 1 1218 1 1218 1 1216 1 1217 1 1218 1 1217 1 1206 1 1109 1 1206 1 1217 1 1205 1 1208 1 1201 1 1172 1 1203 1 1170 1 1181 1 1219 1 1183 1 1198 1 1220 1 1180 1 1180 1 1220 1 1181 1 1181 1 1220 1 1219 1 1220 1 1198 1 1201 1 1220 1 1201 1 1221 1 1201 1 1210 1 1222 1 1222 1 1210 1 1223 1 1222 1 1223 1 1224 1 1224 1 1177 1 1176 1 1183 1 1219 1 1224 1 1177 1 1224 1 1223 1 1186 1 1225 1 1188 1 1195 1 1226 1 1227 1 1195 1 1227 1 1190 1 1190 1 1227 1 1226 1 1190 1 1226 1 1191 1 1204 1 1228 1 1175 1 1175 1 1228 1 1189 1 1175 1 1189 1 1173 1 1228 1 1204 1 1189 1 1171 1 1170 1 1201 1 1221 1 1201 1 1222 1 1223 1 1225 1 1177 1 1177 1 1225 1 1186 1 1176 1 1183 1 1224 1 1164 2 1229 2 1131 2 1230 3 1113 3 1185 3 1189 2 1168 2 1126 2 1196 3 1118 3 1166 3 1132 8 1183 8 1231 8 1232 130 1233 130 1141 130 1141 130 1233 130 1142 130 1234 2 1112 2 1197 2 1235 2 1236 2 1237 2 1238 131 1121 131 1171 131 1171 131 1121 131 1172 131 1149 132 1208 132 1147 132 1147 132 1208 132 1205 132 1239 133 1170 133 1203 133 1239 133 1203 133 1144 133 1240 8 1212 8 1157 8 1157 8 1212 8 1218 8 1148 134 1206 134 1241 134 1242 6 1243 6 1244 6 1242 6 1244 6 1245 6 1246 135 1247 135 1220 135 1220 135 1247 135 1143 135 1152 136 1222 136 1163 136 1163 136 1222 136 1224 136 1162 3 1248 3 1225 3 1223 137 1210 137 1161 137 1161 137 1210 137 1150 137 1249 2 1250 2 1251 2 1252 2 1250 2 1249 2 1252 2 1249 2 1253 2 1251 2 1254 2 1249 2 1249 2 1254 2 1253 2 1253 2 1254 2 1251 2 1255 0 1256 0 1257 0 1257 0 1256 0 1258 0 1256 0 1255 0 1259 0 1258 0 1259 0 1251 0 1251 0 1259 0 1255 0 1256 0 1259 0 1258 0 1260 3 1261 3 1262 3 1260 3 1262 3 1263 3 1263 3 1262 3 1264 3 1264 3 1262 3 1261 3 1265 1 1252 1 1266 1 1265 1 1266 1 1267 1 1252 1 1265 1 1268 1 1268 1 1267 1 1261 1 1261 1 1267 1 1266 1 1268 1 1265 1 1267 1 1264 8 1261 8 1251 8 1251 8 1261 8 1253 8 1268 6 1257 6 1252 6 1252 6 1257 6 1258 6 1269 138 1270 138 1271 138 1269 138 1271 138 1272 138 1272 139 1271 139 1273 139 1272 139 1273 139 1274 139 1274 140 1273 140 1275 140 1274 140 1275 140 1276 140 1276 141 1275 141 1277 141 1276 141 1277 141 1278 141 1278 142 1277 142 1279 142 1278 142 1279 142 1280 142 1280 143 1279 143 1281 143 1280 143 1281 143 1282 143 1282 0 1281 0 1283 0 1282 0 1283 0 1284 0 1284 144 1283 144 1285 144 1284 144 1285 144 1286 144 1286 145 1285 145 1287 145 1286 145 1287 145 1288 145 1288 146 1287 146 1289 146 1288 146 1289 146 1290 146 1290 147 1289 147 1291 147 1290 147 1291 147 1292 147 1292 148 1291 148 1293 148 1292 148 1293 148 1294 148 1294 149 1293 149 1295 149 1294 149 1295 149 1296 149 1297 3 1298 3 1299 3 1300 3 1297 3 1299 3 1301 3 1302 3 1303 3 1301 3 1303 3 1298 3 1299 3 1298 3 1303 3 1304 2 1305 2 1306 2 1306 2 1305 2 1307 2 1308 2 1309 2 1310 2 1310 2 1309 2 1304 2 1306 2 1311 2 1312 2 1306 2 1312 2 1304 2 1310 2 1304 2 1312 2 1313 150 1314 150 1315 150 1313 150 1315 150 1316 150 1316 151 1315 151 1317 151 1316 151 1317 151 1318 151 1318 152 1317 152 1319 152 1318 152 1319 152 1320 152 1320 153 1319 153 1321 153 1320 153 1321 153 1322 153 1322 154 1321 154 1323 154 1322 154 1323 154 1324 154 1324 155 1323 155 1325 155 1324 155 1325 155 1326 155 1326 1 1325 1 1327 1 1326 1 1327 1 1328 1 1328 156 1327 156 1329 156 1328 156 1329 156 1330 156 1330 157 1329 157 1331 157 1330 157 1331 157 1332 157 1332 158 1331 158 1333 158 1332 158 1333 158 1334 158 1334 159 1333 159 1335 159 1334 159 1335 159 1336 159 1336 160 1335 160 1337 160 1336 160 1337 160 1338 160 1338 161 1337 161 1339 161 1338 161 1339 161 1340 161 1341 3 1342 3 1343 3 1344 3 1341 3 1343 3 1345 3 1346 3 1347 3 1345 3 1347 3 1342 3 1343 3 1342 3 1347 3 1348 2 1349 2 1350 2 1350 2 1349 2 1351 2 1352 2 1353 2 1354 2 1354 2 1353 2 1348 2 1350 2 1355 2 1356 2 1350 2 1356 2 1348 2 1354 2 1348 2 1356 2 1357 0 1358 0 1359 0 1360 0 1358 0 1357 0 1360 0 1357 0 1361 0 1359 0 1362 0 1357 0 1357 0 1362 0 1361 0 1361 0 1362 0 1359 0 1363 2 1364 2 1365 2 1365 2 1364 2 1366 2 1364 2 1363 2 1367 2 1366 2 1367 2 1359 2 1359 2 1367 2 1363 2 1364 2 1367 2 1366 2 1368 1 1369 1 1370 1 1368 1 1370 1 1371 1 1371 1 1370 1 1372 1 1372 1 1370 1 1369 1 1373 3 1360 3 1374 3 1373 3 1374 3 1375 3 1360 3 1373 3 1376 3 1376 3 1375 3 1369 3 1369 3 1375 3 1374 3 1376 3 1373 3 1375 3 1372 6 1369 6 1359 6 1359 6 1369 6 1361 6 1376 8 1365 8 1360 8 1360 8 1365 8 1366 8 1377 2 1378 2 1379 2 1380 2 1378 2 1377 2 1380 2 1377 2 1381 2 1379 2 1382 2 1377 2 1377 2 1382 2 1381 2 1381 2 1382 2 1379 2 1383 0 1384 0 1385 0 1385 0 1384 0 1386 0 1384 0 1383 0 1387 0 1386 0 1387 0 1379 0 1379 0 1387 0 1383 0 1384 0 1387 0 1386 0 1388 3 1389 3 1390 3 1388 3 1390 3 1391 3 1391 3 1390 3 1392 3 1392 3 1390 3 1389 3 1393 1 1380 1 1394 1 1393 1 1394 1 1395 1 1380 1 1393 1 1396 1 1396 1 1395 1 1389 1 1389 1 1395 1 1394 1 1396 1 1393 1 1395 1 1392 8 1389 8 1379 8 1379 8 1389 8 1381 8 1396 6 1385 6 1380 6 1380 6 1385 6 1386 6 1397 3 1398 3 1399 3 1399 3 1398 3 1400 3 1401 2 1402 2 1403 2 1401 2 1403 2 1404 2 1405 129 1406 129 1407 129 1408 1 1402 1 1409 1 1409 1 1402 1 1410 1 1411 1 1412 1 1410 1 1412 1 1409 1 1410 1 1413 1 1414 1 1408 1 1414 1 1415 1 1416 1 1416 1 1408 1 1414 1 1417 1 1418 1 1419 1 1420 1 1421 1 1422 1 1423 1 1420 1 1424 1 1420 1 1423 1 1425 1 1423 1 1426 1 1425 1 1427 1 1426 1 1424 1 1424 1 1426 1 1423 1 1428 1 1429 1 1430 1 1429 1 1428 1 1427 1 1431 1 1432 1 1411 1 1433 1 1434 1 1429 1 1429 1 1434 1 1435 1 1435 1 1434 1 1433 1 1411 1 1432 1 1409 1 1409 1 1412 1 1411 1 1436 1 1408 1 1437 1 1438 1 1439 1 1440 1 1436 1 1437 1 1439 1 1437 1 1441 1 1439 1 1439 1 1441 1 1440 1 1440 1 1441 1 1442 1 1443 1 1444 1 1442 1 1444 1 1443 1 1409 1 1408 1 1409 1 1437 1 1440 1 1445 1 1438 1 1438 1 1445 1 1418 1 1436 1 1413 1 1408 1 1446 1 1427 1 1447 1 1424 1 1422 1 1427 1 1427 1 1422 1 1447 1 1448 1 1422 1 1424 1 1449 1 1450 1 1451 1 1449 1 1451 1 1452 1 1453 1 1454 1 1451 1 1452 1 1451 1 1455 1 1455 1 1451 1 1454 1 1446 1 1447 1 1454 1 1454 1 1447 1 1455 1 1456 1 1457 1 1458 1 1456 1 1458 1 1405 1 1405 1 1458 1 1450 1 1450 1 1458 1 1459 1 1457 1 1459 1 1458 1 1456 1 1460 1 1459 1 1456 1 1459 1 1457 1 1459 1 1460 1 1461 1 1419 1 1460 1 1456 1 1461 1 1419 1 1445 1 1445 1 1419 1 1418 1 1461 1 1460 1 1419 1 1462 1 1451 1 1463 1 1463 1 1451 1 1440 1 1442 1 1444 1 1440 1 1440 1 1444 1 1463 1 1432 1 1444 1 1409 1 1464 1 1453 1 1462 1 1462 1 1453 1 1451 1 1465 1 1464 1 1433 1 1462 1 1433 1 1464 1 1427 1 1446 1 1429 1 1429 1 1446 1 1465 1 1435 1 1433 1 1431 1 1431 1 1433 1 1444 1 1431 1 1444 1 1432 1 1465 1 1433 1 1429 1 1435 1 1466 1 1429 1 1429 1 1466 1 1430 1 1413 1 1415 1 1414 1 1467 1 1468 1 1415 1 1467 1 1415 1 1413 1 1448 1 1424 1 1420 1 1417 1 1468 1 1418 1 1418 1 1468 1 1413 1 1413 1 1468 1 1467 1 1448 1 1420 1 1422 1 1422 1 1405 1 1450 1 1422 1 1450 1 1449 1 1422 1 1421 1 1405 1 1469 0 1470 0 1471 0 1472 0 1473 0 1474 0 1475 0 1476 0 1477 0 1478 0 1479 0 1480 0 1479 0 1481 0 1480 0 1401 0 1404 0 1478 0 1401 0 1478 0 1482 0 1482 0 1478 0 1480 0 1476 0 1483 0 1484 0 1483 0 1485 0 1484 0 1485 0 1483 0 1486 0 1474 0 1473 0 1485 0 1472 0 1487 0 1473 0 1488 0 1489 0 1407 0 1490 0 1404 0 1491 0 1490 0 1491 0 1488 0 1488 0 1491 0 1492 0 1488 0 1492 0 1493 0 1493 0 1492 0 1494 0 1494 0 1492 0 1491 0 1478 0 1495 0 1496 0 1404 0 1497 0 1495 0 1404 0 1495 0 1478 0 1496 0 1498 0 1499 0 1404 0 1490 0 1497 0 1497 0 1490 0 1498 0 1498 0 1490 0 1500 0 1488 0 1501 0 1471 0 1498 0 1500 0 1499 0 1499 0 1500 0 1470 0 1502 0 1474 0 1503 0 1502 0 1503 0 1406 0 1406 0 1503 0 1504 0 1485 0 1486 0 1505 0 1485 0 1505 0 1474 0 1499 0 1506 0 1507 0 1508 0 1499 0 1509 0 1509 0 1499 0 1507 0 1509 0 1507 0 1505 0 1509 0 1505 0 1486 0 1499 0 1504 0 1503 0 1407 0 1510 0 1488 0 1488 0 1510 0 1501 0 1407 0 1511 0 1510 0 1510 0 1511 0 1512 0 1513 0 1511 0 1407 0 1513 0 1514 0 1512 0 1513 0 1512 0 1511 0 1406 0 1515 0 1513 0 1513 0 1515 0 1514 0 1512 0 1514 0 1516 0 1516 0 1514 0 1515 0 1516 0 1515 0 1504 0 1406 0 1504 0 1515 0 1503 0 1506 0 1499 0 1471 0 1501 0 1469 0 1479 0 1517 0 1481 0 1496 0 1518 0 1478 0 1478 0 1518 0 1479 0 1479 0 1518 0 1517 0 1518 0 1496 0 1499 0 1518 0 1499 0 1519 0 1499 0 1508 0 1520 0 1520 0 1508 0 1521 0 1520 0 1521 0 1522 0 1522 0 1476 0 1475 0 1481 0 1517 0 1522 0 1476 0 1522 0 1521 0 1483 0 1523 0 1486 0 1493 0 1524 0 1525 0 1493 0 1525 0 1488 0 1488 0 1525 0 1524 0 1488 0 1524 0 1489 0 1502 0 1526 0 1474 0 1474 0 1526 0 1487 0 1474 0 1487 0 1472 0 1526 0 1502 0 1487 0 1470 0 1469 0 1499 0 1519 0 1499 0 1520 0 1521 0 1523 0 1476 0 1476 0 1523 0 1483 0 1476 0 1484 0 1477 0 1475 0 1481 0 1522 0 1487 3 1527 3 1425 3 1494 2 1415 2 1468 2 1431 8 1481 8 1528 8 1529 137 1530 137 1442 137 1442 137 1530 137 1443 137 1531 3 1409 3 1495 3 1532 3 1533 3 1534 3 1438 132 1418 132 1470 132 1470 132 1418 132 1471 132 1452 131 1506 131 1449 131 1449 131 1506 131 1503 131 1535 2 1536 2 1537 2 1538 134 1469 134 1445 134 1445 134 1469 134 1501 134 1539 8 1510 8 1459 8 1459 8 1510 8 1516 8 1450 133 1504 133 1540 133 1541 6 1542 6 1543 6 1541 6 1543 6 1544 6 1545 136 1546 136 1518 136 1518 136 1546 136 1444 136 1462 135 1520 135 1433 135 1433 135 1520 135 1522 135 1465 2 1547 2 1523 2 1521 130 1508 130 1464 130 1464 130 1508 130 1453 130 1548 8 1549 8 1550 8 1549 8 1548 8 1551 8 1548 8 1552 8 1551 8 1551 8 1552 8 1553 8 1554 8 1555 8 1556 8 1556 8 1555 8 1557 8 1556 8 1558 8 1559 8 1559 8 1560 8 1561 8 1561 8 1560 8 1558 8 1560 8 1559 8 1558 8 1556 8 1557 8 1558 8 1558 8 1557 8 1555 8 1562 8 1555 8 1554 8 1562 8 1554 8 1563 8 1563 8 1554 8 1564 8 1563 8 1550 8 1565 8 1565 8 1550 8 1566 8 1566 8 1550 8 1549 8 1567 8 1568 8 1552 8 1552 8 1568 8 1553 8 1553 8 1568 8 1569 8 1569 8 1568 8 1567 8 1569 8 1567 8 1559 8 1569 8 1559 8 1561 8 1564 8 1550 8 1563 8 1570 6 1571 6 1572 6 1573 6 1574 6 1575 6 1570 6 1572 6 1576 6 1577 6 1570 6 1576 6 1575 6 1574 6 1572 6 1572 6 1574 6 1576 6 1576 6 1574 6 1573 6 1578 6 1579 6 1580 6 1578 6 1581 6 1579 6 1579 6 1581 6 1582 6 1582 6 1581 6 1583 6 1583 6 1581 6 1584 6 1573 6 1575 6 1580 6 1571 6 1585 6 1572 6 1586 6 1580 6 1587 6 1586 6 1587 6 1588 6 1579 6 1587 6 1580 6 1588 6 1587 6 1579 6 1585 6 1589 6 1590 6 1590 6 1589 6 1571 6 1571 6 1589 6 1585 6 1570 6 1577 6 1571 6 1573 6 1580 6 1586 6 1585 6 1590 6 1583 6 1591 2 1592 2 1593 2 1594 3 1595 3 1596 3 1597 2 1598 2 1599 2 1597 2 1599 2 1600 2 1601 1 1602 1 1603 1 1603 1 1602 1 1604 1 1605 3 1606 3 1607 3 1608 0 1609 0 1610 0 1611 6 1612 6 1613 6 1614 6 1615 6 1606 6 1614 6 1616 6 1615 6 1617 6 1616 6 1614 6 1615 6 1617 6 1618 6 1615 6 1616 6 1617 6 1618 6 1617 6 1619 6 1618 6 1619 6 1602 6 1604 6 1620 6 1621 6 1604 6 1621 6 1599 6 1622 6 1621 6 1620 6 1620 6 1623 6 1622 6 1624 6 1625 6 1623 6 1626 6 1624 6 1623 6 1626 6 1623 6 1620 6 1627 6 1625 6 1628 6 1629 6 1614 6 1606 6 1630 6 1612 6 1602 6 1631 6 1632 6 1591 6 1628 6 1631 6 1591 6 1631 6 1628 6 1632 6 1633 6 1634 6 1632 6 1633 6 1632 6 1628 6 1611 6 1626 6 1620 6 1612 6 1619 6 1613 6 1633 6 1628 6 1624 6 1624 6 1628 6 1625 6 1624 6 1626 6 1633 6 1617 6 1635 6 1636 6 1613 6 1617 6 1636 6 1636 6 1635 6 1614 6 1630 6 1602 6 1619 6 1619 6 1617 6 1613 6 1635 6 1617 6 1614 6 1614 6 1634 6 1636 6 1632 6 1637 6 1614 6 1634 6 1614 6 1637 6 1630 6 1619 6 1612 6 1612 6 1611 6 1638 6 1638 6 1639 6 1612 6 1639 6 1638 6 1611 6 1639 6 1620 6 1604 6 1612 6 1639 6 1604 6 1611 6 1620 6 1639 6 1632 6 1634 6 1637 6 1627 6 1628 6 1591 6 1632 6 1608 6 1591 6 1640 162 1641 162 1601 162 1601 163 1641 163 1642 163 1642 164 1641 164 1640 164 1642 165 1643 165 1644 165 1643 166 1645 166 1644 166 1646 167 1647 167 1648 167 1649 168 1650 168 1592 168 1650 169 1651 169 1652 169 1651 170 1650 170 1649 170 1653 171 1654 171 1652 171 1652 172 1654 172 1655 172 1656 173 1645 173 1655 173 1653 174 1655 174 1654 174 1653 175 1644 175 1645 175 1653 176 1645 176 1656 176 1601 177 1646 177 1657 177 1658 178 1659 178 1646 178 1659 179 1658 179 1647 179 1647 180 1646 180 1659 180 1660 181 1661 181 1662 181 1655 182 1653 182 1656 182 1652 183 1663 183 1653 183 1653 184 1663 184 1651 184 1651 185 1663 185 1652 185 1664 186 1661 186 1660 186 1664 187 1647 187 1658 187 1652 188 1592 188 1650 188 1642 189 1644 189 1653 189 1665 190 1666 190 1642 190 1603 191 1666 191 1640 191 1642 192 1666 192 1603 192 1642 193 1603 193 1643 193 1643 194 1603 194 1597 194 1651 195 1649 195 1662 195 1640 196 1666 196 1665 196 1667 197 1668 197 1662 197 1667 198 1662 198 1649 198 1640 199 1665 199 1642 199 1601 200 1658 200 1646 200 1642 201 1658 201 1601 201 1660 202 1647 202 1664 202 1660 203 1662 203 1668 203 1660 204 1668 204 1647 204 1647 205 1668 205 1648 205 1592 206 1610 206 1649 206 1649 207 1668 207 1667 207 1669 2 1670 2 1671 2 1672 3 1673 3 1674 3 1675 2 1676 2 1677 2 1678 2 1679 2 1680 2 1680 2 1679 2 1681 2 1680 2 1681 2 1682 2 1682 2 1681 2 1675 2 1683 2 1684 2 1678 2 1678 2 1684 2 1685 2 1678 2 1685 2 1679 2 1677 2 1676 2 1686 2 1677 2 1686 2 1687 2 1687 2 1686 2 1688 2 1688 2 1689 2 1690 2 1690 2 1689 2 1691 2 1690 2 1691 2 1683 2 1683 2 1691 2 1684 2 1692 3 1693 3 1694 3 1694 3 1693 3 1695 3 1695 3 1693 3 1696 3 1695 3 1696 3 1697 3 1697 3 1696 3 1698 3 1697 3 1698 3 1699 3 1700 3 1701 3 1702 3 1700 3 1702 3 1703 3 1704 3 1705 3 1706 3 1706 3 1705 3 1701 3 1706 3 1701 3 1700 3 1692 3 1694 3 1707 3 1692 3 1707 3 1704 3 1704 3 1707 3 1705 3 1703 3 1702 3 1708 3 1703 3 1708 3 1698 3 1698 3 1708 3 1699 3 1709 3 1710 3 1711 3 1712 3 1713 3 1714 3 1714 3 1713 3 1715 3 1714 3 1715 3 1716 3 1716 3 1715 3 1709 3 1717 3 1718 3 1712 3 1712 3 1718 3 1719 3 1712 3 1719 3 1713 3 1711 3 1710 3 1720 3 1711 3 1720 3 1721 3 1721 3 1720 3 1722 3 1722 3 1723 3 1724 3 1724 3 1723 3 1725 3 1724 3 1725 3 1717 3 1717 3 1725 3 1718 3 1726 2 1727 2 1728 2 1728 2 1727 2 1729 2 1729 2 1727 2 1730 2 1729 2 1730 2 1731 2 1731 2 1730 2 1732 2 1731 2 1732 2 1733 2 1734 2 1735 2 1736 2 1734 2 1736 2 1737 2 1738 2 1739 2 1740 2 1740 2 1739 2 1735 2 1740 2 1735 2 1734 2 1726 2 1728 2 1741 2 1726 2 1741 2 1738 2 1738 2 1741 2 1739 2 1737 2 1736 2 1742 2 1737 2 1742 2 1732 2 1732 2 1742 2 1733 2</p>
        </triangles>
      </mesh>
    </geometry>
  </library_geometries>
  <library_visual_scenes>
    <visual_scene id="DefaultScene">
      <node id="node_122f4985_2dc8_4860_99d5_4797fcb2a4f1" type="NODE">
        <matrix>1 0 0 0 0 1 0 0 0 0 1 0 0 0 0 1</matrix>
        <node id="node_76d1a55b_f6fb_4d29_8421_3e320cb4ca79" type="NODE">
          <matrix>1 0 0 0 0 1 0 0 0 0 1 0 0 0 0 1</matrix>
          <node id="node_76d1a55b_f6fb_4d29_8421_3e320cb4ca79_mesh0" type="NODE">
            <matrix>1 0 0 0 0 1 0 0 0 0 1 0 0 0 0 1</matrix>
            <instance_geometry url="#geometry_7baf0dff_4593_4fdf_af59_5dae192c7e04">
              <bind_material>
                <technique_common>
                  <instance_material symbol="mat_0" target="#mat_0"/>
                </technique_common>
              </bind_material>
            </instance_geometry>
          </node>
        </node>
      </node>
    </visual_scene>
  </library_visual_scenes>
  <scene>
    <instance_visual_scene url="#DefaultScene"/>
  </scene>
</COLLADA>
