<?xml version="1.0" encoding="UTF-8"?>
<COLLADA xmlns="http://www.collada.org/2005/11/COLLADASchema" version="1.4.1">
<!--
# File generated by ImageToStl.com - Free Image and 3D model conversion tools
-->
  <asset>
    <contributor>
      <author>ImageToStl.com</author>
      <authoring_tool>ImageToStl.com</authoring_tool>
    </contributor>
    <created>2026-04-08T11:07:01</created>
    <modified>2026-04-08T11:07:01</modified>
    <up_axis>Z_UP</up_axis>
  </asset>
  <library_effects>
    <effect id="effect_0">
        <profile_COMMON>
          <technique sid="common">
            <phong>
              <diffuse>
                <color>0.85 0.85 0.85 1</color>
              </diffuse>
              <specular>
                <color>0.05 0.05 0.05 1</color>
              </specular>
              <shininess>
                <float>64</float>
              </shininess>
            </phong>
          </technique>
        </profile_COMMON>
    </effect>
  </library_effects>
  <library_materials>
    <material id="mat_0">
      <instance_effect url="#effect_0"/>
    </material>
  </library_materials>
  <library_geometries>
    <geometry id="geometry_fc6a49cd_29e4_4a60_b5fa_d6241ab98332">
      <mesh>
        <source id="pos_0">
          <float_array id="pos_0-array" count="5658">0.055 -0.047 0.089 0.055 -0.044 0.08271042 0.055 -0.041 0.089 0.055 -0.047 0.049 0.055 -0.04405716 0.06400149 0.055 -0.041 0.049 0.05191923 -0.047 0.07404728 0.049 -0.047 0.089 0.049 -0.047 0.049 0.05224867 -0.047 0.05520618 0.049 -0.041 0.089 0.049 -0.04384107 0.08279382 0.049 -0.041 0.049 0.049 -0.04381387 0.06422395 0.05215893 -0.041 0.05520618 0.05185206 -0.041 0.07398777 0.06 0.012 0.064 0.0575 0.047 0.064 0.055 0.012 0.064 0.055 0.064 0.044 0.06 0.064 0.044 0.06 -0.046 0.044 0.06 -0.051 0.094 0.0575 0.006 0.094 0.055 -0.051 0.094 0.06 -0.04034227 0.06332245 0.06 -0.03347408 0.06937883 0.06 -0.04642524 0.06855401 0.06 -0.0465 0.0445 0.06 -0.0437268 0.08303398 0.06 -0.03998815 0.07072951 0.06 -0.04347052 0.094 0.06 -0.052 0.093 0.06 0.0065 0.0935 0.06 -0.00120425 0.07010425 0.06 0.00792253 0.06627552 0.06 -0.00907169 0.07089739 0.06 -0.0005 0.0881 0.06 0.04999544 0.06532806 0.06 0.059375 0.0668335 0.06 0.052 0.0785 0.06 0.05691339 0.0811768 0.06 0.05999999 0.088 0.06 -0.00901297 0.08320545 0.06 -0.00656997 0.06316701 0.06 0.0044341 0.05441476 0.06 -0.00388038 0.0471 0.06 -0.01189092 0.044 0.06 -0.02098136 0.09 0.06 -0.03727245 0.08890775 0.06 -0.03790209 0.0759045 0.06 -0.01941195 0.08704995 0.06 -0.01746234 0.08134706 0.06 -0.01656561 0.06808677 0.06 -0.02335089 0.0601612 0.06 -0.03666309 0.0549 0.06 0.0571366 0.0615634 0.06 0.04091961 0.0471 0.06 0.065 0.045 0.06 0.065 0.0663 0.06 0.02939019 0.0469366 0.06 -0.02539641 0.0470134 0.055 -0.04038794 0.06321682 0.055 -0.0465 0.0445 0.055 -0.04932088 0.06853951 0.055 -0.03633767 0.0753305 0.055 0.05942524 0.06689599 0.055 0.065 0.0663 0.055 0.05652679 0.0610268 0.055 0.0518097 0.06804329 0.055 0.05682679 0.0808536 0.055 0.05999999 0.088 0.055 0.052 0.088 0.055 0.0290268 0.04724641 0.055 0.00900456 0.06532806 0.055 -0.01598451 0.06864096 0.055 -0.00897482 0.07084018 0.055 -0.00115849 0.06905849 0.055 0.007 0.093 0.055 -0.00114175 0.08787901 0.055 -0.01295967 0.094 0.055 -0.02601961 0.0470732 0.055 -0.02044475 0.05490105 0.055 -0.01010484 0.044 0.055 0.00494627 0.05606838 0.055 -0.052 0.093 0.055 -0.037 0.089 0.055 -0.04388661 0.0839768 0.055 -0.02019665 0.08852497 0.055 -0.01726188 0.08144074 0.055 -0.03339088 0.07076544 0.055 -0.02395861 0.06192353 0.055 -0.03641813 0.05494869 0.055 -0.0099 0.08056077 0.055 -0.00356077 0.0472 0.055 0.03875 0.04625 0.055 0.0645 0.0445 0.055 0.007 0.069 0.0575 0.007 0.093 0.06 0.007 0.069 0.06 0.05999999 0.0683 0.055 0.05999999 0.0683 0.06 0.052 0.088 0.06 0.052 0.069 0.055 0.065 0.045 0.055 -0.0015 0.0871 0.0575 -0.0015 0.0709 0.06 -0.0015 0.0871 0.055 -0.0069 0.0871 0.06 -0.0069 0.0871 0.0575 -0.0069 0.0709 0.06 0.00347055 0.053 0.055 0.00347055 0.053 0.0575 -0.02001103 0.053 0.055 -0.03477325 0.07475648 0.06 -0.02228869 0.08445238 0.055 -0.02228869 0.08445238 0.06 -0.038 0.07633606 0.055 -0.038 0.07633606 0.06 -0.038 0.088 0.0575 -0.036 0.09 0.055 -0.02098136 0.09 0.06 -0.03216413 0.06718586 0.055 -0.0178 0.06718586 0.055 -0.03216413 0.06718586 0.055 -0.01902675 0.08192106 0.06 -0.01902675 0.08192106 0.06 -0.03339088 0.07076544 -0.055 -0.047 0.06715 -0.06 -0.047 0.045 -0.055 -0.047 0.045 -0.06 0.0633 0.044 -0.055 0.0633 0.044 -0.06 -0.046 0.044 -0.055 -0.046 0.044 -0.06 -0.05 0.094 -0.055 -0.05 0.094 -0.06 0.058 0.094 -0.055 0.058 0.094 -0.055 0.01254351 0.08935669 -0.055 0.02211699 0.0925 -0.055 -0.02179095 0.09035555 -0.055 -0.00115849 0.08794151 -0.055 -0.00125 0.06896698 -0.055 0.00621428 0.0559139 -0.055 0.00760656 0.0719208 -0.055 0.01150697 0.07557277 -0.055 -0.051 0.093 -0.055 -0.03174712 0.09018471 -0.055 -0.03029678 0.07141668 -0.055 -0.04537925 0.06658236 -0.055 -0.02089435 0.0598975 -0.055 -0.02128206 0.08130415 -0.055 -0.0465 0.0445 -0.055 -0.01343074 0.0547783 -0.055 -0.03539371 0.05341138 -0.055 -0.00848002 0.07034644 -0.055 -0.00110529 0.06169474 -0.055 0.01477817 0.05613964 -0.055 0.00778502 0.044 -0.055 0.01961603 0.06095995 -0.055 0.0653 0.069 -0.055 0.05790663 0.07189874 -0.055 0.04953267 0.06153751 -0.055 0.05068941 0.07616813 -0.055 0.04450492 0.05591756 -0.055 0.057244 0.054244 -0.055 0.0643 0.045 -0.055 0.03930762 0.0462866 -0.055 0.0296768 0.0469134 -0.055 -0.00707075 0.08817925 -0.055 -0.052 0.06915 -0.055 0.05999999 0.092 -0.055 0.03352175 0.07992463 -0.055 0.0345 0.07185283 -0.055 0.02485324 0.08086205 -0.055 0.01814101 0.07667497 -0.055 0.02873581 0.0721973 -0.055 0.04508023 0.08803417 -0.055 0.04285304 0.08003242 -0.055 0.02449508 0.05591756 -0.055 0.02245319 0.044 -0.055 -0.00435359 0.04717321 -0.055 -0.00933424 0.044 -0.055 -0.0093634 0.0818634 -0.055 -0.02445359 0.04774641 -0.055 -0.0440134 0.08360359 -0.06 -0.02445359 0.04774641 -0.06 -0.0465 0.0445 -0.06 -0.01340406 0.05400785 -0.06 -0.0452634 0.06329227 -0.06 -0.04932925 0.06907076 -0.06 -0.03084785 0.07517043 -0.06 0.05118063 0.06777523 -0.06 0.056756 0.07414088 -0.06 0.06247924 0.06907924 -0.06 0.05999999 0.092 -0.06 -0.03616484 0.06047261 -0.06 0.01474009 0.07594545 -0.06 0.00970563 0.09167835 -0.06 0.01945772 0.08691759 -0.06 0.00760656 0.0719208 -0.06 0.00383373 0.0895987 -0.06 -0.00132925 0.08802076 -0.06 -0.02110343 0.08092111 -0.06 -0.02081468 0.05886525 -0.06 -0.03146363 0.09074272 -0.06 -0.052 0.092 -0.06 -0.01743422 0.09217778 -0.06 -0.03539371 0.05341138 -0.06 0.00201288 0.044 -0.06 -0.00011592 0.05340622 -0.06 0.0023045 0.06389413 -0.06 0.00621428 0.0559139 -0.06 0.01493759 0.044 -0.06 0.01693378 0.05836193 -0.06 0.04947711 0.044 -0.06 0.05714087 0.05406538 -0.06 0.0643 0.045 -0.06 0.03916165 0.04542679 -0.06 0.02449508 0.05591756 -0.06 -0.00098774 0.06982075 -0.06 -0.00893599 0.07100609 -0.06 -0.0083192 0.08519486 -0.06 0.04788471 0.06081919 -0.06 0.04454308 0.05518107 -0.06 0.03827064 0.07202506 -0.06 0.02483318 0.0797662 -0.06 0.03352175 0.07992463 -0.06 0.02277645 0.0925 -0.06 0.04500572 0.0881599 -0.06 0.04285304 0.08003242 -0.06 0.0301 0.04717321 -0.06 0.03072936 0.07202506 -0.06 -0.04417321 0.08375359 -0.06 -0.01123097 0.044 -0.06 -0.00441699 0.0469634 -0.06 0.01065505 0.07553729 -0.055 0.00375321 0.08889773 -0.055 0.01065505 0.07553729 -0.055 -0.03174712 0.07571239 -0.06 -0.03174712 0.07571239 -0.0575 -0.03174712 0.09018471 -0.055 -0.02203649 0.08117104 -0.0575 -0.0295877 0.0680869 -0.06 -0.02203649 0.08117104 -0.0575 -0.02017038 0.08067118 -0.06 -0.02017038 0.06758704 -0.055 -0.02017038 0.06758704 -0.0575 -0.02081468 0.05886525 -0.055 -0.03574408 0.06080186 -0.06 -0.02116505 0.06080186 -0.055 -0.02116505 0.06080186 -0.0575 -0.01343074 0.0547783 -0.06 -0.00110529 0.06169474 -0.055 0.00571428 0.0564139 -0.06 0.00571428 0.0564139 -0.0575 0.00571428 0.07146932 -0.055 0.01522432 0.05686538 -0.06 0.01522432 0.05686538 -0.06 -0.052 0.06915 -0.055 0.05999999 0.071 -0.06 0.05999999 0.071 -0.055 -0.0015 0.0871 -0.06 -0.0015 0.0871 -0.055 -0.0015 0.0709 -0.06 -0.0069 0.0871 -0.055 -0.0069 0.0871 -0.055 -0.0069 0.0709 -0.055 0.05118063 0.07329462 -0.06 0.05118063 0.07329462 -0.0575 0.05118063 0.06225583 -0.055 0.0258606 0.091 -0.06 0.0258606 0.091 -0.0575 0.04118291 0.091 -0.055 0.02627218 0.053 -0.06 0.04272782 0.053 -0.06 0.02627218 0.053 -0.06 0.0327229 0.07185283 -0.055 0.0327229 0.07185283 -0.0575 0.04450492 0.05591756 -0.055 0.0362771 0.07185283 -0.06 0.0362771 0.07185283 -0.055 0.02149145 0.0611585 -0.0575 0.02873581 0.0721973 -0.06 0.02149145 0.0611585 0.05240981 -0.0017 0.0770634 0.0524866 -0.0017 0.06608661 0.03720398 -0.0017 0.09578284 -0.01876834 -0.0017 0.08256532 -0.0519 -0.0017 0.07737321 -0.03550263 -0.0017 0.09855041 -0.04216957 -0.0017 0.11722006 -0.03946098 -0.0017 0.09636875 -0.04597966 -0.0017 0.11971717 -0.04011723 -0.0017 0.14121176 -0.03597896 -0.0017 0.14105892 -0.0503728 -0.0017 0.14986849 -0.02087351 -0.0017 0.15816331 -0.02445932 -0.0017 0.15849614 -0.02723943 -0.0017 0.17246039 -0.00176716 -0.0017 0.16471717 0.00153041 -0.0017 0.16409609 -0.01396354 -0.0017 0.17716235 0.00469304 -0.0017 0.17863065 0.02289023 -0.0017 0.1742619 0.03555649 -0.0017 0.14193484 0.02210302 -0.0017 0.1554649 0.03968831 -0.0017 0.14221716 0.02214142 -0.0017 0.15885472 0.04428284 -0.0017 0.12076716 0.03671965 -0.0017 0.10006971 0.04208285 -0.0017 0.11677402 0.02229518 -0.0017 0.08234294 0.0225 -0.0017 0.07950386 0.00160841 -0.0017 0.07639459 -0.02218946 -0.0017 0.0800769 0.06 -0.0017 0.07507236 -0.06 -0.0017 0.0889 -0.05312679 -0.0017 0.0654 0.06 -0.0017 0.0941 0.05457925 -0.0017 0.09007075 -0.05413397 -0.0017 0.0904 -0.05963065 -0.0017 0.12369303 -0.06 -0.0017 0.0941 0.06 -0.0017 0.0691 -0.00062108 -0.0017 0.07337892 0.05526189 -0.0017 0.14189023 0.05963065 -0.0017 0.12369303 0.05963065 -0.0067 0.12369303 0.05706339 -0.0067 0.13754103 0.04548371 -0.0067 0.15784676 -0.05963065 -0.0067 0.12369303 -0.04548372 -0.0067 0.15784676 -0.05526189 -0.0067 0.14189023 -0.02359026 -0.0067 0.15442792 -0.03550263 -0.0067 0.1394496 -0.06 -0.0067 0.0691 -0.05220981 -0.0067 0.07699019 -0.06 -0.0067 0.0889 0.06 -0.0067 0.07025 0.0524732 -0.0067 0.07747321 0.0512 -0.0067 0.07561436 0.06 -0.0067 0.0889 -0.04216957 -0.0067 0.12077994 -0.03946098 -0.0067 0.14163125 -0.04597966 -0.0067 0.11828284 -0.05484794 -0.0067 0.0922885 -0.04011723 -0.0067 0.09678824 -0.03597896 -0.0067 0.09694108 -0.023025 -0.0067 0.07950386 -0.02068135 -0.0067 0.08107886 0.02355 -0.0067 0.08184751 0.02374216 -0.0067 0.07878669 0.0188902 -0.0067 0.08037706 0.03913285 -0.0067 0.096159 0.04535858 -0.0067 0.11739925 0.03720398 -0.0067 0.14221716 0.03671965 -0.0067 0.1379303 0.04427617 -0.0067 0.12089578 0.0225 -0.0067 0.15849614 0.02229518 -0.0067 0.15565707 0.00197465 -0.0067 0.16045299 0.00062108 -0.0067 0.16533825 0.01396355 -0.0067 0.17716235 -0.00469303 -0.0067 0.17863065 -0.00188899 -0.0067 0.16373751 -0.02289023 -0.0067 0.1742619 -0.02214142 -0.0067 0.15885472 0.0531259 -0.0067 0.06670155 -0.05277132 -0.0067 0.06665099 -0.06 -0.0067 0.0941 0.02723943 -0.0067 0.17246039 0.06 -0.0067 0.0941 0.05406699 -0.0067 0.08965001 0.00487139 -0.0067 0.064 0.00017929 -0.0067 0.07408321 -0.06 -0.0067 0.119 -0.06 -0.0017 0.119 -0.055 -0.0067 0.064 -0.055 -0.0017 0.064 0.055 -0.0067 0.064 0.055 -0.0017 0.064 0.06 -0.0042 0.0691 0.06 -0.0017 0.0889 0.06 -0.0017 0.119 0.06 -0.0067 0.119 0.06 -0.0042 0.0941 0.05055257 -0.0127 0.06606729 0.05354371 -0.0127 0.06501108 0.055 -0.0127 0.085 0.05206253 -0.0127 0.07703386 0.049 -0.0127 0.085 0.055 -0.00824371 0.08398893 0.055 -0.00945069 0.07210938 0.055 -0.0127 0.064 0.055 -0.01134069 0.08288176 0.05033285 -0.0067 0.06555913 0.052 -0.0067 0.085 0.05200973 -0.0067 0.07690443 0.05398314 -0.0067 0.06602739 0.049 -0.00976253 0.07196613 0.049 -0.0097 0.064 0.049 -0.01124371 0.08398893 0.049 -0.00894399 0.08078565 -0.049 -0.047 0.089 -0.049 -0.044 0.08271042 -0.049 -0.041 0.089 -0.049 -0.047 0.049 -0.049 -0.04405716 0.06400149 -0.049 -0.041 0.049 -0.05191923 -0.047 0.07404728 -0.055 -0.047 0.089 -0.05150266 -0.047 0.05528959 -0.055 -0.047 0.049 -0.055 -0.041 0.089 -0.055 -0.04384107 0.08279382 -0.055 -0.041 0.049 -0.055 -0.04418613 0.06422395 -0.05215893 -0.041 0.05520618 -0.05191923 -0.041 0.07404728 -0.05344743 -0.0127 0.06606729 -0.05045629 -0.0127 0.06501108 -0.049 -0.0127 0.085 -0.05193747 -0.0127 0.07703386 -0.055 -0.0127 0.085 -0.049 -0.00824371 0.08398893 -0.049 -0.00945069 0.07210938 -0.049 -0.0097 0.064 -0.049 -0.01134069 0.08288176 -0.05366715 -0.0067 0.06555913 -0.052 -0.0067 0.085 -0.05199027 -0.0067 0.07690443 -0.05001686 -0.0067 0.06602739 -0.055 -0.00976253 0.07196613 -0.055 -0.0127 0.064 -0.055 -0.01124371 0.08398893 -0.055 -0.00894399 0.08078565 0.02669963 0.0033 0.12487704 0.02104793 0.0033 0.11242571 0.01784798 0.0033 0.13131957 0.01728497 0.0033 0.13934945 0.00534534 0.0033 0.1406869 -0.00431952 0.0033 0.14534789 -0.00654605 0.0033 0.14005673 -0.01784798 0.0033 0.10668044 -0.02287777 0.0033 0.10523491 -0.02027761 0.0033 0.12669028 -0.02717853 0.0033 0.12195584 -0.02240308 0.0033 0.13417391 0.02391234 0.0033 0.10633724 0.01481147 0.0033 0.1022813 0.01280572 0.0033 0.09484585 0 0.0033 0.09731309 -0.00431952 0.0033 0.0926521 -0.03671521 0.0033 0.12944637 -0.03854694 0.0033 0.14161366 -0.02616205 0.0033 0.1476984 0.04821849 0.0033 0.1350977 0.0386606 0.0033 0.14181054 0.03521438 0.0033 0.15566206 0.02616205 0.0033 0.1476984 0.03671521 0.0033 0.12944637 0.02616205 0.0033 0.0903016 0.03525483 0.0033 0.10342091 0.03838523 0.0033 0.09725233 -0.03487144 0.0033 0.08269498 -0.0388399 0.0033 0.097025 -0.02616205 0.0033 0.0903016 -0.03525483 0.0033 0.10342091 0.04952656 0.0033 0.10889925 0.041659 0.0033 0.09376254 0.04437892 0.0033 0.11962108 0.04624216 0.0033 0.11775783 0.02207579 0.0033 0.15808481 0.02179242 0.0033 0.16492656 0.01067286 0.0033 0.1565112 -0.00024492 0.0033 0.16367188 0.00612744 0.0033 0.16946398 -0.01016823 0.0033 0.1688073 -0.02243437 0.0033 0.15772623 -0.02186332 0.0033 0.16507597 -0.04468946 0.0033 0.11931054 -0.04837536 0.0033 0.13515007 -0.05066978 0.0033 0.11490951 -0.04676681 0.0033 0.09907453 -0.02205821 0.0033 0.08056673 -0.02186332 0.0033 0.07292403 -0.01016823 0.0033 0.06919271 -0.01067286 0.0033 0.0814888 0.01067286 0.0033 0.0814888 0.00195933 0.0033 0.073475 -0.0014695 0.0033 0.07386875 0.01414308 0.0033 0.07017243 0.02227267 0.0033 0.08002885 0.0255 0.0033 0.07483271 -0.01067286 0.0033 0.1565112 -0.04952257 -0.0017 0.12912029 -0.04451017 -0.0017 0.12056558 -0.04310789 -0.0017 0.14597532 0.0021 -0.0017 0.074 0.01599687 -0.0017 0.07105206 0.01992201 -0.0017 0.08103248 -0.0386829 -0.0017 0.14264609 0.04558592 -0.0017 0.117793 0.04951803 -0.0017 0.1067949 0.05017633 -0.0017 0.12715444 0.045 -0.0017 0.1211 0.03949615 -0.0017 0.09845933 0.04501182 -0.0017 0.14262402 0.03844614 -0.0017 0.14345932 0.02507983 -0.0017 0.15451202 0.03035719 -0.0017 0.15941468 0.01895723 -0.0017 0.15782851 -0.01963494 -0.0017 0.1565093 -0.02243909 -0.0017 0.15872347 -0.03916331 -0.0017 0.1398735 -0.02989539 -0.0017 0.16030332 -0.03856008 -0.0017 0.09957065 -0.03844614 -0.0017 0.09525783 -0.02080317 -0.0017 0.0795742 -0.02419683 -0.0017 0.08048352 -0.04725786 -0.0017 0.1010668 -0.03532894 -0.0017 0.08221868 -0.0198032 -0.0017 0.07249475 -0.0020469 -0.0017 0.06820661 -0.00107574 -0.0017 0.07318676 0.02400466 -0.0017 0.08067568 0.04501182 -0.0017 0.09537597 0.03521438 -0.0017 0.08233795 0.03548221 -0.0017 0.09780037 -0.04462755 -0.0017 0.11739174 -0.01601578 -0.0017 0.16694163 9.608E-05 -0.0017 0.16390392 0.01210614 -0.0017 0.16807491 -0.02833293 -0.0007 0.119 -0.04116654 -0.0007 0.11529495 -0.02478188 -0.0007 0.10587677 -0.03723969 -0.0007 0.10106631 -0.02856365 -0.0007 0.08912477 -0.01327138 -0.0007 0.09396751 -0.01327138 -0.0007 0.14403248 -0.02277019 -0.0007 0.15349537 -0.02320257 -0.0007 0.13474807 -0.03343905 -0.0007 0.14329489 -0.03984341 -0.0007 0.12999609 0.01590008 -0.0007 0.14245085 0.01958638 -0.0007 0.15539759 0.00304532 -0.0007 0.14687628 0.00554825 -0.0007 0.15995887 -0.00919744 -0.0007 0.15929663 -0.01624488 -0.0007 0.08099322 -1.351E-05 -0.0007 0.09095788 -0.0018544 -0.0007 0.07770869 0.01277258 -0.0007 0.07969004 0.01590008 -0.0007 0.09554914 0.02577066 -0.0007 0.08668461 0.02427728 -0.0007 0.10439285 0.03548221 -0.0007 0.09780037 0.02816684 -0.0007 0.11593667 0.04000446 -0.0007 0.10795947 0.04133293 -0.0007 0.12272003 0.02605548 -0.0007 0.1293669 0.03869733 -0.0007 0.13352334 0.03112665 -0.0007 0.14619453 0.01038003 0.0015 0.13877749 0.0104871 0.0015 0.14532062 0 0.0015 0.14133595 -0.00153391 0.0015 0.14729138 -0.01038003 0.0015 0.13877749 -0.01327138 0.0015 0.14403248 -0.01838213 0.0015 0.13168827 -0.02320257 0.0015 0.13474807 -0.0221731 0.0015 0.1216923 0.01481147 0.0015 0.1022813 0.02056958 0.0015 0.09951545 0.02088448 0.0015 0.11107957 0.02684979 0.0015 0.10995325 0.02027761 0.0015 0.12669028 0.02816684 0.0015 0.12206333 0.02321774 0.0015 0.13472569 -0.02833293 0.0015 0.119 -0.02088448 0.0015 0.11107957 -0.02571427 0.0015 0.10710331 -0.01481147 0.0015 0.1022813 -0.01834235 0.0015 0.09740572 0 0.0015 0.09731309 -0.00757986 0.0015 0.09169981 0.00601503 0.0015 0.09161058 -0.02514125 0.0043 0.10899685 -0.03476244 0.0043 0.10169036 -0.03866798 0.0043 0.11541688 -0.02717853 0.0043 0.12195584 -0.03735118 0.0043 0.12962732 -0.02342544 0.0043 0.13309462 0.01137327 0.0043 0.14355187 0.01402833 0.0043 0.15521128 0.02966026 0.0043 0.14361462 0.02176422 0.0043 0.13554473 0.02606046 0.0043 0.1277808 0.03735118 0.0043 0.12962732 0.02607541 0.0043 0.11177374 0.03817559 0.0043 0.11368634 0.03098991 0.0043 0.09559751 0.01769876 0.0043 0.09816341 0.02044327 0.0043 0.08598298 0.0073139 0.0043 0.0926577 0.00713566 0.0043 0.08082759 -0.00442292 0.0043 0.09202135 -0.00713566 0.0043 0.08082759 -0.01534218 0.0043 0.09637198 -0.02177292 0.0043 0.08719511 -0.03098991 0.0043 0.1424025 -0.01534218 0.0043 0.14162803 -0.01555806 0.0043 0.15426411 -0.00442292 0.0043 0.14597864 0 0.0043 0.15783364 -0.049 0.06 0.089 -0.052 0.06 0.08271042 -0.055 0.06 0.089 -0.049 0.06 0.049 -0.05194284 0.06 0.06400149 -0.055 0.06 0.049 -0.049 0.05712434 0.07405802 -0.049 0.054 0.089 -0.049 0.05749734 0.05528959 -0.049 0.054 0.049 -0.055 0.054 0.089 -0.05215893 0.054 0.08279382 -0.055 0.054 0.049 -0.05181387 0.054 0.06422395 -0.055 0.05749734 0.05528959 -0.055 0.05668416 0.07404021 0.059 -0.047 0.044 0.059 -0.052 0.044 0.0268 -0.047 0.044 -0.02403712 -0.05 0.17308384 -0.0222375 -0.05 0.15986013 -0.01504376 -0.05 0.15278883 -0.02308591 -0.05 0.15676415 -0.04490392 -0.05 0.11818676 -0.03578897 -0.05 0.11510772 -0.03495224 -0.05 0.12669358 -0.04545467 -0.05 0.12069683 -0.03753682 -0.05 0.14293432 -0.02849135 -0.05 0.14065856 -0.05910453 -0.05 0.11278787 -0.03995081 -0.05 0.14078283 -0.05475873 -0.05 0.14301941 -0.05918168 -0.05 0.12887567 -0.04399266 -0.05 0.1594981 -0.06 -0.047 0.045 -0.06 -0.052 0.045 -0.06 -0.0495 0.06885 -0.06 -0.052 0.11179334 -0.06 -0.0485 0.119 -0.06 -0.047 0.0942 -0.06 -0.052 0.0942 0.055 -0.047 0.07085 0.055 -0.0495 0.0922 0.055 -0.052 0.07085 0.02504686 -0.047 0.06367743 0.00753471 -0.047 0.0505446 0.02506503 -0.047 0.07270001 0.04139036 -0.047 0.08614543 0.03723876 -0.047 0.08147991 0.02598263 -0.047 0.09438795 -0.02849135 -0.047 0.14065856 -0.02152034 -0.047 0.15770864 -0.011294 -0.047 0.15257287 0.03910239 -0.047 0.09796949 0.04537617 -0.047 0.11861096 0.03557917 -0.047 0.11513053 -0.03495224 -0.047 0.12669358 -0.03411552 -0.047 0.10750514 -0.03864773 -0.047 0.09777734 -0.03913756 -0.047 0.14042425 0.03066603 -0.047 0.13745114 0.03898402 -0.047 0.14060354 -0.01676385 -0.047 0.08738002 -0.0210305 -0.047 0.07989761 0.0544558 -0.047 0.09403896 0.0528384 -0.047 0.07124869 0.03980586 -0.047 0.05760077 0.05674904 -0.047 0.13848197 0.05959084 -0.047 0.12393784 0.06 -0.047 0.0941 0.01472913 -0.047 0.17716402 0.00963102 -0.047 0.1536878 0 -0.047 0.17879507 -0.0002625 -0.047 0.16588899 -0.01472913 -0.047 0.17716402 -0.03281689 -0.047 0.16922998 -0.05005843 -0.047 0.1517048 -0.05959084 -0.047 0.12393784 -0.055 -0.047 0.0942 -0.05277458 -0.047 0.07099354 -0.04149905 -0.047 0.0857172 -0.04240086 -0.047 0.06387985 -0.06 -0.047 0.06885 -0.01602234 -0.047 0.06048993 -0.0248 -0.047 0.044 -0.0399134 -0.047 0.0473232 -0.01870718 -0.047 0.04665359 -0.00753471 -0.047 0.0505446 0.0248 -0.047 0.039 -0.0248 -0.047 0.039 0.0197768 -0.047 0.0467134 0.02612925 -0.047 0.04442075 0.04118178 -0.047 0.0456183 -0.03911367 -0.047 0.0555758 0.0071329 -0.047 0.07379516 0.0239695 -0.047 0.07989761 -0.02514819 -0.047 0.07311928 -0.02502923 -0.047 0.06344627 0.00963102 -0.047 0.0843122 0.05291962 -0.047 0.05444641 0.06 -0.047 0.06885 0.06 -0.047 0.045 -0.0520866 -0.047 0.0543232 -0.0043797 -0.047 0.07399366 0.0002625 -0.047 0.07211101 -0.04491679 -0.047 0.11917929 0.04008266 -0.047 0.16254137 0.0239695 -0.047 0.15783989 -0.059 -0.052 0.044 -0.059 -0.047 0.044 -0.0268 -0.0495 0.044 0.06 -0.052 0.045 0.06 -0.052 0.06885 0.01946654 -0.052 0.17575432 0.02410173 -0.047 0.1739464 0.06 -0.047 0.119 0.06 -0.052 0.119 0.06 -0.0495 0.0941 -0.055 -0.052 0.07085 -0.055 -0.0495 0.0922 -0.055 -0.047 0.07085 0.03688557 -0.052 0.08100301 0.03128744 -0.052 0.10239313 0.01324686 -0.052 0.08575289 0.02295466 -0.052 0.08172569 0.0007459 -0.052 0.07483396 0.02374216 -0.052 0.15672898 0.03281689 -0.052 0.16922998 0.02263125 -0.052 0.15944065 0.02865935 -0.052 0.14078628 0.00963102 -0.052 0.1536878 0.01472913 -0.052 0.17716402 -0.02236875 -0.052 0.08149835 -0.01332497 -0.052 0.08555684 -0.02506503 -0.052 0.07270001 -0.03084686 -0.052 0.10044006 -0.004075 -0.052 0.04560138 -0 -0.052 0.0719 -0.0071329 -0.052 0.07379516 -0.00753471 -0.052 0.0505446 0.03880472 -0.052 0.14166643 0.04277711 -0.052 0.16107278 0.03856452 -0.052 0.09716912 0.03557917 -0.052 0.12286947 0.01861725 -0.052 0.06399377 0.01850718 -0.052 0.0466 0.02602099 -0.052 0.04435825 0.0248 -0.052 0.039 0.00794384 -0.052 0.05009581 -0.04008298 -0.052 0.04582321 -0.02605 -0.052 0.04443301 -0.02504686 -0.052 0.06367743 -0.04240086 -0.052 0.06387985 -0.03737351 -0.052 0.05619216 0.03951358 -0.052 0.05723307 0.04147656 -0.052 0.0455183 0.02504686 -0.052 0.06367743 -0.05465849 -0.052 0.0940415 -0.05290179 -0.052 0.07098529 -0.03838523 -0.052 0.09725233 -0.00193758 -0.052 0.08326352 0 -0.052 0.17879507 0.00084841 -0.052 0.16422734 -0.01504376 -0.052 0.15278883 -0.00169683 -0.052 0.16354534 -0.01472913 -0.052 0.17716402 0.05918168 -0.052 0.12887567 0.05005843 -0.052 0.1517048 0.05469682 -0.052 0.09411851 0.06 -0.052 0.0941 0.04168251 -0.052 0.08616663 0.053175 -0.052 0.07071208 0.02485621 -0.052 0.07359481 -0.04149905 -0.052 0.0857172 0.00699668 -0.052 0.07374904 0.04491679 -0.052 0.11917929 0.04059725 -0.052 0.08601478 0.05264641 -0.052 0.05417321 -0.0519134 -0.052 0.0543232 -0.06 -0.052 0.06885 -0.0198134 -0.052 0.04705 -0.0248 -0.052 0.039 0.02464505 -0.0495 0.06447501 0.04059725 -0.047 0.08601478 0.04240086 -0.047 0.06387985 0.04240086 -0.052 0.06387985 0.04240086 -0.052 0.08541963 0.04240086 -0.047 0.08541963 -0.04240086 -0.052 0.08541963 -0.04240086 -0.047 0.08541963 -0.02464505 -0.0495 0.06447501 -0.04059725 -0.052 0.08601478 -0.04059725 -0.047 0.08601478 -0.0066329 -0.052 0.07329516 -0.0066329 -0.047 0.07329516 -0.0066329 -0.047 0.05084217 -0.02506503 -0.047 0.07270001 -0.00843652 -0.052 0.05024702 -0.00843652 -0.047 0.05024702 -0.0076329 -0.047 0.07429516 -0.0076329 -0.052 0.07429516 -0.02426142 -0.047 0.07429516 -0.02426142 -0.052 0.07429516 0.02426142 -0.047 0.07429516 0.02426142 -0.052 0.07429516 0.0076329 -0.0495 0.07429516 0.02506503 -0.052 0.07270001 0.00843652 -0.052 0.05024702 0.00843652 -0.047 0.05024702 0.03548234 0.067 0.13225344 0.01731473 0.067 0.1252365 0.02753741 0.067 0.14518571 0.00531918 0.067 0.13653766 -0.01765238 0.067 0.11202097 -0.00531918 0.067 0.10146233 -0.0229058 0.067 0.08883422 -0.01217445 0.067 0.08313312 0.01492647 0.067 0.12297604 0.01089243 0.067 0.10808288 -0.00904652 0.067 0.12952718 -0.01492647 0.067 0.11502396 -0.01562085 0.067 0.12310085 0.00924889 0.067 0.15573022 -0.01303202 0.067 0.13234745 -0.02008298 0.067 0.15111423 -0.00735539 0.067 0.15593654 -0.02921899 0.067 0.14310187 -0.01425948 0.067 0.12959762 -0.03534757 0.067 0.1326088 -0.03766126 0.067 0.11919637 -0.031928 0.067 0.09902472 0.00435938 0.067 0.08159138 0.01743374 0.067 0.08537389 0.0143637 0.067 0.10652311 0.02718485 0.067 0.09262513 0.03457062 0.067 0.10405739 0.03785323 0.067 0.12033527 0.00924889 0.065 0.15573022 0.00498441 0.065 0.13731581 0.02753741 0.065 0.14518571 0.01684198 0.065 0.12622571 0.00328852 0.065 0.13303031 0.01523283 0.065 0.12352761 0.03548234 0.065 0.13225344 -0.00498441 0.065 0.10068419 -0.01684198 0.065 0.11177429 -0.02744811 0.065 0.0928992 -0.01632251 0.065 0.0850591 -0.01619027 0.065 0.11932491 -0.03766126 0.065 0.11919637 -0.03430082 0.065 0.10293439 0.01410386 0.065 0.10665451 0.0120406 0.065 0.10963324 -0.00230124 0.065 0.10372543 0.03172598 0.065 0.09870537 0.03752334 0.065 0.1157738 0.02260198 0.065 0.08860591 -0.00019002 0.065 0.0811237 0.01181397 0.065 0.08301277 -0.01410386 0.065 0.1313455 -0.02921899 0.065 0.14310187 -0.03534757 0.065 0.1326088 -0.01867347 0.065 0.15170643 -0.00285837 0.065 0.15676877 -0.04171737 0.065 0.09401506 -0.03268939 0.065 0.13989325 -0.03451056 0.065 0.11414193 0.02866806 0.065 0.08346763 0.04364814 0.065 0.06921753 0.03888633 0.065 0.05642421 -0.04357202 0.065 0.07687333 -0.05207549 0.065 0.08448799 -0.02954504 0.065 0.08414984 -0.01425136 0.065 0.12680981 -0.01399632 0.065 0.11025292 0.02111168 0.065 0.14917433 0.0348397 0.065 0.13685057 0.05958249 0.065 0.09302086 0.01441279 0.065 0.12688725 0.0034737 0.065 0.15379821 0.00019216 0.065 0.13762648 -0.00064683 0.065 0.13427034 -0.0105919 0.065 0.15282217 -0.02422317 0.065 0.14712484 -0.05933427 0.065 0.09362222 -0.05137113 0.065 0.06385913 -0.055 0.065 0.044 -0.057375 0.065 0.06916651 -0.03847971 0.065 0.05601759 -0.03925359 0.065 0.0468 -0.02612925 0.065 0.04442076 -0.0159549 0.065 0.06391968 -0.0248 0.065 0.039 0.02600425 0.065 0.04429575 0.02013158 0.065 0.039 0.02221086 0.065 0.06365407 0.0532241 0.065 0.06859665 0.055 0.065 0.044 0.05088038 0.065 0.0514 0.06 0.065 0.0667 0.05227321 0.065 0.07271962 0.04235671 0.065 0.0948792 0.04107803 0.065 0.09315091 0.01603799 0.065 0.0950708 0.0247402 0.065 0.09414899 0.03033439 0.065 0.08576377 0.03080592 0.065 0.11405889 0.03451056 0.065 0.11414193 -0.03023134 0.065 0.0659941 -0.01716901 0.065 0.08096726 -0.008396 0.065 0.09035244 0.00340722 0.065 0.039 -0.04006943 0.065 0.06798965 0.01560624 0.065 0.08077194 0.03004553 0.065 0.06661633 0.00817161 0.065 0.09040561 0 0.065 0.06445426 -0.02476931 0.065 0.09438667 -0.01948038 0.065 0.04635359 -0.00090005 0.065 0.10351623 0.01457303 0.065 0.11022472 0.01457654 0.065 0.039 0.02024641 0.065 0.0460268 0.04012898 0.065 0.0460366 -0.01873178 0.06 0.08116258 -0.01605399 0.06 0.06415407 -0.00455877 0.06 0.039 0.03268939 0.06 0.13989325 0.03451056 0.06 0.11414193 0.04171737 0.06 0.09401506 0.01302561 0.06 0.11095466 -0.01426777 0.06 0.10880317 -0.02459246 0.06 0.09398237 0.01362978 0.06 0.1277612 0.0105919 0.06 0.15282217 -0.00019216 0.06 0.13762648 0.00191452 0.06 0.13393302 -0.01397191 0.06 0.125855 -0.0034737 0.06 0.15379821 -0.03080592 0.06 0.11405889 0.01873178 0.06 0.08116258 0.04364814 0.06 0.06921753 0.0510268 0.06 0.05125359 0.0547355 0.06 0.06537913 0.055 0.06 0.044 0.03925359 0.06 0.0468 0.02318783 0.06 0.04522378 -0.04012898 0.06 0.0460366 -0.02600425 0.06 0.04429575 -0.02024641 0.06 0.0460268 -0.03888633 0.06 0.05642421 -0.055 0.06 0.044 -0.05193832 0.06 0.06412706 -0.05732924 0.06 0.06912076 -0.04364814 0.06 0.06921753 -0.02111168 0.06 0.14917433 -0.0348397 0.06 0.13685057 -0.03451056 0.06 0.11414193 0.02111168 0.06 0.14917433 0.0517634 0.06 0.0717366 0.05924962 0.06 0.09426726 0.06 0.06 0.0667 0.03080592 0.06 0.11405889 0.02570391 0.06 0.09303097 -0.02866806 0.06 0.08346763 -0.02925617 0.06 0.0650024 -0.04147993 0.06 0.09395508 -0.03033439 0.06 0.08576377 -0.051756 0.06 0.08375601 0.02866806 0.06 0.08346763 0.03033439 0.06 0.08576377 0.03847971 0.06 0.05601759 0.01586265 0.06 0.06419213 0.0296517 0.06 0.06480895 0.00191606 0.06 0.06501094 -0.00191606 0.06 0.06501094 0.00813931 0.06 0.09074169 -0.00848432 0.06 0.09027833 0.00048983 0.06 0.10088909 0.0248 0.06 0.039 0.01609388 0.06 0.039 -0.02013158 0.06 0.039 -0.05916498 0.06 0.09491229 0.06 0.0625 0.09112941 -0.0248 0.06 0.039 0.0248 0.065 0.039 -0.06 0.06 0.09112941 -0.06 0.065 0.09112941 -0.06 0.0625 0.0692 0.0268 0.06 0.044 0.0268 0.065 0.044 0.05866855 0.06 0.09611502 0.05866855 0.065 0.09611502 0.03699001 0.06 0.13380788 0.03699001 0.065 0.13380788 -0.05866855 0.065 0.09611502 -0.05866855 0.06 0.09611502 -0.03699001 0.065 0.13380788 -0.03699001 0.06 0.13380788 0.055 0.0625 0.0647 -0.0268 0.065 0.044 -0.0268 0.06 0.044 0.04060316 0.06 0.09303097 0.04060316 0.065 0.09303097 0.02570391 0.065 0.09303097 -0.03004553 0.065 0.06661633 -0.01873178 0.065 0.08116258 -0.03004553 0.06 0.06661633 -0.01515308 0.065 0.0799347 -0.01515308 0.0625 0.06538846 -0.01515308 0.06 0.0799347 -0.02875569 0.065 0.08253589 -0.02875569 0.06 0.08253589 -0.04006943 0.06 0.06798965 -0.04364814 0.065 0.08376377 -0.04364814 0.065 0.06921753 -0.04164814 0.06 0.08576377 -0.04164814 0.065 0.08576377 -0.03033439 0.0625 0.08576377 0.04006943 0.065 0.06798965 0.02875569 0.065 0.08253589 0.04006943 0.06 0.06798965 0.02875569 0.06 0.08253589 0.04364814 0.06 0.08376377 0.01515308 0.06 0.0799347 0.01515308 0.065 0.06538846 0.01515308 0.065 0.0799347 0.01873178 0.065 0.08116258 0.03004553 0.06 0.06661633 -0.00191606 0.065 0.06501094 -0.00912964 0.06 0.08911895 -0.00912964 0.065 0.08911895 -0.00721358 0.06 0.09169228 -0.00721358 0.065 0.09169228 0.00721358 0.065 0.09169228 0.00191606 0.065 0.06501094 0.00912964 0.065 0.08911895 0.00912964 0.06 0.08911895 -0.02570391 0.06 0.09303097 -0.02570391 0.065 0.09303097 -0.04060316 0.06 0.09303097 -0.04060316 0.065 0.09303097 0.02709288 0.0093 0.11711373 0.03887353 0.0093 0.11901498 0.03687771 0.0093 0.10670421 0.0240559 0.0093 0.10593361 0.03108616 0.0093 0.095659 0.01747644 0.0093 0.0979289 0.00950989 0.0093 0.14467058 0.01665126 0.0093 0.15412673 0.01836947 0.0093 0.13929728 0.02993611 0.0093 0.14345145 0.02459736 0.0093 0.13101611 0.03686822 0.0093 0.1313242 -0.02698632 0.0093 0.11440051 -0.03874627 0.0093 0.11585705 -0.02676269 0.0093 0.12475979 -0.03614365 0.0093 0.1326997 -0.02270493 0.0093 0.13429388 -0.02910719 0.0093 0.14476672 -0.01191289 0.0093 0.14340626 0.01796932 0.0093 0.08477796 0.00839323 0.0093 0.09294294 -0.00308782 0.0093 0.08047066 -0.00450022 0.0093 0.09187072 -0.01518 0.0093 0.09648001 -0.01944974 0.0093 0.15265799 -0.00779038 0.0093 0.15708493 -0.00071212 0.0093 0.14636621 0.00467082 0.0093 0.15759191 -0.0194238 0.0093 0.08532704 -0.02908733 0.0093 0.09321087 -0.02334378 0.0093 0.10470018 -0.03575698 0.0093 0.1037491 0.00570546 0.0043 0.1455524 0.01080091 0.0043 0.15634289 -0.00158024 0.0043 0.1578414 -0.00587834 0.0043 0.1457369 -0.01379875 0.0043 0.15534207 -0.01539437 0.0043 0.14163692 0.02730133 0.0043 0.12101345 0.03836773 0.0043 0.12525053 0.02459736 0.0043 0.13101611 0.0317979 0.0043 0.14097586 0.01836947 0.0043 0.13929728 0.02207036 0.0043 0.1510008 -0.02459699 0.0043 0.14910215 -0.02270493 0.0043 0.13429388 -0.0349306 0.0043 0.13554986 -0.02676269 0.0043 0.12475979 -0.03874868 0.0043 0.12211309 -0.02584778 0.0043 0.11066487 0.02014232 0.0043 0.10078272 0.02693944 0.0043 0.09097469 0.03442776 0.0043 0.10094783 0.02609401 0.0043 0.11072234 0.03837253 0.0043 0.11277903 -0.03774035 0.0043 0.10968241 -0.03284752 0.0043 0.09821077 -0.02021567 0.0043 0.10054076 -0.02457378 0.0043 0.0888789 -0.01190697 0.0043 0.09434962 -0.00922838 0.0043 0.08146492 -0.00189243 0.0043 0.09169001 0.01224702 0.0043 0.08233865 0.01088137 0.0043 0.0937444 0.04588905 -0.047 0.10181876 0.04243524 -0.047 0.0945 0.04243524 -0.0402 0.0945 0.04809112 -0.047 0.10960618 0.04809112 -0.0402 0.10960618 0.04898139 -0.047 0.11764984 0.04892559 -0.0402 0.1216993 0.04853558 -0.047 0.12573032 0.04853558 -0.0402 0.12573032 0.04676585 -0.047 0.13362722 0.04676585 -0.0402 0.13362722 0.04372046 -0.047 0.14112513 0.04372046 -0.0402 0.14112513 0.03948249 -0.047 0.14801952 0.03948249 -0.0402 0.14801952 0.03416754 -0.047 0.15412234 0.03416754 -0.0402 0.15412234 0.02792059 -0.047 0.15926711 0.02091205 -0.047 0.16331351 0.01718124 -0.0402 0.16488905 0.01333307 -0.047 0.16615114 0.01333307 -0.0402 0.16615114 0.0053904 -0.047 0.1677026 0.00135016 -0.0402 0.1679814 -0.0026993 -0.047 0.1679256 -0.0026993 -0.0402 0.1679256 -0.01071537 -0.047 0.16681403 -0.01462723 -0.0402 0.16576585 -0.01843916 -0.047 0.16439821 -0.01843916 -0.0402 0.16439821 -0.02565997 -0.047 0.16074406 -0.02901953 -0.0402 0.15848249 -0.03218085 -0.047 0.15595122 -0.03218085 -0.0402 0.15595122 -0.03782392 -0.047 0.15015046 -0.04026711 -0.0402 0.14692059 -0.04243524 -0.047 0.1435 -0.01134449 0.0035 0.12419856 0.00880912 0.0035 0.12547967 -0.01457901 0.0035 0.11619013 -0.01002008 0.0035 0.11203066 -0.00638639 0.0035 0.1058902 -0.00069958 0.0035 0.10891404 0.00283877 0.0035 0.10427107 0.01417501 0.0035 0.12390602 -0.00485608 0.0035 0.13303074 0.00011367 0.0035 0.12957579 0.01041136 0.0035 0.11344741 -0.01388524 0.0015 0.12345566 -0.0248979 0.0015 0.12371093 -0.02038823 0.0015 0.13404721 -0.00861229 0.0015 0.13109428 -0.00742366 0.0015 0.10614184 -0.01805814 0.0015 0.10162355 -0.01319683 0.0015 0.11219656 -0.02447623 0.0015 0.11244161 0.00861229 0.0015 0.10690573 0.0078205 0.0015 0.09519082 0.00070646 0.0015 0.1041695 -0.00471094 0.0015 0.0941021 0.00742366 0.0015 0.13185817 0.01805814 0.0015 0.13637644 0.01319683 0.0015 0.12580344 0.02447623 0.0015 0.12555838 0.01388524 0.0015 0.11454434 -0.0078205 0.0015 0.14280918 -0.00070646 0.0015 0.13383052 0.00471094 0.0015 0.14389791 0.0248979 0.0015 0.11428906 0.02038823 0.0015 0.1039528 0.02730798 -0.0015 0.12002179 0.03065572 -0.0015 0.11185209 0.02504697 -0.0015 0.10807212 0.01782511 -0.0015 0.09828684 0.02059751 -0.0015 0.0947406 0.00250885 -0.0015 0.09209048 0.00354199 -0.0015 0.14579311 0.00714791 -0.0015 0.14965571 0.02019384 -0.0015 0.1363782 0.0267312 -0.0015 0.13562253 -0.02639594 -0.0015 0.11192723 -0.03146116 -0.0015 0.12002993 -0.02685068 -0.0015 0.12408042 -0.02198731 -0.0015 0.13522738 -0.02608808 -0.0015 0.13769445 -0.01546896 -0.0015 0.14681163 -0.00102993 -0.0015 0.08753884 -0.01092788 -0.0015 0.09395303 -0.02297467 -0.0015 0.09748187 -0.02071316 -0.0015 0.10117488 0.0198538 -0.0045 0.14670596 0.02526587 -0.0045 0.14849046 0.02894512 -0.0045 0.13699923 0.0342129 -0.0045 0.13737194 0.03362981 -0.0045 0.12455231 0.03853929 -0.0045 0.1237722 0.03319467 -0.0045 0.11126009 0.03766074 -0.0045 0.10952795 0.02770594 -0.0045 0.0991462 0.03169589 -0.0045 0.09656294 0.0083078 -0.0045 0.08106543 -0.00765371 -0.0045 0.08122393 -0.0198538 -0.0045 0.09129406 -0.02526587 -0.0045 0.08950955 -0.02894512 -0.0045 0.10100077 -0.0342129 -0.0045 0.10062806 -0.03362981 -0.0045 0.1134477 -0.03853929 -0.0045 0.1142278 -0.03319467 -0.0045 0.12673992 -0.03766074 -0.0045 0.12847206 -0.02770594 -0.0045 0.13885379 -0.03169589 -0.0045 0.14143705 -0.0083078 -0.0045 0.15693456 0.00765371 -0.0045 0.15677607 0.0053904 -0.0067 0.1677026 0.02441632 -0.0067 0.16129032 0.01333739 -0.0067 0.15684877 -0.02892041 -0.0067 0.15834764 -0.03812591 -0.0067 0.14136924 -0.04416215 -0.0067 0.13984062 -0.04853558 -0.0067 0.11226968 -0.03897114 -0.0067 0.0965 -0.03788451 -0.0067 0.08865266 -0.04059493 -0.0067 0.12010182 -0.03180604 -0.0067 0.09340578 -0.01333739 -0.0067 0.08115123 -0.02441632 -0.0067 0.07670969 -0.0053904 -0.0067 0.0702974 -0.00037105 -0.0067 0.07394844 0.01457727 -0.0067 0.07239388 0.00962025 -0.0067 0.07944778 0.04853558 -0.0067 0.12573032 0.03872715 -0.0067 0.09633149 0.02892041 -0.0067 0.07965236 0.04612663 -0.0067 0.10388277 0.03897114 -0.0067 0.1415 0.03180604 -0.0067 0.14459422 0.04059493 -0.0067 0.11789818 0.03788451 -0.0067 0.14934734 0.00037105 -0.0067 0.16405156 -0.01457727 -0.0067 0.16560611 -0.00962025 -0.0067 0.15855223 0.02570388 -0.0067 0.08705769 0.03708819 -0.0067 0.10193673 -0.02570388 -0.0067 0.15094231 -0.03708819 -0.0067 0.13606328 0.02711521 -0.047 0.07873882 0.03825297 -0.047 0.09704967 0.04875849 -0.047 0.12169008 0.00670734 -0.047 0.07063019 -0.00052574 -0.047 0.07473199 -0.00936174 -0.047 0.07107313 -0.03858627 -0.047 0.14119063 -0.02441632 -0.047 0.07670969 -0.04524315 -0.047 0.10062382 -0.03682502 -0.047 0.08692907 -0.03799516 -0.047 0.09747598 -0.04875849 -0.047 0.11630992 -0.04612663 -0.047 0.13411722 -0.03500238 -0.047 0.15305084 -0.02204956 -0.047 0.16257113 -0.00020625 -0.047 0.16323027 0.02252158 -0.047 0.16199972 0.03774105 -0.047 0.14111513 0.00134555 -0.047 0.16781411 0.04524315 -0.047 0.13737617 0.03682502 -0.047 0.15107092 -0.0443135 -0.0402 0.13991204 -0.04588905 -0.047 0.13618124 -0.04715113 -0.0402 0.13233307 -0.04809112 -0.047 0.12839381 -0.0487026 -0.0402 0.1243904 -0.04898139 -0.047 0.12035016 -0.04892559 -0.0402 0.1163007 -0.04853558 -0.047 0.11226968 -0.04781402 -0.0402 0.10828463 -0.04676585 -0.047 0.10437278 -0.04539821 -0.0402 0.10056084 -0.04372046 -0.047 0.09687486 -0.04372046 -0.0402 0.09687486 -0.03948249 -0.047 0.08998048 -0.03948249 -0.0402 0.08998048 -0.03416754 -0.047 0.08387765 -0.03115046 -0.0402 0.08117609 -0.02792059 -0.047 0.07873289 -0.0245 -0.0402 0.07656476 -0.02091205 -0.047 0.0746865 -0.02091205 -0.0402 0.0746865 -0.01333307 -0.047 0.07184887 -0.00939382 -0.0402 0.07090887 -0.0053904 -0.047 0.0702974 -0.00135016 -0.0402 0.0700186 0.0026993 -0.047 0.07007441 0.00673033 -0.0402 0.07046442 0.01071537 -0.047 0.07118598 0.01071537 -0.0402 0.07118598 0.01843916 -0.047 0.07360179 0.01843916 -0.0402 0.07360179 0.02565997 -0.047 0.07725595 0.02565997 -0.0402 0.07725595 0.03218085 -0.047 0.08204877 0.03782392 -0.047 0.08784954 0.03782392 -0.0402 0.08784954 0.01443915 -0.058 0.08656914 0.01443915 -0.047 0.08656914 0.01933469 -0.047 0.08922719 0.01933469 -0.058 0.08922719 0.02375414 -0.047 0.09261836 0.02375414 -0.058 0.09261836 0.02758868 -0.047 0.09665912 0.02758868 -0.058 0.09665912 0.0307439 -0.047 0.10125 0.0307439 -0.058 0.10125 -0.03243086 -0.058 0.10456085 -0.03243086 -0.047 0.10456085 -0.02977281 -0.047 0.09966531 -0.02977281 -0.058 0.09966531 -0.02638164 -0.047 0.09524586 -0.02638164 -0.058 0.09524586 -0.02234087 -0.047 0.09141132 -0.02234087 -0.058 0.09141132 -0.01775 -0.047 0.0882561 -0.01775 -0.058 0.0882561 -0.01272206 -0.047 0.0858579 -0.01272206 -0.058 0.0858579 -0.00738087 -0.047 0.08427576 -0.00738087 -0.058 0.08427576 -0.00185793 -0.047 0.08354865 -0.00185793 -0.058 0.08354865 0.00371076 -0.047 0.08369447 0.00371076 -0.058 0.08369447 -0.03545135 -0.058 0.12085792 -0.03545135 -0.047 0.12085792 -0.03530553 -0.047 0.11528924 -0.03530553 -0.058 0.11528924 -0.01589503 -0.05545 0.13396901 -0.00950638 -0.05545 0.138769 -0.02091105 -0.05545 0.12528099 -0.02899166 -0.05545 0.12035196 -0.02592782 -0.05545 0.09641944 -0.03144957 -0.05545 0.11040864 -0.01771192 -0.05545 0.14554811 -0.01263333 -0.05545 0.12380144 -0.01606634 -0.05545 0.11835529 0.01188333 -0.05545 0.11426555 0.03308485 -0.05545 0.10964449 0.02726121 -0.05545 0.09838771 0.02145985 -0.05545 0.10882805 0.01228461 -0.05545 0.09227756 0.01806672 -0.05545 0.08960878 -0.00659143 -0.05545 0.08525558 -0.00249375 -0.05545 0.09483919 0.00488624 -0.05545 0.08606062 -0.0181782 -0.05545 0.10351443 -0.01719108 -0.05545 0.08922417 0.03084924 -0.05545 0.12781602 0.02185756 -0.05545 0.14554018 0.00792548 -0.05545 0.15224496 -0.00905418 -0.05545 0.15018806 0.01563047 -0.05645 0.11113045 0.01065084 -0.05645 0.11759896 0.01070246 -0.05645 0.11282093 0.01314979 -0.05645 0.09347763 0.01068172 -0.05645 0.10013753 -0.00502392 -0.05645 0.09008227 -0.00610919 -0.05645 0.14733785 -0 -0.05645 0.14598145 0.01406196 -0.05645 0.14435732 -0.00301506 -0.05645 0.12442052 0.00481064 -0.05645 0.12384303 -0.00317755 -0.05645 0.13048251 0.0005 -0.05645 0.09752341 -0.01311544 -0.05645 0.09628339 0.02598076 -0.05645 0.119 0.0201914 -0.05645 0.13123485 0.0214766 -0.05645 0.11925 0.02033307 -0.05645 0.1072607 -0.0101532 -0.05645 0.10266414 -0.00025 -0.05645 0.10253066 -0.01065175 -0.05645 0.10878628 -0.00026283 -0.05645 0.10912161 0.00134944 -0.05645 0.11488495 -0.01078994 -0.05645 0.11277042 -0.01157847 -0.05645 0.12194385 0.00618177 -0.05645 0.10944431 0.01463046 -0.05645 0.10939839 -0.00617125 -0.05645 0.11705381 -0.03515354 -0.0582 0.12221228 -0.0346003 -0.0582 0.11200649 -0.02915568 -0.0582 0.1176196 -0.02333326 -0.0582 0.11802938 -0.01137795 -0.0582 0.13927773 -0.01362827 -0.0582 0.14527133 -0.02035869 -0.0582 0.14783771 -0.03141915 -0.0582 0.10839771 -0.01039478 -0.0582 0.15078206 -0.02386663 -0.0582 0.10637529 0.0334615 -0.0582 0.13024358 0.0147457 -0.0582 0.14522168 0.0329058 -0.0582 0.12580523 0.00675268 -0.0582 0.08600179 -0.0199325 -0.0582 0.08999802 -0.00862188 -0.0582 0.08507725 -0.0196257 -0.0582 0.09619991 -0.00699351 -0.0582 0.15360031 0.01515019 -0.0582 0.15076305 0.02506703 -0.0582 0.14342815 0.02368364 -0.0582 0.1007817 0.01070246 -0.0582 0.08758824 0.02442814 -0.0582 0.09393297 0.03332658 -0.0582 0.10912822 -0.01443915 -0.058 0.15143086 -0.01443915 -0.047 0.15143086 -0.01933469 -0.047 0.14877281 -0.01933469 -0.058 0.14877281 0.03243086 -0.058 0.13343915 0.03243086 -0.047 0.13343915 0.02977281 -0.047 0.13833469 0.02977281 -0.058 0.13833469 0.02638164 -0.047 0.14275414 0.02638164 -0.058 0.14275414 0.02234087 -0.047 0.14658868 0.02234087 -0.058 0.14658868 0.01775 -0.047 0.1497439 0.01775 -0.058 0.1497439 0.01272206 -0.047 0.15214211 0.01272206 -0.058 0.15214211 0.00738087 -0.047 0.15372424 0.00738087 -0.058 0.15372424 0.00185793 -0.047 0.15445136 0.00185793 -0.058 0.15445136 -0.00371076 -0.047 0.15430553 -0.00371076 -0.058 0.15430553 0.03530553 -0.047 0.12271076 0.03530553 -0.058 0.12271076 0.03545135 -0.058 0.11714207 0.03545135 -0.047 0.11714207 0.03472424 -0.058 0.11161914 0.03472424 -0.047 0.11161914 0.0331421 -0.058 0.10627794 0.0331421 -0.047 0.10627794 -0.01719407 -0.0572 0.13371901 -0.03050432 -0.0572 0.13066497 -0.02535432 -0.0572 0.13958503 0.00105929 -0.0538 0.09783475 -0.01235833 -0.0538 0.12359475 0.00885929 -0.0538 0.11134475 0.02136141 -0.0538 0.10839904 -0.01262102 -0.0538 0.11473975 -0.00225386 0.0033 0.13463973 -0.00529764 0.0033 0.14049336 -0.01079264 0.0033 0.130319 -0.01669451 0.0033 0.13378417 -0.01379366 0.0033 0.11103623 -0.01596498 0.0033 0.10366543 -0.00716653 0.0033 0.10509887 -0.00130542 0.0033 0.09722266 0.0037303 0.0033 0.10364534 -0.02201025 0.0033 0.12258147 -0.015622 0.0033 0.11974417 0.01143237 0.0033 0.12990788 0.01951245 0.0033 0.12875815 0.00867681 0.0033 0.13936523 0.0132984 0.0033 0.10130304 0.01181971 0.0033 0.10875817 0.02126262 0.0033 0.1128412 0.015622 0.0033 0.11974417 -0.00478826 0.0093 0.12734978 0.00127826 0.0093 0.13144964 0.00986152 0.0093 0.12544467 -0.01204868 0.0093 0.12460165 -0.0200644 0.0093 0.12852067 -0.01266407 0.0093 0.13735482 -0.00824802 0.0093 0.11494964 -0.02178118 0.0093 0.1159228 -0.01002855 0.0093 0.11193579 -0.0127719 0.0093 0.10110097 0.00440962 0.0093 0.09743671 0.00049233 0.0093 0.10565537 0.00378868 0.0093 0.11131261 -0.00228071 0.0093 0.10691778 0.02211866 0.0093 0.11989135 0.01821808 0.0093 0.10642497 -0.00090231 0.0093 0.14128147 0.01183126 0.0093 0.13770965 0.01116695 0.0093 0.11358504 -0.0058127 0.0035 0.13351941 -0.01375002 0.0035 0.12397283 -0.00468408 0.0035 0.126839 0.00158098 0.0035 0.12860398 0.01079264 0.0035 0.130319 -0.00104465 0.0035 0.10867878 0.00930685 0.0035 0.12331834 0.01583714 0.0035 0.12127703 -0.002081 0.0035 0.10394409 0.00994882 0.0035 0.11202791 -0.00800074 0.0035 0.11165273 -0.01354439 0.0035 0.11118014 -0.01050074 0.0035 0.1195626 -0.058 -0.052 0.044 -0.058 -0.052 0.039 -0.0252 -0.052 0.0415 0.06 0.063 0.039 0.06 0.063 0.044 0.06 -0.05 0.039 0.06 -0.05 0.044 -0.06 -0.05 0.039 -0.06 -0.05 0.044 -0.06 0.063 0.039 -0.06 0.063 0.044 0.01518358 0.02661273 0.039 0.0232 0.06 0.039 0.0304 0.05550718 0.039 0.0252 0.06500001 0.039 0.00965359 0.05570718 0.039 -0.00905359 0.05794641 0.039 -0.01256232 0.02716135 0.039 -0.02395 0.05906699 0.039 -0.01064641 0.05608039 0.039 -0.01776399 0.02723381 0.039 -0.03064641 0.05608039 0.039 -0.0302366 -0.0437634 0.039 -0.02513301 -0.04675 0.039 -0.0252 -0.052 0.039 0.0099 -0.04288039 0.039 -0.0101366 -0.0443366 0.039 0.02504151 -0.04665849 0.039 0.00885359 -0.04489282 0.039 0.01698591 -0.02779397 0.039 -0.02616916 -0.01128827 0.039 -0.01343021 -0.02754764 0.039 -0.01757183 -0.02704164 0.039 -0.02500432 0.01253892 0.039 0.02941879 -0.00157529 0.039 0.05226467 0.005 0.039 0.03351716 -0.00071716 0.039 0.01279078 -0.02546853 0.039 -0.059 -0.051 0.039 0.0298634 -0.0440366 0.039 0.058 -0.052 0.039 0.0252 -0.052 0.039 0.05214183 0.0362005 0.039 -0.05934151 0.06384151 0.039 -0.0252 0.06500001 0.039 -0.05168689 -0.0149161 0.039 -0.06 -0.0025 0.039 -0.03321949 -0.00013125 0.039 -0.06 0.015 0.039 -0.05137379 0.00516779 0.039 -0.05183221 0.02437379 0.039 -0.06 0.03028565 0.039 -0.05137379 0.03589088 0.039 0.05222921 -0.01477079 0.039 0.06 -0.02097315 0.039 0.06 -0.0025 0.039 0.06 0.015 0.039 0.05163846 0.02418004 0.039 0.06 0.03028565 0.039 0.01279078 -0.02546853 0.044 0.00888039 -0.0439 0.044 0.01672341 -0.02831898 0.044 0.0300866 -0.04432321 0.044 0.02616916 -0.01128827 0.044 -0.02753361 0.01004972 0.044 -0.01612658 0.02477027 0.044 -0.05166442 0.00625242 0.044 -0.0156125 0.02847597 0.044 -0.02451484 -0.01415365 0.044 -0.01638242 -0.02795568 0.044 -0.01335322 -0.02621992 0.044 -0.03121961 -0.04427321 0.044 -0.0252 -0.052 0.044 -0.02504151 -0.04665849 0.044 0.02460401 -0.04642524 0.044 0.0252 -0.052 0.044 0.03325625 -0.052 0.044 0.05137379 0.03589088 0.044 0.0298 0.05556077 0.044 0.01463284 0.02625414 0.044 -0.0296 0.05550718 0.044 -0.0252 0.06500001 0.044 -0.02395 0.05906699 0.044 -0.0104732 -0.04352679 0.044 -0.0097268 0.05578038 0.044 0.00885359 0.05789282 0.044 0.0232 0.06 0.044 0.0098 0.05556077 0.044 0.05190312 -0.01509688 0.044 0.06 -0.0025 0.044 0.03246716 -0.00071716 0.044 0.05177079 0.00522921 0.044 0.06 0.015 0.044 0.0519161 0.0246869 0.044 0.06 0.03028565 0.044 0.059 0.064 0.044 0.0252 0.06500001 0.044 -0.03256796 -0.00014883 0.044 -0.05176129 -0.01483221 0.044 -0.05183221 0.02476129 0.044 -0.06 0.03028565 0.044 -0.05187717 0.035794 0.044 0.058 -0.052 0.044 0.0252 -0.052 0.0415 -0.058 0.06500001 0.0415 0.058 0.06500001 0.044 0.058 0.06500001 0.039 0.055 0.054 0.0865 0.055 0.05650266 0.08021041 0.055 0.06 0.0865 0.055 0.054 0.0465 0.055 0.05694284 0.06150149 0.055 0.06 0.0465 0.05191923 0.054 0.07154728 0.049 0.054 0.0865 0.049 0.054 0.0465 0.05224867 0.054 0.05270618 0.049 0.06 0.0865 0.049 0.05724867 0.08029382 0.049 0.06 0.0465 0.049 0.05681387 0.06172395 0.05215893 0.06 0.05270618 0.05185206 0.06 0.07148777 -0.01223997 0.0033 0.10041743 -0.01244597 0.0033 0.09497673 0.0001457 0.0033 0.09158956 0.00776227 0.0033 0.09836221 0.01270064 0.0033 0.09511039 0.01971407 0.0033 0.11004443 -0.01801471 0.0033 0.13206135 -0.02350264 0.0033 0.13240319 -0.02739407 0.0033 0.11995813 -0.02096527 0.0033 0.11217146 -0.02438164 0.0033 0.1072716 0.01385643 0.0033 0.13641058 0.01433868 0.0033 0.14194389 0.0020604 0.0033 0.14633328 -0.00588106 0.0033 0.14025052 -0.01073715 0.0033 0.14383411 0.02480711 0.0033 0.1085958 0.02524632 0.0033 0.12872846 0.02139381 0.0033 0.12596811 -0.01675053 0.0093 0.10435253 -0.02218453 0.0093 0.10351238 -0.02719302 0.0093 0.1155514 -0.02149996 0.0093 0.12389112 -0.02534831 0.0093 0.12845954 -0.01388121 0.0093 0.13639082 0.01538423 0.0093 0.10292349 0.01636834 0.0093 0.09745708 0.00454075 0.0093 0.0919679 -0.0039216 0.0093 0.09730225 -0.0084312 0.0093 0.09329135 -0.01458178 0.0093 0.14179017 -0.00235085 0.0093 0.14630982 0.00585079 0.0093 0.14025888 0.01047254 0.0093 0.14394686 0.0188167 0.0093 0.12971349 0.02375666 0.0093 0.13161987 0.02602729 0.0093 0.11161082 0.02193944 0.0093 0.1140089 0.01398569 0.06 0.11082853 0.01047084 0.06 0.09965158 -0.00026733 0.06 0.1041676 0.00181054 0.06 0.09715003 -0.01047084 0.06 0.09965158 0.02045408 0.06 0.11197811 0.02088642 0.06 0.12522301 0.01372203 0.06 0.12724279 -0.00016665 0.06 0.13503955 0.00792654 0.06 0.1393012 -0.00614069 0.06 0.1395992 -0.02014701 0.06 0.1101627 -0.01398569 0.06 0.12717147 -0.01372203 0.06 0.11075722 -0.01957729 0.06 0.12857592 -0.01285575 0.0428 0.10367911 0.01285575 0.0428 0.10367911 0.01360508 0.0428 0.11024529 0.01285575 0.0428 0.13432088 -0.01285575 0.0428 0.13432088 -0.01360508 0.0428 0.1277547 0.00030937 0.0428 0.10279737 -0.00068962 0.0428 0.09990935 -0.01404922 0.0428 0.11097631 -0.01984808 0.0428 0.11726352 -0.00018844 0.0428 0.13709465 0.01404922 0.0428 0.12702368 0.01984808 0.0428 0.12073648 -0.01410135 0.0398 0.11112108 -0.01944846 0.0398 0.11162417 -0.01172012 0.0398 0.10046612 0.0135287 0.0398 0.12754914 0.00087367 0.0398 0.14078668 -0.00202455 0.0398 0.13369735 0.00352905 0.0398 0.0972849 0.0148361 0.0398 0.11069687 0.0167859 0.0398 0.11924045 0.01304518 0.0398 0.10164002 0.02117162 0.0398 0.11378609 -0.00436561 0.0398 0.09763733 -0.0013025 0.0398 0.10255501 -0.01362173 0.0398 0.12671401 -0.01955491 0.0398 0.12827891 0.01361603 0.0398 0.13566533 -0.01175825 0.0398 0.13759418 -0.02180419 0.0428 0.1189957 -0.01429711 0.0428 0.11121757 -0.01632352 0.0428 0.10454437 -0.00773589 0.0428 0.09861426 -0.00099331 0.0428 0.10299727 -0.01409309 0.0428 0.12656376 -0.01781323 0.0428 0.13129559 -0.00019216 0.0428 0.13528284 0.02057036 0.0428 0.12680131 0.01359053 0.0428 0.1283505 0.00177026 0.0428 0.14092866 0.02155678 0.0428 0.11638254 0.01441189 0.0428 0.11018946 0.01510119 0.0428 0.10327179 0.00836772 0.067 0.13523677 0.01664732 0.067 0.14209682 0.00758576 0.067 0.14716196 0.01172084 0.067 0.09264331 0.00552214 0.067 0.1020725 0.00587886 0.067 0.09003442 -0.01238347 0.067 0.10498354 -0.00531308 0.067 0.09878448 -0.00609428 0.067 0.09224505 -0.01299364 0.067 0.09237761 -0.02046057 0.067 0.09828908 -0.02599963 0.067 0.11220346 -0.01754491 0.067 0.11657336 -0.02836035 0.067 0.12262726 -0.01693479 0.067 0.12271801 -0.00601623 0.067 0.10482822 0.0096264 0.067 0.1072058 0.01494592 0.067 0.11581895 0.01606553 0.067 0.10982668 -0.00519434 0.067 0.13470852 0.00748874 0.067 0.13239895 -0.01007899 0.067 0.14443526 -0.01209088 0.067 0.13278276 0.02003737 0.067 0.13710016 0.01636624 0.067 0.12328082 0.02798297 0.067 0.12304737 0.02592527 0.067 0.11154496 -0.01921763 0.067 0.13901018 0.01988507 0.067 0.09970529 -0.02805967 0.077 0.11777645 -0.02768522 0.077 0.12536208 -0.01742681 0.077 0.12255925 -0.0110422 0.077 0.13360877 -0.00461245 0.077 0.13767146 0.00540193 0.077 0.13539483 -0.00846427 0.077 0.14663218 -0.01396565 0.077 0.14330652 -0.02604468 0.077 0.13187702 -0.01869826 0.077 0.13763642 -0.01805213 0.077 0.11554286 -0.02746129 0.077 0.11268554 -0.01172084 0.077 0.09264331 -0.00611035 0.077 0.10068851 -0.00423749 0.077 0.09238449 0.01170355 0.077 0.10422445 0.00531308 0.077 0.09878448 0.00630706 0.077 0.0920255 0.01299364 0.077 0.09237761 0.01955888 0.077 0.09903764 -0.00601816 0.077 0.13303411 0.00783895 0.077 0.14572337 0.01198236 0.077 0.13227728 0.00601623 0.077 0.10482822 0.01808477 0.077 0.11590821 -0.0096264 0.077 0.1072058 -0.01286652 0.077 0.10810962 -0.02029502 0.077 0.09820925 0.0165684 0.077 0.12211066 0.02668755 0.077 0.12437112 0.01609512 0.077 0.14057288 0.02787512 0.077 0.1139831 -0.0231054 0.0428 0.11237666 -0.0259746 0.0428 0.1098239 -0.01344236 0.0428 0.09907436 -0.01525273 0.0428 0.09606019 0.0025105 0.0428 0.09509549 0.00710296 0.0428 0.09217364 0.01728868 0.0428 0.10230181 0.00581672 0.0428 0.14232153 0.00504056 0.0428 0.14608271 -0.01053493 0.0428 0.14060424 -0.01224009 0.0428 0.14367916 -0.02195716 0.0428 0.1287781 -0.02678379 0.0428 0.12626183 0.02093404 0.0428 0.10109339 0.02397729 0.0428 0.11732139 0.02749282 0.0428 0.11726065 0.01944666 0.0428 0.13312641 0.01968083 0.0428 0.13856453 -0.02397729 0.0493 0.12067861 -0.02023302 0.0493 0.13264973 -0.01053493 0.0493 0.14060424 0.02397729 0.0493 0.11732139 0.02023302 0.0493 0.10535027 0.01053493 0.0493 0.09739575 -0.02195716 0.0433 0.1287781 -0.0231054 0.0433 0.11237666 -0.01695579 0.0433 0.10144462 0.02195716 0.0433 0.10922191 0.0231054 0.0433 0.12562335 0.01695579 0.0433 0.13655539 0.03103723 0.077 0.14071038 0.01575845 0.077 0.12958227 0.03718393 0.077 0.12683295 0.02256496 0.077 0.14942159 0.0117392 0.077 0.1290399 0.01746164 0.077 0.11343633 -0.01575845 0.077 0.10841772 -0.01746164 0.077 0.12456367 -0.03783581 0.077 0.11723894 -0.03644632 0.077 0.12931097 0.01258264 0.077 0.110287 0.03549845 0.077 0.10578977 0.02625274 0.077 0.09199624 0.00296975 0.077 0.10403696 0.01069637 0.077 0.08288909 0.00257936 0.077 0.10043453 -0.00281238 0.077 0.08122778 -0.0117392 0.077 0.10896011 -0.02493971 0.077 0.09049278 -0.0146289 0.077 0.08406226 -0.03455831 0.077 0.10402893 -0.002016 0.077 0.13453533 -0.01781096 0.077 0.15242782 -0.02834051 0.077 0.14380373 -0.00257936 0.077 0.13756548 -0.00630883 0.077 0.15634768 0.00729584 0.077 0.15594834 0.03549845 0.079 0.10578977 0.01791275 0.079 0.11271933 0.03718393 0.079 0.12683295 0.01550209 0.079 0.12877488 0.03103723 0.079 0.14071038 0.01862073 0.079 0.1517365 -0.01791275 0.079 0.12528068 -0.03706336 0.079 0.11119245 -0.03721215 0.079 0.12480216 -0.03268354 0.079 0.09985748 -0.01550209 0.079 0.10922511 0.00174838 0.079 0.10395958 -0.00253996 0.079 0.13363063 -0.00231517 0.079 0.13763721 0.00127443 0.079 0.1566402 -0.01221812 0.079 0.15485203 -0.02294252 0.079 0.14913787 -0.03130551 0.079 0.1403217 -0.00883505 0.079 0.08216806 -0.02119454 0.079 0.08786801 0.00268976 0.079 0.10016509 0.00328313 0.079 0.08126578 0.01635045 0.079 0.08507255 0.01388623 0.079 0.11223384 0.02948832 0.079 0.09522839 -0.01388623 0.079 0.12576616</float_array>
          <technique_common>
            <accessor source="#pos_0-array" count="5658" stride="3">
              <param name="X" type="float"/>
              <param name="Y" type="float"/>
              <param name="Z" type="float"/>
            </accessor>
          </technique_common>
        </source>
        <source id="norm_0">
          <float_array id="norm_0-array" count="270">1 -0 0 0 -1 0 -1 -0 0 0 1 -0 0 0 1 0 0 -1 0 -0.61338 0.78979 0 0.61338 -0.78979 -0 0.88845 0.45896 0 0.86611 -0.49986 0 -0.35038 0.93661 0 0.48937 -0.87208 -0 -0.89228 -0.45148 0 0.88855 -0.45878 0 -0.88855 -0.45878 0 -0.83604 0.54866 0.32443 0.04095 0.94502 0.80361 0 -0.59515 -0.80361 0 -0.59515 0.80361 0 0.59515 -0.80361 0 0.59515 0.86686 -0 0.49856 -0.86686 0 0.49856 0.78935 0 -0.61394 -0.78935 0 0.61394 0.78935 0 0.61394 -0.78935 -0 -0.61394 0.95803 -0 0.28666 -0.95803 0 0.28666 0.90436 0 -0.42678 0.99393 0 -0.11001 0.99818 -0.0246 0.05507 0.9758 -0 0.21868 0.92649 -0 0.37631 0.85192 -0 0.52367 0.75411 -0 0.65675 0.63572 -0 0.77192 0.35053 -0.0246 0.93623 0.19171 -0 0.98145 0.02755 -0.02461 0.99932 -0.13735 0 0.99052 -0.29843 -0.0246 0.95412 -0.45153 0 0.89225 -0.59206 -0.0246 0.80552 -0.71678 0 0.6973 -0.82153 -0.0246 0.56964 -0.90408 -0.0246 0.42665 -0.96198 -0.0246 0.27202 -0.99363 -0.0246 0.10998 -0.99818 -0.0246 -0.05507 -0.9755 -0.0246 -0.21861 -0.92621 -0.0246 -0.3762 -0.85192 0 -0.52367 -0.75411 0 -0.65675 -0.63553 -0.0246 -0.77168 -0.49985 -0.0246 -0.86576 -0.35064 0 -0.93651 -0.19165 -0.0246 -0.98115 -0.02755 -0.0246 -0.99932 0.13731 -0.0246 -0.99022 0.29851 0 -0.95441 0.45153 0 -0.89225 0.59224 0 -0.80577 0.82178 0 -0.56981 0.47716 0 -0.87882 0.60876 0 -0.79335 0.72537 0 -0.68835 0.82413 0 -0.56641 -0.87882 0 -0.47716 -0.79335 0 -0.60876 -0.68835 0 -0.72538 -0.56641 0 -0.82413 -0.43051 0 -0.90259 -0.28402 0 -0.95882 -0.13053 0 -0.99144 0.02618 0 -0.99966 -0.99966 0 -0.02618 -0.47716 0 0.87882 0.87882 -0 0.47716 0.79335 -0 0.60876 0.68835 -0 0.72537 0.56641 -0 0.82413 0.43051 -0 0.90259 0.28401 -0 0.95882 0.13053 -0 0.99144 -0.02618 0 0.99966 0.99966 0 0.02618 0.99144 0 -0.13053 0.95882 0 -0.28402 0.90259 0 -0.43051</float_array>
          <technique_common>
            <accessor source="#norm_0-array" count="270" stride="3">
              <param name="X" type="float"/>
              <param name="Y" type="float"/>
              <param name="Z" type="float"/>
            </accessor>
          </technique_common>
        </source>
        <vertices id="vert_0">
          <input semantic="POSITION" source="#pos_0"/>
        </vertices>
        <triangles count="2000" material="mat_0">
          <input semantic="VERTEX" source="#vert_0" offset="0"/>
          <input semantic="NORMAL" source="#norm_0" offset="1"/>
          <p>0 0 1 0 2 0 3 0 1 0 0 0 1 0 4 0 2 0 4 0 3 0 5 0 2 0 4 0 5 0 4 0 1 0 3 0 6 1 0 1 7 1 8 1 6 1 7 1 8 1 3 1 9 1 9 1 3 1 0 1 9 1 0 1 6 1 9 1 6 1 8 1 10 2 11 2 7 2 7 2 11 2 8 2 12 2 11 2 10 2 8 2 13 2 12 2 12 2 13 2 11 2 13 2 8 2 11 2 5 3 14 3 2 3 14 3 5 3 12 3 15 3 14 3 10 3 10 3 14 3 12 3 15 3 2 3 14 3 2 3 15 3 10 3 16 4 17 4 18 4 19 5 20 5 21 5 22 4 23 4 24 4 25 0 26 0 27 0 28 0 25 0 27 0 29 0 30 0 31 0 30 0 29 0 32 0 32 0 29 0 31 0 33 0 34 0 35 0 35 0 34 0 36 0 33 0 37 0 34 0 38 0 39 0 40 0 41 0 40 0 39 0 42 0 41 0 39 0 40 0 41 0 42 0 27 0 30 0 32 0 33 0 43 0 37 0 44 0 45 0 38 0 46 0 45 0 47 0 48 0 33 0 31 0 48 0 31 0 49 0 49 0 31 0 50 0 50 0 31 0 30 0 26 0 51 0 30 0 30 0 51 0 50 0 52 0 51 0 26 0 51 0 52 0 43 0 52 0 53 0 44 0 25 0 54 0 53 0 53 0 26 0 25 0 25 0 28 0 55 0 56 0 57 0 58 0 59 0 39 0 38 0 59 0 38 0 56 0 59 0 56 0 58 0 58 0 57 0 60 0 57 0 38 0 60 0 46 0 60 0 38 0 57 0 56 0 38 0 38 0 35 0 44 0 46 0 38 0 45 0 44 0 36 0 52 0 52 0 36 0 43 0 43 0 48 0 51 0 43 0 33 0 48 0 44 0 35 0 36 0 44 0 53 0 54 0 47 0 61 0 28 0 28 0 61 0 54 0 28 0 54 0 55 0 47 0 45 0 54 0 47 0 54 0 61 0 26 0 30 0 27 0 62 2 63 2 64 2 62 2 64 2 65 2 66 2 67 2 68 2 66 2 68 2 69 2 69 2 70 2 66 2 66 2 70 2 71 2 72 2 70 2 69 2 71 2 70 2 72 2 73 2 74 2 68 2 75 2 76 2 77 2 75 2 77 2 74 2 74 2 77 2 78 2 79 2 78 2 77 2 78 2 79 2 80 2 81 2 82 2 83 2 84 2 75 2 73 2 75 2 74 2 73 2 82 2 84 2 73 2 85 2 86 2 87 2 87 2 86 2 65 2 86 2 85 2 88 2 88 2 85 2 80 2 89 2 88 2 80 2 75 2 89 2 80 2 88 2 89 2 90 2 88 2 90 2 65 2 75 2 91 2 90 2 63 2 62 2 92 2 62 2 90 2 91 2 82 2 91 2 75 2 64 2 85 2 87 2 64 2 87 2 65 2 65 2 90 2 62 2 91 2 82 2 92 2 92 2 82 2 81 2 63 2 81 2 83 2 63 2 92 2 81 2 80 2 93 2 76 2 80 2 76 2 75 2 76 2 93 2 79 2 79 2 93 2 80 2 83 2 82 2 94 2 83 2 94 2 73 2 73 2 94 2 82 2 83 2 73 2 95 2 73 2 68 2 95 2 95 2 68 2 96 2 96 2 68 2 67 2 97 3 98 3 99 3 71 3 100 3 101 3 102 1 72 1 103 1 58 3 104 3 59 3 59 3 104 3 67 3 105 1 106 1 107 1 108 3 109 3 110 3 111 4 112 4 113 4 114 6 115 6 116 6 117 3 118 3 119 3 48 5 120 5 121 5 122 4 123 4 124 4 125 7 126 7 90 7 90 7 126 7 127 7 128 1 129 1 130 1 131 5 132 5 133 5 133 5 132 5 134 5 135 4 136 4 137 4 137 4 136 4 138 4 139 0 140 0 141 0 141 0 142 0 139 0 143 0 144 0 145 0 143 0 145 0 142 0 146 0 142 0 145 0 147 0 148 0 141 0 149 0 150 0 151 0 149 0 152 0 141 0 153 0 154 0 151 0 150 0 155 0 151 0 151 0 155 0 153 0 156 0 157 0 143 0 151 0 157 0 156 0 151 0 154 0 157 0 158 0 144 0 159 0 160 0 146 0 145 0 160 0 145 0 158 0 161 0 162 0 163 0 163 0 162 0 164 0 165 0 166 0 163 0 166 0 167 0 161 0 168 0 167 0 165 0 168 0 165 0 169 0 142 0 141 0 170 0 149 0 171 0 150 0 162 0 172 0 164 0 153 0 155 0 150 0 173 0 174 0 165 0 173 0 165 0 163 0 161 0 163 0 166 0 140 0 139 0 175 0 146 0 160 0 139 0 139 0 160 0 176 0 175 0 176 0 177 0 172 0 178 0 164 0 164 0 179 0 173 0 173 0 179 0 178 0 178 0 172 0 140 0 173 0 177 0 174 0 160 0 180 0 174 0 174 0 177 0 160 0 168 0 169 0 181 0 167 0 166 0 165 0 169 0 165 0 180 0 159 0 180 0 160 0 177 0 173 0 175 0 175 0 173 0 140 0 181 0 169 0 180 0 181 0 180 0 159 0 159 0 157 0 182 0 182 0 157 0 154 0 159 0 144 0 143 0 159 0 143 0 157 0 160 0 158 0 159 0 159 0 182 0 183 0 151 0 156 0 184 0 151 0 184 0 152 0 152 0 184 0 141 0 184 0 170 0 141 0 183 0 185 0 153 0 185 0 154 0 153 0 154 0 185 0 183 0 154 0 183 0 182 0 186 0 171 0 149 0 171 0 186 0 147 0 147 0 186 0 148 0 148 0 186 0 149 0 187 2 188 2 189 2 190 2 191 2 192 2 193 2 194 2 195 2 195 2 194 2 196 2 190 2 197 2 188 2 198 2 199 2 200 2 198 2 201 2 202 2 203 2 202 2 201 2 204 2 205 2 197 2 192 2 204 2 197 2 206 2 207 2 208 2 208 2 204 2 192 2 188 2 197 2 209 2 209 2 205 2 189 2 188 2 209 2 189 2 210 2 211 2 212 2 189 2 211 2 210 2 205 2 212 2 189 2 210 2 213 2 214 2 214 2 213 2 215 2 203 2 201 2 212 2 210 2 212 2 213 2 216 2 217 2 218 2 216 2 219 2 220 2 212 2 221 2 203 2 212 2 222 2 221 2 202 2 203 2 199 2 199 2 203 2 208 2 208 2 203 2 223 2 193 2 195 2 218 2 193 2 218 2 217 2 193 2 217 2 216 2 193 2 216 2 224 2 224 2 216 2 225 2 226 2 224 2 225 2 227 2 228 2 226 2 200 2 229 2 227 2 227 2 229 2 228 2 228 2 230 2 231 2 194 2 231 2 196 2 196 2 231 2 230 2 229 2 196 2 230 2 226 2 228 2 231 2 214 2 220 2 232 2 227 2 226 2 233 2 233 2 220 2 215 2 220 2 225 2 216 2 214 2 215 2 220 2 233 2 198 2 227 2 191 2 234 2 206 2 207 2 234 2 191 2 207 2 206 2 234 2 191 2 206 2 192 2 188 2 187 2 235 2 222 2 205 2 204 2 208 2 223 2 204 2 204 2 223 2 222 2 187 2 189 2 235 2 210 2 236 2 189 2 189 2 236 2 235 2 235 2 236 2 210 2 190 2 192 2 197 2 205 2 222 2 212 2 201 2 198 2 215 2 229 2 200 2 199 2 214 2 232 2 219 2 219 2 232 2 220 2 194 2 193 2 226 2 194 2 226 2 231 2 237 8 238 8 239 8 240 3 241 3 242 3 243 9 244 9 245 9 246 1 247 1 248 1 155 10 249 10 209 10 250 5 251 5 252 5 157 11 253 11 254 11 255 3 256 3 257 3 145 12 201 12 258 12 258 12 201 12 259 12 171 1 207 1 260 1 261 3 262 3 172 3 263 1 264 1 265 1 266 3 267 3 268 3 269 1 270 1 271 1 272 5 273 5 274 5 275 4 276 4 277 4 220 13 278 13 180 13 180 13 278 13 279 13 280 14 281 14 282 14 283 15 284 15 285 15 286 3 287 3 288 3 289 3 290 3 291 3 292 3 293 3 294 3 294 3 295 3 292 3 292 3 295 3 296 3 295 3 297 3 296 3 296 3 297 3 298 3 297 3 299 3 298 3 298 3 299 3 300 3 301 3 302 3 298 3 301 3 303 3 302 3 302 3 303 3 304 3 302 3 304 3 305 3 306 3 307 3 308 3 309 3 305 3 307 3 305 3 309 3 302 3 306 3 308 3 310 3 311 3 312 3 288 3 313 3 314 3 315 3 287 3 314 3 288 3 288 3 314 3 313 3 290 3 289 3 316 3 290 3 293 3 291 3 293 3 292 3 291 3 317 3 286 3 288 3 318 3 290 3 319 3 320 3 321 3 288 3 321 3 317 3 288 3 300 3 303 3 298 3 298 3 303 3 301 3 322 3 323 3 290 3 323 3 322 3 324 3 290 3 318 3 322 3 287 3 286 3 317 3 287 3 317 3 325 3 315 3 326 3 316 3 326 3 287 3 319 3 287 3 326 3 315 3 316 3 326 3 319 3 316 3 289 3 315 3 314 3 287 3 315 3 288 3 312 3 320 3 294 3 293 3 323 3 323 3 293 3 290 3 290 3 316 3 319 3 320 3 312 3 310 3 327 3 328 3 320 3 327 3 320 3 310 3 323 3 297 3 294 3 310 3 308 3 327 3 294 3 297 3 295 3 308 3 307 3 305 3 308 3 305 3 327 3 297 3 300 3 299 3 329 1 330 1 331 1 332 1 333 1 334 1 335 1 333 1 336 1 337 1 338 1 339 1 340 1 341 1 342 1 340 1 343 1 341 1 344 1 345 1 346 1 347 1 346 1 333 1 348 1 338 1 349 1 346 1 348 1 344 1 344 1 348 1 349 1 338 1 348 1 346 1 338 1 350 1 349 1 349 1 350 1 351 1 352 1 353 1 341 1 341 1 353 1 350 1 350 1 353 1 354 1 352 1 355 1 356 1 355 1 352 1 341 1 356 1 355 1 341 1 357 1 358 1 359 1 360 1 361 1 357 1 361 1 360 1 362 1 362 1 360 1 363 1 363 1 364 1 365 1 363 1 365 1 366 1 366 1 365 1 367 1 366 1 368 1 335 1 333 1 335 1 367 1 367 1 335 1 368 1 345 1 336 1 333 1 336 1 345 1 344 1 369 1 340 1 342 1 337 1 370 1 338 1 339 1 338 1 347 1 333 1 332 1 371 1 367 1 368 1 366 1 363 1 360 1 372 1 363 1 372 1 364 1 329 1 331 1 372 1 329 1 356 1 373 1 373 1 356 1 374 1 341 1 374 1 356 1 341 1 343 1 374 1 372 1 360 1 357 1 345 1 333 1 346 1 372 1 357 1 329 1 329 1 357 1 359 1 359 1 356 1 329 1 347 1 333 1 371 1 342 1 341 1 350 1 375 1 342 1 376 1 375 1 376 1 350 1 350 1 376 1 342 1 350 1 338 1 375 1 346 1 347 1 338 1 338 1 370 1 375 1 342 1 375 1 369 1 324 2 371 2 377 2 324 2 377 2 378 2 379 5 380 5 381 5 381 5 380 5 382 5 343 0 383 0 384 0 385 0 386 0 387 0 388 1 389 1 390 1 390 1 391 1 388 1 388 1 391 1 392 1 392 1 391 1 390 1 393 0 394 0 381 0 381 0 394 0 395 0 394 0 393 0 396 0 394 0 396 0 395 0 397 3 398 3 399 3 397 3 399 3 400 3 400 3 399 3 398 3 401 2 402 2 403 2 401 2 403 2 404 2 402 2 401 2 404 2 402 5 381 5 395 5 405 0 406 0 407 0 408 0 406 0 405 0 406 0 409 0 407 0 409 0 408 0 410 0 407 0 409 0 410 0 409 0 406 0 408 0 411 1 405 1 412 1 408 1 413 1 414 1 414 1 411 1 412 1 413 1 408 1 405 1 413 1 405 1 411 1 413 1 411 1 414 1 415 2 416 2 412 2 412 2 416 2 414 2 417 2 416 2 415 2 414 2 418 2 417 2 417 2 418 2 416 2 418 2 414 2 416 2 410 3 419 3 407 3 419 3 410 3 417 3 420 3 419 3 415 3 415 3 419 3 417 3 420 3 407 3 419 3 407 3 420 3 415 3 421 1 422 1 423 1 423 1 424 1 421 1 421 1 424 1 425 1 425 1 424 1 423 1 426 0 427 0 428 0 427 0 426 0 429 0 427 0 429 0 428 0 430 3 431 3 432 3 430 3 432 3 433 3 433 3 432 3 431 3 434 2 435 2 436 2 434 2 436 2 437 2 435 2 434 2 379 2 379 2 434 2 437 2 379 5 428 5 435 5 438 3 439 3 440 3 438 3 440 3 441 3 441 3 440 3 442 3 441 3 442 3 443 3 443 3 442 3 444 3 445 3 446 3 447 3 447 3 446 3 448 3 447 3 448 3 449 3 447 3 449 3 444 3 444 3 449 3 443 3 439 3 438 3 450 3 439 3 450 3 451 3 451 3 450 3 452 3 451 3 452 3 453 3 453 3 452 3 454 3 453 3 454 3 445 3 445 3 454 3 446 3 455 3 456 3 457 3 458 3 459 3 460 3 460 3 459 3 461 3 461 3 459 3 462 3 463 3 464 3 465 3 466 3 467 3 468 3 467 3 469 3 468 3 470 3 471 3 465 3 470 3 465 3 472 3 459 3 458 3 472 3 459 3 472 3 465 3 472 3 473 3 470 3 470 3 473 3 458 3 458 3 473 3 472 3 474 3 475 3 460 3 474 3 476 3 475 3 475 3 477 3 478 3 477 3 479 3 478 3 479 3 477 3 480 3 479 3 480 3 481 3 456 3 482 3 483 3 483 3 482 3 484 3 484 3 482 3 485 3 485 3 482 3 467 3 467 3 482 3 456 3 466 3 486 3 487 3 487 3 486 3 488 3 488 3 486 3 489 3 490 3 491 3 489 3 491 3 492 3 489 3 489 3 492 3 488 3 488 3 492 3 493 3 493 3 492 3 491 3 490 3 494 3 493 3 490 3 493 3 491 3 494 3 495 3 493 3 485 3 467 3 466 3 495 3 494 3 465 3 495 3 465 3 471 3 465 3 494 3 463 3 463 3 494 3 490 3 476 3 474 3 461 3 461 3 474 3 460 3 480 3 457 3 481 3 481 3 457 3 456 3 481 3 456 3 483 3 457 3 480 3 496 3 465 3 464 3 462 3 465 3 462 3 459 3 489 3 486 3 468 3 468 3 486 3 466 3 456 3 455 3 467 3 467 3 455 3 469 3 496 3 480 3 476 3 476 3 480 3 475 3 475 3 480 3 477 3 497 1 498 1 499 1 500 1 501 1 502 1 503 1 499 1 498 1 504 1 505 1 506 1 504 1 506 1 507 1 507 1 508 1 504 1 506 1 509 1 507 1 509 1 510 1 507 1 507 1 510 1 511 1 511 1 510 1 512 1 512 1 510 1 509 1 512 1 513 1 511 1 514 1 515 1 516 1 516 1 515 1 517 1 498 1 516 1 503 1 503 1 516 1 517 1 503 1 517 1 499 1 518 1 519 1 520 1 520 1 519 1 521 1 519 1 522 1 523 1 523 1 524 1 521 1 523 1 521 1 519 1 500 1 520 1 524 1 524 1 520 1 521 1 525 1 526 1 524 1 501 1 500 1 525 1 500 1 526 1 525 1 502 1 527 1 528 1 528 1 527 1 529 1 527 1 501 1 529 1 501 1 527 1 502 1 528 1 530 1 502 1 504 1 508 1 528 1 505 1 504 1 528 1 500 1 524 1 526 1 522 1 531 1 497 1 497 1 531 1 498 1 519 1 518 1 522 1 522 1 518 1 531 1 532 1 533 1 534 1 533 1 532 1 517 1 512 1 533 1 517 1 534 1 533 1 512 1 517 1 515 1 512 1 512 1 515 1 513 1 535 1 536 1 537 1 537 1 536 1 538 1 537 1 538 1 539 1 537 1 539 1 540 1 541 1 542 1 543 1 543 1 542 1 544 1 543 1 544 1 545 1 543 1 545 1 535 1 535 1 545 1 536 1 546 1 547 1 548 1 548 1 547 1 549 1 548 1 549 1 550 1 548 1 550 1 541 1 541 1 550 1 542 1 540 1 539 1 551 1 540 1 551 1 552 1 552 1 551 1 553 1 552 1 553 1 554 1 552 1 554 1 555 1 555 1 554 1 556 1 555 1 556 1 557 1 557 1 556 1 558 1 557 1 558 1 559 1 559 1 558 1 560 1 560 1 561 1 559 1 559 1 561 1 562 1 562 1 561 1 563 1 562 1 563 1 564 1 562 1 564 1 546 1 546 1 564 1 547 1 565 1 566 1 567 1 567 1 566 1 568 1 567 1 568 1 569 1 569 1 568 1 570 1 569 1 570 1 571 1 571 1 570 1 572 1 571 1 572 1 573 1 574 1 575 1 576 1 576 1 575 1 577 1 576 1 577 1 578 1 578 1 577 1 579 1 578 1 579 1 580 1 578 1 580 1 565 1 565 1 580 1 566 1 573 1 572 1 581 1 573 1 581 1 582 1 582 1 581 1 583 1 582 1 583 1 584 1 584 1 583 1 585 1 584 1 585 1 586 1 586 1 585 1 587 1 586 1 587 1 588 1 586 1 588 1 574 1 574 1 588 1 575 1 589 3 590 3 591 3 589 3 591 3 592 3 592 3 591 3 593 3 592 3 593 3 594 3 595 3 596 3 597 3 595 3 597 3 598 3 598 3 597 3 599 3 599 3 597 3 600 3 599 3 600 3 601 3 601 3 600 3 602 3 601 3 602 3 603 3 601 3 603 3 604 3 604 3 603 3 605 3 604 3 605 3 606 3 606 3 605 3 607 3 606 3 607 3 608 3 608 3 607 3 609 3 608 3 609 3 610 3 610 3 609 3 611 3 610 3 611 3 589 3 589 3 611 3 590 3 594 3 593 3 612 3 594 3 612 3 613 3 613 3 612 3 614 3 613 3 614 3 615 3 615 3 614 3 616 3 615 3 616 3 595 3 595 3 616 3 596 3 617 3 618 3 619 3 620 3 618 3 617 3 618 3 621 3 619 3 621 3 620 3 622 3 619 3 621 3 622 3 621 3 618 3 620 3 623 0 617 0 624 0 620 0 625 0 626 0 626 0 623 0 624 0 625 0 620 0 617 0 625 0 617 0 623 0 625 0 623 0 626 0 627 1 628 1 624 1 624 1 628 1 626 1 629 1 628 1 627 1 626 1 630 1 629 1 629 1 630 1 628 1 630 1 626 1 628 1 622 2 631 2 619 2 631 2 622 2 629 2 632 2 631 2 627 2 627 2 631 2 629 2 632 2 619 2 631 2 619 2 632 2 627 2 633 5 634 5 635 5 636 1 637 1 638 1 638 1 637 1 639 1 640 1 641 1 642 1 640 1 642 1 643 1 643 1 642 1 644 1 644 1 642 1 645 1 641 1 640 1 646 1 644 1 647 1 643 1 643 1 647 1 648 1 643 1 648 1 649 1 643 1 649 1 640 1 640 1 649 1 646 1 639 1 644 1 645 1 639 1 645 1 638 1 637 1 636 1 650 1 637 1 650 1 639 1 639 1 650 1 648 1 648 1 647 1 639 1 639 1 647 1 644 1 651 2 652 2 653 2 654 2 655 2 656 2 654 2 656 2 657 2 658 0 659 0 660 0 661 3 662 3 663 3 664 3 665 3 666 3 667 3 668 3 669 3 670 3 671 3 664 3 672 3 670 3 666 3 673 3 674 3 675 3 667 3 673 3 676 3 677 3 678 3 672 3 679 3 680 3 674 3 681 3 682 3 683 3 681 3 684 3 685 3 686 3 681 3 685 3 687 3 688 3 689 3 669 3 668 3 688 3 688 3 668 3 690 3 688 3 690 3 689 3 689 3 690 3 668 3 689 3 668 3 691 3 668 3 692 3 691 3 693 3 692 3 668 3 656 3 694 3 695 3 695 3 694 3 693 3 696 3 697 3 698 3 699 3 696 3 698 3 697 3 696 3 695 3 700 3 701 3 702 3 700 3 703 3 701 3 704 3 703 3 700 3 703 3 704 3 662 3 703 3 662 3 701 3 701 3 662 3 705 3 701 3 705 3 706 3 707 3 661 3 708 3 707 3 708 3 705 3 683 3 709 3 708 3 683 3 708 3 661 3 707 3 705 3 662 3 702 3 701 3 651 3 702 3 651 3 710 3 700 3 710 3 698 3 665 3 661 3 663 3 711 3 712 3 665 3 666 3 665 3 712 3 664 3 666 3 670 3 683 3 664 3 671 3 680 3 713 3 697 3 697 3 713 3 714 3 714 3 713 3 700 3 698 3 714 3 700 3 715 3 711 3 704 3 665 3 663 3 711 3 662 3 661 3 707 3 711 3 662 3 704 3 683 3 716 3 709 3 682 3 717 3 683 3 683 3 717 3 716 3 709 3 716 3 718 3 718 3 716 3 717 3 702 3 710 3 700 3 699 3 719 3 651 3 651 3 719 3 698 3 710 3 651 3 698 3 698 3 719 3 699 3 704 3 720 3 721 3 704 3 721 3 715 3 715 3 721 3 720 3 671 3 681 3 683 3 711 3 715 3 666 3 711 3 666 3 712 3 713 3 680 3 720 3 680 3 679 3 720 3 720 3 679 3 715 3 680 3 675 3 674 3 697 3 675 3 680 3 681 3 671 3 684 3 671 3 672 3 678 3 676 3 673 3 675 3 697 3 695 3 675 3 675 3 695 3 722 3 693 3 675 3 722 3 695 3 693 3 722 3 684 3 671 3 678 3 668 3 667 3 676 3 668 3 676 3 693 3 675 3 693 3 676 3 684 3 678 3 723 3 671 3 670 3 672 3 688 3 687 3 724 3 688 3 724 3 678 3 688 3 678 3 677 3 678 3 724 3 723 3 723 3 724 3 687 3 725 5 726 5 727 5 728 0 718 0 717 0 728 0 717 0 729 0 687 16 730 16 731 16 732 0 733 0 734 0 735 2 736 2 737 2 738 1 739 1 740 1 738 1 741 1 742 1 742 1 741 1 740 1 743 1 744 1 745 1 746 1 743 1 747 1 748 1 745 1 744 1 749 1 742 1 750 1 751 1 749 1 752 1 749 1 750 1 752 1 753 1 742 1 754 1 742 1 755 1 754 1 754 1 755 1 756 1 757 1 758 1 744 1 757 1 759 1 758 1 744 1 746 1 757 1 757 1 746 1 760 1 761 1 762 1 763 1 763 1 762 1 764 1 764 1 762 1 753 1 753 1 762 1 765 1 766 1 767 1 768 1 769 1 770 1 768 1 768 1 770 1 766 1 771 1 763 1 772 1 761 1 763 1 773 1 774 1 775 1 769 1 774 1 654 1 657 1 776 1 752 1 654 1 742 1 740 1 777 1 742 1 777 1 750 1 740 1 741 1 738 1 760 1 739 1 759 1 759 1 739 1 738 1 746 1 744 1 743 1 778 1 779 1 747 1 778 1 747 1 748 1 748 1 747 1 745 1 745 1 747 1 743 1 747 1 779 1 780 1 780 1 779 1 781 1 780 1 781 1 782 1 782 1 781 1 778 1 778 1 781 1 779 1 758 1 783 1 784 1 785 1 786 1 783 1 787 1 788 1 785 1 771 1 788 1 787 1 771 1 729 1 788 1 742 1 789 1 738 1 738 1 789 1 773 1 773 1 789 1 761 1 756 1 751 1 768 1 790 1 751 1 752 1 790 1 752 1 776 1 774 1 769 1 790 1 753 1 754 1 756 1 742 1 791 1 789 1 765 1 791 1 753 1 753 1 791 1 742 1 783 1 758 1 785 1 785 1 758 1 792 1 787 1 792 1 758 1 759 1 757 1 760 1 787 1 758 1 759 1 774 1 790 1 654 1 654 1 790 1 776 1 738 1 793 1 759 1 759 1 793 1 787 1 742 1 749 1 751 1 742 1 751 1 755 1 785 1 792 1 787 1 729 1 794 1 728 1 728 1 794 1 772 1 771 1 794 1 729 1 771 1 772 1 794 1 765 1 762 1 761 1 773 1 763 1 771 1 725 1 766 1 795 1 795 1 775 1 725 1 770 1 769 1 766 1 766 1 769 1 795 1 775 1 795 1 769 1 775 1 796 1 725 1 756 1 797 1 753 1 753 1 797 1 767 1 767 1 797 1 768 1 756 1 768 1 797 1 767 1 764 1 753 1 705 5 798 5 706 5 793 17 799 17 800 17 801 2 802 2 803 2 801 2 803 2 804 2 769 0 698 0 805 0 805 0 698 0 806 0 807 18 808 18 809 18 810 2 811 2 812 2 813 19 751 19 814 19 813 19 814 19 815 19 816 5 817 5 818 5 818 5 817 5 819 5 820 5 821 5 822 5 823 20 663 20 824 20 824 20 663 20 825 20 826 3 827 3 828 3 828 3 827 3 829 3 830 3 831 3 832 3 832 3 831 3 833 3 834 3 827 3 835 3 835 3 827 3 826 3 836 3 837 3 838 3 836 3 838 3 839 3 839 3 829 3 836 3 839 3 828 3 829 3 840 3 841 3 839 3 839 3 841 3 842 3 841 3 840 3 843 3 843 3 840 3 844 3 843 3 844 3 845 3 845 3 844 3 838 3 844 3 840 3 838 3 838 3 840 3 839 3 846 3 845 3 847 3 837 3 830 3 845 3 845 3 830 3 847 3 847 3 830 3 832 3 831 3 848 3 833 3 835 3 849 3 831 3 831 3 849 3 848 3 849 3 835 3 850 3 849 3 850 3 851 3 851 3 850 3 852 3 852 3 850 3 826 3 826 3 850 3 835 3 826 3 853 3 852 3 837 3 845 3 838 3 854 1 855 1 856 1 856 1 855 1 857 1 857 1 855 1 858 1 857 1 858 1 859 1 857 1 859 1 860 1 860 1 856 1 857 1 861 1 862 1 863 1 861 1 863 1 864 1 865 1 866 1 862 1 862 1 866 1 867 1 862 1 867 1 863 1 865 1 855 1 854 1 868 1 869 1 870 1 869 1 871 1 860 1 860 1 871 1 872 1 869 1 868 1 871 1 871 1 868 1 873 1 874 1 875 1 873 1 861 1 864 1 873 1 873 1 864 1 874 1 876 1 877 1 878 1 878 1 866 1 865 1 878 1 865 1 876 1 876 1 879 1 877 1 854 1 876 1 865 1 854 1 880 1 879 1 879 1 876 1 854 1 859 1 869 1 860 1 873 1 868 1 870 1 873 1 870 1 861 1 881 3 882 3 883 3 884 3 885 3 886 3 887 3 888 3 889 3 890 3 891 3 882 3 892 3 893 3 894 3 892 3 895 3 896 3 896 3 895 3 897 3 895 3 898 3 897 3 896 3 897 3 899 3 882 3 900 3 899 3 888 3 901 3 882 3 902 3 903 3 904 3 887 3 902 3 904 3 903 3 902 3 905 3 903 3 905 3 906 3 903 3 906 3 907 3 908 3 909 3 907 3 908 3 907 3 906 3 910 3 911 3 912 3 913 3 914 3 915 3 916 3 913 3 894 3 894 3 913 3 917 3 885 3 917 3 913 3 885 3 913 3 886 3 890 3 899 3 898 3 897 3 898 3 899 3 882 3 899 3 890 3 918 3 894 3 885 3 918 3 885 3 919 3 920 3 892 3 921 3 919 3 885 3 922 3 919 3 922 3 921 3 892 3 923 3 921 3 892 3 924 3 923 3 918 3 924 3 892 3 905 3 925 3 908 3 889 3 925 3 905 3 926 3 927 3 928 3 927 3 926 3 889 3 889 3 926 3 925 3 928 3 908 3 926 3 929 3 905 3 902 3 902 3 887 3 929 3 905 3 929 3 889 3 884 3 920 3 922 3 922 3 920 3 921 3 894 3 917 3 885 3 920 3 930 3 928 3 928 3 930 3 912 3 886 3 912 3 931 3 932 3 920 3 928 3 933 3 928 3 927 3 928 3 933 3 932 3 927 3 889 3 934 3 934 3 889 3 881 3 881 3 889 3 888 3 882 3 934 3 883 3 901 3 888 3 904 3 904 3 888 3 887 3 882 3 881 3 888 3 908 3 935 3 909 3 909 3 935 3 928 3 934 3 882 3 891 3 891 3 927 3 934 3 891 3 936 3 927 3 932 3 927 3 936 3 936 3 920 3 932 3 936 3 937 3 920 3 935 3 908 3 928 3 938 3 928 3 939 3 938 3 939 3 911 3 911 3 939 3 912 3 937 3 892 3 920 3 930 3 920 3 884 3 930 3 884 3 931 3 939 3 928 3 912 3 892 3 937 3 895 3 886 3 910 3 912 3 908 3 906 3 905 3 915 3 940 3 910 3 915 3 910 3 886 3 931 3 884 3 886 3 886 3 913 3 915 3 940 3 915 3 914 3 918 3 892 3 894 3 941 1 942 1 943 1 944 1 945 1 946 1 947 1 948 1 949 1 950 1 951 1 952 1 952 1 953 1 950 1 954 1 953 1 952 1 955 1 952 1 951 1 954 1 956 1 948 1 944 1 947 1 957 1 949 1 948 1 956 1 958 1 959 1 960 1 960 1 959 1 961 1 961 1 962 1 963 1 959 1 962 1 961 1 964 1 965 1 966 1 967 1 964 1 966 1 964 1 967 1 968 1 968 1 969 1 970 1 969 1 971 1 970 1 972 1 973 1 974 1 954 1 952 1 955 1 954 1 955 1 972 1 944 1 975 1 951 1 944 1 951 1 950 1 960 1 976 1 958 1 977 1 976 1 978 1 976 1 960 1 978 1 944 1 979 1 945 1 957 1 980 1 944 1 941 1 981 1 967 1 967 1 982 1 941 1 943 1 942 1 966 1 966 1 942 1 982 1 966 1 982 1 967 1 983 1 984 1 949 1 985 1 971 1 983 1 967 1 981 1 971 1 981 1 941 1 949 1 949 1 984 1 981 1 958 1 976 1 977 1 958 1 977 1 946 1 957 1 986 1 987 1 957 1 987 1 980 1 980 1 987 1 946 1 988 1 986 1 957 1 988 1 958 1 986 1 943 1 989 1 957 1 957 1 990 1 988 1 988 1 990 1 943 1 943 1 990 1 989 1 943 1 991 1 992 1 993 1 957 1 947 1 994 1 993 1 995 1 943 1 992 1 994 1 943 1 994 1 941 1 972 1 974 1 956 1 958 1 988 1 959 1 959 1 988 1 962 1 996 1 963 1 997 1 944 1 950 1 947 1 977 1 944 1 946 1 944 1 980 1 979 1 957 1 993 1 991 1 957 1 991 1 943 1 949 1 995 1 947 1 993 1 947 1 995 1 995 1 949 1 994 1 994 1 949 1 941 1 966 1 965 1 998 1 966 1 998 1 943 1 943 1 997 1 963 1 956 1 954 1 972 1 963 1 962 1 988 1 963 1 988 1 943 1 967 1 971 1 968 1 968 1 971 1 969 1 970 1 985 1 999 1 970 1 971 1 985 1 974 1 985 1 983 1 974 1 973 1 999 1 974 1 999 1 985 1 978 0 916 0 1000 0 1001 5 1002 5 996 5 1003 2 1004 2 1005 2 1006 5 1007 5 961 5 961 5 1007 5 914 5 1008 21 1009 21 1010 21 1010 21 1009 21 1011 21 1012 22 1013 22 1014 22 1014 22 1013 22 1015 22 914 0 1016 0 961 0 1017 5 1018 5 903 5 903 5 1018 5 968 5 1019 4 1020 4 980 4 980 4 1020 4 1021 4 1022 23 1023 23 1024 23 1024 23 1023 23 941 23 1025 2 1026 2 1027 2 1028 24 929 24 1029 24 1029 24 929 24 1030 24 1031 0 971 0 1032 0 1033 5 1034 5 1035 5 1036 25 1037 25 1038 25 1038 25 1037 25 1039 25 1040 2 885 2 958 2 1041 0 1042 0 1043 0 1044 26 931 26 957 26 957 26 931 26 1045 26 992 27 1046 27 1047 27 1047 27 1046 27 1048 27 1049 5 1050 5 1051 5 1052 28 991 28 1053 28 1053 28 991 28 1054 28 1055 4 1056 4 1057 4 1057 4 1056 4 1058 4 1059 3 1060 3 1061 3 1059 3 1061 3 1062 3 1062 3 1061 3 1063 3 1062 3 1063 3 1064 3 1065 3 1066 3 1067 3 1067 3 1066 3 1068 3 1067 3 1068 3 1069 3 1069 3 1068 3 1070 3 1069 3 1070 3 1059 3 1059 3 1070 3 1060 3 1071 3 1072 3 1073 3 1073 3 1072 3 1074 3 1073 3 1074 3 1075 3 1075 3 1074 3 1076 3 1075 3 1076 3 1077 3 1064 3 1063 3 1078 3 1064 3 1078 3 1079 3 1079 3 1078 3 1080 3 1079 3 1080 3 1081 3 1081 3 1080 3 1082 3 1077 3 1076 3 1083 3 1077 3 1083 3 1084 3 1077 3 1084 3 1085 3 1085 3 1084 3 1086 3 1085 3 1086 3 1065 3 1065 3 1086 3 1066 3 1082 3 1080 3 1087 3 1082 3 1087 3 1088 3 1082 3 1088 3 1089 3 1089 3 1088 3 1090 3 1089 3 1090 3 1071 3 1071 3 1090 3 1072 3 1091 1 1092 1 1093 1 1091 1 1093 1 1094 1 1094 1 1093 1 1095 1 1094 1 1095 1 1096 1 1097 1 1098 1 1099 1 1099 1 1098 1 1100 1 1099 1 1100 1 1101 1 1101 1 1100 1 1102 1 1101 1 1102 1 1091 1 1091 1 1102 1 1092 1 1096 1 1095 1 1103 1 1096 1 1103 1 1104 1 1104 1 1103 1 1105 1 1104 1 1105 1 1106 1 1106 1 1105 1 1107 1 1106 1 1107 1 1108 1 1109 1 1110 1 1111 1 1109 1 1111 1 1112 1 1112 1 1111 1 1113 1 1112 1 1113 1 1097 1 1097 1 1113 1 1098 1 1108 1 1107 1 1114 1 1108 1 1114 1 1115 1 1108 1 1115 1 1116 1 1116 1 1115 1 1117 1 1116 1 1117 1 1118 1 1118 1 1117 1 1119 1 1118 1 1119 1 1120 1 1120 1 1119 1 1121 1 1120 1 1121 1 1122 1 1122 1 1121 1 1109 1 1109 1 1121 1 1110 1 1123 29 1124 29 1125 29 1126 30 1127 30 1128 30 1128 31 1129 31 1130 31 1130 32 1131 32 1132 32 1132 33 1133 33 1134 33 1134 34 1135 34 1136 34 1136 35 1137 35 1138 35 1138 36 1139 36 1140 36 1141 37 1142 37 1143 37 1143 38 1144 38 1145 38 1145 39 1146 39 1147 39 1147 40 1148 40 1149 40 1149 41 1150 41 1151 41 1151 42 1152 42 1153 42 1153 43 1154 43 1155 43 1155 44 1156 44 1157 44 1158 45 1159 45 1157 45 1160 3 1161 3 1162 3 1163 3 1162 3 1161 3 1163 3 1161 3 1164 3 1165 3 1166 3 1164 3 1165 3 1164 3 1161 3 1167 3 1161 3 1168 3 1168 3 1169 3 1160 3 1161 3 1169 3 1168 3 1160 3 1169 3 1161 3 1167 3 1170 3 1165 3 1167 3 1165 3 1161 3 1170 3 1166 3 1165 3 1171 3 1172 3 1173 3 1171 3 1173 3 1174 3 1175 3 1176 3 1177 3 1177 3 1176 3 1178 3 1177 3 1178 3 1171 3 1171 3 1178 3 1172 3 1179 3 1180 3 1181 3 1181 3 1180 3 1182 3 1181 3 1182 3 1175 3 1175 3 1182 3 1176 3 1183 3 1184 3 1185 3 1185 3 1184 3 1186 3 1185 3 1186 3 1187 3 1174 3 1173 3 1188 3 1174 3 1188 3 1189 3 1189 3 1188 3 1190 3 1189 3 1190 3 1183 3 1183 3 1190 3 1184 3 1187 3 1186 3 1191 3 1187 3 1191 3 1192 3 1187 3 1192 3 1179 3 1179 3 1192 3 1180 3 1193 3 1194 3 1195 3 1195 3 1194 3 1196 3 1196 3 1194 3 1197 3 1196 3 1197 3 1198 3 1199 3 1200 3 1201 3 1201 3 1200 3 1202 3 1201 3 1202 3 1193 3 1193 3 1202 3 1194 3 1203 3 1204 3 1205 3 1205 3 1204 3 1206 3 1206 3 1204 3 1207 3 1207 3 1208 3 1199 3 1199 3 1208 3 1200 3 1198 3 1197 3 1209 3 1198 3 1209 3 1210 3 1210 3 1209 3 1211 3 1210 3 1211 3 1212 3 1212 3 1211 3 1203 3 1203 3 1211 3 1204 3 1213 3 1214 3 1215 3 1215 3 1214 3 1216 3 1215 3 1216 3 1217 3 1217 3 1216 3 1218 3 1217 3 1218 3 1219 3 1219 3 1218 3 1220 3 1219 3 1220 3 1221 3 1221 3 1220 3 1222 3 1223 3 1224 3 1225 3 1225 3 1224 3 1226 3 1225 3 1226 3 1227 3 1227 3 1226 3 1228 3 1227 3 1228 3 1229 3 1229 3 1228 3 1230 3 1229 3 1230 3 1231 3 1231 3 1230 3 1232 3 1231 3 1232 3 1233 3 1233 3 1232 3 1234 3 1235 3 1236 3 1213 3 1213 3 1236 3 1214 3 1237 3 1238 3 1239 3 1240 3 1241 3 1242 3 1243 3 1241 3 1240 3 1242 3 1241 3 1243 3 1243 3 1244 3 1245 3 1244 3 1246 3 1247 3 1248 3 1244 3 1247 3 1246 3 1244 3 1243 3 1248 3 1249 3 1245 3 1245 3 1244 3 1248 3 1249 3 1248 3 1250 3 1251 3 1250 3 1248 3 1250 3 1251 3 1252 3 1253 3 1252 3 1251 3 1253 3 1251 3 1248 3 1254 3 1255 3 1256 3 1256 3 1255 3 1257 3 1257 3 1255 3 1254 3 1239 3 1258 3 1259 3 1258 3 1260 3 1259 3 1254 3 1258 3 1261 3 1260 3 1258 3 1254 3 1261 3 1258 3 1239 3 1239 3 1238 3 1261 3 1262 3 1237 3 1239 3 1237 3 1262 3 1263 3 1264 3 1263 3 1262 3 1264 3 1262 3 1239 3 1252 3 1253 3 1256 3 1256 3 1253 3 1265 3 1256 3 1265 3 1266 3 1256 3 1266 3 1254 3 1254 3 1266 3 1260 3 1263 3 1264 3 1240 3 1240 3 1264 3 1267 3 1240 3 1267 3 1268 3 1240 3 1268 3 1243 3 1243 3 1268 3 1246 3 1269 1 1126 1 1270 1 1271 1 1270 1 1126 1 1272 1 1273 1 1274 1 1275 1 1273 1 1269 1 1269 1 1273 1 1272 1 1274 1 1273 1 1276 1 1277 1 1278 1 1279 1 1275 1 1279 1 1276 1 1275 1 1276 1 1273 1 1276 1 1279 1 1278 1 1277 1 1279 1 1280 1 1280 1 1279 1 1275 1 1280 1 1275 1 1281 1 1281 1 1275 1 1282 1 1282 1 1275 1 1283 1 1283 1 1275 1 1284 1 1285 1 1284 1 1286 1 1285 1 1287 1 1284 1 1283 1 1284 1 1287 1 1288 1 1286 1 1271 1 1289 1 1286 1 1288 1 1285 1 1286 1 1289 1 1284 1 1275 1 1286 1 1286 1 1275 1 1271 1 1271 1 1275 1 1269 1 1271 1 1269 1 1270 1 1159 46 1290 46 1291 46 1291 47 1292 47 1293 47 1293 48 1294 48 1295 48 1295 49 1296 49 1297 49 1297 50 1298 50 1299 50 1299 51 1300 51 1301 51 1301 52 1302 52 1303 52 1303 53 1304 53 1305 53 1305 54 1306 54 1307 54 1307 55 1308 55 1309 55 1309 56 1310 56 1311 56 1311 57 1312 57 1313 57 1313 58 1314 58 1315 58 1315 59 1316 59 1317 59 1317 60 1318 60 1319 60 1319 61 1320 61 1321 61 1321 62 1322 62 1323 62 1324 63 1325 63 1124 63 1326 64 1327 64 1328 64 1326 64 1328 64 1329 64 1329 65 1328 65 1330 65 1329 65 1330 65 1331 65 1331 66 1330 66 1332 66 1331 66 1332 66 1333 66 1333 67 1332 67 1334 67 1333 67 1334 67 1335 67 1336 68 1337 68 1338 68 1336 68 1338 68 1339 68 1339 69 1338 69 1340 69 1339 69 1340 69 1341 69 1341 70 1340 70 1342 70 1341 70 1342 70 1343 70 1343 71 1342 71 1344 71 1343 71 1344 71 1345 71 1345 72 1344 72 1346 72 1345 72 1346 72 1347 72 1347 73 1346 73 1348 73 1347 73 1348 73 1349 73 1349 74 1348 74 1350 74 1349 74 1350 74 1351 74 1351 75 1350 75 1352 75 1351 75 1352 75 1353 75 1354 76 1355 76 1356 76 1354 76 1356 76 1357 76 1358 3 1359 3 1360 3 1361 3 1360 3 1362 3 1361 3 1362 3 1363 3 1359 3 1358 3 1364 3 1359 3 1365 3 1366 3 1362 3 1360 3 1359 3 1362 3 1359 3 1366 3 1367 3 1359 3 1368 3 1369 3 1370 3 1368 3 1368 3 1370 3 1367 3 1359 3 1367 3 1365 3 1370 3 1369 3 1371 3 1371 3 1369 3 1372 3 1373 3 1374 3 1375 3 1362 3 1366 3 1376 3 1374 3 1373 3 1377 3 1374 3 1377 3 1376 3 1376 3 1377 3 1362 3 1375 3 1374 3 1371 3 1375 3 1371 3 1372 3 1359 3 1378 3 1368 3 1379 3 1378 3 1380 3 1359 3 1381 3 1380 3 1359 3 1380 3 1378 3 1359 3 1364 3 1381 3 1382 1 1383 1 1384 1 1385 1 1386 1 1387 1 1388 1 1389 1 1390 1 1391 1 1392 1 1393 1 1387 1 1394 1 1395 1 1396 1 1397 1 1398 1 1396 1 1398 1 1399 1 1394 1 1387 1 1386 1 1398 1 1382 1 1399 1 1400 1 1401 1 1402 1 1402 1 1401 1 1403 1 1402 1 1404 1 1405 1 1391 1 1393 1 1406 1 1383 1 1392 1 1404 1 1384 1 1407 1 1408 1 1384 1 1408 1 1399 1 1384 1 1399 1 1382 1 1399 1 1408 1 1386 1 1386 1 1385 1 1399 1 1391 1 1406 1 1409 1 1405 1 1404 1 1409 1 1403 1 1404 1 1402 1 1404 1 1403 1 1407 1 1384 1 1383 1 1404 1 1384 1 1404 1 1407 1 1403 1 1401 1 1407 1 1410 1 1411 1 1412 1 1413 1 1410 1 1412 1 1414 1 1415 1 1416 1 1414 1 1416 1 1410 1 1412 1 1411 1 1417 1 1418 1 1416 1 1415 1 1414 1 1410 1 1413 1 1412 1 1419 1 1413 1 1420 1 1421 1 1422 1 1423 1 1424 1 1425 1 1426 1 1424 1 1423 1 1426 1 1417 1 1424 1 1427 1 1418 1 1428 1 1428 1 1418 1 1421 1 1429 1 1428 1 1420 1 1420 1 1428 1 1421 1 1430 1 1431 1 1432 1 1433 1 1422 1 1430 1 1433 1 1430 1 1432 1 1434 77 1435 77 1436 77 1434 77 1436 77 1437 77 1438 78 1439 78 1440 78 1438 78 1440 78 1441 78 1441 79 1440 79 1442 79 1441 79 1442 79 1443 79 1443 80 1442 80 1444 80 1443 80 1444 80 1445 80 1445 81 1444 81 1446 81 1445 81 1446 81 1447 81 1447 82 1446 82 1448 82 1447 82 1448 82 1449 82 1449 83 1448 83 1450 83 1449 83 1450 83 1451 83 1451 84 1450 84 1452 84 1451 84 1452 84 1453 84 1453 85 1452 85 1454 85 1453 85 1454 85 1455 85 1456 86 1457 86 1458 86 1456 86 1458 86 1459 86 1459 87 1458 87 1460 87 1459 87 1460 87 1461 87 1461 88 1460 88 1462 88 1461 88 1462 88 1463 88 1463 89 1462 89 1335 89 1463 89 1335 89 1334 89 1464 3 1465 3 1466 3 1467 3 1468 3 1469 3 1467 3 1469 3 1470 3 1471 3 1468 3 1467 3 1472 1 1473 1 1474 1 1474 1 1473 1 1475 1 1476 1 1477 1 1478 1 1478 1 1477 1 1479 1 1478 1 1479 1 1480 1 1474 1 1475 1 1481 1 1474 1 1481 1 1482 1 1482 1 1481 1 1476 1 1476 1 1481 1 1477 1 1483 1 1484 1 1485 1 1483 1 1485 1 1472 1 1472 1 1485 1 1473 1 1480 1 1479 1 1486 1 1480 1 1486 1 1487 1 1487 1 1486 1 1488 1 1487 1 1488 1 1489 1 1489 1 1488 1 1484 1 1489 1 1484 1 1483 1 1490 3 1491 3 1492 3 1493 3 1494 3 1490 3 1490 3 1494 3 1495 3 1494 3 1493 3 1496 3 1494 3 1496 3 1497 3 1496 3 1492 3 1498 3 1498 3 1492 3 1499 3 1498 3 1499 3 1497 3 1497 3 1496 3 1498 3 1500 3 1501 3 1502 3 1503 3 1499 3 1492 3 1503 3 1492 3 1502 3 1499 3 1503 3 1501 3 1499 3 1501 3 1500 3 1504 3 1505 3 1500 3 1490 3 1495 3 1506 3 1492 3 1491 3 1507 3 1507 3 1491 3 1506 3 1506 3 1491 3 1490 3 1492 3 1507 3 1504 3 1508 3 1504 3 1500 3 1492 3 1504 3 1508 3 1508 3 1500 3 1502 3 1493 3 1490 3 1496 3 1496 3 1490 3 1492 3 1502 3 1492 3 1508 3 1509 1 1510 1 1511 1 1509 1 1512 1 1513 1 1511 1 1514 1 1512 1 1513 1 1512 1 1514 1 1515 1 1516 1 1513 1 1514 1 1515 1 1513 1 1517 1 1518 1 1514 1 1519 1 1520 1 1517 1 1519 1 1517 1 1514 1 1514 1 1521 1 1519 1 1521 1 1510 1 1520 1 1515 1 1518 1 1516 1 1511 1 1521 1 1514 1 1515 1 1514 1 1518 1 1522 1 1523 1 1524 1 1525 0 1526 0 1527 0 1527 0 1526 0 1528 0 1529 2 1530 2 1531 2 1531 2 1530 2 1532 2 1533 5 1534 5 1535 5 1535 5 1534 5 1536 5 1537 5 1538 5 1534 5 1538 5 1537 5 1539 5 1534 5 1533 5 1537 5 1540 5 1541 5 1539 5 1540 5 1538 5 1541 5 1539 5 1541 5 1538 5 1542 5 1540 5 1539 5 1543 5 1540 5 1542 5 1544 5 1545 5 1546 5 1547 5 1548 5 1544 5 1544 5 1548 5 1545 5 1549 5 1550 5 1547 5 1548 5 1547 5 1550 5 1548 5 1550 5 1549 5 1547 5 1551 5 1549 5 1552 5 1553 5 1554 5 1552 5 1554 5 1544 5 1544 5 1554 5 1553 5 1555 5 1552 5 1544 5 1555 5 1542 5 1539 5 1556 5 1533 5 1557 5 1558 5 1556 5 1557 5 1547 5 1559 5 1551 5 1544 5 1553 5 1547 5 1560 5 1544 5 1546 5 1561 5 1562 5 1563 5 1561 5 1563 5 1549 5 1561 5 1551 5 1562 5 1533 5 1535 5 1564 5 1543 5 1565 5 1566 5 1543 5 1566 5 1540 5 1567 5 1568 5 1569 5 1568 5 1567 5 1560 5 1560 5 1567 5 1544 5 1570 5 1571 5 1568 5 1542 5 1572 5 1573 5 1573 5 1572 5 1570 5 1570 5 1572 5 1571 5 1542 5 1574 5 1565 5 1542 5 1565 5 1543 5 1565 5 1574 5 1573 5 1573 5 1574 5 1542 5 1569 5 1544 5 1567 5 1571 5 1569 5 1568 5 1544 5 1569 5 1555 5 1572 5 1555 5 1571 5 1571 5 1555 5 1569 5 1572 5 1542 5 1555 5 1553 5 1559 5 1547 5 1539 5 1537 5 1533 5 1549 5 1551 5 1561 5 1556 5 1575 5 1551 5 1556 5 1558 5 1575 5 1525 5 1564 5 1536 5 1576 5 1575 5 1577 5 1527 5 1562 5 1551 5 1527 5 1551 5 1576 5 1576 5 1551 5 1575 5 1577 5 1557 5 1578 5 1577 5 1575 5 1558 5 1577 5 1558 5 1557 5 1533 5 1579 5 1557 5 1557 5 1579 5 1578 5 1578 5 1579 5 1580 5 1580 5 1579 5 1533 5 1535 5 1536 5 1564 5 1580 5 1533 5 1564 5 1580 5 1564 5 1525 5 1581 4 1582 4 1583 4 1584 4 1585 4 1583 4 1585 4 1581 4 1583 4 1586 4 1587 4 1588 4 1588 4 1587 4 1589 4 1590 4 1591 4 1592 4 1582 4 1581 4 1592 4 1593 4 1522 4 1594 4 1591 4 1593 4 1595 4 1595 4 1593 4 1594 4 1584 4 1596 4 1597 4 1584 4 1597 4 1598 4 1599 4 1600 4 1601 4 1532 4 1602 4 1603 4 1589 4 1602 4 1532 4 1589 4 1604 4 1602 4 1602 4 1604 4 1603 4 1596 4 1583 4 1582 4 1591 4 1605 4 1582 4 1582 4 1605 4 1596 4 1605 4 1595 4 1596 4 1595 4 1605 4 1591 4 1601 4 1606 4 1589 4 1589 4 1606 4 1604 4 1607 4 1606 4 1601 4 1604 4 1606 4 1607 4 1608 4 1607 4 1609 4 1601 4 1609 4 1607 4 1601 4 1608 4 1609 4 1610 4 1528 4 1611 4 1612 4 1610 4 1611 4 1611 4 1613 4 1612 4 1614 4 1613 4 1611 4 1613 4 1614 4 1615 4 1616 4 1615 4 1614 4 1601 4 1615 4 1616 4 1616 4 1599 4 1601 4 1617 4 1599 4 1616 4 1598 4 1528 4 1584 4 1599 4 1617 4 1600 4 1610 4 1612 4 1584 4 1585 4 1584 4 1612 4 1612 4 1613 4 1615 4 1615 4 1601 4 1612 4 1601 4 1600 4 1608 4 1608 4 1600 4 1618 4 1618 4 1600 4 1617 4 1596 4 1584 4 1583 4 1528 4 1610 4 1584 4 1582 4 1592 4 1591 4 1587 4 1601 4 1589 4 1619 4 1620 4 1590 4 1586 4 1619 4 1590 4 1593 4 1591 4 1530 4 1530 4 1591 4 1590 4 1530 4 1590 4 1620 4 1620 4 1588 4 1530 4 1620 4 1619 4 1588 4 1588 4 1619 4 1586 4 1588 4 1621 4 1622 4 1589 4 1621 4 1588 4 1622 4 1621 4 1589 4 1623 4 1532 4 1622 4 1532 4 1623 4 1589 4 1589 4 1623 4 1622 4 1622 4 1530 4 1588 4 1593 4 1530 4 1522 4 1562 1 1624 1 1625 1 1566 3 1626 3 1603 3 1627 3 1628 3 1618 3 1618 3 1628 3 1536 3 1629 0 1630 0 1631 0 1632 0 1630 0 1629 0 1630 0 1633 0 1631 0 1633 0 1632 0 1634 0 1631 0 1633 0 1634 0 1633 0 1630 0 1632 0 1635 1 1629 1 1636 1 1637 1 1635 1 1636 1 1637 1 1632 1 1638 1 1638 1 1632 1 1629 1 1638 1 1629 1 1635 1 1638 1 1635 1 1637 1 1639 2 1640 2 1636 2 1636 2 1640 2 1637 2 1641 2 1640 2 1639 2 1637 2 1642 2 1641 2 1641 2 1642 2 1640 2 1642 2 1637 2 1640 2 1634 3 1643 3 1631 3 1643 3 1634 3 1641 3 1644 3 1643 3 1639 3 1639 3 1643 3 1641 3 1644 3 1631 3 1643 3 1631 3 1644 3 1639 3 1645 1 1646 1 1647 1 1645 1 1647 1 1648 1 1648 1 1647 1 1649 1 1648 1 1649 1 1650 1 1651 1 1652 1 1653 1 1651 1 1653 1 1654 1 1654 1 1653 1 1655 1 1654 1 1655 1 1645 1 1645 1 1655 1 1646 1 1656 1 1657 1 1658 1 1656 1 1658 1 1659 1 1659 1 1658 1 1660 1 1659 1 1660 1 1651 1 1651 1 1660 1 1652 1 1650 1 1649 1 1661 1 1650 1 1661 1 1662 1 1650 1 1662 1 1663 1 1663 1 1662 1 1656 1 1656 1 1662 1 1657 1 1664 3 1665 3 1666 3 1664 3 1666 3 1667 3 1667 3 1666 3 1668 3 1667 3 1668 3 1669 3 1670 3 1671 3 1672 3 1670 3 1672 3 1673 3 1673 3 1672 3 1674 3 1673 3 1674 3 1664 3 1664 3 1674 3 1665 3 1669 3 1668 3 1675 3 1669 3 1675 3 1676 3 1669 3 1676 3 1677 3 1677 3 1676 3 1678 3 1677 3 1678 3 1679 3 1679 3 1678 3 1680 3 1679 3 1680 3 1681 3 1679 3 1681 3 1682 3 1682 3 1681 3 1670 3 1670 3 1681 3 1671 3 1683 3 1684 3 1685 3 1686 3 1685 3 1684 3 1686 3 1687 3 1685 3 1684 3 1683 3 1688 3 1688 3 1683 3 1689 3 1689 3 1683 3 1690 3 1689 3 1691 3 1692 3 1692 3 1691 3 1693 3 1694 3 1695 3 1696 3 1694 3 1696 3 1687 3 1695 3 1694 3 1697 3 1689 3 1690 3 1691 3 1685 3 1687 3 1696 3 1693 3 1691 3 1697 3 1697 3 1691 3 1695 3 1698 1 1699 1 1700 1 1701 1 1702 1 1703 1 1704 1 1705 1 1699 1 1705 1 1704 1 1698 1 1698 1 1704 1 1699 1 1698 1 1706 1 1707 1 1703 1 1707 1 1706 1 1707 1 1703 1 1702 1 1702 1 1701 1 1708 1 1701 1 1709 1 1710 1 1700 1 1710 1 1709 1 1710 1 1700 1 1699 1 1711 1 1712 1 1713 1 1714 1 1715 1 1716 1 1717 1 1718 1 1719 1 1717 1 1720 1 1718 1 1718 1 1720 1 1721 1 1722 1 1723 1 1713 1 1723 1 1722 1 1717 1 1712 1 1724 1 1725 1 1726 1 1714 1 1719 1 1721 1 1719 1 1718 1 1715 1 1714 1 1726 1 1711 1 1713 1 1723 1 1723 1 1717 1 1719 1 1727 1 1725 1 1724 1 1727 1 1724 1 1716 1 1727 1 1716 1 1715 1 1711 1 1724 1 1712 1 1728 3 1729 3 1730 3 1730 3 1729 3 1731 3 1729 3 1732 3 1731 3 1733 3 1734 3 1735 3 1736 3 1737 3 1738 3 1738 3 1737 3 1735 3 1736 3 1739 3 1740 3 1740 3 1739 3 1741 3 1734 3 1733 3 1728 3 1741 3 1731 3 1732 3 1741 3 1732 3 1740 3 1740 3 1732 3 1736 3 1728 3 1733 3 1729 3 1738 3 1735 3 1734 3 1742 1 1743 1 1744 1 1745 1 1746 1 1747 1 1748 1 1749 1 1746 1 1750 1 1749 1 1748 1 1750 1 1748 1 1751 1 1752 1 1751 1 1748 1 1753 1 1754 1 1755 1 1756 1 1755 1 1754 1 1748 1 1757 1 1754 1 1746 1 1757 1 1748 1 1746 1 1758 1 1757 1 1758 1 1745 1 1759 1 1745 1 1758 1 1746 1 1745 1 1760 1 1759 1 1761 1 1762 1 1742 1 1763 1 1764 1 1761 1 1761 1 1764 1 1756 1 1743 1 1742 1 1765 1 1766 1 1742 1 1762 1 1767 1 1760 1 1768 1 1763 1 1769 1 1764 1 1770 1 1760 1 1745 1 1767 1 1766 1 1759 1 1759 1 1760 1 1767 1 1771 3 1772 3 1773 3 1774 3 1775 3 1776 3 1774 3 1777 3 1775 3 1777 3 1774 3 1778 3 1779 3 1780 3 1772 3 1781 3 1771 3 1773 3 1771 3 1781 3 1782 3 1783 3 1784 3 1785 3 1786 3 1787 3 1784 3 1788 3 1787 3 1786 3 1788 3 1786 3 1789 3 1786 3 1790 3 1789 3 1773 3 1774 3 1791 3 1776 3 1791 3 1774 3 1792 3 1793 3 1776 3 1786 3 1794 3 1795 3 1784 3 1794 3 1786 3 1796 3 1794 3 1784 3 1783 3 1797 3 1784 3 1798 3 1797 3 1783 3 1781 3 1773 3 1797 3 1776 3 1793 3 1799 3 1795 3 1799 3 1800 3 1801 3 1793 3 1792 3 1800 3 1802 3 1795 3 1778 3 1774 3 1780 3 1803 1 1804 1 1805 1 1805 1 1804 1 1806 1 1805 1 1806 1 1807 1 1807 1 1806 1 1808 1 1807 1 1808 1 1809 1 1810 1 1811 1 1812 1 1812 1 1811 1 1813 1 1812 1 1813 1 1814 1 1814 1 1813 1 1815 1 1814 1 1815 1 1803 1 1803 1 1815 1 1804 1 1809 1 1808 1 1816 1 1809 1 1816 1 1817 1 1817 1 1816 1 1818 1 1817 1 1818 1 1819 1 1819 1 1818 1 1820 1 1819 1 1820 1 1810 1 1810 1 1820 1 1811 1 1821 3 1822 3 1823 3 1824 3 1825 3 1826 3 1827 1 1828 1 1829 1 1830 1 1831 1 1832 1 1833 1 1834 1 1835 1 1834 1 1836 1 1837 1 1835 1 1834 1 1838 1 1838 1 1834 1 1837 1 1839 1 1840 1 1841 1 1841 1 1840 1 1842 1 1838 1 1843 1 1844 1 1844 1 1843 1 1845 1 1844 1 1835 1 1838 1 1846 1 1847 1 1845 1 1846 1 1848 1 1847 1 1847 1 1848 1 1849 1 1849 1 1848 1 1850 1 1850 1 1848 1 1846 1 1850 1 1851 1 1852 1 1851 1 1850 1 1853 1 1850 1 1839 1 1853 1 1853 1 1839 1 1841 1 1854 1 1855 1 1856 1 1854 1 1857 1 1855 1 1855 1 1857 1 1858 1 1858 1 1857 1 1859 1 1859 1 1857 1 1837 1 1837 1 1857 1 1854 1 1834 1 1833 1 1836 1 1836 1 1859 1 1837 1 1842 1 1840 1 1856 1 1856 1 1840 1 1854 1 1846 1 1845 1 1843 1 1849 1 1850 1 1852 1 1860 3 1861 3 1862 3 1862 3 1861 3 1863 3 1864 3 1863 3 1865 3 1864 3 1862 3 1863 3 1866 3 1867 3 1868 3 1869 3 1870 3 1871 3 1870 3 1869 3 1867 3 1870 3 1867 3 1866 3 1863 3 1872 3 1873 3 1873 3 1874 3 1863 3 1863 3 1874 3 1865 3 1874 3 1873 3 1875 3 1866 3 1868 3 1876 3 1876 3 1868 3 1877 3 1878 3 1879 3 1869 3 1880 3 1881 3 1878 3 1878 3 1871 3 1880 3 1880 3 1882 3 1881 3 1871 3 1883 3 1880 3 1861 3 1860 3 1882 3 1882 3 1860 3 1884 3 1882 3 1880 3 1883 3 1882 3 1883 3 1861 3 1878 3 1869 3 1871 3 1875 3 1873 3 1872 3 1875 3 1872 3 1876 3 1876 3 1872 3 1885 3 1876 3 1885 3 1866 3</p>
        </triangles>
      </mesh>
    </geometry>
  </library_geometries>
  <library_visual_scenes>
    <visual_scene id="DefaultScene">
      <node id="node_d3bdb88b_7812_4090_b32a_7bf4c5df74bf" type="NODE">
        <matrix>1 0 0 0 0 1 0 0 0 0 1 0 0 0 0 1</matrix>
        <node id="node_502ac92e_3828_46b6_b235_2e93d62ddeb5" type="NODE">
          <matrix>1 0 0 0 0 1 0 0 0 0 1 0 0 0 0 1</matrix>
          <node id="node_502ac92e_3828_46b6_b235_2e93d62ddeb5_mesh0" type="NODE">
            <matrix>1 0 0 0 0 1 0 0 0 0 1 0 0 0 0 1</matrix>
            <instance_geometry url="#geometry_fc6a49cd_29e4_4a60_b5fa_d6241ab98332">
              <bind_material>
                <technique_common>
                  <instance_material symbol="mat_0" target="#mat_0"/>
                </technique_common>
              </bind_material>
            </instance_geometry>
          </node>
        </node>
      </node>
    </visual_scene>
  </library_visual_scenes>
  <scene>
    <instance_visual_scene url="#DefaultScene"/>
  </scene>
</COLLADA>
