<?xml version="1.0" encoding="UTF-8"?>
<COLLADA xmlns="http://www.collada.org/2005/11/COLLADASchema" version="1.4.1">
<!--
# File generated by ImageToStl.com - Free Image and 3D model conversion tools
-->
  <asset>
    <contributor>
      <author>ImageToStl.com</author>
      <authoring_tool>ImageToStl.com</authoring_tool>
    </contributor>
    <created>2026-04-08T11:07:02</created>
    <modified>2026-04-08T11:07:02</modified>
    <up_axis>Z_UP</up_axis>
  </asset>
  <library_effects>
    <effect id="effect_0">
        <profile_COMMON>
          <technique sid="common">
            <phong>
              <diffuse>
                <color>0.85 0.85 0.85 1</color>
              </diffuse>
              <specular>
                <color>0.05 0.05 0.05 1</color>
              </specular>
              <shininess>
                <float>64</float>
              </shininess>
            </phong>
          </technique>
        </profile_COMMON>
    </effect>
  </library_effects>
  <library_materials>
    <material id="mat_0">
      <instance_effect url="#effect_0"/>
    </material>
  </library_materials>
  <library_geometries>
    <geometry id="geometry_23d5ac6a_a867_473e_a8ae_96f27961924e">
      <mesh>
        <source id="pos_0">
          <float_array id="pos_0-array" count="5424">-0.0185934 -0.00721662 -0.0369 -0.01894127 -0.01617818 -0.0369 -0.0246925 -0.0017274 -0.0369 -0.00820793 -0.01852511 -0.0369 -0.00248942 -0.02487575 -0.0369 0.0077898 -0.02050386 -0.0369 0.0159923 0.01921578 -0.0369 0.02046165 0.00826841 -0.0369 0.01830279 -0.0079532 -0.0369 0.02474768 -0.00354293 -0.0369 -0.01344505 0.02054296 -0.0369 0.00142298 0.02471191 -0.0369 -0.00701445 0.01874388 -0.0369 -0.0197509 0.00888546 -0.0369 0.00494046 0.01816362 -0.0369 0.01038361 0.01377952 -0.0369 0.0198772 -0.01516235 -0.0369 0.01869516 0.00739179 -0.023 0.01656101 0.02021983 -0.023 0.00811159 0.01756586 -0.023 -0.02630097 -0.00204335 -0.023 -0.01850363 -0.00758057 -0.023 -0.02044955 0.01748841 -0.023 0.02687917 -0.00124044 -0.023 0.01685785 -0.00901204 -0.023 0.00719343 -0.01985192 -0.023 0.01959541 -0.01820485 -0.023 0.00420829 -0.0260424 -0.023 -0.01191499 -0.02412413 -0.023 -0.02118882 -0.0163227 -0.023 -0.00552507 0.0173195 -0.023 0.00012213 0.02674662 -0.023 -0.01262258 0.02358108 -0.023 -0.00902882 -0.01657973 -0.023 -0.01793315 0.00755952 -0.023 0.03240018 0.07524201 0.006 0.02286875 0.07251017 0.006 0.025242 0.08240018 0.006 -0.025242 0.08240018 0.006 -0.01376296 0.07544526 0.006 -0.03240018 0.07524201 0.006 -0.02332341 0.07296483 0.006 -0.02744526 0.06176296 0.006 -0.01392267 -0.01964446 0.006 -0.02317929 -0.02317929 0.006 -0.0235863 -0.00265754 0.006 -0.033 -0.023 0.006 -0.023 -0.033 0.006 -0.033 0.02816727 0.006 -0.02388358 0.02297425 0.006 -0.01562223 0.01751328 0.006 0.01253639 0.03 0.006 0.01295283 0.0206143 0.006 0.02408046 -0.02269417 0.006 0.02419287 -0.00272588 0.006 0.033 -0.023 0.006 0.02331054 0.02268946 0.006 0.00920229 -0.02225002 0.006 0.02739938 0.0340278 0.006 -0.02890823 0.03465059 0.006 0.02744526 0.06176296 0.006 0 0.04308598 0.006 0.0139722 0.07539938 0.006 0.0040483 0.04734726 0.006 0 0.05449586 0.006 -0.00396509 0.04883203 0.006 -0.01301468 0.0301218 0.006 0.02671147 -0.03192273 0.006 -0.02803709 0.08124729 0.009 -0.02342421 0.07311366 0.009 -0.01768722 0.083 0.009 -0.033 0.073 0.009 0.0235027 0.07314412 0.009 0.02803709 0.08124729 0.009 0.01768722 0.083 0.009 0.033 0.073 0.009 0.033 -0.023 0.009 0.01342871 -0.01152877 0.009 0.02381796 -0.02314883 0.009 0.023 -0.033 0.009 -0.02314883 -0.02381796 0.009 -0.01326995 -0.01237714 0.009 -0.033 -0.023 0.009 -0.023 -0.033 0.009 0.01753223 0.00446737 0.009 0.01472112 0.01455866 0.009 -0.00113948 0.02003308 0.009 -0.033 0.01629981 0.009 -0.01318482 0.01269748 0.009 0.00269916 -0.01627016 0.009 0.02265643 -0.00044384 0.009 0.033 0.00742462 0.009 0.00018759 -0.02258777 0.009 -0.02256263 -0.00035004 0.009 0.00387004 0.04812031 0.009 -0.0139722 0.07539938 0.009 -0.00221622 0.04606955 0.009 -0.029 0.06093093 0.009 -0.033 0.02755 0.009 -0.02589053 0.03340501 0.009 -0.01364495 0.03162768 0.009 0.02589053 0.03340501 0.009 0.01331536 0.03148285 0.009 0.033 0.02755 0.009 0.02795308 0.06177755 0.009 0.00166406 0.05449586 0.009 0 0.083 0.009 0.01293093 0.077 0.009 -0.02488899 0.0232625 0.009 0.033 0.01892481 0.009 0.02397966 0.0232625 0.009 -0.01238965 -0.01932403 0 -0.00073442 -0.01991554 0 0.00272588 -0.02419287 0 0.00926123 -0.01494316 0 -0.01193779 0.01347165 0 -0.00272588 0.02419287 0 0.00073442 0.01991554 0 0.01807276 0.01654163 0 -0.02032984 0.00063122 0 -0.02207374 0.01063015 0 -0.01347561 -0.01087558 0 -0.01915487 -0.0152755 0 0.01915487 -0.0152755 0 0.01441797 0.01467422 0 0.0220542 0.00099573 0 0.00760548 -0.02248688 -0.007 0.01922401 -0.02775747 -0.007 0.017114 -0.03848832 -0.007 -0.00744332 0.01720679 -0.007 -0.0012932 0.02822592 -0.007 0.00644526 0.0157734 -0.007 -0.0240877 -0.00361457 -0.007 -0.01362921 -0.01475389 -0.007 -0.03062338 -0.01482807 -0.007 -0.04168475 -0.00656805 -0.007 -0.03220731 -0.02714643 -0.007 -0.0063434 -0.04197646 -0.007 0.00299729 -0.03420131 -0.007 0.01572716 0.03906313 -0.007 0.00874068 0.0328903 -0.007 -0.00235882 0.04229646 -0.007 -0.02067423 0.03632151 -0.007 -0.01243122 0.03153066 -0.007 -0.03871603 0.0157939 -0.007 -0.02781072 0.01974795 -0.007 -0.03371195 0.0063737 -0.007 -0.03380166 0.00164193 -0.007 0.0132942 0.0082109 -0.007 0.02287202 0.01590197 -0.007 0.01303226 -0.01043649 -0.007 -0.01593996 0.0223316 -0.007 0.02383029 -0.0121188 -0.007 0.02170326 0.00223919 -0.007 -0.00098123 -0.01834338 -0.007 -0.00631908 -0.02666769 -0.007 0.04170375 0.00743989 -0.007 0.0335371 0.00568932 -0.007 0.03346935 0.0259684 -0.007 0.02779676 -0.00286332 -0.007 0.03687824 -0.02039877 -0.007 0.02925368 -0.01425212 -0.007 0.02513491 0.02288713 -0.007 0.00890352 0.02501076 -0.007 -0.01774537 -0.02903041 -0.007 0.00634393 -0.02383378 -0.005 0.017114 -0.03848832 -0.005 0.01900507 -0.02777583 -0.005 0.02601913 -0.01665888 -0.005 0.03687824 -0.02039877 -0.005 0.03196987 -0.01109845 -0.005 -0.0337568 0.00400781 -0.005 -0.03871603 0.0157939 -0.005 -0.04129761 -0.00736744 -0.005 -0.02586557 0.00753161 -0.005 -0.02111514 -0.00208795 -0.005 -0.01694912 0.01958182 -0.005 -0.01186015 0.01090853 -0.005 -0.0012932 0.02822592 -0.005 -0.01243122 0.03153066 -0.005 -0.02067423 0.03632151 -0.005 -0.00065839 0.04211658 -0.005 0.00874068 0.0328903 -0.005 0.01860796 0.03772824 -0.005 0.00078785 -0.03424498 -0.005 -0.00034569 -0.02379707 -0.005 -0.00105228 -0.04234912 -0.005 -0.03178021 -0.0124255 -0.005 -0.03220731 -0.02714643 -0.005 -0.01860454 -0.02378838 -0.005 -0.02775458 -0.00529701 -0.005 0.01162514 0.01649399 -0.005 0.01727526 0.00475063 -0.005 -0.00374524 0.02119328 -0.005 0.01107027 0.02420749 -0.005 -0.01030405 -0.01455897 -0.005 0.01385779 -0.01149986 -0.005 0.02383241 0.0122157 -0.005 0.02762864 -0.00281553 -0.005 0.0415254 0.00145201 -0.005 0.03353051 0.00563333 -0.005 0.03346935 0.0259684 -0.005 0.02356403 0.02460685 -0.005 -0.02750867 0.01947235 -0.005 0.035 0.06360428 0.04661822 0.035 0.04324958 0.05715459 0.035 0.0572097 0.03867398 0.035 0.06339572 0.03138178 0.035 0.0697903 0.03867398 0.035 0.0828088 0.05727227 0.035 0.07612455 0.06234796 0.035 0.07918318 0.074 0.035 0.05163363 0.064 0.035 0.04781682 0.074 0.035 0.0635 0.074 0.035 0.04289203 0.0230043 0.035 0.03324641 0.0449732 0.035 0.04225 0.06629904 0.035 0.02316259 0.05453758 0.035 0.01451472 0.064 0.035 -0.00070711 0.04581225 0.035 0.00694365 0.03874212 0.035 -0.00035355 0.03205834 0.035 0.01875736 0.074 0.035 -0.00694166 0.03935355 0.035 -0.02414645 0.05580658 0.035 -0.01451472 0.064 0.035 -0.0137583 0.074 0.035 0.02329289 0.02377818 0.035 0.01916259 0.01427567 0.035 0.03265359 0.02529282 0.035 0.08518301 0.06654903 0.035 0.09033559 0.05274758 0.035 0.098 0.038975 0.035 0.098 0.074 0.035 0.08405182 0.02064204 0.035 0.09019375 0.03327692 0.035 0.098 0.0202 0.035 -0.0232929 0.02377818 0.035 -0.01535296 0.0153917 0.035 -0.02986602 0.01846603 0.035 -0.03199999 0.038975 0.035 -0.02986602 0.06225352 0.035 -0.01875736 0.004 0.035 0 0.004 0.035 0.02190368 0.004 0.035 0.08475 0.01170096 0.035 0.07771946 0.004 0.035 0.098 0.004 0.035 0.05087545 0.01565204 0.035 0.07536636 0.014 0.035 0.0664591 0.004 0.035 0.0504291 0.004 0.035 0.04225 0.01170096 0.035 0.03507273 0.004 0.035 0.03190754 0.074 0.035 0.02431699 0.01704904 0.035 0.02736603 0.01163397 0.035 0.02736603 0.06636602 0.035 0.02195096 0.06468301 0.035 -0.02176795 0.01486603 0.035 -0.02593301 0.01101795 0.035 -0.03199999 0.004 0.035 -0.03199999 0.074 0.035 -0.02263398 0.06636602 -0.035 0.06360428 0.04661822 -0.035 0.0834958 0.05719364 -0.035 0.06968334 0.03965204 -0.035 0.04344566 0.02271825 -0.035 0.05731665 0.03965204 -0.035 0.04234151 0.05671174 -0.035 0.05087545 0.06234796 -0.035 0.07309453 0.074 -0.035 0.07536636 0.064 -0.035 0.0472162 0.074 -0.035 0.06377482 0.03125338 -0.035 0.05087545 0.01565204 -0.035 0.01751849 0.074 -0.035 0.01522182 0.0622929 -0.035 0 0.074 -0.035 -0.01451472 0.064 -0.035 -0.0175185 0.074 -0.035 0.00035355 0.04594166 -0.035 0.02295139 0.05793995 -0.035 0.00694365 0.03925788 -0.035 -0.00694166 0.03864645 -0.035 -0.0232929 0.05809844 -0.035 0.02329289 0.02377818 -0.035 0.0161912 0.0167834 -0.035 0.09019375 0.04472309 -0.035 0.0828088 0.02072773 -0.035 0.098 0.03745736 -0.035 0.098 0.074 -0.035 0.09033559 0.02525242 -0.035 0.098 0.004 -0.035 0.08518301 0.01145096 -0.035 -0.03199999 0.05775736 -0.035 -0.03199999 0.03745736 -0.035 -0.02414645 0.02219342 -0.035 -0.02986602 0.01573398 -0.035 -0.01535296 0.0153917 -0.035 -0.01875736 0.004 -0.035 0 0.004 -0.035 0.01451472 0.014 -0.035 0.01875736 0.004 -0.035 0.07918318 0.004 -0.035 0.07536636 0.014 -0.035 0.04781682 0.004 -0.035 0.0635 0.004 -0.035 0.08475 0.06629904 -0.035 0.04225 0.06629904 -0.035 0.0317568 0.074 -0.035 0.02915 0.004 -0.035 0.03963397 0.01163397 -0.035 0.04479904 0.01425 -0.035 0.03324641 0.02497321 -0.035 0.0329683 0.0444683 -0.035 0.02475 0.06629904 -0.035 0.02195096 0.01331699 -0.035 0.02736603 0.01163397 -0.035 -0.03199999 0.074 -0.035 -0.02481699 0.06654903 -0.035 -0.03199999 0.004 -0.035 -0.02263398 0.01163397 0.033 0.08092091 0.06493521 0.033 0.08310364 0.05344797 0.033 0.0697903 0.03867398 0.033 0.0572097 0.03867398 0.033 0.04313187 0.05727702 0.033 0.06339572 0.04661822 0.033 0.05163363 0.064 0.033 0.07374249 0.072 0.033 0.0472162 0.072 0.033 0.08823206 0.06313398 0.033 0.08527494 0.0205039 0.033 0.07786635 0.01502011 0.033 0.06360428 0.03138178 0.033 0.03382942 0.02379019 0.033 0.0431078 0.02284819 0.033 0.00035355 0.03205834 0.033 -0.01522182 0.01570711 0.033 -0.02398796 0.01991361 0.033 -0.00694166 0.03864645 0.033 0.02373979 0.02025573 0.033 0.01451472 0.014 0.033 0.00694365 0.03925788 0.033 -0.00035355 0.04594166 0.033 0.01875736 0.006 0.033 -0.01875736 0.006 0.033 0 0.006 0.033 0.02263397 0.06636602 0.033 0.02568301 0.05707435 0.033 0.02481699 0.01145096 0.033 -0.025 0.05351472 0.033 -0.03199999 0.057775 0.033 -0.01522182 0.0622929 0.033 -0.03199999 0.038975 0.033 -0.03199999 0.0202 0.033 0.09545 0.0735 0.033 0.098 0.048375 0.033 0.042 0.06673205 0.033 0.03294853 0.072 0.033 0.02117432 0.072 0.033 0.01451472 0.064 0.033 0 0.072 0.033 -0.0175185 0.072 0.033 -0.025 0.06126795 0.033 -0.02986602 0.06936602 0.033 -0.02263398 0.06636602 0.033 0.09016779 0.05337379 0.033 0.09012283 0.03301225 0.033 0.098 0.0202 0.033 0.04781682 0.006 0.033 0.05163363 0.014 0.033 0.08295409 0.006 0.033 -0.02568301 0.01095096 0.033 -0.03199999 0.006 0.033 0.02915 0.006 0.033 0.03210718 0.02514641 0.033 0.03324641 0.0449732 0.033 0.042 0.01126795 0.033 0.098 0.006 -0.033 0.0431078 0.05515181 -0.033 0.06339572 0.04661822 -0.033 0.05163363 0.064 -0.033 0.04781682 0.072 -0.033 0.05731665 0.03965204 -0.033 0.0697903 0.03867398 -0.033 0.07615735 0.06361183 -0.033 0.0635 0.072 -0.033 0.07918318 0.072 -0.033 0.06322519 0.03125338 -0.033 0.07907534 0.01515204 -0.033 0.08310364 0.02455203 -0.033 0.04313187 0.02072298 -0.033 0.05084264 0.01438817 -0.033 -0 0.03192893 -0.033 0.01664809 0.01519506 -0.033 0.00694365 0.03925788 -0.033 -0.00694166 0.03864645 -0.033 -0.0239228 0.01975573 -0.033 -0.01451472 0.014 -0.033 -0.01875736 0.006 -0.033 0.02190368 0.006 -0.033 0 0.006 -0.033 0.02316259 0.02346242 -0.033 0.02329289 0.05422182 -0.033 0.03325 0.05775736 -0.033 0.01522182 0.0622929 -0.033 0.0329 0.02511962 -0.033 0.00035355 0.04594166 -0.033 -0.03199999 0.0202 -0.033 -0.03199999 0.03745736 -0.033 -0.0240672 0.05597733 -0.033 -0.03199999 0.05775736 -0.033 -0.02568301 0.06704903 -0.033 -0.03199999 0.072 -0.033 -0.01875736 0.072 -0.033 -0.01451472 0.064 -0.033 0.02179375 0.072 -0.033 0.02736603 0.06636602 -0.033 0.02431699 0.06095096 -0.033 0.03325 0.072 -0.033 0.042 0.06673205 -0.033 0.08612505 0.05728691 -0.033 0.08226795 0.064 -0.033 0.09545 0.073 -0.033 0.08773205 0.06673205 -0.033 0.098 0.05775736 -0.033 0.09012283 0.04498775 -0.033 0.098 0.02882868 -0.033 0.09016779 0.02462621 -0.033 0.08798205 0.01493301 -0.033 0.098 0.006 -0.033 0.08277848 0.00820096 -0.033 0.04627443 0.00863397 -0.033 0.05975024 0.006 -0.033 -0.02568301 0.01095096 -0.033 -0.03199999 0.006 -0.033 0.025 0.01126795 -0.033 0.03866761 0.006 -0.033 0.02636603 0.01736603 -0.033 0.03324641 0.0449732 0.01367768 0.02128504 0.074 -0.00730115 0.03950718 0.074 -0.01367768 0.02128504 0.074 -0.00760597 0.048 0.074 0.02117027 0.06254977 0.074 0.0140073 0.07194017 0.074 0.00352499 0.04789354 0.074 0.0245603 0.06111177 0.074 0.034 0.09545 0.074 0.02462649 0.02319216 0.074 0.02318039 0.03404342 0.074 0.00967932 0.04088732 0.074 0.035 0.02533245 0.074 0.02311456 0.01331526 0.074 0.035 -0.00875925 0.074 0.00662187 -0 0.074 0 0.00662187 0.074 0.0245603 -0.01213699 0.074 0.01274875 -0.02431887 0.074 -0.0039539 -0.00067088 0.074 -0.02286573 -0.01340521 0.074 -0.02313125 -0.02348983 0.074 -0.02257976 0.01356683 0.074 -0.035 0.00875925 0.074 0.01631513 0.0929 0.074 -0.02316642 0.07335858 0.074 -0.01311177 0.0725603 0.074 0.00281092 0.09140156 0.074 -0.02362579 0.02341133 0.074 -0.035 0.08503948 0.074 -0.01427692 0.08966441 0.074 -0.02105405 -0.03199999 0.074 -0.033 0.0929 0.074 0 -0.00662187 0.074 -0.01351909 -0.02268125 0.074 0.01631513 -0.03199999 0.074 -0.00046279 -0.03199999 0.074 -0.02117027 0.03345023 0.074 -0.035 0.02878802 0.074 -0.00799388 0.06238812 0.074 -0.02117027 0.06254977 0.074 0.02371716 0.07371716 0.074 0.02342421 -0.02311367 0.074 -0.02128504 -0.01367768 0.072 -0.033 0.01710442 0.072 -0.02168596 0.01387891 0.072 -0.01367768 0.02128504 0.072 0 0.00662187 0.072 0.0245603 0.03488823 0.072 0.033 0.0227473 0.072 0.02117027 0.03345023 0.072 0 0.05560597 0.072 0.00736053 0.04881663 0.072 0.00640833 0.03985359 0.072 0.02273673 0.06214477 0.072 0.01311177 0.0725603 0.072 0.033 0.06700589 0.072 0.033 0.0492907 0.072 -0.00747332 0.04826187 0.072 -0.02117027 0.06254977 0.072 -0.00700115 0.03988039 0.072 -0.02117027 0.03345023 0.072 -0.033 0.0361292 0.072 0.02280196 -0.01321321 0.072 -0.00411131 -0.00059105 0.072 0.00662187 -0 0.072 0.0245603 0.01213699 0.072 0.01367768 0.02128504 0.072 -0.00760918 -0.01395346 0.072 0.01213699 -0.02456029 0.072 0.01631513 -0.03199999 0.072 -0.00046279 -0.03199999 0.072 -0.01880423 -0.03199999 0.072 -0.01257415 -0.02445968 0.072 0.02342421 0.07311366 0.072 -0.01311177 0.0725603 0.072 -0.01374758 0.08966441 0.072 -0.02316642 -0.02335858 0.072 -0.02371716 0.07313125 0.072 -0.033 0.07134159 0.072 -0.02382267 0.02215159 0.072 0.02325779 0.02275508 0.072 0.02332341 -0.02322733 0.072 0.033 -0.03199999 0.072 -0.00022733 0.04786875 0.072 0.033 0.0929 0.072 0.00555529 0.08990312 0.072 -0.033 0.0929 0.072 0.00031054 0.04768946 0.004 0.00884419 0.04964428 0.004 0.01641449 0.0411137 0.004 0.02776964 0.06084035 0.004 0.02358591 0.07251017 0.004 0.035 0.05975024 0.004 0.02933893 0.03598179 0.004 0.035 0.02729545 0.004 0.00105417 0.05647058 0.004 -0.00884419 0.048 0.004 -0.02776964 0.06084035 0.004 0.01491768 0.07876965 0.004 0.02339375 -0.02303517 0.004 0.01752389 -0.03199999 0.004 0.02392087 0.00290452 0.004 0.01597898 -0.01803654 0.004 -0.02313125 -0.02313125 0.004 0.00011612 -0.03199999 0.004 -0.01597898 -0.01803654 0.004 0 -0.02481773 0.004 -0.02463677 -0.00299144 0.004 -0.02405 0.02118135 0.004 -0.0173131 0.01733633 0.004 -0.00886512 0.02337541 0.004 0.01645719 0.01857633 0.004 0.02369958 0.02208596 0.004 0.01473533 0.08973533 0.004 -0.00437558 0.098 0.004 -0.00625242 0.09033559 0.004 -0.01670773 0.0799133 0.004 -0.02776964 0.03515965 0.004 -0.035 0.07322705 0.004 -0.00819397 0.04065359 0.004 -0.02358591 0.07251017 0.004 -0.00301342 0.02481772 0.004 0.00664494 0.0404902 0.004 0.033 0.0635 0.006 0.01573982 0.07720036 0.006 0.00884419 0.048 0.006 0.033 0.02535993 0.006 0.02776964 0.03515965 0.006 -0.00565048 0.04608509 0.006 2.837E-05 0.05248021 0.006 -0.02620036 0.06166249 0.006 -0.033 0.0664591 0.006 -0.02776964 0.03515965 0.006 -0.033 0.02390371 0.006 -0.00824756 0.04045359 0.006 -0.01597898 0.01803654 0.006 -0.033 -0.00937868 0.006 -0.02316171 -0.02314883 0.006 -0.02463677 -0.00299144 0.006 0.00551728 -0.03199999 0.006 -0.00727339 -0.02339636 0.006 -0.02042459 -0.01409808 0.006 0.0173131 -0.01733634 0.006 0.00593927 -0.02409657 0.006 0.02420699 -0.02313125 0.006 0.033 -0.00937868 0.006 0.02392087 0.00290452 0.006 0.02450466 0.02235317 0.006 0.01645719 0.01857633 0.006 -0.02420699 0.02188909 0.006 0.00571918 0.098 0.006 0.01502248 0.08981923 0.006 -0.033 0.08264585 0.006 0.01409555 0.08033893 0.006 -0.00583896 0.08976129 0.006 -0.01143667 0.098 0.006 -0.01529087 0.07896515 0.006 -0.02311367 0.07257579 0.006 0.00702795 0.03998039 0.006 0.02488899 0.0727375 0.006 -0.00377311 -0.02365753 -0.023 0.00447771 -0.03184954 -0.023 -0.00054606 -0.04211818 -0.023 -0.01585721 -0.00752965 -0.023 -0.01945275 -0.03750771 -0.023 -0.02309831 -0.00903852 -0.023 0.02497113 -0.03394934 -0.023 0.02061498 -0.02517783 -0.023 0.04099423 -0.01067838 -0.023 -0.0233148 0.0070056 -0.023 -0.03401793 -0.00066582 -0.023 -0.04061245 0.01146242 -0.023 -0.0406072 -0.01119352 -0.023 -0.01364048 -0.03141291 -0.023 0.04126108 0.00959573 -0.023 0.03284375 -0.00885404 -0.023 0.03430939 0.02508217 -0.023 0.01973742 0.02748968 -0.023 0.02166209 0.03640479 -0.023 0.0106268 0.02618103 -0.023 -0.00507077 0.02613104 -0.023 0.00189081 0.03383996 -0.023 0.00769352 0.04147774 -0.023 -0.01021458 0.04098425 -0.023 -0.01700634 0.0295669 -0.023 -0.02856591 0.03053468 -0.023 -0.0279589 0.01988515 -0.023 -0.0300188 0.01562433 -0.023 0.00796768 0.0203604 -0.023 0.02035294 0.01757072 -0.023 -0.00582368 0.01688719 -0.023 0.01486775 0.00767008 -0.023 0.0204376 -0.00556718 -0.023 0.00841745 -0.01594299 -0.023 0.02439485 -0.00373722 -0.023 -0.01200377 -0.02002039 -0.023 0.01658036 -0.02097236 -0.023 0.02381597 -0.01386688 -0.023 0.03276181 0.01044878 -0.023 0.02587176 0.00595504 -0.023 -0.02825774 -0.01895161 -0.023 0.01667044 -0.02601173 -0.021 0.02497113 -0.03394934 -0.021 0.02440094 -0.02344871 -0.021 -0.01062581 -0.04075944 -0.021 0.00427115 -0.03177468 -0.021 -0.00618214 -0.02161743 -0.021 0.03281435 -0.00890215 -0.021 0.03832863 -0.01604318 -0.021 0.03957482 0.01442474 -0.021 -0.02898885 0.01775474 -0.021 -0.02856591 0.03053468 -0.021 -0.040595 0.01057439 -0.021 -0.02034715 0.01765634 -0.021 -0.02302747 0.00412952 -0.021 0.00698616 0.0208415 -0.021 0.0106268 0.02618103 -0.021 0.00189081 0.03383996 -0.021 0.0092842 0.0408504 -0.021 0.01973742 0.02748968 -0.021 0.02692897 0.03273607 -0.021 0.02002697 0.01745008 -0.021 -0.01360249 -0.03143743 -0.021 -0.01227159 -0.02372285 -0.021 -0.02501701 -0.03409826 -0.021 -0.02615546 -0.01474021 -0.021 -0.03361547 -0.00290268 -0.021 -0.04139531 -0.00962695 -0.021 -0.03074557 0.00439652 -0.021 0.03430939 0.02508217 -0.021 0.01535871 0.00941405 -0.021 0.0233389 -0.00099851 -0.021 -0.00621275 0.01486812 -0.021 0.00533793 -0.0168194 -0.021 -0.01544741 -0.0089171 -0.021 0.01360886 -0.01944575 -0.021 0.02378782 -0.01399572 -0.021 0.0045671 -0.04225389 -0.021 0.03133486 0.01237292 -0.021 -0.01021458 0.04098425 -0.021 -0.00715534 0.0249007 -0.021 -0.01684719 0.02919026 -0.021 -0.033 0.03 0.019 -0.033 0.03250266 0.02528959 -0.033 0.036 0.019 -0.033 0.033 0.059 -0.033 0.03294284 0.04399851 -0.027 0.03 0.059 -0.02987566 0.03 0.03394198 -0.03 0.03 0.019 -0.03174867 0.03 0.05585521 -0.027 0.033 0.019 -0.027 0.03275133 0.02520618 -0.027 0.036 0.059 -0.027 0.03318613 0.04377605 -0.033 0.036 0.059 -0.03049734 0.036 0.05271041 -0.02968415 0.036 0.03395979 -0.027 0.036 0.019 -0.033 0.087 0.059 -0.03049734 0.087 0.05271041 -0.027 0.087 0.059 -0.03 0.087 0.019 -0.03005716 0.087 0.03400149 -0.033 0.093 0.019 -0.033 0.0901679 0.04404728 -0.033 0.09 0.059 -0.033 0.08862434 0.02210309 -0.03 0.093 0.059 -0.02975133 0.093 0.05279382 -0.027 0.093 0.019 -0.03018613 0.093 0.03422395 -0.027 0.09 0.019 -0.027 0.09 0.02528959 -0.027 0.0901679 0.04404728 -0.027 0.093 0.059 -0.02 0.093 0.012 -0.01371041 0.093 0.00949734 -0.02 0.093 0.006 0.02 0.093 0.009 0.00499851 0.093 0.00905716 0.02 0.087 0.012 -0.00504728 0.0898321 0.012 -0.02 0.09 0.012 0.01685521 0.09174867 0.012 -0.02 0.087 0.009 -0.01379382 0.087 0.00924867 0.02 0.087 0.006 0.00477605 0.087 0.00881387 0.02 0.09 0.006 0.01371041 0.09 0.006 -0.00504728 0.0898321 0.006 -0.02 0.087 0.006 -0.0225 0.086 0.05222813 -0.0225 0.085 0.063 -0.0225 0.093 0.05370893 -0.0225 0.093 0.063 -0.0205 0.085 0.065 0.0205 0.085 0.065 -0.0205 0.093 0.065 0.0205 0.093 0.065 -0.02140775 0.093 0.06427245 -0.0182732 0.093 0.06157517 0.02140775 0.093 0.06427245 0.0208916 0.093 0.05656415 -0.01838038 0.085 0.06088235 -0.02140775 0.085 0.06427245 0.0225 0.085 0.05074734 0.01376654 0.085 0.06043945 -0.0225 0.085 0.05074734 -0.02140775 0.093 0.01372755 -0.01926937 0.093 0.02071632 -0.00858244 0.093 0.01595258 0.01952604 0.093 0.01515345 -0.0205 0.093 0.013 0.0205 0.093 0.013 -0.0205 0.085 0.013 0.0205 0.085 0.013 -0.02140775 0.085 0.01372755 -0.01813397 0.085 0.01729085 -0.0225 0.085 0.02725266 0.02140775 0.085 0.01372755 0.0225 0.085 0.02725266 0.0225 0.086 0.02577187 0.0225 0.085 0.015 0.0225 0.093 0.02429107 0.0225 0.093 0.015 0.01312101 0.101 0.10730411 0.01240805 0.101 0.11657432 0.01528491 0.101 0.09707477 -0.00369967 0.101 0.09260187 0.00187245 0.101 0.11978259 -0.00830905 0.101 0.11521418 -0.01432488 0.101 0.11477856 -0.01398193 0.101 0.10212565 -0.00770971 0.101 0.09021617 0.00790922 0.101 0.09218253 0.01311392 0.094 0.10695096 0.00786361 0.094 0.09198677 0.0155042 0.094 0.09810476 0.01186486 0.094 0.11747649 -0.00465427 0.094 0.09364058 -0.01541652 0.094 0.10374127 -0.0033598 0.094 0.08811364 -0.00105771 0.094 0.12146391 -0.01128571 0.094 0.11508004 0.00465825 0.094 0.11695945 0.01699067 0.036 0.039 0.0081491 0.036 0.02362918 0.033 0.036 0.012 0.012 0.036 0.068 -0.01055801 0.036 0.06428349 0.033 0.036 0.065 -0.03075 0.036 0.00920096 -0.01082925 0.036 0.01157925 -0.017405 0.036 0.01972468 0.01763263 0.036 0.05345234 0.01321524 0.036 0.05347615 0.01732412 0.036 0.05841541 0.01042075 0.036 0.01367075 -0.01278798 0.036 0.02315016 -0.01378471 0.036 0.02790301 -0.02922679 0.036 0.03444641 -0.03 0.036 0.068 -0.01282289 0.036 0.04987385 0.0299 0.036 0.05288038 -0.0299 0.036 0.05288038 0.02955359 0.036 0.03491962 0.00887013 0.039 0.02424163 0.01599284 0.039 0.03261894 0.02997321 0.039 0.03424641 -0.01121651 0.039 0.066125 -0.01233515 0.039 0.05068447 -0.03 0.039 0.009 -0.01791281 0.039 0.02438589 0.01068301 0.039 0.06431699 0.01762597 0.039 0.05789258 0.01205552 0.039 0.05367992 -0.00094743 0.039 0.05647434 0.0164102 0.039 0.05211151 -0.01179842 0.039 0.02510433 0.03201226 0.039 0.01073774 -0.01673458 0.039 0.02033589 0.01043301 0.039 0.01375 -0.01042075 0.039 0.01367075 0.0313951 0.039 0.05461029 0.03075 0.039 0.06779903 -0.030625 0.039 0.0346317 -0.0315 0.039 0.06759807 -0.0299 0.039 0.05288038 0.0030615 0.0545 0.07666491 0.0030615 0.088 0.07666491 0.00768355 0.088 0.07755527 0.00768355 0.0545 0.07755527 0.01209601 0.088 0.07919426 0.01209601 0.0545 0.07919426 0.01617852 0.088 0.08153715 0.01617852 0.0545 0.08153715 0.01981973 0.088 0.08452005 0.01981973 0.0545 0.08452005 0.0229203 0.088 0.08806159 0.0229203 0.0545 0.08806159 0.02539567 0.088 0.09206516 0.02539567 0.0545 0.09206516 0.02717831 0.088 0.09642157 0.02717831 0.0545 0.09642157 0.0282196 0.088 0.10101197 0.0282196 0.0545 0.10101197 0.02849113 0.088 0.10571115 0.02849113 0.0545 0.10571115 0.02798549 0.088 0.11039094 0.02798549 0.0545 0.11039094 0.02671649 0.088 0.11492367 0.02671649 0.0545 0.11492367 0.02471873 0.088 0.11918572 0.02471873 0.0545 0.11918572 0.0220467 0.088 0.12306081 0.0220467 0.0545 0.12306081 0.0187733 0.088 0.12644325 0.0187733 0.0545 0.12644325 0.01498782 0.088 0.12924078 0.01498782 0.0545 0.12924078 0.0107935 0.088 0.13137709 0.0107935 0.0545 0.13137709 0.00630477 0.088 0.13279389 0.00630477 0.0545 0.13279389 0.00164406 0.088 0.13345253 0.00164406 0.0545 0.13345253 -0.0030615 0.088 0.13333508 -0.0030615 0.0545 0.13333508 -0.01031531 0.0561 0.1278269 0.02513799 0.0561 0.10339867 0.01386598 0.0561 0.12253206 0.01771858 0.0561 0.09187478 0.02444791 0.0561 0.11187932 -0.01745404 0.0561 0.11909509 0.01627548 0.0561 0.08664909 -0.01403837 0.0561 0.08748561 -0.02203233 0.0561 0.11625632 0.00743289 0.0561 0.12879866 -0.01158776 0.0561 0.08313523 0.02644978 0.0545 0.10377216 0.02571355 0.0545 0.11548656 0.01271485 0.0545 0.12996376 0.01920988 0.0545 0.12094153 -0.01271485 0.0545 0.08003625 -0.02004565 0.0545 0.08999474 -0.02536685 0.0545 0.09310971 -0.00070872 0.0545 0.13339381 -0.01318389 0.0545 0.12503634 -0.02137001 0.0545 0.12370919 0.00186423 0.0545 0.07682878 0.01775364 0.0545 0.08332826 -0.02809504 0.0545 0.10778604 -0.02278587 0.0545 0.11535683 -0.00768355 0.088 0.13244472 -0.00768355 0.0545 0.13244472 -0.01209601 0.088 0.13080575 -0.01209601 0.0545 0.13080575 -0.01617852 0.088 0.12846285 -0.01617852 0.0545 0.12846285 -0.01981973 0.088 0.12547995 -0.01981973 0.0545 0.12547995 -0.0229203 0.088 0.12193841 -0.0229203 0.0545 0.12193841 -0.02539567 0.088 0.11793484 -0.02539567 0.0545 0.11793484 -0.02717831 0.088 0.11357843 -0.02717831 0.0545 0.11357843 -0.0282196 0.088 0.10898803 -0.0282196 0.0545 0.10898803 -0.02849113 0.088 0.10428885 -0.02849113 0.0545 0.10428885 -0.02798549 0.088 0.09960906 -0.02798549 0.0545 0.09960906 -0.02671649 0.088 0.09507633 -0.02671649 0.0545 0.09507633 -0.02471873 0.088 0.09081428 -0.02471873 0.0545 0.09081428 -0.0220467 0.088 0.08693919 -0.0220467 0.0545 0.08693919 -0.0187733 0.088 0.08355675 -0.0187733 0.0545 0.08355675 -0.01498782 0.088 0.08075922 -0.01498782 0.0545 0.08075922 -0.0107935 0.088 0.07862292 -0.0107935 0.0545 0.07862292 -0.00630477 0.088 0.07720612 -0.00630477 0.0545 0.07720612 -0.00164406 0.088 0.07654746 -0.00164406 0.0545 0.07654746 0.00060474 0.087 0.07760726 -0.01108353 0.087 0.08363896 0.0081174 0.087 0.08329038 -0.00939668 0.087 0.12655753 0.0017446 0.087 0.13244461 0.00948175 0.087 0.12688339 -0.02264854 0.087 0.08989409 -0.02381864 0.087 0.10149138 0.02535245 0.087 0.09508041 0.01572137 0.087 0.08688616 0.023949 0.087 0.10584534 -0.02535245 0.087 0.11491959 -0.01581563 0.087 0.12589329 0.02264854 0.087 0.12010591 -0.00509638 0.088 0.11771929 0.00139995 0.088 0.1210908 0.00144445 0.088 0.11394469 -0.00551672 0.094 0.08933678 0.00114003 0.094 0.09243324 0.01174757 0.094 0.09202909 -0.00945384 0.094 0.10645613 -0.01422379 0.094 0.09954607 -0.0162988 0.094 0.10930364 0.00099473 0.094 0.10145355 0.00570162 0.094 0.11880395 0.01500922 0.094 0.10760269 -0.00758957 0.094 0.11840354 -0.00074029 0.094 0.11049765 0.02650055 0.049 0.10976887 0.01946025 0.049 0.0922724 0.01649405 0.049 0.12177991 -0.00742118 0.0525 0.11224473 -0.01524163 0.0525 0.09339558 -0.01736857 0.0525 0.11308101 -0.01581142 0.049 0.09084743 -0.02527258 0.049 0.09549753 -0.02673407 0.049 0.10549741 -0.0184695 0.049 0.11544864 -0.01286954 0.049 0.08530244 0.01659055 0.049 0.08870746 -0.00428512 0.049 0.0776341 0.00740877 0.049 0.07849095 0.00428512 0.049 0.1323659 0.01258565 0.049 0.12422295 -0.01677991 0.049 0.12149405 -0.01003155 0.049 0.13081904 0.00383853 0.048 0.13185835 0.01241277 0.048 0.12168408 0.02082525 0.048 0.12287145 0.01651375 0.048 0.09221292 0.02212285 0.048 0.08719158 0.02521649 0.048 0.10769787 0.0115123 0.048 0.07903828 -0.02167386 0.048 0.10305068 -0.0233252 0.048 0.11128393 -0.02707618 0.048 0.10234758 -0.01587438 0.048 0.11875632 -0.0107114 0.048 0.12937905 -0.02176864 0.048 0.12290151 -0.01219346 0.048 0.08917635 -0.00616403 0.048 0.07881158 -0.02024438 0.048 0.08914558 -0.00974401 0.04925 0.13069387 -0.00688278 0.04925 0.12283072 0.00407556 0.04925 0.13218702 0.00979036 0.04925 0.07929485 0.00692914 0.04925 0.08715799 -0.00402921 0.04925 0.07780169 0.00448691 0.05605001 0.12804137 -0.00326282 0.05605001 0.12208439 -0.0185804 0.05605001 0.11605646 -0.0051795 0.05605001 0.08047962 -0.00757666 0.05605001 0.08935615 -0.00123606 0.05605001 0.08090647 0.00429926 0.05605001 0.08885425 0.01036173 0.05605001 0.08216181 0.01702559 0.05605001 0.1178787 -0.02004565 0.05605001 0.08999474 0.02627247 0.05605001 0.10882694 0.01865411 0.05605001 0.09307904 0.01590248 0.05445 0.11997012 0.00480038 0.05445 0.12946303 0.00020152 0.05445 0.12166207 -0.0143011 0.05445 0.11813654 -0.00886019 0.05445 0.1271684 0.00423973 0.05445 0.08881351 -0.01641025 0.05445 0.08940538 -0.00415856 0.05445 0.08434568 -0.00973651 0.05445 0.08199657 0.00963413 0.05445 0.08249106 0.01845255 0.05445 0.09295477 0.02505143 0.05445 0.10851327 -0.02250876 0.05445 0.11279157 0.02257966 0.087 0.12013746 0.01010317 0.087 0.12658896 0.02393853 0.087 0.10607567 -0.00183214 0.087 0.13209844 -0.00998645 0.087 0.12644997 0.01317932 0.087 0.08497426 0.02349902 0.087 0.09133342 -0.00815858 0.087 0.08249461 -0.02363984 0.087 0.10148151 -0.01930439 0.087 0.08555519 -0.00966035 0.087 0.08047677 0.00723831 0.087 0.07857337 -0.01199033 0.093 0.12627897 -0.00566271 0.093 0.13051227 -0.01065082 0.093 0.11909126 -0.02558975 0.093 0.11711444 -0.02526259 0.093 0.10232472 -0.01652152 0.093 0.11166115 -0.02278695 0.093 0.09158166 0.01471741 0.093 0.11503641 0.02434347 0.093 0.09505116 0.01712868 0.093 0.08495034 0.02600678 0.093 0.1072636 0.0210198 0.093 0.12205139 0.00828838 0.093 0.12086546 0.01020835 0.093 0.12986192 0.01604106 0.093 0.09760486 0.01172113 0.093 0.08276375 0.00016517 0.093 0.08752926 -0.00925327 0.093 0.08173141 -0.01273113 0.093 0.0932543 0.00463048 0.093 0.07805503 0.027 0.03 0.019 0.027 0.03250266 0.02528959 0.027 0.036 0.019 0.027 0.033 0.059 0.027 0.03294284 0.04399851 0.033 0.03 0.059 0.02987566 0.03 0.03394198 0.03 0.03 0.019 0.02825133 0.03 0.05585521 0.033 0.033 0.019 0.033 0.03275133 0.02520618 0.033 0.036 0.059 0.033 0.03281387 0.04377605 0.027 0.036 0.059 0.02950266 0.036 0.05271041 0.03031584 0.036 0.03395979 0.033 0.036 0.019 0.01261939 0.039 0.04719494 0.01555635 0.039 0.06092031 0.00657009 0.039 0.05175725 0.00750623 0.0769 0.04400623 0.01083613 0.0769 0.05220386 0.01699884 0.0769 0.04067424 0.00500623 0.0769 0.03149377 0.01320386 0.0769 0.02816387 -0.00750623 0.0769 0.03399377 -0.01699884 0.0769 0.03732576 -0.00500623 0.0769 0.04650623 0.00167424 0.0769 0.02200116 -0.00167424 0.0769 0.05599884 -0.01320386 0.0769 0.04983613 -0.01083613 0.0769 0.02579614 0.00170704 0.0405 0.02166813 0.00098113 0.0405 0.0328054 -0.00813173 0.0405 0.03086827 -0.0051285 0.0405 0.04012777 -0.01085905 0.0405 0.0490601 -0.01663262 0.0405 0.03925558 0.0175 0.0405 0.039 0.00282073 0.0405 0.04409345 0.00813173 0.0405 0.04713173 0.01149175 0.0405 0.02910428 0.00170704 0.0405 0.05633187 -0.01226551 0.039 0.03310289 -0.01555635 0.039 0.01707969 -0.00596621 0.039 0.02648871 -0.033 -0.022 0.068 -0.02639645 -0.01917893 0.068 -0.02332341 -0.02427733 0.068 -0.00671751 -0 0.068 -0.02681602 0.0228542 0.068 -0.033 0.02301173 0.068 -0.01644836 0.02313643 0.068 0.00639789 0.04867706 0.068 0 0.05507709 0.068 0.025242 0.07940018 0.068 -0.02551407 0.06945551 0.068 0.00017929 0.04791679 0.068 0.00744756 0.03965359 0.068 0 0.0409229 0.068 0.01644836 0.02313643 0.068 0.033 0.07 0.068 0.02725 0.02302346 0.068 0.02638203 0.06911698 0.068 0.033 0.02566077 0.068 -0.033 0.07 0.068 -0.02725 0.06877846 0.068 -0.00639789 0.048 0.068 -0.00824756 0.04045359 0.068 -0.02803709 -0.03024729 0.068 0.02010943 -0.032 0.068 0.02332341 -0.02427733 0.068 0.02803709 -0.03024729 0.068 0.02725 -0.01882538 0.068 0.033 -0.022 0.068 -0.01917893 -0.02639645 0.068 0.01917893 -0.02639645 0.068 0 -0.00671751 0.068 0.01984078 -0.01383037 0.068 0 0.00671751 0.068 0.00671751 0.00070711 0.068 0.033 0.02036269 0.068 -0.02223307 0.07790583 0.068 -0 0 0.068 -0.01917893 -0.02639645 0.072 0 -0.00671751 0.072 -0.00671751 -0 0.072 -0.02725 -0.01882538 0.072 -0.03275528 -0.02354508 0.072 -0.02725 0.02302346 0.072 -0.033 0.01363702 0.072 0.02725 -0.01882538 0.072 0.02332341 -0.02427733 0.072 0.033 -0.022 0.072 0.033 0.02301173 0.072 0.02681602 0.0228542 0.072 0.00671751 0.00070711 0.072 0.01644836 0.02313643 0.072 0.02010943 -0.01409903 0.072 -0.00639789 0.048 0.072 0 0.05507709 0.072 -0.02092809 0.07862499 0.072 -0.02638203 0.06911698 0.072 0.02339851 0.07828769 0.072 0.02638203 0.06911698 0.072 -0.00824756 0.04045359 0.072 0 0.0409229 0.072 -0.01644836 0.02313643 0.072 0 0.00671751 0.072 0.00035858 0.00016642 0.072 0.00744756 0.03965359 0.072 0.00633952 0.04783073 0.072 -0.033 0.07 0.072 0.01917893 -0.02639645 0.072 0.02010943 -0.032 0.072 -0.02803709 -0.03024729 0.072 0.02803709 -0.03024729 0.072 -0.02748401 0.07880037 0.072 0.033 0.07 0.072 -8.321E-05 0.04817929 0.072 0.023 -0.032 0.072 -0.023 -0.032 0.06999999 0.023 -0.032 0.068 -0.033 -0.022 0.072 -0.033 0.07 0.06999999 0.01882538 -0.02725 0.068 -0.01882538 -0.02725 0.06999999 0.01882538 -0.02725 0.072 0.02551407 0.02654449 0.068 0.00639789 0.04732294 0.06999999 0.02551407 0.02654449 0.072 0.02725 0.02722154 0.068 0.02725 0.02722154 0.072 0.02725 0.06877846 0.06999999 0.02725 0.01882538 0.06999999 -0.02725 -0.01882538 0.068 -0.02725 0.01882538 0.06999999 -0.02963869 0.02002694 -0.021 -0.02497295 0.02279621 -0.021 -0.01896237 0.01211078 -0.021 -0.03330018 -0.00233615 -0.021 -0.03203911 0.01340791 -0.021 -0.03588025 0.00515468 -0.021 -0.01550645 -0.00394336 -0.021 -0.0303859 -0.01663506 -0.021 -0.0340954 -0.00971325 -0.021 -0.0197458 -0.01065021 -0.021 -0.01669802 -0.01503218 -0.021 -0.01176083 -0.02324811 -0.021 -0.01819209 -0.0304021 -0.021 -0.02408578 -0.02358154 -0.021 -0.00770391 -0.02113609 -0.021 -0.00352673 -0.03449731 -0.021 0.02027899 -0.02869049 -0.021 0.00949977 -0.03356381 -0.021 0.02506634 -0.0228393 -0.021 0.01328289 -0.02061783 -0.021 0.0262362 -0.00438207 -0.021 0.03510796 -0.0014041 -0.021 0.03154211 -0.01475741 -0.021 0.03408692 0.00955986 -0.021 0.02545982 0.00818028 -0.021 0.03086006 0.01669954 -0.021 0.0203517 0.01288608 -0.021 0.02177868 0.02616873 -0.021 0.0109062 0.03281096 -0.021 0.00400206 0.02322716 -0.021 -0.0011882 0.0335208 -0.021 -0.01509911 0.03179483 -0.021 -0.00866826 0.02880432 -0.021 -0.0130419 0.02045501 -0.021 -0.00604766 -0.01672403 -0.021 -0.0063393 -0.02291736 -0.021 -0.00406765 -0.02045167 -0.021 0.0048448 -0.02197204 -0.021 -0.01691153 0.00592252 -0.021 0.00162491 0.01710031 -0.021 0.01665404 -0.00641369 -0.021 0.02270907 -0.01130318 -0.021 0.01130318 0.02270907 -0.021 -0.00072124 -0.02852789 -0.021 -0.02246694 0.00121614 -0.007 -0.00444525 -0.01758972 -0.007 -0.01784234 0.00200898 -0.007 -0.02875802 -0.01994701 -0.007 -0.02175206 -0.02675468 -0.007 -0.02206167 -0.00953619 -0.007 -0.02324811 0.01176083 -0.007 -0.0278401 0.02014941 -0.007 -0.0229676 0.00761215 -0.007 -0.01946391 0.02814289 -0.007 -0.01312579 0.02032754 -0.007 -0.01149061 0.01392062 -0.007 -0.00874067 0.02892724 -0.007 0.01196051 0.03337862 -0.007 -0.00156417 0.03378364 -0.007 0.00121614 0.02246694 -0.007 0.01201543 0.01895458 -0.007 0.02398081 0.02455894 -0.007 0.02116422 0.0154336 -0.007 0.03056386 0.0154901 -0.007 0.0143942 0.01079489 -0.007 0.02225043 0.00938647 -0.007 0.03437687 0.00479315 -0.007 0.01354763 -0.03209117 -0.007 0.02258572 -0.02741195 -0.007 0.01301337 -0.020389 -0.007 -0.00771258 -0.03460289 -0.007 0.00577113 -0.03394471 -0.007 -0.01766369 -0.02901529 -0.007 -0.01484747 -0.0328215 -0.007 -0.03409981 -0.01048828 -0.007 -0.03330229 -0.00271588 -0.007 0.00594496 -0.0162008 -0.007 0.01844908 -0.0011146 -0.007 0.00464699 0.01765583 -0.007 -0.0307027 0.014534 -0.007 -0.01941263 0.00761356 -0.007 0.03438586 -0.00796083 -0.007 0.022424 -0.01083843 -0.007 -0.01130318 -0.02270907 -0.007 -0.01374847 -0.01043014 -0.007 -0.01299977 -0.01421899 -0.007 -0.00399916 -0.02574487 -0.007 0.00156688 -0.01918902 -0.007 0.00812273 -0.02475506 -0.007 0.02527865 -0.02164246 -0.007 -0.03376156 0.00674192 -0.007 0.00405671 0.02504011 -0.021 -0.00086212 0.01924657 -0.021 0.00405671 0.02504011 -0.007 -0.00086212 0.01924657 -0.007 -0.00227164 0.01913147 -0.021 -0.00806518 0.0240503 -0.021 -0.00227164 0.01913147 -0.007 -0.00806518 0.0240503 -0.007 -0.00818028 0.02545982 -0.021 -0.00326145 0.03125336 -0.021 -0.00818028 0.02545982 -0.007 -0.00326145 0.03125336 -0.007 -0.00185193 0.03136846 -0.021 0.00394161 0.02644963 -0.021 -0.00185193 0.03136846 -0.007 0.00394161 0.02644963 -0.007 -0.0148375 0.02057456 -0.021 -0.01421899 0.01299977 -0.021 -0.0148375 0.02057456 -0.007 -0.01421899 0.01299977 -0.007 -0.01513428 0.0119217 -0.021 -0.02270907 0.01130318 -0.021 -0.01513428 0.0119217 -0.007 -0.02270907 0.01130318 -0.007 -0.02378714 0.01221848 -0.021 -0.02440566 0.01979327 -0.021 -0.02378714 0.01221848 -0.007 -0.02440566 0.01979327 -0.007 -0.02349036 0.02087134 -0.021 -0.01591557 0.02148985 -0.021 -0.02349036 0.02087134 -0.007 -0.01591557 0.02148985 -0.007 -0.02504011 0.00405671 -0.021 -0.01924657 -0.00086212 -0.021 -0.02504011 0.00405671 -0.007 -0.01924657 -0.00086212 -0.007 -0.01913147 -0.00227164 -0.021 -0.0240503 -0.00806518 -0.021 -0.01913147 -0.00227164 -0.007 -0.0240503 -0.00806518 -0.007 -0.02545982 -0.00818028 -0.021 -0.03125336 -0.00326145 -0.021 -0.02545982 -0.00818028 -0.007 -0.03125336 -0.00326145 -0.007 -0.03136846 -0.00185193 -0.021 -0.02644963 0.00394161 -0.021 -0.03136846 -0.00185193 -0.007 -0.02644963 0.00394161 -0.007 -0.02057456 -0.0148375 -0.021 -0.01299977 -0.01421899 -0.021 -0.02057456 -0.0148375 -0.007 -0.0119217 -0.01513428 -0.021 -0.01130318 -0.02270907 -0.021 -0.0119217 -0.01513428 -0.007 -0.01221848 -0.02378714 -0.021 -0.01979327 -0.02440566 -0.021 -0.01221848 -0.02378714 -0.007 -0.01979327 -0.02440566 -0.007 -0.02087134 -0.02349036 -0.021 -0.02148985 -0.01591557 -0.021 -0.02087134 -0.02349036 -0.007 -0.02148985 -0.01591557 -0.007 -0.00405671 -0.02504011 -0.021 0.00086212 -0.01924657 -0.021 -0.00405671 -0.02504011 -0.007 0.00086212 -0.01924657 -0.007 0.00227164 -0.01913147 -0.021 0.00806518 -0.0240503 -0.021 0.00227164 -0.01913147 -0.007 0.00806518 -0.0240503 -0.007 0.00818028 -0.02545982 -0.021 0.00326145 -0.03125336 -0.021 0.00818028 -0.02545982 -0.007 0.00326145 -0.03125336 -0.007 0.00185193 -0.03136846 -0.021 -0.00394161 -0.02644963 -0.021 0.00185193 -0.03136846 -0.007 -0.00394161 -0.02644963 -0.007 0.0148375 -0.02057456 -0.021 0.01421899 -0.01299977 -0.021 0.0148375 -0.02057456 -0.007 0.01421899 -0.01299977 -0.007 0.01513428 -0.0119217 -0.021 0.01513428 -0.0119217 -0.007 0.02270907 -0.01130318 -0.007 0.02378714 -0.01221848 -0.021 0.02440566 -0.01979327 -0.021 0.02378714 -0.01221848 -0.007 0.02440566 -0.01979327 -0.007 0.02349036 -0.02087134 -0.021 0.01591557 -0.02148985 -0.021 0.02349036 -0.02087134 -0.007 0.01591557 -0.02148985 -0.007 0.02504011 -0.00405671 -0.021 0.01924657 0.00086212 -0.021 0.02504011 -0.00405671 -0.007 0.01924657 0.00086212 -0.007 0.01913147 0.00227164 -0.021 0.0240503 0.00806518 -0.021 0.01913147 0.00227164 -0.007 0.0240503 0.00806518 -0.007 0.03125336 0.00326145 -0.021 0.02545982 0.00818028 -0.007 0.03125336 0.00326145 -0.007 0.03136846 0.00185193 -0.021 0.02644963 -0.00394161 -0.021 0.03136846 0.00185193 -0.007 0.02644963 -0.00394161 -0.007 0.02057456 0.0148375 -0.021 0.01299977 0.01421899 -0.021 0.02057456 0.0148375 -0.007 0.01299977 0.01421899 -0.007 0.0119217 0.01513428 -0.021 0.0119217 0.01513428 -0.007 0.01130318 0.02270907 -0.007 0.01221848 0.02378714 -0.021 0.01979327 0.02440566 -0.021 0.01221848 0.02378714 -0.007 0.01979327 0.02440566 -0.007 0.02087134 0.02349036 -0.021 0.02148985 0.01591557 -0.021 0.02087134 0.02349036 -0.007 0.02148985 0.01591557 -0.007 0.02 0.093 0.066 0.01371041 0.093 0.069 0.02 0.093 0.072 -0.02 0.093 0.066 -0.00504728 0.093 0.06891923 -0.02 0.093 0.072 -0.02 0.087 0.066 0.00504728 0.09008077 0.066 0.02 0.09 0.066 -0.01685521 0.09174867 0.066 0.02 0.087 0.069 0.01379382 0.087 0.06915893 -0.02 0.087 0.072 -0.00498777 0.087 0.06885206 -0.02 0.09 0.072 -0.01371041 0.09 0.072 0.00504728 0.0898321 0.072 0.02 0.087 0.072 0.027 0.093 0.019 0.02950266 0.093 0.02528959 0.033 0.093 0.019 0.03 0.093 0.059 0.02994284 0.093 0.04399851 0.027 0.087 0.059 0.027 0.0898321 0.03395272 0.027 0.09 0.019 0.027 0.09174867 0.05585521 0.03 0.087 0.019 0.02975133 0.087 0.02520618 0.033 0.087 0.059 0.03018613 0.087 0.04377605 0.033 0.09 0.059 0.033 0.09 0.05271041 0.033 0.09008077 0.03395272 0.033 0.087 0.019 -0.03236591 0.098 0.11143798 -0.00470478 0.098 0.13658549 -0.01282321 0.098 0.12673724 0.02112743 0.098 0.0925866 0.01798548 0.098 0.10624781 0.02134083 0.098 0.11746339 0.01143908 0.098 0.08668353 -0.01565953 0.098 0.09547722 -0.02152384 0.098 0.09351961 -0.01473902 0.098 0.11538248 0.01319689 0.098 0.12165181 0.02145984 0.098 0.12864853 -0.0250866 0.098 0.10485 -0.033 0.098 0.08372808 0.0189 0.098 0.06058235 0.015 0.098 0.06926467 0.03049388 0.098 0.04403546 0.02109348 0.098 0.04632908 -0.01624306 0.098 0.05944293 -0.02632671 0.098 0.03781669 -0.0049161 0.098 0.0693131 0.02925 0.098 0.00633494 -0.01500461 0.098 0.01997227 0.01530942 0.098 0.01989306 0.00054641 0.098 0.13094641 0.00120435 0.098 0.1226069 -0.02171403 0.098 0.11736339 0.025 0.098 0.105 0.03048803 0.098 0.11762855 -0.0126732 0.098 0.08310296 0.0003 0.098 0.08022679 -0.033 0.098 0.05480451 -0.033 0.098 0.011 -0.02970753 0.098 0.00679247 0.03008389 0.098 0.02431311 0.0018396 0.098 0.0073854 -0.01410912 0.098 0.00837379 0.0305 0.093 0.00666987 0.00979195 0.093 0.00765655 0.028 0.093 0.006 0.02134083 0.093 0.1175366 0.01440727 0.093 0.13010198 0.01748367 0.093 0.10259692 0.014217 0.093 0.11656638 0.03098163 0.093 0.11274059 -0.03222902 0.093 0.0574416 -0.025 0.093 0.105 -0.03142697 0.093 0.11453326 -0.0187616 0.093 0.09510484 -0.02173724 0.093 0.1178232 0.01334952 0.093 0.05834012 0.01418004 0.093 0.06844471 0.01254641 0.093 0.08208334 0.0192866 0.093 0.06097876 -0.01624306 0.093 0.01855707 -0.02632671 0.093 0.03518331 -0.03266506 0.093 0.00975 0.01672352 0.093 0.01996826 -0.01040286 0.093 0.00679195 -0.01916786 0.093 0.05639897 0.03049388 0.093 0.04396454 0.02983221 0.093 0.02390313 -0.00516779 0.093 0.06890313 -0.00063124 0.093 0.08327156 -0.0124634 0.093 0.08276635 0.02146403 0.093 0.09245 0.0249366 0.093 0.1051366 -0.01051596 0.093 0.12387516 -0.02083417 0.093 0.1303865 0.0016095 0.093 0.13752444 0.0001866 0.093 0.13014999 0.033 0.093 0.011 0.033 0.098 0.011 0.033 0.098 0.105 0.033 0.093 0.105 -0.028 0.093 0.006 0.028 0.098 0.006 -0.033 0.093 0.011 -0.033 0.098 0.105 -0.01887791 0.093 0.04490232 -0.02258241 0.093 0.0487473 -0.0048064 0.093 0.06312206 -0.00626871 0.093 0.05756983 0.0085288 0.093 0.05625417 0.01147378 0.093 0.06059634 0.02336683 0.093 0.04667895 0.01864334 0.093 0.04624057 0.01933099 0.093 0.03481364 -0.00504942 0.093 0.01987629 -0.00883009 0.093 0.01604342 -0.02390896 0.093 0.0332262 -0.01826989 0.093 0.03190447 0.02329351 0.093 0.03110144 0.00673183 0.093 0.01534292 0.00790806 0.093 0.02106685 -0.0197682 0.087 0.0396566 -0.02452553 0.087 0.03713623 -0.01239824 0.087 0.01775715 -0.01204447 0.087 0.02353824 0.00023096 0.087 0.01922224 0.00154283 0.087 0.05871884 -0.00087471 0.087 0.06358068 -0.02072639 0.087 0.05224355 -0.01490582 0.087 0.05172603 0.0189769 0.087 0.04221316 0.023982 0.087 0.04378676 0.01406737 0.087 0.05917632 0.01229067 0.087 0.05477782 0.00284979 0.087 0.01456941 0.02172485 0.087 0.02746718 0.01598657 0.087 0.02766135 0.01921067 0.101 0.03927745 0.01774864 0.101 0.02722671 -0.00795925 0.101 0.01902751 0.00456333 0.101 0.06001014 -0.01908547 0.101 0.04167865 -0.00763516 0.101 0.05706997 -0.01774864 0.101 0.05077329 -0.008965 0.101 0.02521575 -0.01817465 0.101 0.02885935 0.00778905 0.101 0.02277253 0.00072151 0.101 0.01787798 0.01728802 0.101 0.05115667 0.00887463 0.101 0.05225658 0.01708757 0.087 0.03327641 -0.0029263 0.087 0.01921524 0.00813073 0.087 0.02206067 -0.00950324 0.087 0.02462758 -0.01581405 0.087 0.04063204 -0.01811718 0.087 0.0312319 0.00917423 0.087 0.05355666 -0.00796839 0.087 0.05520083 -0.01568579 0.087 0.05108661 0.01674021 0.087 0.03784353 0.00889925 0.087 0.05257387 0.01825118 0.087 0.04868321 -0.00409524 0.087 0.01847262 0.00798489 0.087 0.0205125 -8.497E-05 0.087 0.05954207 -0.01800528 0.087 0.04081258 -0.00885597 0.087 0.05586156 -0.0171838 0.087 0.05074314 -0.00948103 0.087 0.02586736 -0.01764128 0.087 0.02773368 -0.00966598 0.084 0.02479906 -0.00575238 0.084 0.01880322 0.01696175 0.084 0.02741195 0.01982486 0.084 0.04571711 0.01029154 0.084 0.0537776 0.01617679 0.084 0.03818289 -0.01897117 0.084 0.0308168 -0.01627126 0.084 0.03946843 -0.01863799 0.084 0.04867601 0.00472006 0.084 0.02058765 0.00158614 0.084 0.05975256 -0.00887491 0.084 0.05577514 0.00403188 0.101 0.13228963 -0.00766655 0.101 0.13484463 -0.01265375 0.101 0.12800688 0.0055258 0.101 0.11979775 0.01281742 0.101 0.12788953 0.0238687 0.101 0.11468068 0.02201294 0.101 0.12656175 0.01496853 0.101 0.10988832 0.0260126 0.101 0.10842802 0.02660825 0.101 0.10011368 0.01434969 0.101 0.09252793 0.01587458 0.101 0.08410385 0.02501072 0.101 0.08695882 0.00085016 0.101 0.07770015 0.01323985 0.101 0.08079459 0.00679856 0.101 0.07588103 -0.0040495 0.101 0.08821143 -0.0114936 0.101 0.07886149 -0.00565397 0.101 0.07566663 -0.0240104 0.101 0.09455732 -0.02201294 0.101 0.08343825 -0.01285277 0.101 0.08364494 -0.01426993 0.101 0.10901093 -0.00731404 0.101 0.1091215 -0.00935921 0.101 0.11679205 0.00199114 0.101 0.11564017 -0.01421487 0.101 0.0992666 -0.02603783 0.101 0.10154169 -0.02392743 0.101 0.12115844 -0.01616171 0.101 0.12475291 -0.00268279 0.101 0.09463523 0.00778645 0.101 0.09850086 -0.02122034 0.106 0.12026886 -0.01740579 0.106 0.1264039 -0.0115381 0.106 0.11731078 -0.02562315 0.106 0.11056791 -0.02801219 0.106 0.1179511 -0.02872518 0.106 0.10197767 -0.01537451 0.106 0.10070778 -0.02801404 0.106 0.09351007 -0.00492521 0.106 0.09418154 -0.00426433 0.106 0.07760613 -0.01238299 0.106 0.08013551 0.01339157 0.106 0.08219961 0.00968331 0.106 0.07667828 0.00186113 0.106 0.07874204 0.02492041 0.106 0.10454671 0.02932038 0.106 0.099222 0.02236935 0.106 0.09430906 0.00721463 0.106 0.09692987 0.01491307 0.106 0.11008698 0.01455443 0.106 0.08877875 0.0271292 0.106 0.1172062 0.02552191 0.106 0.10903672 0.00322208 0.106 0.11518236 0.0055258 0.106 0.11979775 0.00660881 0.106 0.13400877 0.0107075 0.106 0.12955005 0.01728774 0.106 0.12900734 0.0193038 0.106 0.12273227 -0.0018977 0.106 0.09006528 -0.00672523 0.106 0.11352014 0.01461242 0.101 0.10546941 0.02868059 0.101 0.10574283 0.01803911 0.101 0.10887919 0.02554379 0.101 0.11171829 0.0170678 0.101 0.09959567 0.02185084 0.101 0.08819108 0.02814156 0.101 0.09232675 0.02619663 0.101 0.10090561 0.01862367 0.101 0.07921157 0.00681452 0.101 0.09056322 0.01038968 0.101 0.08103154 -0.00471224 0.101 0.07470299 0.00539265 0.101 0.07671834 -0.00738682 0.101 0.08181986 -0.01565227 0.101 0.08402659 -0.01390462 0.101 0.07761221 -0.02322698 0.101 0.09728968 -0.02727308 0.101 0.08775149 -0.02607303 0.101 0.10711037 -0.02656826 0.101 0.12076568 -0.02930984 0.101 0.11459157 -0.01869979 0.101 0.12311365 -0.01099279 0.101 0.12919357 -0.01852022 0.101 0.13228516 0.00071439 0.101 0.13413535 -0.00806708 0.101 0.13258491 0.00826202 0.101 0.13021465 0.00755218 0.101 0.12119465 0.0170911 0.101 0.13073564 0.01917655 0.101 0.12307659 0.02689172 0.101 0.11991588 -0.00501266 0.101 0.09572028 0.00433823 0.101 0.11419509 -0.00623568 0.101 0.11338137 -0.015212 0.101 0.09656955 -0.00716692 0.101 0.12222503 -0.01584931 0.101 0.11334515 -0.03023859 0.101 0.09923416 -0.01447182 0.101 0.1046826 0.01618835 0.106 0.12718749 0.02438637 0.106 0.11963774 0.02569965 0.106 0.11124878 0.00556447 0.106 0.11384125 0.00931743 0.106 0.13093984 -0.00949293 0.106 0.1307548 0.00095161 0.106 0.13358207 -0.02535716 0.106 0.118761 -0.02024884 0.106 0.12503463 -0.02548916 0.106 0.11126325 -0.01636411 0.106 0.09805436 -0.02738147 0.106 0.10371306 -0.01582197 0.106 0.112221 -0.02171108 0.106 0.08600055 -0.02555204 0.106 0.09257931 -0.01470297 0.106 0.08047117 -0.00975169 0.106 0.0865179 -0.00696588 0.106 0.07700309 -3.859E-05 0.106 0.08066611 0.00816768 0.106 0.08512001 0.00640092 0.106 0.07383282 0.01463831 0.106 0.07915976 0.02624707 0.106 0.10095362 0.02804191 0.106 0.09225174 0.01955495 0.106 0.0872575 0.01584011 0.106 0.10253254 0.02868059 0.106 0.10574283 0.00607532 0.106 0.09697211 0.01659544 0.106 0.11171626 0.00580462 0.106 0.12273056 -0.01559391 0.106 0.12270533 -0.00497818 0.106 0.11410543 -0.00560314 0.106 0.09612027 -0.0059122 0.101 0.00503624 0.0030524 0.101 0.00333901 0.01178538 0.101 0.00892033 -0.03263244 0.101 0.03488979 -0.03244945 0.101 0.02374857 -0.02685858 0.101 0.01926863 -0.01966007 0.101 0.03647246 -0.03574429 0.101 0.04164699 -0.01410425 0.101 0.03536505 -0.02031586 0.101 0.04211244 -0.02009509 0.101 0.06565111 -0.02726077 0.101 0.06238152 -0.02772897 0.101 0.05521465 0.0059122 0.101 0.07296376 -0.0030524 0.101 0.07466099 -0.01236986 0.101 0.06858432 0.01772744 0.101 0.06305116 0.01648409 0.101 0.07191941 0.0101987 0.101 0.06952525 0.03111845 0.101 0.05688118 0.02753375 0.101 0.0620868 0.03005606 0.101 0.04838183 0.03521251 0.101 0.04018055 0.02206195 0.101 0.03826167 0.03202511 0.101 0.03377371 0.02883256 0.101 0.01950003 0.03377427 0.101 0.0266347 0.02119259 0.101 0.01637537 0.02080584 0.101 0.0098489 0.00854667 0.101 0.02299134 0.01534448 0.101 0.00599525 -0.01977548 0.101 0.01362886 -0.00648872 0.101 0.02175844 -0.00832669 0.101 0.05469504 -0.01044507 0.101 0.00842709 0.01583487 0.101 0.04049388 0.02031793 0.101 0.04347236 0.00699951 0.101 0.05646519 0.00634153 0.106 0.00732183 -0.00221239 0.106 0.00558759 -0.01036141 0.106 0.00848731 0.03134659 0.106 0.03528219 0.0268596 0.106 0.01805719 0.0196568 0.106 0.01598677 0.03064072 0.106 0.02549332 0.03070796 0.106 0.04820373 0.02005786 0.106 0.0642183 0.02724275 0.106 0.05873931 -0.00634153 0.106 0.07067817 0.00221239 0.106 0.07241242 0.01298832 0.106 0.0704269 -0.03379383 0.106 0.03798956 -0.01972759 0.106 0.04017024 -0.01573666 0.106 0.0364981 -0.02004906 0.106 0.03447713 -0.03116582 0.106 0.03288631 -0.02441289 0.106 0.01809426 -0.02995933 0.106 0.0238197 -0.01410598 0.106 0.05591217 -0.01204287 0.106 0.06902617 -0.00802941 0.106 0.05593782 0.00999162 0.106 0.05779247 0.00861664 0.106 0.05381602 0.00797095 0.106 0.02147463 -0.0065593 0.106 0.01917375 -0.00721074 0.106 0.02363327 0.01793644 0.106 0.03147426 0.01777996 0.106 0.04002802 0.01659776 0.106 0.00830302 -0.01994694 0.106 0.06290047 -0.01834914 0.106 0.01245641 0.03379383 0.106 0.04001044</float_array>
          <technique_common>
            <accessor source="#pos_0-array" count="5424" stride="3">
              <param name="X" type="float"/>
              <param name="Y" type="float"/>
              <param name="Z" type="float"/>
            </accessor>
          </technique_common>
        </source>
        <source id="norm_0">
          <float_array id="norm_0-array" count="270">-0 0 -1 0 0 1 -0 -0 -1 -0 0 -1 0 -0 -1 -0 -0 -1 -0 -0 -1 -0 -0 -1 -0 -0 -1 -0 -0 -1 -0 0 -1 -0 0 -1 -0 -0 -1 -0 0 -1 0 -0 -1 0 -0 -1 1 0 0 -1 0 0 0 -1 0 0 1 0 0.18916 0 -0.98195 0.3482 0 -0.93742 0.49774 0 -0.86732 0.63371 0 -0.77357 0.75239 0 -0.65871 0.85055 0 -0.52589 0.92551 0 -0.37872 0.97522 0 -0.22122 0.99833 0 -0.05769 0.99421 -0 0.10742 0.96297 -0 0.2696 0.90547 -0 0.42442 0.82326 -0 0.56767 0.7186 -0 0.69543 0.59433 -0 0.80422 0.45385 -0 0.89108 0.301 -0 0.95362 0.13993 -0 0.99016 -0.02495 0 0.99969 -0.18916 0 0.98195 -0.3482 0 0.93742 -0.49774 0 0.86732 -0.63371 0 0.77357 -0.75239 0 0.65871 -0.85055 0 0.52589 -0.92551 0 0.37872 -0.97522 0 0.22122 -0.99833 0 0.05769 -0.99421 0 -0.10742 -0.96297 0 -0.2696 -0.90547 0 -0.42442 -0.82326 0 -0.56767 -0.71859 0 -0.69543 -0.59433 0 -0.80422 -0.45385 0 -0.89108 -0.301 0 -0.95362 -0.13993 0 -0.99016 0.02495 0 -0.99969 0 -1 0 -0 -1 -0 0 -1 0 0.73593 0.67706 -0 -0.76231 0.64721 0 0.64721 0.76231 -0 0.76231 -0.64721 0 -0.64721 -0.76231 0 -0.99668 -0.08138 0 -0.08138 0.99668 0 0.99668 0.08138 -0 0.08138 -0.99668 0 -0.64721 -0.76231 0 0.64721 0.76231 -0 0.76231 -0.64721 0 0.08138 -0.99668 0 -0.99668 -0.08138 0 -0.08138 0.99668 0 0.99668 0.08138 -0 0.76231 -0.64721 0 -0.76231 0.64721 0 0.64721 0.76231 -0 0.99668 0.08138 -0 0.08138 -0.99668 0 -0.99668 -0.08138 0 -0.08138 0.99668 0 -0.64721 -0.76231 0 -0.76231 0.64721 0 -0.08138 0.99668 0 0.99668 0.08138 -0 0.08138 -0.99668 0 -0.99668 -0.08138 0</float_array>
          <technique_common>
            <accessor source="#norm_0-array" count="270" stride="3">
              <param name="X" type="float"/>
              <param name="Y" type="float"/>
              <param name="Z" type="float"/>
            </accessor>
          </technique_common>
        </source>
        <vertices id="vert_0">
          <input semantic="POSITION" source="#pos_0"/>
        </vertices>
        <triangles count="1999" material="mat_0">
          <input semantic="VERTEX" source="#vert_0" offset="0"/>
          <input semantic="NORMAL" source="#norm_0" offset="1"/>
          <p>0 0 1 0 2 0 3 0 1 0 0 0 4 0 3 0 5 0 6 0 7 0 8 0 8 0 7 0 9 0 10 0 11 0 12 0 2 0 13 0 0 0 13 0 10 0 12 0 6 0 14 0 12 0 6 0 12 0 11 0 15 0 14 0 6 0 15 0 6 0 8 0 8 0 16 0 5 0 17 1 18 1 19 1 20 1 21 1 22 1 17 1 23 1 18 1 24 1 25 1 26 1 26 1 25 1 27 1 28 1 21 1 29 1 29 1 21 1 20 1 30 1 31 1 32 1 30 1 32 1 22 1 33 1 21 1 28 1 25 1 33 1 28 1 17 1 24 1 23 1 23 1 24 1 26 1 18 1 31 1 19 1 31 1 30 1 19 1 21 1 34 1 22 1 22 1 34 1 30 1 25 1 28 1 27 1 35 0 36 0 37 0 38 0 39 0 40 0 40 0 41 0 42 0 39 0 41 0 40 0 43 0 44 0 45 0 45 0 44 0 46 0 46 0 44 0 47 0 43 0 47 0 44 0 48 0 49 0 46 0 49 0 50 0 45 0 49 0 45 0 46 0 50 0 49 0 51 0 50 0 51 0 52 0 53 0 54 0 55 0 52 0 56 0 54 0 54 0 56 0 55 0 54 0 53 0 57 0 47 0 43 0 57 0 47 0 57 0 53 0 56 0 52 0 58 0 56 0 58 0 55 0 40 0 42 0 48 0 48 0 42 0 59 0 35 0 60 0 36 0 55 0 58 0 35 0 35 0 58 0 60 0 58 0 51 0 61 0 39 0 42 0 41 0 39 0 38 0 37 0 37 0 62 0 39 0 63 0 37 0 36 0 62 0 37 0 63 0 62 0 63 0 64 0 42 0 39 0 64 0 42 0 64 0 65 0 36 0 60 0 63 0 58 0 61 0 63 0 65 0 61 0 49 0 51 0 58 0 52 0 49 0 48 0 65 0 49 0 66 0 51 0 61 0 65 0 63 0 65 0 64 0 63 0 55 0 67 0 53 0 53 0 67 0 47 0 68 1 69 1 70 1 71 1 69 1 68 1 72 1 73 1 74 1 72 1 75 1 73 1 76 1 77 1 78 1 76 1 78 1 79 1 80 1 81 1 82 1 83 1 80 1 82 1 84 1 85 1 86 1 87 1 88 1 86 1 89 1 81 1 83 1 84 1 90 1 91 1 91 1 90 1 76 1 89 1 92 1 79 1 79 1 92 1 83 1 92 1 89 1 83 1 82 1 93 1 87 1 87 1 93 1 88 1 93 1 82 1 81 1 94 1 95 1 96 1 71 1 97 1 69 1 98 1 99 1 71 1 71 1 99 1 97 1 99 1 100 1 96 1 94 1 96 1 101 1 101 1 96 1 102 1 101 1 103 1 104 1 104 1 103 1 75 1 75 1 72 1 104 1 74 1 104 1 72 1 104 1 105 1 94 1 97 1 96 1 69 1 69 1 96 1 70 1 70 1 95 1 106 1 106 1 95 1 107 1 106 1 107 1 74 1 86 1 102 1 100 1 99 1 98 1 100 1 100 1 98 1 108 1 108 1 87 1 86 1 87 1 108 1 98 1 70 1 96 1 95 1 88 1 93 1 81 1 100 1 108 1 86 1 81 1 80 1 83 1 84 1 77 1 90 1 107 1 105 1 74 1 74 1 105 1 104 1 84 1 109 1 85 1 85 1 109 1 86 1 89 1 79 1 77 1 77 1 79 1 78 1 110 1 103 1 101 1 103 1 110 1 109 1 86 1 110 1 101 1 86 1 101 1 102 1 84 1 91 1 109 1 86 1 109 1 110 1 77 1 76 1 90 1 111 2 112 2 113 2 114 3 112 3 111 3 115 4 116 4 117 4 118 5 117 5 116 5 119 6 120 6 115 6 121 7 122 7 119 7 111 8 121 8 114 8 123 9 114 9 124 9 118 10 124 10 117 10 114 11 123 11 113 11 114 12 113 12 112 12 115 13 120 13 116 13 123 14 124 14 118 14 123 15 118 15 125 15 126 0 127 0 128 0 129 0 130 0 131 0 132 0 133 0 134 0 135 0 132 0 134 0 135 0 134 0 136 0 137 0 138 0 128 0 139 0 140 0 141 0 141 0 130 0 142 0 142 0 130 0 143 0 144 0 142 0 145 0 144 0 146 0 135 0 135 0 146 0 147 0 135 0 147 0 132 0 148 0 131 0 149 0 130 0 129 0 143 0 150 0 148 0 149 0 133 0 145 0 129 0 151 0 129 0 145 0 152 0 153 0 149 0 150 0 126 0 154 0 155 0 154 0 126 0 156 0 157 0 158 0 156 0 159 0 157 0 159 0 156 0 152 0 157 0 159 0 149 0 149 0 159 0 152 0 160 0 161 0 156 0 156 0 161 0 152 0 161 0 127 0 150 0 150 0 152 0 161 0 160 0 127 0 161 0 127 0 160 0 128 0 127 0 126 0 150 0 158 0 162 0 139 0 157 0 149 0 158 0 158 0 149 0 162 0 162 0 149 0 140 0 162 0 140 0 139 0 149 0 163 0 140 0 141 0 140 0 163 0 141 0 163 0 130 0 142 0 151 0 145 0 138 0 137 0 155 0 138 0 155 0 126 0 164 0 136 0 134 0 136 0 164 0 137 0 132 0 147 0 146 0 143 0 129 0 142 0 142 0 129 0 151 0 130 0 163 0 149 0 130 0 149 0 131 0 146 0 144 0 145 0 146 0 145 0 132 0 133 0 132 0 145 0 150 0 153 0 152 0 134 0 133 0 164 0 154 0 155 0 133 0 133 0 137 0 164 0 149 0 153 0 150 0 155 0 137 0 133 0 126 0 128 0 138 0 165 1 166 1 167 1 168 1 169 1 170 1 171 1 172 1 173 1 174 1 171 1 175 1 175 1 171 1 173 1 172 1 171 1 176 1 177 1 178 1 179 1 180 1 179 1 181 1 181 1 179 1 178 1 178 1 182 1 181 1 181 1 182 1 183 1 184 1 166 1 185 1 166 1 184 1 186 1 187 1 188 1 175 1 175 1 188 1 189 1 188 1 187 1 173 1 173 1 187 1 190 1 183 1 191 1 192 1 193 1 191 1 194 1 177 1 193 1 178 1 191 1 193 1 192 1 177 1 175 1 195 1 196 1 195 1 189 1 196 1 170 1 192 1 197 1 192 1 198 1 192 1 170 1 198 1 189 1 185 1 196 1 170 1 199 1 200 1 170 1 200 1 198 1 197 1 198 1 200 1 169 1 199 1 170 1 166 1 165 1 185 1 168 1 167 1 169 1 201 1 202 1 197 1 201 1 197 1 200 1 201 1 183 1 202 1 192 1 197 1 202 1 192 1 202 1 183 1 193 1 194 1 178 1 178 1 194 1 182 1 177 1 179 1 180 1 180 1 203 1 176 1 172 1 203 1 180 1 203 1 172 1 176 1 186 1 184 1 185 1 171 1 174 1 176 1 189 1 188 1 186 1 169 1 167 1 166 1 186 1 185 1 189 1 196 1 185 1 165 1 165 1 167 1 168 1 168 1 170 1 196 1 196 1 165 1 168 1 173 1 190 1 175 1 177 1 174 1 175 1 189 1 195 1 175 1 199 1 201 1 200 1 177 1 176 1 174 1 177 1 180 1 176 1 183 1 182 1 194 1 183 1 194 1 191 1 204 16 205 16 206 16 204 16 206 16 207 16 204 16 207 16 208 16 209 16 210 16 204 16 211 16 210 16 209 16 205 16 204 16 212 16 205 16 212 16 213 16 213 16 212 16 214 16 214 16 212 16 211 16 211 16 212 16 210 16 206 16 215 16 207 16 216 16 215 16 217 16 217 16 215 16 205 16 218 16 219 16 220 16 221 16 218 16 220 16 221 16 220 16 222 16 223 16 219 16 218 16 224 16 220 16 225 16 225 16 220 16 226 16 227 16 226 16 219 16 227 16 219 16 223 16 228 16 229 16 230 16 217 16 218 16 228 16 229 16 228 16 221 16 229 16 221 16 222 16 231 16 209 16 232 16 233 16 232 16 209 16 231 16 232 16 234 16 234 16 232 16 233 16 235 16 236 16 209 16 209 16 236 16 233 16 236 16 237 16 233 16 220 16 224 16 222 16 222 16 224 16 238 16 222 16 238 16 239 16 240 16 238 16 241 16 241 16 238 16 225 16 241 16 225 16 242 16 243 16 239 16 238 16 239 16 243 16 229 16 229 16 243 16 244 16 229 16 244 16 245 16 246 16 235 16 247 16 235 16 237 16 236 16 237 16 235 16 246 16 237 16 246 16 248 16 248 16 246 16 247 16 204 16 208 16 209 16 207 16 235 16 208 16 215 16 249 16 207 16 235 16 207 16 250 16 235 16 250 16 247 16 247 16 250 16 251 16 251 16 250 16 252 16 252 16 250 16 249 16 234 16 211 16 231 16 209 16 231 16 211 16 215 16 253 16 252 16 215 16 252 16 249 16 252 16 253 16 254 16 217 16 213 16 255 16 213 16 217 16 205 16 228 16 230 16 216 16 230 16 215 16 216 16 228 16 216 16 217 16 256 16 257 16 230 16 257 16 254 16 230 16 230 16 254 16 253 16 230 16 253 16 215 16 229 16 245 16 257 16 257 16 245 16 254 16 229 16 256 16 230 16 255 16 258 16 217 16 223 16 259 16 255 16 255 16 259 16 258 16 259 16 218 16 258 16 258 16 218 16 217 16 218 16 259 16 223 16 238 16 240 16 260 16 260 16 243 16 238 16 260 16 261 16 243 16 243 16 261 16 262 16 262 16 261 16 240 16 263 16 242 16 227 16 242 16 264 16 227 16 225 16 226 16 227 16 225 16 227 16 264 16 265 17 266 17 267 17 268 17 269 17 267 17 267 17 269 17 265 17 265 17 269 17 270 17 270 17 271 17 265 17 272 17 273 17 274 17 274 17 273 17 271 17 275 17 276 17 268 17 277 17 278 17 279 17 279 17 278 17 280 17 279 17 280 17 281 17 282 17 278 17 283 17 284 17 285 17 282 17 284 17 282 17 283 17 286 17 280 17 282 17 285 17 286 17 282 17 284 17 287 17 288 17 266 17 289 17 290 17 290 17 289 17 291 17 289 17 292 17 291 17 293 17 294 17 295 17 293 17 295 17 290 17 294 17 293 17 291 17 291 17 293 17 290 17 296 17 286 17 297 17 297 17 286 17 298 17 297 17 298 17 299 17 285 17 284 17 298 17 298 17 284 17 300 17 301 17 300 17 302 17 302 17 300 17 303 17 302 17 303 17 304 17 294 17 305 17 295 17 290 17 295 17 305 17 275 17 268 17 267 17 275 17 267 17 290 17 305 17 306 17 290 17 290 17 306 17 275 17 268 17 276 17 307 17 307 17 276 17 308 17 308 17 276 17 306 17 308 17 306 17 305 17 265 17 273 17 266 17 266 17 273 17 272 17 266 17 272 17 309 17 292 17 309 17 272 17 289 17 266 17 309 17 289 17 309 17 292 17 270 17 310 17 274 17 270 17 274 17 271 17 274 17 310 17 311 17 312 17 313 17 307 17 307 17 313 17 314 17 313 17 312 17 268 17 307 17 314 17 268 17 287 17 283 17 315 17 315 17 283 17 316 17 270 17 316 17 283 17 315 17 316 17 270 17 268 17 315 17 270 17 278 17 277 17 283 17 283 17 277 17 317 17 317 17 311 17 283 17 283 17 311 17 270 17 270 17 311 17 310 17 311 17 317 17 277 17 287 17 318 17 304 17 287 17 304 17 288 17 288 17 304 17 303 17 312 17 319 17 315 17 312 17 315 17 268 17 315 17 319 17 287 17 287 17 319 17 318 17 304 17 318 17 312 17 312 17 318 17 319 17 320 17 321 17 296 17 296 17 321 17 286 17 286 17 321 17 281 17 286 17 281 17 280 17 281 17 321 17 320 17 322 17 299 17 301 17 299 17 323 17 301 17 298 17 300 17 301 17 298 17 301 17 323 17 324 17 325 17 326 17 327 17 328 17 329 17 330 17 329 17 328 17 327 17 329 17 326 17 326 17 329 17 324 17 331 17 324 17 330 17 331 17 330 17 332 17 333 17 325 17 324 17 334 17 335 17 326 17 326 17 335 17 336 17 337 17 328 17 338 17 339 17 340 17 341 17 342 17 339 17 341 17 343 17 344 17 339 17 345 17 343 17 339 17 345 17 339 17 346 17 347 17 344 17 343 17 341 17 340 17 348 17 348 17 340 17 349 17 349 17 340 17 344 17 349 17 344 17 347 17 350 17 345 17 346 17 350 17 351 17 345 17 352 17 343 17 351 17 353 17 354 17 355 17 354 17 353 17 356 17 356 17 353 17 357 17 357 17 353 17 341 17 342 17 353 17 355 17 339 17 342 17 346 17 346 17 342 17 355 17 333 17 358 17 359 17 333 17 324 17 358 17 358 17 324 17 331 17 328 17 360 17 332 17 328 17 332 17 330 17 332 17 360 17 361 17 351 17 361 17 328 17 328 17 361 17 360 17 351 17 350 17 361 17 361 17 350 17 362 17 363 17 362 17 350 17 362 17 363 17 364 17 364 17 363 17 365 17 365 17 363 17 355 17 366 17 354 17 367 17 354 17 366 17 355 17 355 17 366 17 368 17 355 17 368 17 365 17 365 17 368 17 367 17 333 17 369 17 325 17 325 17 369 17 359 17 369 17 333 17 359 17 325 17 370 17 334 17 334 17 370 17 371 17 371 17 370 17 359 17 359 17 370 17 325 17 326 17 336 17 327 17 327 17 336 17 338 17 372 17 373 17 374 17 374 17 373 17 335 17 375 17 348 17 376 17 348 17 375 17 341 17 357 17 341 17 375 17 357 17 375 17 376 17 347 17 352 17 377 17 343 17 352 17 347 17 378 17 351 17 337 17 351 17 378 17 352 17 352 17 378 17 337 17 337 17 351 17 379 17 328 17 379 17 351 17 337 17 379 17 328 17 338 17 380 17 337 17 337 17 380 17 377 17 337 17 377 17 352 17 377 17 380 17 372 17 336 17 373 17 338 17 338 17 373 17 372 17 338 17 372 17 380 17 374 17 334 17 381 17 381 17 334 17 371 17 382 16 383 16 384 16 382 16 384 16 385 16 383 16 382 16 386 16 387 16 388 16 383 16 385 16 384 16 389 16 389 16 384 16 390 16 390 16 384 16 388 16 390 16 388 16 387 16 391 16 392 16 387 16 392 16 393 16 387 16 394 16 395 16 391 16 394 16 391 16 383 16 383 16 391 16 387 16 396 16 397 16 398 16 396 16 398 16 399 16 400 16 401 16 396 16 402 16 401 16 400 16 403 16 397 16 404 16 404 16 397 16 401 16 404 16 401 16 402 16 397 16 405 16 398 16 406 16 407 16 408 16 407 16 406 16 409 16 409 16 406 16 405 16 399 16 398 16 410 16 410 16 398 16 408 16 408 16 398 16 406 16 396 16 399 16 400 16 411 16 400 16 412 16 412 16 400 16 413 16 412 16 413 16 414 16 415 16 416 16 414 16 415 16 414 16 413 16 416 16 415 16 417 16 399 16 410 16 413 16 413 16 410 16 418 16 415 16 413 16 417 16 417 16 413 16 418 16 417 16 418 16 419 16 419 16 418 16 408 16 407 16 420 16 421 16 419 16 420 16 422 16 421 16 408 16 407 16 408 16 421 16 419 16 422 16 423 16 385 16 385 16 423 16 382 16 382 16 423 16 407 16 407 16 423 16 422 16 407 16 422 16 420 16 387 16 424 16 425 16 426 16 390 16 425 16 387 16 425 16 390 16 425 16 427 16 426 16 428 16 426 16 424 16 424 16 426 16 427 16 393 16 429 16 424 16 424 16 429 16 428 16 428 16 429 16 430 16 430 16 429 16 393 16 393 16 431 16 430 16 392 16 431 16 393 16 392 16 432 16 431 16 431 16 432 16 433 16 433 16 432 16 434 16 395 16 394 16 435 16 434 16 392 16 436 16 436 16 392 16 395 16 436 16 395 16 435 16 437 16 402 16 400 16 437 16 438 16 402 16 438 16 437 16 411 16 411 16 437 16 400 16 439 16 403 16 440 16 409 16 405 16 397 16 409 16 397 16 441 16 403 16 439 16 397 16 394 16 382 16 407 16 394 16 407 16 442 16 409 16 442 16 407 16 394 16 442 16 409 16 440 16 394 16 409 16 441 16 439 16 409 16 409 16 439 16 440 16 431 16 433 16 430 16 443 1 444 1 445 1 446 1 447 1 448 1 449 1 447 1 446 1 450 1 451 1 447 1 451 1 450 1 213 1 452 1 453 1 454 1 453 1 455 1 213 1 453 1 213 1 450 1 455 1 453 1 452 1 455 1 456 1 457 1 458 1 456 1 459 1 456 1 460 1 457 1 461 1 460 1 458 1 462 1 463 1 464 1 464 1 463 1 281 1 462 1 459 1 445 1 445 1 465 1 462 1 465 1 445 1 466 1 281 1 463 1 465 1 448 1 447 1 467 1 468 1 469 1 470 1 467 1 469 1 448 1 455 1 452 1 456 1 452 1 443 1 456 1 445 1 471 1 466 1 472 1 468 1 473 1 464 1 281 1 320 1 464 1 320 1 474 1 475 1 473 1 470 1 470 1 473 1 468 1 473 1 475 1 472 1 467 1 470 1 469 1 458 1 476 1 461 1 462 1 477 1 476 1 478 1 461 1 479 1 479 1 461 1 474 1 474 1 461 1 477 1 456 1 443 1 459 1 471 1 480 1 481 1 480 1 444 1 446 1 449 1 444 1 443 1 446 1 482 1 483 1 446 1 444 1 449 1 480 1 483 1 481 1 484 1 467 1 447 1 451 1 484 1 447 1 467 1 484 1 451 1 468 1 483 1 469 1 469 1 483 1 482 1 468 1 472 1 483 1 483 1 472 1 481 1 449 1 443 1 454 1 452 1 454 1 443 1 471 1 445 1 444 1 471 1 444 1 480 1 458 1 462 1 476 1 459 1 462 1 458 1 466 1 281 1 465 1 466 1 471 1 481 1 461 1 485 1 457 1 461 1 457 1 460 1 263 1 485 1 478 1 457 1 485 1 263 1 461 1 478 1 485 1 464 1 474 1 462 1 462 1 474 1 477 1 486 0 416 0 487 0 488 0 489 0 490 0 491 0 492 0 493 0 494 0 495 0 496 0 493 0 496 0 495 0 497 0 498 0 499 0 491 0 497 0 499 0 499 0 500 0 491 0 491 0 500 0 492 0 501 0 502 0 494 0 503 0 501 0 494 0 489 0 504 0 503 0 501 0 503 0 504 0 502 0 504 0 505 0 506 0 507 0 508 0 365 0 506 0 364 0 364 0 506 0 509 0 364 0 509 0 492 0 490 0 510 0 509 0 508 0 490 0 509 0 488 0 490 0 507 0 487 0 488 0 486 0 511 0 486 0 507 0 512 0 513 0 514 0 512 0 507 0 506 0 515 0 516 0 514 0 514 0 516 0 512 0 517 0 498 0 518 0 498 0 497 0 495 0 498 0 495 0 494 0 519 0 518 0 502 0 502 0 518 0 494 0 520 0 486 0 511 0 486 0 520 0 416 0 416 0 520 0 515 0 521 0 519 0 502 0 522 0 521 0 502 0 487 0 523 0 488 0 488 0 523 0 489 0 505 0 523 0 487 0 489 0 523 0 505 0 489 0 505 0 504 0 510 0 524 0 509 0 509 0 524 0 492 0 492 0 524 0 493 0 525 0 365 0 526 0 365 0 525 0 506 0 513 0 525 0 526 0 512 0 506 0 513 0 513 0 506 0 525 0 520 0 511 0 515 0 515 0 511 0 516 0 490 0 508 0 507 0 524 0 510 0 496 0 524 0 496 0 493 0 496 0 510 0 503 0 527 0 494 0 496 0 494 0 527 0 503 0 510 0 489 0 503 0 496 0 503 0 527 0 505 0 522 0 502 0 499 0 517 0 528 0 498 0 517 0 499 0 518 0 529 0 517 0 519 0 529 0 518 0 530 0 519 0 522 0 522 0 519 0 521 0 519 0 530 0 528 0 519 0 528 0 529 0 529 0 528 0 517 0 531 0 532 0 533 0 534 0 532 0 535 0 536 0 534 0 535 0 534 0 536 0 537 0 536 0 538 0 537 0 531 0 539 0 532 0 540 0 541 0 539 0 542 0 535 0 532 0 542 0 532 0 539 0 538 0 262 0 543 0 544 0 543 0 262 0 538 0 543 0 545 0 543 0 546 0 545 0 322 0 547 0 548 0 547 0 549 0 548 0 548 0 549 0 550 0 548 0 550 0 546 0 548 0 546 0 544 0 544 0 546 0 543 0 549 0 547 0 551 0 551 0 547 0 322 0 552 0 551 0 322 0 552 0 553 0 551 0 312 0 552 0 322 0 553 0 552 0 554 0 555 0 533 0 556 0 555 0 556 0 545 0 538 0 545 0 556 0 248 0 557 0 558 0 558 0 557 0 542 0 558 0 559 0 294 0 542 0 560 0 559 0 294 0 559 0 560 0 552 0 312 0 554 0 554 0 312 0 561 0 307 0 561 0 312 0 539 0 541 0 562 0 562 0 541 0 307 0 307 0 541 0 561 0 563 0 554 0 561 0 540 0 563 0 561 0 558 0 542 0 559 0 560 0 539 0 564 0 294 0 560 0 562 0 562 0 560 0 564 0 562 0 564 0 539 0 248 0 536 0 535 0 542 0 557 0 248 0 542 0 248 0 535 0 563 0 540 0 539 0 563 0 539 0 565 0 539 0 531 0 565 0 531 0 566 0 555 0 531 0 555 0 565 0 563 0 565 0 554 0 555 0 566 0 533 0 533 0 566 0 531 0 538 0 556 0 533 0 567 1 568 1 569 1 570 1 571 1 569 1 567 1 571 1 570 1 572 1 573 1 574 1 575 1 574 1 573 1 574 1 575 1 576 1 576 1 575 1 577 1 576 1 578 1 572 1 572 1 578 1 579 1 580 1 581 1 582 1 583 1 581 1 438 1 438 1 581 1 580 1 581 1 584 1 585 1 581 1 585 1 582 1 584 1 581 1 583 1 583 1 586 1 587 1 583 1 587 1 584 1 583 1 588 1 586 1 376 1 588 1 583 1 588 1 589 1 590 1 588 1 590 1 586 1 589 1 588 1 376 1 570 1 591 1 589 1 592 1 590 1 591 1 591 1 590 1 589 1 579 1 593 1 582 1 580 1 582 1 593 1 580 1 593 1 577 1 594 1 595 1 381 1 596 1 597 1 598 1 596 1 598 1 599 1 599 1 598 1 594 1 576 1 577 1 593 1 576 1 593 1 579 1 597 1 568 1 595 1 600 1 596 1 601 1 596 1 600 1 597 1 569 1 568 1 573 1 576 1 579 1 578 1 592 1 591 1 602 1 602 1 591 1 570 1 570 1 569 1 602 1 602 1 569 1 573 1 600 1 601 1 573 1 579 1 592 1 602 1 579 1 602 1 572 1 572 1 602 1 573 1 596 1 575 1 601 1 573 1 601 1 575 1 568 1 567 1 603 1 568 1 603 1 595 1 381 1 603 1 567 1 595 1 594 1 597 1 597 1 594 1 598 1 381 1 595 1 603 1 599 1 433 1 596 1 604 0 605 0 606 0 607 0 608 0 609 0 610 0 611 0 612 0 613 0 609 0 614 0 615 0 613 0 614 0 616 0 614 0 609 0 615 0 614 0 616 0 608 0 617 0 606 0 618 0 612 0 619 0 620 0 621 0 622 0 623 0 624 0 625 0 622 0 623 0 626 0 626 0 623 0 625 0 626 0 624 0 627 0 627 0 628 0 629 0 629 0 630 0 615 0 615 0 630 0 631 0 615 0 631 0 613 0 632 0 623 0 622 0 632 0 633 0 634 0 623 0 632 0 624 0 633 0 635 0 634 0 636 0 637 0 635 0 636 0 638 0 637 0 604 0 639 0 637 0 637 0 639 0 607 0 640 0 641 0 619 0 640 0 619 0 612 0 618 0 619 0 641 0 638 0 641 0 640 0 640 0 612 0 611 0 637 0 640 0 611 0 610 0 605 0 611 0 605 0 610 0 606 0 618 0 642 0 620 0 620 0 642 0 643 0 618 0 638 0 642 0 641 0 638 0 618 0 636 0 643 0 638 0 643 0 636 0 620 0 620 0 633 0 621 0 622 0 621 0 632 0 632 0 621 0 633 0 626 0 625 0 624 0 627 0 624 0 628 0 628 0 624 0 634 0 617 0 639 0 604 0 606 0 617 0 604 0 644 0 616 0 609 0 616 0 644 0 608 0 630 0 634 0 613 0 613 0 631 0 630 0 632 0 634 0 624 0 634 0 629 0 628 0 630 0 629 0 634 0 635 0 633 0 636 0 620 0 636 0 633 0 609 0 613 0 634 0 609 0 634 0 607 0 637 0 638 0 640 0 607 0 639 0 608 0 637 0 611 0 604 0 604 0 611 0 605 0 617 0 608 0 639 0 608 0 644 0 609 0 645 1 646 1 647 1 648 1 649 1 650 1 651 1 652 1 653 1 654 1 655 1 656 1 657 1 654 1 658 1 658 1 654 1 656 1 659 1 660 1 661 1 662 1 661 1 660 1 662 1 663 1 664 1 665 1 663 1 662 1 666 1 648 1 650 1 666 1 650 1 667 1 648 1 666 1 668 1 669 1 668 1 666 1 670 1 671 1 669 1 671 1 670 1 656 1 656 1 670 1 672 1 673 1 674 1 675 1 662 1 660 1 665 1 665 1 660 1 659 1 676 1 674 1 659 1 677 1 678 1 669 1 677 1 679 1 675 1 677 1 675 1 674 1 675 1 679 1 680 1 669 1 650 1 677 1 652 1 680 1 679 1 652 1 651 1 680 1 675 1 680 1 651 1 647 1 646 1 652 1 679 1 647 1 652 1 681 1 649 1 648 1 645 1 650 1 649 1 653 1 682 1 651 1 651 1 682 1 675 1 653 1 673 1 682 1 682 1 673 1 675 1 663 1 665 1 673 1 673 1 665 1 674 1 659 1 661 1 676 1 661 1 662 1 683 1 661 1 683 1 684 1 683 1 685 1 684 1 655 1 685 1 683 1 685 1 655 1 684 1 669 1 666 1 667 1 654 1 657 1 655 1 655 1 657 1 684 1 684 1 657 1 658 1 669 1 671 1 668 1 646 1 649 1 681 1 645 1 649 1 646 1 667 1 650 1 669 1 677 1 650 1 645 1 645 1 679 1 677 1 656 1 672 1 658 1 676 1 658 1 678 1 669 1 658 1 670 1 658 1 669 1 678 1 658 1 676 1 684 1 661 1 684 1 676 1 659 1 674 1 665 1 664 1 663 1 673 1 686 17 687 17 688 17 689 17 687 17 686 17 687 17 690 17 688 17 688 17 690 17 689 17 690 17 687 17 689 17 691 18 692 18 693 18 694 18 693 18 692 18 694 18 692 18 691 18 695 16 696 16 691 16 697 16 696 16 695 16 691 16 698 16 697 16 697 16 698 16 696 16 698 16 691 16 696 16 699 19 700 19 688 19 700 19 699 19 697 19 701 19 700 19 702 19 702 19 700 19 697 19 701 19 688 19 700 19 688 19 701 19 702 19 703 18 704 18 705 18 706 18 704 18 703 18 704 18 707 18 705 18 705 18 707 18 706 18 707 18 704 18 706 18 708 17 709 17 710 17 711 17 710 17 709 17 711 17 709 17 708 17 712 19 713 19 708 19 714 19 713 19 712 19 708 19 715 19 714 19 714 19 715 19 713 19 715 19 708 19 713 19 716 16 717 16 705 16 718 16 717 16 719 16 719 16 717 16 716 16 718 16 705 16 717 16 705 16 718 16 719 16 720 19 721 19 722 19 723 19 721 19 720 19 721 19 724 19 722 19 722 19 724 19 723 19 724 19 721 19 723 19 725 1 726 1 727 1 728 1 727 1 726 1 728 1 726 1 725 1 729 18 730 18 725 18 731 18 730 18 729 18 725 18 732 18 731 18 731 18 732 18 730 18 732 18 725 18 730 18 733 0 734 0 722 0 735 0 734 0 736 0 736 0 734 0 733 0 735 0 722 0 734 0 722 0 735 0 736 0 737 17 738 17 739 17 739 17 738 17 740 17 741 1 742 1 743 1 743 1 742 1 744 1 739 19 745 19 746 19 746 19 747 19 748 19 746 19 745 19 747 19 749 18 742 18 750 18 751 18 742 18 752 18 749 18 753 18 742 18 753 18 749 18 750 18 754 19 755 19 756 19 754 19 756 19 757 19 758 0 759 0 760 0 760 0 759 0 761 0 762 18 763 18 764 18 762 18 765 18 766 18 767 16 768 16 769 16 769 16 768 16 770 16 771 19 772 19 773 19 772 19 771 19 774 19 774 19 775 19 772 19 775 19 776 19 777 19 774 19 776 19 775 19 777 19 776 19 778 19 774 19 779 19 778 19 779 19 774 19 780 19 773 19 780 19 771 19 771 19 780 19 774 19 774 19 778 19 776 19 781 18 782 18 783 18 781 18 783 18 784 18 785 18 782 18 786 18 786 18 787 18 785 18 785 18 787 18 782 18 788 18 789 18 782 18 784 18 790 18 782 18 782 18 790 18 788 18 784 18 788 18 790 18 782 18 781 18 784 18 786 18 782 18 789 18 791 18 792 18 793 18 794 18 795 18 796 18 797 18 798 18 799 18 791 18 800 18 801 18 800 18 796 18 802 18 802 18 796 18 795 18 799 18 798 18 803 18 799 18 803 18 804 18 797 18 799 18 805 18 797 18 805 18 806 18 793 18 792 18 803 18 803 18 792 18 804 18 807 18 802 18 795 18 807 18 808 18 802 18 800 18 791 18 796 18 796 18 791 18 809 18 797 18 810 18 807 18 806 18 807 18 810 18 806 18 810 18 797 18 793 18 811 18 791 18 791 18 811 18 809 18 809 18 811 18 793 18 806 18 805 18 808 18 808 18 807 18 806 18 812 19 813 19 814 19 815 19 816 19 817 19 817 19 816 19 818 19 819 19 820 19 821 19 819 19 821 19 822 19 814 19 813 19 823 19 824 19 812 19 825 19 817 19 818 19 826 19 825 19 827 19 824 19 824 19 827 19 828 19 824 19 828 19 826 19 829 19 820 19 819 19 819 19 830 19 829 19 816 19 815 19 822 19 822 19 815 19 819 19 812 19 814 19 825 19 826 19 828 19 817 19 825 19 814 19 829 19 831 19 815 19 817 19 814 19 823 19 829 19 820 19 829 19 823 19 832 19 833 19 831 19 831 19 833 19 815 19 815 19 833 19 832 19 834 20 835 20 836 20 834 20 836 20 837 20 837 21 836 21 838 21 837 21 838 21 839 21 839 22 838 22 840 22 839 22 840 22 841 22 841 23 840 23 842 23 841 23 842 23 843 23 843 24 842 24 844 24 843 24 844 24 845 24 845 25 844 25 846 25 845 25 846 25 847 25 847 26 846 26 848 26 847 26 848 26 849 26 849 27 848 27 850 27 849 27 850 27 851 27 851 28 850 28 852 28 851 28 852 28 853 28 853 29 852 29 854 29 853 29 854 29 855 29 855 30 854 30 856 30 855 30 856 30 857 30 857 31 856 31 858 31 857 31 858 31 859 31 859 32 858 32 860 32 859 32 860 32 861 32 861 33 860 33 862 33 861 33 862 33 863 33 863 34 862 34 864 34 863 34 864 34 865 34 865 35 864 35 866 35 865 35 866 35 867 35 867 36 866 36 868 36 867 36 868 36 869 36 869 37 868 37 870 37 869 37 870 37 871 37 871 38 870 38 872 38 871 38 872 38 873 38 874 18 875 18 876 18 877 18 875 18 874 18 878 18 876 18 875 18 874 18 879 18 877 18 877 18 879 18 880 18 880 18 879 18 881 18 879 18 882 18 881 18 883 18 874 18 876 18 881 18 884 18 880 18 885 18 849 18 886 18 887 18 888 18 886 18 889 18 890 18 891 18 887 18 892 18 893 18 894 18 893 18 892 18 889 18 895 18 896 18 897 18 898 18 894 18 894 18 898 18 893 18 897 18 891 18 890 18 898 18 897 18 890 18 873 39 872 39 899 39 873 39 899 39 900 39 900 40 899 40 901 40 900 40 901 40 902 40 902 41 901 41 903 41 902 41 903 41 904 41 904 42 903 42 905 42 904 42 905 42 906 42 906 43 905 43 907 43 906 43 907 43 908 43 908 44 907 44 909 44 908 44 909 44 910 44 910 45 909 45 911 45 910 45 911 45 912 45 912 46 911 46 913 46 912 46 913 46 914 46 914 47 913 47 915 47 914 47 915 47 916 47 916 48 915 48 917 48 916 48 917 48 918 48 918 49 917 49 919 49 918 49 919 49 920 49 920 50 919 50 921 50 920 50 921 50 922 50 922 51 921 51 923 51 922 51 923 51 924 51 924 52 923 52 925 52 924 52 925 52 926 52 926 53 925 53 927 53 926 53 927 53 928 53 928 54 927 54 929 54 928 54 929 54 930 54 930 55 929 55 931 55 930 55 931 55 932 55 932 56 931 56 933 56 932 56 933 56 934 56 934 57 933 57 835 57 934 57 835 57 834 57 935 19 936 19 937 19 938 19 939 19 940 19 941 19 942 19 936 19 943 19 944 19 945 19 946 19 947 19 942 19 948 19 945 19 940 19 949 19 950 19 951 19 952 19 953 19 954 19 955 19 956 19 957 19 958 19 953 19 952 19 958 19 959 19 960 19 961 19 955 19 957 19 955 19 961 19 962 19 958 19 954 19 953 19 959 19 958 19 962 19 963 19 964 19 965 19 966 19 967 19 968 19 969 19 970 19 971 19 969 19 971 19 972 19 973 19 974 19 975 19 974 19 976 19 975 19 977 19 978 19 979 19 979 19 980 19 977 19 981 18 982 18 983 18 984 18 985 18 986 18 987 18 985 18 984 18 988 18 989 18 990 18 988 18 991 18 989 18 992 18 991 18 982 18 992 18 993 18 991 18 994 18 995 18 987 18 996 18 994 18 988 18 990 18 996 18 988 18 988 18 994 18 987 18 988 18 982 18 991 18 990 18 989 18 993 18 993 18 989 18 991 18 982 18 986 18 983 18 988 18 987 18 982 18 987 18 984 18 982 18 982 18 984 18 986 18 992 18 982 18 981 18 997 18 998 18 999 18 1000 18 1001 18 1002 18 1003 19 1004 19 1005 19 1006 19 1007 19 1008 19 1008 19 1009 19 1010 19 1010 19 1009 19 1011 19 1003 19 1011 19 1004 19 1012 19 1005 19 1007 19 1013 19 1014 19 1011 19 1008 19 1004 19 1009 19 1004 19 1007 19 1005 19 1004 19 1008 19 1007 19 1011 19 1009 19 1004 19 1011 19 1014 19 1010 19 1015 58 1016 58 1017 58 1018 18 1017 18 1019 18 1015 18 1017 18 1020 18 1021 59 1022 59 1020 59 1023 60 1022 60 1021 60 1024 18 1025 18 1020 18 1026 18 1015 18 1025 18 1027 18 1021 18 1018 18 1021 18 1020 18 1018 18 1020 18 1025 18 1015 18 1018 18 1020 18 1017 18 1028 18 1029 18 1030 18 1029 18 1031 18 1032 18 1033 18 1034 18 1030 18 1035 18 1036 18 1037 18 1038 18 1039 18 1033 18 1040 19 1041 19 1042 19 1040 19 1042 19 1043 19 1044 19 1043 19 1045 19 1046 19 1044 19 1045 19 1047 19 1048 19 1049 19 1050 19 1048 19 1047 19 1047 19 1051 19 1050 19 1052 19 1053 19 1051 19 1041 19 1052 19 1042 19 1052 19 1041 19 1053 19 1043 19 1042 19 1045 19 1051 19 1047 19 1052 19 1049 19 1054 19 1047 19 1055 19 1056 19 1054 19 1049 19 1055 19 1054 19 1046 19 1055 19 1057 19 1046 19 1058 19 1056 19 1046 19 1056 19 1055 19 1045 19 1058 19 1046 19 1057 19 1055 19 1059 19 1060 17 1061 17 1062 17 1063 17 1061 17 1060 17 1061 17 1064 17 1062 17 1062 17 1064 17 1063 17 1064 17 1061 17 1063 17 1065 18 1066 18 1067 18 1068 18 1067 18 1066 18 1068 18 1066 18 1065 18 1069 16 1070 16 1065 16 1071 16 1070 16 1069 16 1065 16 1072 16 1071 16 1071 16 1072 16 1070 16 1072 16 1065 16 1070 16 1073 19 1074 19 1062 19 1074 19 1073 19 1071 19 1075 19 1074 19 1076 19 1076 19 1074 19 1071 19 1075 19 1062 19 1074 19 1062 19 1075 19 1076 19 1077 18 1078 18 1079 18 1080 19 1081 19 1082 19 1080 19 1082 19 1083 19 1083 19 1082 19 1084 19 1085 19 1086 19 1087 19 1083 19 1084 19 1088 19 1083 19 1088 19 1085 19 1087 19 1089 19 1080 19 1080 19 1089 19 1081 19 1087 19 1086 19 1090 19 1087 19 1090 19 1089 19 1085 19 1088 19 1091 19 1085 19 1091 19 1086 19 1092 18 1093 18 1094 18 1094 18 1093 18 1095 18 1094 18 1095 18 1096 18 1096 18 1097 18 1094 18 1093 18 1098 18 1099 18 1099 18 1098 18 1100 18 1092 18 1101 18 1093 18 1102 18 1095 18 1099 18 1102 18 1099 18 1100 18 1101 18 1098 18 1093 18 1095 18 1102 18 1096 18 1103 18 1104 18 1105 18 1106 0 1107 0 1108 0 1108 0 1107 0 1109 0 1107 0 1106 0 1110 0 1111 0 1110 0 1106 0 1109 0 1110 0 1112 0 1113 0 1114 0 1115 0 1116 0 1114 0 1113 0 1117 0 1118 0 1119 0 1119 0 1118 0 1120 0 1113 0 1118 0 1117 0 1121 0 1122 0 1123 0 1124 0 1122 0 1121 0 1110 0 1111 0 1125 0 1125 0 1126 0 1110 0 1127 0 1116 0 1119 0 1127 0 1119 0 1128 0 1127 0 1128 0 1110 0 1112 0 1128 0 1119 0 1125 0 1116 0 1126 0 1106 0 1108 0 1129 0 1130 0 1131 0 1132 0 1132 0 1131 0 1133 0 1132 0 1133 0 1134 0 1108 0 1109 0 1135 0 1129 0 1108 0 1135 0 1129 0 1135 0 1130 0 1130 0 1135 0 1136 0 1109 0 1137 0 1135 0 1137 0 1138 0 1136 0 1113 0 1120 0 1118 0 1109 0 1112 0 1139 0 1140 0 1139 0 1120 0 1110 0 1128 0 1112 0 1140 0 1138 0 1137 0 1120 0 1122 0 1140 0 1134 0 1122 0 1141 0 1134 0 1133 0 1122 0 1125 0 1142 0 1116 0 1114 0 1116 0 1142 0 1121 0 1123 0 1115 0 1113 0 1115 0 1123 0 1116 0 1117 0 1119 0 1113 0 1117 0 1116 0 1122 0 1120 0 1113 0 1141 0 1122 0 1124 0 1139 0 1140 0 1143 0 1137 0 1109 0 1143 0 1137 0 1143 0 1140 0 1139 0 1143 0 1109 0 1133 0 1131 0 1138 0 1138 0 1131 0 1130 0 1138 0 1130 0 1136 0 1144 1 1145 1 1146 1 1144 1 1146 1 1147 1 1148 1 1147 1 1149 1 1148 1 1149 1 1150 1 1151 1 1152 1 1153 1 1154 1 1155 1 1153 1 1153 1 1155 1 1151 1 1156 1 1155 1 1157 1 1151 1 1158 1 1152 1 1159 1 1160 1 1161 1 1159 1 1161 1 1162 1 1163 1 1160 1 1164 1 1165 1 1159 1 1149 1 1166 1 1165 1 1167 1 1146 1 1168 1 1167 1 1157 1 1168 1 1169 1 1169 1 1156 1 1157 1 1170 1 1166 1 1157 1 1171 1 1170 1 1155 1 1159 1 1165 1 1166 1 1150 1 1149 1 1172 1 1172 1 1149 1 1162 1 1156 1 1145 1 1158 1 1158 1 1145 1 1173 1 1174 1 1173 1 1175 1 1175 1 1173 1 1144 1 1153 1 1152 1 1176 1 1176 1 1152 1 1174 1 1175 1 1144 1 1147 1 1175 1 1147 1 1148 1 1177 1 1172 1 1162 1 1178 1 1164 1 1155 1 1178 1 1155 1 1154 1 1160 1 1171 1 1164 1 1174 1 1152 1 1158 1 1174 1 1158 1 1173 1 1168 1 1146 1 1169 1 1145 1 1156 1 1169 1 1145 1 1169 1 1146 1 1149 1 1167 1 1165 1 1167 1 1149 1 1146 1 1157 1 1155 1 1170 1 1159 1 1166 1 1179 1 1170 1 1171 1 1160 1 1170 1 1160 1 1179 1 1170 1 1179 1 1166 1 1159 1 1179 1 1160 1 1164 1 1178 1 1163 1 1180 18 1181 18 1182 18 1183 17 1184 17 1106 17 1134 16 1178 16 1153 16 1185 19 1186 19 1187 19 1188 61 1189 61 1190 61 1191 17 1192 17 1193 17 1151 17 1194 17 1133 17 1195 16 1196 16 1147 16 1197 0 1198 0 1199 0 1197 0 1199 0 1200 0 1200 0 1201 0 1197 0 1200 0 1202 0 1201 0 1203 0 1204 0 1205 0 1203 0 1205 0 1200 0 1204 0 1206 0 1207 0 1203 0 1206 0 1204 0 1207 0 1206 0 1203 0 1208 0 1209 0 1210 0 1207 0 1210 0 1204 0 1211 0 1212 0 1209 0 1213 0 1214 0 1212 0 1215 0 1213 0 1216 0 1217 0 1218 0 1219 0 1219 0 1215 0 1217 0 1220 0 1218 0 1221 0 1222 0 1223 0 1224 0 1225 0 1226 0 1227 0 1228 0 1229 0 1230 0 1228 0 1230 0 1198 0 1231 0 1211 0 1207 0 1232 0 1233 0 1234 0 1235 0 1203 0 1200 0 1236 0 1235 0 1199 0 1199 0 1235 0 1200 0 1223 0 1217 0 1237 0 1237 0 1217 0 1216 0 1226 0 1223 0 1236 0 1229 0 1236 0 1230 0 1207 0 1211 0 1208 0 1215 0 1238 0 1217 0 1217 0 1238 0 1216 0 1221 0 1217 0 1223 0 1224 0 1239 0 1226 0 1226 0 1239 0 1223 0 1199 0 1230 0 1236 0 1225 0 1224 0 1226 0 1207 0 1203 0 1231 0 1222 0 1221 0 1223 0 1211 0 1209 0 1208 0 1237 0 1216 0 1234 0 1233 0 1232 0 1211 0 1237 0 1234 0 1233 0 1240 0 1212 0 1232 0 1232 0 1212 0 1211 0 1212 0 1240 0 1213 0 1213 0 1240 0 1234 0 1232 0 1234 0 1240 0 1216 0 1213 0 1234 0 1241 1 1242 1 1243 1 1244 1 1245 1 1246 1 1247 1 1248 1 1249 1 1250 1 1248 1 1251 1 1252 1 1253 1 1251 1 1250 1 1251 1 1253 1 1254 1 1255 1 1256 1 1256 1 1257 1 1254 1 1258 1 1254 1 1257 1 1259 1 1260 1 1258 1 1260 1 1259 1 1261 1 1261 1 1262 1 1260 1 1262 1 1263 1 1260 1 1264 1 1265 1 1266 1 1267 1 1268 1 1269 1 1267 1 1269 1 1270 1 1246 1 1271 1 1244 1 1246 1 1272 1 1271 1 1242 1 1269 1 1273 1 1274 1 1261 1 1275 1 1243 1 1276 1 1241 1 1249 1 1277 1 1252 1 1278 1 1274 1 1279 1 1256 1 1252 1 1275 1 1249 1 1252 1 1247 1 1280 1 1245 1 1269 1 1281 1 1282 1 1280 1 1281 1 1280 1 1242 1 1268 1 1283 1 1269 1 1284 1 1285 1 1273 1 1273 1 1285 1 1264 1 1283 1 1284 1 1269 1 1269 1 1284 1 1273 1 1264 1 1285 1 1268 1 1286 1 1266 1 1265 1 1278 1 1279 1 1286 1 1278 1 1263 1 1274 1 1256 1 1275 1 1261 1 1256 1 1261 1 1257 1 1252 1 1256 1 1253 1 1277 1 1249 1 1243 1 1249 1 1248 1 1276 1 1249 1 1276 1 1243 1 1276 1 1287 1 1272 1 1276 1 1272 1 1241 1 1243 1 1252 1 1277 1 1259 1 1257 1 1261 1 1262 1 1261 1 1274 1 1281 1 1246 1 1245 1 1281 1 1245 1 1282 1 1242 1 1241 1 1281 1 1281 1 1241 1 1246 1 1242 1 1280 1 1269 1 1264 1 1266 1 1273 1 1279 1 1242 1 1273 1 1279 1 1273 1 1266 1 1288 62 1289 62 1290 62 1290 62 1289 62 1291 62 1292 63 1293 63 1294 63 1294 63 1293 63 1295 63 1296 64 1297 64 1298 64 1298 64 1297 64 1299 64 1300 65 1301 65 1302 65 1302 65 1301 65 1303 65 1304 66 1305 66 1306 66 1306 66 1305 66 1307 66 1308 67 1309 67 1310 67 1310 67 1309 67 1311 67 1312 68 1313 68 1314 68 1314 68 1313 68 1315 68 1316 69 1317 69 1318 69 1318 69 1317 69 1319 69 1320 70 1321 70 1322 70 1322 70 1321 70 1323 70 1324 62 1325 62 1326 62 1326 62 1325 62 1327 62 1328 71 1329 71 1330 71 1330 71 1329 71 1331 71 1332 72 1333 72 1334 72 1334 72 1333 72 1335 72 1336 73 1337 73 1338 73 1338 73 1337 73 1282 73 1339 74 1340 74 1341 74 1341 74 1340 74 1280 74 1342 75 1343 75 1344 75 1344 75 1343 75 1345 75 1346 76 1347 76 1348 76 1348 76 1347 76 1349 76 1350 77 1351 77 1352 77 1352 77 1351 77 1353 77 1354 70 1355 70 1356 70 1356 70 1355 70 1357 70 1358 78 1359 78 1360 78 1360 78 1359 78 1361 78 1362 79 1363 79 1364 79 1364 79 1363 79 1365 79 1366 80 1367 80 1368 80 1368 80 1367 80 1369 80 1370 81 1238 81 1371 81 1371 81 1238 81 1372 81 1373 82 1374 82 1375 82 1375 82 1374 82 1376 82 1377 83 1378 83 1379 83 1379 83 1378 83 1380 83 1381 63 1382 63 1383 63 1383 63 1382 63 1384 63 1385 77 1386 77 1387 77 1387 77 1386 77 1388 77 1221 84 1389 84 1390 84 1390 84 1389 84 1391 84 1392 85 1393 85 1394 85 1394 85 1393 85 1395 85 1396 86 1397 86 1398 86 1398 86 1397 86 1399 86 1400 87 1239 87 1401 87 1401 87 1239 87 1402 87 1403 88 1404 88 1405 88 1405 88 1404 88 1406 88 1407 89 1408 89 1409 89 1409 89 1408 89 1410 89 1411 19 1412 19 1413 19 1414 19 1412 19 1411 19 1412 19 1415 19 1413 19 1415 19 1414 19 1416 19 1413 19 1415 19 1416 19 1415 19 1412 19 1414 19 1417 0 1418 0 1419 0 1420 0 1419 0 1418 0 1420 0 1418 0 1417 0 1421 18 1422 18 1417 18 1423 18 1422 18 1421 18 1417 18 1424 18 1423 18 1423 18 1424 18 1422 18 1424 18 1417 18 1422 18 1425 1 1426 1 1413 1 1427 1 1426 1 1428 1 1428 1 1426 1 1425 1 1427 1 1413 1 1426 1 1413 1 1427 1 1428 1 1429 19 1430 19 1431 19 1432 19 1430 19 1429 19 1430 19 1433 19 1431 19 1431 19 1433 19 1432 19 1433 19 1430 19 1432 19 1434 17 1435 17 1436 17 1437 17 1436 17 1435 17 1437 17 1435 17 1434 17 1438 18 1439 18 1434 18 1440 18 1439 18 1438 18 1434 18 1441 18 1440 18 1440 18 1441 18 1439 18 1441 18 1434 18 1439 18 1442 16 1443 16 1431 16 1444 16 1443 16 1445 16 1445 16 1443 16 1442 16 1444 16 1431 16 1443 16 1431 16 1444 16 1445 16 1446 19 1447 19 1448 19 1449 19 1450 19 1451 19 1449 19 1452 19 1450 19 1453 19 1454 19 1455 19 1451 19 1450 19 1456 19 1457 19 1451 19 1456 19 1446 19 1458 19 1459 19 1460 19 1461 19 1462 19 1463 19 1460 19 1462 19 1464 19 1465 19 1459 19 1466 19 1460 19 1463 19 1467 19 1468 19 1469 19 1457 19 1470 19 1447 19 1448 19 1470 19 1456 19 1457 19 1456 19 1470 19 1471 19 1455 19 1448 19 1456 19 1471 19 1448 19 1455 19 1472 19 1448 19 1447 19 1470 19 1448 19 1446 19 1448 19 1472 19 1446 19 1472 19 1458 19 1462 19 1473 19 1474 19 1474 19 1473 19 1451 19 1474 19 1451 19 1457 19 1451 19 1473 19 1449 19 1472 19 1455 19 1458 19 1458 19 1455 19 1454 19 1458 19 1454 19 1459 19 1454 19 1453 19 1459 19 1449 19 1462 19 1452 19 1453 19 1475 19 1459 19 1459 19 1475 19 1466 19 1475 19 1453 19 1466 19 1461 19 1476 19 1453 19 1466 19 1476 19 1461 19 1453 19 1452 19 1461 19 1461 19 1452 19 1462 19 1453 19 1476 19 1466 19 1466 19 1464 19 1459 19 1460 19 1466 19 1461 19 1473 19 1462 19 1449 19 1465 19 1477 19 1459 19 1477 19 1465 19 1478 19 1479 19 1465 19 1468 19 1467 19 1463 19 1480 19 1462 19 1480 19 1463 19 1469 19 1463 19 1467 19 1478 19 1465 19 1479 19 1481 19 1482 19 1468 19 1468 19 1482 19 1479 19 1479 19 1482 19 1481 19 1468 19 1467 19 1481 19 1483 18 1484 18 1485 18 1486 18 1487 18 1488 18 1488 18 1487 18 1489 18 1487 18 1486 18 1490 18 1491 18 1492 18 1493 18 1492 18 1494 18 1495 18 1493 18 1492 18 1495 18 1496 18 1497 18 1498 18 1498 18 1497 18 1499 18 1496 18 1499 18 1497 18 1500 18 1501 18 1502 18 1483 18 1503 18 1484 18 1500 18 1504 18 1503 18 1503 18 1483 18 1499 18 1491 18 1505 18 1496 18 1505 18 1491 18 1501 18 1503 18 1504 18 1484 18 1504 18 1500 18 1502 18 1506 18 1507 18 1483 18 1499 18 1483 18 1507 18 1501 18 1491 18 1502 18 1506 18 1499 18 1507 18 1491 18 1496 18 1508 18 1496 18 1509 18 1508 18 1508 18 1510 18 1491 18 1510 18 1508 18 1509 18 1509 18 1496 18 1498 18 1510 18 1509 18 1494 18 1509 18 1498 18 1511 18 1509 18 1511 18 1488 18 1499 18 1506 18 1498 18 1498 18 1506 18 1511 18 1494 18 1492 18 1491 18 1491 18 1510 18 1494 18 1488 18 1511 18 1486 18 1486 18 1511 18 1512 18 1512 18 1506 18 1490 18 1486 18 1512 18 1490 18 1506 18 1512 18 1511 18 1513 18 1514 18 1495 18 1493 18 1495 18 1514 18 1513 18 1495 18 1494 18 1513 18 1489 18 1487 18 1515 18 1513 18 1516 18 1515 18 1516 18 1487 18 1487 18 1516 18 1513 18 1514 18 1513 18 1515 18 1517 16 1518 16 1519 16 1517 16 1519 16 1520 16 1521 0 1522 0 1485 0 1523 17 1524 17 1478 17 1525 19 1526 19 1527 19 1525 19 1527 19 1528 19 1528 19 1527 19 1529 19 1529 19 1527 19 1530 19 1529 19 1530 19 1531 19 1529 19 1531 19 1532 19 1532 19 1531 19 1533 19 1534 19 1535 19 1536 19 1534 19 1536 19 1537 19 1537 19 1536 19 1525 19 1525 19 1536 19 1526 19 1533 19 1531 19 1538 19 1533 19 1538 19 1539 19 1533 19 1539 19 1540 19 1540 19 1539 19 1534 19 1534 19 1539 19 1535 19 1541 18 1542 18 1543 18 1541 18 1543 18 1544 18 1544 18 1543 18 1545 18 1546 18 1547 18 1548 18 1546 18 1548 18 1549 18 1549 18 1548 18 1541 18 1541 18 1548 18 1542 18 1550 18 1551 18 1552 18 1550 18 1552 18 1553 18 1553 18 1552 18 1546 18 1546 18 1552 18 1547 18 1545 18 1543 18 1554 18 1545 18 1554 18 1555 18 1545 18 1555 18 1556 18 1556 18 1555 18 1550 18 1550 18 1555 18 1551 18 1557 19 1558 19 1559 19 1560 19 1561 19 1562 19 1563 19 1562 19 1561 19 1564 19 1559 19 1565 19 1564 19 1565 19 1561 19 1566 19 1559 19 1558 19 1559 19 1566 19 1567 19 1567 19 1566 19 1558 19 1568 19 1557 19 1569 19 1570 18 1571 18 1572 18 1573 18 1574 18 1575 18 1576 18 1577 18 1578 18 1579 19 1580 19 1581 19 1582 19 1579 19 1583 19 1581 19 1580 19 1584 19 1584 19 1585 19 1586 19 1587 19 1586 19 1585 19 1588 19 1589 19 1585 19 1588 19 1582 19 1589 19 1590 18 1591 18 1592 18 1593 18 1594 18 1595 18 1596 18 1591 18 1590 18 1596 18 1597 18 1598 18 1597 18 1596 18 1590 18 1591 18 1599 18 1592 18 1600 18 1601 18 1594 18 1594 18 1601 18 1598 18 1595 18 1592 18 1593 18 1602 18 1603 18 1604 18 1605 18 1606 18 1602 18 1607 18 1608 18 1606 18 1607 18 1609 18 1610 18 1611 18 1612 18 1613 18 1614 18 1611 18 1613 18 1615 18 1616 18 1613 18 1615 18 1617 18 1616 18 1618 18 1619 18 1620 18 1621 18 1622 18 1623 18 1624 18 1625 18 1626 18 1626 18 1625 18 1627 18 1628 18 1624 18 1629 18 1630 18 1624 18 1631 18 1605 18 1626 18 1627 18 1626 18 1631 18 1624 18 1625 18 1624 18 1632 18 1632 18 1624 18 1628 18 1629 18 1621 18 1628 18 1609 18 1605 18 1627 18 1612 18 1609 18 1633 18 1632 18 1612 18 1633 18 1612 18 1632 18 1618 18 1632 18 1628 18 1618 18 1634 19 1635 19 1636 19 1634 19 1637 19 1638 19 1639 19 1640 19 1641 19 1642 19 1643 19 1644 19 1645 19 1646 19 1647 19 1648 19 1649 19 1650 19 1651 19 1652 19 1653 19 1652 19 1654 19 1655 19 1656 19 1657 19 1652 19 1657 19 1658 19 1659 19 1660 19 1661 19 1659 19 1662 19 1642 19 1651 19 1663 19 1640 19 1636 19 1642 19 1662 19 1643 19 1662 19 1651 19 1653 19 1640 19 1663 19 1642 19 1656 19 1636 19 1657 19 1656 19 1663 19 1636 19 1664 18 1665 18 1666 18 1666 18 1665 18 1667 18 1665 18 1664 18 1668 18 1669 18 1670 18 1671 18 1672 18 1669 18 1673 18 1674 18 1672 18 1673 18 1675 18 1676 18 1674 18 1677 18 1675 18 1674 18 1677 18 1678 18 1675 18 1678 18 1679 18 1675 18 1680 18 1681 18 1678 18 1682 18 1683 18 1684 18 1685 18 1686 18 1687 18 1686 18 1688 18 1689 18 1690 18 1688 18 1686 18 1691 18 1692 18 1690 18 1691 18 1693 18 1692 18 1667 18 1694 18 1693 18 1668 18 1664 18 1695 18 1696 18 1664 18 1691 18 1695 18 1697 18 1698 18 1664 18 1666 18 1691 18 1697 18 1691 18 1699 18 1685 18 1700 18 1697 18 1683 18 1682 18 1685 18 1685 18 1699 18 1686 18 1701 18 1698 18 1682 18 1695 18 1673 18 1668 18 1697 18 1696 18 1691 18 1678 18 1695 18 1698 18 1677 18 1673 18 1678 18 1678 18 1673 18 1695 18 1685 18 1697 18 1699 18 1702 18 1682 18 1698 18 1697 18 1682 18 1702 18 1698 18 1697 18 1702 18 1703 19 1704 19 1705 19 1703 19 1706 19 1707 19 1708 19 1709 19 1707 19 1710 19 1711 19 1712 19 1713 19 1714 19 1712 19 1713 19 1712 19 1715 19 1716 19 1717 19 1714 19 1718 19 1719 19 1720 19 1718 19 1716 19 1714 19 1719 19 1718 19 1714 19 1721 19 1720 19 1719 19 1722 19 1723 19 1721 19 1724 19 1723 19 1722 19 1725 19 1726 19 1727 19 1728 19 1729 19 1725 19 1730 19 1731 19 1728 19 1728 19 1731 19 1705 19 1728 19 1705 19 1729 19 1707 19 1706 19 1732 19 1706 19 1733 19 1732 19 1733 19 1712 19 1711 19 1708 19 1733 19 1711 19 1734 19 1715 19 1733 19 1713 19 1715 19 1734 19 1719 19 1713 19 1735 19 1735 19 1722 19 1719 19 1728 19 1722 19 1730 19 1735 19 1713 19 1734 19 1706 19 1734 19 1733 19 1735 19 1730 19 1722 19 1706 19 1731 19 1730 19 1736 18 1737 18 1738 18 1739 18 1740 18 1741 18 1742 18 1743 18 1739 18 1743 18 1742 18 1744 18 1743 18 1744 18 1745 18 1746 18 1747 18 1748 18 1749 18 1750 18 1751 18 1752 18 1753 18 1754 18 1755 18 1756 18 1752 18 1757 18 1755 18 1752 18 1758 18 1759 18 1760 18 1760 18 1761 18 1762 18 1761 18 1760 18 1763 18 1764 18 1763 18 1765 18 1766 18 1764 18 1765 18 1767 18 1768 18 1744 18 1769 18 1746 18 1745 18 1769 18 1745 18 1744 18 1770 18 1768 18 1767 18 1771 18 1765 18 1759 18 1758 18 1772 18 1771 18 1771 18 1772 18 1752 18 1754 18 1773 18 1752 18 1752 18 1773 18 1771 18 1751 18 1746 18 1769 18 1744 18 1742 18 1767 18 1759 18 1758 18 1771 18 1774 19 1775 19 1776 19 1777 19 1778 19 1779 19 1780 19 1778 19 1777 19 1781 19 1782 19 1783 19 1784 19 1785 19 1786 19 1787 19 1788 19 1789 19 1789 19 1790 19 1791 19 1789 19 1791 19 1787 19 1792 19 1793 19 1791 19 1789 19 1794 19 1795 19 1795 19 1796 19 1789 19 1797 19 1798 19 1796 19 1794 19 1789 19 1788 19 1799 19 1800 19 1801 19 1802 19 1803 19 1777 19 1803 19 1802 19 1799 19 1799 19 1779 19 1804 19 1782 19 1797 19 1786 19 1795 19 1794 19 1805 19 1776 19 1806 19 1800 19 1789 19 1801 19 1800 19 1789 19 1800 19 1790 19 1807 19 1777 19 1803 19 1798 19 1797 19 1803 19</p>
        </triangles>
      </mesh>
    </geometry>
  </library_geometries>
  <library_visual_scenes>
    <visual_scene id="DefaultScene">
      <node id="node_5e2e6e3c_d5d9_4d13_824d_64bfcf6cfea7" type="NODE">
        <matrix>1 0 0 0 0 1 0 0 0 0 1 0 0 0 0 1</matrix>
        <node id="node_a0650035_2c8b_4e05_a951_167de43f0b2a" type="NODE">
          <matrix>1 0 0 0 0 1 0 0 0 0 1 0 0 0 0 1</matrix>
          <node id="node_a0650035_2c8b_4e05_a951_167de43f0b2a_mesh0" type="NODE">
            <matrix>1 0 0 0 0 1 0 0 0 0 1 0 0 0 0 1</matrix>
            <instance_geometry url="#geometry_23d5ac6a_a867_473e_a8ae_96f27961924e">
              <bind_material>
                <technique_common>
                  <instance_material symbol="mat_0" target="#mat_0"/>
                </technique_common>
              </bind_material>
            </instance_geometry>
          </node>
        </node>
      </node>
    </visual_scene>
  </library_visual_scenes>
  <scene>
    <instance_visual_scene url="#DefaultScene"/>
  </scene>
</COLLADA>
