<?xml version="1.0" encoding="UTF-8"?>
<COLLADA xmlns="http://www.collada.org/2005/11/COLLADASchema" version="1.4.1">
<!--
# File generated by ImageToStl.com - Free Image and 3D model conversion tools
-->
  <asset>
    <contributor>
      <author>ImageToStl.com</author>
      <authoring_tool>ImageToStl.com</authoring_tool>
    </contributor>
    <created>2026-04-04T07:43:01</created>
    <modified>2026-04-04T07:43:01</modified>
    <up_axis>Z_UP</up_axis>
  </asset>
  <library_effects>
    <effect id="effect_0">
        <profile_COMMON>
          <technique sid="common">
            <phong>
              <diffuse>
                <color>0.85 0.85 0.85 1</color>
              </diffuse>
              <specular>
                <color>0.05 0.05 0.05 1</color>
              </specular>
              <shininess>
                <float>64</float>
              </shininess>
            </phong>
          </technique>
        </profile_COMMON>
    </effect>
  </library_effects>
  <library_materials>
    <material id="mat_0">
      <instance_effect url="#effect_0"/>
    </material>
  </library_materials>
  <library_geometries>
    <geometry id="geometry_93d0ec84_ce52_4c86_95a9_09849187051a">
      <mesh>
        <source id="pos_0">
          <float_array id="pos_0-array" count="5136">0.0385 -0.02499999 -0.0108 0.0385 -0.02499999 -0.0138 0.0385 0.42499998 -0.0108 -0.0385 -0.02499999 -0.0138 -0.0385 -0.02499999 -0.0108 -0.0385 0.42499998 -0.0108 -0.0385 0.42499998 -0.0138 -0.00044179 0.18182071 -0.0108 0 0.18807873 -0.0108 -0.02746738 0.21242967 -0.0108 -0.02732518 0.15176605 -0.0108 0.00128558 0.17592128 -0.0108 -0.00379743 0.25107694 -0.0108 -0.02796797 0.2804679 -0.0108 -0.03053053 0.27004212 -0.0108 -0.0181634 0.12808672 -0.0108 -0.03439878 0.10836412 -0.0108 -0.03418538 0.08429306 -0.0108 0 0.07555159 -0.0108 0.02721421 0.07388467 -0.0108 0.01676905 0.08362713 -0.0108 0.0385 0.09903113 -0.0108 0.0385 0.14779319 -0.0108 0.0266678 0.12011534 -0.0108 0.00777739 0.06085451 -0.0108 0.01676905 0.11037287 -0.0108 0.022 0.097 -0.0108 -0.01371678 0.07979971 -0.0108 -0.01982132 0.10654545 -0.0108 0.02929991 0.36070007 -0.0108 0.03039619 0.35506484 -0.0108 0.02364516 0.41155541 -0.0108 0.02364516 0.36844456 -0.0108 -0.02796797 0.35046792 -0.0108 0.0335 0.43000001 -0.0108 0.02983754 0.41894984 -0.0108 -0.03009379 0.4186936 -0.0108 -0.02405474 0.4119288 -0.0108 -0.0335 0.43000001 -0.0108 -0.02974375 0.361844 -0.0108 0.03037688 0.33531135 -0.0108 0.03691661 0.34937406 -0.0108 -0.0304649 0.3033368 -0.0108 -0.0385 0.31361368 -0.0108 -0.0385 0.2031652 -0.0108 0.03154299 0.30421126 -0.0108 0.02746738 0.29157031 -0.0108 0.0385 0.26899549 -0.0108 0.0385 0.22947726 -0.0108 0.03113403 0.16413717 -0.0108 -0.03062897 0.16394909 -0.0108 -0.03525 0.13708895 -0.0108 0.02746738 0.21242967 -0.0108 0.0311288 0.19988936 -0.0108 0.02906106 0.23814309 -0.0108 0.02732518 0.22176605 -0.0108 -0.02732518 0.29176605 -0.0108 0.02668239 0.28400001 -0.0108 0.00250491 0.2487607 -0.0108 0.00166994 0.31891903 -0.0108 -0.00404416 0.32252437 -0.0108 -0.03068902 0.34028381 -0.0108 -0.02405474 0.3680712 -0.0108 -0.02906106 0.19585691 -0.0108 -0.02732518 0.22176605 -0.0108 -0.03062897 0.23394908 -0.0108 -0.031659 0.03731329 -0.0108 -0.0319215 0.05280313 -0.0108 0.03324217 0.05175783 -0.0108 0.0385 0.03512501 -0.0108 0.03177267 0.05332341 -0.0108 0.00763098 0.13329189 -0.0108 0.03224492 0.14165154 -0.0108 0.00489546 0.11844841 -0.0108 -0.01837351 0.05319216 -0.0108 -0.01723038 0.06551687 -0.0108 0.01995196 0.05259338 -0.0108 -0.00040042 0.01258146 -0.0108 0.01195211 0.00615 -0.0108 -0.01118315 0.00529396 -0.0108 -0.00985128 -0.00671292 -0.0108 0.00366908 -0.03 -0.0108 0.0100892 -0.00760083 -0.0108 0.0335 -0.03 -0.0108 -0.00040042 -0.01258146 -0.0108 -0.00393005 -0.03 -0.0108 -0.0335 -0.03 -0.0108 -0.02732518 0.15176605 -0.0138 -0.03118844 0.16423066 -0.0138 -0.00166002 0.18089962 -0.0138 -0.00404416 0.32147563 -0.0138 -0.02732518 0.29176605 -0.0138 -0.03112281 0.30360958 -0.0138 -0.0385 0.11063238 -0.0138 -0.01371678 0.11420029 -0.0138 -0.03484519 0.08396986 -0.0138 0.01676905 0.08362713 -0.0138 0.02734101 0.07415788 -0.0138 0 0.07555159 -0.0138 0.00745777 0.06095451 -0.0138 0.01982071 0.05308321 -0.0138 0.03702587 0.05467665 -0.0138 0.01371678 0.11420029 -0.0138 0.02704101 0.12110816 -0.0138 0.02091066 0.10177273 -0.0138 0.03582304 0.13595013 -0.0138 -0.01982132 0.08745456 -0.0138 -0.02405474 0.4119288 -0.0138 -0.03114393 0.41853115 -0.0138 -0.0335 0.43000001 -0.0138 0.02929991 0.4192999 -0.0138 0.02767457 0.40713537 -0.0138 0.01961576 0.41597545 -0.0138 0.0385 0.42499998 -0.0138 0.03187755 0.34203646 -0.0138 0.03002513 0.36086255 -0.0138 0.02364516 0.36844456 -0.0138 0.02746738 0.35242969 -0.0138 -0.02987188 0.36143452 -0.0138 -0.02405474 0.3680712 -0.0138 -0.0303032 0.34077686 -0.0138 0.0385 0.16187613 -0.0138 0.03113403 0.26986283 -0.0138 0.02732518 0.28223395 -0.0138 0.00342952 0.25292456 -0.0138 -0.03041686 0.26999408 -0.0138 -0.00387775 0.25216579 -0.0138 0.02732518 0.22176605 -0.0138 0.03062897 0.23394908 -0.0138 0.02746738 0.29157031 -0.0138 0.03109236 0.30353108 -0.0138 0.00333987 0.3220832 -0.0138 -0.02796797 0.35046792 -0.0138 -0.03053053 0.23395787 -0.0138 -0.02746738 0.21242967 -0.0138 -0.03103528 0.20003028 -0.0138 0.02732518 0.15176605 -0.0138 0.00316058 0.18503937 -0.0138 0.02746738 0.21242967 -0.0138 0.03114919 0.19975412 -0.0138 -0.02668239 0.22 -0.0138 -0.01462677 0.23472668 -0.0138 0.0322625 0.03702033 -0.0138 0.0385 0.00825 -0.0138 -0.03201758 0.05270704 -0.0138 -0.03216642 0.03666175 -0.0138 -0.02505451 0.03771876 -0.0138 0.00366908 -0.03 -0.0138 0.00968878 -0.00731937 -0.0138 0.0335 -0.03 -0.0138 0.01110774 0.00509958 -0.0138 0.00038448 -0.01170948 -0.0138 -0.00393005 -0.03 -0.0138 -0.0037722 0.0071401 -0.0138 -0.00985128 -0.00671292 -0.0138 -0.0385 -0 -0.0138 -0.0335 -0.03 -0.0138 -0.01195211 0.00615 -0.0138 -0.0001625 0.01281937 -0.0138 -0.0385 0.031 -0.0138 -0.01902034 0.0527375 -0.0138 -0.01909641 0.06576328 -0.0138 -0.01681077 0.06559008 -0.0138 0.00777739 0.13314548 -0.0138 -0.03213125 0.14103517 -0.0138 -0.01713038 0.12850992 -0.0138 -0.0385 0.19785748 -0.0138 -0.0385 0.22947726 -0.0138 0.03576937 0.02818112 -0.0478 0.03086413 0.02236413 -0.0478 -0.02775 0.03 -0.0478 0.036 -0.0275 -0.0478 0.02386671 -0.00803961 -0.0478 0.01757161 0.01758209 -0.0478 -0.00820569 0.0245067 -0.0478 -0.02132558 0.01459902 -0.0478 -0.0385 0.025 -0.0478 -0.03163438 0.02149552 -0.0478 -0.03167038 -0.02189864 -0.0478 -0.03803873 -0.02636224 -0.0478 -0.02775 -0.03 -0.0478 0.03171957 -0.02268207 -0.0478 0.01256907 -0.02258164 -0.0478 -0.02176139 -0.01347408 -0.0478 -0.00820569 -0.0245067 -0.0478 -0.0385 -0.025 -0.0448 -0.03163438 -0.02149552 -0.0448 -0.02132558 -0.01459902 -0.0448 -0.02775 -0.03 -0.0448 -0.03167038 0.02189864 -0.0448 -0.03803873 0.02636224 -0.0448 -0.02775 0.03 -0.0448 0.03171957 0.02268207 -0.0448 0.036 0.0275 -0.0448 0.01827991 0.01826901 -0.0448 0.02428013 0.00940617 -0.0448 -0.02176139 0.01347408 -0.0448 -0.00820569 0.0245067 -0.0448 0.03086413 -0.02236413 -0.0448 0.03576937 -0.02818112 -0.0448 0.02364504 -0.01043188 -0.0448 0.01256907 -0.02258164 -0.0448 -0.00820569 -0.0245067 -0.0448 -0.04 0.13065432 -0.03976085 -0.04 0.14507818 -0.04116603 -0.04 0.112 -0.0493 -0.04 0.082 -0.0108 -0.04 0.082 -0.0493 -0.04 0.07592717 -0.02348715 -0.04 0.07691968 -0.04114151 -0.04 0.06203765 -0.0093 -0.04 0.01063308 -0.0093 -0.04 0.01865849 -0.0194585 -0.04 0.00891968 -0.04114151 -0.04 0.01981603 -0.03659438 -0.04 0.02864568 -0.03954406 -0.04 0.03276447 -0.02145603 -0.04 0.06333196 -0.04060873 -0.04 0.06633217 -0.02005746 -0.04 0.28639454 -0.0093 -0.04 0.30394846 -0.01987802 -0.04 0.29081699 -0.01911699 -0.04 0.43000001 -0.0093 -0.04 0.35140467 -0.0138 -0.04 0.29196429 -0.03692707 -0.04 0.28091967 -0.04114151 -0.04 0.34594613 -0.0234276 -0.04 0.35180348 -0.04650102 -0.04 0.43000001 -0.0493 -0.04 0.25308719 -0.0493 -0.04 0.29266828 -0.04520205 -0.04 -0.00772258 -0.04160641 -0.04 -0.03 -0.0493 -0.04 0.00792717 -0.02348715 -0.04 -0.01418398 -0.03659438 -0.04 -0.00175379 -0.01999127 -0.04 0.27992716 -0.02348715 -0.04 0.25650597 -0.0093 -0.04 0.27029604 -0.02008764 -0.04 0.25715849 -0.01895849 -0.04 -0.01534151 -0.0194585 -0.04 -0.03 -0.0093 -0.04 0.23333195 -0.04060873 -0.04 0.24691968 -0.04114151 -0.04 0.24592717 -0.02348715 -0.04 0.23428524 -0.0093 -0.04 0.23594844 -0.01987802 -0.04 0.2239643 -0.03692707 -0.04 0.21975298 -0.0093 -0.04 0.2226585 -0.0194585 -0.04 0.26733196 -0.04060873 -0.04 0.211915 -0.02348706 -0.04 0.13313243 -0.0183 -0.04 0.112 -0.0108 -0.04 0.12131698 -0.01861699 -0.04 0.14376214 -0.02400561 -0.04 0.12181602 -0.03659438 -0.04 0.21149455 -0.0478 -0.04 0.04176215 -0.02400561 -0.04 0.05350273 -0.03678016 -0.04 0.16829604 -0.02008764 -0.04 0.1546585 -0.0194585 -0.04 0.1648137 -0.03914396 -0.04 0.15581602 -0.03659438 -0.04 0.20292386 -0.02083915 -0.04 0.18865849 -0.0194585 -0.04 0.18799999 -0.03601637 -0.04 0.19881369 -0.03914396 -0.04 0.17776215 -0.02400561 -0.04 0.3356297 -0.04072198 -0.04 0.32499999 -0.0193 -0.04 0.31407544 -0.02381984 -0.04 0.33816028 -0.01992509 -0.04 0.31457818 -0.0413 -0.04 0.32581604 -0.03659438 -0.04 0.30133197 -0.04060873 0.04 0.13416576 -0.04469646 0.04 0.21326119 -0.04098301 0.04 0.17826118 -0.04198301 0.04 0.12181602 -0.03659438 0.04 0.1272247 -0.01845849 0.04 0.112 -0.0108 0.04 0.21739453 -0.0093 0.04 0.21161388 -0.02367293 0.04 0.112 -0.0493 0.04 0.13696899 -0.0138 0.04 0.14376214 -0.02400561 0.04 0.35140467 -0.0138 0.04 0.43000001 -0.0093 0.04 0.287 -0.0093 0.04 0.3008137 -0.03914396 0.04 0.29196429 -0.03692707 0.04 0.2903752 -0.048175 0.04 0.01981603 -0.03659438 0.04 0.01915849 -0.01895849 0.04 0.01101954 -0.0093 0.04 0.02915417 -0.04083521 0.04 0.03276447 -0.02145603 0.04 0.05415512 -0.0093 0.04 0.06676447 -0.02145603 0.04 0.07592717 -0.02348715 0.04 0.082 -0.0108 0.04 0.0628137 -0.03914396 0.04 0.07641968 -0.04164151 0.04 0.082 -0.0493 0.04 0.00826119 -0.04198301 0.04 -0 -0.0093 0.04 -0.00205155 -0.01987802 0.04 0.00792717 -0.02348715 0.04 -0.00466804 -0.04060873 0.04 -0.01418398 -0.03659438 0.04 -0.01077713 -0.0493 0.04 0.25665849 -0.0194585 0.04 0.25199997 -0.0093 0.04 0.25781602 -0.03659438 0.04 0.24626118 -0.04198301 0.04 0.26733196 -0.04060873 0.04 0.27992716 -0.02348715 0.04 0.29131699 -0.01861699 0.04 0.26122287 -0.0093 0.04 0.26994845 -0.01987802 0.04 -0.03 -0.0093 0.04 -0.016 -0.0203 0.04 -0.03 -0.0493 0.04 0.23428524 -0.0093 0.04 0.23594844 -0.01987802 0.04 0.24493332 -0.02310738 0.04 0.23333195 -0.04060873 0.04 0.2239643 -0.03692707 0.04 0.25755519 -0.0493 0.04 0.2226585 -0.0194585 0.04 0.43000001 -0.0493 0.04 0.35140467 -0.04588955 0.04 0.34844419 -0.0418 0.04 0.1546585 -0.0194585 0.04 0.18981603 -0.03659438 0.04 0.19881369 -0.03914396 0.04 0.16562971 -0.04072198 0.04 0.15581602 -0.03659438 0.04 0.18931699 -0.01861699 0.04 0.20232591 -0.01968283 0.04 0.16829604 -0.02008764 0.04 0.17776215 -0.02400561 0.04 0.05331698 -0.01861699 0.04 0.04176215 -0.02400561 0.04 0.05350273 -0.03678016 0.04 0.3601692 -0.03705572 0.04 0.35865849 -0.0194585 0.04 0.40328214 -0.04051236 0.04 0.39381602 -0.03659438 0.04 0.36962974 -0.04072198 0.04 0.41691968 -0.04114151 0.04 0.41728163 -0.02391826 0.04 0.41066858 -0.02225604 0.04 0.39331698 -0.01861699 0.04 0.38176215 -0.02400561 0.04 0.37229604 -0.02008764 0.0385 -0.012775 -0.0478 0.0385 -0.00528846 -0.04119679 0.0385 0.00826119 -0.04198301 0.0385 0.02499049 -0.0478 0.0385 0.00594612 -0.0234276 0.0385 -0.0016741 -0.01968283 0.0385 -0.016 -0.03601637 0.0385 0.01675 -0.0108 0.0385 0.082 -0.0108 0.0385 0.07576215 -0.02400561 0.0385 0.0663259 -0.01968283 0.0385 0.04932924 -0.01512925 0.0385 -0.03 -0.0108 0.0385 -0.01536603 -0.01893397 0.0385 -0.03 -0.0478 0.0385 0.02933196 -0.04060873 0.0385 0.05161143 -0.0478 0.0385 0.0199643 -0.03692707 0.0385 0.04176215 -0.02400561 0.0385 0.03224621 -0.01999127 0.0385 0.06333196 -0.04060873 0.0385 0.0791306 -0.04489151 0.0385 0.26666296 -0.03997765 0.0385 0.28026119 -0.04198301 0.0385 0.25536281 -0.0478 0.0385 0.32581604 -0.03659438 0.0385 0.31557816 -0.02458363 0.0385 0.33143651 -0.01850557 0.0385 0.3083553 -0.02244182 0.0385 0.34645736 -0.0108 0.0385 0.31491968 -0.04114151 0.0385 0.33471155 -0.04119679 0.0385 0.38161388 -0.02367293 0.0385 0.37216026 -0.01992509 0.0385 0.39265847 -0.0194585 0.0385 0.36933196 -0.04060873 0.0385 0.35996431 -0.03692707 0.0385 0.38362491 -0.0478 0.0385 0.35865849 -0.0194585 0.0385 0.40341792 -0.04067491 0.0385 0.43000001 -0.0478 0.0385 0.41691968 -0.04114151 0.0385 0.43000001 -0.0108 0.0385 0.41592717 -0.02348715 0.0385 0.40594846 -0.01987802 0.0385 0.39396429 -0.03692707 0.0385 0.27016026 -0.01992509 0.0385 0.287 -0.0108 0.0385 0.27961388 -0.02367293 0.0385 0.24422286 -0.0138 0.0385 0.24576215 -0.02400561 0.0385 0.23629603 -0.02008764 0.0385 0.24691968 -0.04114151 0.0385 0.29564261 -0.0478 0.0385 0.29196429 -0.03692707 0.0385 0.29065847 -0.0194585 0.0385 0.34761387 -0.02367293 0.0385 0.1559643 -0.03692707 0.0385 0.15591761 -0.0478 0.0385 0.13133197 -0.04060873 0.0385 0.112 -0.0478 0.0385 0.14392717 -0.02348715 0.0385 0.15481699 -0.01911699 0.0385 0.12181602 -0.03659438 0.0385 0.13476448 -0.02145603 0.0385 0.21778908 -0.0138 0.0385 0.21192718 -0.02348715 0.0385 0.19322287 -0.0138 0.0385 0.18881698 -0.01911699 0.0385 0.19933195 -0.04060873 0.0385 0.18711323 -0.0478 0.0385 0.20276448 -0.02145603 0.0385 0.17792717 -0.02348715 0.0385 0.2239643 -0.03692707 0.0385 0.23341791 -0.04067491 0.0385 0.20717268 -0.04634576 0.0385 0.2226585 -0.0194585 0.0385 0.12075 -0.01936699 0.0385 0.112 -0.0108 0.0385 0.16562971 -0.04072198 0.0385 0.16876447 -0.02145603 -0.0385 0.01850598 -0.0478 -0.0385 0.00891968 -0.04114151 -0.0385 -0.03 -0.0478 -0.0385 -0.00466804 -0.04060873 -0.0385 0.00776215 -0.02400561 -0.0385 0.013875 -0.01461699 -0.0385 -0.0016741 -0.01968283 -0.0385 -0.016 -0.03601637 -0.0385 0.0663259 -0.01968283 -0.0385 0.07888108 -0.01740281 -0.0385 0.06873401 -0.0108 -0.0385 0.035625 -0.0108 -0.0385 0.05263397 -0.01893397 -0.0385 0.0539643 -0.03692707 -0.0385 0.04543064 -0.0478 -0.0385 -0.03 -0.0108 -0.0385 -0.01536603 -0.01893397 -0.0385 0.04176215 -0.02400561 -0.0385 0.02962972 -0.04072198 -0.0385 0.03224621 -0.01999127 -0.0385 0.06333196 -0.04060873 -0.0385 0.07945984 -0.04447075 -0.0385 0.33678907 -0.0138 -0.0385 0.324817 -0.01911699 -0.0385 0.33824623 -0.01999127 -0.0385 0.29113397 -0.0188 -0.0385 0.30492723 -0.02081221 -0.0385 0.2879585 -0.0108 -0.0385 0.282516 -0.04613538 -0.0385 0.30133197 -0.04060873 -0.0385 0.29165101 -0.03711285 -0.0385 0.3432107 -0.04613538 -0.0385 0.31491968 -0.04114151 -0.0385 0.32581604 -0.03659438 -0.0385 0.31376213 -0.02400561 -0.0385 0.3356297 -0.04072198 -0.0385 0.34761387 -0.02367293 -0.0385 0.359651 -0.03711285 -0.0385 0.36933196 -0.04060873 -0.0385 0.37224621 -0.01999127 -0.0385 0.38161388 -0.02367293 -0.0385 0.35850596 -0.0138 -0.0385 0.35831699 -0.01961699 -0.0385 0.37928909 -0.0478 -0.0385 0.23682155 -0.02052455 -0.0385 0.25613397 -0.0198 -0.0385 0.22288397 -0.01886699 -0.0385 0.27024621 -0.01999127 -0.0385 0.21185587 -0.04613538 -0.0385 0.23333195 -0.04060873 -0.0385 0.22365101 -0.03711285 -0.0385 0.26654926 -0.04426099 -0.0385 0.25781602 -0.03659438 -0.0385 0.24576215 -0.02400561 -0.0385 0.27961388 -0.02367293 -0.0385 0.40648791 -0.02017736 -0.0385 0.43000001 -0.0108 -0.0385 0.39381602 -0.03659438 -0.0385 0.40328214 -0.04051236 -0.0385 0.43000001 -0.0478 -0.0385 0.41691968 -0.04114151 -0.0385 0.41576213 -0.02400561 -0.0385 0.20292386 -0.02083915 -0.0385 0.21779352 -0.0108 -0.0385 0.18881698 -0.01911699 -0.0385 0.18378909 -0.01712091 -0.0385 0.189651 -0.03711285 -0.0385 0.18850598 -0.0478 -0.0385 0.21161388 -0.02367293 -0.0385 0.19933195 -0.04060873 -0.0385 0.13492386 -0.02083915 -0.0385 0.14671101 -0.0108 -0.0385 0.12075 -0.01936699 -0.0385 0.112 -0.0108 -0.0385 0.112 -0.0478 -0.0385 0.121651 -0.03711285 -0.0385 0.14491968 -0.04114151 -0.0385 0.15521181 -0.0478 -0.0385 0.14361387 -0.02367293 -0.0385 0.13133197 -0.04060873 -0.0385 0.1683259 -0.01968283 -0.0385 0.15463397 -0.01893397 -0.0385 0.155651 -0.03711285 -0.0385 0.17891967 -0.04114151 -0.0385 0.17761387 -0.02367293 -0.0385 0.16533196 -0.04060873 -0.01758318 0.06046885 -0.0493 -0.032525 0.05495933 -0.0493 -0.03815757 0.082 -0.0493 -0.03166544 0.04504436 -0.0493 -0.03162812 0.02156549 -0.0493 -0.04 -0 -0.0493 -0.01419452 0.0212436 -0.0493 -0.0212436 -0.01419452 -0.0493 -0.02 0.053 -0.0493 0.01842013 0.01842013 -0.0493 0.03054366 0.02274375 -0.0493 0.02505853 -0.00498445 -0.0493 0.04 0.00420026 -0.0493 0.04 0.03841764 -0.0493 -0.02775 -0.03 -0.0493 -0.0099689 -0.02406706 -0.0493 0.03038121 -0.02328138 -0.0493 0.01842013 -0.01842013 -0.0493 -0.03144054 -0.0213779 -0.0493 0.02467687 0.06431847 -0.0493 0.04 0.06551909 -0.0493 -0.00384024 0.25034422 -0.0493 0.01723685 0.24358715 -0.0493 0.02932622 0.22840044 -0.0493 -0.02947147 0.20619659 -0.0493 -0.04 0.16994999 -0.0493 -0.04 0.21778908 -0.0493 -0.04 0.23428524 -0.0493 -0.0291873 0.22854051 -0.0493 0.04 0.22250597 -0.0493 0.02606653 0.20644677 -0.0493 0.04 0.23428524 -0.0493 0.03907878 0.112 -0.0493 0.03204453 0.12257633 -0.0493 0.04 0.16994999 -0.0493 0.03128284 0.14171717 -0.0493 -0.028 0.152 -0.0493 0.03837616 0.27911618 -0.0493 0.03026882 0.36043128 -0.0493 0.02741528 0.39545321 -0.0493 -0.03181427 0.34350374 -0.0493 -0.04 0.31404999 -0.0493 -0.0285 0.38999999 -0.0493 -0.03165429 0.14091679 -0.0493 -0.02308679 0.13088214 -0.0493 -0.02974732 0.30150867 -0.0493 -0.02890201 0.27616787 -0.0493 0.00739721 0.25364807 -0.0493 -0.03035244 0.26917884 -0.0493 -0.02707649 0.2368224 -0.0493 0.02859654 0.26656407 -0.0493 0.02622578 0.27662602 -0.0493 0.04 0.25650597 -0.0493 0.03020955 0.23847049 -0.0493 -0.00079038 0.17632644 -0.0493 0.00449898 0.18135524 -0.0493 0.02707649 0.1668224 -0.0493 0.02893342 0.15536258 -0.0493 0.03017739 0.19960374 -0.0493 -0.02985516 0.1576916 -0.0493 -0.02707649 0.1668224 -0.0493 -0.00441577 0.18117595 -0.0493 -0.03035244 0.19917884 -0.0493 0.00113306 0.18877898 -0.0493 -0.00237243 0.32387847 -0.0493 0.00118335 0.31850916 -0.0493 0.02900475 0.34966275 -0.0493 0.01723685 0.31358719 -0.0493 0.02822344 0.2995953 -0.0493 0.02935896 0.34014699 -0.0493 -0.02707649 0.33717757 -0.0493 -0.0289255 0.34983352 -0.0493 -0.02981241 0.4192999 -0.0493 -0.02324155 0.4055295 -0.0493 0 0.43000001 -0.0493 0.03 0.41999999 -0.0493 0.01552951 0.41324157 -0.0493 -0.00545324 0.41741529 -0.0493 0.02324155 0.37447047 -0.0493 0.00545324 0.36258471 -0.0493 -0.03001717 0.36050791 -0.0493 -0.02633057 0.37909353 -0.0493 -0.01552951 0.36675844 -0.0493 0.00603978 0.13709007 -0.0478 0.02756566 0.12672924 -0.0478 0.032 0.14077267 -0.0478 0.02015254 0.41015255 -0.0478 0.02741528 0.39545321 -0.0478 0.01145493 0.43000001 -0.0478 -0.02883399 0.34992501 -0.0478 -0.03074006 0.34010273 -0.0478 0.00157689 0.32484624 -0.0478 0.00432177 0.18185218 -0.0478 0.02864302 0.19635355 -0.0478 0.02871166 0.20529884 -0.0478 -0.00360461 0.18553731 -0.0478 -0.03136849 0.15891507 -0.0478 0 0.17615972 -0.0478 0.02982801 0.15925686 -0.0478 0.02864302 0.16764645 -0.0478 0.0385 0.17264442 -0.0478 0.0385 0.1964688 -0.0478 -0.02893019 0.20523557 -0.0478 -0.03020955 0.19552951 -0.0478 -0.0385 0.16428524 -0.0478 0.02563306 0.29837728 -0.0478 0.03044906 0.30265945 -0.0478 -0.00220789 0.3181985 -0.0478 0.02694178 0.34422147 -0.0478 0.03020955 0.33552951 -0.0478 0.0385 0.35363722 -0.0478 -0.0385 0.28962949 -0.0478 -0.03143872 0.30182466 -0.0478 0.03079958 0.23155676 -0.0478 0.02563306 0.22837728 -0.0478 -0.00220789 0.24819848 -0.0478 0.00422778 0.25181124 -0.0478 -0.02947262 0.23414594 -0.0478 -0.0287509 0.22858514 -0.0478 0.02839232 0.27541485 -0.0478 -0.02563306 0.27562273 -0.0478 -0.03124767 0.2751109 -0.0478 0.03172586 0.26914367 -0.0478 0.0385 0.23156114 -0.0478 -0.0385 0.35141954 -0.0478 0.0385 0.14755 -0.0478 0.028 0.152 -0.0478 -0.0385 0.15102799 -0.0478 0.03047817 0.41847169 -0.0478 -0.027225 0.43000001 -0.0478 -0.02015254 0.41015255 -0.0478 0.00545324 0.41741529 -0.0478 -0.03063143 0.41853115 -0.0478 -0.02741528 0.38454676 -0.0478 -0.0385 0.37652308 -0.0478 -0.03057196 0.36117825 -0.0478 0.00545324 0.36258471 -0.0478 -0.01552951 0.36675844 -0.0478 0.02324155 0.37447047 -0.0478 0.03057196 0.3607344 -0.0478 0.03832878 0.112 -0.0478 -0.01758318 0.13353115 -0.0478 -0.03188634 0.1405758 -0.0478 0.04 0.34594613 -0.0234276 0.04 0.32581604 -0.03659438 0.04 0.31557816 -0.02458363 0.04 0.31491968 -0.04114151 0.04 0.3356297 -0.04072198 0.04 0.33794844 -0.01987802 0.04 0.30476448 -0.02145603 0.04 0.32465848 -0.0194585 0.03217929 0.05380037 -0.0493 0.01967659 0.05224767 -0.0493 0.00603978 0.05690993 -0.0493 -0.03049534 0.05417182 -0.0493 0.03217929 0.03944179 -0.0493 -0.04 0.35865849 -0.0194585 -0.04 0.37229604 -0.02008764 -0.04 0.41691968 -0.04114151 -0.04 0.41710991 -0.02373674 -0.04 0.38176215 -0.02400561 -0.04 0.39381602 -0.03659438 -0.04 0.36881369 -0.03914396 -0.04 0.40648791 -0.02017736 -0.04 0.39300001 -0.0193 -0.04 0.359651 -0.03711285 -0.04 0.40328214 -0.04051236 -0.02853113 0.23735023 -0.0093 -0.02897824 0.22907497 -0.0093 0.00211824 0.24815688 -0.0093 -0.01676905 0.11037287 -0.0093 -0.0385747 0.08137722 -0.0093 -0.01938452 0.09031357 -0.0093 0.00220533 0.07661361 -0.0093 0.02665629 0.07300892 -0.0093 0.02091066 0.09222728 -0.0093 0.02750221 0.11947399 -0.0093 0.01676905 0.11037287 -0.0093 0 0.11844841 -0.0093 0.03643858 0.09713233 -0.0093 0.02015254 0.41015255 -0.0093 0.0294875 0.4180873 -0.0093 0.02846516 0.43000001 -0.0093 0.00545324 0.41741529 -0.0093 -0.01383026 0.43000001 -0.0093 -0.02015254 0.41015255 -0.0093 -0.0294875 0.4180873 -0.0093 -0.02741528 0.38454676 -0.0093 -0.04 0.37486249 -0.0093 -0.0305125 0.36191267 -0.0093 -0.02945348 0.34970334 -0.0093 -0.01090648 0.36366943 -0.0093 0.02015254 0.36984745 -0.0093 0.02955616 0.36165643 -0.0093 0.03256642 0.34033799 -0.0093 -0.04 0.32872564 -0.0093 -0.03156207 0.34204808 -0.0093 -0.04 0.35201249 -0.0093 0.00489106 0.18101293 -0.0093 0.0306343 0.1991774 -0.0093 -0.00224949 0.18547913 -0.0093 0.0285892 0.20565978 -0.0093 -0.02563306 0.20562273 -0.0093 -0.03123763 0.20236979 -0.0093 -0.04 0.16428524 -0.0093 -0.02895051 0.16757083 -0.0093 -0.03072279 0.1561923 -0.0093 0.00116799 0.32784027 -0.0093 0.00203143 0.318598 -0.0093 0.0289255 0.34983352 -0.0093 -0.00739721 0.32200003 -0.0093 -0.04 0.29564261 -0.0093 -0.03046563 0.30439627 -0.0093 -0.02917511 0.29830506 -0.0093 -0.02595155 0.27598122 -0.0093 -0.03076912 0.2722944 -0.0093 -0.00449898 0.25300333 -0.0093 0 0.25877899 -0.0093 0.03025748 0.26963189 -0.0093 0.02860473 0.30008018 -0.0093 0.02595155 0.27598122 -0.0093 0.02897502 0.22883327 -0.0093 0.04 0.27654299 -0.0093 -0.04 0.26895955 -0.0093 0.03269142 0.14011642 -0.0093 0.031475 0.14295933 -0.0093 0.02916799 0.15601599 -0.0093 0.02918028 0.16592902 -0.0093 -0.03186875 0.142207 -0.0093 -0.0108889 0.152 -0.0093 -0.04 0.13217726 -0.0093 -0.04 0.19097778 -0.0093 -0.0112267 -0.00028146 -0.0093 -0.03215527 0.03856936 -0.0093 -0.04 0.035625 -0.0093 -0.01967659 0.05322733 -0.0093 -0.03211367 0.05342421 -0.0093 -0.01793689 0.06530618 -0.0093 0.02031054 0.0529777 -0.0093 0.03183829 0.05288633 -0.0093 0.03186875 0.0375305 -0.0093 0.04 0.04793781 -0.0093 -0.00223287 -0.01015818 -0.0093 0.01014654 -0.00462589 -0.0093 -0.00160464 0.01088943 -0.0093 0.01134565 0.0056625 -0.0093 0.00706124 0.06086077 -0.0093 -0.03442161 0.11047149 -0.0093 -0.01793689 0.12869382 -0.0093 0.00759058 0.13328107 -0.0093 -0.03832878 0.082 -0.0478 -0.03240662 0.0537652 -0.0478 -0.02731156 0.06685217 -0.0478 -0.01969417 0.05306562 -0.0478 -0.01419452 0.0212436 -0.0478 0.01983829 0.05320974 -0.0478 -0.00603978 0.05690993 -0.0478 0.01207957 0.05781985 -0.0478 0.03832878 0.082 -0.0478 0.0099689 0.02406706 -0.0478 -0.03105616 0.02134357 -0.0478 -0.02406706 0.0099689 -0.0478 0.00498445 -0.02505853 -0.0478 -0.01560625 -0.01913079 -0.0478 -0.03159379 -0.02169362 -0.0478 0.0315 -0.02122465 -0.0478 0.0212436 -0.01419452 -0.0478 0.01842013 0.01842013 -0.0478 0.03166246 0.02169362 -0.0478 -0.0385 0.01378909 -0.0478 -0.03530683 0.03504102 -0.0478 0.03311091 0.03948983 -0.0478 0.02901427 0.3489216 -0.0108 0.02707649 0.33717757 -0.0108 -0.00116799 0.32784027 -0.0108 -0.03133633 0.15768458 -0.0108 -0.02864302 0.16764645 -0.0108 -0.00116799 0.17615972 -0.0108 0.0287509 0.22845389 -0.0108 0.0385 0.24863718 -0.0108 0.02809937 0.20552853 -0.0108 -0.0385 0.21699999 -0.0108 -0.02872045 0.20562461 -0.0108 -0.03444841 0.19977491 -0.0108 -0.02893019 0.22876443 -0.0108 -0.03925 0.112 -0.0108 -0.0385 0.17326303 -0.0108 -0.03180784 0.14262649 -0.0108 -0.028 0.152 -0.0108 0.03154534 0.14269683 -0.0108 0.02651445 0.12084924 -0.0108 0.02916799 0.15601599 -0.0108 0.0054472 0.152 -0.0108 -0.0039195 0.18208964 -0.0108 -0.0385 0.34904999 -0.0108 -0.0294875 0.36191267 -0.0108 0.01552951 0.36675844 -0.0108 0.00739721 0.32200003 -0.0108 -0.00360461 0.31875834 -0.0108 -0.03127884 0.34504333 -0.0108 0.0385 0.20130181 -0.0108 -0.0385 0.2431426 -0.0108 0.03025748 0.26963189 -0.0108 0.0287509 0.2984539 -0.0108 -0.03101384 0.27228436 -0.0108 -0.0385 0.287 -0.0108 -0.0283911 0.30011812 -0.0108 0.0385 0.31166184 -0.0108 -0.02595155 0.27598122 -0.0108 0.00290842 0.25520429 -0.0108 -0.00224949 0.24810883 -0.0108 0.02595155 0.27598122 -0.0108 0.0306343 0.2348226 -0.0108 0.02853113 0.30735022 -0.0108 0.00229109 0.18562222 -0.0108 -0.02895051 0.33642918 -0.0108 0.03048369 0.16485633 -0.0108 -0.02741528 0.38454676 -0.0108 -0.02987188 0.41856548 -0.0108 0.02987188 0.41856548 -0.0108 0.02015254 0.41015255 -0.0108 0.00900865 0.43000001 -0.0108 0.03025625 0.361844 -0.0108 -0.02324155 0.4055295 -0.0108 -0.027225 0.43000001 -0.0108 -0.00545324 0.41741529 -0.0108 0 0.11844841 -0.0108 0.01676905 0.11037287 -0.0108 0.02651445 0.07392575 -0.0108 0.02776687 0.11906749 -0.0108 0.02091066 0.09222728 -0.0108 0.00930612 0.07767564 -0.0108 -0.03700835 0.08096015 -0.0108 -0.02036599 0.09461364 -0.0108 -0.00930612 0.07767564 -0.0108 -0.03168946 0.03868946 -0.0108 -0.01134565 0.0056625 -0.0108 -0.01793689 0.12869382 -0.0108 -0.03201758 0.05329296 -0.0108 -0.01793689 0.06530618 -0.0108 0.03244179 0.05317929 -0.0108 0.03186875 0.0375305 -0.0108 0.03783305 0.08934345 -0.0108 0.0385 0.02525 -0.0108 -0.02015254 0.36984745 -0.0108 0.00759058 0.1326099 -0.0108 -0.01968946 0.0535027 -0.0108 0.00742279 0.06095764 -0.0108 0.019659 0.05244454 -0.0108 0.00056292 0.01310083 -0.0108 0.01014654 0.00462589 -0.0108 0.0385 -0.00235625 -0.0108 -0.00162641 -0.01020172 -0.0108 -0.01110774 -0.00509958 -0.0108 0.01195211 -0.00615 -0.0108 -0.00349699 0.06736434 -0.0498 0.01575927 0.08054443 -0.0498 -0.01478111 0.0822183 -0.0498 -0.00452014 0.1243715 -0.0498 -0.01526087 0.11262678 -0.0498 0.01857541 0.11669512 -0.0498 0.02864926 0.0970204 -0.0498 -0.02505897 0.1039994 -0.0498 -0.00349699 0.06736434 -0.05138616 -0.01360026 0.08232471 -0.05138616 0.00690717 0.06778832 -0.05138616 -0.024168 0.09354308 -0.05138616 -0.01809312 0.11549988 -0.05138616 0.02132777 0.11353417 -0.05138616 0.02903334 0.09132713 -0.05138616 0.015525 0.08126052 -0.05138616 0.00151218 0.12560466 -0.05138616 -0.02574512 0.10418651 -0.04982966 -0.03463766 0.09034553 -0.04982966 -0.03454492 0.10424522 -0.04982966 0.02628882 0.08959503 -0.04982966 0.03518135 0.10343602 -0.04982966 0.03508862 0.08953633 -0.04982966 -0.00336414 0.11484988 -0.0153 -0.01761677 0.10012534 -0.0153 -0.03392126 0.097 -0.0153 -0.02895533 0.07913467 -0.0153 0.00595669 0.06321794 -0.0153 -0.01538891 0.06627487 -0.0153 0.00597848 0.13075419 -0.0153 0.0275861 0.11749049 -0.0153 0.0303284 0.08063668 -0.0153 0.02377173 0.07035478 -0.0153 0.03440447 0.09914108 -0.0153 -0.03009979 0.11583055 -0.0153 -0.01716674 0.12674996 -0.0153 -0.00598212 0.13181391 -0.0153 0.01057202 0.11177052 -0.0153 0.01742869 0.09332388 -0.0153 -0.01366556 0.08503386 -0.0153 0.00816166 0.08107814 -0.0153 -0.02394443 0.12447509 -0.0138 -0.01822788 0.1089828 -0.0138 0.00273703 0.11701664 -0.0138 -0.00738901 0.07647572 -0.0138 -0.03617922 0.10340473 -0.0138 0.03004266 0.11889487 -0.0138 0.01822788 0.0850172 -0.0138 -0.0239156 0.06811056 -0.0138 0.00053514 0.05969222 -0.0138 -0.00018329 0.13392928 -0.0138 0.03711435 0.09065366 -0.0138 -0.03380254 0.08163114 -0.0138 0.02409675 0.06880372 -0.0138 -0.03652557 0.08859088 -0.0403 -0.0323377 0.11526191 -0.0403 -0.03425732 0.10012987 -0.0403 -0.03261034 0.07963872 -0.0403 -0.03341233 0.11074972 -0.0403 -0.03883038 0.09743281 -0.0403 0.03365526 0.09791598 -0.0418 0.03628621 0.08234357 -0.0418 0.02586109 0.07415868 -0.0418 -0.0046305 0.0580241 -0.0418 -0.0191956 0.06508494 -0.0418 0.00696316 0.06349664 -0.0418 0.02600284 0.11869311 -0.0418 0.01359584 0.12939234 -0.0418 0.03615049 0.11197402 -0.0418 -0.01743223 0.12687136 -0.0418 0.00596762 0.13348076 -0.0418 -0.02938761 0.12209938 -0.0418 -0.03072471 0.11124928 -0.0418 -0.03891938 0.09875142 -0.0418 -0.03298109 0.08470944 -0.0418 -0.00915565 0.08509499 -0.0418 -0.02121967 0.0772474 -0.0418 -0.02542342 0.10319994 -0.0418 -0.01638622 0.11243388 -0.0418 -0.00748677 0.10298757 -0.0418 -0.00491814 0.11614408 -0.0418 -0.01467561 0.1233293 -0.0418 0.00326796 0.11799746 -0.0418 0.01097087 0.12531908 -0.0418 0.01984471 0.11523554 -0.0418 0.00859159 0.10700604 -0.0418 -0.02283392 0.11663727 -0.0398 0.01238807 0.12722184 -0.0398 -0.00283683 0.1297543 -0.0398 0.0052405 0.11498447 -0.0398 -0.005956 0.11440571 -0.0398 -0.02458352 0.08850833 -0.0398 -0.02019242 0.07238487 -0.0398 -0.01016412 0.09601653 -0.0398 0.02652412 0.1124284 -0.0398 0.01058246 0.1019256 -0.0398 0.02025962 0.07720236 -0.0418 0.01465598 0.08245182 -0.0418 0.01038005 0.09236583 -0.0418 0.00099039 0.10870766 -0.0098 -0.0142126 0.10086208 -0.0098 -0.00687875 0.0890194 -0.0098 0.0077287 0.08882979 -0.0098 0.01206944 0.10013247 -0.0098 -0.01116486 0.09023017 -0.0153 -0.001281 0.0960834 -0.0153 -0.00139275 0.08325352 -0.0153 -0.00594806 0.1085355 -0.0153 0.01172764 0.10367845 -0.0153 0.0107085 0.08834778 -0.0153 0.00807858 0.12653187 -0.0553 0.01741185 0.11411528 -0.0553 0.01741726 0.07989524 -0.0553 0.03081043 0.1022376 -0.0553 0.02943305 0.08716264 -0.0553 0.00983736 0.06756695 -0.0553 -0.0052376 0.06618957 -0.0553 -0.01727968 0.11418861 -0.0553 -0.02953187 0.08892141 -0.0553 -0.01314684 0.12527438 -0.0553 -0.01719975 0.07966247 -0.0553 -0.02827438 0.11014684 -0.0553 0.02975613 0.08830675 -0.0543 0.02425503 0.11630528 -0.0543 0.01676093 0.11376093 -0.0543 -0.02971125 0.10584542 -0.0543 -0.02425503 0.07769472 -0.0543 -0.01676093 0.08023906 -0.0543 -0.01618169 0.11412489 -0.0543 0.00884542 0.06728875 -0.0543 0.01782198 0.08168826 -0.0543 0.00386511 0.12723167 -0.0543 -0.01518855 0.12354906 -0.0543 0.01930528 0.12125503 -0.0543 -0.01930528 0.07274497 -0.0543 0.0385 0.3565 -0.0478 0.0385 0.3677367 -0.04221132 0.0385 0.3565 -0.0198 0.0385 0.368 -0.0254 0.0385 0.4235 -0.0198 0.0385 0.412 -0.0254 0.0385 0.4235 -0.0478 0.0385 0.412 -0.0423 -0.0335 0.3515 -0.0478 -0.02226331 0.3515 -0.04221132 -0.0335 0.3515 -0.0198 -0.02226331 0.3515 -0.02538867 0.0335 0.3515 -0.0198 0.02226331 0.3515 -0.02538867 0.0335 0.3515 -0.0478 0.02226331 0.3515 -0.04221132 -0.0385 0.4235 -0.0478 -0.0385 0.412 -0.0423 -0.0385 0.4235 -0.0198 -0.0385 0.412 -0.0254 -0.0385 0.3565 -0.0198 -0.0385 0.368 -0.0254 -0.0385 0.3565 -0.0478 -0.0385 0.3677367 -0.04221132 -0.0335 0.4285 -0.0478 -0.0335 0.4285 -0.0198 0.0335 0.4285 -0.0198 0.0335 0.4285 -0.0478 -0.03003433 0.36053762 -0.0478 -0.01441958 0.36409372 -0.0478 0.01676299 0.36554471 -0.0478 -0.03668112 0.42576936 -0.0478 -0.02712624 0.37803227 -0.0478 -0.03576937 0.35331887 -0.0478 0.02712624 0.37803227 -0.0478 0.02946237 0.35996565 -0.0478 0.03668112 0.35423064 -0.0478 0.03003433 0.41946235 -0.0478 0.02712624 0.40196773 -0.0478 0.03576937 0.42668113 -0.0478 0.01676299 0.41445529 -0.0478 -0.02946237 0.42003432 -0.0478 -0.02712624 0.40196773 -0.0478 -0.01441958 0.41590628 -0.0478 0.02946237 0.42003432 -0.0198 0.02712624 0.40196773 -0.0198 0.02712624 0.37803227 -0.0198 -0.03576937 0.42668113 -0.0198 -0.01676299 0.41445529 -0.0198 0.01441958 0.41590628 -0.0198 0.03668112 0.42576936 -0.0198 0.03003433 0.36053762 -0.0198 0.03576937 0.35331887 -0.0198 -0.01676299 0.36554471 -0.0198 0.01441958 0.36409372 -0.0198 -0.02946237 0.35996565 -0.0198 -0.03668112 0.35423064 -0.0198 -0.02712624 0.37803227 -0.0198 -0.03003433 0.41946235 -0.0198 -0.02712624 0.40196773 -0.0198 -0.021 0.3515 -0.0243 -0.01839648 0.36653459 -0.0243 -0.00270931 0.36076185 -0.0243 0.021 0.3515 -0.0243 0.01715755 0.36591768 -0.0243 -0.00270931 0.36076185 -0.0433 -0.01839648 0.36653459 -0.0433 -0.021 0.3515 -0.0433 0.01715755 0.36591768 -0.0433 0.021 0.3515 -0.0433 -0.02873627 0.39197078 -0.0244 -0.0385 0.41100001 -0.0244 -0.02142429 0.41100001 -0.0244 -0.0385 0.36899999 -0.0244 -0.02217898 0.36899999 -0.0244 -0.0385 0.36899999 -0.0433 -0.02476672 0.37478471 -0.0433 -0.0385 0.41100001 -0.0433 -0.02476672 0.40521529 -0.0433 -0.0385 0.41299999 -0.0413 -0.01926136 0.41299999 -0.0413 -0.0385 0.41299999 -0.0264 -0.01926136 0.41299999 -0.0264 0.0385 0.41299999 -0.0264 0.01926136 0.41299999 -0.0264 0.0385 0.41299999 -0.0413 0.01926136 0.41299999 -0.0413 0.0385 0.41100001 -0.0433 0.02476672 0.40521529 -0.0433 0.0385 0.36899999 -0.0433 0.02476672 0.37478471 -0.0433 0.0385 0.36899999 -0.0244 0.02577119 0.37695518 -0.0244 0.0385 0.41100001 -0.0244 0.02476672 0.40521529 -0.0244 0.01879931 0.20190001 -0.0478 -0.01960899 0.20001286 -0.0478 0.0335 0.211 -0.0478 0.00279811 0.18393405 -0.0478 0.0299 0.19620712 -0.0478 -0.00437501 0.17962413 -0.0478 0.03058298 0.16149873 -0.0478 -0.03647836 0.20840484 -0.0478 -0.03032892 0.19948182 -0.0478 -0.0385 0.16419369 -0.0478 -0.03188634 0.15957579 -0.0478 -0.02513352 0.13981047 -0.0478 -0.03506061 0.12909786 -0.0478 0 0.14334568 -0.0478 -0.01881544 0.1621 -0.0478 0.02725977 0.13792792 -0.0478 0.0385 0.12909786 -0.0478 -0.0025899 0.17898497 -0.0138 0.0038925 0.18444474 -0.0138 -0.0338928 0.2064635 -0.0138 -0.02822158 0.19732605 -0.0138 -0.01879931 0.20190001 -0.0138 0.0335 0.211 -0.0138 0.03039926 0.20169321 -0.0138 -0.02833347 0.16697019 -0.0138 -0.01881544 0.1621 -0.0138 -0.0385 0.1684761 -0.0138 0.01955624 0.16361135 -0.0138 0 0.14334568 -0.0138 0.0310924 0.16151792 -0.0138 -0.03177267 0.15915158 -0.0138 -0.02503744 0.13958314 -0.0138 0.03559233 0.14323469 -0.0138 0.03506061 0.12909786 -0.0138 0.0385 0.17466947 -0.0138 -0.03506061 0.12909786 -0.0138 0.0385 0.16609786 -0.0198 0.0385 0.12909786 -0.0138 0.0385 0.16609786 -0.0418 0.0385 0.1965 -0.0423 0.0385 0.206 -0.0478 0.0385 0.206 -0.0138 0.0385 0.1965 -0.0193 -0.0385 0.206 -0.0138 -0.0385 0.206 -0.0478 -0.0385 0.1965 -0.0423 -0.0385 0.1965 -0.0193 -0.0385 0.16609786 -0.0198 -0.0385 0.12909786 -0.0138 -0.0385 0.16609786 -0.0418 -0.0385 0.12909786 -0.0478 0.026 0.211 -0.0193 0.026 0.211 -0.0423 0.007 0.211 -0.0418 0.007 0.211 -0.0198 -0.00552555 0.211 -0.0168 -0.007 0.211 -0.0418 -0.0335 0.211 -0.0138 -0.026 0.211 -0.0193 -0.0335 0.211 -0.0478 -0.026 0.211 -0.0423 -0.02676694 0.19785386 -0.0478 -0.0255 0.19698283 -0.0428 -0.02676694 0.19785386 -0.0138 -0.0255 0.19698283 -0.0188 0.007 0.1621 -0.0418 0.01879931 0.1621 -0.0453 -0.01881544 0.1621 -0.0453 -0.01881544 0.1621 -0.0163 0.01879931 0.1621 -0.0163 0.007 0.1621 -0.0198 -0.007 0.1621 -0.0418 -0.007 0.1621 -0.0198 -0.01879931 0.20190001 -0.0453 0.01879931 0.20190001 -0.0453 0.007 0.20190001 -0.0418 0.007 0.20190001 -0.0198 0.01879931 0.20190001 -0.0163 -0.01879931 0.20190001 -0.0163 -0.007 0.20190001 -0.0198 -0.007 0.20190001 -0.0418 0.02676718 0.19785535 -0.0138 0.0255 0.19698444 -0.0188 0.0255 0.19698444 -0.0428 0.02676718 0.19785535 -0.0478 -0.008 0.14321193 -0.0428 -0.008 0.1621 -0.0428 -0.02240089 0.1646217 -0.0428 -0.0255 0.1351053 -0.0428 -0.0265 0.16609786 -0.0198 -0.0265 0.13428497 -0.0198 -0.0265 0.16609786 -0.0418 -0.0265 0.13428497 -0.0418 -0.0255 0.1351053 -0.0188 -0.02249178 0.16470841 -0.0188 -0.008 0.14321193 -0.0188 -0.008 0.1621 -0.0188 -0.007 0.14339802 -0.0418 -0.007 0.14339802 -0.0198 0.0255 0.1351053 -0.0428 0.0224837 0.16470838 -0.0428 0.008 0.14321193 -0.0428 0.008 0.1621 -0.0428 0.007 0.14339802 -0.0198 0.007 0.14339802 -0.0418 0.008 0.14321193 -0.0188 0.008 0.1621 -0.0188 0.02239281 0.16462168 -0.0188 0.0255 0.1351053 -0.0188 0.0265 0.16609786 -0.0418 0.0265 0.13428497 -0.0418 0.0265 0.16609786 -0.0198 0.0265 0.13428497 -0.0198 0.0265 0.211 -0.0418 0.0265 0.19767173 -0.0418 0.0265 0.211 -0.0198 0.0265 0.19767173 -0.0198 0.008 0.20190001 -0.0188 0.008 0.211 -0.0188 0.02269514 0.19861165 -0.0188 0.0255 0.211 -0.0188 0.008 0.211 -0.0428 0.008 0.20190001 -0.0428 0.0255 0.211 -0.0428 0.02252812 0.19868654 -0.0428 -0.007 0.211 -0.0198 -0.008 0.211 -0.0188 -0.008 0.20190001 -0.0188 -0.0255 0.211 -0.0188 -0.02252812 0.19868574 -0.0188 -0.0265 0.211 -0.0198 -0.0265 0.19767034 -0.0198 -0.0265 0.211 -0.0418 -0.0265 0.19767034 -0.0418 -0.008 0.20190001 -0.0428 -0.008 0.211 -0.0428 -0.02269514 0.19861084 -0.0428 -0.0255 0.211 -0.0428 -0.0385 0.19599999 -0.0188 -0.0299 0.19599999 -0.0188 -0.02983743 0.16744605 -0.0188 -0.0299 0.19599999 -0.0428 -0.0385 0.19599999 -0.0428 -0.02983743 0.16744605 -0.0428 -0.0385 0.197 -0.0418 -0.02973554 0.197 -0.0418 -0.0385 0.197 -0.0198 -0.02973554 0.197 -0.0198 -0.02895943 0.16609786 -0.0198 -0.02895943 0.16609786 -0.0418 0.0299 0.19599999 -0.0188 0.0385 0.19599999 -0.0188 0.02983743 0.16744605 -0.0188 0.0385 0.19599999 -0.0428 0.0299 0.19599999 -0.0428 0.02983743 0.16744605 -0.0428 0.0385 0.197 -0.0198 0.02973612 0.197 -0.0198 0.0385 0.197 -0.0418 0.02973612 0.197 -0.0418 0.02895943 0.16609786 -0.0418 0.02895943 0.16609786 -0.0198 -0.0335 0.29300001 -0.0478 -0.025 0.29300001 -0.0423 -0.0335 0.29300001 -0.0138 -0.025 0.29300001 -0.0193 -0.009 0.29300001 -0.0198 0.00791199 0.29300001 -0.01657306 0.009 0.29300001 -0.0418 0.025 0.29300001 -0.0193 0.0335 0.29300001 -0.0138 0.0335 0.29300001 -0.0478 0.025 0.29300001 -0.0423 -0.01071462 0.29300001 -0.0448 0.0335 0.35100001 -0.0478 -0.00932322 0.35100001 -0.04222678 0.009 0.35100001 -0.0418 0.025 0.35100001 -0.0423 0.0335 0.35100001 -0.0138 0.025 0.35100001 -0.0193 -0.00652555 0.35100001 -0.0168 0.00936378 0.35100001 -0.01934613 -0.025 0.35100001 -0.0193 -0.0335 0.35100001 -0.0138 -0.025 0.35100001 -0.0423 -0.0335 0.35100001 -0.0478 0.009 0.3021 -0.0418 0.01879931 0.3021 -0.0453 -0.01881544 0.3021 -0.0453 -0.009 0.3021 -0.0198 -0.01881544 0.3021 -0.0163 0.01879931 0.3021 -0.0138 0.009 0.3021 -0.0198 -0.009 0.3021 -0.0418 -0.01879931 0.34189999 -0.0453 0.01879931 0.34189999 -0.0453 0.009 0.34189999 -0.0418 0.009 0.34189999 -0.0198 0.01879931 0.34189999 -0.0163 -0.01879931 0.34189999 -0.0163 -0.009 0.34189999 -0.0198 -0.009 0.34189999 -0.0418 0.01879931 0.34189999 -0.0478 0.0299 0.33620712 -0.0478 0.00279811 0.32393405 -0.0478 -0.03079301 0.34413126 -0.0478 0.03676784 0.34271064 -0.0478 0.00142569 0.31828043 -0.0478 0.01879931 0.3021 -0.0478 0.02893944 0.30700028 -0.0478 -0.03222733 0.30084842 -0.0478 -0.01881544 0.3021 -0.0478 0.03486224 0.29346126 -0.0478 -0.03628805 0.29463845 -0.0478 -0.0299 0.30779421 -0.0478 0.03512754 0.30187511 -0.0478 0.0385 0.32539186 -0.0478 -0.0025899 0.31898499 -0.0138 0.0038925 0.32444474 -0.0138 -0.03032892 0.3394818 -0.0138 0.02967625 0.33679953 -0.0138 0.01879931 0.34189999 -0.0138 -0.01928562 0.34177378 -0.0138 -0.03647836 0.29559517 -0.0138 -0.03014272 0.30315053 -0.0138 0.03519317 0.30176145 -0.0138 0.0299 0.30779421 -0.0138 0.0385 0.33912998 -0.0138 0.0385 0.32539186 -0.0138 0.03404661 0.34692508 -0.0138 0.0385 0.29800001 -0.0138 0.0385 0.29800001 -0.0478 0.0385 0.30849999 -0.0423 0.0385 0.30849999 -0.0193 0.0385 0.34599999 -0.0138 0.0385 0.3355 -0.0193 0.0385 0.34599999 -0.0478 0.0385 0.3355 -0.0423 -0.0385 0.34599999 -0.0138 -0.0385 0.34599999 -0.0478 -0.0385 0.3355 -0.0423 -0.0385 0.3355 -0.0193 -0.0385 0.29800001 -0.0138 -0.0385 0.30849999 -0.0193 -0.0385 0.29800001 -0.0478 -0.0385 0.30849999 -0.0423 -0.02220318 0.30573297 -0.0188 -0.01 0.29755002 -0.0188 -0.0245 0.29300001 -0.0188 -0.0245 0.29300001 -0.0428 -0.01 0.29755002 -0.0428 -0.02206251 0.30584595 -0.0428 -0.009 0.29300001 -0.0418 -0.0255 0.29300001 -0.0418 -0.0255 0.30701718 -0.0418 -0.0255 0.29300001 -0.0198 -0.0255 0.30701718 -0.0198 0.0245 0.29300001 -0.0188 0.01 0.29755002 -0.0188 0.0220545 0.30584592 -0.0188 0.02219514 0.30573291 -0.0428 0.01 0.29755002 -0.0428 0.0245 0.29300001 -0.0428 0.0255 0.29300001 -0.0198 0.0255 0.30701718 -0.0198 0.0255 0.29300001 -0.0418 0.0255 0.30701718 -0.0418 0.009 0.29300001 -0.0198 0.009 0.35100001 -0.0198 0.0255 0.35100001 -0.0418 0.0255 0.33698446 -0.0418 0.0255 0.35100001 -0.0198 0.0255 0.33698446 -0.0198 0.0245 0.35100001 -0.0428 0.01 0.34645 -0.0428 0.0220545 0.338155 -0.0428 0.02219514 0.33826801 -0.0188 0.01 0.34645 -0.0188 0.0245 0.35100001 -0.0188 -0.0255 0.35100001 -0.0418 -0.0255 0.35100001 -0.0198 -0.0255 0.33698285 -0.0418 -0.0255 0.33698285 -0.0198 -0.009 0.35100001 -0.0418 -0.009 0.35100001 -0.0198 -0.0245 0.35100001 -0.0188 -0.01 0.34645 -0.0188 -0.0220545 0.33815408 -0.0188 -0.02219514 0.33826709 -0.0428 -0.01 0.34645 -0.0428 -0.0245 0.35100001 -0.0428 -0.0385 0.336 -0.0418 -0.0299 0.336 -0.0418 -0.0385 0.336 -0.0198 -0.0299 0.336 -0.0198 -0.0385 0.33500001 -0.0188 -0.0299 0.33500001 -0.0188 -0.0385 0.30899999 -0.0188 -0.0299 0.30899999 -0.0188 -0.0385 0.308 -0.0198 -0.0299 0.308 -0.0198 -0.0385 0.308 -0.0418 -0.0299 0.308 -0.0418 -0.0385 0.30899999 -0.0428 -0.0299 0.30899999 -0.0428 -0.0385 0.33500001 -0.0428 -0.0299 0.33500001 -0.0428 0.0385 0.33500001 -0.0428 0.0299 0.33500001 -0.0428 0.0385 0.30899999 -0.0428 0.0299 0.30899999 -0.0428 0.0385 0.308 -0.0418 0.0299 0.308 -0.0418 0.0385 0.308 -0.0198 0.0299 0.308 -0.0198 0.0385 0.30899999 -0.0188 0.0299 0.30899999 -0.0188 0.0385 0.33500001 -0.0188 0.0299 0.33500001 -0.0188 0.0385 0.336 -0.0198 0.0299 0.336 -0.0198 0.0385 0.336 -0.0418 0.0299 0.336 -0.0418 0.0385 0.042 -0.0138 0.0385 0.042 -0.0478 0.0385 0.071 -0.0138 0.0385 0.071 -0.0478 -0.0285 0.032 -0.0478 -0.01061717 0.032 -0.03519778 -0.0285 0.032 -0.0138 -0.00973849 0.032 -0.0242809 0.006 0.032 -0.0204077 0.0285 0.032 -0.0138 0.01139363 0.032 -0.0293 0.0285 0.032 -0.0478 0.00848528 0.032 -0.03928528 -0.00222354 0.032 -0.04189393 -0.0385 0.042 -0.0478 -0.0385 0.042 -0.0138 -0.0385 0.071 -0.0478 -0.0385 0.071 -0.0138 -0.01706369 0.05581744 -0.0478 -0.01706369 0.05581744 -0.0138 -0.012 0.05389328 -0.0308 0.01706369 0.05581744 -0.0478 0.012 0.05389328 -0.0308 0.01706369 0.05581744 -0.0138 0.03411686 0.03809864 -0.0478 0.03162383 0.05355546 -0.0478 0.03651763 0.071 -0.0478 0.01965554 0.0547361 -0.0478 -0.01884213 0.05344783 -0.0478 -0.03262108 0.05362108 -0.0478 -0.03225996 0.03686926 -0.0478 -0.01965555 0.0547361 -0.0138 -0.03743283 0.03898223 -0.0138 -0.03651763 0.071 -0.0138 -0.03211366 0.05280313 -0.0138 0.020525 0.05495933 -0.0138 0.03462372 0.03587627 -0.0138 0.0313965 0.05355546 -0.0138 -0.038 0.35699999 -0.0198 -0.038 0.35699999 -0.0138 -0.038 0.42300001 -0.0198 -0.038 0.42300001 -0.0138 -0.033 0.352 -0.0138 -0.033 0.352 -0.0198 0.033 0.352 -0.0168 0.038 0.42300001 -0.0198 0.038 0.42300001 -0.0138 0.038 0.35699999 -0.0168 -0.033 0.428 -0.0198 -0.033 0.428 -0.0138 0.033 0.428 -0.0138 0.033 0.428 -0.0198 -0.03037181 0.41967171 -0.0138 0.00070545 0.42506483 -0.0138 -0.03526936 0.42618114 -0.0138 -0.03506484 0.39070544 -0.0138 -0.01828817 0.41611823 -0.0138 0.02967172 0.4203718 -0.0138 0.03753873 0.35563776 -0.0138 0.03618112 0.42526937 -0.0138 0.02190392 0.41284499 -0.0138 0.03176313 0.3927789 -0.0138 0.02284499 0.36809605 -0.0138 0.03037181 0.36032826 -0.0138 -0.03436224 0.35246128 -0.0138 -0.00545196 0.35944697 -0.0138 -0.02967172 0.3596282 -0.0138 -0.02611822 0.37171182 -0.0138 0.02946237 0.35996565 -0.0198 -0.03526936 0.35381889 -0.0198 0.03618112 0.35473064 -0.0198 0.03003433 0.41946235 -0.0198 0.03526936 0.42618114 -0.0198 -0.02946237 0.42003432 -0.0198 -0.03618112 0.42526937 -0.0198 -0.03003433 0.36053762 -0.0198 0.01006013 0.10376976 -0.0023 0.01715732 0.0804671 -0.0023 0.02420204 0.09993866 -0.0023 0.01411993 0.11570591 -0.0023 -0.01237441 0.09317179 -0.0023 -0.01303017 0.07639444 -0.0023 0.00196176 0.07269926 -0.0023 -0.02354624 0.09470594 -0.0023 -0.01221014 0.11723845 -0.0023 0.00519771 0.08710361 -0.0023 -0.00583482 0.1071062 -0.0023 0.00786576 0.08566256 -0.0098 -0.00344332 0.08051036 -0.0098 0.00882309 0.1113714 -0.0098 0.012849 0.10297745 -0.0098 -0.0139868 0.09494615 -0.0098 -0.00959631 0.10843809 -0.0098 0.0091492 0.11158701 -0.0053 0.01891328 0.122169 -0.0053 0.01654365 0.0971716 -0.0053 0.03024017 0.10575917 -0.0053 -0.00657586 0.11193381 -0.0053 -0 0.12848319 -0.0053 -0.01891328 0.122169 -0.0053 0.00492268 0.08144276 -0.0053 0.01682669 0.07039072 -0.0053 -0.00253334 0.0656189 -0.0053 -0.0106727 0.0834877 -0.0053 0.02943729 0.0858359 -0.0053 -0.03008102 0.08695088 -0.0053 -0.01717456 0.09823419 -0.0053 -0.02006296 0.07243722 -0.0053 -0.03024017 0.10575917 -0.0053 -0.02179032 0.09217543 0.0097 -0.01051409 0.09087525 0.0097 -0.00761205 0.10441045 0.0097 -0.01498839 0.08117004 0.0097 -0.01808626 0.10856283 0.0097 -0.01088095 0.1166117 0.0097 0.01102817 0.10437011 0.0097 0.01519685 0.11225329 0.0097 -0.00087132 0.11412092 0.0097 0.021621 0.09697394 0.0097 0.0162663 0.08283577 0.0097 0.00574821 0.08775287 0.0097 -0.00079919 0.07513701 0.0097 -0.02124883 0.09674978 -0.0023 -0.01189679 0.09113438 -0.0023 -0.01507017 0.08054389 -0.0023 -0.00140596 0.07462583 -0.0023 0.00497833 0.0879295 -0.0023 0.0159997 0.08241326 -0.0023 0.01016966 0.10286316 -0.0023 0.0209107 0.10330395 -0.0023 0.00957889 0.11523663 -0.0023 -0.01610643 0.11212421 -0.0023 -0.01045467 0.10470122 -0.0023 -0.00197517 0.11352181 -0.0023 -0.01341216 0.10757723 -0.0093 -0.0228572 0.1058511 -0.0093 -0.00488216 0.12177592 -0.0093 0.00219498 0.11412884 -0.0093 -0.01722794 0.09581113 -0.0093 -0.01653511 0.07851653 -0.0093 -0.00775741 0.08178204 -0.0093 0.00452703 0.08033503 -0.0093 0.02141738 0.08449622 -0.0093 0.00344916 0.07165352 -0.0093 0.0142261 0.11825933 -0.0093 0.01546158 0.10469122 -0.0093 0.01643895 0.09236052 -0.0093 0.02414433 0.1054494 -0.0093 0.00285959 0.0799695 -0.0053 -0.01422258 0.07668334 -0.0053 0.00747035 0.07253503 -0.0053 0.01341216 0.08642276 -0.0053 0.01614539 0.10312713 -0.0053 0.02275096 0.0871287 -0.0053 0.02247629 0.10921301 -0.0053 0.00775741 0.11221796 -0.0053 -0.01299058 0.08590907 -0.0053 -0.01726115 0.09751785 -0.0053 -0.01612573 0.11545953 -0.0053 -0.02546481 0.09457424 -0.0053 -0.00915921 0.11163982 -0.0053 0.00376138 0.12249258 -0.0053 0.02654932 0.38911873 -0.0208 0.01897979 0.39624083 -0.0208 0.02128143 0.40622288 -0.0208 0.01834265 0.37123501 -0.0208 0.0168719 0.38040784 -0.0208 0.00547743 0.37063873 -0.0208 0.00127247 0.36327058 -0.0208 -0.01933927 0.37115875 -0.0208 -0.01920869 0.39968899 -0.0208 0.01046095 0.41052076 -0.0208 -0.0024435 0.41350338 -0.0208 -0.01337524 0.41277429 -0.0208 -0.0235103 0.38701767 -0.0208 0.01907362 0.39558688 -0.0178 0.02504483 0.38237539 -0.0178 0.02175407 0.40524477 -0.0178 0.00823295 0.4152559 -0.0178 0.00796359 0.40657339 -0.0178 0.01149339 0.37586024 -0.0178 0.0109893 0.36599928 -0.0178 -0.01938876 0.40230012 -0.0178 -0.02129097 0.37966937 -0.0178 -0.01215914 0.37039605 -0.0178 -0.02641086 0.38982135 -0.0178 -0.00994957 0.41149038 -0.0178 -0.04 0.0585 -0.0583 -0.04 0.0585 -0.0493 -0.04 0.112 -0.0523 -0.04 0.13968782 -0.0583 -0.04 0.13968782 -0.0493 -0.0241917 0.07663867 -0.0493 -0.03 0.0585 -0.0493 0.0241917 0.07663867 -0.0493 0.04 0.0585 -0.0493 0.03 0.0585 -0.0493 0.01811101 0.0527375 -0.0493 -0.01892425 0.05283358 -0.0493 -0.02683216 0.045139 -0.0493 0.02683216 0.045139 -0.0493 0 0.06515114 -0.0493 0.03075784 0.13975784 -0.0583 0.04 0.13968782 -0.0583 0.04 0.0585 -0.0583 -0.03117733 0.14015159 -0.0583 -0.018975 0.05682535 -0.0583 -0.03 0.0585 -0.0583 -0.01577994 0.15318929 -0.0583 0.00788997 0.15427616 -0.0583 0.02140018 0.05645017 -0.0583 -0.01719965 0.05019965 -0.0583 0.01631197 0.0524875 -0.0583 0.02683216 0.045139 -0.0583 0.03 0.0585 -0.0583 -0.02683216 0.045139 -0.0583 0.04 0.112 -0.0523 0.04 0.13968782 -0.0493 0.03153591 0.14024767 -0.0493 0.02900039 0.112 -0.0493 0.04 0.112 -0.0493 0.01577994 0.15318929 -0.0493 -0.00788997 0.15427616 -0.0493 -0.03073209 0.14064142 -0.0493 -0.04 0.112 -0.0493 -0.02900039 0.112 -0.0493 0.0109923 0.12727419 -0.0493 -0.0109923 0.12727419 -0.0493 -0.02319807 0.11974584 -0.0553 -0.02900039 0.112 -0.0553 0 0.06451118 -0.0553 0.04 0.082 -0.0553 0.04 0.112 -0.0553 0.02900039 0.082 -0.0553 0.02900039 0.112 -0.0553 -0.04 0.112 -0.0553 -0.04 0.082 -0.0553 0.02319807 0.11974584 -0.0553 0.0125805 0.06704579 -0.0553 0.0125805 0.1269542 -0.0553 -0.02900039 0.082 -0.0553 -0.0125805 0.06704579 -0.0553 0 0.12948883 -0.0553 -0.0125805 0.1269542 -0.0553 0.02366432 0.0435 -0.0493 -0.02366432 0.0435 -0.0493 0.02366432 0.0435 -0.0583 -0.02366432 0.0435 -0.0583 0.01695592 0.37235764 -0.0108 0.02327599 0.36807659 -0.0108 0.02400307 0.39005852 -0.0108 0.03184357 0.3851504 -0.0108 -0.02875252 0.37601072 -0.0108 -0.01458205 0.36154351 -0.0108 0.00064499 0.36553901 -0.0108 0.0054375 0.35849062 -0.0108 -0.02143641 0.41372526 -0.0108 -0.03138995 0.39608923 -0.0108 -0.0233507 0.38268557 -0.0108 0.01682456 0.41719085 -0.0108 -0.00288442 0.42184475 -0.0108 -0.01342544 0.41045761 -0.0108 0.0295109 0.40290883 -0.0108 0.01600261 0.40851143 -0.0108 0.0082349 0.41304219 -0.0178 0.01224496 0.41953757 -0.0178 0.02191812 0.39978504 -0.0178 0.02868113 0.40189207 -0.0178 -0.00982847 0.35957289 -0.0178 -0.02613615 0.37157965 -0.0178 -0.02429714 0.38710079 -0.0178 -0.03196024 0.39097506 -0.0178 0.0105655 0.36766553 -0.0178 0.01042155 0.35977089 -0.0178 -0.00386069 0.36583698 -0.0178 0.02218408 0.37967417 -0.0178 0.02594236 0.37090749 -0.0178 -0.02496462 0.40997937 -0.0178 -0.00943777 0.4125762 -0.0178 -0.00795532 0.42096967 -0.0178</float_array>
          <technique_common>
            <accessor source="#pos_0-array" count="5136" stride="3">
              <param name="X" type="float"/>
              <param name="Y" type="float"/>
              <param name="Z" type="float"/>
            </accessor>
          </technique_common>
        </source>
        <source id="norm_0">
          <float_array id="norm_0-array" count="30">1 -0 0 -1 0 0 0 -0 1 0 0 -1 0 -1 0 0 1 0 -0.56653 -0.82404 0 0.56641 -0.82412 0 0.35521 0.93479 -0 -0.35521 0.93479 0</float_array>
          <technique_common>
            <accessor source="#norm_0-array" count="30" stride="3">
              <param name="X" type="float"/>
              <param name="Y" type="float"/>
              <param name="Z" type="float"/>
            </accessor>
          </technique_common>
        </source>
        <vertices id="vert_0">
          <input semantic="POSITION" source="#pos_0"/>
        </vertices>
        <triangles count="2000" material="mat_0">
          <input semantic="VERTEX" source="#vert_0" offset="0"/>
          <input semantic="NORMAL" source="#norm_0" offset="1"/>
          <p>0 0 1 0 2 0 3 1 4 1 5 1 3 1 5 1 6 1 7 2 8 2 9 2 10 2 11 2 7 2 12 2 13 2 14 2 15 2 16 2 17 2 4 2 17 2 16 2 18 2 19 2 20 2 20 2 19 2 21 2 22 2 23 2 21 2 18 2 24 2 19 2 23 2 25 2 21 2 21 2 25 2 26 2 21 2 26 2 20 2 17 2 27 2 28 2 17 2 28 2 15 2 2 2 29 2 30 2 2 2 31 2 32 2 30 2 29 2 33 2 32 2 29 2 2 2 34 2 35 2 2 2 31 2 35 2 34 2 2 2 35 2 31 2 36 2 37 2 38 2 39 2 37 2 36 2 39 2 36 2 38 2 40 2 41 2 30 2 42 2 43 2 44 2 45 2 46 2 47 2 14 2 13 2 42 2 14 2 42 2 44 2 48 2 49 2 22 2 50 2 44 2 51 2 48 2 52 2 53 2 48 2 54 2 55 2 56 2 13 2 57 2 56 2 57 2 46 2 57 2 12 2 47 2 58 2 55 2 54 2 58 2 47 2 12 2 59 2 46 2 45 2 41 2 40 2 47 2 47 2 40 2 45 2 40 2 30 2 60 2 60 2 59 2 40 2 39 2 61 2 33 2 39 2 33 2 62 2 60 2 33 2 61 2 61 2 43 2 42 2 59 2 60 2 56 2 56 2 60 2 42 2 13 2 56 2 42 2 63 2 9 2 44 2 44 2 50 2 63 2 7 2 9 2 63 2 7 2 50 2 10 2 22 2 49 2 11 2 11 2 49 2 7 2 53 2 52 2 7 2 52 2 8 2 7 2 48 2 53 2 49 2 64 2 58 2 65 2 52 2 55 2 9 2 9 2 55 2 64 2 9 2 64 2 44 2 58 2 12 2 65 2 44 2 65 2 14 2 51 2 22 2 10 2 66 2 67 2 17 2 68 2 69 2 21 2 68 2 21 2 70 2 68 2 70 2 69 2 38 2 31 2 34 2 37 2 31 2 38 2 2 2 30 2 41 2 39 2 38 2 61 2 62 2 33 2 32 2 32 2 33 2 29 2 46 2 57 2 47 2 48 2 47 2 54 2 55 2 52 2 48 2 65 2 44 2 64 2 50 2 51 2 10 2 22 2 51 2 15 2 71 2 23 2 72 2 15 2 71 2 72 2 15 2 72 2 22 2 23 2 71 2 73 2 15 2 73 2 71 2 23 2 73 2 25 2 73 2 15 2 28 2 16 2 15 2 51 2 38 2 5 2 43 2 38 2 43 2 61 2 72 2 23 2 22 2 74 2 75 2 17 2 17 2 75 2 24 2 19 2 24 2 70 2 19 2 70 2 21 2 67 2 74 2 17 2 69 2 70 2 76 2 24 2 76 2 70 2 69 2 76 2 77 2 77 2 76 2 24 2 75 2 74 2 24 2 24 2 74 2 66 2 74 2 67 2 66 2 66 2 77 2 24 2 24 2 18 2 17 2 17 2 18 2 27 2 77 2 78 2 69 2 0 2 69 2 78 2 79 2 80 2 77 2 66 2 79 2 77 2 17 2 4 2 66 2 81 2 82 2 78 2 78 2 82 2 83 2 78 2 83 2 0 2 83 2 82 2 81 2 81 2 84 2 85 2 77 2 80 2 78 2 78 2 80 2 84 2 78 2 84 2 81 2 84 2 80 2 85 2 85 2 80 2 86 2 86 2 80 2 79 2 86 2 79 2 66 2 86 2 66 2 4 2 87 3 88 3 89 3 90 3 91 3 92 3 93 3 94 3 95 3 96 3 97 3 98 3 98 3 97 3 99 3 99 3 97 3 100 3 100 3 97 3 101 3 102 3 103 3 104 3 105 3 103 3 102 3 104 3 103 3 105 3 97 3 96 3 104 3 95 3 94 3 106 3 95 3 106 3 98 3 107 3 108 3 109 3 110 3 111 3 112 3 110 3 112 3 113 3 114 3 115 3 113 3 111 3 110 3 113 3 111 3 113 3 116 3 116 3 113 3 115 3 116 3 115 3 117 3 116 3 118 3 119 3 108 3 118 3 120 3 108 3 119 3 118 3 121 3 122 3 113 3 123 3 122 3 124 3 124 3 125 3 91 3 126 3 124 3 127 3 127 3 124 3 128 3 121 3 128 3 122 3 129 3 90 3 130 3 130 3 90 3 131 3 118 3 132 3 120 3 117 3 132 3 118 3 115 3 114 3 117 3 131 3 90 3 117 3 131 3 117 3 114 3 120 3 132 3 90 3 91 3 129 3 123 3 133 3 134 3 135 3 136 3 89 3 137 3 136 3 137 3 121 3 135 3 134 3 89 3 89 3 134 3 137 3 137 3 138 3 139 3 134 3 140 3 127 3 127 3 139 3 138 3 133 3 140 3 134 3 134 3 127 3 138 3 126 3 141 3 133 3 126 3 125 3 124 3 142 3 101 3 143 3 93 3 144 3 145 3 145 3 144 3 146 3 146 3 144 3 95 3 101 3 142 3 100 3 147 3 148 3 149 3 149 3 148 3 143 3 150 3 148 3 147 3 147 3 151 3 150 3 152 3 151 3 147 3 153 3 151 3 152 3 152 3 154 3 153 3 155 3 154 3 156 3 156 3 154 3 152 3 150 3 143 3 148 3 153 3 154 3 155 3 153 3 155 3 157 3 153 3 158 3 142 3 146 3 158 3 153 3 150 3 151 3 153 3 146 3 155 3 159 3 146 3 159 3 145 3 143 3 150 3 153 3 143 3 153 3 142 3 142 3 160 3 100 3 161 3 160 3 146 3 157 3 146 3 153 3 160 3 99 3 100 3 142 3 158 3 146 3 142 3 146 3 160 3 98 3 99 3 162 3 161 3 162 3 99 3 161 3 99 3 160 3 162 3 161 3 98 3 98 3 161 3 95 3 159 3 93 3 145 3 101 3 97 3 104 3 101 3 104 3 105 3 102 3 163 3 105 3 95 3 144 3 93 3 164 3 165 3 93 3 94 3 93 3 165 3 105 3 163 3 136 3 102 3 94 3 165 3 102 3 165 3 163 3 165 3 164 3 163 3 163 3 164 3 136 3 157 3 155 3 146 3 161 3 146 3 95 3 136 3 164 3 87 3 105 3 136 3 121 3 87 3 164 3 88 3 164 3 93 3 88 3 88 3 166 3 135 3 121 3 139 3 127 3 121 3 127 3 128 3 133 3 167 3 125 3 125 3 167 3 92 3 113 3 122 3 130 3 130 3 122 3 123 3 130 3 123 3 129 3 91 3 125 3 92 3 113 3 130 3 114 3 116 3 117 3 118 3 120 3 109 3 108 3 88 3 93 3 166 3 135 3 166 3 133 3 133 3 166 3 167 3 167 3 6 3 92 3 92 3 6 3 120 3 120 3 6 3 109 3 112 3 109 3 113 3 107 3 109 3 112 3 168 3 169 3 170 3 171 3 172 3 169 3 171 3 169 3 168 3 169 3 172 3 173 3 174 3 175 3 170 3 169 3 173 3 170 3 170 3 173 3 174 3 175 3 176 3 177 3 170 3 175 3 177 3 177 3 176 3 170 3 176 3 178 3 179 3 178 3 180 3 179 3 178 3 175 3 180 3 175 3 178 3 176 3 171 3 181 3 172 3 180 3 181 3 171 3 181 3 182 3 172 3 180 3 183 3 184 3 184 3 182 3 180 3 180 3 182 3 181 3 175 3 183 3 180 3 185 2 186 2 187 2 187 2 186 2 188 2 186 2 185 2 188 2 185 2 189 2 190 2 189 2 191 2 190 2 189 2 187 2 191 2 187 2 189 2 185 2 192 2 193 2 191 2 192 2 194 2 195 2 196 2 197 2 191 2 191 2 197 2 194 2 191 2 194 2 192 2 187 2 196 2 191 2 198 2 193 2 195 2 195 2 193 2 192 2 199 2 198 2 188 2 193 2 198 2 199 2 195 2 200 2 198 2 198 2 200 2 201 2 198 2 201 2 188 2 188 2 201 2 202 2 188 2 202 2 187 2 203 1 204 1 205 1 206 1 207 1 208 1 208 1 207 1 209 1 206 1 208 1 210 1 211 1 210 1 212 1 213 1 214 1 215 1 216 1 215 1 214 1 212 1 214 1 213 1 208 1 217 1 218 1 208 1 218 1 210 1 217 1 209 1 207 1 219 1 220 1 221 1 222 1 223 1 219 1 221 1 224 1 225 1 226 1 223 1 227 1 227 1 228 1 229 1 229 1 230 1 227 1 225 1 224 1 230 1 231 1 213 1 232 1 232 1 213 1 207 1 211 1 212 1 213 1 211 1 213 1 233 1 234 1 235 1 233 1 233 1 235 1 211 1 219 1 221 1 225 1 219 1 225 1 236 1 219 1 236 1 237 1 237 1 236 1 238 1 237 1 238 1 239 1 233 1 231 1 234 1 240 1 241 1 211 1 240 1 211 1 235 1 241 1 240 1 232 1 232 1 240 1 234 1 229 1 242 1 243 1 237 1 239 1 229 1 237 1 229 1 244 1 244 1 229 1 243 1 237 1 244 1 245 1 245 1 244 1 246 1 242 1 247 1 244 1 244 1 247 1 246 1 245 1 246 1 248 1 248 1 246 1 249 1 238 1 236 1 229 1 229 1 236 1 250 1 229 1 250 1 230 1 230 1 250 1 225 1 248 1 249 1 247 1 248 1 247 1 251 1 252 1 253 1 248 1 254 1 253 1 252 1 255 1 203 1 256 1 253 1 254 1 256 1 253 1 256 1 205 1 255 1 256 1 252 1 205 1 256 1 203 1 232 1 234 1 231 1 205 1 257 1 229 1 229 1 257 1 247 1 229 1 247 1 242 1 210 1 218 1 258 1 213 1 215 1 207 1 207 1 215 1 259 1 216 1 212 1 210 1 258 1 215 1 216 1 210 1 258 1 216 1 259 1 218 1 217 1 207 1 259 1 217 1 260 1 261 1 252 1 262 1 204 1 263 1 204 1 257 1 205 1 248 1 264 1 265 1 252 1 248 1 260 1 260 1 248 1 265 1 257 1 266 1 267 1 265 1 266 1 268 1 247 1 257 1 267 1 265 1 268 1 260 1 204 1 255 1 261 1 261 1 255 1 252 1 261 1 263 1 204 1 266 1 257 1 204 1 251 1 264 1 248 1 263 1 260 1 268 1 251 1 267 1 264 1 268 1 262 1 263 1 226 1 227 1 269 1 270 1 271 1 219 1 270 1 219 1 223 1 270 1 223 1 272 1 271 1 220 1 219 1 226 1 272 1 223 1 270 1 273 1 271 1 270 1 274 1 273 1 230 1 275 1 273 1 230 1 273 1 227 1 274 1 269 1 273 1 273 1 269 1 227 1 275 1 230 1 224 1 275 1 224 1 271 1 271 1 224 1 220 1 272 1 226 1 274 1 274 1 226 1 269 1 276 0 277 0 278 0 279 0 280 0 281 0 282 0 283 0 277 0 279 0 281 0 284 0 282 0 281 0 285 0 281 0 280 0 285 0 285 0 280 0 279 0 285 0 279 0 286 0 286 0 279 0 276 0 276 0 279 0 284 0 287 0 288 0 289 0 290 0 291 0 292 0 293 0 294 0 295 0 296 0 297 0 293 0 295 0 294 0 298 0 298 0 299 0 300 0 298 0 300 0 301 0 299 0 302 0 300 0 300 0 303 0 301 0 301 0 303 0 304 0 296 0 293 0 305 0 296 0 305 0 304 0 304 0 303 0 302 0 306 0 307 0 308 0 306 0 308 0 295 0 295 0 308 0 305 0 295 0 305 0 293 0 308 0 307 0 309 0 309 0 307 0 310 0 304 0 305 0 311 0 311 0 305 0 309 0 312 0 313 0 314 0 314 0 313 0 315 0 316 0 314 0 315 0 289 0 317 0 291 0 289 0 291 0 318 0 313 0 312 0 319 0 319 0 312 0 320 0 319 0 320 0 317 0 319 0 317 0 289 0 309 0 310 0 311 0 321 0 322 0 307 0 321 0 307 0 306 0 323 0 310 0 321 0 321 0 310 0 322 0 324 0 325 0 326 0 324 0 326 0 313 0 313 0 326 0 315 0 326 0 325 0 327 0 327 0 325 0 328 0 329 0 315 0 276 0 276 0 315 0 327 0 282 0 330 0 324 0 324 0 330 0 325 0 330 0 282 0 328 0 328 0 282 0 277 0 327 0 328 0 277 0 317 0 320 0 316 0 316 0 320 0 314 0 292 0 291 0 329 0 329 0 291 0 316 0 323 0 311 0 310 0 276 0 327 0 277 0 276 0 284 0 329 0 329 0 316 0 315 0 331 0 292 0 329 0 292 0 331 0 332 0 333 0 332 0 287 0 334 0 285 0 286 0 335 0 278 0 336 0 337 0 338 0 276 0 285 0 339 0 282 0 282 0 339 0 340 0 334 0 286 0 338 0 338 0 286 0 276 0 276 0 278 0 337 0 285 0 334 0 341 0 285 0 341 0 339 0 339 0 341 0 342 0 278 0 335 0 342 0 342 0 335 0 339 0 282 0 340 0 283 0 283 0 340 0 336 0 336 0 340 0 335 0 342 0 341 0 337 0 337 0 341 0 338 0 298 0 343 0 299 0 344 0 343 0 298 0 302 0 345 0 304 0 304 0 345 0 296 0 297 0 298 0 294 0 298 0 297 0 344 0 297 0 296 0 344 0 343 0 344 0 345 0 302 0 299 0 345 0 332 0 346 0 287 0 287 0 346 0 347 0 348 0 349 0 350 0 350 0 346 0 332 0 351 0 348 0 331 0 331 0 348 0 350 0 331 0 350 0 332 0 352 0 288 0 353 0 353 0 288 0 354 0 288 0 352 0 331 0 331 0 352 0 351 0 287 0 354 0 288 0 350 0 349 0 355 0 355 0 349 0 354 0 356 0 355 0 354 0 356 0 354 0 287 0 356 0 287 0 347 0 348 0 353 0 349 0 346 0 350 0 356 0 356 0 350 0 355 0 357 1 358 1 359 1 357 1 359 1 360 1 358 1 357 1 361 1 362 1 361 1 363 1 364 1 359 1 361 1 365 1 366 1 367 1 365 1 367 1 368 1 363 1 361 1 357 1 369 1 370 1 363 1 369 1 363 1 371 1 370 1 369 1 362 1 360 1 372 1 373 1 372 1 374 1 375 1 375 1 374 1 376 1 375 1 376 1 368 1 373 1 372 1 375 1 373 1 375 1 368 1 361 1 362 1 364 1 376 1 374 1 364 1 364 1 374 1 359 1 368 1 376 1 364 1 367 1 366 1 373 1 373 1 366 1 377 1 378 1 366 1 365 1 373 1 377 1 378 1 374 1 372 1 360 1 374 1 360 1 359 1 357 1 371 1 363 1 379 1 380 1 381 1 382 1 383 1 384 1 384 1 383 1 385 1 384 1 385 1 386 1 387 1 382 1 388 1 383 1 382 1 387 1 389 1 390 1 391 1 392 1 393 1 389 1 389 1 393 1 390 1 391 1 390 1 386 1 394 1 389 1 391 1 395 1 386 1 390 1 386 1 395 1 393 1 394 1 396 1 397 1 397 1 396 1 398 1 397 1 398 1 399 1 399 1 398 1 400 1 401 1 391 1 399 1 401 1 399 1 400 1 394 1 391 1 402 1 402 1 401 1 400 1 394 1 402 1 396 1 396 1 402 1 400 1 403 1 404 1 405 1 404 1 403 1 406 1 403 1 407 1 406 1 406 1 407 1 408 1 407 1 381 1 409 1 394 1 387 1 388 1 410 1 411 1 385 1 410 1 387 1 394 1 412 1 404 1 386 1 412 1 386 1 385 1 404 1 412 1 380 1 380 1 412 1 411 1 413 1 388 1 382 1 413 1 382 1 386 1 393 1 388 1 413 1 393 1 413 1 386 1 414 1 415 1 416 1 416 1 415 1 417 1 414 1 418 1 419 1 420 1 421 1 418 1 422 1 423 1 424 1 425 1 424 1 423 1 426 1 427 1 423 1 423 1 427 1 428 1 425 1 429 1 424 1 429 1 425 1 427 1 408 1 407 1 430 1 430 1 407 1 431 1 430 1 431 1 432 1 409 1 381 1 431 1 431 1 381 1 432 1 433 1 422 1 406 1 433 1 406 1 408 1 422 1 433 1 432 1 432 1 433 1 430 1 410 1 380 1 411 1 381 1 380 1 410 1 403 1 405 1 381 1 381 1 405 1 379 1 404 1 380 1 405 1 418 1 416 1 420 1 420 1 416 1 417 1 434 1 435 1 418 1 435 1 434 1 417 1 417 1 434 1 420 1 436 1 427 1 415 1 436 1 429 1 427 1 436 1 415 1 414 1 436 1 414 1 429 1 429 1 414 1 437 1 432 1 423 1 422 1 427 1 426 1 432 1 394 1 388 1 393 1 394 1 393 1 392 1 438 0 439 0 440 0 440 0 439 0 441 0 442 0 443 0 444 0 445 0 441 0 444 0 444 0 441 0 442 0 439 0 438 0 442 0 442 0 438 0 443 0 446 0 447 0 448 0 449 0 450 0 448 0 448 0 450 0 446 0 451 0 450 0 452 0 453 0 444 0 443 0 453 0 440 0 454 0 453 0 454 0 444 0 445 0 440 0 441 0 440 0 445 0 454 0 455 0 450 0 449 0 455 0 452 0 450 0 452 0 456 0 438 0 438 0 456 0 457 0 457 0 456 0 455 0 457 0 455 0 449 0 449 0 443 0 457 0 452 0 458 0 451 0 451 0 458 0 446 0 446 0 458 0 447 0 452 0 459 0 458 0 460 0 461 0 462 0 463 0 464 0 465 0 464 0 461 0 465 0 465 0 461 0 460 0 466 0 467 0 468 0 469 0 470 0 466 0 466 0 470 0 467 0 469 0 471 0 470 0 470 0 471 0 472 0 472 0 471 0 461 0 468 0 467 0 464 0 464 0 467 0 472 0 464 0 472 0 461 0 473 0 471 0 469 0 471 0 473 0 462 0 462 0 473 0 474 0 475 0 476 0 477 0 477 0 476 0 478 0 479 0 477 0 478 0 479 0 480 0 477 0 475 0 480 0 469 0 476 0 475 0 481 0 481 0 475 0 469 0 482 0 483 0 484 0 484 0 483 0 485 0 486 0 487 0 488 0 489 0 490 0 486 0 486 0 490 0 487 0 491 0 483 0 482 0 491 0 482 0 487 0 487 0 482 0 488 0 483 0 491 0 490 0 490 0 489 0 485 0 485 0 489 0 492 0 485 0 492 0 465 0 468 0 465 0 466 0 474 0 469 0 480 0 462 0 474 0 480 0 478 0 493 0 494 0 478 0 481 0 495 0 496 0 495 0 481 0 497 0 498 0 481 0 481 0 498 0 496 0 498 0 497 0 499 0 499 0 497 0 494 0 495 0 496 0 493 0 493 0 496 0 499 0 493 0 499 0 494 0 500 0 501 0 502 0 503 0 502 0 501 0 502 0 503 0 504 0 504 0 503 0 505 0 506 0 486 0 484 0 507 0 504 0 505 0 486 0 507 0 505 0 504 0 507 0 500 0 500 0 507 0 506 0 500 0 506 0 484 0 488 0 484 0 486 0 492 0 466 0 465 0 508 0 509 0 510 0 511 0 512 0 510 0 511 0 510 0 509 0 512 0 513 0 510 0 514 0 515 0 516 0 516 0 515 0 509 0 515 0 514 0 512 0 512 0 514 0 517 0 512 0 517 0 513 0 513 0 517 0 508 0 508 0 517 0 516 0 508 0 516 0 509 0 518 0 503 0 509 0 509 0 519 0 518 0 519 0 509 0 520 0 520 0 509 0 515 0 521 0 505 0 522 0 522 0 505 0 503 0 505 0 521 0 515 0 523 0 520 0 515 0 521 0 523 0 515 0 520 0 523 0 518 0 518 0 523 0 522 0 518 0 522 0 503 0 480 0 479 0 462 0 462 0 479 0 460 0 468 0 463 0 465 0 524 3 525 3 526 3 526 3 525 3 207 3 527 3 528 3 529 3 527 3 529 3 207 3 530 3 528 3 527 3 529 3 528 3 531 3 531 3 528 3 530 3 530 3 532 3 533 3 533 3 532 3 534 3 533 3 534 3 535 3 535 3 534 3 536 3 536 3 534 3 537 3 538 3 531 3 539 3 538 3 540 3 323 3 323 3 540 3 536 3 535 3 536 3 540 3 535 3 540 3 541 3 541 3 540 3 539 3 539 3 540 3 538 3 542 3 232 3 529 3 531 3 542 3 529 3 232 3 542 3 538 3 538 3 542 3 531 3 543 3 304 3 544 3 545 3 546 3 547 3 548 3 549 3 550 3 551 3 552 3 550 3 550 3 552 3 548 3 547 3 553 3 554 3 553 3 547 3 555 3 556 3 557 3 558 3 558 3 557 3 559 3 559 3 557 3 560 3 331 3 561 3 562 3 331 3 562 3 563 3 564 3 565 3 228 3 564 3 228 3 566 3 549 3 567 3 205 3 205 3 567 3 568 3 565 3 569 3 229 3 229 3 569 3 570 3 571 3 545 3 570 3 570 3 545 3 572 3 545 3 552 3 573 3 229 3 573 3 552 3 229 3 572 3 573 3 561 3 574 3 575 3 575 3 574 3 571 3 576 3 577 3 574 3 576 3 574 3 561 3 555 3 577 3 576 3 547 3 546 3 555 3 555 3 546 3 577 3 545 3 571 3 546 3 570 3 572 3 229 3 229 3 552 3 551 3 578 3 579 3 580 3 581 3 580 3 558 3 558 3 580 3 582 3 583 3 584 3 578 3 578 3 584 3 585 3 549 3 586 3 583 3 583 3 586 3 584 3 585 3 586 3 587 3 579 3 587 3 582 3 582 3 587 3 554 3 587 3 579 3 585 3 587 3 586 3 548 3 580 3 581 3 578 3 559 3 581 3 558 3 558 3 582 3 553 3 553 3 582 3 554 3 581 3 559 3 560 3 567 3 583 3 560 3 579 3 578 3 585 3 549 3 583 3 567 3 568 3 567 3 560 3 548 3 586 3 549 3 588 3 589 3 569 3 588 3 590 3 589 3 591 3 592 3 589 3 590 3 593 3 589 3 594 3 564 3 588 3 588 3 564 3 595 3 592 3 561 3 575 3 561 3 593 3 562 3 562 3 593 3 590 3 564 3 594 3 565 3 565 3 594 3 569 3 593 3 561 3 592 3 596 3 566 3 228 3 596 3 597 3 566 3 598 3 596 3 228 3 599 3 600 3 601 3 599 3 598 3 331 3 600 3 599 3 563 3 598 3 599 3 601 3 598 3 601 3 596 3 596 3 601 3 597 3 563 3 599 3 331 3 602 3 562 3 603 3 603 3 562 3 590 3 563 3 562 3 602 3 566 3 604 3 564 3 564 3 604 3 595 3 604 3 566 3 605 3 604 3 605 3 606 3 604 3 606 3 603 3 595 3 604 3 603 3 595 3 603 3 590 3 391 1 386 1 399 1 435 1 404 1 406 1 429 1 435 1 424 1 424 1 435 1 422 1 422 1 435 1 406 1 418 1 435 1 419 1 419 1 435 1 429 1 607 2 608 2 609 2 610 2 611 2 612 2 613 2 614 2 615 2 616 2 617 2 618 2 616 2 618 2 619 2 620 2 621 2 619 2 616 2 619 2 621 2 616 2 621 2 622 2 616 2 622 2 623 2 624 2 623 2 622 2 623 2 624 2 617 2 617 2 624 2 625 2 626 2 627 2 619 2 628 2 627 2 626 2 628 2 620 2 619 2 629 2 630 2 631 2 631 2 630 2 615 2 632 2 633 2 634 2 634 2 633 2 630 2 615 2 614 2 631 2 635 2 636 2 614 2 637 2 638 2 618 2 639 2 638 2 637 2 640 2 639 2 637 2 641 2 642 2 639 2 630 2 629 2 643 2 636 2 635 2 631 2 644 2 635 2 645 2 640 2 644 2 645 2 639 2 640 2 645 2 640 2 646 2 643 2 634 2 646 2 647 2 647 2 646 2 637 2 628 2 641 2 645 2 635 2 614 2 648 2 648 2 614 2 613 2 615 2 633 2 632 2 624 2 622 2 649 2 622 2 650 2 609 2 622 2 609 2 649 2 651 2 620 2 628 2 609 2 650 2 651 2 652 2 634 2 397 2 652 2 612 2 611 2 612 2 652 2 397 2 653 2 654 2 612 2 612 2 654 2 655 2 612 2 655 2 610 2 654 2 656 2 657 2 497 2 656 2 653 2 653 2 656 2 654 2 658 2 656 2 497 2 656 2 658 2 657 2 657 2 658 2 659 2 660 2 661 2 613 2 613 2 661 2 657 2 634 2 652 2 611 2 613 2 659 2 648 2 657 2 659 2 613 2 648 2 659 2 658 2 662 2 663 2 611 2 611 2 663 2 634 2 649 2 609 2 664 2 664 2 609 2 608 2 607 2 609 2 651 2 607 2 651 2 665 2 665 2 651 2 666 2 666 2 651 2 512 2 666 2 512 2 665 2 663 2 613 2 634 2 662 2 660 2 663 2 663 2 660 2 613 2 643 2 634 2 630 2 634 2 643 2 646 2 628 2 645 2 635 2 628 2 642 2 641 2 625 2 618 2 617 2 618 2 647 2 637 2 647 2 618 2 625 2 628 2 626 2 642 2 667 0 333 0 287 0 668 0 669 0 670 0 671 0 668 0 670 0 672 0 667 0 287 0 333 0 671 0 332 0 332 0 671 0 670 0 332 0 670 0 292 0 292 0 670 0 290 0 673 0 289 0 318 0 669 0 668 0 674 0 669 0 674 0 289 0 669 0 289 0 673 0 289 0 674 0 287 0 287 0 674 0 672 0 669 0 673 0 290 0 290 0 673 0 291 0 668 0 671 0 672 0 672 0 671 0 667 0 675 3 676 3 543 3 675 3 537 3 676 3 537 3 675 3 544 3 544 3 675 3 543 3 677 3 676 3 532 3 543 3 676 3 677 3 677 3 532 3 524 3 527 3 678 3 524 3 527 3 524 3 532 3 524 3 678 3 525 3 679 3 537 3 534 3 537 3 679 3 676 3 530 3 527 3 532 3 534 3 532 3 676 3 534 3 676 3 679 3 527 3 207 3 525 3 680 1 223 1 681 1 228 1 682 1 222 1 222 1 682 1 683 1 223 1 680 1 227 1 684 1 685 1 686 1 683 1 687 1 222 1 222 1 687 1 688 1 680 1 689 1 227 1 689 1 686 1 227 1 684 1 688 1 685 1 690 1 682 1 228 1 688 1 684 1 681 1 688 1 681 1 222 1 222 1 681 1 223 1 685 1 690 1 686 1 227 1 686 1 228 1 228 1 686 1 690 1 687 1 683 1 685 1 685 1 683 1 690 1 684 1 686 1 689 1 689 1 681 1 684 1 691 2 692 2 693 2 694 2 695 2 696 2 696 2 695 2 697 2 698 2 699 2 697 2 699 2 700 2 701 2 701 2 700 2 702 2 703 2 700 2 698 2 704 2 705 2 706 2 704 2 706 2 707 2 706 2 708 2 707 2 707 2 708 2 709 2 708 2 710 2 709 2 709 2 710 2 711 2 711 2 710 2 712 2 712 2 710 2 222 2 222 2 710 2 708 2 712 2 713 2 711 2 711 2 713 2 714 2 711 2 714 2 715 2 715 2 714 2 716 2 705 2 717 2 718 2 716 2 717 2 705 2 706 2 705 2 288 2 719 2 720 2 721 2 722 2 723 2 724 2 724 2 723 2 725 2 724 2 726 2 727 2 728 2 729 2 727 2 729 2 730 2 724 2 731 2 732 2 718 2 731 2 718 2 733 2 714 2 734 2 732 2 714 2 720 2 734 2 735 2 736 2 720 2 734 2 736 2 732 2 732 2 736 2 737 2 727 2 726 2 692 2 738 2 737 2 739 2 738 2 739 2 740 2 740 2 741 2 738 2 742 2 743 2 744 2 742 2 744 2 741 2 742 2 741 2 693 2 742 2 745 2 746 2 742 2 746 2 743 2 693 2 740 2 691 2 692 2 691 2 739 2 735 2 737 2 736 2 739 2 737 2 735 2 747 2 739 2 735 2 248 2 692 2 747 2 700 2 748 2 749 2 748 2 703 2 723 2 750 2 749 2 748 2 750 2 748 2 723 2 750 2 723 2 751 2 725 2 723 2 745 2 714 2 721 2 720 2 721 2 714 2 713 2 732 2 731 2 714 2 718 2 717 2 733 2 716 2 714 2 733 2 730 2 722 2 724 2 722 2 750 2 751 2 728 2 730 2 729 2 752 2 753 2 730 2 749 2 750 2 700 2 752 2 728 2 754 2 753 2 752 2 754 2 752 2 730 2 728 2 755 2 727 2 248 2 248 2 727 2 692 2 756 2 757 2 758 2 757 2 759 2 760 2 757 2 760 2 758 2 761 2 760 2 759 2 758 2 760 2 695 2 762 2 763 2 698 2 763 2 762 2 764 2 321 2 764 2 762 2 763 2 764 2 765 2 321 2 766 2 241 2 241 2 766 2 756 2 321 2 767 2 766 2 766 2 768 2 756 2 762 2 769 2 767 2 766 2 767 2 769 2 756 2 758 2 241 2 759 2 768 2 769 2 769 2 768 2 766 2 756 2 768 2 759 2 764 2 321 2 765 2 759 2 757 2 756 2 769 2 762 2 759 2 697 2 759 2 770 2 762 2 698 2 770 2 697 2 770 2 698 2 762 2 770 2 759 2 695 2 761 2 697 2 759 2 697 2 761 2 321 2 762 2 767 2 760 2 761 2 695 2 763 2 765 2 703 2 700 2 699 2 698 2 695 2 771 2 754 2 754 2 771 2 753 2 771 2 695 2 694 2 771 2 694 2 772 2 702 2 772 2 694 2 771 2 772 2 753 2 753 2 772 2 702 2 702 2 700 2 773 2 702 2 773 2 753 2 750 2 773 2 700 2 753 2 773 2 750 2 748 2 700 2 703 2 703 2 698 2 763 2 727 2 755 2 728 2 739 2 747 2 692 2 740 2 693 2 741 2 720 2 719 2 735 2 733 2 717 2 716 2 721 2 713 2 712 2 718 2 288 2 705 2 723 2 703 2 746 2 723 2 746 2 745 2 743 2 746 2 718 2 369 1 364 1 362 1 774 2 775 2 776 2 777 2 778 2 779 2 776 2 777 2 780 2 780 2 777 2 779 2 776 2 775 2 778 2 776 2 778 2 777 2 781 2 779 2 782 2 780 2 779 2 781 2 373 2 782 2 779 2 783 2 779 2 778 2 778 2 784 2 785 2 786 2 787 2 788 2 788 2 787 2 785 2 786 2 789 2 790 2 783 2 791 2 779 2 779 2 791 2 790 2 790 2 792 2 779 2 785 2 784 2 793 2 793 2 784 2 794 2 794 2 784 2 778 2 788 2 440 2 786 2 440 2 788 2 793 2 793 2 788 2 785 2 373 2 792 2 789 2 373 2 789 2 371 2 792 2 790 2 789 2 794 2 775 2 774 2 779 2 795 2 373 2 373 2 795 2 792 2 794 2 778 2 775 2 779 2 792 2 795 2 786 2 371 2 789 2 501 0 509 0 503 0 501 0 500 0 484 0 484 0 485 0 465 0 460 0 479 0 494 0 460 0 494 0 465 0 478 0 494 0 479 0 796 3 797 3 798 3 799 3 800 3 801 3 802 3 803 3 804 3 805 3 806 3 807 3 808 3 806 3 805 3 799 3 809 3 810 3 799 3 811 3 809 3 811 3 799 3 812 3 813 3 814 3 815 3 816 3 815 3 814 3 815 3 801 3 817 3 801 3 800 3 817 3 818 3 819 3 820 3 818 3 820 3 796 3 798 3 797 3 821 3 798 3 821 3 822 3 818 3 823 3 798 3 815 3 824 3 813 3 813 3 824 3 435 3 825 3 808 3 805 3 803 3 826 3 827 3 828 3 825 3 829 3 818 3 830 3 829 3 829 3 830 3 828 3 831 3 796 3 399 3 828 3 808 3 825 3 828 3 830 3 832 3 828 3 832 3 833 3 828 3 833 3 834 3 835 3 826 3 833 3 833 3 836 3 834 3 834 3 836 3 802 3 826 3 835 3 827 3 821 3 837 3 822 3 822 3 837 3 827 3 806 3 838 3 807 3 822 3 839 3 798 3 798 3 839 3 818 3 818 3 839 3 830 3 831 3 837 3 796 3 827 3 837 3 831 3 838 3 817 3 807 3 810 3 807 3 800 3 810 3 800 3 799 3 838 3 840 3 815 3 841 3 819 3 842 3 843 3 844 3 845 3 846 3 843 3 399 3 399 3 843 3 845 3 843 3 846 3 844 3 841 3 842 3 847 3 848 3 842 3 494 3 847 3 842 3 848 3 847 3 848 3 849 3 848 3 845 3 849 3 849 3 845 3 844 3 850 3 814 3 851 3 852 3 853 3 435 3 435 3 853 3 814 3 814 3 853 3 851 3 851 3 853 3 854 3 854 3 853 3 852 3 854 3 852 3 855 3 856 3 857 3 858 3 859 3 453 3 856 3 453 3 859 3 860 3 827 3 831 3 803 3 804 3 803 3 824 3 494 3 842 3 819 3 494 3 819 3 818 3 856 3 809 3 861 3 856 3 862 3 859 3 859 3 862 3 863 3 863 3 862 3 856 3 852 3 864 3 865 3 865 3 864 3 866 3 867 3 865 3 866 3 841 3 868 3 819 3 819 3 868 3 820 3 820 3 846 3 796 3 846 3 399 3 796 3 826 3 803 3 836 3 836 3 803 3 802 3 815 3 817 3 838 3 804 3 824 3 840 3 840 3 824 3 815 3 814 3 869 3 816 3 816 3 869 3 850 3 850 3 861 3 816 3 861 3 850 3 857 3 850 3 869 3 814 3 816 3 861 3 812 3 812 3 861 3 811 3 809 3 811 3 861 3 856 3 861 3 857 3 858 3 863 3 856 3 870 3 863 3 858 3 814 3 813 3 435 3 852 3 435 3 866 3 852 3 866 3 864 3 863 3 870 3 859 3 860 3 855 3 871 3 871 3 872 3 860 3 855 3 852 3 871 3 865 3 872 3 852 3 872 3 871 3 852 3 858 3 855 3 870 3 870 3 855 3 860 3 873 3 865 3 874 3 865 3 873 3 860 3 860 3 859 3 870 3 860 3 874 3 875 3 860 3 872 3 865 3 874 3 865 3 867 3 867 3 875 3 874 3 860 3 876 3 877 3 453 3 860 3 877 3 453 3 877 3 876 3 875 3 878 3 860 3 875 3 369 3 878 3 876 3 369 3 453 3 878 3 876 3 860 3 874 3 860 3 873 3 878 3 369 3 876 3 879 2 880 2 881 2 882 2 883 2 884 2 885 2 881 2 880 2 884 2 883 2 886 2 884 2 886 2 885 2 885 2 886 2 881 2 887 3 888 3 889 3 890 3 889 3 888 3 891 3 889 3 890 3 892 3 893 3 894 3 889 3 892 3 894 3 889 3 895 3 892 3 891 3 895 3 889 3 896 3 897 3 898 3 899 3 900 3 901 3 902 3 903 3 904 3 904 3 903 3 905 3 906 3 907 3 905 3 908 3 909 3 910 3 911 3 906 3 905 3 909 3 912 3 910 3 913 3 914 3 908 3 914 3 915 3 908 3 913 3 908 3 902 3 913 3 902 3 904 3 908 3 916 3 902 3 916 3 908 3 917 3 911 3 905 3 918 3 911 3 918 3 919 3 910 3 917 3 908 3 905 3 903 3 918 3 917 3 910 3 919 3 919 3 910 3 911 3 920 2 921 2 922 2 923 2 921 2 924 2 920 2 924 2 921 2 925 2 922 2 926 2 923 2 924 2 927 2 923 2 928 2 926 2 929 2 920 2 922 2 925 2 926 2 930 2 924 2 931 2 927 2 928 2 932 2 930 2 927 2 928 2 923 2 928 2 930 2 926 2 929 2 922 2 925 2 933 3 934 3 935 3 936 2 937 2 938 2 939 3 940 3 941 3 942 3 943 3 944 3 945 3 946 3 947 3 947 3 939 3 945 3 948 3 949 3 946 3 950 3 951 3 952 3 952 3 951 3 953 3 948 3 951 3 950 3 954 3 955 3 956 3 957 3 958 3 956 3 956 3 958 3 954 3 957 3 959 3 958 3 959 3 957 3 960 3 959 3 960 3 961 3 961 3 960 3 962 3 963 3 964 3 962 3 962 3 964 3 961 3 965 2 966 2 967 2 968 2 966 2 969 2 969 2 966 2 965 2 970 2 971 2 972 2 969 2 965 2 972 2 966 2 968 2 973 2 973 2 968 2 974 2 972 2 965 2 970 2 975 3 976 3 977 3 978 2 979 2 980 2 978 2 981 2 982 2 983 3 984 3 985 3 984 3 986 3 987 3 987 3 988 3 985 3 985 3 984 3 987 3 983 3 986 3 984 3 989 3 990 3 991 3 991 3 992 3 993 3 991 3 990 3 992 3 991 3 994 3 995 3 991 3 996 3 989 3 997 3 996 3 991 3 996 3 998 3 989 3 991 3 999 3 997 3 995 3 999 3 991 3 997 3 1000 3 996 3 1001 2 1002 2 1003 2 1004 2 1005 2 1006 2 1003 2 1007 2 1008 2 1006 2 1008 2 1007 2 1006 2 1007 2 1004 2 1003 2 1009 2 1001 2 1003 2 1008 2 1009 2 1007 2 1010 2 1011 2 1007 2 1003 2 1010 2 1010 2 1003 2 1012 2 1013 2 1008 2 1006 2 1014 0 1015 0 1016 0 1016 0 1015 0 1017 0 1018 0 1019 0 1020 0 1020 0 1019 0 1021 0 1020 0 1021 0 1015 0 1020 0 1015 0 1014 0 1016 0 1017 0 1018 0 1018 0 1017 0 1019 0 1022 4 1023 4 1024 4 1024 4 1023 4 1025 4 1026 4 1027 4 1028 4 1028 4 1027 4 1029 4 1028 4 1029 4 1023 4 1028 4 1023 4 1022 4 1024 4 1025 4 1026 4 1026 4 1025 4 1027 4 1030 1 1031 1 1032 1 1031 1 1033 1 1032 1 1034 1 1035 1 1036 1 1036 1 1035 1 1037 1 1036 1 1037 1 1031 1 1036 1 1031 1 1030 1 1032 1 1033 1 1034 1 1034 1 1033 1 1035 1 1038 5 1039 5 1040 5 1038 5 1040 5 1041 5 1042 3 1043 3 1044 3 1045 3 1046 3 1042 3 1042 3 1046 3 1043 3 1045 3 1042 3 1047 3 1048 3 1049 3 1044 3 1047 3 1049 3 1050 3 1047 3 1042 3 1044 3 1047 3 1044 3 1049 3 1050 3 1049 3 1048 3 1050 3 1048 3 1051 3 1051 3 1048 3 1052 3 1050 3 1051 3 1053 3 1051 3 1052 3 1054 3 1053 3 1055 3 1045 3 1045 3 1055 3 1046 3 1046 3 1055 3 1056 3 1053 3 1051 3 1054 3 1053 3 1054 3 1055 3 1055 3 1054 3 1057 3 1055 3 1057 3 1056 3 1058 2 1059 2 1060 2 1061 2 1062 2 1058 2 1058 2 1062 2 1063 2 1058 2 1063 2 1059 2 1061 2 1058 2 1064 2 1064 2 1058 2 1060 2 1064 2 1060 2 1065 2 1065 2 1066 2 1064 2 1066 2 1065 2 1067 2 1067 2 1065 2 1068 2 1065 2 1060 2 1068 2 1069 2 1070 2 1066 2 1069 2 1066 2 1067 2 1069 2 1067 2 1071 2 1072 2 1061 2 1070 2 1070 2 1069 2 1071 2 1070 2 1071 2 1072 2 1072 2 1071 2 1073 2 1061 2 1072 2 1062 2 1072 2 1073 2 1062 2 1074 3 1075 3 1076 3 1074 3 1076 3 1077 3 1077 3 1076 3 1078 3 1079 2 1080 2 1081 2 1082 2 1079 2 1083 2 1083 2 1079 2 1081 2 1084 3 1085 3 1086 3 1085 3 1084 3 1087 3 1088 3 1087 3 1084 3 1089 2 1090 2 1091 2 1091 2 1090 2 1092 2 1093 4 1094 4 1095 4 1095 4 1094 4 1096 4 1097 4 1098 4 1099 4 1099 4 1098 4 1100 4 1101 2 1102 2 1103 2 1103 2 1102 2 1104 2 1105 3 1106 3 1107 3 1107 3 1106 3 1108 3 1109 3 1110 3 1111 3 1112 3 1109 3 1113 3 1114 3 1112 3 1115 3 1116 3 1117 3 1118 3 1114 3 1117 3 1110 3 1114 3 1110 3 1112 3 1119 3 1120 3 1121 3 1120 3 1119 3 1122 3 1122 3 1119 3 1123 3 1122 3 1123 3 1115 3 1115 3 1124 3 1122 3 1111 3 1115 3 1113 3 1118 3 1123 3 1119 3 1118 3 1119 3 1121 3 1116 3 1110 3 1117 3 1114 3 1123 3 1118 3 1116 3 1111 3 1110 3 1109 3 1111 3 1113 3 1125 3 1124 3 1115 3 1125 3 1115 3 1111 3 1126 2 1127 2 1128 2 1126 2 1128 2 1129 2 1128 2 1130 2 1131 2 1131 2 1130 2 1132 2 1133 2 1134 2 1126 2 1134 2 1133 2 1135 2 1128 2 1133 2 1129 2 1136 2 1137 2 1138 2 1136 2 1138 2 1126 2 1126 2 1138 2 1127 2 1136 2 1134 2 1137 2 1139 2 1140 2 1137 2 1141 2 1138 2 1137 2 1141 2 1137 2 1142 2 1131 2 1132 2 1143 2 1143 2 1132 2 1138 2 1143 2 1138 2 1141 2 1134 2 1139 2 1137 2 1144 2 1139 2 1135 2 1135 2 1139 2 1134 2 1140 2 1139 2 1144 2 1128 2 1135 2 1133 2 1145 0 1146 0 1147 0 1147 0 1146 0 1125 0 1147 0 1125 0 1148 0 1148 0 1125 0 1149 0 1149 0 1150 0 1151 0 1146 0 1145 0 1150 0 1150 0 1145 0 1151 0 1151 0 1148 0 1149 0 1152 1 1153 1 1154 1 1155 1 1156 1 1157 1 1154 1 1155 1 1152 1 1152 1 1155 1 1157 1 1156 1 1158 1 1159 1 1157 1 1156 1 1159 1 1159 1 1158 1 1153 1 1153 1 1158 1 1154 1 1160 5 1131 5 1161 5 1161 5 1131 5 1111 5 1162 5 1161 5 1111 5 1163 5 1164 5 1160 5 1160 5 1164 5 1131 5 1165 5 1162 5 1111 5 1166 5 1164 5 1167 5 1166 5 1167 5 1168 5 1168 5 1167 5 1169 5 1165 5 1111 5 1169 5 1169 5 1111 5 1168 5 1164 5 1163 5 1165 5 1165 5 1163 5 1162 5 1170 6 1171 6 1172 6 1172 6 1171 6 1173 6 1174 5 1175 5 1176 5 1177 5 1178 5 1179 5 1174 5 1176 5 1180 5 1177 5 1179 5 1181 5 1181 5 1179 5 1180 5 1180 5 1179 5 1174 5 1182 4 1183 4 1184 4 1185 4 1186 4 1187 4 1187 4 1188 4 1185 4 1182 4 1184 4 1189 4 1189 4 1184 4 1188 4 1188 4 1184 4 1185 4 1190 7 1191 7 1192 7 1190 7 1192 7 1193 7 1194 2 1195 2 1196 2 1194 2 1196 2 1197 2 1198 0 1199 0 1200 0 1200 0 1199 0 1201 0 1202 3 1203 3 1204 3 1205 3 1204 3 1203 3 1206 1 1207 1 1180 1 1180 1 1207 1 1181 1 1208 2 1209 2 1210 2 1211 2 1210 2 1209 2 1212 0 1213 0 1179 0 1179 0 1213 0 1174 0 1214 3 1215 3 1216 3 1214 3 1216 3 1217 3 1218 1 1219 1 1220 1 1220 1 1219 1 1221 1 1222 1 1223 1 1224 1 1224 1 1223 1 1225 1 1226 3 1227 3 1228 3 1228 3 1227 3 1229 3 1163 0 1185 0 1162 0 1162 0 1185 0 1184 0 1230 2 1231 2 1232 2 1232 2 1231 2 1233 2 1165 1 1189 1 1234 1 1234 1 1189 1 1188 1 1235 3 1236 3 1237 3 1237 3 1236 3 1238 3 1239 0 1240 0 1241 0 1241 0 1240 0 1242 0 1243 2 1244 2 1245 2 1245 2 1244 2 1246 2 1247 3 1248 3 1249 3 1250 2 1251 2 1252 2 1253 4 1254 4 1255 4 1255 4 1254 4 1256 4 1156 5 1257 5 1158 5 1158 5 1257 5 1258 5 1259 3 1260 3 1261 3 1262 2 1263 2 1264 2 1265 4 1266 4 1267 4 1267 4 1266 4 1268 4 1147 5 1269 5 1145 5 1145 5 1269 5 1270 5 1271 4 1272 4 1273 4 1273 4 1272 4 1274 4 1275 4 1276 4 1274 4 1274 4 1276 4 1273 4 1276 4 1275 4 1277 4 1276 4 1278 4 1279 4 1280 4 1281 4 1282 4 1282 4 1281 4 1277 4 1277 4 1275 4 1282 4 1279 4 1278 4 1280 4 1280 4 1278 4 1281 4 1282 4 1272 4 1271 4 1283 5 1284 5 1285 5 1283 5 1285 5 1286 5 1283 5 1286 5 1287 5 1287 5 1286 5 1288 5 1287 5 1288 5 1289 5 1289 5 1288 5 1290 5 1291 5 1292 5 1289 5 1284 5 1283 5 1293 5 1293 5 1283 5 1294 5 1292 5 1291 5 1294 5 1294 5 1291 5 1293 5 1285 5 1284 5 1290 5 1290 5 1284 5 1289 5 1295 5 1296 5 1297 5 1298 5 1299 5 1300 5 1300 5 1301 5 1298 5 1298 5 1301 5 1302 5 1302 5 1301 5 1295 5 1302 5 1295 5 1297 5 1303 4 1304 4 1305 4 1306 4 1307 4 1308 4 1308 4 1309 4 1306 4 1306 4 1309 4 1305 4 1305 4 1309 4 1310 4 1305 4 1310 4 1303 4 1311 3 1312 3 1313 3 1311 3 1314 3 1294 3 1311 3 1294 3 1315 3 1316 3 1313 3 1317 3 1317 3 1313 3 1318 3 1319 3 1320 3 1321 3 1317 3 1321 3 1320 3 1320 3 1319 3 1316 3 1322 3 1314 3 1323 3 1316 3 1314 3 1313 3 1323 3 1319 3 1322 3 1322 3 1319 3 1321 3 1317 3 1324 3 1321 3 1312 3 1315 3 1325 3 1312 3 1325 3 1318 3 1318 3 1325 3 1324 3 1317 3 1318 3 1324 3 1322 3 1294 3 1314 3 1311 3 1315 3 1312 3 1326 2 1327 2 1328 2 1329 2 1330 2 1327 2 1292 2 1331 2 1330 2 1332 2 1333 2 1328 2 1279 2 1334 2 1300 2 1300 2 1335 2 1326 2 1326 2 1335 2 1327 2 1279 2 1300 2 1332 2 1332 2 1300 2 1333 2 1334 2 1335 2 1300 2 1336 2 1329 2 1337 2 1337 2 1329 2 1335 2 1337 2 1335 2 1334 2 1338 2 1330 2 1336 2 1336 2 1330 2 1329 2 1338 2 1292 2 1330 2 1327 2 1331 2 1292 2 1327 2 1292 2 1328 2 1328 2 1292 2 1332 2 1339 0 1340 0 1341 0 1341 0 1342 0 1339 0 1339 0 1342 0 1343 0 1343 0 1342 0 1344 0 1343 0 1344 0 1345 0 1344 0 1346 0 1345 0 1341 0 1340 0 1346 0 1346 0 1340 0 1345 0 1347 1 1348 1 1349 1 1349 1 1350 1 1347 1 1351 1 1352 1 1353 1 1353 1 1352 1 1354 1 1352 1 1351 1 1350 1 1350 1 1351 1 1347 1 1353 1 1354 1 1348 1 1348 1 1354 1 1349 1 1355 3 1356 3 1357 3 1358 2 1359 2 1360 2 1361 1 1275 1 1302 1 1302 1 1275 1 1298 1 1362 0 1363 0 1364 0 1364 0 1363 0 1365 0 1366 3 1367 3 1368 3 1369 2 1370 2 1371 2 1372 1 1373 1 1374 1 1374 1 1373 1 1375 1 1277 0 1295 0 1376 0 1376 0 1295 0 1301 0 1285 0 1377 0 1305 0 1305 0 1377 0 1306 0 1378 1 1379 1 1380 1 1380 1 1379 1 1381 1 1382 2 1383 2 1384 2 1385 3 1386 3 1387 3 1388 0 1389 0 1390 0 1390 0 1389 0 1391 0 1392 1 1310 1 1393 1 1393 1 1310 1 1309 1 1394 3 1395 3 1396 3 1397 2 1398 2 1399 2 1400 4 1401 4 1402 4 1402 4 1401 4 1403 4 1404 3 1405 3 1406 3 1406 3 1405 3 1407 3 1408 5 1409 5 1410 5 1410 5 1409 5 1411 5 1412 2 1413 2 1414 2 1414 2 1413 2 1415 2 1416 2 1417 2 1418 2 1418 2 1417 2 1419 2 1420 5 1421 5 1422 5 1422 5 1421 5 1423 5 1424 3 1425 3 1426 3 1426 3 1425 3 1427 3 1428 4 1429 4 1430 4 1430 4 1429 4 1431 4 1432 0 1433 0 1434 0 1434 0 1433 0 1435 0 1436 4 1437 4 1438 4 1438 4 1437 4 1439 4 1440 4 1438 4 1439 4 1441 4 1442 4 1443 4 1443 4 1442 4 1444 4 1443 4 1444 4 1445 4 1438 4 1440 4 1441 4 1443 4 1445 4 1436 4 1436 4 1445 4 1437 4 1441 4 1440 4 1442 4 1446 1 1447 1 1448 1 1448 1 1447 1 1449 1 1450 8 1451 8 1452 8 1453 9 1454 9 1455 9 1456 3 1457 3 1458 3 1459 3 1457 3 1456 3 1459 3 1458 3 1457 3 1460 3 1461 3 1448 3 1461 3 1460 3 1443 3 1460 3 1459 3 1443 3 1461 3 1462 3 1448 3 1459 3 1456 3 1443 3 1461 3 1443 3 1462 3 1438 2 1463 2 1464 2 1465 2 1466 2 1463 2 1466 2 1464 2 1463 2 1464 2 1466 2 1465 2 1467 2 1463 2 1438 2 1468 2 1467 2 1438 2 1469 2 1468 2 1434 2 1469 2 1467 2 1468 2 1469 2 1434 2 1467 2 1470 1 1471 1 1472 1 1472 1 1471 1 1473 1 1474 4 1475 4 1476 4 1477 0 1478 0 1479 0 1480 5 1481 5 1482 5 1480 5 1482 5 1483 5 1484 2 1485 2 1486 2 1484 2 1486 2 1487 2 1484 2 1487 2 1488 2 1484 2 1488 2 1485 2 1489 2 1490 2 1491 2 1489 2 1491 2 1485 2 1489 2 1485 2 1492 2 1492 2 1493 2 1489 2 1489 2 1493 2 1490 2 1490 2 1493 2 1494 2 1495 2 1496 2 1490 2 1495 2 1490 2 1494 2 1494 2 1497 2 1495 2 1495 2 1497 2 1496 2 1496 2 1498 2 1487 2 1498 2 1496 2 1497 2 1498 2 1497 2 1499 2 1498 2 1499 2 1487 2 1500 3 1067 3 1068 3 1067 3 1500 3 1501 3 1500 3 1502 3 1501 3 1500 3 1068 3 1060 3 1502 3 1503 3 1504 3 1502 3 1500 3 1060 3 1502 3 1060 3 1503 3 1503 3 1060 3 1059 3 1503 3 1063 3 1062 3 1503 3 1059 3 1063 3 1505 3 1073 3 1071 3 1504 3 1503 3 1062 3 1504 3 1062 3 1505 3 1504 3 1505 3 1506 3 1505 3 1062 3 1073 3 1506 3 1505 3 1071 3 1506 3 1071 3 1507 3 1507 3 1501 3 1506 3 1501 3 1507 3 1067 3 1507 3 1071 3 1067 3 1508 2 1509 2 1510 2 1508 2 1510 2 1511 2 1512 2 1513 2 1514 2 1512 2 1515 2 1513 2 1515 2 1512 2 1516 2 1509 2 1517 2 1514 2 1514 2 1517 2 1518 2 1508 2 1517 2 1509 2 1514 2 1518 2 1512 2 1508 2 1511 2 1518 2 1512 2 1518 2 1516 2 1508 2 1518 2 1517 2 1518 2 1511 2 1516 2 1519 3 1520 3 1521 3 1522 3 1519 3 1521 3 1523 3 1524 3 1521 3 1523 3 1521 3 1520 3 1525 3 1526 3 1527 3 1527 3 1526 3 1528 3 1529 3 1530 3 1525 3 1525 3 1530 3 1526 3 1529 3 1531 3 1530 3 1532 3 1533 3 1534 3 1532 3 1534 3 1535 3 1527 3 1528 3 1536 3 1527 3 1536 3 1532 3 1532 3 1536 3 1533 3 1535 3 1537 3 1538 3 1535 3 1539 3 1537 3 1538 3 1537 3 1540 3 1538 3 1540 3 1529 3 1529 3 1540 3 1531 3 1535 3 1534 3 1539 3 1541 2 1542 2 1543 2 1544 2 1542 2 1541 2 1543 2 1545 2 1541 2 1545 2 1543 2 1546 2 1547 2 1548 2 1549 2 1550 2 1548 2 1547 2 1551 2 1550 2 1547 2 1552 2 1553 2 1551 2 1544 2 1553 2 1552 2 1542 2 1544 2 1552 2 1546 2 1543 2 1549 2 1547 2 1552 2 1551 2 1554 3 1555 3 1556 3 1557 3 1556 3 1555 3 1557 3 1558 3 1559 3 1560 3 1561 3 1559 3 1562 3 1561 3 1560 3 1555 3 1554 3 1563 3 1563 3 1564 3 1555 3 1563 3 1565 3 1564 3 1559 3 1558 3 1560 3 1555 3 1558 3 1557 3 1565 3 1562 3 1560 3 1566 3 1567 3 1568 3 1566 3 1568 3 1569 3 1570 3 1571 3 1567 3 1570 3 1567 3 1566 3 1572 3 1571 3 1570 3 1573 3 1574 3 1575 3 1573 3 1575 3 1572 3 1572 3 1575 3 1571 3 1569 3 1568 3 1576 3 1569 3 1576 3 1577 3 1578 3 1574 3 1573 3 1577 3 1576 3 1579 3 1577 3 1579 3 1578 3 1578 3 1579 3 1574 3 1580 2 1581 2 1582 2 1580 2 1582 2 1583 2 1584 2 1585 2 1586 2 1584 2 1586 2 1587 2 1583 2 1582 2 1585 2 1583 2 1585 2 1584 2 1588 2 1581 2 1580 2 1589 2 1590 2 1591 2 1589 2 1591 2 1588 2 1588 2 1591 2 1581 2 1592 2 1590 2 1589 2 1592 2 1593 2 1590 2 1587 2 1586 2 1593 2 1587 2 1593 2 1592 2 1594 3 1595 3 1596 3 1594 3 1597 3 1598 3 1594 3 1598 3 1595 3 1599 3 1598 3 1597 3 1600 3 1599 3 1597 3 1600 3 1601 3 1602 3 1596 3 1595 3 1603 3 1604 3 1603 3 1602 3 1605 3 1604 3 1602 3 1602 3 1601 3 1606 3 1607 2 1608 2 1609 2 1610 2 1611 2 1609 2 1607 2 1609 2 1611 2 1607 2 1612 2 1608 2 1613 2 1608 2 1612 2 1614 2 1615 2 1616 2 1617 2 1615 2 1614 2 1618 2 1614 2 1610 2 1611 2 1610 2 1614 2 1619 1 1620 1 207 1 1619 1 207 1 1621 1 1619 1 1621 1 1622 1 1622 1 1621 1 1623 1 1624 2 207 2 1620 2 1624 2 1620 2 1625 2 304 2 1626 2 1627 2 1627 2 1626 2 1628 2 1628 2 1626 2 1629 2 1630 2 1624 2 1625 2 1630 2 1625 2 1631 2 1628 2 1629 2 1632 2 1632 2 1629 2 1630 2 1632 2 1630 2 1631 2 1630 2 1633 2 1624 2 1629 2 1626 2 1633 2 1629 2 1633 2 1630 2 1634 3 1635 3 1636 3 1637 3 1638 3 1639 3 1637 3 1639 3 1619 3 1637 3 1619 3 1622 3 1640 3 1641 3 1637 3 1642 3 1643 3 1634 3 1634 3 1643 3 1638 3 1634 3 1638 3 1637 3 1641 3 1634 3 1637 3 1644 3 1642 3 1645 3 1645 3 1642 3 1634 3 1645 3 1634 3 1646 3 1646 3 1634 3 1636 3 1645 3 1647 3 1643 3 1645 3 1643 3 1644 3 1635 3 1634 3 1641 3 1642 3 1644 3 1643 3 1637 3 1622 3 1640 3 304 0 1627 0 1636 0 304 0 1636 0 1648 0 1648 0 1636 0 1635 0 1648 0 1635 0 1649 0 1650 2 1651 2 1652 2 1650 2 1652 2 1649 2 1653 2 1654 2 1650 2 1655 2 1623 2 1656 2 1656 2 1657 2 1655 2 1654 2 1655 2 1650 2 1650 2 1658 2 1651 2 1623 2 1655 2 1654 2 1650 2 1649 2 1653 2 1657 2 1659 2 1655 2 1655 2 1659 2 1650 2 1650 2 1659 2 1658 2 1660 2 1661 2 1662 2 1663 2 1664 2 1665 2 1665 2 1664 2 1666 2 1661 2 1667 2 1668 2 1669 2 1662 2 1666 2 1666 2 1662 2 1670 2 1666 2 1670 2 1665 2 1662 2 1669 2 1671 2 1668 2 1672 2 1661 2 1672 2 1673 2 1661 2 1661 2 1673 2 1662 2 1671 2 1674 2 1662 2 1662 2 1674 2 1675 2 1662 2 1675 2 1660 2 1676 4 1677 4 1678 4 1678 4 1677 4 1679 4 1680 2 1681 2 1682 2 1682 2 1681 2 1683 2 1684 2 1685 2 1686 2 1686 2 1685 2 1687 2 1686 2 1687 2 1680 2 1680 2 1687 2 1681 2 1688 2 1689 2 1690 2 1690 2 1689 2 1684 2 1691 2 1692 2 1693 2 1693 2 1692 2 1688 2 1683 2 1694 2 1682 2 1682 2 1694 2 1695 2 1695 2 1694 2 1691 2 1696 3 1697 3 1698 3 1698 3 1697 3 1699 3 1700 3 1701 3 1702 3 1702 3 1701 3 1703 3 1704 3 1705 3 1706 3 1706 3 1705 3 1700 3 1698 3 1699 3 1707 3 1707 3 1699 3 1708 3 1707 3 1708 3 1704 3 1704 3 1708 3 1705 3 1703 3 1709 3 1710 3 1710 3 1709 3 1711 3 1710 3 1711 3 1696 3 1696 3 1711 3 1697 3</p>
        </triangles>
      </mesh>
    </geometry>
  </library_geometries>
  <library_visual_scenes>
    <visual_scene id="DefaultScene">
      <node id="node_a8515b56_b908_4e05_9773_158509a4095e" type="NODE">
        <matrix>1 0 0 0 0 1 0 0 0 0 1 0 0 0 0 1</matrix>
        <node id="node_b3b6165c_c265_4474_a430_771ad45aa75e" type="NODE">
          <matrix>1 0 0 0 0 1 0 0 0 0 1 0 0 0 0 1</matrix>
          <node id="node_b3b6165c_c265_4474_a430_771ad45aa75e_mesh0" type="NODE">
            <matrix>1 0 0 0 0 1 0 0 0 0 1 0 0 0 0 1</matrix>
            <instance_geometry url="#geometry_93d0ec84_ce52_4c86_95a9_09849187051a">
              <bind_material>
                <technique_common>
                  <instance_material symbol="mat_0" target="#mat_0"/>
                </technique_common>
              </bind_material>
            </instance_geometry>
          </node>
        </node>
      </node>
    </visual_scene>
  </library_visual_scenes>
  <scene>
    <instance_visual_scene url="#DefaultScene"/>
  </scene>
</COLLADA>
