<?xml version="1.0" encoding="UTF-8"?>
<COLLADA xmlns="http://www.collada.org/2005/11/COLLADASchema" version="1.4.1">
<!--
# File generated by ImageToStl.com - Free Image and 3D model conversion tools
-->
  <asset>
    <contributor>
      <author>ImageToStl.com</author>
      <authoring_tool>ImageToStl.com</authoring_tool>
    </contributor>
    <created>2026-04-08T11:07:03</created>
    <modified>2026-04-08T11:07:03</modified>
    <up_axis>Z_UP</up_axis>
  </asset>
  <library_effects>
    <effect id="effect_0">
        <profile_COMMON>
          <technique sid="common">
            <phong>
              <diffuse>
                <color>0.85 0.85 0.85 1</color>
              </diffuse>
              <specular>
                <color>0.05 0.05 0.05 1</color>
              </specular>
              <shininess>
                <float>64</float>
              </shininess>
            </phong>
          </technique>
        </profile_COMMON>
    </effect>
  </library_effects>
  <library_materials>
    <material id="mat_0">
      <instance_effect url="#effect_0"/>
    </material>
  </library_materials>
  <library_geometries>
    <geometry id="geometry_4068075f_4c40_4c4c_be06_d1a6bbaedeca">
      <mesh>
        <source id="pos_0">
          <float_array id="pos_0-array" count="4812">-0.01198394 -0.05512374 0.004 -0.01 -0.05305 0.004 -0.01203373 -0.05710477 0.004 -0.01 -0.07405 0.004 -0.01340351 -0.05463183 0.004 -0.016 -0.05305 0.004 -0.01427893 -0.05540926 0.004 -0.01410851 -0.05706054 0.004 -0.016 -0.07405 0.004 -0.01340351 -0.05746818 0.004 -0.01203373 -0.06710476 0.004 -0.01203373 -0.06499524 0.004 -0.01340351 -0.06463183 0.004 -0.01430426 -0.06554472 0.004 -0.01425361 -0.0668262 0.004 -0.01340351 -0.06746817 0.004 -0.01 -0.07405 0.01 -0.01 -0.07169074 0.00827893 -0.01 -0.06963183 0.00740351 -0.01 -0.06224703 0.00609605 -0.01 -0.06251817 0.00686395 -0.01 -0.07246818 0.00740351 -0.01 -0.06210947 0.00796111 -0.01 -0.06077907 0.00844935 -0.01 -0.05305 0.01 -0.01 -0.05987336 0.00788856 -0.01 -0.05958183 0.00686395 -0.01 -0.06005666 0.00591036 -0.01 -0.06077437 0.00552554 -0.01 -0.07026035 0.00572467 -0.01 -0.07197626 0.00598394 -0.01 -0.06973012 0.00634278 -0.016 -0.05305 0.01 -0.016 -0.07405 0.01 -0.01410851 -0.05706054 0.01 -0.01234278 -0.06473012 0.01 -0.01203373 -0.06710476 0.01 -0.01425361 -0.0668262 0.01 -0.01375601 -0.06483564 0.01 -0.01427893 -0.05540926 0.01 -0.01340351 -0.05463183 0.01 -0.01198394 -0.05512374 0.01 -0.01340351 -0.05746818 0.01 -0.01234278 -0.05736988 0.01 -0.01340351 -0.06746817 0.01 -0.01172467 -0.05683965 0.01 -0.016 -0.07197626 0.00598394 -0.016 -0.06999523 0.00603373 -0.016 -0.05999523 0.00603373 -0.016 -0.06210477 0.00603373 -0.016 -0.05971488 0.00751348 -0.016 -0.07246818 0.00740351 -0.016 -0.06226436 0.00775601 -0.016 -0.06963183 0.00740351 -0.016 -0.07003946 0.00810851 -0.016 -0.07169074 0.00827893 -0.016 -0.06050814 0.00839871 0.00862697 -0.05742303 -0 0.0102 -0.0491 -0 0.00892894 -0.059375 -0 0.0102 -0.078 -0 -0.00862697 -0.06967697 -0 -0.0102 -0.078 -0 -0.00903947 -0.0681375 -0 -0.0102 -0.0491 -0 -0.0070875 -0.05701053 -0 -0.00862697 -0.05742303 -0 0.0075 -0.0569 -0 0.00637303 -0.05742303 -0 -0.0075 -0.0702 -0 -0.00637303 -0.06967697 -0 0.00596053 -0.0589625 -0 -0.00607106 -0.059375 -0 -0.00585 -0.05855 -0 0.0070875 -0.07008947 -0 0.008325 -0.06997894 -0 0.00892894 -0.069375 -0 0.008325 -0.06712106 -0 0.006675 -0.06712106 -0 -0.0070875 -0.06008947 -0 0.00607106 -0.067725 -0 0.008325 -0.05997894 -0 0.0070875 -0.06008947 -0 -0.0070875 -0.06701053 -0 -0.008325 -0.05997894 -0 -0.008325 -0.06712106 -0 -0.00903947 -0.0589625 -0 0.00585 -0.06855 -0 -0.00596053 -0.0681375 -0 -0.016 -0.078 -0.003 -0.0102 -0.078 -0.003 -0.016 -0.078 -0 0.0102 -0.078 -0.003 0.016 -0.078 -0.003 0.016 -0.078 0.0005 -0.026 -0.078 0.004 0.019 -0.078 0.004 0.019 -0.078 0.0005 -0.026 -0.078 -0 0.019 -0.0491 0.004 0.019 -0.0491 0.0005 0.016 -0.0491 0.0005 0.016 -0.0491 -0.003 0.0102 -0.0491 -0.003 -0.0102 -0.0491 -0.003 -0.016 -0.0491 -0.003 -0.016 -0.0491 -0 -0.026 -0.0491 0.004 -0.026 -0.0491 -0 -0.01453947 -0.0556375 0.004 -0.013 -0.0544 0.004 -0.016275 -0.0568375 0.004 0.01453947 -0.0664625 0.004 0.019 -0.061375 0.004 0.01412697 -0.06492303 0.004 0.0134125 -0.06758947 0.004 0.00997768 -0.07045119 0.004 0.01187303 -0.06717697 0.004 0.01146053 -0.0656375 0.004 0.013 -0.0644 0.004 0.01453947 -0.0556375 0.004 0.01442894 -0.056875 0.004 0.0134125 -0.05758947 0.004 0.013 -0.0544 0.004 -0.0125875 -0.05758947 0.004 -0.01412697 -0.05717697 0.004 -0.01146053 -0.0564625 0.004 -0.011 -0.0549 0.004 -0.0125875 -0.06451053 0.004 -0.01187303 -0.06717697 0.004 -0.00997768 -0.07045119 0.004 -0.01146053 -0.0656375 0.004 -0.01356349 -0.06743848 0.004 -0.0055 -0.0491 0.004 0.00461468 -0.05735486 0.004 0.00614176 -0.05578982 0.004 0.00869514 -0.05566467 0.004 0.01022798 -0.056975 0.004 0.011 -0.0549 0.004 0.00997768 -0.06045119 0.004 0.01146053 -0.0556375 0.004 0.01187303 -0.05717697 0.004 0.011 -0.06397501 0.004 0.00869514 -0.06143532 0.004 0.00650868 -0.06146216 0.004 0.00502232 -0.06045119 0.004 0 -0.06290625 0.004 0.00440367 -0.05895764 0.004 0.00440367 -0.06895764 0.004 0.00461468 -0.06735486 0.004 0.00614176 -0.06578983 0.004 0.01022798 -0.066975 0.004 0.00869514 -0.06566468 0.004 0.00869514 -0.07143532 0.004 0.00650868 -0.07146215 0.004 0 -0.07134999 0.004 0.00502232 -0.07045119 0.004 -0.00997768 -0.06045119 0.004 -0.01022798 -0.056975 0.004 -0.00461468 -0.05735486 0.004 -0.00869514 -0.05566467 0.004 -0.00614176 -0.05578982 0.004 -0.00440367 -0.05895764 0.004 -0.00518541 -0.06057634 0.004 -0.00709236 -0.06164633 0.004 -0.00869514 -0.06143532 0.004 -0.01022798 -0.066975 0.004 -0.00869514 -0.06566468 0.004 -0.00668472 -0.06550733 0.004 -0.00559881 -0.06607231 0.004 -0.00461468 -0.06735486 0.004 -0.016275 -0.078 0.004 -0.00849132 -0.07146215 0.004 -0.00440367 -0.06895764 0.004 -0.00502232 -0.07045119 0.004 -0.005925 -0.07127798 0.004 -0.02396216 -0.05200868 0.004 -0.026 -0.05994375 0.004 -0.02393532 -0.05419514 0.004 -0.02220442 -0.05021299 0.004 -0.016275 -0.0491 0.004 -0.01933874 -0.05044365 0.004 -0.01816468 -0.05180486 0.004 -0.01795367 -0.05340764 0.004 -0.01857232 -0.05490119 0.004 -0.02204132 -0.05591216 0.004 -0.01985486 -0.05588532 0.004 -0.02404083 -0.06339375 0.004 -0.02352768 -0.06109881 0.004 -0.02204132 -0.06008784 0.004 -0.01921359 -0.06060674 0.004 -0.01438849 -0.06548651 0.004 -0.026 -0.0668375 0.004 -0.01849364 -0.06471127 0.004 -0.01985486 -0.06588532 0.004 -0.02204132 -0.06591216 0.004 -0.01795367 -0.06259236 0.004 -0.02393532 -0.07180486 0.004 -0.02295119 -0.07052232 0.004 -0.01985486 -0.07011467 0.004 -0.02145764 -0.06990366 0.004 -0.01857232 -0.0710988 0.004 -0.02327739 -0.07522739 0.004 -0.01849364 -0.07471126 0.004 -0.01985486 -0.07588533 0.004 -0.02145764 -0.07609633 0.004 -0.01795367 -0.07259236 0.004 -0.01146053 -0.0664625 -0.003 -0.01187303 -0.06492303 -0.003 -0.01187303 -0.05492303 -0.003 -0.01135 -0.05605 -0.003 -0.012175 -0.05747894 -0.003 -0.013825 -0.06747894 -0.003 -0.0125875 -0.06758947 -0.003 -0.01412697 -0.05492303 -0.003 -0.013 -0.0544 -0.003 -0.01442894 -0.056875 -0.003 -0.0134125 -0.05758947 -0.003 -0.013 -0.0644 -0.003 -0.013825 -0.06462106 -0.003 -0.01442894 -0.066875 -0.003 0.01135 -0.06605 -0.003 0.01187303 -0.06717697 -0.003 0.01187303 -0.05492303 -0.003 0.01146053 -0.0564625 -0.003 0.0125875 -0.05758947 -0.003 0.012175 -0.06462106 -0.003 0.01412697 -0.05492303 -0.003 0.013 -0.0544 -0.003 0.013825 -0.05747894 -0.003 0.01442894 -0.056875 -0.003 0.0134125 -0.06758947 -0.003 0.01442894 -0.066875 -0.003 0.013825 -0.06462106 -0.003 0.013 -0.0644 -0.003 0.01135 -0.06605 0.004 0.01157106 -0.066875 -0.003 0.01157106 -0.066875 0.004 0.012175 -0.06747894 -0.003 0.012175 -0.06747894 0.004 0.013 -0.0677 -0.003 0.013 -0.0677 0.004 0.013825 -0.06747894 -0.003 0.013825 -0.06747894 0.004 0.01442894 -0.066875 0.004 0.01465 -0.06605 -0.003 0.01465 -0.06605 0.004 0.01442894 -0.065225 -0.003 0.01442894 -0.065225 0.004 0.013825 -0.06462106 0.004 0.012175 -0.06462106 0.004 0.01157106 -0.065225 -0.003 0.01157106 -0.065225 0.004 0.01135 -0.05605 -0.003 0.01135 -0.05605 0.004 0.01157106 -0.056875 -0.003 0.01157106 -0.056875 0.004 0.012175 -0.05747894 -0.003 0.012175 -0.05747894 0.004 0.013 -0.0577 -0.003 0.013 -0.0577 0.004 0.013825 -0.05747894 0.004 0.01465 -0.05605 -0.003 0.01465 -0.05605 0.004 0.01442894 -0.055225 -0.003 0.01442894 -0.055225 0.004 0.013825 -0.05462106 -0.003 0.013825 -0.05462106 0.004 0.012175 -0.05462106 -0.003 0.012175 -0.05462106 0.004 0.01157106 -0.055225 -0.003 0.01157106 -0.055225 0.004 -0.01465 -0.05605 -0.003 -0.01465 -0.05605 0.004 -0.01442894 -0.056875 0.004 -0.013825 -0.05747894 -0.003 -0.013825 -0.05747894 0.004 -0.013 -0.0577 -0.003 -0.013 -0.0577 0.004 -0.012175 -0.05747894 0.004 -0.01157106 -0.056875 -0.003 -0.01157106 -0.056875 0.004 -0.01135 -0.05605 0.004 -0.01157106 -0.055225 -0.003 -0.01157106 -0.055225 0.004 -0.012175 -0.05462106 -0.003 -0.012175 -0.05462106 0.004 -0.013825 -0.05462106 -0.003 -0.013825 -0.05462106 0.004 -0.01442894 -0.055225 -0.003 -0.01442894 -0.055225 0.004 -0.01465 -0.06605 -0.003 -0.01465 -0.06605 0.004 -0.01442894 -0.066875 0.004 -0.013825 -0.06747894 0.004 -0.013 -0.0677 -0.003 -0.013 -0.0677 0.004 -0.012175 -0.06747894 -0.003 -0.012175 -0.06747894 0.004 -0.01157106 -0.066875 -0.003 -0.01157106 -0.066875 0.004 -0.01135 -0.06605 -0.003 -0.01135 -0.06605 0.004 -0.01157106 -0.065225 -0.003 -0.01157106 -0.065225 0.004 -0.012175 -0.06462106 -0.003 -0.012175 -0.06462106 0.004 -0.013 -0.0644 0.004 -0.013825 -0.06462106 0.004 -0.01442894 -0.065225 -0.003 -0.01442894 -0.065225 0.004 -0.020225 -0.07442894 -0 -0.0214625 -0.07453947 -0 -0.02258947 -0.0734125 -0 -0.01951053 -0.0525875 -0 -0.020225 -0.05157106 -0 -0.0214625 -0.05146053 -0 -0.02258947 -0.0525875 -0 -0.02217697 -0.05412697 -0 -0.02247894 -0.062175 -0 -0.01951053 -0.0734125 -0 -0.020225 -0.07157106 -0 -0.0194 -0.063 -0 -0.01962106 -0.063825 -0 -0.021875 -0.07157106 -0 -0.020225 -0.06157106 -0 -0.02105 -0.05465 -0 -0.020225 -0.05442894 -0 -0.0214625 -0.06146053 -0 -0.021875 -0.06442894 -0 -0.02105 -0.07135 -0 -0.0206375 -0.06453947 -0 0.01401606 -0.05512374 0.004 0.016 -0.05305 0.004 0.01396627 -0.05710477 0.004 0.016 -0.07405 0.004 0.0125965 -0.05463183 0.004 0.01 -0.05305 0.004 0.01172107 -0.05540926 0.004 0.01189149 -0.05706054 0.004 0.01 -0.07405 0.004 0.0125965 -0.05746818 0.004 0.01396627 -0.06710476 0.004 0.01396627 -0.06499524 0.004 0.0125965 -0.06463183 0.004 0.01169574 -0.06554472 0.004 0.01174639 -0.0668262 0.004 0.0125965 -0.06746817 0.004 0.016 -0.07405 0.01 0.016 -0.07169074 0.00827893 0.016 -0.06963183 0.00740351 0.016 -0.06224703 0.00609605 0.016 -0.06251817 0.00686395 0.016 -0.07246818 0.00740351 0.016 -0.06210947 0.00796111 0.016 -0.06077907 0.00844935 0.016 -0.05305 0.01 0.016 -0.05987336 0.00788856 0.016 -0.05958183 0.00686395 0.016 -0.06005666 0.00591036 0.016 -0.06077437 0.00552554 0.016 -0.07026035 0.00572467 0.016 -0.07197626 0.00598394 0.016 -0.06973012 0.00634278 0.01 -0.05305 0.01 0.01 -0.07405 0.01 0.01189149 -0.05706054 0.01 0.01365722 -0.06473012 0.01 0.01396627 -0.06710476 0.01 0.01174639 -0.0668262 0.01 0.01224399 -0.06483564 0.01 0.01172107 -0.05540926 0.01 0.0125965 -0.05463183 0.01 0.01401606 -0.05512374 0.01 0.0125965 -0.05746818 0.01 0.01365722 -0.05736988 0.01 0.0125965 -0.06746817 0.01 0.01427533 -0.05683965 0.01 0.01 -0.07197626 0.00598394 0.01 -0.06999523 0.00603373 0.01 -0.05999523 0.00603373 0.01 -0.06210477 0.00603373 0.01 -0.05971488 0.00751348 0.01 -0.07246818 0.00740351 0.01 -0.06226436 0.00775601 0.01 -0.06963183 0.00740351 0.01 -0.07003946 0.00810851 0.01 -0.07169074 0.00827893 0.01 -0.06050814 0.00839871 -0.02265 -0.043 -0.003 -0.02145 -0.04449282 -0.003 -0.02145 -0.05150718 -0.003 -0.02025 -0.05161436 -0.003 -0.02105 -0.0414 -0.003 -0.026 0.01111504 -0.003 -0.02025 -0.04161436 -0.003 -0.01966436 -0.0422 -0.003 -0.01947467 0.01087936 -0.003 -0.02017099 0.01008804 -0.003 -0.01955718 -0.07340001 -0.003 -0.0161 -0.078 -0.003 -0.02065 -0.07449283 -0.003 -0.02015501 0.00401289 -0.003 -0.018 0.00241928 -0.003 -0.02014068 0.000911 -0.003 -0.02025 -0.06438564 -0.003 -0.01955718 -0.0626 -0.003 -0.02025 -0.07161436 -0.003 -0.01966436 -0.0538 -0.003 -0.0161 -0.03869154 -0.003 -0.02025 -0.04438564 -0.003 -0.018 0.00870246 -0.003 -0.02015501 0.00715448 -0.003 -0.02254282 -0.0726 -0.003 -0.026 -0.078 -0.003 -0.02214282 -0.07409282 -0.003 -0.018 -0.00742693 -0.003 -0.02025 -0.01014709 -0.003 -0.018 -0.00658407 -0.003 -0.02265 -0.053 -0.003 -0.02185 -0.05438564 -0.003 -0.02243564 -0.0622 -0.003 -0.02065 -0.06150718 -0.003 -0.02065 -0.05449282 -0.003 -0.02185 -0.04161436 -0.003 -0.02243564 -0.0422 -0.003 -0.02265 -0.063 -0.003 -0.018 -0.02941808 -0.003 -0.02022547 -0.03346984 -0.003 -0.018 -0.02857522 -0.003 -0.0201513 -0.01773975 -0.003 -0.018 -0.01915044 -0.003 -0.018 -0.0199933 -0.003 -0.02005261 -0.03725291 -0.003 -0.02185 -0.06438564 -0.003 -0.018 -0.00030089 -0.003 -0.018 -0.00114374 -0.003 -0.02243564 -0.0522 -0.003 -0.018 -0.00344248 -0.003 -0.018 -0.00428534 -0.003 -0.02010424 -0.00266355 -0.003 -0.02105 -0.0646 -0.003 -0.02145 -0.07150719 -0.003 -0.018 -0.02543363 -0.003 -0.018 -0.02627649 -0.003 -0.0201513 -0.02402293 -0.003 -0.018 -0.03485841 -0.003 -0.018 -0.03570126 -0.003 -0.018 -0.02229204 -0.003 -0.018 -0.02313489 -0.003 -0.018 -0.03171682 -0.003 -0.018 -0.03255967 -0.003 -0.018 -0.00972567 -0.003 -0.018 -0.01056852 -0.003 -0.02010424 -0.01208832 -0.003 -0.018 -0.01328869 -0.003 -0.02010424 -0.01448905 -0.003 -0.018 0.00556087 -0.003 -0.018 -0.01685171 -0.003 -0.018 -0.01600885 -0.003 -0.018 -0.03570126 -0 -0.02005261 -0.03644835 -0 -0.02005261 -0.03644835 -0.003 -0.018 0.00199785 -0 -0.02005261 0.00125076 -0 -0.018 0.00199785 -0.003 -0.02005261 0.00125076 -0.003 -0.02005261 0.0004462 -0 -0.018 -0.00030089 -0 -0.02005261 0.0004462 -0.003 -0.018 -0.00114374 -0 -0.02005261 -0.00189083 -0 -0.02005261 -0.00189083 -0.003 -0.02005261 -0.00269539 -0 -0.018 -0.00344248 -0 -0.02005261 -0.00269539 -0.003 -0.018 -0.00428534 -0 -0.02005261 -0.00503242 -0 -0.02005261 -0.00503242 -0.003 -0.02005261 -0.00583699 -0 -0.018 -0.00658407 -0 -0.02005261 -0.00583699 -0.003 -0.018 -0.00742693 -0 -0.02005261 -0.00817402 -0 -0.02005261 -0.00817402 -0.003 -0.02005261 -0.00897858 -0 -0.018 -0.00972567 -0 -0.02005261 -0.00897858 -0.003 -0.018 -0.01056852 -0 -0.02005261 -0.01131561 -0 -0.02005261 -0.01131561 -0.003 -0.02005261 -0.01212017 -0 -0.018 -0.01286726 -0 -0.02005261 -0.01212017 -0.003 -0.018 -0.01286726 -0.003 -0.018 -0.01371012 -0 -0.02005261 -0.0144572 -0 -0.018 -0.01371012 -0.003 -0.02005261 -0.0144572 -0.003 -0.02005261 -0.01526176 -0 -0.018 -0.01600885 -0 -0.02005261 -0.01526176 -0.003 -0.018 -0.01685171 -0 -0.02005261 -0.01759879 -0 -0.02005261 -0.01759879 -0.003 -0.02005261 -0.01840336 -0 -0.018 -0.01915044 -0 -0.02005261 -0.01840336 -0.003 -0.018 -0.0199933 -0 -0.02005261 -0.02074039 -0 -0.02005261 -0.02074039 -0.003 -0.02005261 -0.02154495 -0 -0.018 -0.02229204 -0 -0.02005261 -0.02154495 -0.003 -0.018 -0.02313489 -0 -0.02005261 -0.02388198 -0 -0.02005261 -0.02388198 -0.003 -0.02005261 -0.02468654 -0 -0.018 -0.02543363 -0 -0.02005261 -0.02468654 -0.003 -0.018 -0.02627649 -0 -0.02005261 -0.02702357 -0 -0.02005261 -0.02702357 -0.003 -0.02005261 -0.02782813 -0 -0.018 -0.02857522 -0 -0.02005261 -0.02782813 -0.003 -0.018 -0.02941808 -0 -0.02005261 -0.03016517 -0 -0.02005261 -0.03016517 -0.003 -0.02005261 -0.03096973 -0 -0.018 -0.03171682 -0 -0.02005261 -0.03096973 -0.003 -0.018 -0.03255967 -0 -0.02005261 -0.03330676 -0 -0.02005261 -0.03330676 -0.003 -0.02005261 -0.03411132 -0 -0.018 -0.03485841 -0 -0.02005261 -0.03411132 -0.003 -0.018 0.00513944 -0 -0.02005261 0.00439236 -0 -0.018 0.00513944 -0.003 -0.02005261 0.00439236 -0.003 -0.02005261 0.00672939 -0 -0.018 0.0059823 -0 -0.02005261 0.00672939 -0.003 -0.018 0.0059823 -0.003 -0.018 0.00828103 -0 -0.02005261 0.00753394 -0 -0.018 0.00828103 -0.003 -0.02005261 0.00753394 -0.003 -0.02005261 0.00987098 -0 -0.018 0.00912389 -0 -0.02005261 0.00987098 -0.003 -0.018 0.00912389 -0.003 -0.02005261 0.01067554 -0 -0.02005261 0.01067554 -0.003 -0.01884509 0.01111504 -0 -0.01884509 0.01111504 -0.003 -0.0161 -0.078 -0 -0.026 -0.078 -0 -0.02185 -0.05438564 -0 -0.02265 -0.053 -0 -0.02214282 -0.06190718 -0 -0.02254282 -0.0434 -0 -0.026 0.01111504 -0 -0.02022547 0.01027326 -0 -0.01955718 -0.07340001 -0 -0.02025 -0.07438564 -0 -0.02145 -0.07449283 -0 -0.02254282 -0.07340001 -0 -0.02065 -0.05150718 -0 -0.02025 -0.04438564 -0 -0.02145 -0.04449282 -0 -0.02185 -0.05161436 -0 -0.02010424 -0.00266355 -0 -0.02025 -0.0070055 -0 -0.02010424 -0.00506427 -0 -0.01966436 -0.0422 -0 -0.0161 -0.03869154 -0 -0.01966436 -0.0522 -0 -0.02243564 -0.0422 -0 -0.02185 -0.04161436 -0 -0.01966436 -0.0638 -0 -0.02065 -0.06449282 -0 -0.02025 -0.07161436 -0 -0.02185 -0.06438564 -0 -0.02243564 -0.0638 -0 -0.01995718 -0.05409282 -0 -0.02025 -0.06161436 -0 -0.02010873 0.00073995 -0 -0.02105 -0.0614 -0 -0.02105 -0.0546 -0 -0.018 0.0028407 -0 -0.02185 -0.07161436 -0 -0.02105 -0.0714 -0 -0.01947467 0.01087936 -0 -0.018 -0.00386391 -0 -0.02005261 -0.03725291 -0 -0.02013903 -0.02146341 -0 -0.018 -0.01957187 -0 -0.02010424 -0.01800108 -0 -0.02016485 -0.03050183 -0 -0.02016485 -0.02736024 -0 -0.02013903 -0.024605 -0 -0.02016485 -0.03666542 -0 -0.018 -0.03527983 -0 -0.02010424 -0.03407947 -0 -0.018 -0.02585506 -0 -0.02010424 -0.01448905 -0 -0.02005261 0.00358779 -0 -0.02005261 0.00358779 -0.003 -0.018 0.0028407 -0.003 -0.0096 -0.078 -0.0004 -0.0097 -0.078 -0.0078 -0.0045 -0.078 -0.0065 -0.0045 -0.078 -0.008 0.00361128 -0.078 -0.00567678 0.0045 -0.078 -0.008 0.0045 -0.078 -0.0045 -0.0044 -0.078 -0.0036 -0.0045 -0.078 -0.0045 0.0006 -0.078 -0.0003 0.0006 -0.078 -0.0018 0.0096 -0.078 -0.0004 0.0044 -0.078 -0.0036 0.0097 -0.078 -0.0078 -0.0006 -0.078 -0.0018 -0.0006 -0.078 -0.0003 0.0045 -0.078 -0.0065 0.0045 -0.0491 -0.008 0.0045 -0.073 -0.008 0.0095 -0.073 -0.008 0.0095 -0.078 -0.008 0.0097 -0.073 -0.0078 0.0097 -0.078 -0.0005 0.0095 -0.078 -0.0003 0.0095 -0.073 -0.0003 -0.0095 -0.078 -0.0003 -0.0097 -0.078 -0.0005 -0.0097 -0.073 -0.0078 -0.0095 -0.073 -0.008 -0.0045 -0.073 -0.008 -0.0095 -0.078 -0.008 0.0044 -0.077 -0.0036 0.0097 -0.077 -0.0078 0.0045 -0.077 -0.0065 0.0045 -0.077 -0.008 0.0096 -0.077 -0.0004 -0.0045 -0.077 -0.008 -0.0095 -0.077 -0.008 -0.0045 -0.077 -0.0065 -0.0095 -0.077 -0.0003 -0.0045 -0.077 -0.0045 -0.0044 -0.077 -0.0036 -0.00033481 -0.077 -0.0022299 0.00046471 -0.077 -0.0017451 -0.0003549 -0.077 -0.0014451 0.0097 -0.0491 -0.0078 0.0045 -0.0491 -0.0065 -0.0045 -0.0491 -0.0045 -0.0045 -0.0491 -0.008 -0.0095 -0.0491 -0.0003 0.0045 -0.0491 -0.0045 -0.0095 -0.0491 -0.008 -0.00359225 -0.0491 -0.00522755 0.0044 -0.0491 -0.0036 0.0096 -0.0491 -0.0004 -0.0006 -0.0491 -0.0003 -0.0006 -0.0491 -0.0018 -0.0044 -0.0491 -0.0036 0.00055981 -0.0491 -0.00195 0.0006 -0.0491 -0.0003 -0.0095 -0.0541 -0.008 0.0043 -0.078 -0.0035 -0.0043 -0.0491 -0.0035 0.0043 -0.0491 -0.0035 0.0095 -0.0491 -0.008 0.0045 -0.0541 -0.008 -0.0095 -0.0541 -0.0003 0.0095 -0.0541 -0.0003 0.0095 -0.0491 -0.0003 -0.0097 -0.0501 -0.0078 -0.0045 -0.0501 -0.008 -0.0045 -0.0501 -0.0065 -0.0045 -0.0501 -0.0045 0.00361128 -0.0501 -0.00567678 0.0045 -0.0501 -0.008 0.0045 -0.0501 -0.0045 -0.00357612 -0.0501 -0.00511732 -0.0096 -0.0501 -0.0004 -0.0044 -0.0501 -0.0036 0.0096 -0.0501 -0.0004 0.0044 -0.0501 -0.0036 0.0097 -0.0501 -0.0078 0.0001299 -0.0501 -0.00228481 -0.00048481 -0.0501 -0.0016701 0.0003549 -0.0501 -0.0014451 -0.0045 -0.078 -0.0037 -0.0097 -0.077 -0.0078 0.00370861 -0.077 -0.00500762 -0.0096 -0.077 -0.0004 0.00055981 -0.077 -0.00165 -0.00044731 -0.077 -0.00166005 0.0001299 -0.077 -0.00228481 -0.0097 -0.073 -0.0005 -0.0095 -0.073 -0.0003 0.0097 -0.073 -0.0005 0.0045 -0.073 -0.0065 0.00362162 -0.073 -0.00507699 0.0044 -0.073 -0.0036 0.0096 -0.073 -0.0004 -0.0096 -0.073 -0.0004 -0.0044 -0.073 -0.0036 -0.0045 -0.073 -0.0045 0.00046471 -0.073 -0.0017451 -0.0003549 -0.073 -0.0014451 -0.00033481 -0.073 -0.0022299 -0.0045 -0.0491 -0.0065 0.01 -0.0541 -0.0002 0.01 -0.073 -0.0002 0.01 -0.0541 -0.0078 0.01 -0.073 -0.0078 0.005 -0.0541 0 0.00656284 -0.05780264 0 0.0075 -0.05735132 0 0.0098 -0.073 0 0.00843716 -0.06929736 0 0.00737675 -0.06968933 0 0.0098 -0.0541 0 0.00843716 -0.05780264 0 0.00860774 -0.05908346 0 0.00802008 -0.05962997 0 0.00697991 -0.05962997 0 0.00639226 -0.05908346 0 0.005 -0.073 0 0.00633138 -0.06881673 0 0.00826658 -0.06758874 0 0.00673342 -0.06758874 0 0.0075 -0.06735133 0 -0.0098 -0.0541 0 -0.00843716 -0.05780264 0 -0.0075 -0.05735132 0 -0.005 -0.0541 0 -0.00656284 -0.05780264 0 -0.0098 -0.073 0 -0.00860774 -0.05908346 0 -0.00673342 -0.05951126 0 -0.00697991 -0.06747003 0 -0.00834435 -0.06922335 0 -0.00826658 -0.06758874 0 -0.00639226 -0.06801654 0 -0.005 -0.073 0 -0.00689462 -0.06952302 0 -0.0075 -0.05974868 0 -0.01 -0.0541 -0.0047 -0.01 -0.073 -0.0047 -0.01 -0.0541 -0.0002 -0.01 -0.073 -0.0002 -0.01 -0.0541 -0.0078 -0.01 -0.073 -0.0078 -0.01 -0.0541 -0.0053 -0.01 -0.073 -0.0053 -0.0098 -0.0541 -0.008 -0.0045 -0.0541 -0.008 -0.0098 -0.073 -0.008 -0.0045 -0.0541 -0.0045 -0.004 -0.073 -0.00463397 -0.004 -0.0541 -0.00463397 -0.00363397 -0.073 -0.005 -0.00363397 -0.0541 -0.005 -0.0035 -0.073 -0.0055 -0.0035 -0.0541 -0.0055 -0.00363397 -0.073 -0.006 -0.00363397 -0.0541 -0.006 -0.004 -0.073 -0.00636603 -0.004 -0.0541 -0.00636603 -0.0045 -0.073 -0.0065 -0.0045 -0.0541 -0.0065 0.0045 -0.0541 -0.0065 0.004 -0.073 -0.00636603 0.004 -0.0541 -0.00636603 0.00363397 -0.073 -0.006 0.00363397 -0.0541 -0.006 0.0035 -0.073 -0.0055 0.0035 -0.0541 -0.0055 0.00363397 -0.073 -0.005 0.00363397 -0.0541 -0.005 0.004 -0.073 -0.00463397 0.004 -0.0541 -0.00463397 0.0045 -0.073 -0.0045 0.0045 -0.0541 -0.0045 0.0098 -0.0541 -0.008 0.0098 -0.073 -0.008 -0.00980882 -0.073 -0.00491127 -0.005 -0.073 -7.5E-05 -0.0043 -0.073 -0.0035 0.005 -0.073 -0.00015 0.0043 -0.073 -0.0035 -0.005 -0.0541 -0.00015 -0.00987377 -0.0541 -0.00490123 0.0099 -0.0541 -0.0001 0.005 -0.0541 -0.00015 0.00369199 -0.0541 -0.00571651 0.0043 -0.0541 -0.0035 -0.0043 -0.0541 -0.0035 -0.005 -0.073 -0.00015 0.0045 -0.0501 -0.0065 0.00053971 -0.0501 -0.001875 0.00015 -0.0501 -0.00124019 -0.00055981 -0.0501 -0.00165 -0.00033481 -0.0501 -0.0022299 -0.0097 -0.0491 -0.0005 -0.0097 -0.0491 -0.0078 -0.0097 -0.0541 -0.0005 -0.0097 -0.0541 -0.0078 -0.0043 -0.078 -0.0035 0.0095 -0.0541 -0.008 0.0097 -0.0491 -0.0005 0.0097 -0.0541 -0.0078 0.0097 -0.0541 -0.0005 0.0001299 -0.0541 -0.00228481 -0.0044 -0.0541 -0.0036 0.0044 -0.0541 -0.0036 -0.0096 -0.0541 -0.0004 0.0003549 -0.0541 -0.0014451 -0.00048481 -0.0541 -0.0016701 0.0096 -0.0541 -0.0004 -0.016 -0.06222586 0.02396053 -0.016 -0.06335283 0.0250875 -0.016 -0.07708796 0.01626372 -0.016 -0.06263836 0.02692894 -0.016 -0.06181336 0.02715 -0.016 -0.06025635 0.0465875 -0.016 -0.05207993 0.03492025 -0.016 -0.06098836 0.02692894 -0.016 -0.06027389 0.0259125 -0.016 -0.0632423 0.026325 -0.016 -0.06367721 0.07185103 -0.016 -0.04949884 0.02074635 -0.016 -0.06068639 0.02437303 -0.016 -0.04914864 0.01625523 -0.016 -0.05167106 0.085175 -0.016 -0.04946071 0.08686467 -0.016 -0.05197303 0.08712697 -0.016 -0.05126621 0.08900848 -0.016 -0.0535125 0.08753947 -0.016 -0.05388945 0.08999556 -0.016 -0.0557623 0.08954526 -0.016 -0.05463947 0.0864125 -0.016 -0.05732595 0.08842039 -0.016 -0.05834832 0.08678788 -0.016 -0.053925 0.08457106 -0.016 -0.0531 0.08435 -0.016 -0.05289447 0.04986182 -0.016 -0.05231283 0.05732835 -0.016 -0.06014582 0.047825 -0.016 -0.05954187 0.04842894 -0.016 -0.05871687 0.04865 -0.016 -0.0571774 0.0474125 -0.016 -0.05281664 0.04237308 -0.016 -0.05789188 0.04557106 -0.016 -0.05871687 0.04535 -0.016 -0.05954187 0.04557106 -0.016 -0.04998012 0.0709157 -0.016 -0.052275 0.08457106 -0.016 -0.0493203 0.07717817 -0.016 -0.0491 0.085 -0.016 -0.06247894 0.007825 -0.016 -0.06308168 0.004 -0.016 -0.06197072 0.00581776 -0.016 -0.0511 0.004 -0.016 -0.04973397 0.00463397 -0.016 -0.0491 0.006 -0.016 -0.05962106 0.006175 -0.016 -0.0614625 0.00853947 -0.016 -0.05992303 0.00812697 -0.016 -0.0594 0.007 -0.016 -0.07258947 0.0074125 -0.016 -0.0714625 0.00853947 -0.016 -0.06951053 0.0065875 -0.016 -0.0706375 0.00546053 -0.016 -0.076 0.004 -0.016 -0.07799079 0.00999957 -0.016 -0.07792388 0.00561732 -0.016 -0.06831405 0.05668506 -0.016 -0.07224901 0.04132203 -0.016 -0.07547379 0.02579439 -0.016 -0.06992303 0.00812697 -0.016 -0.07217697 0.00587303 -0.016 -0.07708979 0.00436901 -0.019 -0.05834832 0.08678788 -0.019 -0.05732595 0.08842039 -0.019 -0.05463947 0.0864125 -0.019 -0.05289447 0.04986182 -0.019 -0.05281664 0.04237308 -0.019 -0.0571774 0.0465875 -0.019 -0.05231283 0.05732835 -0.019 -0.0531 0.08435 -0.019 -0.0535125 0.08753947 -0.019 -0.0557623 0.08954526 -0.019 -0.05388945 0.08999556 -0.019 -0.05197303 0.08712697 -0.019 -0.05204163 0.08955666 -0.019 -0.04997575 0.08766248 -0.019 -0.05156053 0.0855875 -0.019 -0.06222586 0.02396053 -0.019 -0.06068639 0.02437303 -0.019 -0.04914864 0.01625523 -0.019 -0.04949884 0.02074635 -0.019 -0.06027389 0.0259125 -0.019 -0.05207993 0.03492025 -0.019 -0.06098836 0.02692894 -0.019 -0.05871687 0.04865 -0.019 -0.06367721 0.07185103 -0.019 -0.05954187 0.04842894 -0.019 -0.06014582 0.047825 -0.019 -0.04998012 0.0709157 -0.019 -0.05871687 0.04535 -0.019 -0.05954187 0.04557106 -0.019 -0.06181336 0.02715 -0.019 -0.06025635 0.0465875 -0.019 -0.06263836 0.02692894 -0.019 -0.0632423 0.026325 -0.019 -0.053925 0.08457106 -0.019 -0.05789188 0.04842894 -0.019 -0.0491 0.085 -0.019 -0.0493203 0.07717817 -0.019 -0.07547379 0.02579439 -0.019 -0.07224901 0.04132203 -0.019 -0.06831405 0.05668506 -0.019 -0.07708796 0.01626372 -0.019 -0.06335283 0.0250875 -0.019 -0.07217697 0.00587303 -0.019 -0.076 0.004 -0.019 -0.07258947 0.0074125 -0.019 -0.07708979 0.00436901 -0.019 -0.0706375 0.00546053 -0.019 -0.06308168 0.004 -0.019 -0.06951053 0.0065875 -0.019 -0.06992303 0.00812697 -0.019 -0.0714625 0.00853947 -0.019 -0.07799079 0.00999957 -0.019 -0.0614625 0.00853947 -0.019 -0.06247894 0.007825 -0.019 -0.06217697 0.00587303 -0.019 -0.060225 0.00557106 -0.019 -0.0511 0.004 -0.019 -0.05951053 0.0065875 -0.019 -0.04973397 0.00463397 -0.019 -0.0491 0.006 -0.019 -0.05992303 0.00812697 0.0158 -0.05207993 0.03492025 0.0158 -0.05281664 0.04237308 0.0158 -0.05289447 0.04986182 0.0158 -0.05231283 0.05732835 0.0158 -0.05107623 0.0647147 -0.019 -0.05107623 0.0647147 0.0158 -0.04998012 0.0709157 0.0158 -0.0493203 0.07717817 -0.019 -0.0491 0.08347145 0.0158 -0.0491 0.08347145 0.0158 -0.0491 0.085 -0.019 -0.04946071 0.08686467 0.0158 -0.04946071 0.08686467 -0.019 -0.05049079 0.0884603 0.0158 -0.05204163 0.08955666 0.0158 -0.05388945 0.08999556 0.0158 -0.0557623 0.08954526 0.0158 -0.05834832 0.08678788 -0.019 -0.07798158 0.01013497 -0.016 -0.07798158 0.01013497 -0.016 -0.078 0.006 -0.016 -0.078 0.00986418 -0.019 -0.078 0.006 -0.019 -0.078 0.00986418 -0.019 -0.0501 0.00426795 -0.016 -0.0501 0.00426795 -0.019 -0.04936795 0.005 -0.016 -0.04936795 0.005 -0.016 -0.0491 0.01383969 -0.019 -0.0491 0.01383969 -0.019 -0.05069007 0.0275612 -0.016 -0.05069007 0.0275612 0.0158 -0.05475 0.086 0.0158 -0.05452894 0.086825 -0.019 -0.05452894 0.086825 -0.019 -0.053925 0.08742894 0.0158 -0.053925 0.08742894 0.0158 -0.0531 0.08765 0.0158 -0.052275 0.08742894 -0.019 -0.0531 0.08765 -0.019 -0.052275 0.08742894 0.0158 -0.05167106 0.086825 -0.019 -0.05167106 0.086825 -0.019 -0.05145 0.086 0.0158 -0.05145 0.086 0.0158 -0.05167106 0.085175 -0.019 -0.05197303 0.08487303 0.0158 -0.052275 0.08457106 0.0158 -0.0531 0.08435 -0.019 -0.0535125 0.08446053 0.0158 -0.053925 0.08457106 -0.019 -0.05422697 0.08487303 0.0158 -0.05452894 0.085175 0.0158 -0.05954187 0.04842894 0.0158 -0.05871687 0.04865 0.0158 -0.05789188 0.04842894 -0.019 -0.0575899 0.04812697 0.0158 -0.05728793 0.047825 0.0158 -0.05706688 0.047 -0.019 -0.05706688 0.047 -0.019 -0.05728793 0.046175 0.0158 -0.05789188 0.04557106 -0.019 -0.05789188 0.04557106 -0.019 -0.05830438 0.04546053 0.0158 -0.05871687 0.04535 0.0158 -0.05954187 0.04557106 -0.019 -0.05984385 0.04587303 0.0158 -0.06014582 0.046175 0.0158 -0.06036688 0.047 0.0158 -0.06263836 0.02692894 0.0158 -0.06181336 0.02715 -0.019 -0.06140086 0.02703947 0.0158 -0.06098836 0.02692894 -0.019 -0.06068639 0.02662697 0.0158 -0.06038442 0.026325 0.0158 -0.06016336 0.0255 -0.019 -0.06027389 0.0250875 0.0158 -0.06038442 0.024675 0.0158 -0.06098836 0.02407106 -0.019 -0.06140086 0.02396053 0.0158 -0.06181336 0.02385 0.0158 -0.06263836 0.02407106 -0.019 -0.06263836 0.02407106 -0.019 -0.0632423 0.024675 0.0158 -0.0632423 0.024675 0.0158 -0.06346336 0.0255 0.0158 -0.0459589 0.08142408 -0.0162 -0.0459589 0.08142408 0.0158 -0.04683831 0.0817531 -0.0162 -0.04683831 0.0817531 0.0158 -0.04747083 0.0824469 -0.0162 -0.04747083 0.0824469 0.0158 -0.04771712 0.08335289 -0.0162 -0.04771712 0.08335289 0.0158 -0.04752281 0.08427127 -0.0162 -0.04752281 0.08427127 0.0158 -0.04693082 0.08499988 -0.0162 -0.04693082 0.08499988 0.0158 -0.04909995 0.08499988 -0.0162 -0.04909995 0.08499988 0.0158 -0.04909995 0.08347162 -0.0162 -0.04909995 0.08347162 0.0158 -0.04932025 0.07717832 -0.0162 -0.04932025 0.07717832 0.0158 -0.04998007 0.07091554 -0.0162 -0.04998007 0.07091554 0.0158 -0.0510762 0.06471475 -0.0162 -0.0510762 0.06471475 -0.0162 -0.05231288 0.05732854 0.0158 -0.05231288 0.05732854 -0.0162 -0.0528945 0.04986175 0.0158 -0.0528945 0.04986175 -0.0162 -0.05281666 0.04237302 0.0158 -0.05281666 0.04237302 -0.0162 -0.05207994 0.03492006 0.0158 -0.05207994 0.03492006 -0.0162 -0.05069008 0.02756103 0.0158 -0.05069008 0.02756103 0.0158 -0.04982271 0.02312454 -0.0162 -0.04982271 0.02312454 0.0158 -0.04929199 0.01863511 -0.0162 -0.04929199 0.01863511 0.0158 -0.04796734 0.01878675 -0.0162 -0.04796734 0.01878675 0.0158 -0.0483599 0.01974281 -0.0162 -0.0483599 0.01974281 0.0158 -0.04822293 0.02076705 -0.0162 -0.04822293 0.02076705 0.0158 -0.04759302 0.02158626 -0.0162 -0.04759302 0.02158626 0.0158 -0.04663828 0.02198156 -0.0162 -0.04663828 0.02198156 -0.0162 -0.04578879 0.02230152 0.0158 -0.04578879 0.02230152 -0.0162 -0.04516831 0.02296432 0.0158 -0.04516831 0.02296432 -0.0162 -0.04490462 0.02383312 0.0158 -0.04490462 0.02383312 -0.0162 -0.04505208 0.02472862 0.0158 -0.04505208 0.02472862 -0.0162 -0.04558029 0.02546676 0.0158 -0.04558029 0.02546676 -0.0162 -0.04638055 0.02589544 0.0158 -0.04638055 0.02589544 -0.0162 -0.04728773 0.02592643 0.0158 -0.04728773 0.02592643 0.0158 -0.0483146 0.02599367 -0.0162 -0.0483146 0.02599367 0.0158 -0.04917219 0.02656206 -0.0162 -0.04917219 0.02656206 0.0158 -0.04963353 0.02748187 -0.0162 -0.04963353 0.02748187 0.0158 -0.04957643 0.02850946 -0.0162 -0.04957643 0.02850946 0.0158 -0.04901614 0.02937253 -0.0162 -0.04901614 0.02937253 0.0158 -0.04810086 0.0298427 -0.0162 -0.04810086 0.0298427 -0.0162 -0.04719331 0.03030618 0.0158 -0.04719331 0.03030618 -0.0162 -0.04663184 0.03115638 0.0158 -0.04663184 0.03115638 -0.0162 -0.04656198 0.03217252 0.0158 -0.04656198 0.03217252 -0.0162 -0.04700198 0.03309186 0.0158 -0.04700198 0.03309186 -0.0162 -0.04783764 0.03367456 0.0158 -0.04783764 0.03367456 -0.0162 -0.04885199 0.0337704 0.0158 -0.04885199 0.0337704 0.0158 -0.04975381 0.03382858 -0.0162 -0.04975381 0.03382858 0.0158 -0.05053809 0.03427776 -0.0162 -0.05053809 0.03427776 0.0158 -0.05104449 0.03502639 -0.0162 -0.05104449 0.03502639 0.0158 -0.05116966 0.03592141 -0.0162 -0.05116966 0.03592141 0.0158 -0.05088809 0.0367802 -0.0162 -0.05088809 0.0367802 0.0158 -0.05025723 0.03742727 -0.0162 -0.05025723 0.03742727 0.0158 -0.04940596 0.03773053 -0.0162 -0.04940596 0.03773053 -0.0162 -0.04845622 0.03810104 0.0158 -0.04845622 0.03810104 -0.0162 -0.04781249 0.03889211 0.0158 -0.04781249 0.03889211 -0.0162 -0.04764226 0.03989728 0.0158 -0.04764226 0.03989728 -0.0162 -0.04798975 0.04085572 0.0158 -0.04798975 0.04085572 -0.0162 -0.04876449 0.04151853 0.0158 -0.04876449 0.04151853 -0.0162 -0.04976526 0.04171308 0.0158 -0.04976526 0.04171308 0.0158 -0.05065694 0.04185947 -0.0162 -0.05065694 0.04185947 0.0158 -0.05139342 0.04238303 -0.0162 -0.05139342 0.04238303 0.0158 -0.05182424 0.04317744 -0.0162 -0.05182424 0.04317744 0.0158 -0.05186143 0.0440801 -0.0162 -0.05186143 0.0440801 0.0158 -0.05149737 0.04490741 -0.0162 -0.05149737 0.04490741 0.0158 -0.05080631 0.04548963 -0.0162 -0.05080631 0.04548963 0.0158 -0.04992953 0.0457085 -0.0162 -0.04992953 0.0457085 -0.0162 -0.04894819 0.04598506 0.0158 -0.04894819 0.04598506 -0.0162 -0.04823044 0.0467089 0.0158 -0.04823044 0.0467089 -0.0162 -0.04796305 0.04769309 0.0158 -0.04796305 0.04769309 -0.0162 -0.0482153 0.04868062 0.0158 -0.0482153 0.04868062 -0.0162 -0.04892161 0.04941591 0.0158 -0.04892161 0.04941591 -0.0162 -0.04989865 0.04970725 0.0158 -0.04989865 0.04970725 0.0158 -0.05077198 0.04993947 -0.0162 -0.05077198 0.04993947 0.0158 -0.05145385 0.05053266 -0.0162 -0.05145385 0.05053266 0.0158 -0.05180505 0.05136522 -0.0162 -0.05180505 0.05136522 0.0158 -0.05175402 0.05226739 -0.0162 -0.05175402 0.05226739 0.0158 -0.05131104 0.05305513 -0.0162 -0.05131104 0.05305513 0.0158 -0.05056658 0.05356725 -0.0162 -0.05056658 0.05356725 0.0158 -0.04967263 0.05369981 -0.0162 -0.04967263 0.05369981 -0.0162 -0.04866889 0.0538791 0.0158 -0.04866889 0.0538791 -0.0162 -0.04788401 0.05452951 0.0158 -0.04788401 0.05452951 -0.0162 -0.04752186 0.0554827 0.0158 -0.04752186 0.0554827 -0.0162 -0.04767659 0.05649026 0.0158 -0.04767659 0.05649026 -0.0162 -0.04830792 0.05729087 0.0158 -0.04830792 0.05729087 -0.0162 -0.04925194 0.05767616 0.0158 -0.04925194 0.05767616 0.0158 -0.05009845 0.05799277 -0.0162 -0.05009845 0.05799277 0.0158 -0.05071917 0.05864938 -0.0162 -0.05071917 0.05864938 0.0158 -0.05098763 0.05951246 -0.0162 -0.05098763 0.05951246 0.0158 -0.05084875 0.06040509 -0.0162 -0.05084875 0.06040509 0.0158 -0.05033102 0.0611461 -0.0162 -0.05033102 0.0611461 0.0158 -0.04954019 0.06158336 -0.0162 -0.04954019 0.06158336 0.0158 -0.04863765 0.0616277 -0.0162 -0.04863765 0.0616277 -0.0162 -0.04761317 0.06171115 0.0158 -0.04761317 0.06171115 -0.0162 -0.04676535 0.06229242 0.0158 -0.04676535 0.06229242 -0.0162 -0.04631832 0.06321796 0.0158 -0.04631832 0.06321796 -0.0162 -0.04638984 0.06424316 0.0158 -0.04638984 0.06424316 -0.0162 -0.04696121 0.06509765 0.0158 -0.04696121 0.06509765 -0.0162 -0.04788151 0.06555542 0.0158 -0.04788151 0.06555542 0.0158 -0.04879453 0.0660065 -0.0162 -0.04879453 0.0660065 0.0158 -0.04936674 0.06684908 -0.0162 -0.04936674 0.06684908 0.0158 -0.04945007 0.06786426 -0.0162 -0.04945007 0.06786426 0.0158 -0.0490227 0.06878837 -0.0162 -0.0490227 0.06878837 0.0158 -0.04819551 0.06938251 -0.0162 -0.04819551 0.06938251 0.0158 -0.04718294 0.06949266 -0.0162 -0.04718294 0.06949266 -0.0162 -0.04628387 0.06956276 0.0158 -0.04628387 0.06956276 -0.0162 -0.04550698 0.07002052 0.0158 -0.04550698 0.07002052 -0.0162 -0.04501035 0.07077345 0.0158 -0.04501035 0.07077345 -0.0162 -0.04489496 0.07166799 0.0158 -0.04489496 0.07166799 -0.0162 -0.04518404 0.07252201 0.0158 -0.04518404 0.07252201 -0.0162 -0.04581907 0.0731624 0.0158 -0.04581907 0.0731624 -0.0162 -0.04667082 0.07345852 0.0158 -0.04667082 0.07345852 0.0158 -0.04762473 0.07382377 -0.0162 -0.04762473 0.07382377 0.0158 -0.04827395 0.07461198 -0.0162 -0.04827395 0.07461198 0.0158 -0.04844918 0.07561859 -0.0162 -0.04844918 0.07561859 0.0158 -0.04810479 0.07657989 -0.0162 -0.04810479 0.07657989 0.0158 -0.04733052 0.07724603 -0.0162 -0.04733052 0.07724603 0.0158 -0.04632821 0.07744297 -0.0162 -0.04632821 0.07744297 -0.0162 -0.04533007 0.07763799 0.0158 -0.04533007 0.07763799 -0.0162 -0.04455676 0.07829841 0.0158 -0.04455676 0.07829841 -0.0162 -0.04420843 0.07925399 0.0158 -0.04420843 0.07925399 -0.0162 -0.04437509 0.08025726 0.0158 -0.04437509 0.08025726 -0.0162 -0.04501357 0.08104929 0.0158 -0.04501357 0.08104929 0.0158 -0.04761996 0.08381208 0.0158 -0.04598042 0.0256811 0.0158 -0.04965016 0.07404693 0.0158 -0.0494084 0.06735667 0.0158 -0.04542929 0.0726287 0.0158 -0.04525867 0.07039698 0.0158 -0.05057266 0.03710373 0.0158 -0.04494342 0.0779682 0.0158 -0.04469433 0.08065327 0.0158 -0.05093881 0.05331119 0.0158 -0.04678198 0.03263219 0.0158 -0.05160883 0.04278024 0.0158 -0.04971072 0.041689 0.0158 -0.05162945 0.05094894 0.0158 -0.04858932 0.04634698 0.0158 -0.0508534 0.05908092 0.0158 -0.047816 0.0403765 0.0158 -0.04813435 0.03849657 0.0158 -0.04856845 0.04904826 0.0158 -0.04770293 0.05500611 0.0158 -0.04799226 0.05689057 0.0158 -0.04667553 0.06467041 0.0158 -0.04654184 0.06275519 -0.0162 -0.0463303 0.07744201 -0.0162 -0.04761996 0.08381208 -0.0162 -0.04827699 0.07609924 -0.0162 -0.04541263 0.02285012 -0.0162 -0.04531619 0.02509769 -0.0162 -0.04794934 0.07421788 -0.0162 -0.04589542 0.06979164 -0.0162 -0.04469433 0.08065327 -0.0162 -0.0443826 0.0787762 -0.0162 -0.05110708 0.0354739 -0.0162 -0.05102518 0.04212125 -0.0162 -0.04837712 0.04118713 -0.0162 -0.04691258 0.03073128 -0.0162 -0.04678198 0.03263219 -0.0162 -0.04923638 0.06832632 -0.0162 -0.05091819 0.05995877 -0.0162 -0.05093881 0.05331119 -0.0162 -0.04813435 0.03849657 -0.0162 -0.04808917 0.04818686 -0.0162 -0.04795357 0.05663868 -0.0162 -0.04654184 0.06275519 0.019 -0.06222586 0.02396053 0.019 -0.06335283 0.0250875 0.019 -0.07708796 0.01626372 0.019 -0.06263836 0.02692894 0.019 -0.06181336 0.02715 0.019 -0.06025635 0.0465875 0.019 -0.05207993 0.03492025 0.019 -0.06098836 0.02692894 0.019 -0.06027389 0.0259125 0.019 -0.0632423 0.026325 0.019 -0.06367721 0.07185103 0.019 -0.04949884 0.02074635 0.019 -0.06068639 0.02437303 0.019 -0.04914864 0.01625523 0.019 -0.05167106 0.085175 0.019 -0.04946071 0.08686467 0.019 -0.05197303 0.08712697 0.019 -0.05126621 0.08900848 0.019 -0.0535125 0.08753947 0.019 -0.05388945 0.08999556 0.019 -0.0557623 0.08954526 0.019 -0.05463947 0.0864125 0.019 -0.05732595 0.08842039 0.019 -0.05834832 0.08678788 0.019 -0.053925 0.08457106 0.019 -0.0531 0.08435 0.019 -0.05289447 0.04986182 0.019 -0.05231283 0.05732835 0.019 -0.06014582 0.047825 0.019 -0.05954187 0.04842894 0.019 -0.05871687 0.04865 0.019 -0.0571774 0.0474125 0.019 -0.05281664 0.04237308 0.019 -0.05789188 0.04557106 0.019 -0.05871687 0.04535 0.019 -0.05954187 0.04557106 0.019 -0.04998012 0.0709157 0.019 -0.052275 0.08457106 0.019 -0.0493203 0.07717817 0.019 -0.0491 0.085 0.019 -0.06247894 0.007825 0.019 -0.06308168 0.004 0.019 -0.06197072 0.00581776 0.019 -0.0511 0.004 0.019 -0.04973397 0.00463397 0.019 -0.0491 0.006 0.019 -0.05962106 0.006175 0.019 -0.0614625 0.00853947 0.019 -0.05992303 0.00812697 0.019 -0.0594 0.007 0.019 -0.07258947 0.0074125 0.019 -0.0714625 0.00853947 0.019 -0.06951053 0.0065875 0.019 -0.0706375 0.00546053 0.019 -0.076 0.004 0.019 -0.07799079 0.00999957 0.019 -0.07792388 0.00561732 0.019 -0.06831405 0.05668506 0.019 -0.07224901 0.04132203 0.019 -0.07547379 0.02579439 0.019 -0.06992303 0.00812697 0.019 -0.07217697 0.00587303 0.019 -0.07708979 0.00436901 0.016 -0.05834832 0.08678788 0.016 -0.05732595 0.08842039 0.016 -0.05463947 0.0864125 0.016 -0.05289447 0.04986182 0.016 -0.05281664 0.04237308 0.016 -0.0571774 0.0465875 0.016 -0.05231283 0.05732835 0.016 -0.0531 0.08435 0.016 -0.0535125 0.08753947 0.016 -0.0557623 0.08954526 0.016 -0.05388945 0.08999556 0.016 -0.05197303 0.08712697 0.016 -0.05204163 0.08955666 0.016 -0.04997575 0.08766248 0.016 -0.05156053 0.0855875 0.016 -0.06222586 0.02396053 0.016 -0.06068639 0.02437303 0.016 -0.04914864 0.01625523 0.016 -0.04949884 0.02074635 0.016 -0.06027389 0.0259125 0.016 -0.05207993 0.03492025 0.016 -0.06098836 0.02692894 0.016 -0.05871687 0.04865 0.016 -0.06367721 0.07185103 0.016 -0.05954187 0.04842894 0.016 -0.06014582 0.047825 0.016 -0.04998012 0.0709157 0.016 -0.05871687 0.04535 0.016 -0.05954187 0.04557106 0.016 -0.06181336 0.02715 0.016 -0.06025635 0.0465875 0.016 -0.06263836 0.02692894 0.016 -0.0632423 0.026325 0.016 -0.053925 0.08457106 0.016 -0.05789188 0.04842894 0.016 -0.0491 0.085 0.016 -0.0493203 0.07717817 0.016 -0.07547379 0.02579439 0.016 -0.07224901 0.04132203 0.016 -0.06831405 0.05668506 0.016 -0.07708796 0.01626372 0.016 -0.06335283 0.0250875 0.016 -0.07217697 0.00587303 0.016 -0.076 0.004 0.016 -0.07258947 0.0074125 0.016 -0.07708979 0.00436901 0.016 -0.0706375 0.00546053 0.016 -0.06308168 0.004 0.016 -0.06951053 0.0065875 0.016 -0.06992303 0.00812697 0.016 -0.0714625 0.00853947 0.016 -0.07799079 0.00999957 0.016 -0.0614625 0.00853947 0.016 -0.06247894 0.007825 0.016 -0.06217697 0.00587303 0.016 -0.060225 0.00557106 0.016 -0.0511 0.004 0.016 -0.05951053 0.0065875 0.016 -0.04973397 0.00463397 0.016 -0.0491 0.006 0.016 -0.05992303 0.00812697 0.019 -0.05069007 0.0275612 0.016 -0.05069007 0.0275612 0.019 -0.05107623 0.0647147 0.016 -0.05107623 0.0647147 0.016 -0.0491 0.08347145 0.019 -0.0491 0.08347145 0.016 -0.04946071 0.08686467 0.016 -0.05049079 0.0884603 0.019 -0.05049079 0.0884603 0.019 -0.05204163 0.08955666 0.016 -0.07798158 0.01013497 0.019 -0.07798158 0.01013497 0.019 -0.078 0.006 0.019 -0.078 0.00986418 0.016 -0.078 0.006 0.016 -0.078 0.00986418 0.016 -0.0501 0.00426795 0.019 -0.0501 0.00426795 0.016 -0.04936795 0.005 0.019 -0.04936795 0.005 0.019 -0.0491 0.01383969 0.016 -0.0491 0.01383969 0.0158 -0.05633427 0.042924 0.0158 -0.05533427 0.041924 0.0158 -0.05540669 0.044137 0.0158 -0.06027389 0.0259125 0.0158 -0.05565125 0.02996617 0.0158 -0.05432774 0.01383969 0.0158 -0.05533427 0.03064919 0.0158 -0.05633427 0.02964919 0.0158 -0.07047444 0.0296994 0.0158 -0.07654512 0.01965462 0.0158 -0.07652832 0.01792887 0.0158 -0.07592579 0.01631164 0.0158 -0.06222586 0.02396053 0.0158 -0.07161198 0.01383969 0.0158 -0.07331191 0.01413754 0.0158 -0.07480932 0.0149956 0.0158 -0.06753027 0.042924 0.0158 -0.06335283 0.0259125 0.0158 -0.07104187 0.03003072 0.0158 -0.07399692 0.0333535 0.0158 -0.07122806 0.03088417 0.0158 -0.07089764 0.04693831 0.0158 -0.06850228 0.04215899 0.0158 -0.04987484 0.02345115 0.0158 -0.04934845 0.01929423 0.0158 -0.05068588 0.01551513 0.0158 -0.05558557 0.05580137 0.0158 -0.0571774 0.0474125 0.0158 -0.0575899 0.04587303 0.0158 -0.05583034 0.07639311 0.0158 -0.06025635 0.0465875 0.0158 -0.06725234 0.06038689 0.0158 -0.05984385 0.04812697 0.0158 -0.06307378 0.05544656 0.0158 -0.05830438 0.04853947 0.0158 -0.05627378 0.05540403 0.0158 -0.05764934 0.07605625 0.0158 -0.06306696 0.07367731 0.0158 -0.06365481 0.05643124 0.0158 -0.05705314 0.07658311 0.0158 -0.05732595 0.08842039 0.0158 -0.0554202 0.08968699 0.0158 -0.05197303 0.08712697 0.0158 -0.05126621 0.08900848 0.0158 -0.05422697 0.08712697 -0.016 -0.05422697 0.08712697 -0.016 -0.05452894 0.085175 -0.016 -0.0554202 0.08968699 -0.016 -0.05549276 0.03030768 -0.016 -0.04934845 0.01929423 -0.016 -0.05432774 0.01383969 -0.016 -0.04987484 0.02345115 -0.016 -0.04947264 0.01764471 -0.016 -0.05196992 0.0145088 -0.016 -0.06181336 0.02385 -0.016 -0.06098836 0.02407106 -0.016 -0.07654512 0.01965462 -0.016 -0.06346336 0.0255 -0.016 -0.06294033 0.02437303 -0.016 -0.07480932 0.0149956 -0.016 -0.07047444 0.0296994 -0.016 -0.05533427 0.041924 -0.016 -0.05633427 0.042924 -0.016 -0.05540669 0.044137 -0.016 -0.07161198 0.01383969 -0.016 -0.07331191 0.01413754 -0.016 -0.05633427 0.02964919 -0.016 -0.07113747 0.03023338 -0.016 -0.06753027 0.042924 -0.016 -0.07123964 0.04554278 -0.016 -0.06850228 0.04215899 -0.016 -0.07399692 0.0333535 -0.016 -0.07122806 0.03088417 -0.016 -0.05156053 0.0855875 -0.016 -0.04997575 0.08766248 -0.016 -0.05296554 0.08977611 -0.016 -0.0531 0.08765 -0.016 -0.06365481 0.05643124 -0.016 -0.05984385 0.04812697 -0.016 -0.05583034 0.07639311 -0.016 -0.0575899 0.04587303 -0.016 -0.05558557 0.05580137 -0.016 -0.05705314 0.07658311 -0.016 -0.05764934 0.07605625 -0.016 -0.06306696 0.07367731 -0.016 -0.06725234 0.06038689 -0.016 -0.05830438 0.04853947 -0.016 -0.05627378 0.05540403 -0.016 -0.06289492 0.05540403 0.0158 -0.05069007 0.0275612 0.0158 -0.05049079 0.0884603 -0.016 -0.07089764 0.04693831 0.0158 -0.07158165 0.04414725 -0.016 -0.07158165 0.04414725 0.0158 -0.05627378 0.0766184 0.0158 -0.05688945 0.0766184 -0.016 -0.05627378 0.0766184 -0.016 -0.05688945 0.0766184 0.0158 -0.06289492 0.05540403 0.0158 -0.0554791 0.0561987 0.0158 -0.0554791 0.07582372 -0.016 -0.0554791 0.0561987 -0.016 -0.0554791 0.07582372 0.0158 -0.05583427 0.04279003 -0.016 -0.05583427 0.04279003 0.0158 -0.05546824 0.042424 -0.016 -0.05546824 0.042424 0.0158 -0.06830676 0.04255414 -0.016 -0.06830676 0.04255414 0.0158 -0.06796031 0.04282681 -0.016 -0.06796031 0.04282681 0.0158 -0.07025605 0.02964919 -0.016 -0.07025605 0.02964919 0.0158 -0.07069282 0.02974961 -0.016 -0.07069282 0.02974961 -0.016 -0.07104187 0.03003072 0.0158 -0.07123308 0.03043604 -0.016 -0.07123308 0.03043604 -0.016 -0.05533427 0.03064919 0.0158 -0.05546824 0.03014919 -0.016 -0.05546824 0.03014919 0.0158 -0.05583427 0.02978316 -0.016 -0.05583427 0.02978316 -0.019 -0.052275 0.08457106 -0.019 -0.05452894 0.085175 -0.019 -0.05475 0.086 -0.019 -0.06036688 0.047 0.0158 -0.06014582 0.047825 -0.019 -0.05728793 0.047825 0.0158 -0.05728793 0.046175 -0.019 -0.06346336 0.0255 0.0158 -0.0632423 0.026325 -0.016 -0.05269634 0.01411332 0.0158 -0.05269634 0.01411332 -0.016 -0.0512435 0.01490428 0.0158 -0.0512435 0.01490428 -0.016 -0.05012824 0.01612598 0.0158 -0.05012824 0.01612598 0.0158 -0.04947264 0.01764471 -0.016 -0.07652832 0.01792887 -0.016 -0.07592579 0.01631164</float_array>
          <technique_common>
            <accessor source="#pos_0-array" count="4812" stride="3">
              <param name="X" type="float"/>
              <param name="Y" type="float"/>
              <param name="Z" type="float"/>
            </accessor>
          </technique_common>
        </source>
        <source id="norm_0">
          <float_array id="norm_0-array" count="1158">0 -0 -1 1 0 0 0 0 1 -1 0 0 -0 -1 -0 -0 1 0 -0 -0 -1 -0 0 -1 -0 -0 -1 -0 0 -1 -0 -0 -1 -0 -0 -1 0 -0 -1 -0 0 -1 -0 -0 -1 -0 0 -1 -0 0 -1 -0 -0 -1 0 0 -1 -0 0 -1 -0 -0 -1 0 0 -1 -0 0 -1 0 0 -1 -0 0 -1 -0 -0 -1 0 0 -1 0 0 -1 0 0 -1 -0 -0 -1 -0 0 -1 -0 0 -1 -0 0 -1 -0 -0 -1 0.96593 0.25882 -0 0.7071 0.70711 -0 0.25882 0.96593 -0 -0.25882 0.96593 0 -0.7071 0.70711 0 -0.96593 0.25882 0 -0.96593 -0.25882 0 -0.7071 -0.70711 0 -0.25882 -0.96593 0 0.25882 -0.96593 0 0.7071 -0.70711 0 0.96593 -0.25882 0 0.70711 0.70711 -0 -0.70711 0.70711 0 -0.96593 -0.25882 0 -0.70711 -0.70711 0 0.70711 -0.70711 0 0.96593 -0.25882 0 0.96593 0.25882 -0 0.70711 0.70711 -0 -0.70711 0.70711 0 -0.96593 0.25882 0 -0.96593 -0.25882 0 -0.70711 -0.70711 0 0.70711 -0.70711 0 0.96593 -0.25882 0 0.7071 0.70711 -0 -0.7071 0.70711 0 -0.96593 -0.25882 0 -0.7071 -0.70711 0 0.7071 -0.70711 0 0.96593 -0.25882 0 0 -0 -1 -0 0 -1 -0 -0 -1 0 0 -1 0 0 -1 -0 -0 -1 0 0 -1 -0 0 -1 0 0 -1 -0 0 -1 -0 0 -1 -0 0 -1 0 0 -1 0 0 -1 0 0 -1 0.34202 -0.93969 0 0.34202 -0.93969 0 0.34202 0.93969 0 0.34202 0.93969 0 0.34202 -0.93969 0 0.34202 -0.93969 0 0.34202 0.93969 0 0.34202 -0.93969 0 0.34202 -0.93969 0 0.34202 -0.93969 0 -0 -0 1 0 -0 1 0 0 1 0 0 1 0 0 1 -0 0 1 -0 0 1 -0 0 1 0 -0 1 -0 0 1 -0 0 1 -0 0 1 0 0 1 0 -0 1 0 -0 1 0 0 1 0 -0 1 0 -0 1 -0 -0 1 -0 0 1 -0 -0 1 0 -0 1 -0 -0 1 -0 -0 1 -0 0 1 0 -0 1 0 0 1 -0 0 1 -0 0 1 0 -0 1 0 -0 1 -0 -0 1 0 -0 1 0 -0 1 -0 -0 1 -0 0 1 -0 0 1 0 0 1 -0 0 1 0 -0 1 -0 0 1 -0 0 1 -0 -0 1 0 -0 1 -0 0 1 -0 0 1 -0 0 1 0 -0 1 -0 0 1 0.34202 0.93969 0 0 0 1 -0 0 1 -0 0 1 0 0 1 0 0 1 0 -0 1 0 -0 1 -0 0 1 -0 0 1 -0 0 1 0 -0 1 -0 -0 1 -0 -0 1 -0 -0 1 0 -0 1 -0 -0 1 -0 -0 1 0 0 1 -0 0 1 -0 0 1 -0 0 1 0 -0 1 0 -0 1 0 -0 1 0 -0 1 -0 -0 1 0 -0 1 0 -0 1 0.25882 0 0.96593 0.70711 0 0.70711 0.96593 0 0.25882 0.96593 0 -0.25882 0.70711 0 -0.70711 0.25882 0 -0.96593 -0.25882 -0 -0.96593 -0.70711 -0 -0.70711 -0.96593 -0 -0.25882 -0.96593 0 0.25882 -0.70711 0 0.70711 -0.25882 0 0.96593 0 0.99515 0.09837 0 0.99995 0.01039 0 0.99698 -0.07766 0 0.98627 -0.16512 0 0.98473 -0.17406 0 0.9945 -0.10478 0 0.99939 -0.03498 0 0.9818 0.18992 0 0.84014 0.54237 0 0.57726 0.81656 0 0.2311 0.97293 0 -0.23377 0.97229 0 -0.58398 0.81177 0 -0.84752 0.53077 0 -0.97911 0.20334 0 -0.96873 0.24812 0 -0.9563 0.29238 0 -0.94186 0.33602 0 -0.98954 0.14428 0 -0.98596 0.16699 0 0.25882 -0.96593 0 0.70711 -0.7071 0 0.96593 -0.25882 0 0.9998 0.02013 0 0.99697 0.07774 0 0.98506 0.17219 0 0.96593 -0.25882 0 0.70711 -0.7071 0 0.25882 -0.96593 -0 -0.25882 -0.96593 0 -0.70711 -0.7071 -0 -0.96593 -0.25882 0 -0.96593 0.25882 0 -0.70711 0.7071 0 0.25882 0.96593 0 0.70711 0.7071 -0 -0.25882 -0.96593 0 -0.7071 -0.70711 0 -0.96593 0.25882 0 -0.7071 0.70711 0 -0.25882 0.96593 0 0.7071 0.70711 0 0.96593 0.25882 0 -0.70711 -0.70711 0 -0.96593 -0.25882 0 -0.96593 0.25882 0 0.96593 0.25882 0 0.35041 0.9366 0 0.73899 0.67372 0 0.96498 0.26232 0 0.97834 -0.207 0 0.77611 -0.63059 0 -0.99939 0.03498 0 -0.9945 0.10478 0 -0.98473 0.17407 0 -0.98627 0.16513 0 -0.99698 0.07766 -0 -0.99995 -0.01039 -0 -0.99515 -0.09837 -0 -0.98263 -0.18558 -0 -0.98142 -0.19187 -0 -0.99308 -0.1174 0 0.92506 0.37983 0 0.99118 -0.13255 0 0.79274 -0.60955 0 0.38254 -0.92394 0 0.35248 -0.93582 0 0.73003 -0.68342 0 0.9569 -0.29043 0 0.98671 0.16248 0 0.81323 0.58195 0 0.4722 0.88149 0 0.03415 0.99942 0 0.06533 0.99786 0 0.55245 0.83354 0 0.89387 0.44833 0 0.99846 -0.05548 0 0.83876 -0.5445 0 0.45692 -0.88951 0 0.45482 -0.89058 0 0.83445 -0.55108 0 0.99765 -0.06859 0 0.90201 0.43171 0 0.57197 0.82028 0 0.09407 0.99557 0 0.06437 0.99793 0 0.49699 0.86776 0 0.8283 0.56029 0 0.99036 0.1385 0 0.95023 -0.31155 0 0.71602 -0.69808 0 0.33559 -0.94201 0 0.36343 -0.93162 0 0.77564 -0.63117 0 0.98596 -0.16698 0 0.94012 0.34085 0 0.65008 0.75987 0 0.19083 0.98162 0 0.162 0.98679 0 0.57941 0.81503 0 0.87905 0.47673 0 0.99915 0.04117 0 0.9153 -0.40278 0 0.64431 -0.76476 0 0.24219 -0.97023 0 0.27126 -0.96251 0 0.71008 -0.70412 0 0.96502 -0.26218 0 0.96889 0.24749 0 0.72117 0.69276 0 0.28576 0.9583 0 0.25697 0.96642 0 0.65634 0.75447 0 0.92138 0.38866 0 0.9984 -0.05646 0 0.87163 -0.49016 0 0.56676 -0.82388 0 0.14668 -0.98918 0 0.17584 -0.98442 0 0.63807 -0.76998 0 0.9348 -0.35517 0 0.98841 0.15179 0 0.78523 0.6192 0 0.37787 0.92586 0 0.35033 0.93663 0 0.72668 0.68697 0 0.95487 0.29701 0 0.98811 -0.15373 0 0.81974 -0.57274 0 0.48387 -0.87514 0 0.04908 -0.9988 0 0.08118 -0.9967 0 0.56547 -0.82477 0 0.90047 -0.43492 0 0.99758 0.0696 0 0.83128 0.55585 0 0.44536 0.89535 0 0.44295 0.89655 0 0.82727 0.56181 0 0.99665 0.08181 0 0.90764 -0.41975 0 0.58337 -0.8122 0 0.10814 -0.99414 0 0.07773 -0.99697 0 0.50766 -0.86156 0 0.83476 -0.55061 0 0.99178 -0.12794 0 0.94721 0.32063 0 0.71007 0.70413 0 0.32838 0.94455 0 0.35759 0.93388 0 0.77188 0.63576 0 0.98518 0.17151 0 0.94141 -0.33727 0 0.65219 -0.75805 0 0.19279 -0.98124 0 0.19176 -0.98144 0 0.64942 -0.76043 0 0.93953 -0.34248 0 0.98648 0.16387 0 0.77853 0.62761 0 0.36856 0.9296 0 0.11373 -0.99351 0 0.98263 0.18558 0 -0.19761 0.98028 0 -0.94091 0.33865 0 -0.95382 0.30037 0 -0.96517 0.26161 0 -0.97126 0.23803 0 -0.97587 0.21837 0 -0.98314 0.18288 0 0.99208 0.12563 0 0.98089 0.19456 0 0.95623 -0.29262 -0 -0.25882 -0.96593 -0 -0.70711 -0.70711 -0 -0.96593 -0.25882 0 0.89629 -0.44347 0 0.61847 -0.78581 0 0.22044 -0.9754 0 0.972 -0.23499 0 0.22408 0.97457 0 0.62723 0.77883 0 0.90441 0.42666 0 0.99994 -0.01121 0 -0.96593 0.25882 0 -0.70711 0.70711 0 -0.25882 0.96593 0 -0.25882 0.96593 0 0.96593 0.25882 0 0.96593 -0.25882 0 0.7071 -0.70711 -0 -0.96593 -0.25881 0 0.96593 -0.25882 0 0.70711 -0.70711 0 0.16542 -0.98622 0 0.47815 -0.87828 0 0.73855 -0.6742 0 0.91811 -0.39633 0 0.99718 -0.07508 -0 -0.99995 -0.00974 -0 -0.93708 -0.34912 -0 -0.76256 -0.64692 -0 -0.49719 -0.86764 -0 -0.17258 -0.985</float_array>
          <technique_common>
            <accessor source="#norm_0-array" count="1158" stride="3">
              <param name="X" type="float"/>
              <param name="Y" type="float"/>
              <param name="Z" type="float"/>
            </accessor>
          </technique_common>
        </source>
        <vertices id="vert_0">
          <input semantic="POSITION" source="#pos_0"/>
        </vertices>
        <triangles count="2000" material="mat_0">
          <input semantic="VERTEX" source="#vert_0" offset="0"/>
          <input semantic="NORMAL" source="#norm_0" offset="1"/>
          <p>0 0 1 0 2 0 2 0 1 0 3 0 4 0 5 0 0 0 0 0 5 0 1 0 5 0 4 0 6 0 5 0 6 0 7 0 5 0 7 0 8 0 8 0 7 0 9 0 3 0 10 0 11 0 3 0 11 0 2 0 9 0 12 0 13 0 2 0 11 0 9 0 9 0 11 0 12 0 9 0 13 0 8 0 8 0 13 0 14 0 14 0 15 0 8 0 8 0 15 0 3 0 3 0 15 0 10 0 16 1 17 1 18 1 19 1 20 1 16 1 21 1 17 1 16 1 16 1 20 1 22 1 16 1 22 1 23 1 16 1 23 1 24 1 24 1 23 1 25 1 24 1 25 1 26 1 24 1 26 1 1 1 1 1 26 1 27 1 19 1 16 1 18 1 19 1 18 1 28 1 1 1 29 1 3 1 3 1 29 1 30 1 1 1 27 1 28 1 3 1 30 1 16 1 16 1 30 1 21 1 28 1 18 1 31 1 28 1 31 1 1 1 1 1 31 1 29 1 32 2 33 2 34 2 35 2 36 2 16 2 34 2 33 2 37 2 34 2 37 2 38 2 34 2 39 2 32 2 39 2 40 2 32 2 32 2 40 2 24 2 24 2 40 2 41 2 42 2 35 2 43 2 43 2 35 2 16 2 16 2 36 2 33 2 33 2 36 2 44 2 44 2 37 2 33 2 34 2 38 2 42 2 42 2 38 2 35 2 24 2 41 2 45 2 24 2 45 2 16 2 16 2 45 2 43 2 8 3 46 3 47 3 48 3 5 3 49 3 49 3 5 3 8 3 49 3 8 3 47 3 5 3 48 3 32 3 48 3 50 3 32 3 33 3 51 3 8 3 8 3 51 3 46 3 47 3 52 3 49 3 53 3 54 3 32 3 32 3 54 3 33 3 33 3 54 3 55 3 33 3 55 3 51 3 50 3 56 3 32 3 32 3 56 3 53 3 53 3 56 3 52 3 53 3 52 3 47 3 16 4 33 4 3 4 3 4 33 4 8 4 32 5 24 5 5 5 5 5 24 5 1 5 57 6 58 6 59 6 59 7 58 7 60 7 61 8 62 8 63 8 63 9 62 9 64 9 64 0 65 0 66 0 58 10 57 10 67 10 58 11 67 11 64 11 64 0 67 0 68 0 62 12 61 12 69 12 62 13 69 13 60 13 60 14 69 14 70 14 71 15 72 15 73 15 71 16 73 16 68 16 68 17 73 17 64 17 64 18 73 18 65 18 60 19 74 19 75 19 60 20 75 20 76 20 77 0 78 0 79 0 79 21 78 21 80 21 59 22 60 22 81 22 81 23 60 23 76 23 81 24 76 24 82 24 82 25 76 25 77 25 82 0 77 0 71 0 71 0 77 0 79 0 71 0 79 0 72 0 79 0 83 0 84 0 84 0 83 0 85 0 84 0 85 0 86 0 86 26 85 26 63 26 86 27 63 27 64 27 86 0 64 0 66 0 74 28 60 28 87 28 87 29 60 29 70 29 87 30 70 30 88 30 87 31 88 31 80 31 80 32 88 32 79 32 79 33 88 33 83 33 89 4 90 4 91 4 91 4 90 4 62 4 92 4 93 4 60 4 60 4 93 4 94 4 95 4 62 4 96 4 96 4 62 4 60 4 96 4 60 4 94 4 96 4 94 4 97 4 95 4 98 4 91 4 95 4 91 4 62 4 99 5 100 5 101 5 102 5 103 5 101 5 101 5 103 5 58 5 101 5 58 5 99 5 104 5 105 5 64 5 64 5 105 5 106 5 64 5 107 5 58 5 58 5 107 5 99 5 107 5 64 5 106 5 107 5 106 5 108 5 109 2 110 2 111 2 112 2 96 2 113 2 112 2 113 2 114 2 112 2 115 2 96 2 96 2 115 2 116 2 115 2 117 2 116 2 116 2 117 2 118 2 114 2 113 2 119 2 113 2 99 2 120 2 120 2 121 2 113 2 113 2 121 2 122 2 99 2 123 2 120 2 124 2 125 2 111 2 111 2 125 2 109 2 110 2 126 2 127 2 127 2 126 2 128 2 128 2 126 2 124 2 129 2 130 2 131 2 130 2 129 2 132 2 133 2 134 2 135 2 136 2 137 2 138 2 133 2 135 2 138 2 138 2 135 2 136 2 138 2 137 2 139 2 138 2 139 2 140 2 140 2 139 2 141 2 142 2 139 2 143 2 144 2 145 2 146 2 146 2 145 2 147 2 142 2 143 2 144 2 142 2 144 2 146 2 148 2 149 2 146 2 146 2 149 2 150 2 118 2 142 2 116 2 116 2 142 2 151 2 152 2 151 2 142 2 146 2 150 2 142 2 142 2 150 2 152 2 96 2 116 2 153 2 96 2 153 2 154 2 96 2 154 2 155 2 154 2 156 2 155 2 155 2 156 2 148 2 128 2 157 2 158 2 159 2 146 2 133 2 133 2 146 2 147 2 133 2 147 2 134 2 158 2 160 2 127 2 127 2 160 2 161 2 127 2 161 2 133 2 128 2 158 2 127 2 133 2 161 2 159 2 159 2 162 2 146 2 146 2 162 2 163 2 163 2 164 2 146 2 146 2 164 2 128 2 128 2 164 2 165 2 165 2 157 2 128 2 166 2 167 2 131 2 168 2 146 2 131 2 168 2 131 2 167 2 130 2 166 2 131 2 168 2 169 2 146 2 146 2 169 2 170 2 146 2 170 2 155 2 146 2 155 2 148 2 171 2 172 2 130 2 170 2 173 2 155 2 155 2 173 2 174 2 174 2 175 2 155 2 155 2 175 2 171 2 171 2 175 2 172 2 176 2 107 2 177 2 176 2 177 2 178 2 107 2 176 2 179 2 107 2 179 2 180 2 180 2 179 2 181 2 180 2 181 2 182 2 110 2 133 2 180 2 110 2 180 2 111 2 111 2 180 2 182 2 111 2 182 2 183 2 111 2 183 2 184 2 177 2 185 2 178 2 184 2 186 2 111 2 111 2 186 2 177 2 177 2 186 2 185 2 187 2 188 2 177 2 177 2 188 2 189 2 177 2 189 2 111 2 111 2 189 2 190 2 128 2 124 2 111 2 128 2 111 2 191 2 191 2 111 2 190 2 192 2 187 2 177 2 193 2 194 2 132 2 132 2 194 2 192 2 192 2 194 2 195 2 192 2 195 2 187 2 190 2 196 2 191 2 191 2 196 2 132 2 132 2 196 2 193 2 192 2 197 2 198 2 199 2 132 2 200 2 200 2 132 2 192 2 200 2 192 2 198 2 132 2 199 2 201 2 95 2 202 2 197 2 171 2 203 2 204 2 171 2 204 2 205 2 171 2 205 2 95 2 95 2 205 2 202 2 133 2 110 2 127 2 99 2 133 2 138 2 99 2 138 2 123 2 123 2 138 2 140 2 119 2 113 2 142 2 142 2 113 2 139 2 139 2 113 2 122 2 139 2 122 2 141 2 128 2 131 2 146 2 119 2 142 2 118 2 201 2 206 2 132 2 132 2 206 2 171 2 132 2 171 2 130 2 206 2 203 2 171 2 171 2 96 2 155 2 192 2 95 2 197 2 93 1 102 1 94 1 94 1 102 1 101 1 105 3 89 3 106 3 106 3 89 3 91 3 90 1 104 1 62 1 62 1 104 1 64 1 90 0 207 0 104 0 104 0 207 0 208 0 209 0 104 0 210 0 210 0 104 0 208 0 210 0 208 0 211 0 89 0 212 0 90 0 90 0 212 0 213 0 90 0 213 0 207 0 214 0 105 0 215 0 215 0 105 0 104 0 215 0 104 0 209 0 105 0 214 0 216 0 105 0 216 0 89 0 89 0 216 0 217 0 208 0 218 0 211 0 211 0 218 0 219 0 211 0 219 0 217 0 217 0 219 0 220 0 217 0 220 0 89 0 89 0 220 0 212 0 103 3 92 3 58 3 58 3 92 3 60 3 92 0 221 0 222 0 103 0 223 0 224 0 103 0 224 0 92 0 92 0 224 0 221 0 221 0 224 0 225 0 221 0 225 0 226 0 102 0 227 0 103 0 103 0 227 0 228 0 103 0 228 0 223 0 229 0 230 0 93 0 93 0 230 0 102 0 102 0 230 0 227 0 231 0 93 0 92 0 231 0 92 0 222 0 231 0 232 0 93 0 93 0 232 0 229 0 232 0 233 0 229 0 229 0 233 0 225 0 225 0 233 0 234 0 225 0 234 0 226 0 221 34 235 34 236 34 236 34 235 34 237 34 236 35 237 35 238 35 238 35 237 35 239 35 238 36 239 36 240 36 240 36 239 36 241 36 240 37 241 37 242 37 242 37 241 37 243 37 242 38 243 38 232 38 232 38 243 38 244 38 232 39 244 39 245 39 245 39 244 39 246 39 245 40 246 40 247 40 247 40 246 40 248 40 247 41 248 41 233 41 233 41 248 41 249 41 233 42 249 42 234 42 234 42 249 42 119 42 234 43 119 43 226 43 226 43 119 43 250 43 226 44 250 44 251 44 251 44 250 44 252 44 251 45 252 45 221 45 221 45 252 45 235 45 253 34 254 34 255 34 255 34 254 34 256 34 255 46 256 46 257 46 257 46 256 46 258 46 257 36 258 36 259 36 259 36 258 36 260 36 259 37 260 37 229 37 229 37 260 37 261 37 229 47 261 47 230 47 230 47 261 47 121 47 230 39 121 39 262 39 262 39 121 39 263 39 262 48 263 48 264 48 264 48 263 48 265 48 264 49 265 49 266 49 266 49 265 49 267 49 266 42 267 42 228 42 228 42 267 42 123 42 228 43 123 43 268 43 268 43 123 43 269 43 268 50 269 50 270 50 270 50 269 50 271 50 270 51 271 51 253 51 253 51 271 51 254 51 272 52 273 52 216 52 216 52 273 52 274 52 216 53 274 53 275 53 275 53 274 53 276 53 275 36 276 36 277 36 277 36 276 36 278 36 277 37 278 37 211 37 211 37 278 37 279 37 211 54 279 54 280 54 280 54 279 54 281 54 280 55 281 55 210 55 210 55 281 55 282 55 210 56 282 56 283 56 283 56 282 56 284 56 283 57 284 57 285 57 285 57 284 57 286 57 285 42 286 42 215 42 215 42 286 42 110 42 215 43 110 43 287 43 287 43 110 43 288 43 287 58 288 58 289 58 289 58 288 58 290 58 289 59 290 59 272 59 272 59 290 59 273 59 291 52 292 52 220 52 220 52 292 52 293 52 220 60 293 60 212 60 212 60 293 60 294 60 212 36 294 36 295 36 295 36 294 36 296 36 295 37 296 37 297 37 297 37 296 37 298 37 297 61 298 61 299 61 299 61 298 61 300 61 299 55 300 55 301 55 301 55 300 55 302 55 301 62 302 62 303 62 303 62 302 62 304 62 303 63 304 63 305 63 305 63 304 63 306 63 305 42 306 42 218 42 218 42 306 42 307 42 218 43 307 43 219 43 219 43 307 43 308 43 219 64 308 64 309 64 309 64 308 64 310 64 309 65 310 65 291 65 291 65 310 65 292 65 311 0 91 0 312 0 312 0 91 0 98 0 312 0 98 0 313 0 314 66 315 66 106 66 106 67 315 67 316 67 106 68 316 68 108 68 316 69 317 69 108 69 108 0 317 0 318 0 319 70 108 70 318 70 311 0 320 0 91 0 91 0 320 0 321 0 322 0 91 0 323 0 323 0 91 0 321 0 319 71 324 71 108 71 108 0 324 0 98 0 98 0 324 0 313 0 325 72 326 72 322 72 322 73 326 73 327 73 322 74 327 74 91 74 91 75 327 75 106 75 106 76 327 76 314 76 326 77 325 77 328 77 326 78 328 78 318 78 318 79 328 79 319 79 319 80 329 80 324 80 324 0 329 0 330 0 330 0 329 0 331 0 330 0 331 0 321 0 321 0 331 0 323 0 95 3 107 3 98 3 98 3 107 3 108 3 100 0 97 0 101 0 101 0 97 0 94 0 96 1 97 1 99 1 99 1 97 1 100 1 332 0 333 0 334 0 334 0 333 0 335 0 336 0 337 0 332 0 332 0 337 0 333 0 337 0 336 0 338 0 337 0 338 0 339 0 337 0 339 0 340 0 340 0 339 0 341 0 335 0 342 0 343 0 335 0 343 0 334 0 341 0 344 0 345 0 334 0 343 0 341 0 341 0 343 0 344 0 341 0 345 0 340 0 340 0 345 0 346 0 346 0 347 0 340 0 340 0 347 0 335 0 335 0 347 0 342 0 348 1 349 1 350 1 351 1 352 1 348 1 353 1 349 1 348 1 348 1 352 1 354 1 348 1 354 1 355 1 348 1 355 1 356 1 356 1 355 1 357 1 356 1 357 1 358 1 356 1 358 1 333 1 333 1 358 1 359 1 351 1 348 1 350 1 351 1 350 1 360 1 333 1 361 1 335 1 335 1 361 1 362 1 333 1 359 1 360 1 335 1 362 1 348 1 348 1 362 1 353 1 360 1 350 1 363 1 360 1 363 1 333 1 333 1 363 1 361 1 364 2 365 2 366 2 367 2 368 2 348 2 366 2 365 2 369 2 366 2 369 2 370 2 366 2 371 2 364 2 371 2 372 2 364 2 364 2 372 2 356 2 356 2 372 2 373 2 374 2 367 2 375 2 375 2 367 2 348 2 348 2 368 2 365 2 365 2 368 2 376 2 376 2 369 2 365 2 366 2 370 2 374 2 374 2 370 2 367 2 356 2 373 2 377 2 356 2 377 2 348 2 348 2 377 2 375 2 340 3 378 3 379 3 380 3 337 3 381 3 381 3 337 3 340 3 381 3 340 3 379 3 337 3 380 3 364 3 380 3 382 3 364 3 365 3 383 3 340 3 340 3 383 3 378 3 379 3 384 3 381 3 385 3 386 3 364 3 364 3 386 3 365 3 365 3 386 3 387 3 365 3 387 3 383 3 382 3 388 3 364 3 364 3 388 3 385 3 385 3 388 3 384 3 385 3 384 3 379 3 348 4 365 4 335 4 335 4 365 4 340 4 364 5 356 5 337 5 337 5 356 5 333 5 389 0 390 0 391 0 391 0 390 0 392 0 393 0 394 0 395 0 395 0 394 0 396 0 394 0 397 0 398 0 399 0 400 0 401 0 402 0 403 0 404 0 405 0 406 0 407 0 406 0 408 0 400 0 406 0 400 0 407 0 407 0 400 0 399 0 396 0 409 0 410 0 410 0 409 0 400 0 410 0 400 0 408 0 410 0 408 0 390 0 390 0 408 0 392 0 398 0 411 0 412 0 413 0 414 0 394 0 413 0 415 0 414 0 414 0 415 0 400 0 400 0 415 0 401 0 416 0 417 0 418 0 419 0 420 0 421 0 421 0 420 0 422 0 422 0 420 0 423 0 422 0 423 0 406 0 406 0 423 0 408 0 393 0 424 0 394 0 394 0 424 0 425 0 394 0 425 0 389 0 421 0 426 0 394 0 427 0 428 0 429 0 430 0 431 0 432 0 396 0 433 0 409 0 394 0 426 0 413 0 413 0 426 0 434 0 435 0 436 0 404 0 389 0 391 0 437 0 389 0 437 0 394 0 394 0 437 0 419 0 394 0 419 0 421 0 438 0 439 0 440 0 405 0 407 0 441 0 441 0 407 0 442 0 441 0 442 0 434 0 434 0 442 0 413 0 443 0 444 0 445 0 428 0 446 0 447 0 394 0 430 0 445 0 445 0 430 0 432 0 448 0 449 0 445 0 450 0 451 0 428 0 398 0 412 0 394 0 452 0 453 0 417 0 454 0 455 0 456 0 445 0 444 0 428 0 433 0 396 0 394 0 433 0 394 0 428 0 454 0 456 0 417 0 412 0 457 0 402 0 412 0 402 0 394 0 458 0 430 0 459 0 445 0 428 0 394 0 402 0 404 0 394 0 440 0 439 0 417 0 440 0 417 0 394 0 440 0 394 0 404 0 440 0 404 0 436 0 459 0 430 0 417 0 417 0 430 0 394 0 460 81 461 81 447 81 447 81 461 81 462 81 463 82 464 82 465 82 465 82 464 82 466 82 467 83 468 83 469 83 469 83 468 83 435 83 470 81 471 81 436 81 436 81 471 81 472 81 473 83 474 83 475 83 475 83 474 83 438 83 476 81 477 81 439 81 439 81 477 81 478 81 479 84 480 84 481 84 481 84 480 84 418 84 482 85 483 85 416 85 416 85 483 85 484 85 485 83 486 83 487 83 487 83 486 83 452 83 488 86 489 86 453 86 453 86 489 86 490 86 491 83 492 83 493 83 493 83 492 83 494 83 495 86 496 86 497 86 497 86 496 86 498 86 499 84 500 84 501 84 501 84 500 84 459 84 502 81 503 81 458 81 458 81 503 81 504 81 505 84 506 84 507 84 507 84 506 84 431 84 508 81 509 81 432 81 432 81 509 81 510 81 511 84 512 84 513 84 513 84 512 84 448 84 514 86 515 86 449 86 449 86 515 86 516 86 517 83 518 83 519 83 519 83 518 83 443 83 520 86 521 86 444 86 444 86 521 86 522 86 523 83 524 83 525 83 525 83 524 83 429 83 526 81 527 81 427 81 427 81 527 81 528 81 529 83 530 83 531 83 531 83 530 83 450 83 532 81 533 81 451 81 451 81 533 81 534 81 535 87 536 87 537 87 537 87 536 87 446 87 538 88 539 88 540 88 540 88 539 88 541 88 542 83 543 83 544 83 544 83 543 83 545 83 546 89 547 89 548 89 548 89 547 89 549 89 550 87 551 87 552 87 552 87 551 87 553 87 554 90 555 90 556 90 556 90 555 90 557 90 558 4 559 4 400 4 400 4 559 4 414 4 560 91 561 91 562 91 559 92 563 92 564 92 543 2 565 2 538 2 566 93 567 93 558 93 558 94 567 94 568 94 558 95 568 95 559 95 559 96 568 96 569 96 570 97 571 97 572 97 570 98 572 98 573 98 573 2 572 2 563 2 573 2 563 2 561 2 561 99 563 99 559 99 574 100 575 100 576 100 571 101 570 101 577 101 577 102 570 102 578 102 578 103 570 103 579 103 563 104 580 104 564 104 564 105 580 105 581 105 582 2 583 2 584 2 585 106 586 106 559 106 559 107 586 107 561 107 561 108 586 108 562 108 587 109 588 109 582 109 589 110 575 110 470 110 588 111 587 111 590 111 590 112 587 112 591 112 590 113 591 113 562 113 562 114 591 114 560 114 463 115 592 115 589 115 559 116 569 116 593 116 559 117 593 117 585 117 585 118 593 118 583 118 583 2 593 2 594 2 583 2 594 2 584 2 589 115 470 115 468 115 551 119 565 119 546 119 581 120 565 120 564 120 564 121 565 121 595 121 566 122 558 122 584 122 584 2 558 2 578 2 584 2 578 2 582 2 582 123 578 123 579 123 582 124 579 124 587 124 589 125 592 125 565 125 576 126 596 126 574 126 597 2 581 2 577 2 597 2 577 2 578 2 486 2 575 2 488 2 598 127 599 127 600 127 581 128 601 128 602 128 602 129 601 129 524 129 581 130 602 130 603 130 581 2 603 2 598 2 598 131 603 131 514 131 601 129 532 129 530 129 604 132 605 132 606 132 603 133 602 133 607 133 598 131 514 131 512 131 565 134 581 134 589 134 597 135 604 135 581 135 575 2 608 2 492 2 532 136 601 136 606 136 606 137 601 137 581 137 606 138 581 138 604 138 600 2 502 2 500 2 608 2 495 2 492 2 482 2 480 2 575 2 575 139 589 139 581 139 600 2 581 2 598 2 575 2 581 2 600 2 575 2 600 2 608 2 597 140 578 140 433 140 433 140 578 140 409 140 578 1 558 1 409 1 409 1 558 1 400 1 394 3 414 3 564 3 564 3 414 3 559 3 609 83 592 83 610 83 610 83 592 83 611 83 556 5 557 5 564 5 564 5 557 5 394 5 612 4 613 4 614 4 614 4 613 4 615 4 616 4 617 4 618 4 619 4 612 4 620 4 620 4 612 4 614 4 621 4 622 4 623 4 623 4 622 4 624 4 623 4 624 4 625 4 625 4 624 4 618 4 625 4 618 4 617 4 624 4 622 4 626 4 624 4 626 4 619 4 619 4 626 4 612 4 612 4 626 4 627 4 628 3 629 3 617 3 630 0 631 0 617 0 617 0 631 0 632 0 633 1 634 1 625 1 621 2 635 2 636 2 621 2 636 2 627 2 627 2 636 2 637 2 638 3 639 3 613 3 640 0 641 0 642 0 642 0 641 0 615 0 643 5 644 5 645 5 645 5 644 5 646 5 643 5 647 5 644 5 648 5 649 5 650 5 650 5 649 5 651 5 650 5 651 5 652 5 652 5 651 5 653 5 643 5 653 5 654 5 655 5 647 5 643 5 655 5 643 5 654 5 656 5 651 5 647 5 656 5 647 5 655 5 651 5 656 5 653 5 653 5 656 5 654 5 657 5 629 5 658 5 659 5 660 5 661 5 657 5 658 5 662 5 663 5 661 5 660 5 660 5 659 5 664 5 665 5 666 5 662 5 662 5 666 5 657 5 667 5 668 5 661 5 661 5 668 5 669 5 661 5 669 5 659 5 669 5 668 5 665 5 668 5 670 5 665 5 665 5 670 5 666 5 666 5 670 5 671 5 660 0 672 0 663 0 673 0 674 0 675 0 676 0 677 0 629 0 667 2 661 2 678 2 667 2 678 2 671 2 671 2 678 2 679 2 671 2 679 2 680 2 681 4 682 4 683 4 684 4 681 4 683 4 685 4 686 4 687 4 683 4 688 4 684 4 681 4 684 4 689 4 689 4 684 4 690 4 691 4 692 4 693 4 693 4 692 4 687 4 693 4 687 4 686 4 690 4 692 4 694 4 695 4 689 4 690 4 695 4 690 4 694 4 691 4 696 4 692 4 692 4 696 4 694 4 689 4 695 4 696 4 689 4 696 4 691 4 629 3 628 3 658 3 697 1 620 1 659 1 645 4 646 4 644 4 698 4 648 4 650 4 698 4 650 4 653 4 647 4 643 4 644 4 644 4 643 4 645 4 645 4 643 4 699 4 653 4 700 4 698 4 701 4 647 4 702 4 702 4 647 4 700 4 653 4 643 4 703 4 653 4 703 4 702 4 653 4 702 4 700 4 647 4 701 4 643 4 643 4 701 4 703 4 639 3 638 3 704 3 637 2 636 2 705 2 634 1 633 1 706 1 633 5 630 5 707 5 708 5 709 5 633 5 708 5 633 5 707 5 709 5 710 5 633 5 711 5 712 5 639 5 639 5 712 5 713 5 639 5 713 5 641 5 714 5 710 5 709 5 715 5 711 5 710 5 715 5 710 5 714 5 714 5 709 5 716 5 716 5 709 5 712 5 711 5 715 5 712 5 712 5 715 5 716 5 660 1 717 1 615 1 615 1 717 1 614 1 718 1 719 1 720 1 720 1 719 1 721 1 722 141 723 141 724 141 725 2 726 2 727 2 722 142 724 142 728 142 728 143 724 143 729 143 728 144 729 144 730 144 728 145 730 145 725 145 725 146 730 146 731 146 732 147 733 147 734 147 734 148 733 148 722 148 722 149 733 149 723 149 725 2 727 2 734 2 727 150 735 150 734 150 734 151 735 151 732 151 731 152 736 152 726 152 731 153 726 153 725 153 735 154 737 154 732 154 732 155 737 155 738 155 732 156 738 156 731 156 731 157 738 157 736 157 739 158 740 158 741 158 739 142 741 142 742 142 742 159 741 159 743 159 744 160 745 160 739 160 739 161 745 161 740 161 746 162 747 162 743 162 743 163 747 163 742 163 744 164 748 164 745 164 745 165 748 165 749 165 747 2 750 2 742 2 742 2 750 2 751 2 751 2 750 2 752 2 751 2 752 2 744 2 744 2 752 2 748 2 747 166 746 166 753 166 747 167 753 167 749 167 749 168 753 168 745 168 754 3 755 3 756 3 756 3 755 3 757 3 758 3 759 3 760 3 760 3 759 3 761 3 762 0 763 0 764 0 764 0 763 0 641 0 765 169 713 169 766 169 765 169 766 169 767 169 767 170 766 170 768 170 767 170 768 170 769 170 769 171 768 171 770 171 769 171 770 171 771 171 771 172 770 172 772 172 771 172 772 172 773 172 773 173 772 173 774 173 773 173 774 173 775 173 775 174 774 174 776 174 775 174 776 174 777 174 778 175 707 175 779 175 778 175 779 175 780 175 780 176 779 176 781 176 780 176 781 176 782 176 782 177 781 177 783 177 782 177 783 177 784 177 784 178 783 178 785 178 784 178 785 178 786 178 786 179 785 179 787 179 786 179 787 179 788 179 788 180 787 180 789 180 788 180 789 180 790 180 677 0 791 0 630 0 630 0 791 0 792 0 707 4 630 4 721 4 744 4 793 4 794 4 764 4 641 4 776 4 764 4 776 4 713 4 713 4 795 4 793 4 793 4 795 4 794 4 794 4 795 4 796 4 796 4 795 4 797 4 789 4 707 4 721 4 789 4 721 4 797 4 797 4 721 4 796 4 796 4 721 4 719 4 793 4 764 4 713 4 777 5 763 5 762 5 798 5 799 5 756 5 800 5 791 5 801 5 802 5 803 5 677 5 762 5 799 5 765 5 762 5 765 5 777 5 791 5 677 5 803 5 791 5 803 5 801 5 801 5 803 5 798 5 798 5 803 5 804 5 798 5 804 5 799 5 799 5 804 5 765 5 798 2 805 2 801 2 801 2 805 2 796 2 806 5 692 5 693 5 806 5 693 5 686 5 692 5 691 5 693 5 692 5 807 5 691 5 807 5 808 5 691 5 691 5 808 5 689 5 689 5 808 5 809 5 809 5 810 5 690 5 690 5 810 5 692 5 692 5 810 5 807 5 689 5 809 5 690 5 689 5 690 5 681 5 681 5 690 5 684 5 681 5 684 5 683 5 681 5 683 5 682 5 811 3 812 3 813 3 813 3 812 3 814 3 672 0 660 0 763 0 674 0 673 0 815 0 677 0 676 0 816 0 657 1 817 1 818 1 818 1 817 1 819 1 814 4 763 4 777 4 820 4 821 4 822 4 814 4 777 4 821 4 821 4 823 4 814 4 824 4 820 4 822 4 825 4 823 4 821 4 825 4 821 4 820 4 823 4 825 4 824 4 823 4 824 4 826 4 826 4 824 4 822 4 826 4 822 4 818 4 818 4 822 4 790 4 818 4 790 4 677 4 827 1 828 1 829 1 830 1 831 1 832 1 833 1 834 1 835 1 830 1 832 1 836 1 836 1 832 1 837 1 833 1 835 1 838 1 838 1 835 1 839 1 838 1 839 1 840 1 840 1 839 1 829 1 829 1 839 1 827 1 841 1 842 1 843 1 843 1 842 1 844 1 843 1 844 1 845 1 845 1 844 1 846 1 845 1 846 1 847 1 845 1 847 1 848 1 848 1 847 1 849 1 848 1 849 1 850 1 848 1 850 1 851 1 851 1 850 1 837 1 852 1 853 1 854 1 832 1 855 1 837 1 837 1 855 1 856 1 837 1 856 1 851 1 851 1 856 1 857 1 851 1 857 1 852 1 852 1 857 1 853 1 857 1 858 1 853 1 853 1 858 1 859 1 859 1 858 1 860 1 859 1 860 1 833 1 833 1 860 1 834 1 834 1 860 1 861 1 834 1 861 1 831 1 831 1 861 1 862 1 831 1 862 1 832 1 854 1 863 1 852 1 852 1 863 1 864 1 864 1 863 1 865 1 864 1 865 1 841 1 841 1 865 1 866 1 841 1 866 1 842 1 867 1 829 1 868 1 867 1 868 1 869 1 870 1 871 1 872 1 872 1 873 1 870 1 870 1 873 1 868 1 868 1 873 1 869 1 867 1 874 1 829 1 829 1 874 1 840 1 840 1 874 1 875 1 840 1 875 1 872 1 872 1 875 1 876 1 872 1 876 1 873 1 877 1 878 1 829 1 879 1 880 1 868 1 868 1 880 1 881 1 829 1 882 1 877 1 877 1 882 1 883 1 837 1 884 1 836 1 836 1 884 1 885 1 836 1 885 1 828 1 828 1 885 1 886 1 828 1 886 1 829 1 878 1 887 1 829 1 829 1 887 1 868 1 868 1 887 1 879 1 880 1 888 1 881 1 881 1 888 1 889 1 889 1 888 1 877 1 889 1 877 1 883 1 890 3 891 3 892 3 893 3 894 3 895 3 896 3 893 3 897 3 892 3 891 3 898 3 898 3 891 3 899 3 898 3 899 3 900 3 898 3 900 3 901 3 901 3 900 3 902 3 901 3 902 3 903 3 901 3 903 3 904 3 905 3 906 3 907 3 907 3 906 3 908 3 908 3 906 3 909 3 908 3 909 3 910 3 910 3 909 3 911 3 890 3 912 3 913 3 913 3 912 3 914 3 913 3 914 3 915 3 896 3 897 3 916 3 895 3 894 3 917 3 917 3 894 3 910 3 917 3 910 3 911 3 917 3 911 3 918 3 918 3 911 3 919 3 918 3 919 3 920 3 920 3 919 3 921 3 920 3 921 3 922 3 890 3 892 3 923 3 890 3 923 3 912 3 912 3 923 3 924 3 924 3 923 3 897 3 924 3 897 3 893 3 924 3 893 3 895 3 904 3 903 3 925 3 904 3 925 3 897 3 897 3 925 3 926 3 897 3 926 3 916 3 927 3 928 3 922 3 915 3 920 3 913 3 913 3 920 3 922 3 913 3 922 3 929 3 929 3 922 3 928 3 905 3 930 3 931 3 931 3 930 3 927 3 931 3 927 3 922 3 932 3 933 3 934 3 934 3 933 3 935 3 933 3 932 3 936 3 933 3 936 3 937 3 937 3 936 3 938 3 938 3 939 3 905 3 905 3 939 3 930 3 939 3 940 3 930 3 930 3 940 3 941 3 941 3 940 3 934 3 941 3 934 3 935 3 905 3 942 3 943 3 937 3 943 3 944 3 937 3 938 3 905 3 937 3 905 3 943 3 937 3 944 3 945 3 937 3 945 3 946 3 946 3 945 3 947 3 948 3 946 3 949 3 949 3 946 3 947 3 949 3 947 3 907 3 907 3 947 3 950 3 907 3 950 3 905 3 905 3 950 3 942 3 951 181 910 181 894 181 952 182 894 182 893 182 953 183 893 183 896 183 954 184 896 184 955 184 955 184 896 184 956 184 955 185 956 185 916 185 955 185 916 185 957 185 916 186 926 186 958 186 926 187 959 187 960 187 961 5 960 5 925 5 925 5 960 5 959 5 925 188 962 188 963 188 963 189 962 189 964 189 964 190 902 190 965 190 902 191 900 191 966 191 846 192 900 192 899 192 846 192 899 192 847 192 967 193 899 193 891 193 891 194 890 194 968 194 927 195 885 195 928 195 928 196 885 196 884 196 928 196 884 196 929 196 929 197 884 197 837 197 929 197 837 197 913 197 913 198 837 198 850 198 913 198 850 198 890 198 969 199 970 199 930 199 930 199 970 199 829 199 930 200 829 200 927 200 927 200 829 200 886 200 927 195 886 195 885 195 971 4 972 4 973 4 973 4 972 4 974 4 946 0 870 0 933 0 933 0 870 0 881 0 870 201 946 201 975 201 870 201 975 201 976 201 976 202 975 202 977 202 976 202 977 202 978 202 978 203 977 203 949 203 978 203 949 203 872 203 979 5 872 5 980 5 980 5 872 5 949 5 979 204 980 204 840 204 840 204 980 204 907 204 840 205 907 205 838 205 907 205 908 205 838 205 838 206 908 206 981 206 838 206 981 206 982 206 983 207 892 207 984 207 984 208 985 208 986 208 987 209 898 209 988 209 989 210 990 210 991 210 989 211 901 211 992 211 992 212 993 212 994 212 995 213 904 213 996 213 996 214 997 214 998 214 999 215 1000 215 1001 215 1001 216 1002 216 1003 216 1004 209 914 209 912 209 1005 217 912 217 924 217 1006 218 1007 218 1008 218 1009 219 1010 219 1011 219 1012 220 1011 220 1013 220 1012 221 1014 221 1015 221 1016 215 917 215 918 215 1016 222 1017 222 1018 222 1018 223 920 223 1019 223 1020 209 921 209 919 209 1021 217 1022 217 1023 217 1023 224 1024 224 1025 224 1025 225 909 225 1026 225 1026 226 1027 226 1028 226 1028 220 906 220 1029 220 1029 221 1030 221 1031 221 1031 215 905 215 1032 215 1032 222 1033 222 1034 222 1035 227 931 227 1036 227 1037 228 1038 228 1039 228 1039 228 1038 228 1040 228 1039 229 1040 229 1041 229 1041 229 1040 229 1042 229 1041 230 1042 230 1043 230 1043 230 1042 230 1044 230 1043 231 1044 231 1045 231 1045 231 1044 231 1046 231 1045 232 1046 232 1047 232 1047 232 1046 232 1048 232 1049 2 1047 2 1050 2 1050 2 1047 2 1048 2 1051 4 1049 4 1052 4 1052 4 1049 4 1050 4 1051 233 1052 233 1053 233 1053 233 1052 233 1054 233 1053 234 1054 234 1055 234 1055 234 1054 234 1056 234 1055 235 1056 235 1057 235 1057 235 1056 235 1058 235 1057 236 1058 236 1059 236 1057 236 1059 236 1060 236 1060 237 1059 237 1061 237 1060 237 1061 237 1062 237 1062 238 1061 238 1063 238 1062 238 1063 238 1064 238 1064 239 1063 239 1065 239 1064 239 1065 239 1066 239 1066 240 1065 240 1067 240 1066 240 1067 240 1068 240 1068 241 1067 241 1069 241 1069 241 1067 241 1070 241 1069 242 1070 242 1071 242 1071 242 1070 242 1072 242 1073 243 1074 243 1075 243 1075 243 1074 243 1076 243 1075 244 1076 244 1077 244 1077 244 1076 244 1078 244 1077 245 1078 245 1079 245 1079 245 1078 245 1080 245 1079 246 1080 246 1081 246 1081 246 1080 246 1082 246 1081 247 1082 247 1083 247 1081 247 1083 247 1084 247 1084 248 1083 248 1085 248 1084 248 1085 248 1086 248 1086 249 1085 249 1087 249 1086 249 1087 249 1088 249 1088 250 1087 250 1089 250 1088 250 1089 250 1090 250 1090 251 1089 251 1091 251 1090 251 1091 251 1092 251 1092 252 1091 252 1093 252 1092 252 1093 252 1094 252 1094 253 1093 253 1095 253 1094 253 1095 253 1096 253 1096 254 1095 254 1097 254 1097 254 1095 254 1098 254 1097 255 1098 255 1099 255 1099 255 1098 255 1100 255 1099 256 1100 256 1101 256 1101 256 1100 256 1102 256 1101 257 1102 257 1103 257 1103 257 1102 257 1104 257 1103 258 1104 258 1105 258 1105 258 1104 258 1106 258 1105 259 1106 259 1107 259 1107 259 1106 259 1108 259 1107 260 1108 260 1109 260 1107 260 1109 260 1110 260 1110 261 1109 261 1111 261 1110 261 1111 261 1112 261 1112 262 1111 262 1113 262 1112 262 1113 262 1114 262 1114 263 1113 263 1115 263 1114 263 1115 263 1116 263 1116 264 1115 264 1117 264 1116 264 1117 264 1118 264 1118 265 1117 265 1119 265 1118 265 1119 265 1120 265 1120 266 1119 266 1121 266 1121 266 1119 266 1122 266 1121 267 1122 267 1123 267 1123 267 1122 267 1124 267 1123 268 1124 268 1125 268 1125 268 1124 268 1126 268 1125 269 1126 269 1127 269 1127 269 1126 269 1128 269 1127 270 1128 270 1129 270 1129 270 1128 270 1130 270 1129 271 1130 271 1131 271 1131 271 1130 271 1132 271 1131 272 1132 272 1133 272 1133 272 1132 272 1134 272 1133 273 1134 273 1135 273 1133 273 1135 273 1136 273 1136 274 1135 274 1137 274 1136 274 1137 274 1138 274 1138 275 1137 275 1139 275 1138 275 1139 275 1140 275 1140 276 1139 276 1141 276 1140 276 1141 276 1142 276 1142 277 1141 277 1143 277 1142 277 1143 277 1144 277 1144 278 1143 278 1145 278 1144 278 1145 278 1146 278 1146 279 1145 279 1147 279 1147 279 1145 279 1148 279 1147 280 1148 280 1149 280 1149 280 1148 280 1150 280 1149 281 1150 281 1151 281 1151 281 1150 281 1152 281 1151 282 1152 282 1153 282 1153 282 1152 282 1154 282 1153 283 1154 283 1155 283 1155 283 1154 283 1156 283 1155 284 1156 284 1157 284 1157 284 1156 284 1158 284 1157 285 1158 285 1159 285 1159 285 1158 285 1160 285 1159 286 1160 286 1161 286 1159 286 1161 286 1162 286 1162 287 1161 287 1163 287 1162 287 1163 287 1164 287 1164 288 1163 288 1165 288 1164 288 1165 288 1166 288 1166 289 1165 289 1167 289 1166 289 1167 289 1168 289 1168 290 1167 290 1169 290 1168 290 1169 290 1170 290 1170 291 1169 291 1171 291 1170 291 1171 291 1172 291 1172 292 1171 292 1173 292 1173 292 1171 292 1174 292 1173 293 1174 293 1175 293 1175 293 1174 293 1176 293 1175 294 1176 294 1177 294 1177 294 1176 294 1178 294 1177 295 1178 295 1179 295 1179 295 1178 295 1180 295 1179 296 1180 296 1181 296 1181 296 1180 296 1182 296 1181 297 1182 297 1183 297 1183 297 1182 297 1184 297 1183 298 1184 298 1185 298 1185 298 1184 298 1186 298 1185 299 1186 299 1187 299 1185 299 1187 299 1188 299 1188 300 1187 300 1189 300 1188 300 1189 300 1190 300 1190 301 1189 301 1191 301 1190 301 1191 301 1192 301 1192 302 1191 302 1193 302 1192 302 1193 302 1194 302 1194 303 1193 303 1195 303 1194 303 1195 303 1196 303 1196 304 1195 304 1197 304 1196 304 1197 304 1198 304 1198 305 1197 305 1199 305 1199 305 1197 305 1200 305 1199 306 1200 306 1201 306 1201 306 1200 306 1202 306 1201 307 1202 307 1203 307 1203 307 1202 307 1204 307 1203 308 1204 308 1205 308 1205 308 1204 308 1206 308 1205 309 1206 309 1207 309 1207 309 1206 309 1208 309 1207 310 1208 310 1209 310 1209 310 1208 310 1210 310 1209 311 1210 311 1211 311 1211 311 1210 311 1212 311 1211 312 1212 312 1213 312 1211 312 1213 312 1214 312 1214 313 1213 313 1215 313 1214 313 1215 313 1216 313 1216 314 1215 314 1217 314 1216 314 1217 314 1218 314 1218 315 1217 315 1219 315 1218 315 1219 315 1220 315 1220 316 1219 316 1221 316 1220 316 1221 316 1222 316 1222 317 1221 317 1223 317 1222 317 1223 317 1224 317 1224 318 1223 318 1225 318 1225 318 1223 318 1226 318 1225 319 1226 319 1227 319 1227 319 1226 319 1228 319 1227 320 1228 320 1229 320 1229 320 1228 320 1230 320 1229 321 1230 321 1231 321 1231 321 1230 321 1232 321 1231 322 1232 322 1233 322 1233 322 1232 322 1234 322 1233 323 1234 323 1235 323 1235 323 1234 323 1236 323 1235 324 1236 324 1237 324 1235 324 1237 324 1238 324 1238 325 1237 325 1239 325 1238 325 1239 325 1240 325 1240 326 1239 326 1241 326 1240 326 1241 326 1242 326 1242 327 1241 327 1243 327 1242 327 1243 327 1244 327 1244 328 1243 328 1245 328 1244 328 1245 328 1246 328 1246 329 1245 329 1247 329 1246 329 1247 329 1248 329 1248 330 1247 330 1249 330 1248 330 1249 330 1250 330 1250 331 1249 331 1251 331 1251 331 1249 331 1252 331 1251 332 1252 332 1253 332 1253 332 1252 332 1254 332 1253 333 1254 333 1255 333 1255 333 1254 333 1256 333 1255 334 1256 334 1257 334 1257 334 1256 334 1258 334 1257 335 1258 335 1259 335 1259 335 1258 335 1260 335 1259 336 1260 336 1261 336 1261 336 1260 336 1262 336 1261 337 1262 337 1263 337 1261 337 1263 337 1264 337 1264 338 1263 338 1265 338 1264 338 1265 338 1266 338 1266 339 1265 339 1267 339 1266 339 1267 339 1268 339 1268 340 1267 340 1269 340 1268 340 1269 340 1270 340 1270 341 1269 341 1271 341 1270 341 1271 341 1272 341 1272 342 1271 342 1038 342 1272 342 1038 342 1037 342 1273 1 1047 1 1049 1 1079 1 1069 1 1077 1 1077 1 1069 1 1071 1 1077 1 1071 1 1073 1 1066 1 1103 1 1105 1 1103 1 1066 1 1069 1 1103 1 1069 1 1097 1 1097 1 1069 1 1079 1 1097 1 1079 1 1084 1 1088 1 1274 1 1097 1 1088 1 1097 1 1084 1 1275 1 1257 1 1049 1 1049 1 1257 1 1259 1 1275 1 1251 1 1257 1 1118 1 1121 1 1105 1 1105 1 1121 1 1066 1 1060 1 1276 1 1275 1 1275 1 1276 1 1233 1 1275 1 1233 1 1251 1 1251 1 1233 1 1277 1 1277 1 1233 1 1278 1 1121 1 1127 1 1066 1 1066 1 1127 1 1064 1 1064 1 1127 1 1279 1 1280 1 1281 1 1039 1 1282 1 1060 1 1062 1 1273 1 1049 1 1039 1 1039 1 1049 1 1259 1 1039 1 1259 1 1280 1 1110 1 1283 1 1118 1 1110 1 1118 1 1105 1 1284 1 1064 1 1285 1 1285 1 1064 1 1279 1 1173 1 1286 1 1062 1 1062 1 1286 1 1282 1 1064 1 1284 1 1155 1 1064 1 1155 1 1062 1 1062 1 1155 1 1157 1 1062 1 1157 1 1173 1 1173 1 1157 1 1287 1 1199 1 1288 1 1060 1 1289 1 1285 1 1279 1 1289 1 1279 1 1290 1 1287 1 1291 1 1173 1 1288 1 1207 1 1060 1 1060 1 1207 1 1225 1 1060 1 1225 1 1276 1 1060 1 1282 1 1199 1 1199 1 1282 1 1188 1 1199 1 1188 1 1292 1 1199 1 1292 1 1293 1 1225 1 1207 1 1209 1 1225 1 1209 1 1294 1 1294 1 1209 1 1295 1 1065 3 1106 3 1104 3 1067 3 1080 3 1072 3 1072 3 1080 3 1074 3 1065 3 1104 3 1067 3 1054 3 1050 3 1296 3 1050 3 1048 3 1297 3 1296 3 1298 3 1054 3 1054 3 1298 3 1056 3 1067 3 1104 3 1098 3 1067 3 1098 3 1080 3 1080 3 1098 3 1299 3 1299 3 1098 3 1300 3 1298 3 1301 3 1056 3 1056 3 1301 3 1234 3 1234 3 1301 3 1247 3 1243 3 1302 3 1234 3 1243 3 1234 3 1247 3 1040 3 1303 3 1304 3 1305 3 1065 3 1132 3 1132 3 1065 3 1063 3 1040 3 1304 3 1296 3 1040 3 1296 3 1050 3 1040 3 1050 3 1297 3 1063 3 1306 3 1132 3 1132 3 1306 3 1307 3 1065 3 1305 3 1122 3 1065 3 1122 3 1106 3 1106 3 1122 3 1308 3 1308 3 1122 3 1309 3 1234 3 1310 3 1056 3 1056 3 1310 3 1059 3 1059 3 1310 3 1226 3 1059 3 1226 3 1311 3 1158 3 1156 3 1061 3 1061 3 1156 3 1063 3 1063 3 1156 3 1306 3 1059 3 1312 3 1061 3 1307 3 1313 3 1132 3 1059 3 1311 3 1200 3 1059 3 1200 3 1312 3 1312 3 1200 3 1187 3 1312 3 1176 3 1061 3 1061 3 1176 3 1158 3 1158 3 1176 3 1174 3 1158 3 1174 3 1161 3 1161 3 1174 3 1314 3 1187 3 1200 3 1315 3 1221 3 1316 3 1213 3 1221 3 1213 3 1210 3 1221 3 1210 3 1226 3 1226 3 1210 3 1311 3 1071 343 1072 343 1073 343 1073 343 1072 343 1074 343 1317 1 1318 1 1319 1 1320 1 1321 1 1322 1 1323 1 1324 1 1325 1 1320 1 1322 1 1326 1 1326 1 1322 1 1327 1 1323 1 1325 1 1328 1 1328 1 1325 1 1329 1 1328 1 1329 1 1330 1 1330 1 1329 1 1319 1 1319 1 1329 1 1317 1 1331 1 1332 1 1333 1 1333 1 1332 1 1334 1 1333 1 1334 1 1335 1 1335 1 1334 1 1336 1 1335 1 1336 1 1337 1 1335 1 1337 1 1338 1 1338 1 1337 1 1339 1 1338 1 1339 1 1340 1 1338 1 1340 1 1341 1 1341 1 1340 1 1327 1 1342 1 1343 1 1344 1 1322 1 1345 1 1327 1 1327 1 1345 1 1346 1 1327 1 1346 1 1341 1 1341 1 1346 1 1347 1 1341 1 1347 1 1342 1 1342 1 1347 1 1343 1 1347 1 1348 1 1343 1 1343 1 1348 1 1349 1 1349 1 1348 1 1350 1 1349 1 1350 1 1323 1 1323 1 1350 1 1324 1 1324 1 1350 1 1351 1 1324 1 1351 1 1321 1 1321 1 1351 1 1352 1 1321 1 1352 1 1322 1 1344 1 1353 1 1342 1 1342 1 1353 1 1354 1 1354 1 1353 1 1355 1 1354 1 1355 1 1331 1 1331 1 1355 1 1356 1 1331 1 1356 1 1332 1 1357 1 1319 1 1358 1 1357 1 1358 1 1359 1 1360 1 1361 1 1362 1 1362 1 1363 1 1360 1 1360 1 1363 1 1358 1 1358 1 1363 1 1359 1 1357 1 1364 1 1319 1 1319 1 1364 1 1330 1 1330 1 1364 1 1365 1 1330 1 1365 1 1362 1 1362 1 1365 1 1366 1 1362 1 1366 1 1363 1 1367 1 1368 1 1319 1 1369 1 1370 1 1358 1 1358 1 1370 1 1371 1 1319 1 1372 1 1367 1 1367 1 1372 1 1373 1 1327 1 1374 1 1326 1 1326 1 1374 1 1375 1 1326 1 1375 1 1318 1 1318 1 1375 1 1376 1 1318 1 1376 1 1319 1 1368 1 1377 1 1319 1 1319 1 1377 1 1358 1 1358 1 1377 1 1369 1 1370 1 1378 1 1371 1 1371 1 1378 1 1379 1 1379 1 1378 1 1367 1 1379 1 1367 1 1373 1 1380 3 1381 3 1382 3 1383 3 1384 3 1385 3 1386 3 1383 3 1387 3 1382 3 1381 3 1388 3 1388 3 1381 3 1389 3 1388 3 1389 3 1390 3 1388 3 1390 3 1391 3 1391 3 1390 3 1392 3 1391 3 1392 3 1393 3 1391 3 1393 3 1394 3 1395 3 1396 3 1397 3 1397 3 1396 3 1398 3 1398 3 1396 3 1399 3 1398 3 1399 3 1400 3 1400 3 1399 3 1401 3 1380 3 1402 3 1403 3 1403 3 1402 3 1404 3 1403 3 1404 3 1405 3 1386 3 1387 3 1406 3 1385 3 1384 3 1407 3 1407 3 1384 3 1400 3 1407 3 1400 3 1401 3 1407 3 1401 3 1408 3 1408 3 1401 3 1409 3 1408 3 1409 3 1410 3 1410 3 1409 3 1411 3 1410 3 1411 3 1412 3 1380 3 1382 3 1413 3 1380 3 1413 3 1402 3 1402 3 1413 3 1414 3 1414 3 1413 3 1387 3 1414 3 1387 3 1383 3 1414 3 1383 3 1385 3 1394 3 1393 3 1415 3 1394 3 1415 3 1387 3 1387 3 1415 3 1416 3 1387 3 1416 3 1406 3 1417 3 1418 3 1412 3 1405 3 1410 3 1403 3 1403 3 1410 3 1412 3 1403 3 1412 3 1419 3 1419 3 1412 3 1418 3 1395 3 1420 3 1421 3 1421 3 1420 3 1417 3 1421 3 1417 3 1412 3 1422 3 1423 3 1424 3 1424 3 1423 3 1425 3 1423 3 1422 3 1426 3 1423 3 1426 3 1427 3 1427 3 1426 3 1428 3 1428 3 1429 3 1395 3 1395 3 1429 3 1420 3 1429 3 1430 3 1420 3 1420 3 1430 3 1431 3 1431 3 1430 3 1424 3 1431 3 1424 3 1425 3 1395 3 1432 3 1433 3 1427 3 1433 3 1434 3 1427 3 1428 3 1395 3 1427 3 1395 3 1433 3 1427 3 1434 3 1435 3 1427 3 1435 3 1436 3 1436 3 1435 3 1437 3 1438 3 1436 3 1439 3 1439 3 1436 3 1437 3 1439 3 1437 3 1397 3 1397 3 1437 3 1440 3 1397 3 1440 3 1395 3 1395 3 1440 3 1432 3 1441 344 1442 344 1323 344 1323 344 1442 344 1400 344 1323 181 1400 181 1349 181 1349 181 1400 181 1384 181 1349 182 1384 182 1343 182 1343 182 1384 182 1383 182 1343 183 1383 183 1344 183 1344 183 1383 183 1386 183 1344 184 1386 184 1443 184 1443 184 1386 184 1444 184 1443 185 1444 185 1406 185 1443 185 1406 185 1353 185 1353 186 1406 186 1416 186 1353 186 1416 186 1355 186 1355 187 1416 187 1445 187 1355 187 1445 187 1446 187 1356 5 1446 5 1415 5 1415 5 1446 5 1445 5 1356 188 1415 188 1447 188 1356 188 1447 188 1332 188 1332 189 1447 189 1448 189 1332 189 1448 189 1449 189 1449 190 1448 190 1392 190 1449 190 1392 190 1450 190 1450 191 1392 191 1390 191 1450 191 1390 191 1336 191 1336 192 1390 192 1389 192 1336 192 1389 192 1337 192 1337 193 1389 193 1381 193 1337 193 1381 193 1339 193 1339 194 1381 194 1380 194 1339 194 1380 194 1340 194 1417 195 1375 195 1418 195 1418 196 1375 196 1374 196 1418 196 1374 196 1419 196 1419 197 1374 197 1327 197 1419 197 1327 197 1403 197 1403 198 1327 198 1340 198 1403 198 1340 198 1380 198 1451 199 1452 199 1420 199 1420 199 1452 199 1319 199 1420 200 1319 200 1417 200 1417 200 1319 200 1376 200 1417 195 1376 195 1375 195 1453 4 1454 4 1455 4 1455 4 1454 4 1456 4 1436 0 1360 0 1423 0 1423 0 1360 0 1371 0 1360 201 1436 201 1457 201 1360 201 1457 201 1458 201 1458 202 1457 202 1459 202 1458 202 1459 202 1460 202 1460 203 1459 203 1439 203 1460 203 1439 203 1362 203 1461 5 1362 5 1462 5 1462 5 1362 5 1439 5 1461 204 1462 204 1330 204 1330 204 1462 204 1397 204 1330 205 1397 205 1328 205 1397 205 1398 205 1328 205 1328 206 1398 206 1442 206 1328 206 1442 206 1441 206 1463 1 1464 1 1465 1 1466 1 1029 1 1467 1 1467 1 1029 1 1468 1 1467 1 1468 1 1469 1 1466 1 1467 1 1470 1 1466 1 1470 1 1023 1 1023 1 1470 1 1471 1 1023 1 1471 1 1020 1 1472 1 1473 1 1035 1 1035 1 1473 1 1474 1 1468 1 1029 1 1475 1 1468 1 1475 1 1476 1 1476 1 1475 1 1477 1 1477 1 1475 1 1035 1 1477 1 1035 1 1478 1 1478 1 1035 1 1474 1 1479 1 1463 1 1465 1 1035 1 1480 1 1472 1 1472 1 1480 1 1471 1 1471 1 1480 1 1020 1 1471 1 1481 1 1472 1 1472 1 1481 1 1482 1 1482 1 1481 1 1483 1 1482 1 1483 1 1484 1 1484 1 1483 1 1485 1 1469 1 1468 1 1486 1 1486 1 1468 1 1487 1 1487 1 1468 1 1488 1 1489 1 1490 1 1465 1 1465 1 1490 1 1491 1 1491 1 1016 1 1465 1 1465 1 1016 1 1484 1 1465 1 1484 1 1479 1 1479 1 1484 1 1485 1 1492 1 1489 1 1465 1 1484 1 1016 1 1493 1 1484 1 1493 1 1494 1 1494 1 1493 1 1495 1 1494 1 1495 1 1496 1 1496 1 1495 1 1497 1 1496 1 1497 1 1498 1 1498 1 1497 1 1489 1 1489 1 1497 1 1490 1 1499 1 968 1 1500 1 1499 1 1500 1 1501 1 1501 1 1500 1 1494 1 1501 1 1494 1 1496 1 1499 1 1502 1 968 1 968 1 1502 1 1503 1 1503 1 1502 1 1492 1 1503 1 1492 1 1504 1 1465 1 1001 1 1003 1 1504 1 1492 1 1465 1 1504 1 1465 1 1003 1 999 1 953 1 954 1 999 1 1001 1 953 1 953 1 1001 1 1465 1 953 1 1465 1 952 1 952 1 1465 1 1464 1 952 1 1464 1 951 1 951 1 1464 1 1469 1 951 1 1469 1 1486 1 996 1 963 1 1505 1 1505 1 963 1 1506 1 1505 1 1506 1 988 1 988 1 1506 1 966 1 988 1 966 1 1507 1 1507 1 966 1 1504 1 1507 1 1504 1 1003 1 954 1 957 1 999 1 999 1 957 1 998 1 998 1 957 1 958 1 998 1 958 1 996 1 996 1 958 1 961 1 996 1 961 1 963 1 1508 3 1509 3 1510 3 859 3 833 3 1511 3 1512 3 1513 3 1514 3 1515 3 1516 3 1513 3 1515 3 1513 3 1512 3 1517 3 1518 3 1513 3 1513 3 1518 3 1511 3 833 3 1514 3 1511 3 1511 3 1514 3 1513 3 1519 3 1520 3 1521 3 1519 3 1521 3 1522 3 830 3 1523 3 834 3 1524 3 1525 3 1526 3 1517 3 1513 3 1521 3 1521 3 1513 3 1527 3 1521 3 1527 3 1528 3 1521 3 1528 3 1522 3 1518 3 835 3 1511 3 1511 3 835 3 1529 3 1529 3 835 3 834 3 1529 3 834 3 1523 3 1530 3 1523 3 1519 3 1519 3 1523 3 830 3 1519 3 830 3 1520 3 1526 3 1525 3 1531 3 1526 3 1531 3 1532 3 1532 3 1531 3 1533 3 1532 3 1533 3 1534 3 1534 3 1533 3 1535 3 1534 3 1535 3 1519 3 1519 3 1535 3 1530 3 1510 3 1509 3 1526 3 1526 3 1509 3 851 3 1526 3 851 3 852 3 1536 3 843 3 1537 3 1511 3 1524 3 859 3 859 3 1524 3 1526 3 859 3 1526 3 853 3 853 3 1526 3 852 3 853 3 852 3 854 3 854 3 852 3 863 3 1537 3 843 3 1538 3 1538 3 843 3 1539 3 1538 3 1539 3 1510 3 1510 3 1539 3 1508 3 1536 3 1537 3 866 3 1536 3 866 3 852 3 852 3 866 3 865 3 852 3 865 3 863 3 832 3 1532 3 1540 3 832 3 1540 3 1541 3 1510 3 1542 3 849 3 832 3 862 3 1532 3 1532 3 862 3 1526 3 1526 3 862 3 1543 3 1526 3 1543 3 858 3 1526 3 858 3 1544 3 850 3 1545 3 1546 3 850 3 1546 3 1547 3 1547 3 1546 3 1548 3 1548 3 1546 3 1540 3 1548 3 1540 3 1532 3 1545 3 850 3 1542 3 1542 3 850 3 849 3 1544 3 858 3 1549 3 1544 3 1549 3 1550 3 1550 3 1549 3 1551 3 1551 3 1549 3 1541 3 1551 3 1541 3 1540 3 1526 3 1544 3 1542 3 1526 3 1542 3 1510 3 1552 344 981 344 951 344 951 344 981 344 910 344 952 181 951 181 894 181 953 182 952 182 893 182 954 183 953 183 896 183 957 186 916 186 958 186 958 187 926 187 960 187 961 188 925 188 963 188 963 189 964 189 1553 189 1553 190 964 190 965 190 965 191 902 191 966 191 966 345 846 345 1504 345 1504 345 846 345 1510 345 967 193 891 193 1503 193 1503 194 891 194 968 194 968 346 850 346 1547 346 968 346 1547 346 1500 346 1500 347 1547 347 1548 347 1500 347 1548 347 1494 347 1494 348 1548 348 1554 348 1494 348 1554 348 1484 348 1484 349 1554 349 1555 349 1555 349 1554 349 1556 349 1555 350 1556 350 1482 350 1556 350 1534 350 1482 350 1482 351 1534 351 1519 351 1482 351 1519 351 1472 351 1487 352 1512 352 1514 352 1487 352 1514 352 1486 352 1486 353 1514 353 982 353 1486 353 982 353 1552 353 1557 0 1558 0 1559 0 1559 0 1558 0 1560 0 1499 354 1501 354 1546 354 1546 354 1501 354 1540 354 1561 2 1498 2 1551 2 1551 2 1498 2 1550 2 1562 4 1563 4 1564 4 1564 4 1563 4 1565 4 1463 355 1525 355 1566 355 1566 355 1525 355 1567 355 1566 356 1567 356 1568 356 1568 356 1567 356 1569 356 1568 357 1569 357 1464 357 1464 357 1569 357 1524 357 1463 0 1479 0 1525 0 1525 0 1479 0 1531 0 1485 358 1533 358 1570 358 1570 358 1533 358 1571 358 1570 359 1571 359 1572 359 1572 359 1571 359 1573 359 1572 360 1573 360 1479 360 1479 360 1573 360 1531 360 1485 361 1483 361 1533 361 1533 361 1483 361 1535 361 1574 362 1575 362 1576 362 1576 362 1575 362 1577 362 1576 363 1577 363 1481 363 1481 363 1577 363 1578 363 1481 364 1578 364 1579 364 1579 364 1578 364 1580 364 1579 365 1580 365 1483 365 1483 365 1580 365 1535 365 1574 2 1470 2 1575 2 1575 2 1470 2 1529 2 1469 366 1581 366 1582 366 1582 366 1581 366 1583 366 1582 367 1583 367 1584 367 1584 367 1583 367 1585 367 1584 368 1585 368 1470 368 1470 368 1585 368 1529 368 1469 4 1464 4 1581 4 1581 4 1464 4 1524 4 987 208 984 208 986 208 988 210 990 210 989 210 995 212 992 212 994 212 998 369 1586 369 999 369 999 369 1586 369 897 369 1003 370 1587 370 983 370 983 370 1587 370 1588 370 1019 371 1589 371 1590 371 1590 371 1589 371 915 371 1590 372 915 372 1004 372 1004 372 915 372 914 372 1005 209 1004 209 912 209 1006 217 1005 217 924 217 1008 373 1591 373 1009 373 1009 373 1591 373 1010 373 1592 219 1009 219 1011 219 1592 220 1011 220 1012 220 1015 215 917 215 1016 215 1036 374 1593 374 1594 374 1594 374 1593 374 922 374 1594 375 922 375 1020 375 1020 375 922 375 921 375 1021 209 1020 209 919 209 1035 222 1032 222 1034 222 1513 0 1468 0 1527 0 1527 0 1468 0 1476 0 1468 376 1513 376 1595 376 1468 376 1595 376 1596 376 1596 377 1595 377 1597 377 1596 377 1597 377 1598 377 1598 378 1597 378 1599 378 1598 378 1599 378 1600 378 1600 379 1599 379 1515 379 1600 379 1515 379 1601 379 1601 380 1515 380 1512 380 1601 380 1512 380 1487 380 1472 381 1519 381 1602 381 1472 381 1602 381 1473 381 1473 382 1602 382 1603 382 1473 382 1603 382 1474 382 1474 383 1603 383 1522 383 1474 383 1522 383 1478 383 1478 384 1522 384 1528 384 1478 384 1528 384 1477 384 1477 385 1528 385 1527 385 1477 385 1527 385 1476 385</p>
        </triangles>
      </mesh>
    </geometry>
  </library_geometries>
  <library_visual_scenes>
    <visual_scene id="DefaultScene">
      <node id="node_a5dd1b14_8838_43c3_951c_a2337d975240" type="NODE">
        <matrix>1 0 0 0 0 1 0 0 0 0 1 0 0 0 0 1</matrix>
        <node id="node_cd01155a_a5b0_4c19_8c7e_3735b2584621" type="NODE">
          <matrix>1 0 0 0 0 1 0 0 0 0 1 0 0 0 0 1</matrix>
          <node id="node_cd01155a_a5b0_4c19_8c7e_3735b2584621_mesh0" type="NODE">
            <matrix>1 0 0 0 0 1 0 0 0 0 1 0 0 0 0 1</matrix>
            <instance_geometry url="#geometry_4068075f_4c40_4c4c_be06_d1a6bbaedeca">
              <bind_material>
                <technique_common>
                  <instance_material symbol="mat_0" target="#mat_0"/>
                </technique_common>
              </bind_material>
            </instance_geometry>
          </node>
        </node>
      </node>
    </visual_scene>
  </library_visual_scenes>
  <scene>
    <instance_visual_scene url="#DefaultScene"/>
  </scene>
</COLLADA>
