<?xml version="1.0" encoding="UTF-8"?>
<COLLADA xmlns="http://www.collada.org/2005/11/COLLADASchema" version="1.4.1">
<!--
# File generated by ImageToStl.com - Free Image and 3D model conversion tools
-->
  <asset>
    <contributor>
      <author>ImageToStl.com</author>
      <authoring_tool>ImageToStl.com</authoring_tool>
    </contributor>
    <created>2026-04-04T07:43:04</created>
    <modified>2026-04-04T07:43:04</modified>
    <up_axis>Z_UP</up_axis>
  </asset>
  <library_effects>
    <effect id="effect_0">
        <profile_COMMON>
          <technique sid="common">
            <phong>
              <diffuse>
                <color>0.85 0.85 0.85 1</color>
              </diffuse>
              <specular>
                <color>0.05 0.05 0.05 1</color>
              </specular>
              <shininess>
                <float>64</float>
              </shininess>
            </phong>
          </technique>
        </profile_COMMON>
    </effect>
  </library_effects>
  <library_materials>
    <material id="mat_0">
      <instance_effect url="#effect_0"/>
    </material>
  </library_materials>
  <library_geometries>
    <geometry id="geometry_aa2afe75_ef77_4fc0_8519_86fdf5fce438">
      <mesh>
        <source id="pos_0">
          <float_array id="pos_0-array" count="4785">-0.02265 -0.043 -0.003 -0.02145 -0.04449282 -0.003 -0.02145 -0.05150718 -0.003 -0.02025 -0.05161436 -0.003 -0.02105 -0.0414 -0.003 -0.026 0.01111504 -0.003 -0.02025 -0.04161436 -0.003 -0.01966436 -0.0422 -0.003 -0.01947467 0.01087936 -0.003 -0.02017099 0.01008804 -0.003 -0.01955718 -0.07340001 -0.003 -0.0161 -0.078 -0.003 -0.02065 -0.07449283 -0.003 -0.02015501 0.00401289 -0.003 -0.018 0.00241928 -0.003 -0.02014068 0.000911 -0.003 -0.02025 -0.06438564 -0.003 -0.01955718 -0.0626 -0.003 -0.02025 -0.07161436 -0.003 -0.01966436 -0.0538 -0.003 -0.0161 -0.03869154 -0.003 -0.02025 -0.04438564 -0.003 -0.018 0.00870246 -0.003 -0.02015501 0.00715448 -0.003 -0.02254282 -0.0726 -0.003 -0.026 -0.078 -0.003 -0.02214282 -0.07409282 -0.003 -0.018 -0.00742693 -0.003 -0.02025 -0.01014709 -0.003 -0.018 -0.00658407 -0.003 -0.02265 -0.053 -0.003 -0.02185 -0.05438564 -0.003 -0.02243564 -0.0622 -0.003 -0.02065 -0.06150718 -0.003 -0.02065 -0.05449282 -0.003 -0.02185 -0.04161436 -0.003 -0.02243564 -0.0422 -0.003 -0.02265 -0.063 -0.003 -0.018 -0.02941808 -0.003 -0.02022547 -0.03346984 -0.003 -0.018 -0.02857522 -0.003 -0.0201513 -0.01773975 -0.003 -0.018 -0.01915044 -0.003 -0.018 -0.0199933 -0.003 -0.02005261 -0.03725291 -0.003 -0.02185 -0.06438564 -0.003 -0.018 -0.00030089 -0.003 -0.018 -0.00114374 -0.003 -0.02243564 -0.0522 -0.003 -0.018 -0.00344248 -0.003 -0.018 -0.00428534 -0.003 -0.02010424 -0.00266355 -0.003 -0.02105 -0.0646 -0.003 -0.02145 -0.07150719 -0.003 -0.018 -0.02543363 -0.003 -0.018 -0.02627649 -0.003 -0.0201513 -0.02402293 -0.003 -0.018 -0.03485841 -0.003 -0.018 -0.03570126 -0.003 -0.018 -0.02229204 -0.003 -0.018 -0.02313489 -0.003 -0.018 -0.03171682 -0.003 -0.018 -0.03255967 -0.003 -0.018 -0.00972567 -0.003 -0.018 -0.01056852 -0.003 -0.02010424 -0.01208832 -0.003 -0.018 -0.01328869 -0.003 -0.02010424 -0.01448905 -0.003 -0.018 0.00556087 -0.003 -0.018 -0.01685171 -0.003 -0.018 -0.01600885 -0.003 -0.018 -0.03570126 -0 -0.02005261 -0.03644835 -0 -0.02005261 -0.03644835 -0.003 -0.018 0.00199785 -0 -0.02005261 0.00125076 -0 -0.018 0.00199785 -0.003 -0.02005261 0.00125076 -0.003 -0.02005261 0.0004462 -0 -0.018 -0.00030089 -0 -0.02005261 0.0004462 -0.003 -0.018 -0.00114374 -0 -0.02005261 -0.00189083 -0 -0.02005261 -0.00189083 -0.003 -0.02005261 -0.00269539 -0 -0.018 -0.00344248 -0 -0.02005261 -0.00269539 -0.003 -0.018 -0.00428534 -0 -0.02005261 -0.00503242 -0 -0.02005261 -0.00503242 -0.003 -0.02005261 -0.00583699 -0 -0.018 -0.00658407 -0 -0.02005261 -0.00583699 -0.003 -0.018 -0.00742693 -0 -0.02005261 -0.00817402 -0 -0.02005261 -0.00817402 -0.003 -0.02005261 -0.00897858 -0 -0.018 -0.00972567 -0 -0.02005261 -0.00897858 -0.003 -0.018 -0.01056852 -0 -0.02005261 -0.01131561 -0 -0.02005261 -0.01131561 -0.003 -0.02005261 -0.01212017 -0 -0.018 -0.01286726 -0 -0.02005261 -0.01212017 -0.003 -0.018 -0.01286726 -0.003 -0.018 -0.01371012 -0 -0.02005261 -0.0144572 -0 -0.018 -0.01371012 -0.003 -0.02005261 -0.0144572 -0.003 -0.02005261 -0.01526176 -0 -0.018 -0.01600885 -0 -0.02005261 -0.01526176 -0.003 -0.018 -0.01685171 -0 -0.02005261 -0.01759879 -0 -0.02005261 -0.01759879 -0.003 -0.02005261 -0.01840336 -0 -0.018 -0.01915044 -0 -0.02005261 -0.01840336 -0.003 -0.018 -0.0199933 -0 -0.02005261 -0.02074039 -0 -0.02005261 -0.02074039 -0.003 -0.02005261 -0.02154495 -0 -0.018 -0.02229204 -0 -0.02005261 -0.02154495 -0.003 -0.018 -0.02313489 -0 -0.02005261 -0.02388198 -0 -0.02005261 -0.02388198 -0.003 -0.02005261 -0.02468654 -0 -0.018 -0.02543363 -0 -0.02005261 -0.02468654 -0.003 -0.018 -0.02627649 -0 -0.02005261 -0.02702357 -0 -0.02005261 -0.02702357 -0.003 -0.02005261 -0.02782813 -0 -0.018 -0.02857522 -0 -0.02005261 -0.02782813 -0.003 -0.018 -0.02941808 -0 -0.02005261 -0.03016517 -0 -0.02005261 -0.03016517 -0.003 -0.02005261 -0.03096973 -0 -0.018 -0.03171682 -0 -0.02005261 -0.03096973 -0.003 -0.018 -0.03255967 -0 -0.02005261 -0.03330676 -0 -0.02005261 -0.03330676 -0.003 -0.02005261 -0.03411132 -0 -0.018 -0.03485841 -0 -0.02005261 -0.03411132 -0.003 -0.018 0.00513944 -0 -0.02005261 0.00439236 -0 -0.018 0.00513944 -0.003 -0.02005261 0.00439236 -0.003 -0.02005261 0.00672939 -0 -0.018 0.0059823 -0 -0.02005261 0.00672939 -0.003 -0.018 0.0059823 -0.003 -0.018 0.00828103 -0 -0.02005261 0.00753394 -0 -0.018 0.00828103 -0.003 -0.02005261 0.00753394 -0.003 -0.02005261 0.00987098 -0 -0.018 0.00912389 -0 -0.02005261 0.00987098 -0.003 -0.018 0.00912389 -0.003 -0.02005261 0.01067554 -0 -0.02005261 0.01067554 -0.003 -0.01884509 0.01111504 -0 -0.01884509 0.01111504 -0.003 -0.0161 -0.078 -0 -0.026 -0.078 -0 -0.02185 -0.05438564 -0 -0.02265 -0.053 -0 -0.02214282 -0.06190718 -0 -0.02254282 -0.0434 -0 -0.026 0.01111504 -0 -0.02022547 0.01027326 -0 -0.01955718 -0.07340001 -0 -0.02025 -0.07438564 -0 -0.02145 -0.07449283 -0 -0.02254282 -0.07340001 -0 -0.02065 -0.05150718 -0 -0.02025 -0.04438564 -0 -0.02145 -0.04449282 -0 -0.02185 -0.05161436 -0 -0.02010424 -0.00266355 -0 -0.02025 -0.0070055 -0 -0.02010424 -0.00506427 -0 -0.01966436 -0.0422 -0 -0.0161 -0.03869154 -0 -0.01966436 -0.0522 -0 -0.02243564 -0.0422 -0 -0.02185 -0.04161436 -0 -0.01966436 -0.0638 -0 -0.02065 -0.06449282 -0 -0.02025 -0.07161436 -0 -0.02185 -0.06438564 -0 -0.02243564 -0.0638 -0 -0.01995718 -0.05409282 -0 -0.02025 -0.06161436 -0 -0.02010873 0.00073995 -0 -0.018 0.0028407 -0 -0.02185 -0.07161436 -0 -0.02105 -0.0714 -0 -0.01947467 0.01087936 -0 -0.018 -0.00386391 -0 -0.02005261 -0.03725291 -0 -0.02013903 -0.02146341 -0 -0.018 -0.01957187 -0 -0.02010424 -0.01800108 -0 -0.02016485 -0.03050183 -0 -0.02016485 -0.02736024 -0 -0.02013903 -0.024605 -0 -0.02016485 -0.03666542 -0 -0.018 -0.03527983 -0 -0.02010424 -0.03407947 -0 -0.018 -0.02585506 -0 -0.02010424 -0.01448905 -0 -0.02005261 0.00358779 -0 -0.02005261 0.00358779 -0.003 -0.018 0.0028407 -0.003 -0.0096 -0.078 -0.0004 -0.0097 -0.078 -0.0078 -0.0045 -0.078 -0.0065 -0.0045 -0.078 -0.008 -0.0044 -0.078 -0.0036 -0.0045 -0.078 -0.0045 0.0006 -0.078 -0.0003 0.0006 -0.078 -0.0018 0.0096 -0.078 -0.0004 0.0044 -0.078 -0.0036 0.0097 -0.078 -0.0078 0.0045 -0.078 -0.0045 0.0045 -0.078 -0.008 -0.00055981 -0.078 -0.00195 -0.0006 -0.078 -0.0003 0.0045 -0.073 -0.008 0.0095 -0.073 -0.008 0.0095 -0.078 -0.008 0.0097 -0.073 -0.0078 0.0097 -0.078 -0.0005 0.0095 -0.078 -0.0003 0.0095 -0.073 -0.0003 -0.0095 -0.078 -0.0003 -0.0097 -0.078 -0.0005 -0.0097 -0.073 -0.0078 -0.0095 -0.073 -0.008 -0.0045 -0.073 -0.008 -0.0095 -0.078 -0.008 0.0044 -0.077 -0.0036 0.0097 -0.077 -0.0078 0.0045 -0.077 -0.0065 0.0045 -0.077 -0.008 0.0096 -0.077 -0.0004 -0.0045 -0.077 -0.008 -0.0095 -0.077 -0.008 -0.0045 -0.077 -0.0065 -0.0095 -0.077 -0.0003 -0.0045 -0.077 -0.0045 -0.0044 -0.077 -0.0036 -0.0001299 -0.077 -0.00228481 0.00048481 -0.077 -0.0016701 -0.0003549 -0.077 -0.0014451 0.0097 -0.0491 -0.0078 0.0045 -0.0491 -0.008 0.0045 -0.0491 -0.0065 -0.0045 -0.0491 -0.0045 -0.0045 -0.0491 -0.008 -0.0095 -0.0491 -0.0003 0.0045 -0.0491 -0.0045 -0.0095 -0.0491 -0.008 -0.00359225 -0.0491 -0.00522755 0.0044 -0.0491 -0.0036 0.0096 -0.0491 -0.0004 -0.0006 -0.0491 -0.0003 -0.0006 -0.0491 -0.0018 -0.0044 -0.0491 -0.0036 0.0006 -0.0491 -0.0018 0.0006 -0.0491 -0.0003 -0.0095 -0.0541 -0.008 -0.0045 -0.0491 -0.0065 0.0043 -0.078 -0.0035 -0.0043 -0.0491 -0.0035 0.0043 -0.0491 -0.0035 0.0045 -0.078 -0.0065 0.0095 -0.0491 -0.008 0.0045 -0.0541 -0.008 -0.0095 -0.0541 -0.0003 0.0095 -0.0541 -0.0003 0.0095 -0.0491 -0.0003 -0.0097 -0.0501 -0.0078 -0.0045 -0.0501 -0.008 -0.0045 -0.0501 -0.0065 -0.0045 -0.0501 -0.0045 -0.00357612 -0.0501 -0.00511732 -0.0096 -0.0501 -0.0004 -0.0044 -0.0501 -0.0036 0.0096 -0.0501 -0.0004 0.0044 -0.0501 -0.0036 0.0097 -0.0501 -0.0078 0.0045 -0.0501 -0.0045 0.0045 -0.0501 -0.008 0.0001299 -0.0501 -0.00228481 -0.00048481 -0.0501 -0.0016701 0.0003549 -0.0501 -0.0014451 -0.0097 -0.077 -0.0078 0.00370861 -0.077 -0.00500762 -0.0096 -0.077 -0.0004 0.00055981 -0.077 -0.00165 -0.00015 -0.077 -0.00124019 0.00033481 -0.077 -0.0022299 -0.00053971 -0.077 -0.001875 -0.0097 -0.073 -0.0005 -0.0095 -0.073 -0.0003 0.0097 -0.073 -0.0005 0.0045 -0.073 -0.0065 0.00362162 -0.073 -0.00507699 0.0044 -0.073 -0.0036 0.0096 -0.073 -0.0004 -0.0096 -0.073 -0.0004 -0.0044 -0.073 -0.0036 -0.0045 -0.073 -0.0045 0.00048481 -0.073 -0.0016701 -0.0001299 -0.073 -0.00228481 -0.0003549 -0.073 -0.0014451 0.01 -0.0541 -0.0002 0.01 -0.073 -0.0002 0.01 -0.0541 -0.0078 0.01 -0.073 -0.0078 0.005 -0.0541 0 0.00656284 -0.05780264 0 0.0075 -0.05735132 0 0.0098 -0.073 0 0.00843716 -0.06929736 0 0.00737675 -0.06968933 0 0.0098 -0.0541 0 0.00843716 -0.05780264 0 0.00860774 -0.05908346 0 0.00802008 -0.05962997 0 0.00697991 -0.05962997 0 0.00639226 -0.05908346 0 0.005 -0.073 0 0.00633138 -0.06881673 0 0.00788329 -0.06747003 0 0.00673342 -0.06758874 0 -0.0098 -0.0541 0 -0.00843716 -0.05780264 0 -0.0075 -0.05735132 0 -0.005 -0.0541 0 -0.00656284 -0.05780264 0 -0.0098 -0.073 0 -0.00860774 -0.05908346 0 -0.00673342 -0.05951126 0 -0.00697991 -0.06747003 0 -0.00834435 -0.06922335 0 -0.00826658 -0.06758874 0 -0.00639226 -0.06801654 0 -0.005 -0.073 0 -0.00689462 -0.06952302 0 -0.0075 -0.05974868 0 -0.01 -0.0541 -0.0047 -0.01 -0.073 -0.0047 -0.01 -0.0541 -0.0002 -0.01 -0.073 -0.0002 -0.01 -0.0541 -0.0078 -0.01 -0.073 -0.0078 -0.01 -0.0541 -0.0053 -0.01 -0.073 -0.0053 -0.0098 -0.0541 -0.008 -0.0045 -0.0541 -0.008 -0.0098 -0.073 -0.008 -0.0045 -0.0541 -0.0045 -0.004 -0.073 -0.00463397 -0.004 -0.0541 -0.00463397 -0.00363397 -0.073 -0.005 -0.00363397 -0.0541 -0.005 -0.0035 -0.073 -0.0055 -0.0035 -0.0541 -0.0055 -0.00363397 -0.073 -0.006 -0.00363397 -0.0541 -0.006 -0.004 -0.073 -0.00636603 -0.004 -0.0541 -0.00636603 -0.0045 -0.073 -0.0065 -0.0045 -0.0541 -0.0065 0.0045 -0.0541 -0.0065 0.004 -0.073 -0.00636603 0.004 -0.0541 -0.00636603 0.00363397 -0.073 -0.006 0.00363397 -0.0541 -0.006 0.0035 -0.073 -0.0055 0.0035 -0.0541 -0.0055 0.00363397 -0.073 -0.005 0.00363397 -0.0541 -0.005 0.004 -0.073 -0.00463397 0.004 -0.0541 -0.00463397 0.0045 -0.073 -0.0045 0.0045 -0.0541 -0.0045 0.0098 -0.0541 -0.008 0.0098 -0.073 -0.008 -0.00980882 -0.073 -0.00491127 -0.005 -0.073 -7.5E-05 -0.0043 -0.073 -0.0035 0.005 -0.073 -0.00015 0.0043 -0.073 -0.0035 -0.005 -0.0541 -0.00015 -0.00987377 -0.0541 -0.00490123 0.0099 -0.0541 -0.0001 0.005 -0.0541 -0.00015 0.00369199 -0.0541 -0.00571651 0.0043 -0.0541 -0.0035 -0.0043 -0.0541 -0.0035 -0.005 -0.073 -0.00015 0.0045 -0.0501 -0.0065 0.00053971 -0.0501 -0.001875 0.00015 -0.0501 -0.00124019 -0.00055981 -0.0501 -0.00165 -0.00033481 -0.0501 -0.0022299 -0.0097 -0.0491 -0.0005 -0.0097 -0.0491 -0.0078 -0.0097 -0.0541 -0.0005 -0.0097 -0.0541 -0.0078 -0.0043 -0.078 -0.0035 0.0095 -0.0541 -0.008 0.0097 -0.0491 -0.0005 0.0097 -0.0541 -0.0078 0.0097 -0.0541 -0.0005 0.0001299 -0.0541 -0.00228481 -0.0044 -0.0541 -0.0036 0.0044 -0.0541 -0.0036 -0.0096 -0.0541 -0.0004 0.0003549 -0.0541 -0.0014451 -0.00048481 -0.0541 -0.0016701 0.0096 -0.0541 -0.0004 0.00862697 -0.05742303 -0 0.0102 -0.0491 -0 0.00892894 -0.059375 -0 0.0102 -0.078 -0 -0.00862697 -0.06967697 -0 -0.0102 -0.078 -0 -0.00903947 -0.0681375 -0 -0.0102 -0.0491 -0 -0.0070875 -0.05701053 -0 -0.00862697 -0.05742303 -0 0.0075 -0.0569 -0 0.00637303 -0.05742303 -0 -0.0075 -0.0702 -0 -0.00637303 -0.06967697 -0 0.00596053 -0.0589625 -0 -0.00607106 -0.059375 -0 -0.00585 -0.05855 -0 0.0070875 -0.07008947 -0 0.008325 -0.06997894 -0 0.00892894 -0.069375 -0 0.008325 -0.06712106 -0 0.006675 -0.06712106 -0 -0.0070875 -0.06008947 -0 0.00607106 -0.067725 -0 0.008325 -0.05997894 -0 0.0070875 -0.06008947 -0 -0.0070875 -0.06701053 -0 -0.008325 -0.05997894 -0 -0.008325 -0.06712106 -0 -0.00903947 -0.0589625 -0 0.00585 -0.06855 -0 -0.00596053 -0.0681375 -0 -0.016 -0.078 -0.003 -0.0102 -0.078 -0.003 -0.016 -0.078 -0 0.0102 -0.078 -0.003 0.016 -0.078 -0.003 0.016 -0.078 0.0005 0.019 -0.078 0.004 0.019 -0.078 0.0005 -0.026 -0.078 0.004 -0.026 -0.078 -0 0.019 -0.0491 0.004 0.019 -0.0491 0.0005 0.016 -0.0491 0.0005 0.016 -0.0491 -0.003 0.0102 -0.0491 -0.003 -0.0102 -0.0491 -0.003 -0.016 -0.0491 -0.003 -0.016 -0.0491 -0 -0.026 -0.0491 -0 -0.026 -0.0491 0.004 -0.01453947 -0.0556375 0.004 -0.013 -0.0544 0.004 -0.016275 -0.0568375 0.004 0.01453947 -0.0664625 0.004 0.019 -0.061375 0.004 0.01412697 -0.06492303 0.004 0.0134125 -0.06758947 0.004 0.00997768 -0.07045119 0.004 0.01187303 -0.06717697 0.004 0.01146053 -0.0656375 0.004 0.013 -0.0644 0.004 0.01453947 -0.0556375 0.004 0.01442894 -0.056875 0.004 0.0134125 -0.05758947 0.004 0.013 -0.0544 0.004 -0.01356349 -0.05743849 0.004 -0.01146053 -0.0556375 0.004 -0.011 -0.0491 0.004 -0.00997768 -0.06045119 0.004 -0.01187303 -0.05717697 0.004 -0.01187303 -0.06717697 0.004 -0.00997768 -0.07045119 0.004 -0.01146053 -0.0656375 0.004 -0.01356349 -0.06743848 0.004 0 -0.0491 0.004 0.00461468 -0.05735486 0.004 0.00614176 -0.05578982 0.004 0.00869514 -0.05566467 0.004 0.01022798 -0.056975 0.004 0.011 -0.0549 0.004 0.00997768 -0.06045119 0.004 0.01146053 -0.0556375 0.004 0.01187303 -0.05717697 0.004 0.00869514 -0.06143532 0.004 0.00650868 -0.06146216 0.004 0.00502232 -0.06045119 0.004 0 -0.06290625 0.004 0.00440367 -0.05895764 0.004 0.00440367 -0.06895764 0.004 0.00461468 -0.06735486 0.004 0.00614176 -0.06578983 0.004 0.011 -0.0649 0.004 0.01022798 -0.066975 0.004 0.00869514 -0.06566468 0.004 0.00869514 -0.07143532 0.004 0.00650868 -0.07146215 0.004 0 -0.07134999 0.004 0.00502232 -0.07045119 0.004 -0.00461468 -0.05735486 0.004 -0.01022798 -0.056975 0.004 -0.00869514 -0.05566467 0.004 -0.00614176 -0.05578982 0.004 -0.00440367 -0.05895764 0.004 -0.00518541 -0.06057634 0.004 -0.00709236 -0.06164633 0.004 -0.0125875 -0.06451053 0.004 -0.00869514 -0.06143532 0.004 -0.01022798 -0.066975 0.004 -0.00869514 -0.06566468 0.004 -0.00668472 -0.06550733 0.004 -0.00559881 -0.06607231 0.004 -0.00461468 -0.06735486 0.004 -0.01849364 -0.07471126 0.004 -0.00849132 -0.07146215 0.004 -0.00440367 -0.06895764 0.004 -0.00502232 -0.07045119 0.004 -0.005925 -0.07127798 0.004 -0.02396216 -0.05200868 0.004 -0.026 -0.05994375 0.004 -0.02393532 -0.05419514 0.004 -0.02220442 -0.05021299 0.004 -0.016275 -0.0491 0.004 -0.01933874 -0.05044365 0.004 -0.01816468 -0.05180486 0.004 -0.01795367 -0.05340764 0.004 -0.01857232 -0.05490119 0.004 -0.02204132 -0.05591216 0.004 -0.01985486 -0.05588532 0.004 -0.02404083 -0.06339375 0.004 -0.02352768 -0.06109881 0.004 -0.02204132 -0.06008784 0.004 -0.01921359 -0.06060674 0.004 -0.01438849 -0.06548651 0.004 -0.026 -0.0668375 0.004 -0.01849364 -0.06471127 0.004 -0.01985486 -0.06588532 0.004 -0.02204132 -0.06591216 0.004 -0.01795367 -0.06259236 0.004 -0.02393532 -0.07180486 0.004 -0.02295119 -0.07052232 0.004 -0.01985486 -0.07011467 0.004 -0.02145764 -0.06990366 0.004 -0.01857232 -0.0710988 0.004 -0.02327739 -0.07522739 0.004 -0.01985486 -0.07588533 0.004 -0.02145764 -0.07609633 0.004 -0.01795367 -0.07259236 0.004 -0.01146053 -0.0664625 -0.003 -0.01187303 -0.06492303 -0.003 -0.01187303 -0.05492303 -0.003 -0.01135 -0.05605 -0.003 -0.012175 -0.05747894 -0.003 -0.013825 -0.06747894 -0.003 -0.0125875 -0.06758947 -0.003 -0.01412697 -0.05492303 -0.003 -0.013 -0.0544 -0.003 -0.01442894 -0.056875 -0.003 -0.0134125 -0.05758947 -0.003 -0.013 -0.0644 -0.003 -0.013825 -0.06462106 -0.003 -0.01442894 -0.066875 -0.003 0.01135 -0.06605 -0.003 0.01187303 -0.06717697 -0.003 0.01187303 -0.05492303 -0.003 0.01146053 -0.0564625 -0.003 0.0125875 -0.05758947 -0.003 0.012175 -0.06462106 -0.003 0.01412697 -0.05492303 -0.003 0.013 -0.0544 -0.003 0.013825 -0.05747894 -0.003 0.01442894 -0.056875 -0.003 0.0134125 -0.06758947 -0.003 0.01442894 -0.066875 -0.003 0.013825 -0.06462106 -0.003 0.013 -0.0644 -0.003 0.01135 -0.06605 0.004 0.01157106 -0.066875 -0.003 0.01157106 -0.066875 0.004 0.012175 -0.06747894 -0.003 0.012175 -0.06747894 0.004 0.013 -0.0677 -0.003 0.013 -0.0677 0.004 0.013825 -0.06747894 -0.003 0.013825 -0.06747894 0.004 0.01442894 -0.066875 0.004 0.01465 -0.06605 -0.003 0.01465 -0.06605 0.004 0.01442894 -0.065225 -0.003 0.01442894 -0.065225 0.004 0.013825 -0.06462106 0.004 0.012175 -0.06462106 0.004 0.01157106 -0.065225 -0.003 0.01157106 -0.065225 0.004 0.01135 -0.05605 -0.003 0.01135 -0.05605 0.004 0.01157106 -0.056875 -0.003 0.01157106 -0.056875 0.004 0.012175 -0.05747894 -0.003 0.012175 -0.05747894 0.004 0.013 -0.0577 -0.003 0.013 -0.0577 0.004 0.013825 -0.05747894 0.004 0.01465 -0.05605 -0.003 0.01465 -0.05605 0.004 0.01442894 -0.055225 -0.003 0.01442894 -0.055225 0.004 0.013825 -0.05462106 -0.003 0.013825 -0.05462106 0.004 0.012175 -0.05462106 -0.003 0.012175 -0.05462106 0.004 0.01157106 -0.055225 -0.003 0.01157106 -0.055225 0.004 -0.01465 -0.05605 -0.003 -0.01465 -0.05605 0.004 -0.01442894 -0.056875 0.004 -0.013825 -0.05747894 -0.003 -0.013825 -0.05747894 0.004 -0.013 -0.0577 -0.003 -0.013 -0.0577 0.004 -0.012175 -0.05747894 0.004 -0.01157106 -0.056875 -0.003 -0.01157106 -0.056875 0.004 -0.01135 -0.05605 0.004 -0.01157106 -0.055225 -0.003 -0.01157106 -0.055225 0.004 -0.012175 -0.05462106 -0.003 -0.012175 -0.05462106 0.004 -0.013825 -0.05462106 -0.003 -0.013825 -0.05462106 0.004 -0.01442894 -0.055225 -0.003 -0.01442894 -0.055225 0.004 -0.01465 -0.06605 -0.003 -0.01465 -0.06605 0.004 -0.01442894 -0.066875 0.004 -0.013825 -0.06747894 0.004 -0.013 -0.0677 -0.003 -0.013 -0.0677 0.004 -0.012175 -0.06747894 -0.003 -0.012175 -0.06747894 0.004 -0.01157106 -0.066875 -0.003 -0.01157106 -0.066875 0.004 -0.01135 -0.06605 -0.003 -0.01135 -0.06605 0.004 -0.01157106 -0.065225 -0.003 -0.01157106 -0.065225 0.004 -0.012175 -0.06462106 -0.003 -0.012175 -0.06462106 0.004 -0.013 -0.0644 0.004 -0.013825 -0.06462106 0.004 -0.01442894 -0.065225 -0.003 -0.01442894 -0.065225 0.004 -0.020225 -0.07442894 -0 -0.0214625 -0.07453947 -0 -0.02258947 -0.0734125 -0 -0.01951053 -0.0525875 -0 -0.020225 -0.05157106 -0 -0.0214625 -0.05146053 -0 -0.02258947 -0.0525875 -0 -0.02217697 -0.05412697 -0 -0.02247894 -0.062175 -0 -0.01951053 -0.0734125 -0 -0.020225 -0.07157106 -0 -0.0194 -0.063 -0 -0.01962106 -0.063825 -0 -0.021875 -0.07157106 -0 -0.020225 -0.06157106 -0 -0.02105 -0.05465 -0 -0.020225 -0.05442894 -0 -0.0214625 -0.06146053 -0 -0.021875 -0.06442894 -0 -0.02105 -0.07135 -0 -0.0206375 -0.06453947 -0 0.01401606 -0.05512374 0.004 0.016 -0.05305 0.004 0.01396627 -0.05710477 0.004 0.016 -0.07405 0.004 0.0125965 -0.05463183 0.004 0.01 -0.05305 0.004 0.01172107 -0.05540926 0.004 0.01189149 -0.05706054 0.004 0.01 -0.07405 0.004 0.0125965 -0.05746818 0.004 0.01396627 -0.06710476 0.004 0.01396627 -0.06499524 0.004 0.0125965 -0.06463183 0.004 0.01169574 -0.06554472 0.004 0.01174639 -0.0668262 0.004 0.0125965 -0.06746817 0.004 0.016 -0.07405 0.01 0.016 -0.07169074 0.00827893 0.016 -0.06963183 0.00740351 0.016 -0.06224703 0.00609605 0.016 -0.06251817 0.00686395 0.016 -0.07246818 0.00740351 0.016 -0.06210947 0.00796111 0.016 -0.06077907 0.00844935 0.016 -0.05305 0.01 0.016 -0.05987336 0.00788856 0.016 -0.05958183 0.00686395 0.016 -0.06005666 0.00591036 0.016 -0.06077437 0.00552554 0.016 -0.07026035 0.00572467 0.016 -0.07197626 0.00598394 0.016 -0.06973012 0.00634278 0.01 -0.05305 0.01 0.01 -0.07405 0.01 0.01189149 -0.05706054 0.01 0.01365722 -0.06473012 0.01 0.01396627 -0.06710476 0.01 0.01174639 -0.0668262 0.01 0.01224399 -0.06483564 0.01 0.01172107 -0.05540926 0.01 0.0125965 -0.05463183 0.01 0.01401606 -0.05512374 0.01 0.0125965 -0.05746818 0.01 0.01365722 -0.05736988 0.01 0.0125965 -0.06746817 0.01 0.01427533 -0.05683965 0.01 0.01 -0.07197626 0.00598394 0.01 -0.06999523 0.00603373 0.01 -0.05999523 0.00603373 0.01 -0.06210477 0.00603373 0.01 -0.05971488 0.00751348 0.01 -0.07246818 0.00740351 0.01 -0.06226436 0.00775601 0.01 -0.06963183 0.00740351 0.01 -0.07003946 0.00810851 0.01 -0.07169074 0.00827893 0.01 -0.06050814 0.00839871 0.019 -0.06222586 0.02396053 0.019 -0.06335283 0.0250875 0.019 -0.07708796 0.01626372 0.019 -0.06263836 0.02692894 0.019 -0.06181336 0.02715 0.019 -0.06025635 0.0465875 0.019 -0.05207993 0.03492025 0.019 -0.06098836 0.02692894 0.019 -0.06027389 0.0259125 0.019 -0.0632423 0.026325 0.019 -0.06367721 0.07185103 0.019 -0.04949884 0.02074635 0.019 -0.06068639 0.02437303 0.019 -0.04914864 0.01625523 0.019 -0.05167106 0.085175 0.019 -0.04946071 0.08686467 0.019 -0.05197303 0.08712697 0.019 -0.05126621 0.08900848 0.019 -0.0535125 0.08753947 0.019 -0.05388945 0.08999556 0.019 -0.0557623 0.08954526 0.019 -0.05463947 0.0864125 0.019 -0.05732595 0.08842039 0.019 -0.05834832 0.08678788 0.019 -0.053925 0.08457106 0.019 -0.0531 0.08435 0.019 -0.05289447 0.04986182 0.019 -0.05231283 0.05732835 0.019 -0.06014582 0.047825 0.019 -0.05954187 0.04842894 0.019 -0.05871687 0.04865 0.019 -0.0571774 0.0474125 0.019 -0.05281664 0.04237308 0.019 -0.05789188 0.04557106 0.019 -0.05871687 0.04535 0.019 -0.05954187 0.04557106 0.019 -0.04998012 0.0709157 0.019 -0.0493203 0.07717817 0.019 -0.0491 0.085 0.019 -0.06247894 0.007825 0.019 -0.06308168 0.004 0.019 -0.06197072 0.00581776 0.019 -0.0511 0.004 0.019 -0.04973397 0.00463397 0.019 -0.0491 0.006 0.019 -0.05962106 0.006175 0.019 -0.0614625 0.00853947 0.019 -0.05992303 0.00812697 0.019 -0.0594 0.007 0.019 -0.07258947 0.0074125 0.019 -0.0714625 0.00853947 0.019 -0.06951053 0.0065875 0.019 -0.0706375 0.00546053 0.019 -0.076 0.004 0.019 -0.07799079 0.00999957 0.019 -0.07792388 0.00561732 0.019 -0.06831405 0.05668506 0.019 -0.07224901 0.04132203 0.019 -0.07547379 0.02579439 0.019 -0.06992303 0.00812697 0.019 -0.07217697 0.00587303 0.019 -0.07708979 0.00436901 0.016 -0.05834832 0.08678788 0.016 -0.05732595 0.08842039 0.016 -0.05463947 0.0864125 0.016 -0.05289447 0.04986182 0.016 -0.05281664 0.04237308 0.016 -0.0571774 0.0465875 0.016 -0.05231283 0.05732835 0.016 -0.0531 0.08435 0.016 -0.0535125 0.08753947 0.016 -0.0557623 0.08954526 0.016 -0.05388945 0.08999556 0.016 -0.05197303 0.08712697 0.016 -0.05204163 0.08955666 0.016 -0.04997575 0.08766248 0.016 -0.05156053 0.0855875 0.016 -0.06222586 0.02396053 0.016 -0.06068639 0.02437303 0.016 -0.04914864 0.01625523 0.016 -0.04949884 0.02074635 0.016 -0.06027389 0.0259125 0.016 -0.05207993 0.03492025 0.016 -0.06098836 0.02692894 0.016 -0.05871687 0.04865 0.016 -0.06367721 0.07185103 0.016 -0.05954187 0.04842894 0.016 -0.06014582 0.047825 0.016 -0.04998012 0.0709157 0.016 -0.05871687 0.04535 0.016 -0.05954187 0.04557106 0.016 -0.06181336 0.02715 0.016 -0.06025635 0.0465875 0.016 -0.06294033 0.02662697 0.016 -0.053925 0.08457106 0.016 -0.05789188 0.04842894 0.016 -0.0491 0.085 0.016 -0.0493203 0.07717817 0.016 -0.07547379 0.02579439 0.016 -0.07224901 0.04132203 0.016 -0.06831405 0.05668506 0.016 -0.07708796 0.01626372 0.016 -0.06335283 0.0250875 0.016 -0.07217697 0.00587303 0.016 -0.076 0.004 0.016 -0.07258947 0.0074125 0.016 -0.07708979 0.00436901 0.016 -0.0706375 0.00546053 0.016 -0.06308168 0.004 0.016 -0.06951053 0.0065875 0.016 -0.06992303 0.00812697 0.016 -0.0714625 0.00853947 0.016 -0.07799079 0.00999957 0.016 -0.0614625 0.00853947 0.016 -0.06247894 0.007825 0.016 -0.06217697 0.00587303 0.016 -0.060225 0.00557106 0.016 -0.0511 0.004 0.016 -0.05951053 0.0065875 0.016 -0.04973397 0.00463397 0.016 -0.0491 0.006 0.016 -0.05992303 0.00812697 0.019 -0.05069007 0.0275612 0.016 -0.05069007 0.0275612 0.019 -0.05107623 0.0647147 0.016 -0.05107623 0.0647147 0.016 -0.0491 0.08347145 0.019 -0.0491 0.08347145 0.016 -0.04946071 0.08686467 0.016 -0.05049079 0.0884603 0.019 -0.05049079 0.0884603 0.019 -0.05204163 0.08955666 0.016 -0.07798158 0.01013497 0.019 -0.07798158 0.01013497 0.019 -0.078 0.006 0.019 -0.078 0.00986418 0.016 -0.078 0.006 0.016 -0.078 0.00986418 0.016 -0.0501 0.00426795 0.019 -0.0501 0.00426795 0.016 -0.04936795 0.005 0.019 -0.04936795 0.005 0.019 -0.0491 0.01383969 0.016 -0.0491 0.01383969 -0.01198394 -0.05512374 0.004 -0.01 -0.05305 0.004 -0.01203373 -0.05710477 0.004 -0.01 -0.07405 0.004 -0.01340351 -0.05463183 0.004 -0.016 -0.05305 0.004 -0.01427893 -0.05540926 0.004 -0.01410851 -0.05706054 0.004 -0.016 -0.07405 0.004 -0.01340351 -0.05746818 0.004 -0.01203373 -0.06710476 0.004 -0.01203373 -0.06499524 0.004 -0.01340351 -0.06463183 0.004 -0.01430426 -0.06554472 0.004 -0.01425361 -0.0668262 0.004 -0.01340351 -0.06746817 0.004 -0.01 -0.07405 0.01 -0.01 -0.07169074 0.00827893 -0.01 -0.06963183 0.00740351 -0.01 -0.06224703 0.00609605 -0.01 -0.06251817 0.00686395 -0.01 -0.07246818 0.00740351 -0.01 -0.06210947 0.00796111 -0.01 -0.06077907 0.00844935 -0.01 -0.05305 0.01 -0.01 -0.05987336 0.00788856 -0.01 -0.05958183 0.00686395 -0.01 -0.06005666 0.00591036 -0.01 -0.06077437 0.00552554 -0.01 -0.07026035 0.00572467 -0.01 -0.07197626 0.00598394 -0.01 -0.06973012 0.00634278 -0.016 -0.05305 0.01 -0.016 -0.07405 0.01 -0.01410851 -0.05706054 0.01 -0.01234278 -0.06473012 0.01 -0.01203373 -0.06710476 0.01 -0.01425361 -0.0668262 0.01 -0.01375601 -0.06483564 0.01 -0.01427893 -0.05540926 0.01 -0.01340351 -0.05463183 0.01 -0.01198394 -0.05512374 0.01 -0.01340351 -0.05746818 0.01 -0.01234278 -0.05736988 0.01 -0.01340351 -0.06746817 0.01 -0.01172467 -0.05683965 0.01 -0.016 -0.07197626 0.00598394 -0.016 -0.06999523 0.00603373 -0.016 -0.05999523 0.00603373 -0.016 -0.06210477 0.00603373 -0.016 -0.05971488 0.00751348 -0.016 -0.07246818 0.00740351 -0.016 -0.06226436 0.00775601 -0.016 -0.06963183 0.00740351 -0.016 -0.07003946 0.00810851 -0.016 -0.07169074 0.00827893 -0.016 -0.06050814 0.00839871 0.0158 -0.05633427 0.042924 0.0158 -0.05533427 0.041924 0.0158 -0.05540669 0.044137 0.0158 -0.06027389 0.0259125 0.0158 -0.06098836 0.02407106 0.0158 -0.05565125 0.02996617 0.0158 -0.05432774 0.01383969 0.0158 -0.05533427 0.03064919 0.0158 -0.05633427 0.02964919 0.0158 -0.06098836 0.02692894 0.0158 -0.07047444 0.0296994 0.0158 -0.06263836 0.02692894 0.0158 -0.07654512 0.01965462 0.0158 -0.07652832 0.01792887 0.0158 -0.0632423 0.024675 0.0158 -0.07592579 0.01631164 0.0158 -0.06222586 0.02396053 0.0158 -0.07161198 0.01383969 0.0158 -0.07331191 0.01413754 0.0158 -0.07480932 0.0149956 0.0158 -0.06753027 0.042924 0.0158 -0.06335283 0.0259125 0.0158 -0.07104187 0.03003072 0.0158 -0.07399692 0.0333535 0.0158 -0.07122806 0.03088417 0.0158 -0.07089764 0.04693831 0.0158 -0.06850228 0.04215899 0.0158 -0.04987484 0.02345115 0.0158 -0.04934845 0.01929423 0.0158 -0.05068588 0.01551513 0.0158 -0.05558557 0.05580137 0.0158 -0.0571774 0.0474125 0.0158 -0.0575899 0.04587303 0.0158 -0.05954187 0.04557106 0.0158 -0.05583034 0.07639311 0.0158 -0.06025635 0.0465875 0.0158 -0.06725234 0.06038689 0.0158 -0.05984385 0.04812697 0.0158 -0.06307378 0.05544656 0.0158 -0.05830438 0.04853947 0.0158 -0.05627378 0.05540403 0.0158 -0.05764934 0.07605625 0.0158 -0.05834832 0.08678788 0.0158 -0.06306696 0.07367731 0.0158 -0.06365481 0.05643124 0.0158 -0.05705314 0.07658311 0.0158 -0.05732595 0.08842039 0.0158 -0.0554202 0.08968699 0.0158 -0.053925 0.08457106 0.0158 -0.05452894 0.085175 0.0158 -0.0531 0.08435 0.0158 -0.05289447 0.04986182 0.0158 -0.05231283 0.05732835 0.0158 -0.05281664 0.04237308 0.0158 -0.05207993 0.03492025 0.0158 -0.05167106 0.085175 0.0158 -0.04946071 0.08686467 0.0158 -0.05197303 0.08712697 0.0158 -0.05126621 0.08900848 0.0158 -0.0531 0.08765 0.0158 -0.05388945 0.08999556 0.0158 -0.05422697 0.08712697 0.0158 -0.04998012 0.0709157 0.0158 -0.0493203 0.07717817 0.0158 -0.0491 0.085 -0.016 -0.05422697 0.08712697 -0.016 -0.05452894 0.085175 -0.016 -0.0554202 0.08968699 -0.016 -0.05281664 0.04237308 -0.016 -0.05207993 0.03492025 -0.016 -0.05549276 0.03030768 -0.016 -0.04934845 0.01929423 -0.016 -0.05432774 0.01383969 -0.016 -0.04987484 0.02345115 -0.016 -0.04947264 0.01764471 -0.016 -0.05196992 0.0145088 -0.016 -0.06181336 0.02385 -0.016 -0.06098836 0.02407106 -0.016 -0.07654512 0.01965462 -0.016 -0.06346336 0.0255 -0.016 -0.06294033 0.02437303 -0.016 -0.07480932 0.0149956 -0.016 -0.06263836 0.02692894 -0.016 -0.07047444 0.0296994 -0.016 -0.06098836 0.02692894 -0.016 -0.05533427 0.041924 -0.016 -0.05633427 0.042924 -0.016 -0.05540669 0.044137 -0.016 -0.07161198 0.01383969 -0.016 -0.07331191 0.01413754 -0.016 -0.06027389 0.0259125 -0.016 -0.05633427 0.02964919 -0.016 -0.07113747 0.03023338 -0.016 -0.06753027 0.042924 -0.016 -0.07123964 0.04554278 -0.016 -0.06850228 0.04215899 -0.016 -0.07399692 0.0333535 -0.016 -0.07122806 0.03088417 -0.016 -0.053925 0.08457106 -0.016 -0.0531 0.08435 -0.016 -0.05156053 0.0855875 -0.016 -0.05253651 0.08738849 -0.016 -0.04997575 0.08766248 -0.016 -0.05289447 0.04986182 -0.016 -0.05231283 0.05732835 -0.016 -0.04998012 0.0709157 -0.016 -0.05296554 0.08977611 -0.016 -0.0491 0.085 -0.016 -0.0493203 0.07717817 -0.016 -0.06025635 0.0465875 -0.016 -0.06365481 0.05643124 -0.016 -0.05984385 0.04812697 -0.016 -0.05583034 0.07639311 -0.016 -0.05732595 0.08842039 -0.016 -0.05954187 0.04557106 -0.016 -0.0575899 0.04587303 -0.016 -0.0571774 0.0474125 -0.016 -0.05558557 0.05580137 -0.016 -0.05834832 0.08678788 -0.016 -0.05705314 0.07658311 -0.016 -0.05764934 0.07605625 -0.016 -0.06306696 0.07367731 -0.016 -0.06725234 0.06038689 -0.016 -0.05830438 0.04853947 -0.016 -0.05627378 0.05540403 -0.016 -0.06289492 0.05540403 0.0158 -0.05069007 0.0275612 -0.019 -0.05069007 0.0275612 -0.019 -0.05207993 0.03492025 -0.019 -0.05281664 0.04237308 -0.019 -0.05289447 0.04986182 -0.019 -0.05231283 0.05732835 0.0158 -0.05107623 0.0647147 -0.019 -0.05107623 0.0647147 -0.019 -0.04998012 0.0709157 -0.019 -0.0493203 0.07717817 -0.019 -0.0491 0.08347145 0.0158 -0.0491 0.08347145 -0.019 -0.0491 0.085 -0.019 -0.05049079 0.0884603 0.0158 -0.05049079 0.0884603 0.0158 -0.05204163 0.08955666 -0.019 -0.05204163 0.08955666 -0.016 -0.05388945 0.08999556 -0.019 -0.05732595 0.08842039 -0.019 -0.05834832 0.08678788 -0.016 -0.07089764 0.04693831 0.0158 -0.07158165 0.04414725 -0.016 -0.07158165 0.04414725 -0.016 -0.05069007 0.0275612 0.0158 -0.05627378 0.0766184 0.0158 -0.05688945 0.0766184 -0.016 -0.05627378 0.0766184 -0.016 -0.05688945 0.0766184 0.0158 -0.06289492 0.05540403 0.0158 -0.0554791 0.0561987 0.0158 -0.0554791 0.07582372 -0.016 -0.0554791 0.0561987 -0.016 -0.0554791 0.07582372 0.0158 -0.05583427 0.04279003 -0.016 -0.05583427 0.04279003 0.0158 -0.05546824 0.042424 -0.016 -0.05546824 0.042424 0.0158 -0.06830676 0.04255414 -0.016 -0.06830676 0.04255414 0.0158 -0.06796031 0.04282681 -0.016 -0.06796031 0.04282681 0.0158 -0.07025605 0.02964919 -0.016 -0.07025605 0.02964919 0.0158 -0.07069282 0.02974961 -0.016 -0.07069282 0.02974961 -0.016 -0.07104187 0.03003072 0.0158 -0.07123308 0.03043604 -0.016 -0.07123308 0.03043604 -0.016 -0.05533427 0.03064919 0.0158 -0.05546824 0.03014919 -0.016 -0.05546824 0.03014919 0.0158 -0.05583427 0.02978316 -0.016 -0.05583427 0.02978316 0.0158 -0.05475 0.086 -0.019 -0.05475 0.086 0.0158 -0.05452894 0.086825 -0.019 -0.05452894 0.086825 0.0158 -0.053925 0.08742894 -0.019 -0.053925 0.08742894 -0.019 -0.0531 0.08765 0.0158 -0.052275 0.08742894 0.0158 -0.05167106 0.086825 -0.019 -0.05167106 0.086825 0.0158 -0.05145 0.086 -0.019 -0.05145 0.086 0.0158 -0.052275 0.08457106 -0.019 -0.052275 0.08457106 -0.019 -0.0531 0.08435 -0.019 -0.053925 0.08457106 -0.019 -0.05452894 0.085175 0.0158 -0.06036688 0.047 -0.019 -0.06036688 0.047 0.0158 -0.06014582 0.047825 -0.019 -0.06014582 0.047825 0.0158 -0.05954187 0.04842894 0.0158 -0.05789188 0.04842894 0.0158 -0.05871687 0.04865 -0.019 -0.05789188 0.04842894 0.0158 -0.05728793 0.047825 -0.019 -0.05728793 0.047825 0.0158 -0.05706688 0.047 -0.019 -0.05706688 0.047 0.0158 -0.05728793 0.046175 -0.019 -0.05728793 0.046175 0.0158 -0.05789188 0.04557106 -0.019 -0.05789188 0.04557106 0.0158 -0.05871687 0.04535 -0.019 -0.05871687 0.04535 -0.019 -0.05954187 0.04557106 0.0158 -0.06346336 0.0255 -0.019 -0.06346336 0.0255 0.0158 -0.0632423 0.026325 -0.019 -0.0632423 0.026325 -0.019 -0.06263836 0.02692894 0.0158 -0.06181336 0.02715 -0.019 -0.06181336 0.02715 -0.019 -0.06098836 0.02692894 0.0158 -0.06038442 0.026325 -0.019 -0.06038442 0.026325 0.0158 -0.06016336 0.0255 0.0158 -0.06038442 0.024675 -0.019 -0.06038442 0.024675 -0.019 -0.06098836 0.02407106 0.0158 -0.06181336 0.02385 -0.019 -0.06181336 0.02385 0.0158 -0.06263836 0.02407106 -0.019 -0.06263836 0.02407106 -0.019 -0.0632423 0.024675 -0.016 -0.05269634 0.01411332 0.0158 -0.05269634 0.01411332 -0.016 -0.0512435 0.01490428 0.0158 -0.0512435 0.01490428 -0.016 -0.05012824 0.01612598 0.0158 -0.05012824 0.01612598 0.0158 -0.04947264 0.01764471 -0.016 -0.07652832 0.01792887 -0.016 -0.07592579 0.01631164 -0.016 -0.06222586 0.02396053 -0.016 -0.06335283 0.0250875 -0.016 -0.07708796 0.01626372 -0.016 -0.06181336 0.02715 -0.016 -0.0632423 0.026325 -0.016 -0.06367721 0.07185103 -0.016 -0.04949884 0.02074635 -0.016 -0.06068639 0.02437303 -0.016 -0.04914864 0.01625523 -0.016 -0.05167106 0.085175 -0.016 -0.04946071 0.08686467 -0.016 -0.05197303 0.08712697 -0.016 -0.05126621 0.08900848 -0.016 -0.0535125 0.08753947 -0.016 -0.0557623 0.08954526 -0.016 -0.05463947 0.0864125 -0.016 -0.06014582 0.047825 -0.016 -0.05954187 0.04842894 -0.016 -0.05871687 0.04865 -0.016 -0.05789188 0.04557106 -0.016 -0.05871687 0.04535 -0.016 -0.06247894 0.007825 -0.016 -0.06308168 0.004 -0.016 -0.06197072 0.00581776 -0.016 -0.0511 0.004 -0.016 -0.04973397 0.00463397 -0.016 -0.0491 0.006 -0.016 -0.05962106 0.006175 -0.016 -0.0614625 0.00853947 -0.016 -0.05992303 0.00812697 -0.016 -0.0594 0.007 -0.016 -0.07258947 0.0074125 -0.016 -0.0714625 0.00853947 -0.016 -0.06951053 0.0065875 -0.016 -0.0706375 0.00546053 -0.016 -0.076 0.004 -0.016 -0.07799079 0.00999957 -0.016 -0.07792388 0.00561732 -0.016 -0.06831405 0.05668506 -0.016 -0.07224901 0.04132203 -0.016 -0.07547379 0.02579439 -0.016 -0.06992303 0.00812697 -0.016 -0.07217697 0.00587303 -0.016 -0.07708979 0.00436901 -0.019 -0.05463947 0.0864125 -0.019 -0.0571774 0.0465875 -0.019 -0.0535125 0.08753947 -0.019 -0.0557623 0.08954526 -0.019 -0.05388945 0.08999556 -0.019 -0.05197303 0.08712697 -0.019 -0.04997575 0.08766248 -0.019 -0.05156053 0.0855875 -0.019 -0.06222586 0.02396053 -0.019 -0.06068639 0.02437303 -0.019 -0.04914864 0.01625523 -0.019 -0.04949884 0.02074635 -0.019 -0.06027389 0.0259125 -0.019 -0.05871687 0.04865 -0.019 -0.06367721 0.07185103 -0.019 -0.05954187 0.04842894 -0.019 -0.06025635 0.0465875 -0.019 -0.06294033 0.02662697 -0.019 -0.07547379 0.02579439 -0.019 -0.07224901 0.04132203 -0.019 -0.06831405 0.05668506 -0.019 -0.07708796 0.01626372 -0.019 -0.06335283 0.0250875 -0.019 -0.07217697 0.00587303 -0.019 -0.076 0.004 -0.019 -0.07258947 0.0074125 -0.019 -0.07708979 0.00436901 -0.019 -0.0706375 0.00546053 -0.019 -0.06308168 0.004 -0.019 -0.06951053 0.0065875 -0.019 -0.06992303 0.00812697 -0.019 -0.0714625 0.00853947 -0.019 -0.07799079 0.00999957 -0.019 -0.0614625 0.00853947 -0.019 -0.06247894 0.007825 -0.019 -0.06217697 0.00587303 -0.019 -0.060225 0.00557106 -0.019 -0.0511 0.004 -0.019 -0.05951053 0.0065875 -0.019 -0.04973397 0.00463397 -0.019 -0.0491 0.006 -0.019 -0.05992303 0.00812697 -0.019 -0.04946071 0.08686467 0.0158 -0.0557623 0.08954526 -0.019 -0.07798158 0.01013497 -0.016 -0.07798158 0.01013497 -0.016 -0.078 0.006 -0.016 -0.078 0.00986418 -0.019 -0.078 0.006 -0.019 -0.078 0.00986418 -0.019 -0.0501 0.00426795 -0.016 -0.0501 0.00426795 -0.019 -0.04936795 0.005 -0.016 -0.04936795 0.005 -0.016 -0.0491 0.01383969 -0.019 -0.0491 0.01383969 -0.019 -0.052275 0.08742894 -0.019 -0.05167106 0.085175 -0.019 -0.05912937 0.04853947 -0.019 -0.0575899 0.04812697 -0.019 -0.05984385 0.04587303 0.0158 -0.06014582 0.046175 -0.019 -0.06016336 0.0255 0.0158 -0.0459589 0.08142408 -0.0162 -0.0459589 0.08142408 0.0158 -0.04683831 0.0817531 -0.0162 -0.04683831 0.0817531 0.0158 -0.04747083 0.0824469 -0.0162 -0.04747083 0.0824469 0.0158 -0.04771712 0.08335289 -0.0162 -0.04771712 0.08335289 0.0158 -0.04752281 0.08427127 -0.0162 -0.04752281 0.08427127 0.0158 -0.04693082 0.08499988 -0.0162 -0.04693082 0.08499988 0.0158 -0.04909995 0.08499988 -0.0162 -0.04909995 0.08499988 0.0158 -0.04909995 0.08347162 -0.0162 -0.04909995 0.08347162 0.0158 -0.04932025 0.07717832 -0.0162 -0.04932025 0.07717832 0.0158 -0.04998007 0.07091554 -0.0162 -0.04998007 0.07091554 0.0158 -0.0510762 0.06471475 -0.0162 -0.0510762 0.06471475 -0.0162 -0.05231288 0.05732854 0.0158 -0.05231288 0.05732854 -0.0162 -0.0528945 0.04986175 0.0158 -0.0528945 0.04986175 -0.0162 -0.05281666 0.04237302 0.0158 -0.05281666 0.04237302 -0.0162 -0.05207994 0.03492006 0.0158 -0.05207994 0.03492006 -0.0162 -0.05069008 0.02756103 0.0158 -0.05069008 0.02756103 0.0158 -0.04982271 0.02312454 -0.0162 -0.04982271 0.02312454 0.0158 -0.04929199 0.01863511 -0.0162 -0.04929199 0.01863511 0.0158 -0.04796734 0.01878675 -0.0162 -0.04796734 0.01878675 0.0158 -0.0483599 0.01974281 -0.0162 -0.0483599 0.01974281 0.0158 -0.04822293 0.02076705 -0.0162 -0.04822293 0.02076705 0.0158 -0.04759302 0.02158626 -0.0162 -0.04759302 0.02158626 0.0158 -0.04663828 0.02198156 -0.0162 -0.04663828 0.02198156 -0.0162 -0.04578879 0.02230152 0.0158 -0.04578879 0.02230152 -0.0162 -0.04516831 0.02296432 0.0158 -0.04516831 0.02296432 -0.0162 -0.04490462 0.02383312 0.0158 -0.04490462 0.02383312 -0.0162 -0.04505208 0.02472862 0.0158 -0.04505208 0.02472862 -0.0162 -0.04558029 0.02546676 0.0158 -0.04558029 0.02546676 -0.0162 -0.04638055 0.02589544 0.0158 -0.04638055 0.02589544 -0.0162 -0.04728773 0.02592643 0.0158 -0.04728773 0.02592643 0.0158 -0.0483146 0.02599367 -0.0162 -0.0483146 0.02599367 0.0158 -0.04917219 0.02656206 -0.0162 -0.04917219 0.02656206 0.0158 -0.04963353 0.02748187 -0.0162 -0.04963353 0.02748187 0.0158 -0.04957643 0.02850946 -0.0162 -0.04957643 0.02850946 0.0158 -0.04901614 0.02937253 -0.0162 -0.04901614 0.02937253 0.0158 -0.04810086 0.0298427 -0.0162 -0.04810086 0.0298427 -0.0162 -0.04719331 0.03030618 0.0158 -0.04719331 0.03030618 -0.0162 -0.04663184 0.03115638 0.0158 -0.04663184 0.03115638 -0.0162 -0.04656198 0.03217252 0.0158 -0.04656198 0.03217252 -0.0162 -0.04700198 0.03309186 0.0158 -0.04700198 0.03309186 -0.0162 -0.04783764 0.03367456 0.0158 -0.04783764 0.03367456 -0.0162 -0.04885199 0.0337704 0.0158 -0.04885199 0.0337704 0.0158 -0.04975381 0.03382858 -0.0162 -0.04975381 0.03382858 0.0158 -0.05053809 0.03427776 -0.0162 -0.05053809 0.03427776 0.0158 -0.05104449 0.03502639 -0.0162 -0.05104449 0.03502639 0.0158 -0.05116966 0.03592141 -0.0162 -0.05116966 0.03592141 0.0158 -0.05088809 0.0367802 -0.0162 -0.05088809 0.0367802 0.0158 -0.05025723 0.03742727 -0.0162 -0.05025723 0.03742727 0.0158 -0.04940596 0.03773053 -0.0162 -0.04940596 0.03773053 -0.0162 -0.04845622 0.03810104 0.0158 -0.04845622 0.03810104 -0.0162 -0.04781249 0.03889211 0.0158 -0.04781249 0.03889211 -0.0162 -0.04764226 0.03989728 0.0158 -0.04764226 0.03989728 -0.0162 -0.04798975 0.04085572 0.0158 -0.04798975 0.04085572 -0.0162 -0.04876449 0.04151853 0.0158 -0.04876449 0.04151853 -0.0162 -0.04976526 0.04171308 0.0158 -0.04976526 0.04171308 0.0158 -0.05065694 0.04185947 -0.0162 -0.05065694 0.04185947 0.0158 -0.05139342 0.04238303 -0.0162 -0.05139342 0.04238303 0.0158 -0.05182424 0.04317744 -0.0162 -0.05182424 0.04317744 0.0158 -0.05186143 0.0440801 -0.0162 -0.05186143 0.0440801 0.0158 -0.05149737 0.04490741 -0.0162 -0.05149737 0.04490741 0.0158 -0.05080631 0.04548963 -0.0162 -0.05080631 0.04548963 0.0158 -0.04992953 0.0457085 -0.0162 -0.04992953 0.0457085 -0.0162 -0.04894819 0.04598506 0.0158 -0.04894819 0.04598506 -0.0162 -0.04823044 0.0467089 0.0158 -0.04823044 0.0467089 -0.0162 -0.04796305 0.04769309 0.0158 -0.04796305 0.04769309 -0.0162 -0.0482153 0.04868062 0.0158 -0.0482153 0.04868062 -0.0162 -0.04892161 0.04941591 0.0158 -0.04892161 0.04941591 -0.0162 -0.04989865 0.04970725 0.0158 -0.04989865 0.04970725 0.0158 -0.05077198 0.04993947 -0.0162 -0.05077198 0.04993947 0.0158 -0.05145385 0.05053266 -0.0162 -0.05145385 0.05053266 0.0158 -0.05180505 0.05136522 -0.0162 -0.05180505 0.05136522 0.0158 -0.05175402 0.05226739 -0.0162 -0.05175402 0.05226739 0.0158 -0.05131104 0.05305513 -0.0162 -0.05131104 0.05305513 0.0158 -0.05056658 0.05356725 -0.0162 -0.05056658 0.05356725 0.0158 -0.04967263 0.05369981 -0.0162 -0.04967263 0.05369981 -0.0162 -0.04866889 0.0538791 0.0158 -0.04866889 0.0538791 -0.0162 -0.04788401 0.05452951 0.0158 -0.04788401 0.05452951 -0.0162 -0.04752186 0.0554827 0.0158 -0.04752186 0.0554827 -0.0162 -0.04767659 0.05649026 0.0158 -0.04767659 0.05649026 -0.0162 -0.04830792 0.05729087 0.0158 -0.04830792 0.05729087 -0.0162 -0.04925194 0.05767616 0.0158 -0.04925194 0.05767616 0.0158 -0.05009845 0.05799277 -0.0162 -0.05009845 0.05799277 0.0158 -0.05071917 0.05864938 -0.0162 -0.05071917 0.05864938 0.0158 -0.05098763 0.05951246 -0.0162 -0.05098763 0.05951246 0.0158 -0.05084875 0.06040509 -0.0162 -0.05084875 0.06040509 0.0158 -0.05033102 0.0611461 -0.0162 -0.05033102 0.0611461 0.0158 -0.04954019 0.06158336 -0.0162 -0.04954019 0.06158336 0.0158 -0.04863765 0.0616277 -0.0162 -0.04863765 0.0616277 -0.0162 -0.04761317 0.06171115 0.0158 -0.04761317 0.06171115 -0.0162 -0.04676535 0.06229242 0.0158 -0.04676535 0.06229242 -0.0162 -0.04631832 0.06321796 0.0158 -0.04631832 0.06321796 -0.0162 -0.04638984 0.06424316 0.0158 -0.04638984 0.06424316 -0.0162 -0.04696121 0.06509765 0.0158 -0.04696121 0.06509765 -0.0162 -0.04788151 0.06555542 0.0158 -0.04788151 0.06555542 0.0158 -0.04879453 0.0660065 -0.0162 -0.04879453 0.0660065 0.0158 -0.04936674 0.06684908 -0.0162 -0.04936674 0.06684908 0.0158 -0.04945007 0.06786426 -0.0162 -0.04945007 0.06786426 0.0158 -0.0490227 0.06878837 -0.0162 -0.0490227 0.06878837 0.0158 -0.04819551 0.06938251 -0.0162 -0.04819551 0.06938251 0.0158 -0.04718294 0.06949266 -0.0162 -0.04718294 0.06949266 -0.0162 -0.04628387 0.06956276 0.0158 -0.04628387 0.06956276 -0.0162 -0.04550698 0.07002052 0.0158 -0.04550698 0.07002052 -0.0162 -0.04501035 0.07077345 0.0158 -0.04501035 0.07077345 -0.0162 -0.04489496 0.07166799 0.0158 -0.04489496 0.07166799 -0.0162 -0.04518404 0.07252201 0.0158 -0.04518404 0.07252201 -0.0162 -0.04581907 0.0731624 0.0158 -0.04581907 0.0731624 -0.0162 -0.04667082 0.07345852 0.0158 -0.04667082 0.07345852 0.0158 -0.04762473 0.07382377 -0.0162 -0.04762473 0.07382377 0.0158 -0.04827395 0.07461198 -0.0162 -0.04827395 0.07461198 0.0158 -0.04844918 0.07561859 -0.0162 -0.04844918 0.07561859 0.0158 -0.04810479 0.07657989 -0.0162 -0.04810479 0.07657989 0.0158 -0.04733052 0.07724603 -0.0162 -0.04733052 0.07724603 0.0158 -0.04632821 0.07744297 -0.0162 -0.04632821 0.07744297 -0.0162 -0.04533007 0.07763799 0.0158 -0.04533007 0.07763799 -0.0162 -0.04455676 0.07829841 0.0158 -0.04455676 0.07829841 -0.0162 -0.04420843 0.07925399 0.0158 -0.04420843 0.07925399 -0.0162 -0.04437509 0.08025726 0.0158 -0.04437509 0.08025726 -0.0162 -0.04501357 0.08104929 0.0158 -0.04501357 0.08104929 0.0158 -0.04761996 0.08381208 0.0158 -0.04598042 0.0256811 0.0158 -0.04965016 0.07404693 0.0158 -0.0494084 0.06735667 0.0158 -0.04542929 0.0726287 0.0158 -0.04525867 0.07039698 0.0158 -0.05057266 0.03710373 0.0158 -0.04494342 0.0779682 0.0158 -0.04469433 0.08065327 0.0158 -0.05093881 0.05331119 0.0158 -0.04678198 0.03263219 0.0158 -0.05160883 0.04278024 0.0158 -0.04971072 0.041689 0.0158 -0.05162945 0.05094894 0.0158 -0.04858932 0.04634698 0.0158 -0.0508534 0.05908092 0.0158 -0.047816 0.0403765 0.0158 -0.04813435 0.03849657 0.0158 -0.04856845 0.04904826 0.0158 -0.04770293 0.05500611 0.0158 -0.04799226 0.05689057 0.0158 -0.04667553 0.06467041 0.0158 -0.04654184 0.06275519 -0.0162 -0.0463303 0.07744201 -0.0162 -0.04761996 0.08381208 -0.0162 -0.04827699 0.07609924 -0.0162 -0.04541263 0.02285012 -0.0162 -0.04531619 0.02509769 -0.0162 -0.04794934 0.07421788 -0.0162 -0.04589542 0.06979164 -0.0162 -0.04469433 0.08065327 -0.0162 -0.0443826 0.0787762 -0.0162 -0.05110708 0.0354739 -0.0162 -0.05102518 0.04212125 -0.0162 -0.04837712 0.04118713 -0.0162 -0.04691258 0.03073128 -0.0162 -0.04678198 0.03263219 -0.0162 -0.04923638 0.06832632 -0.0162 -0.05091819 0.05995877 -0.0162 -0.05093881 0.05331119 -0.0162 -0.04813435 0.03849657 -0.0162 -0.04808917 0.04818686 -0.0162 -0.04795357 0.05663868 -0.0162 -0.04654184 0.06275519</float_array>
          <technique_common>
            <accessor source="#pos_0-array" count="4785" stride="3">
              <param name="X" type="float"/>
              <param name="Y" type="float"/>
              <param name="Z" type="float"/>
            </accessor>
          </technique_common>
        </source>
        <source id="norm_0">
          <float_array id="norm_0-array" count="1149">0 0 -1 0.34202 -0.93969 0 0.34202 -0.93969 0 0.34202 0.93969 0 0.34202 0.93969 0 0.34202 -0.93969 0 0.34202 -0.93969 0 0.34202 0.93969 0 0.34202 -0.93969 0 0.34202 -0.93969 0 0.34202 -0.93969 0 -0 -1 -0 -0 -0 1 0 -0 1 0 0 1 0 0 1 0 0 1 0 0 1 -0 0 1 -0 0 1 -0 0 1 0 -0 1 0 0 1 -0 0 1 -0 0 1 0 0 1 0 -0 1 0 -0 1 0 0 1 0 -0 1 0 -0 1 -0 -0 1 -0 0 1 -0 -0 1 -0 -0 1 -0 0 1 0 -0 1 0 0 1 -0 0 1 -0 0 1 0 -0 1 0 -0 1 -0 -0 1 0 -0 1 0 -0 1 -0 -0 1 -0 0 1 -0 0 1 0 0 1 -0 0 1 0 -0 1 -0 0 1 -0 -0 1 -0 -0 1 0 -0 1 -0 0 1 -0 0 1 -0 0 1 0 -0 1 -0 0 1 0.34202 0.93969 0 1 0 0 -1 0 0 0 1 0 0 0 1 -0 0 1 -0 0 1 0 0 1 0 0 1 0 -0 1 0 -0 1 -0 0 1 -0 0 1 -0 0 1 0 -0 1 -0 -0 1 -0 -0 1 -0 -0 1 0 -0 1 -0 -0 1 0 0 1 -0 0 1 -0 0 1 -0 0 1 0 -0 1 0 -0 1 0 -0 1 0 -0 1 -0 -0 1 0 -0 1 0 -0 1 0.25882 0 0.96593 0.70711 0 0.70711 0.96593 0 0.25882 0.96593 0 -0.25882 0.70711 0 -0.70711 0.25882 0 -0.96593 -0.25882 -0 -0.96593 -0.70711 -0 -0.70711 -0.96593 -0 -0.25882 -0.96593 0 0.25882 -0.70711 0 0.70711 -0.25882 0 0.96593 -0 -0 -1 -0 0 -1 -0 -0 -1 -0 0 -1 -0 -0 -1 -0 -0 -1 0 -0 -1 -0 0 -1 -0 -0 -1 -0 0 -1 -0 0 -1 -0 -0 -1 0 0 -1 -0 0 -1 -0 -0 -1 0 0 -1 -0 0 -1 0 0 -1 -0 0 -1 -0 -0 -1 0 0 -1 0 0 -1 0 0 -1 -0 -0 -1 -0 0 -1 -0 0 -1 -0 0 -1 -0 -0 -1 0.96593 0.25882 -0 0.7071 0.70711 -0 0.25882 0.96593 -0 -0.25882 0.96593 0 -0.7071 0.70711 0 -0.96593 0.25882 0 -0.96593 -0.25882 0 -0.7071 -0.70711 0 -0.25882 -0.96593 0 0.25882 -0.96593 0 0.7071 -0.70711 0 0.96593 -0.25882 0 0.70711 0.70711 -0 -0.70711 0.70711 0 -0.96593 -0.25882 0 -0.70711 -0.70711 0 0.70711 -0.70711 0 0.96593 -0.25882 0 0.96593 0.25882 -0 0.70711 0.70711 -0 -0.70711 0.70711 0 -0.96593 0.25882 0 -0.96593 -0.25882 0 -0.70711 -0.70711 0 0.70711 -0.70711 0 0.96593 -0.25882 0 0.7071 0.70711 -0 -0.7071 0.70711 0 -0.96593 -0.25882 0 -0.7071 -0.70711 0 0.7071 -0.70711 0 0.96593 -0.25882 0 0 -0 -1 -0 0 -1 -0 -0 -1 0 0 -1 0 0 -1 -0 -0 -1 0 0 -1 -0 0 -1 0 0 -1 -0 0 -1 -0 0 -1 -0 0 -1 0 0 -1 0 0 -1 0 0 -1 0 0.98263 0.18558 0 0.99515 0.09837 0 0.99995 0.01039 0 0.99698 -0.07766 0 0.98627 -0.16512 0 0.98473 -0.17406 0 0.9945 -0.10478 0 0.99939 -0.03498 0 0.9818 0.18992 0 0.84014 0.54237 0 0.57726 0.81656 0 0.2311 0.97293 0 -0.23377 0.97229 0 -0.58398 0.81177 0 -0.84752 0.53077 0 -0.97911 0.20334 0 -0.96873 0.24812 0 -0.9563 0.29238 0 -0.94186 0.33602 0 -0.98954 0.14428 0 -0.98596 0.16699 0 0.25882 -0.96593 0 0.70711 -0.7071 0 0.96593 -0.25882 0 0.9998 0.02013 0 0.99697 0.07774 0 0.98506 0.17219 0 -0.19761 0.98028 0 -0.94091 0.33865 0 -0.95382 0.30037 0 -0.96517 0.26161 0 -0.97126 0.23803 0 -0.97587 0.21837 0 -0.98314 0.18288 0 0.99208 0.12563 0 0.98089 0.19456 0 0.95623 -0.29262 -0 -0.25882 -0.96593 -0 -0.70711 -0.70711 -0 -0.96593 -0.25882 0 0.89629 -0.44347 0 0.61847 -0.78581 0 0.22044 -0.9754 0 0.972 -0.23499 0 0.22408 0.97457 0 0.62723 0.77883 0 0.90441 0.42666 0 0.99994 -0.01121 0 -0.96593 0.25882 0 -0.70711 0.70711 0 -0.25882 0.96593 0 0.96593 -0.25882 0 0.70711 -0.7071 0 0.25882 -0.96593 -0 -0.25882 -0.96593 -0 -0.70711 -0.7071 -0 -0.96593 -0.25882 0 -0.70711 0.7071 0 -0.25882 0.96593 0 0.25882 0.96593 0 0.70711 0.7071 0 0.96593 0.25882 0 0.96593 -0.25882 0 0.7071 -0.70711 -0 -0.25882 -0.96593 -0 -0.96593 -0.25881 0 -0.96593 0.25882 0 -0.7071 0.70711 0 -0.25882 0.96593 0 0.96593 -0.25882 0 0.70711 -0.70711 -0 -0.70711 -0.70711 -0 -0.96593 -0.25882 0 -0.96593 0.25882 0 0.7071 0.70711 0 0.16542 -0.98622 0 0.47815 -0.87828 0 0.73855 -0.6742 0 0.91811 -0.39633 0 0.99718 -0.07508 -0 -0.99995 -0.00974 -0 -0.93708 -0.34912 -0 -0.76256 -0.64692 -0 -0.49719 -0.86764 -0 -0.17258 -0.985 0 -0.96593 0.25882 0 -0.7071 -0.70711 0 0.96593 0.25882 0 0.96593 0.25882 0 0.35041 0.9366 0 0.73899 0.67372 0 0.96498 0.26232 0 0.97834 -0.207 0 0.77611 -0.63059 0 -0.99939 0.03498 0 -0.9945 0.10478 0 -0.98473 0.17407 0 -0.98627 0.16513 0 -0.99698 0.07766 -0 -0.99995 -0.01039 -0 -0.99515 -0.09837 -0 -0.98263 -0.18558 -0 -0.98142 -0.19187 -0 -0.99308 -0.1174 0 0.92506 0.37983 0 0.99118 -0.13255 0 0.79274 -0.60955 0 0.38254 -0.92394 0 0.35248 -0.93582 0 0.73003 -0.68342 0 0.9569 -0.29043 0 0.98671 0.16248 0 0.81323 0.58195 0 0.4722 0.88149 0 0.03415 0.99942 0 0.06533 0.99786 0 0.55245 0.83354 0 0.89387 0.44833 0 0.99846 -0.05548 0 0.83876 -0.5445 0 0.45692 -0.88951 0 0.45482 -0.89058 0 0.83445 -0.55108 0 0.99765 -0.06859 0 0.90201 0.43171 0 0.57197 0.82028 0 0.09407 0.99557 0 0.06437 0.99793 0 0.49699 0.86776 0 0.8283 0.56029 0 0.99036 0.1385 0 0.95023 -0.31155 0 0.71602 -0.69808 0 0.33559 -0.94201 0 0.36343 -0.93162 0 0.77564 -0.63117 0 0.98596 -0.16698 0 0.94012 0.34085 0 0.65008 0.75987 0 0.19083 0.98162 0 0.162 0.98679 0 0.57941 0.81503 0 0.87905 0.47673 0 0.99915 0.04117 0 0.9153 -0.40278 0 0.64431 -0.76476 0 0.24219 -0.97023 0 0.27126 -0.96251 0 0.71008 -0.70412 0 0.96502 -0.26218 0 0.96889 0.24749 0 0.72117 0.69276 0 0.28576 0.9583 0 0.25697 0.96642 0 0.65634 0.75447 0 0.92138 0.38866 0 0.9984 -0.05646 0 0.87163 -0.49016 0 0.56676 -0.82388 0 0.14668 -0.98918 0 0.17584 -0.98442 0 0.63807 -0.76998 0 0.9348 -0.35517 0 0.98841 0.15179 0 0.78523 0.6192 0 0.37787 0.92586 0 0.35033 0.93663 0 0.72668 0.68697 0 0.95487 0.29701 0 0.98811 -0.15373 0 0.81974 -0.57274 0 0.48387 -0.87514 0 0.04908 -0.9988 0 0.08118 -0.9967 0 0.56547 -0.82477 0 0.90047 -0.43492 0 0.99758 0.0696 0 0.83128 0.55585 0 0.44536 0.89535 0 0.44295 0.89655 0 0.82727 0.56181 0 0.99665 0.08181 0 0.90764 -0.41975 0 0.58337 -0.8122 0 0.10814 -0.99414 0 0.07773 -0.99697 0 0.50766 -0.86156 0 0.83476 -0.55061 0 0.99178 -0.12794 0 0.94721 0.32063 0 0.71007 0.70413 0 0.32838 0.94455 0 0.35759 0.93388 0 0.77188 0.63576 0 0.98518 0.17151 0 0.94141 -0.33727 0 0.65219 -0.75805 0 0.19279 -0.98124 0 0.19176 -0.98144 0 0.64942 -0.76043 0 0.93953 -0.34248 0 0.98648 0.16387 0 0.77853 0.62761 0 0.36856 0.9296 0 0.11373 -0.99351</float_array>
          <technique_common>
            <accessor source="#norm_0-array" count="1149" stride="3">
              <param name="X" type="float"/>
              <param name="Y" type="float"/>
              <param name="Z" type="float"/>
            </accessor>
          </technique_common>
        </source>
        <vertices id="vert_0">
          <input semantic="POSITION" source="#pos_0"/>
        </vertices>
        <triangles count="2000" material="mat_0">
          <input semantic="VERTEX" source="#vert_0" offset="0"/>
          <input semantic="NORMAL" source="#norm_0" offset="1"/>
          <p>0 0 1 0 2 0 2 0 1 0 3 0 4 0 5 0 6 0 6 0 5 0 7 0 5 0 8 0 9 0 10 0 11 0 12 0 13 0 14 0 15 0 16 0 17 0 18 0 17 0 19 0 11 0 17 0 11 0 18 0 18 0 11 0 10 0 7 0 20 0 21 0 21 0 20 0 11 0 21 0 11 0 19 0 21 0 19 0 1 0 1 0 19 0 3 0 9 0 22 0 23 0 24 0 25 0 5 0 24 0 26 0 25 0 25 0 26 0 11 0 11 0 26 0 12 0 27 0 28 0 29 0 30 0 31 0 32 0 32 0 31 0 33 0 33 0 31 0 34 0 33 0 34 0 17 0 17 0 34 0 19 0 4 0 35 0 5 0 5 0 35 0 36 0 5 0 36 0 0 0 32 0 37 0 5 0 38 0 39 0 40 0 41 0 42 0 43 0 7 0 44 0 20 0 5 0 37 0 24 0 24 0 37 0 45 0 46 0 47 0 15 0 0 0 2 0 48 0 0 0 48 0 5 0 5 0 48 0 30 0 5 0 30 0 32 0 49 0 50 0 51 0 16 0 18 0 52 0 52 0 18 0 53 0 52 0 53 0 45 0 45 0 53 0 24 0 54 0 55 0 56 0 39 0 57 0 58 0 5 0 41 0 56 0 56 0 41 0 43 0 59 0 60 0 56 0 61 0 62 0 39 0 9 0 23 0 5 0 63 0 64 0 28 0 65 0 66 0 67 0 56 0 55 0 39 0 44 0 7 0 5 0 44 0 5 0 39 0 65 0 67 0 28 0 23 0 68 0 13 0 23 0 13 0 5 0 69 0 41 0 70 0 56 0 39 0 5 0 13 0 15 0 5 0 51 0 50 0 28 0 51 0 28 0 5 0 51 0 5 0 15 0 51 0 15 0 47 0 70 0 41 0 28 0 28 0 41 0 5 0 71 1 72 1 58 1 58 1 72 1 73 1 74 2 75 2 76 2 76 2 75 2 77 2 78 3 79 3 80 3 80 3 79 3 46 3 81 1 82 1 47 1 47 1 82 1 83 1 84 3 85 3 86 3 86 3 85 3 49 3 87 1 88 1 50 1 50 1 88 1 89 1 90 4 91 4 92 4 92 4 91 4 29 4 93 5 94 5 27 5 27 5 94 5 95 5 96 3 97 3 98 3 98 3 97 3 63 3 99 6 100 6 64 6 64 6 100 6 101 6 102 3 103 3 104 3 104 3 103 3 105 3 106 6 107 6 108 6 108 6 107 6 109 6 110 4 111 4 112 4 112 4 111 4 70 4 113 1 114 1 69 1 69 1 114 1 115 1 116 4 117 4 118 4 118 4 117 4 42 4 119 1 120 1 43 1 43 1 120 1 121 1 122 4 123 4 124 4 124 4 123 4 59 4 125 6 126 6 60 6 60 6 126 6 127 6 128 3 129 3 130 3 130 3 129 3 54 3 131 6 132 6 55 6 55 6 132 6 133 6 134 3 135 3 136 3 136 3 135 3 40 3 137 1 138 1 38 1 38 1 138 1 139 1 140 3 141 3 142 3 142 3 141 3 61 3 143 1 144 1 62 1 62 1 144 1 145 1 146 7 147 7 148 7 148 7 147 7 57 7 149 8 150 8 151 8 151 8 150 8 152 8 153 3 154 3 155 3 155 3 154 3 156 3 157 9 158 9 159 9 159 9 158 9 160 9 161 7 162 7 163 7 163 7 162 7 164 7 165 10 166 10 167 10 167 10 166 10 168 10 169 11 170 11 11 11 11 11 170 11 25 11 171 12 172 12 173 12 170 13 174 13 175 13 154 14 176 14 149 14 177 15 178 15 169 15 169 16 178 16 179 16 169 17 179 17 170 17 170 18 179 18 180 18 181 19 182 19 183 19 181 20 183 20 184 20 184 14 183 14 174 14 184 14 174 14 172 14 172 21 174 21 170 21 185 22 186 22 187 22 182 23 181 23 188 23 188 24 181 24 189 24 189 25 181 25 190 25 174 26 191 26 175 26 175 27 191 27 192 27 193 14 194 14 195 14 196 28 197 28 170 28 170 29 197 29 172 29 172 30 197 30 173 30 198 31 199 31 193 31 200 32 186 32 81 32 199 33 198 33 171 33 199 34 171 34 173 34 74 35 201 35 200 35 170 36 180 36 202 36 170 37 202 37 196 37 196 38 202 38 194 38 194 14 202 14 203 14 194 14 203 14 195 14 200 35 81 35 79 35 162 39 176 39 157 39 192 40 176 40 175 40 175 41 176 41 204 41 177 42 169 42 195 42 195 14 169 14 189 14 195 14 189 14 193 14 193 43 189 43 190 43 193 44 190 44 198 44 200 45 201 45 176 45 187 46 205 46 185 46 206 14 192 14 188 14 206 14 188 14 189 14 97 14 186 14 99 14 207 47 208 47 209 47 192 48 210 48 211 48 211 49 210 49 135 49 192 50 211 50 212 50 192 14 212 14 207 14 207 51 212 51 125 51 210 49 143 49 141 49 213 52 214 52 215 52 212 53 211 53 216 53 207 51 125 51 123 51 176 54 192 54 200 54 206 55 213 55 192 55 186 14 217 14 103 14 143 56 210 56 215 56 215 57 210 57 192 57 215 58 192 58 213 58 209 14 113 14 111 14 217 14 106 14 103 14 93 14 91 14 186 14 186 59 200 59 192 59 209 14 192 14 207 14 186 14 192 14 209 14 186 14 209 14 217 14 206 60 189 60 44 60 44 60 189 60 20 60 189 61 169 61 20 61 20 61 169 61 11 61 5 62 25 62 175 62 175 62 25 62 170 62 218 3 201 3 219 3 219 3 201 3 220 3 167 63 168 63 175 63 175 63 168 63 5 63 221 11 222 11 223 11 223 11 222 11 224 11 225 11 221 11 226 11 226 11 221 11 223 11 227 11 228 11 229 11 229 11 228 11 230 11 229 11 230 11 231 11 231 11 230 11 232 11 231 11 232 11 233 11 230 11 228 11 225 11 228 11 234 11 225 11 225 11 234 11 221 11 221 11 234 11 235 11 236 0 237 0 233 0 233 0 237 0 238 0 239 61 240 61 231 61 227 14 241 14 242 14 227 14 242 14 235 14 235 14 242 14 243 14 244 62 245 62 222 62 246 0 247 0 248 0 248 0 247 0 224 0 249 63 250 63 251 63 251 63 250 63 252 63 249 63 253 63 250 63 254 63 255 63 256 63 256 63 255 63 257 63 256 63 257 63 258 63 258 63 257 63 259 63 249 63 259 63 260 63 261 63 253 63 249 63 261 63 249 63 260 63 262 63 257 63 253 63 262 63 253 63 261 63 257 63 262 63 259 63 259 63 262 63 260 63 263 63 264 63 265 63 266 63 267 63 268 63 263 63 265 63 269 63 270 63 268 63 267 63 267 63 266 63 271 63 272 63 273 63 269 63 269 63 273 63 263 63 274 63 275 63 268 63 268 63 275 63 276 63 268 63 276 63 266 63 276 63 275 63 277 63 276 63 277 63 272 63 272 63 277 63 273 63 273 63 277 63 278 63 267 0 279 0 270 0 223 61 267 61 280 61 281 0 282 0 283 0 233 62 284 62 264 62 264 62 284 62 265 62 285 0 286 0 264 0 274 14 268 14 287 14 274 14 287 14 278 14 278 14 287 14 288 14 278 14 288 14 289 14 290 11 291 11 292 11 293 11 290 11 292 11 292 11 294 11 293 11 290 11 293 11 295 11 295 11 293 11 296 11 297 11 298 11 299 11 299 11 298 11 300 11 299 11 300 11 301 11 296 11 298 11 302 11 303 11 295 11 296 11 303 11 296 11 302 11 297 11 304 11 298 11 298 11 304 11 302 11 295 11 303 11 304 11 295 11 304 11 297 11 251 11 252 11 250 11 305 11 254 11 256 11 305 11 256 11 259 11 253 11 249 11 250 11 250 11 249 11 251 11 251 11 249 11 306 11 259 11 307 11 305 11 308 11 253 11 309 11 309 11 253 11 307 11 259 11 249 11 310 11 310 11 311 11 259 11 259 11 311 11 307 11 307 11 311 11 309 11 253 11 308 11 249 11 249 11 308 11 310 11 245 62 244 62 312 62 243 14 242 14 313 14 240 61 239 61 314 61 239 63 236 63 315 63 316 63 317 63 239 63 316 63 239 63 315 63 317 63 318 63 239 63 319 63 320 63 245 63 245 63 320 63 321 63 245 63 321 63 247 63 322 63 318 63 317 63 322 63 317 63 323 63 324 63 319 63 318 63 324 63 318 63 322 63 323 63 317 63 320 63 319 63 324 63 320 63 320 63 324 63 323 63 267 61 223 61 224 61 325 61 326 61 327 61 327 61 326 61 328 61 329 64 330 64 331 64 332 14 333 14 334 14 329 65 331 65 335 65 335 66 331 66 336 66 335 67 336 67 337 67 335 68 337 68 332 68 332 69 337 69 338 69 339 70 340 70 341 70 341 71 340 71 329 71 329 72 340 72 330 72 332 14 334 14 341 14 334 73 342 73 341 73 341 74 342 74 339 74 338 75 343 75 333 75 338 76 333 76 332 76 342 77 344 77 339 77 339 78 344 78 343 78 339 79 343 79 338 79 345 80 346 80 347 80 345 65 347 65 348 65 348 81 347 81 349 81 350 82 351 82 345 82 345 83 351 83 346 83 352 84 353 84 349 84 349 85 353 85 348 85 350 86 354 86 351 86 351 87 354 87 355 87 353 14 356 14 348 14 348 14 356 14 357 14 357 14 356 14 358 14 357 14 358 14 350 14 350 14 358 14 354 14 353 88 352 88 359 88 353 89 359 89 355 89 355 90 359 90 351 90 360 62 361 62 362 62 362 62 361 62 363 62 364 62 365 62 366 62 366 62 365 62 367 62 368 0 369 0 370 0 370 0 369 0 247 0 371 91 321 91 372 91 371 91 372 91 373 91 373 92 372 92 374 92 373 92 374 92 375 92 375 93 374 93 376 93 375 93 376 93 377 93 377 94 376 94 378 94 377 94 378 94 379 94 379 95 378 95 380 95 379 95 380 95 381 95 381 96 380 96 382 96 381 96 382 96 383 96 384 97 315 97 385 97 384 97 385 97 386 97 386 98 385 98 387 98 386 98 387 98 388 98 388 99 387 99 389 99 388 99 389 99 390 99 390 100 389 100 391 100 390 100 391 100 392 100 392 101 391 101 393 101 392 101 393 101 394 101 394 102 393 102 395 102 394 102 395 102 396 102 286 0 397 0 236 0 236 0 397 0 398 0 315 11 236 11 328 11 350 11 399 11 400 11 370 11 247 11 382 11 370 11 382 11 321 11 321 11 401 11 399 11 399 11 401 11 400 11 400 11 401 11 402 11 402 11 401 11 403 11 395 11 315 11 328 11 395 11 328 11 403 11 403 11 328 11 402 11 402 11 328 11 326 11 399 11 370 11 321 11 383 63 369 63 368 63 404 63 405 63 362 63 406 63 397 63 407 63 408 63 409 63 286 63 368 63 405 63 371 63 368 63 371 63 383 63 397 63 286 63 409 63 397 63 409 63 407 63 407 63 409 63 404 63 404 63 409 63 410 63 404 63 410 63 405 63 405 63 410 63 371 63 404 14 411 14 407 14 407 14 411 14 402 14 412 63 298 63 299 63 412 63 299 63 301 63 298 63 297 63 299 63 298 63 413 63 297 63 413 63 414 63 297 63 297 63 414 63 295 63 295 63 414 63 415 63 415 63 416 63 296 63 296 63 416 63 298 63 298 63 416 63 413 63 295 63 415 63 296 63 295 63 296 63 290 63 290 63 296 63 293 63 290 63 293 63 292 63 290 63 292 63 291 63 417 62 418 62 419 62 419 62 418 62 420 62 279 0 267 0 369 0 282 0 281 0 421 0 286 0 285 0 422 0 263 61 423 61 424 61 424 61 423 61 425 61 420 11 369 11 383 11 426 11 427 11 428 11 420 11 383 11 427 11 427 11 429 11 420 11 430 11 426 11 428 11 431 11 429 11 427 11 431 11 427 11 426 11 429 11 431 11 430 11 429 11 430 11 432 11 432 11 430 11 428 11 432 11 428 11 424 11 424 11 428 11 396 11 424 11 396 11 286 11 433 103 434 103 435 103 435 104 434 104 436 104 437 105 438 105 439 105 439 106 438 106 440 106 440 0 441 0 442 0 434 107 433 107 443 107 434 108 443 108 440 108 440 0 443 0 444 0 438 109 437 109 445 109 438 110 445 110 436 110 436 111 445 111 446 111 447 112 448 112 449 112 447 113 449 113 444 113 444 114 449 114 440 114 440 115 449 115 441 115 436 116 450 116 451 116 436 117 451 117 452 117 453 0 454 0 455 0 455 118 454 118 456 118 435 119 436 119 457 119 457 120 436 120 452 120 457 121 452 121 458 121 458 122 452 122 453 122 458 0 453 0 447 0 447 0 453 0 455 0 447 0 455 0 448 0 455 0 459 0 460 0 460 0 459 0 461 0 460 0 461 0 462 0 462 123 461 123 439 123 462 124 439 124 440 124 462 0 440 0 442 0 450 125 436 125 463 125 463 126 436 126 446 126 463 127 446 127 464 127 463 128 464 128 456 128 456 129 464 129 455 129 455 130 464 130 459 130 465 11 466 11 467 11 467 11 466 11 438 11 468 11 469 11 436 11 436 11 469 11 470 11 471 11 438 11 436 11 471 11 436 11 470 11 471 11 470 11 472 11 473 11 474 11 471 11 471 11 474 11 467 11 471 11 467 11 438 11 475 63 476 63 477 63 478 63 479 63 477 63 477 63 479 63 434 63 477 63 434 63 475 63 480 63 481 63 440 63 440 63 481 63 482 63 440 63 475 63 434 63 475 63 440 63 482 63 475 63 482 63 483 63 475 63 483 63 484 63 485 14 486 14 487 14 488 14 471 14 489 14 488 14 489 14 490 14 488 14 491 14 471 14 471 14 491 14 492 14 491 14 493 14 492 14 492 14 493 14 494 14 490 14 489 14 495 14 489 14 475 14 496 14 496 14 497 14 489 14 489 14 497 14 498 14 475 14 499 14 496 14 487 14 500 14 485 14 486 14 501 14 502 14 502 14 501 14 503 14 503 14 501 14 504 14 505 14 506 14 507 14 506 14 505 14 508 14 509 14 510 14 511 14 512 14 513 14 514 14 509 14 511 14 514 14 514 14 511 14 512 14 514 14 513 14 515 14 514 14 515 14 516 14 516 14 515 14 517 14 495 14 515 14 518 14 519 14 520 14 521 14 521 14 520 14 522 14 495 14 518 14 519 14 495 14 519 14 521 14 523 14 524 14 521 14 521 14 524 14 525 14 494 14 526 14 492 14 492 14 526 14 527 14 528 14 527 14 526 14 521 14 525 14 526 14 526 14 525 14 528 14 471 14 492 14 529 14 471 14 529 14 530 14 471 14 530 14 531 14 530 14 532 14 531 14 531 14 532 14 523 14 533 14 521 14 509 14 509 14 521 14 522 14 509 14 522 14 510 14 534 14 535 14 502 14 502 14 535 14 536 14 502 14 536 14 509 14 503 14 534 14 502 14 509 14 536 14 533 14 533 14 537 14 521 14 521 14 537 14 538 14 538 14 539 14 521 14 521 14 539 14 540 14 540 14 539 14 541 14 541 14 503 14 540 14 542 14 543 14 507 14 544 14 521 14 507 14 544 14 507 14 543 14 506 14 542 14 507 14 544 14 545 14 521 14 521 14 545 14 546 14 521 14 546 14 531 14 521 14 531 14 523 14 547 14 548 14 506 14 546 14 549 14 531 14 531 14 549 14 550 14 550 14 551 14 531 14 531 14 551 14 547 14 547 14 551 14 548 14 552 14 484 14 553 14 552 14 553 14 554 14 484 14 552 14 555 14 484 14 555 14 556 14 556 14 555 14 557 14 556 14 557 14 558 14 486 14 502 14 556 14 486 14 556 14 487 14 487 14 556 14 558 14 487 14 558 14 559 14 487 14 559 14 560 14 553 14 561 14 554 14 560 14 562 14 487 14 487 14 562 14 553 14 553 14 562 14 561 14 563 14 564 14 553 14 553 14 564 14 565 14 553 14 565 14 487 14 487 14 565 14 566 14 504 14 500 14 503 14 503 14 500 14 487 14 503 14 487 14 567 14 567 14 487 14 566 14 568 14 563 14 553 14 569 14 570 14 508 14 508 14 570 14 568 14 568 14 570 14 571 14 568 14 571 14 563 14 566 14 572 14 567 14 567 14 572 14 508 14 508 14 572 14 569 14 568 14 573 14 574 14 575 14 508 14 576 14 576 14 508 14 568 14 576 14 568 14 574 14 508 14 575 14 577 14 473 14 578 14 573 14 471 14 547 14 579 14 471 14 579 14 580 14 471 14 580 14 473 14 473 14 580 14 578 14 475 14 509 14 514 14 475 14 514 14 499 14 499 14 514 14 516 14 495 14 489 14 515 14 515 14 489 14 498 14 515 14 498 14 517 14 567 14 540 14 503 14 540 14 507 14 521 14 495 14 521 14 526 14 495 14 526 14 494 14 577 14 581 14 508 14 508 14 581 14 547 14 508 14 547 14 506 14 547 14 471 14 531 14 568 14 473 14 573 14 469 61 478 61 470 61 470 61 478 61 477 61 481 62 465 62 482 62 482 62 465 62 467 62 466 61 480 61 438 61 438 61 480 61 440 61 466 0 582 0 480 0 480 0 582 0 583 0 584 0 480 0 585 0 585 0 480 0 583 0 585 0 583 0 586 0 465 0 587 0 466 0 466 0 587 0 588 0 466 0 588 0 582 0 589 0 481 0 590 0 590 0 481 0 480 0 590 0 480 0 584 0 481 0 589 0 591 0 481 0 591 0 465 0 465 0 591 0 592 0 583 0 593 0 586 0 586 0 593 0 594 0 586 0 594 0 592 0 592 0 594 0 595 0 592 0 595 0 465 0 465 0 595 0 587 0 479 62 468 62 434 62 434 62 468 62 436 62 468 0 596 0 597 0 479 0 598 0 599 0 479 0 599 0 468 0 468 0 599 0 596 0 596 0 599 0 600 0 596 0 600 0 601 0 478 0 602 0 479 0 479 0 602 0 603 0 479 0 603 0 598 0 604 0 605 0 469 0 469 0 605 0 478 0 478 0 605 0 602 0 606 0 469 0 468 0 606 0 468 0 597 0 606 0 607 0 469 0 469 0 607 0 604 0 607 0 608 0 604 0 604 0 608 0 600 0 600 0 608 0 609 0 600 0 609 0 601 0 596 131 610 131 611 131 611 131 610 131 612 131 611 132 612 132 613 132 613 132 612 132 614 132 613 133 614 133 615 133 615 133 614 133 616 133 615 134 616 134 617 134 617 134 616 134 618 134 617 135 618 135 607 135 607 135 618 135 619 135 607 136 619 136 620 136 620 136 619 136 621 136 620 137 621 137 622 137 622 137 621 137 623 137 622 138 623 138 608 138 608 138 623 138 624 138 608 139 624 139 609 139 609 139 624 139 495 139 609 140 495 140 601 140 601 140 495 140 625 140 601 141 625 141 626 141 626 141 625 141 627 141 626 142 627 142 596 142 596 142 627 142 610 142 628 131 629 131 630 131 630 131 629 131 631 131 630 143 631 143 632 143 632 143 631 143 633 143 632 133 633 133 634 133 634 133 633 133 635 133 634 134 635 134 604 134 604 134 635 134 636 134 604 144 636 144 605 144 605 144 636 144 497 144 605 136 497 136 637 136 637 136 497 136 638 136 637 145 638 145 639 145 639 145 638 145 640 145 639 146 640 146 641 146 641 146 640 146 642 146 641 139 642 139 603 139 603 139 642 139 499 139 603 140 499 140 643 140 643 140 499 140 644 140 643 147 644 147 645 147 645 147 644 147 646 147 645 148 646 148 628 148 628 148 646 148 629 148 647 149 648 149 591 149 591 149 648 149 649 149 591 150 649 150 650 150 650 150 649 150 651 150 650 133 651 133 652 133 652 133 651 133 653 133 652 134 653 134 586 134 586 134 653 134 654 134 586 151 654 151 655 151 655 151 654 151 656 151 655 152 656 152 585 152 585 152 656 152 657 152 585 153 657 153 658 153 658 153 657 153 659 153 658 154 659 154 660 154 660 154 659 154 661 154 660 139 661 139 590 139 590 139 661 139 486 139 590 140 486 140 662 140 662 140 486 140 663 140 662 155 663 155 664 155 664 155 663 155 665 155 664 156 665 156 647 156 647 156 665 156 648 156 666 149 667 149 595 149 595 149 667 149 668 149 595 157 668 157 587 157 587 157 668 157 669 157 587 133 669 133 670 133 670 133 669 133 671 133 670 134 671 134 672 134 672 134 671 134 673 134 672 158 673 158 674 158 674 158 673 158 675 158 674 152 675 152 676 152 676 152 675 152 677 152 676 159 677 159 678 159 678 159 677 159 679 159 678 160 679 160 680 160 680 160 679 160 681 160 680 139 681 139 593 139 593 139 681 139 682 139 593 140 682 140 594 140 594 140 682 140 683 140 594 161 683 161 684 161 684 161 683 161 685 161 684 162 685 162 666 162 666 162 685 162 667 162 686 0 467 0 687 0 687 0 467 0 474 0 687 0 474 0 688 0 689 163 690 163 482 163 482 164 690 164 691 164 482 165 691 165 483 165 691 166 692 166 483 166 483 0 692 0 693 0 694 167 483 167 693 167 686 0 695 0 467 0 467 0 695 0 696 0 697 0 467 0 698 0 698 0 467 0 696 0 694 168 699 168 483 168 483 0 699 0 474 0 474 0 699 0 688 0 700 169 701 169 697 169 697 170 701 170 702 170 697 171 702 171 467 171 467 172 702 172 482 172 482 173 702 173 689 173 701 174 700 174 703 174 701 175 703 175 693 175 693 176 703 176 694 176 694 177 704 177 699 177 699 0 704 0 705 0 705 0 704 0 706 0 705 0 706 0 696 0 696 0 706 0 698 0 473 62 484 62 474 62 474 62 484 62 483 62 476 0 472 0 477 0 477 0 472 0 470 0 471 61 472 61 476 61 471 61 476 61 475 61 707 0 708 0 709 0 709 0 708 0 710 0 711 0 712 0 707 0 707 0 712 0 708 0 712 0 711 0 713 0 712 0 713 0 714 0 712 0 714 0 715 0 715 0 714 0 716 0 710 0 717 0 718 0 710 0 718 0 709 0 716 0 719 0 720 0 709 0 718 0 716 0 716 0 718 0 719 0 716 0 720 0 715 0 715 0 720 0 721 0 721 0 722 0 715 0 715 0 722 0 710 0 710 0 722 0 717 0 723 61 724 61 725 61 726 61 727 61 723 61 728 61 724 61 723 61 723 61 727 61 729 61 723 61 729 61 730 61 723 61 730 61 731 61 731 61 730 61 732 61 731 61 732 61 733 61 731 61 733 61 708 61 708 61 733 61 734 61 726 61 723 61 725 61 726 61 725 61 735 61 708 61 736 61 710 61 710 61 736 61 737 61 708 61 734 61 735 61 710 61 737 61 723 61 723 61 737 61 728 61 735 61 725 61 738 61 735 61 738 61 708 61 708 61 738 61 736 61 739 14 740 14 741 14 742 14 743 14 723 14 741 14 740 14 744 14 741 14 744 14 745 14 741 14 746 14 739 14 746 14 747 14 739 14 739 14 747 14 731 14 731 14 747 14 748 14 749 14 742 14 750 14 750 14 742 14 723 14 723 14 743 14 740 14 740 14 743 14 751 14 751 14 744 14 740 14 741 14 745 14 749 14 749 14 745 14 742 14 731 14 748 14 752 14 731 14 752 14 723 14 723 14 752 14 750 14 715 62 753 62 754 62 755 62 712 62 756 62 756 62 712 62 715 62 756 62 715 62 754 62 712 62 755 62 739 62 755 62 757 62 739 62 740 62 758 62 715 62 715 62 758 62 753 62 754 62 759 62 756 62 760 62 761 62 739 62 739 62 761 62 740 62 740 62 761 62 762 62 740 62 762 62 758 62 757 62 763 62 739 62 739 62 763 62 760 62 760 62 763 62 759 62 760 62 759 62 754 62 723 11 740 11 710 11 710 11 740 11 715 11 739 63 731 63 712 63 712 63 731 63 708 63 764 61 765 61 766 61 767 61 768 61 769 61 770 61 771 61 772 61 767 61 769 61 773 61 773 61 769 61 774 61 770 61 772 61 775 61 775 61 772 61 776 61 775 61 776 61 777 61 777 61 776 61 766 61 766 61 776 61 764 61 778 61 779 61 780 61 780 61 779 61 781 61 780 61 781 61 782 61 782 61 781 61 783 61 782 61 783 61 784 61 782 61 784 61 785 61 785 61 784 61 786 61 785 61 786 61 787 61 785 61 787 61 788 61 788 61 787 61 774 61 789 61 790 61 791 61 769 61 792 61 774 61 774 61 792 61 793 61 774 61 793 61 788 61 788 61 793 61 794 61 788 61 794 61 789 61 789 61 794 61 790 61 794 61 795 61 790 61 790 61 795 61 796 61 796 61 795 61 797 61 796 61 797 61 770 61 770 61 797 61 771 61 771 61 797 61 798 61 771 61 798 61 768 61 768 61 798 61 799 61 768 61 799 61 769 61 791 61 800 61 789 61 789 61 800 61 801 61 789 61 801 61 778 61 778 61 801 61 802 61 778 61 802 61 779 61 803 61 766 61 804 61 803 61 804 61 805 61 806 61 807 61 808 61 808 61 809 61 806 61 806 61 809 61 804 61 804 61 809 61 805 61 803 61 810 61 766 61 766 61 810 61 777 61 777 61 810 61 811 61 777 61 811 61 808 61 808 61 811 61 812 61 808 61 812 61 809 61 813 61 814 61 766 61 815 61 816 61 804 61 804 61 816 61 817 61 766 61 818 61 813 61 813 61 818 61 819 61 774 61 820 61 773 61 773 61 820 61 821 61 773 61 821 61 765 61 765 61 821 61 822 61 765 61 822 61 766 61 814 61 823 61 766 61 766 61 823 61 804 61 804 61 823 61 815 61 816 61 824 61 817 61 817 61 824 61 825 61 825 61 824 61 813 61 825 61 813 61 819 61 826 62 827 62 828 62 829 62 830 62 831 62 832 62 829 62 833 62 828 62 827 62 834 62 834 62 827 62 835 62 834 62 835 62 836 62 834 62 836 62 837 62 837 62 836 62 838 62 837 62 838 62 839 62 837 62 839 62 840 62 841 62 842 62 843 62 843 62 842 62 844 62 844 62 842 62 845 62 844 62 845 62 846 62 846 62 845 62 847 62 826 62 848 62 849 62 849 62 848 62 850 62 849 62 850 62 851 62 832 62 833 62 852 62 831 62 830 62 853 62 853 62 830 62 846 62 853 62 846 62 847 62 853 62 847 62 854 62 854 62 847 62 855 62 854 62 855 62 856 62 856 62 855 62 857 62 826 62 828 62 858 62 826 62 858 62 848 62 848 62 858 62 859 62 859 62 858 62 833 62 859 62 833 62 829 62 859 62 829 62 831 62 840 62 839 62 860 62 840 62 860 62 833 62 833 62 860 62 861 62 833 62 861 62 852 62 862 62 863 62 857 62 851 62 856 62 849 62 849 62 856 62 857 62 849 62 857 62 864 62 864 62 857 62 863 62 841 62 865 62 866 62 866 62 865 62 862 62 866 62 862 62 857 62 867 62 868 62 869 62 869 62 868 62 870 62 868 62 867 62 871 62 868 62 871 62 872 62 872 62 871 62 873 62 873 62 874 62 841 62 841 62 874 62 865 62 874 62 875 62 865 62 865 62 875 62 876 62 876 62 875 62 869 62 876 62 869 62 870 62 841 62 877 62 878 62 872 62 878 62 879 62 872 62 873 62 841 62 872 62 841 62 878 62 872 62 879 62 880 62 872 62 880 62 881 62 881 62 880 62 882 62 883 62 881 62 884 62 884 62 881 62 882 62 884 62 882 62 843 62 843 62 882 62 885 62 843 62 885 62 841 62 841 62 885 62 877 62 886 178 887 178 770 178 770 178 887 178 846 178 770 179 846 179 796 179 796 179 846 179 830 179 796 180 830 180 790 180 790 180 830 180 829 180 790 181 829 181 791 181 791 181 829 181 832 181 791 182 832 182 888 182 888 182 832 182 889 182 888 183 889 183 852 183 888 183 852 183 800 183 800 184 852 184 861 184 800 184 861 184 801 184 801 185 861 185 890 185 801 185 890 185 891 185 802 63 891 63 860 63 860 63 891 63 890 63 802 186 860 186 892 186 802 186 892 186 779 186 779 187 892 187 893 187 779 187 893 187 894 187 894 188 893 188 838 188 894 188 838 188 895 188 895 189 838 189 836 189 895 189 836 189 783 189 783 190 836 190 835 190 783 190 835 190 784 190 784 191 835 191 827 191 784 191 827 191 786 191 786 192 827 192 826 192 786 192 826 192 787 192 862 193 821 193 863 193 863 194 821 194 820 194 863 194 820 194 864 194 864 195 820 195 774 195 864 195 774 195 849 195 849 196 774 196 787 196 849 196 787 196 826 196 896 197 897 197 865 197 865 197 897 197 766 197 865 198 766 198 862 198 862 198 766 198 822 198 862 193 822 193 821 193 898 11 899 11 900 11 900 11 899 11 901 11 881 0 806 0 868 0 868 0 806 0 817 0 806 199 881 199 902 199 806 199 902 199 903 199 903 200 902 200 904 200 903 200 904 200 905 200 905 201 904 201 884 201 905 201 884 201 808 201 906 63 808 63 907 63 907 63 808 63 884 63 906 202 907 202 777 202 777 202 907 202 843 202 777 203 843 203 775 203 843 203 844 203 775 203 775 204 844 204 887 204 775 204 887 204 886 204 908 0 909 0 910 0 910 0 909 0 911 0 912 0 913 0 908 0 908 0 913 0 909 0 913 0 912 0 914 0 913 0 914 0 915 0 913 0 915 0 916 0 916 0 915 0 917 0 911 0 918 0 919 0 911 0 919 0 910 0 917 0 920 0 921 0 910 0 919 0 917 0 917 0 919 0 920 0 917 0 921 0 916 0 916 0 921 0 922 0 922 0 923 0 916 0 916 0 923 0 911 0 911 0 923 0 918 0 924 61 925 61 926 61 927 61 928 61 924 61 929 61 925 61 924 61 924 61 928 61 930 61 924 61 930 61 931 61 924 61 931 61 932 61 932 61 931 61 933 61 932 61 933 61 934 61 932 61 934 61 909 61 909 61 934 61 935 61 927 61 924 61 926 61 927 61 926 61 936 61 909 61 937 61 911 61 911 61 937 61 938 61 909 61 935 61 936 61 911 61 938 61 924 61 924 61 938 61 929 61 936 61 926 61 939 61 936 61 939 61 909 61 909 61 939 61 937 61 940 14 941 14 942 14 943 14 944 14 924 14 942 14 941 14 945 14 942 14 945 14 946 14 942 14 947 14 940 14 947 14 948 14 940 14 940 14 948 14 932 14 932 14 948 14 949 14 950 14 943 14 951 14 951 14 943 14 924 14 924 14 944 14 941 14 941 14 944 14 952 14 952 14 945 14 941 14 942 14 946 14 950 14 950 14 946 14 943 14 932 14 949 14 953 14 932 14 953 14 924 14 924 14 953 14 951 14 916 62 954 62 955 62 956 62 913 62 957 62 957 62 913 62 916 62 957 62 916 62 955 62 913 62 956 62 940 62 956 62 958 62 940 62 941 62 959 62 916 62 916 62 959 62 954 62 955 62 960 62 957 62 961 62 962 62 940 62 940 62 962 62 941 62 941 62 962 62 963 62 941 62 963 62 959 62 958 62 964 62 940 62 940 62 964 62 961 62 961 62 964 62 960 62 961 62 960 62 955 62 924 11 941 11 911 11 911 11 941 11 916 11 940 63 932 63 913 63 913 63 932 63 909 63 965 61 966 61 967 61 968 61 969 61 970 61 970 61 969 61 971 61 970 61 971 61 972 61 968 61 970 61 973 61 968 61 973 61 974 61 974 61 973 61 975 61 974 61 975 61 976 61 977 61 978 61 979 61 979 61 978 61 980 61 971 61 969 61 981 61 971 61 981 61 982 61 982 61 981 61 983 61 983 61 981 61 979 61 983 61 979 61 984 61 984 61 979 61 980 61 985 61 965 61 967 61 979 61 986 61 977 61 977 61 986 61 975 61 975 61 986 61 976 61 975 61 987 61 977 61 977 61 987 61 988 61 988 61 987 61 989 61 988 61 989 61 990 61 990 61 989 61 991 61 972 61 971 61 992 61 992 61 971 61 993 61 993 61 971 61 994 61 995 61 996 61 967 61 967 61 996 61 997 61 997 61 998 61 967 61 967 61 998 61 990 61 967 61 990 61 985 61 985 61 990 61 991 61 999 61 995 61 967 61 990 61 998 61 1000 61 990 61 1000 61 1001 61 1001 61 1000 61 1002 61 1001 61 1002 61 1003 61 1003 61 1002 61 1004 61 1003 61 1004 61 1005 61 1005 61 1004 61 995 61 995 61 1004 61 996 61 1006 61 1007 61 1008 61 1006 61 1008 61 1009 61 1009 61 1008 61 1001 61 1009 61 1001 61 1003 61 1006 61 1010 61 1007 61 1007 61 1010 61 1011 61 1011 61 1010 61 999 61 1011 61 999 61 1012 61 967 61 1013 61 1014 61 1012 61 999 61 967 61 1012 61 967 61 1014 61 1015 61 1016 61 1017 61 1015 61 1013 61 1016 61 1016 61 1013 61 967 61 1016 61 967 61 1018 61 1018 61 967 61 966 61 1018 61 966 61 1019 61 1019 61 966 61 972 61 1019 61 972 61 992 61 1020 61 1021 61 1022 61 1022 61 1021 61 1023 61 1022 61 1023 61 1024 61 1024 61 1023 61 1025 61 1024 61 1025 61 1026 61 1026 61 1025 61 1012 61 1026 61 1012 61 1014 61 1017 61 1027 61 1015 61 1015 61 1027 61 1028 61 1015 61 1028 61 1020 61 1020 61 1028 61 1029 61 1020 61 1029 61 1021 61 1030 62 1031 62 1032 62 1033 62 1034 62 1035 62 1036 62 1037 62 1038 62 1039 62 1040 62 1037 62 1039 62 1037 62 1036 62 1041 62 1042 62 1037 62 1037 62 1042 62 1035 62 1034 62 1038 62 1035 62 1035 62 1038 62 1037 62 1043 62 1044 62 1045 62 1043 62 1045 62 1046 62 1047 62 1048 62 1049 62 1050 62 1051 62 1052 62 1041 62 1037 62 1045 62 1045 62 1037 62 1053 62 1045 62 1053 62 1054 62 1045 62 1054 62 1046 62 1042 62 1055 62 1035 62 1035 62 1055 62 1056 62 1056 62 1055 62 1049 62 1056 62 1049 62 1048 62 1057 62 1048 62 1043 62 1043 62 1048 62 1047 62 1043 62 1047 62 1044 62 1052 62 1051 62 1058 62 1052 62 1058 62 1059 62 1059 62 1058 62 1060 62 1059 62 1060 62 1061 62 1061 62 1060 62 1062 62 1061 62 1062 62 1043 62 1043 62 1062 62 1057 62 1032 62 1031 62 1052 62 1052 62 1031 62 1063 62 1052 62 1063 62 1064 62 1065 62 1066 62 1067 62 1035 62 1050 62 1033 62 1033 62 1050 62 1052 62 1033 62 1052 62 1068 62 1068 62 1052 62 1064 62 1068 62 1064 62 1069 62 1069 62 1064 62 1070 62 1067 62 1066 62 1071 62 1071 62 1066 62 1032 62 1032 62 1066 62 1030 62 1065 62 1067 62 1072 62 1065 62 1072 62 1064 62 1064 62 1072 62 1073 62 1064 62 1073 62 1070 62 1074 62 1059 62 1075 62 1074 62 1075 62 1076 62 1032 62 1077 62 1078 62 1074 62 1079 62 1059 62 1059 62 1079 62 1052 62 1052 62 1079 62 1080 62 1052 62 1080 62 1081 62 1052 62 1081 62 1082 62 1083 62 1084 62 1085 62 1083 62 1085 62 1086 62 1086 62 1085 62 1087 62 1087 62 1085 62 1075 62 1087 62 1075 62 1059 62 1084 62 1083 62 1077 62 1077 62 1083 62 1078 62 1082 62 1081 62 1088 62 1082 62 1088 62 1089 62 1089 62 1088 62 1090 62 1090 62 1088 62 1076 62 1090 62 1076 62 1075 62 1052 62 1082 62 1077 62 1052 62 1077 62 1032 62 1091 178 1092 178 1019 178 1019 178 1092 178 1093 178 1018 179 1019 179 1094 179 1016 180 1018 180 1095 180 1016 181 1095 181 1017 181 1017 181 1095 181 1096 181 1017 182 1096 182 1097 182 1097 183 1098 183 1027 183 1027 184 1099 184 1100 184 1027 184 1100 184 1028 184 1028 185 1101 185 1102 185 1029 63 1102 63 1103 63 1029 186 1103 186 1021 186 1021 187 1104 187 1105 187 1105 188 1104 188 1106 188 1106 189 1107 189 1025 189 1025 205 1108 205 1012 205 1012 205 1108 205 1032 205 1011 192 1109 192 1110 192 1011 192 1110 192 1007 192 1007 206 1083 206 1086 206 1007 206 1086 206 1008 206 1008 207 1086 207 1087 207 1008 207 1087 207 1001 207 1001 208 1087 208 1111 208 1001 208 1111 208 990 208 990 209 1111 209 1112 209 1112 209 1111 209 1113 209 1112 210 1113 210 988 210 1113 210 1061 210 988 210 988 211 1061 211 1043 211 988 211 1043 211 977 211 993 212 1036 212 1038 212 993 212 1038 212 992 212 992 213 1038 213 1114 213 992 213 1114 213 1091 213 1115 0 1116 0 1117 0 1117 0 1116 0 1118 0 1006 214 1009 214 1085 214 1085 214 1009 214 1075 214 1119 14 1005 14 1090 14 1090 14 1005 14 1089 14 1120 11 1121 11 1122 11 1122 11 1121 11 1123 11 965 215 1051 215 1124 215 1124 215 1051 215 1125 215 1124 216 1125 216 1126 216 1126 216 1125 216 1127 216 1126 217 1127 217 966 217 966 217 1127 217 1050 217 965 0 985 0 1051 0 1051 0 985 0 1058 0 991 218 1060 218 1128 218 1128 218 1060 218 1129 218 1128 219 1129 219 1130 219 1130 219 1129 219 1131 219 1130 220 1131 220 985 220 985 220 1131 220 1058 220 991 221 989 221 1060 221 1060 221 989 221 1062 221 1132 222 1133 222 1134 222 1134 222 1133 222 1135 222 1134 223 1135 223 987 223 987 223 1135 223 1136 223 987 224 1136 224 1137 224 1137 224 1136 224 1138 224 1137 225 1138 225 989 225 989 225 1138 225 1062 225 1132 14 973 14 1133 14 1133 14 973 14 1056 14 972 226 1139 226 1140 226 1140 226 1139 226 1141 226 1140 227 1141 227 1142 227 1142 227 1141 227 1143 227 1142 228 1143 228 973 228 973 228 1143 228 1056 228 972 11 966 11 1139 11 1139 11 966 11 1050 11 1144 229 1145 229 1146 229 1146 229 1145 229 1147 229 1148 230 1146 230 1149 230 1148 231 1149 231 1024 231 1024 232 1150 232 1151 232 1152 233 1151 233 1153 233 1154 234 1152 234 1155 234 1156 235 1020 235 1157 235 1156 236 1157 236 1015 236 1015 237 1158 237 1013 237 1013 237 1158 237 1159 237 1014 238 1013 238 1160 238 1014 239 1160 239 1144 239 1144 239 1160 239 1145 239 1161 240 1162 240 1163 240 1163 240 1162 240 1164 240 1163 241 1164 241 1165 241 1166 242 1167 242 1168 242 1169 243 1170 243 1171 243 1171 244 1172 244 1173 244 1173 244 1172 244 1174 244 1173 245 1174 245 1175 245 1175 245 1174 245 1176 245 1177 246 1175 246 1178 246 1177 237 1178 237 998 237 998 237 1178 237 1179 237 1180 247 1181 247 1182 247 1182 248 1183 248 976 248 976 248 1183 248 1184 248 976 231 1184 231 1185 231 1185 231 1184 231 1186 231 974 242 1185 242 1187 242 1188 249 974 249 1189 249 1188 250 1189 250 1190 250 1191 251 1190 251 1192 251 969 245 1191 245 1193 245 1194 246 969 246 1195 246 1194 237 1195 237 1196 237 1196 252 1197 252 979 252 979 252 1197 252 1198 252 1037 0 971 0 1053 0 1053 0 971 0 982 0 971 253 1037 253 1199 253 971 253 1199 253 1200 253 1200 254 1199 254 1201 254 1200 254 1201 254 1202 254 1202 255 1201 255 1203 255 1202 255 1203 255 1204 255 1204 256 1203 256 1039 256 1204 256 1039 256 1205 256 1205 257 1039 257 1036 257 1205 257 1036 257 993 257 977 258 1043 258 1206 258 977 258 1206 258 978 258 978 259 1206 259 1207 259 978 259 1207 259 980 259 980 260 1207 260 1046 260 980 260 1046 260 984 260 984 261 1046 261 1054 261 984 261 1054 261 983 261 983 262 1054 262 1053 262 983 262 1053 262 982 262 1208 61 1209 61 1210 61 1047 61 1211 61 1074 61 1034 61 1049 61 1055 61 1047 61 1074 61 1212 61 1212 61 1074 61 1213 61 1034 61 1055 61 1214 61 1214 61 1055 61 1215 61 1214 61 1215 61 1216 61 1216 61 1215 61 1210 61 1210 61 1215 61 1208 61 1217 61 1218 61 1219 61 1219 61 1218 61 1220 61 1219 61 1220 61 1221 61 1221 61 1220 61 1108 61 1221 61 1108 61 1222 61 1221 61 1222 61 1223 61 1223 61 1222 61 1078 61 1223 61 1078 61 1083 61 1223 61 1083 61 1063 61 1063 61 1083 61 1213 61 1064 61 1068 61 1069 61 1074 61 1224 61 1213 61 1213 61 1224 61 1225 61 1213 61 1225 61 1063 61 1063 61 1225 61 1226 61 1063 61 1226 61 1064 61 1064 61 1226 61 1068 61 1226 61 1081 61 1068 61 1068 61 1081 61 1033 61 1033 61 1081 61 1227 61 1033 61 1227 61 1034 61 1034 61 1227 61 1049 61 1049 61 1227 61 1228 61 1049 61 1228 61 1211 61 1211 61 1228 61 1079 61 1211 61 1079 61 1074 61 1069 61 1070 61 1064 61 1064 61 1070 61 1073 61 1064 61 1073 61 1217 61 1217 61 1073 61 1072 61 1217 61 1072 61 1218 61 1229 61 1210 61 1230 61 1229 61 1230 61 1231 61 1232 61 1233 61 1234 61 1234 61 1235 61 1232 61 1232 61 1235 61 1230 61 1230 61 1235 61 1231 61 1229 61 1236 61 1210 61 1210 61 1236 61 1216 61 1216 61 1236 61 1237 61 1216 61 1237 61 1234 61 1234 61 1237 61 1238 61 1234 61 1238 61 1235 61 1239 61 1240 61 1210 61 1241 61 1242 61 1230 61 1230 61 1242 61 1243 61 1210 61 1244 61 1239 61 1239 61 1244 61 1245 61 1213 61 1246 61 1212 61 1212 61 1246 61 1247 61 1212 61 1247 61 1209 61 1209 61 1247 61 1248 61 1209 61 1248 61 1210 61 1240 61 1249 61 1210 61 1210 61 1249 61 1230 61 1230 61 1249 61 1241 61 1242 61 1250 61 1243 61 1243 61 1250 61 1251 61 1251 61 1250 61 1239 61 1251 61 1239 61 1245 61 1110 62 1109 62 1252 62 1095 62 1094 62 1253 62 1096 62 1095 62 1158 62 1252 62 1109 62 1254 62 1254 62 1109 62 1255 62 1254 62 1255 62 1256 62 1254 62 1256 62 1257 62 1257 62 1256 62 1107 62 1257 62 1107 62 1258 62 1257 62 1258 62 1259 62 1260 62 1261 62 1262 62 1262 62 1261 62 1263 62 1263 62 1261 62 1264 62 1263 62 1264 62 1093 62 1093 62 1264 62 1187 62 1110 62 1265 62 1266 62 1266 62 1265 62 1267 62 1266 62 1267 62 1164 62 1096 62 1158 62 1099 62 1253 62 1094 62 1178 62 1178 62 1094 62 1093 62 1178 62 1093 62 1187 62 1178 62 1187 62 1179 62 1179 62 1187 62 1186 62 1179 62 1186 62 1268 62 1268 62 1186 62 1269 62 1110 62 1252 62 1159 62 1110 62 1159 62 1265 62 1265 62 1159 62 1168 62 1168 62 1159 62 1158 62 1168 62 1158 62 1095 62 1168 62 1095 62 1253 62 1259 62 1258 62 1103 62 1259 62 1103 62 1158 62 1158 62 1103 62 1100 62 1158 62 1100 62 1099 62 1270 62 1271 62 1269 62 1164 62 1268 62 1266 62 1266 62 1268 62 1269 62 1266 62 1269 62 1272 62 1272 62 1269 62 1271 62 1260 62 1273 62 1274 62 1274 62 1273 62 1270 62 1274 62 1270 62 1269 62 1275 62 1276 62 1277 62 1277 62 1276 62 1278 62 1276 62 1275 62 1279 62 1276 62 1279 62 1280 62 1280 62 1279 62 1281 62 1281 62 1282 62 1260 62 1260 62 1282 62 1273 62 1282 62 1283 62 1273 62 1273 62 1283 62 1284 62 1284 62 1283 62 1277 62 1284 62 1277 62 1278 62 1260 62 1285 62 1286 62 1280 62 1286 62 1287 62 1280 62 1281 62 1260 62 1280 62 1260 62 1286 62 1280 62 1287 62 1288 62 1280 62 1288 62 1289 62 1289 62 1288 62 1290 62 1291 62 1289 62 1292 62 1292 62 1289 62 1290 62 1292 62 1290 62 1262 62 1262 62 1290 62 1293 62 1262 62 1293 62 1260 62 1260 62 1293 62 1285 62 1019 179 1093 179 1094 179 1018 180 1094 180 1095 180 1097 182 1096 182 1098 182 1098 183 1099 183 1027 183 1028 185 1100 185 1101 185 1103 63 1102 63 1101 63 1103 186 1294 186 1021 186 1021 187 1294 187 1104 187 1104 188 1107 188 1106 188 1107 189 1256 189 1025 189 1108 190 1256 190 1255 190 1108 190 1255 190 1222 190 1295 191 1255 191 1109 191 1295 191 1109 191 1011 191 1270 193 1247 193 1271 193 1271 194 1247 194 1246 194 1271 194 1246 194 1272 194 1272 195 1246 195 1213 195 1272 195 1213 195 1266 195 1266 196 1213 196 1083 196 1266 196 1083 196 1110 196 1296 197 1297 197 1273 197 1273 197 1297 197 1210 197 1273 198 1210 198 1270 198 1270 198 1210 198 1248 198 1270 193 1248 193 1247 193 1298 11 1299 11 1300 11 1300 11 1299 11 1301 11 1289 0 1232 0 1276 0 1276 0 1232 0 1243 0 1232 199 1289 199 1302 199 1232 199 1302 199 1303 199 1303 200 1302 200 1304 200 1303 200 1304 200 1305 200 1305 201 1304 201 1292 201 1305 201 1292 201 1234 201 1306 63 1234 63 1307 63 1307 63 1234 63 1292 63 1306 202 1307 202 1216 202 1216 202 1307 202 1262 202 1216 203 1262 203 1214 203 1262 203 1263 203 1214 203 1214 204 1263 204 1092 204 1214 204 1092 204 1114 204 1146 230 1147 230 1149 230 1024 231 1149 231 1150 231 1151 232 1150 232 1308 232 1151 233 1308 233 1153 233 1152 234 1153 234 1155 234 1154 263 1259 263 1020 263 1020 235 1309 235 1157 235 1015 236 1157 236 1158 236 1013 238 1159 238 1160 238 1165 241 1164 241 1267 241 1165 231 1310 231 1167 231 1167 242 1265 242 1168 242 1166 264 1311 264 1169 264 1171 243 1170 243 1172 243 1175 246 1176 246 1178 246 998 252 1312 252 1313 252 1313 265 1268 265 1161 265 1182 247 1181 247 1183 247 1185 242 1186 242 1187 242 974 249 1187 249 1189 249 1190 250 1189 250 1314 250 1190 251 1314 251 1192 251 1191 245 1192 245 1193 245 969 246 1193 246 1195 246 1196 237 1195 237 1197 237 979 266 1274 266 1180 266 1315 267 1316 267 1317 267 1317 267 1316 267 1318 267 1317 268 1318 268 1319 268 1319 268 1318 268 1320 268 1319 269 1320 269 1321 269 1321 269 1320 269 1322 269 1321 270 1322 270 1323 270 1323 270 1322 270 1324 270 1323 271 1324 271 1325 271 1325 271 1324 271 1326 271 1327 14 1325 14 1328 14 1328 14 1325 14 1326 14 1329 11 1327 11 1330 11 1330 11 1327 11 1328 11 1329 272 1330 272 1331 272 1331 272 1330 272 1332 272 1331 273 1332 273 1333 273 1333 273 1332 273 1334 273 1333 274 1334 274 1335 274 1335 274 1334 274 1336 274 1335 275 1336 275 1337 275 1335 275 1337 275 1338 275 1338 276 1337 276 1339 276 1338 276 1339 276 1340 276 1340 277 1339 277 1341 277 1340 277 1341 277 1342 277 1342 278 1341 278 1343 278 1342 278 1343 278 1344 278 1344 279 1343 279 1345 279 1344 279 1345 279 1346 279 1346 280 1345 280 1347 280 1347 280 1345 280 1348 280 1347 281 1348 281 1349 281 1349 281 1348 281 1350 281 1351 282 1352 282 1353 282 1353 282 1352 282 1354 282 1353 283 1354 283 1355 283 1355 283 1354 283 1356 283 1355 284 1356 284 1357 284 1357 284 1356 284 1358 284 1357 285 1358 285 1359 285 1359 285 1358 285 1360 285 1359 286 1360 286 1361 286 1359 286 1361 286 1362 286 1362 287 1361 287 1363 287 1362 287 1363 287 1364 287 1364 288 1363 288 1365 288 1364 288 1365 288 1366 288 1366 289 1365 289 1367 289 1366 289 1367 289 1368 289 1368 290 1367 290 1369 290 1368 290 1369 290 1370 290 1370 291 1369 291 1371 291 1370 291 1371 291 1372 291 1372 292 1371 292 1373 292 1372 292 1373 292 1374 292 1374 293 1373 293 1375 293 1375 293 1373 293 1376 293 1375 294 1376 294 1377 294 1377 294 1376 294 1378 294 1377 295 1378 295 1379 295 1379 295 1378 295 1380 295 1379 296 1380 296 1381 296 1381 296 1380 296 1382 296 1381 297 1382 297 1383 297 1383 297 1382 297 1384 297 1383 298 1384 298 1385 298 1385 298 1384 298 1386 298 1385 299 1386 299 1387 299 1385 299 1387 299 1388 299 1388 300 1387 300 1389 300 1388 300 1389 300 1390 300 1390 301 1389 301 1391 301 1390 301 1391 301 1392 301 1392 302 1391 302 1393 302 1392 302 1393 302 1394 302 1394 303 1393 303 1395 303 1394 303 1395 303 1396 303 1396 304 1395 304 1397 304 1396 304 1397 304 1398 304 1398 305 1397 305 1399 305 1399 305 1397 305 1400 305 1399 306 1400 306 1401 306 1401 306 1400 306 1402 306 1401 307 1402 307 1403 307 1403 307 1402 307 1404 307 1403 308 1404 308 1405 308 1405 308 1404 308 1406 308 1405 309 1406 309 1407 309 1407 309 1406 309 1408 309 1407 310 1408 310 1409 310 1409 310 1408 310 1410 310 1409 311 1410 311 1411 311 1411 311 1410 311 1412 311 1411 312 1412 312 1413 312 1411 312 1413 312 1414 312 1414 313 1413 313 1415 313 1414 313 1415 313 1416 313 1416 314 1415 314 1417 314 1416 314 1417 314 1418 314 1418 315 1417 315 1419 315 1418 315 1419 315 1420 315 1420 316 1419 316 1421 316 1420 316 1421 316 1422 316 1422 317 1421 317 1423 317 1422 317 1423 317 1424 317 1424 318 1423 318 1425 318 1425 318 1423 318 1426 318 1425 319 1426 319 1427 319 1427 319 1426 319 1428 319 1427 320 1428 320 1429 320 1429 320 1428 320 1430 320 1429 321 1430 321 1431 321 1431 321 1430 321 1432 321 1431 322 1432 322 1433 322 1433 322 1432 322 1434 322 1433 323 1434 323 1435 323 1435 323 1434 323 1436 323 1435 324 1436 324 1437 324 1437 324 1436 324 1438 324 1437 325 1438 325 1439 325 1437 325 1439 325 1440 325 1440 326 1439 326 1441 326 1440 326 1441 326 1442 326 1442 327 1441 327 1443 327 1442 327 1443 327 1444 327 1444 328 1443 328 1445 328 1444 328 1445 328 1446 328 1446 329 1445 329 1447 329 1446 329 1447 329 1448 329 1448 330 1447 330 1449 330 1448 330 1449 330 1450 330 1450 331 1449 331 1451 331 1451 331 1449 331 1452 331 1451 332 1452 332 1453 332 1453 332 1452 332 1454 332 1453 333 1454 333 1455 333 1455 333 1454 333 1456 333 1455 334 1456 334 1457 334 1457 334 1456 334 1458 334 1457 335 1458 335 1459 335 1459 335 1458 335 1460 335 1459 336 1460 336 1461 336 1461 336 1460 336 1462 336 1461 337 1462 337 1463 337 1463 337 1462 337 1464 337 1463 338 1464 338 1465 338 1463 338 1465 338 1466 338 1466 339 1465 339 1467 339 1466 339 1467 339 1468 339 1468 340 1467 340 1469 340 1468 340 1469 340 1470 340 1470 341 1469 341 1471 341 1470 341 1471 341 1472 341 1472 342 1471 342 1473 342 1472 342 1473 342 1474 342 1474 343 1473 343 1475 343 1474 343 1475 343 1476 343 1476 344 1475 344 1477 344 1477 344 1475 344 1478 344 1477 345 1478 345 1479 345 1479 345 1478 345 1480 345 1479 346 1480 346 1481 346 1481 346 1480 346 1482 346 1481 347 1482 347 1483 347 1483 347 1482 347 1484 347 1483 348 1484 348 1485 348 1485 348 1484 348 1486 348 1485 349 1486 349 1487 349 1487 349 1486 349 1488 349 1487 350 1488 350 1489 350 1489 350 1488 350 1490 350 1489 351 1490 351 1491 351 1489 351 1491 351 1492 351 1492 352 1491 352 1493 352 1492 352 1493 352 1494 352 1494 353 1493 353 1495 353 1494 353 1495 353 1496 353 1496 354 1495 354 1497 354 1496 354 1497 354 1498 354 1498 355 1497 355 1499 355 1498 355 1499 355 1500 355 1500 356 1499 356 1501 356 1500 356 1501 356 1502 356 1502 357 1501 357 1503 357 1503 357 1501 357 1504 357 1503 358 1504 358 1505 358 1505 358 1504 358 1506 358 1505 359 1506 359 1507 359 1507 359 1506 359 1508 359 1507 360 1508 360 1509 360 1509 360 1508 360 1510 360 1509 361 1510 361 1511 361 1511 361 1510 361 1512 361 1511 362 1512 362 1513 362 1513 362 1512 362 1514 362 1513 363 1514 363 1515 363 1513 363 1515 363 1516 363 1516 364 1515 364 1517 364 1516 364 1517 364 1518 364 1518 365 1517 365 1519 365 1518 365 1519 365 1520 365 1520 366 1519 366 1521 366 1520 366 1521 366 1522 366 1522 367 1521 367 1523 367 1522 367 1523 367 1524 367 1524 368 1523 368 1525 368 1524 368 1525 368 1526 368 1526 369 1525 369 1527 369 1526 369 1527 369 1528 369 1528 370 1527 370 1529 370 1529 370 1527 370 1530 370 1529 371 1530 371 1531 371 1531 371 1530 371 1532 371 1531 372 1532 372 1533 372 1533 372 1532 372 1534 372 1533 373 1534 373 1535 373 1535 373 1534 373 1536 373 1535 374 1536 374 1537 374 1537 374 1536 374 1538 374 1537 375 1538 375 1539 375 1539 375 1538 375 1540 375 1539 376 1540 376 1541 376 1539 376 1541 376 1542 376 1542 377 1541 377 1543 377 1542 377 1543 377 1544 377 1544 378 1543 378 1545 378 1544 378 1545 378 1546 378 1546 379 1545 379 1547 379 1546 379 1547 379 1548 379 1548 380 1547 380 1549 380 1548 380 1549 380 1550 380 1550 381 1549 381 1316 381 1550 381 1316 381 1315 381 1551 61 1325 61 1327 61 1357 61 1347 61 1355 61 1355 61 1347 61 1349 61 1355 61 1349 61 1351 61 1344 61 1381 61 1383 61 1381 61 1344 61 1347 61 1381 61 1347 61 1375 61 1375 61 1347 61 1357 61 1375 61 1357 61 1362 61 1366 61 1552 61 1375 61 1366 61 1375 61 1362 61 1553 61 1535 61 1327 61 1327 61 1535 61 1537 61 1553 61 1529 61 1535 61 1396 61 1399 61 1383 61 1383 61 1399 61 1344 61 1338 61 1554 61 1553 61 1553 61 1554 61 1511 61 1553 61 1511 61 1529 61 1529 61 1511 61 1555 61 1555 61 1511 61 1556 61 1399 61 1405 61 1344 61 1344 61 1405 61 1342 61 1342 61 1405 61 1557 61 1558 61 1559 61 1317 61 1560 61 1338 61 1340 61 1551 61 1327 61 1317 61 1317 61 1327 61 1537 61 1317 61 1537 61 1558 61 1388 61 1561 61 1396 61 1388 61 1396 61 1383 61 1562 61 1342 61 1563 61 1563 61 1342 61 1557 61 1451 61 1564 61 1340 61 1340 61 1564 61 1560 61 1342 61 1562 61 1433 61 1342 61 1433 61 1340 61 1340 61 1433 61 1435 61 1340 61 1435 61 1451 61 1451 61 1435 61 1565 61 1477 61 1566 61 1338 61 1567 61 1563 61 1557 61 1567 61 1557 61 1568 61 1565 61 1569 61 1451 61 1566 61 1485 61 1338 61 1338 61 1485 61 1503 61 1338 61 1503 61 1554 61 1338 61 1560 61 1477 61 1477 61 1560 61 1466 61 1477 61 1466 61 1570 61 1477 61 1570 61 1571 61 1503 61 1485 61 1487 61 1503 61 1487 61 1572 61 1572 61 1487 61 1573 61 1343 62 1384 62 1382 62 1345 62 1358 62 1350 62 1350 62 1358 62 1352 62 1343 62 1382 62 1345 62 1332 62 1328 62 1574 62 1328 62 1326 62 1575 62 1574 62 1576 62 1332 62 1332 62 1576 62 1334 62 1345 62 1382 62 1376 62 1345 62 1376 62 1358 62 1358 62 1376 62 1577 62 1577 62 1376 62 1578 62 1576 62 1579 62 1334 62 1334 62 1579 62 1512 62 1512 62 1579 62 1525 62 1521 62 1580 62 1512 62 1521 62 1512 62 1525 62 1318 62 1581 62 1582 62 1583 62 1343 62 1410 62 1410 62 1343 62 1341 62 1318 62 1582 62 1574 62 1318 62 1574 62 1328 62 1318 62 1328 62 1575 62 1341 62 1584 62 1410 62 1410 62 1584 62 1585 62 1343 62 1583 62 1400 62 1343 62 1400 62 1384 62 1384 62 1400 62 1586 62 1586 62 1400 62 1587 62 1512 62 1588 62 1334 62 1334 62 1588 62 1337 62 1337 62 1588 62 1504 62 1337 62 1504 62 1589 62 1436 62 1434 62 1339 62 1339 62 1434 62 1341 62 1341 62 1434 62 1584 62 1337 62 1590 62 1339 62 1585 62 1591 62 1410 62 1337 62 1589 62 1478 62 1337 62 1478 62 1590 62 1590 62 1478 62 1465 62 1590 62 1454 62 1339 62 1339 62 1454 62 1436 62 1436 62 1454 62 1452 62 1436 62 1452 62 1439 62 1439 62 1452 62 1592 62 1465 62 1478 62 1593 62 1499 62 1594 62 1491 62 1499 62 1491 62 1488 62 1499 62 1488 62 1504 62 1504 62 1488 62 1589 62 1349 382 1350 382 1351 382 1351 382 1350 382 1352 382</p>
        </triangles>
      </mesh>
    </geometry>
  </library_geometries>
  <library_visual_scenes>
    <visual_scene id="DefaultScene">
      <node id="node_36dcb050_19ab_4856_b672_7eef1eff7d6e" type="NODE">
        <matrix>1 0 0 0 0 1 0 0 0 0 1 0 0 0 0 1</matrix>
        <node id="node_54fa1d58_32d8_4d34_b39d_1ea387291b93" type="NODE">
          <matrix>1 0 0 0 0 1 0 0 0 0 1 0 0 0 0 1</matrix>
          <node id="node_54fa1d58_32d8_4d34_b39d_1ea387291b93_mesh0" type="NODE">
            <matrix>1 0 0 0 0 1 0 0 0 0 1 0 0 0 0 1</matrix>
            <instance_geometry url="#geometry_aa2afe75_ef77_4fc0_8519_86fdf5fce438">
              <bind_material>
                <technique_common>
                  <instance_material symbol="mat_0" target="#mat_0"/>
                </technique_common>
              </bind_material>
            </instance_geometry>
          </node>
        </node>
      </node>
    </visual_scene>
  </library_visual_scenes>
  <scene>
    <instance_visual_scene url="#DefaultScene"/>
  </scene>
</COLLADA>
