<COLLADA xmlns="http://www.collada.org/2008/03/COLLADASchema" version="1.5.0">
	<asset>
		<contributor>
			<authoring_tool>URDF Collada Writer</authoring_tool>
		</contributor>
		<created>2026-03-17T20:26:19.000000</created>
		<modified>2026-03-17T20:26:19.000000</modified>
		<unit/>
		<up_axis>Z_UP</up_axis>
	</asset>
	<library_visual_scenes id="vscenes">
		<visual_scene id="vscene" name="URDF Visual Scene">
			<node id="visual0" name="engineer_v4" sid="visual0">
				<node id="vkmodel0_node0" name="base_link" sid="node0">
					<translate>0.0 0.0 0.0</translate>
					<rotate>1.0 0.0 0.0 0.0</rotate>
					<instance_geometry url="#gkmodel0_base_link_geom0">
						<bind_material>
							<technique_common>
								<instance_material symbol="mat0" target="#gkmodel0_base_link_geom0_mat"/>
							</technique_common>
						</bind_material>
					</instance_geometry>
					<node id="vkmodel0_node1" name="first_slot_link" sid="node1">
						<translate>-0.0 -0.0 -0.0</translate>
						<rotate>1.0 0.0 0.0 0.0</rotate>
						<translate>-0.0472 0.03002 0.25292</translate>
						<rotate>0.57735 -0.57735 0.57735 120.0</rotate>
						<rotate sid="node_first_slot_joint_axis0">0.0 0.0 0.0 0.0</rotate>
						<translate>0.0 0.0 0.0</translate>
						<rotate>1.0 0.0 0.0 0.0</rotate>
						<instance_geometry url="#gkmodel0_first_slot_link_geom0">
							<bind_material>
								<technique_common>
									<instance_material symbol="mat0" target="#gkmodel0_first_slot_link_geom0_mat"/>
								</technique_common>
							</bind_material>
						</instance_geometry>
					</node>
					<node id="vkmodel0_node3" name="link1" sid="node3">
						<translate>-0.0 -0.0 -0.0</translate>
						<rotate>1.0 0.0 0.0 0.0</rotate>
						<translate>-0.26121 0.19052 0.05743</translate>
						<rotate>0.0 0.0 1.0 180.0</rotate>
						<rotate sid="node_joint1_axis0">0.0 0.0 1.0 0.0</rotate>
						<translate>0.0 0.0 0.0</translate>
						<rotate>1.0 0.0 0.0 0.0</rotate>
						<instance_geometry url="#gkmodel0_link1_geom0">
							<bind_material>
								<technique_common>
									<instance_material symbol="mat0" target="#gkmodel0_link1_geom0_mat"/>
								</technique_common>
							</bind_material>
						</instance_geometry>
						<node id="vkmodel0_node4" name="link2" sid="node4">
							<translate>-0.0 -0.0 -0.0</translate>
							<rotate>1.0 0.0 0.0 0.0</rotate>
							<translate>0.0 0.0 0.091</translate>
							<rotate>-0.57843 -0.57681 -0.57681 119.90754</rotate>
							<rotate sid="node_joint2_axis0">0.0 0.0 -1.0 0.0</rotate>
							<translate>0.0 0.0 0.0</translate>
							<rotate>1.0 0.0 0.0 0.0</rotate>
							<instance_geometry url="#gkmodel0_link2_geom0">
								<bind_material>
									<technique_common>
										<instance_material symbol="mat0" target="#gkmodel0_link2_geom0_mat"/>
									</technique_common>
								</bind_material>
							</instance_geometry>
							<node id="vkmodel0_node5" name="link3" sid="node5">
								<translate>-0.0 -0.0 -0.0</translate>
								<rotate>1.0 0.0 0.0 0.0</rotate>
								<translate>0.39 0.0 0.0</translate>
								<rotate>-0.58574 0.8105 -0.0 180.0</rotate>
								<rotate sid="node_joint3_axis0">0.0 0.0 1.0 0.0</rotate>
								<translate>0.0 0.0 0.0</translate>
								<rotate>1.0 0.0 0.0 0.0</rotate>
								<instance_geometry url="#gkmodel0_link3_geom0">
									<bind_material>
										<technique_common>
											<instance_material symbol="mat0" target="#gkmodel0_link3_geom0_mat"/>
										</technique_common>
									</bind_material>
								</instance_geometry>
								<node id="vkmodel0_node6" name="link4" sid="node6">
									<translate>-0.0 -0.0 -0.0</translate>
									<rotate>1.0 0.0 0.0 0.0</rotate>
									<translate>0.0 0.0 0.0592</translate>
									<rotate>0.11109 0.70273 0.70273 167.32182</rotate>
									<rotate sid="node_joint4_axis0">0.0 0.0 -1.0 0.0</rotate>
									<translate>0.0 0.0 0.0</translate>
									<rotate>1.0 0.0 0.0 0.0</rotate>
									<instance_geometry url="#gkmodel0_link4_geom0">
										<bind_material>
											<technique_common>
												<instance_material symbol="mat0" target="#gkmodel0_link4_geom0_mat"/>
											</technique_common>
										</bind_material>
									</instance_geometry>
									<node id="vkmodel0_node7" name="link5" sid="node7">
										<translate>-0.0 -0.0 -0.0</translate>
										<rotate>1.0 0.0 0.0 0.0</rotate>
										<translate>0.0 0.0 -0.315</translate>
										<rotate>0.57735 -0.57735 0.57735 120.0</rotate>
										<rotate sid="node_joint5_axis0">0.0 0.0 -1.0 0.0</rotate>
										<translate>0.0 0.0 0.0</translate>
										<rotate>1.0 0.0 0.0 0.0</rotate>
										<instance_geometry url="#gkmodel0_link5_geom0">
											<bind_material>
												<technique_common>
													<instance_material symbol="mat0" target="#gkmodel0_link5_geom0_mat"/>
												</technique_common>
											</bind_material>
										</instance_geometry>
										<node id="vkmodel0_node8" name="link6" sid="node8">
											<translate>-0.0 -0.0 -0.0</translate>
											<rotate>1.0 0.0 0.0 0.0</rotate>
											<translate>0.0 0.0 0.0</translate>
											<rotate>0.7071 0.00273 -0.7071 179.68725</rotate>
											<rotate sid="node_joint6_axis0">0.0 0.0 1.0 0.0</rotate>
											<translate>0.0 0.0 0.0</translate>
											<rotate>1.0 0.0 0.0 0.0</rotate>
											<instance_geometry url="#gkmodel0_link6_geom0">
												<bind_material>
													<technique_common>
														<instance_material symbol="mat0" target="#gkmodel0_link6_geom0_mat"/>
													</technique_common>
												</bind_material>
											</instance_geometry>
											<node id="vkmodel0_node2" name="left_finger_link" sid="node2">
												<translate>-0.0 -0.0 -0.0</translate>
												<rotate>1.0 0.0 0.0 0.0</rotate>
												<translate>0.0 0.0 0.076</translate>
												<rotate>0.0 0.0 -1.0 94.68701</rotate>
												<translate sid="node_left_finger_joint_axis0">0.0 0.0 0.0</translate>
												<translate>0.0 0.0 0.0</translate>
												<rotate>1.0 0.0 0.0 0.0</rotate>
												<instance_geometry url="#gkmodel0_left_finger_link_geom0">
													<bind_material>
														<technique_common>
															<instance_material symbol="mat0" target="#gkmodel0_left_finger_link_geom0_mat"/>
														</technique_common>
													</bind_material>
												</instance_geometry>
											</node>
											<node id="vkmodel0_node9" name="right_finger_link" sid="node9">
												<translate>-0.0 -0.0 -0.0</translate>
												<rotate>1.0 0.0 0.0 0.0</rotate>
												<translate>0.0 0.0 0.076</translate>
												<rotate>0.0 0.0 -1.0 94.68701</rotate>
												<translate sid="node_right_finger_joint_axis0">0.0 0.0 0.0</translate>
												<translate>0.0 0.0 0.0</translate>
												<rotate>1.0 0.0 0.0 0.0</rotate>
												<instance_geometry url="#gkmodel0_right_finger_link_geom0">
													<bind_material>
														<technique_common>
															<instance_material symbol="mat0" target="#gkmodel0_right_finger_link_geom0_mat"/>
														</technique_common>
													</bind_material>
												</instance_geometry>
											</node>
											<node id="vkmodel0_node11" name="tcp_link" sid="node11">
												<translate>-0.0 -0.0 -0.0</translate>
												<rotate>1.0 0.0 0.0 0.0</rotate>
												<translate>0.0 0.0 0.125</translate>
												<rotate>1.0 0.0 0.0 0.0</rotate>
												<rotate sid="node_tcp_joint_axis0">0.0 0.0 0.0 0.0</rotate>
												<translate>0.0 0.0 0.0</translate>
												<rotate>1.0 0.0 0.0 0.0</rotate>
												<instance_geometry url="#gkmodel0_tcp_link_geom0">
													<bind_material>
														<technique_common>
															<instance_material symbol="mat0" target="#gkmodel0_tcp_link_geom0_mat"/>
														</technique_common>
													</bind_material>
												</instance_geometry>
											</node>
										</node>
									</node>
								</node>
							</node>
						</node>
					</node>
					<node id="vkmodel0_node10" name="second_slot_link" sid="node10">
						<translate>-0.0 -0.0 -0.0</translate>
						<rotate>1.0 0.0 0.0 0.0</rotate>
						<translate>-0.0472 0.35102 0.25292</translate>
						<rotate>-0.0 -0.70711 0.70711 180.0</rotate>
						<rotate sid="node_second_slot_joint_axis0">0.0 0.0 0.0 0.0</rotate>
						<translate>0.0 0.0 0.0</translate>
						<rotate>1.0 0.0 0.0 0.0</rotate>
						<instance_geometry url="#gkmodel0_second_slot_link_geom0">
							<bind_material>
								<technique_common>
									<instance_material symbol="mat0" target="#gkmodel0_second_slot_link_geom0_mat"/>
								</technique_common>
							</bind_material>
						</instance_geometry>
					</node>
				</node>
			</node>
		</visual_scene>
	</library_visual_scenes>
	<library_geometries id="geometries">
		<geometry id="gkmodel0_base_link_geom0" name="package://engineer_description/dae/base_link.dae"/>
		<geometry id="gkmodel0_first_slot_link_geom0" name="package://engineer_description/dae/first_slot_link.dae"/>
		<geometry id="gkmodel0_link1_geom0" name="package://engineer_description/dae/link1.dae"/>
		<geometry id="gkmodel0_link2_geom0" name="package://engineer_description/dae/link2.dae"/>
		<geometry id="gkmodel0_link3_geom0" name="package://engineer_description/dae/link3.dae"/>
		<geometry id="gkmodel0_link4_geom0" name="package://engineer_description/dae/link4.dae"/>
		<geometry id="gkmodel0_link5_geom0" name="package://engineer_description/dae/link5.dae"/>
		<geometry id="gkmodel0_link6_geom0" name="package://engineer_description/dae/link6.dae"/>
		<geometry id="gkmodel0_left_finger_link_geom0" name="package://engineer_description/dae/left_finger_link.dae"/>
		<geometry id="gkmodel0_right_finger_link_geom0" name="package://engineer_description/dae/right_finger_link.dae"/>
		<geometry id="gkmodel0_tcp_link_geom0">
			<mesh>
				<source id="gkmodel0_tcp_link_geom0_positions">
					<float_array id="gkmodel0_tcp_link_geom0_positions-array" count="156" digits="2490374">0.00216941861435771 0 0.004504844546318054 0.00390915758907795 0 0.00311744911596179 0.001084709307178855 0.001878771698102355 0.004504844546318054 0.001954578794538975 0.003385429736226797 0.00311744911596179 0.001084709307178855 0.001878771698102355 0.004504844546318054 0.001954578794538975 0.003385429736226797 0.00311744911596179 -0.001084709307178855 0.001878771698102355 0.004504844546318054 -0.001954578794538975 0.003385429736226797 0.00311744911596179 -0.001084709307178855 0.001878771698102355 0.004504844546318054 -0.001954578794538975 0.003385429736226797 0.00311744911596179 -0.00216941861435771 2.656771778622316e-19 0.004504844546318054 -0.00390915758907795 4.78733726345997e-19 0.00311744911596179 -0.00216941861435771 2.656771778622316e-19 0.004504844546318054 -0.00390915758907795 4.78733726345997e-19 0.00311744911596179 -0.001084709307178855 -0.001878771698102355 0.004504844546318054 -0.001954578794538975 -0.003385429736226797 0.00311744911596179 -0.001084709307178855 -0.001878771698102355 0.004504844546318054 -0.001954578794538975 -0.003385429736226797 0.00311744911596179 0.001084709307178855 -0.001878771698102355 0.004504844546318054 0.001954578794538975 -0.003385429736226797 0.00311744911596179 0.001084709307178855 -0.001878771698102355 0.004504844546318054 0.001954578794538975 -0.003385429736226797 0.00311744911596179 0.00216941861435771 0 0.004504844546318054 0.00390915758907795 0 0.00311744911596179 0.00390915758907795 0 0.00311744911596179 0.004874639678746462 0 0.001112604630179703 0.001954578794538975 0.003385429736226797 0.00311744911596179 0.002437319839373231 0.004221561830490828 0.001112604630179703 0.001954578794538975 0.003385429736226797 0.00311744911596179 0.002437319839373231 0.004221561830490828 0.001112604630179703 -0.001954578794538975 0.003385429736226797 0.00311744911596179 -0.002437319839373231 0.004221561830490828 0.001112604630179703 -0.001954578794538975 0.003385429736226797 0.00311744911596179 -0.002437319839373231 0.004221561830490828 0.001112604630179703 -0.00390915758907795 4.78733726345997e-19 0.00311744911596179 -0.004874639678746462 5.969711815982682e-19 0.001112604630179703 -0.00390915758907795 4.78733726345997e-19 0.00311744911596179 -0.004874639678746462 5.969711815982682e-19 0.001112604630179703 -0.001954578794538975 -0.003385429736226797 0.00311744911596179 -0.002437319839373231 -0.004221561830490828 0.001112604630179703 -0.001954578794538975 -0.003385429736226797 0.00311744911596179 -0.002437319839373231 -0.004221561830490828 0.001112604630179703 0.001954578794538975 -0.003385429736226797 0.00311744911596179 0.002437319839373231 -0.004221561830490828 0.001112604630179703 0.001954578794538975 -0.003385429736226797 0.00311744911596179 0.002437319839373231 -0.004221561830490828 0.001112604630179703 0.00390915758907795 0 0.00311744911596179 0.004874639678746462 0 0.001112604630179703 0.004874639678746462 0 0.001112604630179703 0.004874639678746462 0 -0.001112604630179703 0.002437319839373231 0.004221561830490828 0.001112604630179703 0.002437319839373231 0.004221561830490828 -0.001112604630179703 0.002437319839373231 0.004221561830490828 0.001112604630179703 0.002437319839373231 0.004221561830490828 -0.001112604630179703 -0.002437319839373231 0.004221561830490828 0.001112604630179703 -0.002437319839373231 0.004221561830490828 -0.001112604630179703 -0.002437319839373231 0.004221561830490828 0.001112604630179703 -0.002437319839373231 0.004221561830490828 -0.001112604630179703 -0.004874639678746462 5.969711815982682e-19 0.001112604630179703 -0.004874639678746462 5.969711815982682e-19 -0.001112604630179703 -0.004874639678746462 5.969711815982682e-19 0.001112604630179703 -0.004874639678746462 5.969711815982682e-19 -0.001112604630179703 -0.002437319839373231 -0.004221561830490828 0.001112604630179703 -0.002437319839373231 -0.004221561830490828 -0.001112604630179703 -0.002437319839373231 -0.004221561830490828 0.001112604630179703 -0.002437319839373231 -0.004221561830490828 -0.001112604630179703 0.002437319839373231 -0.004221561830490828 0.001112604630179703 0.002437319839373231 -0.004221561830490828 -0.001112604630179703 0.002437319839373231 -0.004221561830490828 0.001112604630179703 0.002437319839373231 -0.004221561830490828 -0.001112604630179703 0.004874639678746462 0 0.001112604630179703 0.004874639678746462 0 -0.001112604630179703 0.004874639678746462 0 -0.001112604630179703 0.00390915758907795 0 -0.00311744911596179 0.002437319839373231 0.004221561830490828 -0.001112604630179703 0.001954578794538975 0.003385429736226797 -0.00311744911596179 0.002437319839373231 0.004221561830490828 -0.001112604630179703 0.001954578794538975 0.003385429736226797 -0.00311744911596179 -0.002437319839373231 0.004221561830490828 -0.001112604630179703 -0.001954578794538975 0.003385429736226797 -0.00311744911596179 -0.002437319839373231 0.004221561830490828 -0.001112604630179703 -0.001954578794538975 0.003385429736226797 -0.00311744911596179 -0.004874639678746462 5.969711815982682e-19 -0.001112604630179703 -0.00390915758907795 4.78733726345997e-19 -0.00311744911596179 -0.004874639678746462 5.969711815982682e-19 -0.001112604630179703 -0.00390915758907795 4.78733726345997e-19 -0.00311744911596179 -0.002437319839373231 -0.004221561830490828 -0.001112604630179703 -0.001954578794538975 -0.003385429736226797 -0.00311744911596179 -0.002437319839373231 -0.004221561830490828 -0.001112604630179703 -0.001954578794538975 -0.003385429736226797 -0.00311744911596179 0.002437319839373231 -0.004221561830490828 -0.001112604630179703 0.001954578794538975 -0.003385429736226797 -0.00311744911596179 0.002437319839373231 -0.004221561830490828 -0.001112604630179703 0.001954578794538975 -0.003385429736226797 -0.00311744911596179 0.004874639678746462 0 -0.001112604630179703 0.00390915758907795 0 -0.00311744911596179 0.00390915758907795 0 -0.00311744911596179 0.00216941861435771 0 -0.004504844546318054 0.001954578794538975 0.003385429736226797 -0.00311744911596179 0.001084709307178855 0.001878771698102355 -0.004504844546318054 0.001954578794538975 0.003385429736226797 -0.00311744911596179 0.001084709307178855 0.001878771698102355 -0.004504844546318054 -0.001954578794538975 0.003385429736226797 -0.00311744911596179 -0.001084709307178855 0.001878771698102355 -0.004504844546318054 -0.001954578794538975 0.003385429736226797 -0.00311744911596179 -0.001084709307178855 0.001878771698102355 -0.004504844546318054 -0.00390915758907795 4.78733726345997e-19 -0.00311744911596179 -0.00216941861435771 2.656771778622316e-19 -0.004504844546318054 -0.00390915758907795 4.78733726345997e-19 -0.00311744911596179 -0.00216941861435771 2.656771778622316e-19 -0.004504844546318054 -0.001954578794538975 -0.003385429736226797 -0.00311744911596179 -0.001084709307178855 -0.001878771698102355 -0.004504844546318054 -0.001954578794538975 -0.003385429736226797 -0.00311744911596179 -0.001084709307178855 -0.001878771698102355 -0.004504844546318054 0.001954578794538975 -0.003385429736226797 -0.00311744911596179 0.001084709307178855 -0.001878771698102355 -0.004504844546318054 0.001954578794538975 -0.003385429736226797 -0.00311744911596179 0.001084709307178855 -0.001878771698102355 -0.004504844546318054 0.00390915758907795 0 -0.00311744911596179 0.00216941861435771 0 -0.004504844546318054 0 0 0.004999999888241291 0.00216941861435771 0 0.004504844546318054 0.001084709307178855 0.001878771698102355 0.004504844546318054 0.00216941861435771 0 -0.004504844546318054 0 0 -0.004999999888241291 0.001084709307178855 0.001878771698102355 -0.004504844546318054 0 0 0.004999999888241291 0.001084709307178855 0.001878771698102355 0.004504844546318054 -0.001084709307178855 0.001878771698102355 0.004504844546318054 0.001084709307178855 0.001878771698102355 -0.004504844546318054 0 0 -0.004999999888241291 -0.001084709307178855 0.001878771698102355 -0.004504844546318054 0 0 0.004999999888241291 -0.001084709307178855 0.001878771698102355 0.004504844546318054 -0.00216941861435771 2.656771778622316e-19 0.004504844546318054 -0.001084709307178855 0.001878771698102355 -0.004504844546318054 0 0 -0.004999999888241291 -0.00216941861435771 2.656771778622316e-19 -0.004504844546318054 0 0 0.004999999888241291 -0.00216941861435771 2.656771778622316e-19 0.004504844546318054 -0.001084709307178855 -0.001878771698102355 0.004504844546318054 -0.00216941861435771 2.656771778622316e-19 -0.004504844546318054 0 0 -0.004999999888241291 -0.001084709307178855 -0.001878771698102355 -0.004504844546318054 0 0 0.004999999888241291 -0.001084709307178855 -0.001878771698102355 0.004504844546318054 0.001084709307178855 -0.001878771698102355 0.004504844546318054 -0.001084709307178855 -0.001878771698102355 -0.004504844546318054 0 0 -0.004999999888241291 0.001084709307178855 -0.001878771698102355 -0.004504844546318054 0 0 0.004999999888241291 0.001084709307178855 -0.001878771698102355 0.004504844546318054 0.00216941861435771 0 0.004504844546318054 0.001084709307178855 -0.001878771698102355 -0.004504844546318054 0 0 -0.004999999888241291 0.00216941861435771 0 -0.004504844546318054</float_array>
					<technique_common>
						<accessor count="156" source="#gkmodel0_tcp_link_geom0_positions-array" stride="3">
							<param name="X" type="float"/>
							<param name="Y" type="float"/>
							<param name="Z" type="float"/>
						</accessor>
					</technique_common>
				</source>
				<vertices id="vertices">
					<input semantic="POSITION" source="#gkmodel0_tcp_link_geom0_positions"/>
				</vertices>
				<triangles count="72" material="mat0">
					<input offset="0" semantic="VERTEX" source="#gkmodel0_tcp_link_geom0/vertices" set="0"/>
					<p>0 1 2 2 1 3 4 5 6 6 5 7 8 9 10 10 9 11 12 13 14 14 13 15 16 17 18 18 17 19 20 21 22 22 21 23 24 25 26 26 25 27 28 29 30 30 29 31 32 33 34 34 33 35 36 37 38 38 37 39 40 41 42 42 41 43 44 45 46 46 45 47 48 49 50 50 49 51 52 53 54 54 53 55 56 57 58 58 57 59 60 61 62 62 61 63 64 65 66 66 65 67 68 69 70 70 69 71 72 73 74 74 73 75 76 77 78 78 77 79 80 81 82 82 81 83 84 85 86 86 85 87 88 89 90 90 89 91 92 93 94 94 93 95 96 97 98 98 97 99 100 101 102 102 101 103 104 105 106 106 105 107 108 109 110 110 109 111 112 113 114 114 113 115 116 117 118 118 117 119 120 121 122 123 124 125 126 127 128 129 130 131 132 133 134 135 136 137 138 139 140 141 142 143 144 145 146 147 148 149 150 151 152 153 154 155</p>
				</triangles>
			</mesh>
		</geometry>
		<geometry id="gkmodel0_second_slot_link_geom0" name="package://engineer_description/dae/second_slot_link.dae"/>
	</library_geometries>
	<library_effects id="effects">
		<effect id="gkmodel0_base_link_geom0">
			<profile_COMMON>
				<technique sid="">
					<phong>
						<ambient>
							<color>0.7529411911964417 0.7529411911964417 0.7529411911964417 1</color>
						</ambient>
						<diffuse>
							<color>0.7529411911964417 0.7529411911964417 0.7529411911964417 1</color>
						</diffuse>
					</phong>
				</technique>
			</profile_COMMON>
		</effect>
		<effect id="gkmodel0_base_link_geom0_eff">
			<profile_COMMON>
				<technique sid="">
					<phong>
						<ambient>
							<color>0.7529411911964417 0.7529411911964417 0.7529411911964417 1</color>
						</ambient>
						<diffuse>
							<color>0.7529411911964417 0.7529411911964417 0.7529411911964417 1</color>
						</diffuse>
					</phong>
				</technique>
			</profile_COMMON>
		</effect>
		<effect id="gkmodel0_first_slot_link_geom0">
			<profile_COMMON>
				<technique sid="">
					<phong>
						<ambient>
							<color>1 1 1 1</color>
						</ambient>
						<diffuse>
							<color>1 1 1 1</color>
						</diffuse>
					</phong>
				</technique>
			</profile_COMMON>
		</effect>
		<effect id="gkmodel0_first_slot_link_geom0_eff">
			<profile_COMMON>
				<technique sid="">
					<phong>
						<ambient>
							<color>1 1 1 1</color>
						</ambient>
						<diffuse>
							<color>1 1 1 1</color>
						</diffuse>
					</phong>
				</technique>
			</profile_COMMON>
		</effect>
		<effect id="gkmodel0_link1_geom0">
			<profile_COMMON>
				<technique sid="">
					<phong>
						<ambient>
							<color>1 1 1 1</color>
						</ambient>
						<diffuse>
							<color>1 1 1 1</color>
						</diffuse>
					</phong>
				</technique>
			</profile_COMMON>
		</effect>
		<effect id="gkmodel0_link1_geom0_eff">
			<profile_COMMON>
				<technique sid="">
					<phong>
						<ambient>
							<color>1 1 1 1</color>
						</ambient>
						<diffuse>
							<color>1 1 1 1</color>
						</diffuse>
					</phong>
				</technique>
			</profile_COMMON>
		</effect>
		<effect id="gkmodel0_link2_geom0">
			<profile_COMMON>
				<technique sid="">
					<phong>
						<ambient>
							<color>0.7529411911964417 0.7529411911964417 0.7529411911964417 1</color>
						</ambient>
						<diffuse>
							<color>0.7529411911964417 0.7529411911964417 0.7529411911964417 1</color>
						</diffuse>
					</phong>
				</technique>
			</profile_COMMON>
		</effect>
		<effect id="gkmodel0_link2_geom0_eff">
			<profile_COMMON>
				<technique sid="">
					<phong>
						<ambient>
							<color>0.7529411911964417 0.7529411911964417 0.7529411911964417 1</color>
						</ambient>
						<diffuse>
							<color>0.7529411911964417 0.7529411911964417 0.7529411911964417 1</color>
						</diffuse>
					</phong>
				</technique>
			</profile_COMMON>
		</effect>
		<effect id="gkmodel0_link3_geom0">
			<profile_COMMON>
				<technique sid="">
					<phong>
						<ambient>
							<color>0.8666666746139526 0.8666666746139526 0.8901960849761963 1</color>
						</ambient>
						<diffuse>
							<color>0.8666666746139526 0.8666666746139526 0.8901960849761963 1</color>
						</diffuse>
					</phong>
				</technique>
			</profile_COMMON>
		</effect>
		<effect id="gkmodel0_link3_geom0_eff">
			<profile_COMMON>
				<technique sid="">
					<phong>
						<ambient>
							<color>0.8666666746139526 0.8666666746139526 0.8901960849761963 1</color>
						</ambient>
						<diffuse>
							<color>0.8666666746139526 0.8666666746139526 0.8901960849761963 1</color>
						</diffuse>
					</phong>
				</technique>
			</profile_COMMON>
		</effect>
		<effect id="gkmodel0_link4_geom0">
			<profile_COMMON>
				<technique sid="">
					<phong>
						<ambient>
							<color>0.8980392217636108 0.9176470637321472 0.929411768913269 1</color>
						</ambient>
						<diffuse>
							<color>0.8980392217636108 0.9176470637321472 0.929411768913269 1</color>
						</diffuse>
					</phong>
				</technique>
			</profile_COMMON>
		</effect>
		<effect id="gkmodel0_link4_geom0_eff">
			<profile_COMMON>
				<technique sid="">
					<phong>
						<ambient>
							<color>0.8980392217636108 0.9176470637321472 0.929411768913269 1</color>
						</ambient>
						<diffuse>
							<color>0.8980392217636108 0.9176470637321472 0.929411768913269 1</color>
						</diffuse>
					</phong>
				</technique>
			</profile_COMMON>
		</effect>
		<effect id="gkmodel0_link5_geom0">
			<profile_COMMON>
				<technique sid="">
					<phong>
						<ambient>
							<color>1 1 1 1</color>
						</ambient>
						<diffuse>
							<color>1 1 1 1</color>
						</diffuse>
					</phong>
				</technique>
			</profile_COMMON>
		</effect>
		<effect id="gkmodel0_link5_geom0_eff">
			<profile_COMMON>
				<technique sid="">
					<phong>
						<ambient>
							<color>1 1 1 1</color>
						</ambient>
						<diffuse>
							<color>1 1 1 1</color>
						</diffuse>
					</phong>
				</technique>
			</profile_COMMON>
		</effect>
		<effect id="gkmodel0_link6_geom0">
			<profile_COMMON>
				<technique sid="">
					<phong>
						<ambient>
							<color>0.1137254908680916 0.1137254908680916 0.1137254908680916 1</color>
						</ambient>
						<diffuse>
							<color>0.1137254908680916 0.1137254908680916 0.1137254908680916 1</color>
						</diffuse>
					</phong>
				</technique>
			</profile_COMMON>
		</effect>
		<effect id="gkmodel0_link6_geom0_eff">
			<profile_COMMON>
				<technique sid="">
					<phong>
						<ambient>
							<color>0.1137254908680916 0.1137254908680916 0.1137254908680916 1</color>
						</ambient>
						<diffuse>
							<color>0.1137254908680916 0.1137254908680916 0.1137254908680916 1</color>
						</diffuse>
					</phong>
				</technique>
			</profile_COMMON>
		</effect>
		<effect id="gkmodel0_left_finger_link_geom0">
			<profile_COMMON>
				<technique sid="">
					<phong>
						<ambient>
							<color>0.800000011920929 0.95686274766922 0.7215686440467834 1</color>
						</ambient>
						<diffuse>
							<color>0.800000011920929 0.95686274766922 0.7215686440467834 1</color>
						</diffuse>
					</phong>
				</technique>
			</profile_COMMON>
		</effect>
		<effect id="gkmodel0_left_finger_link_geom0_eff">
			<profile_COMMON>
				<technique sid="">
					<phong>
						<ambient>
							<color>0.800000011920929 0.95686274766922 0.7215686440467834 1</color>
						</ambient>
						<diffuse>
							<color>0.800000011920929 0.95686274766922 0.7215686440467834 1</color>
						</diffuse>
					</phong>
				</technique>
			</profile_COMMON>
		</effect>
		<effect id="gkmodel0_right_finger_link_geom0">
			<profile_COMMON>
				<technique sid="">
					<phong>
						<ambient>
							<color>0 0 0 1</color>
						</ambient>
						<diffuse>
							<color>0 0 0 1</color>
						</diffuse>
					</phong>
				</technique>
			</profile_COMMON>
		</effect>
		<effect id="gkmodel0_right_finger_link_geom0_eff">
			<profile_COMMON>
				<technique sid="">
					<phong>
						<ambient>
							<color>0 0 0 1</color>
						</ambient>
						<diffuse>
							<color>0 0 0 1</color>
						</diffuse>
					</phong>
				</technique>
			</profile_COMMON>
		</effect>
		<effect id="gkmodel0_tcp_link_geom0">
			<profile_COMMON>
				<technique sid="">
					<phong>
						<ambient>
							<color>0 1 0 0.5</color>
						</ambient>
						<diffuse>
							<color>0 1 0 0.5</color>
						</diffuse>
					</phong>
				</technique>
			</profile_COMMON>
		</effect>
		<effect id="gkmodel0_tcp_link_geom0_eff">
			<profile_COMMON>
				<technique sid="">
					<phong>
						<ambient>
							<color>0 1 0 0.5</color>
						</ambient>
						<diffuse>
							<color>0 1 0 0.5</color>
						</diffuse>
					</phong>
				</technique>
			</profile_COMMON>
		</effect>
		<effect id="gkmodel0_second_slot_link_geom0">
			<profile_COMMON>
				<technique sid="">
					<phong>
						<ambient>
							<color>1 1 1 1</color>
						</ambient>
						<diffuse>
							<color>1 1 1 1</color>
						</diffuse>
					</phong>
				</technique>
			</profile_COMMON>
		</effect>
		<effect id="gkmodel0_second_slot_link_geom0_eff">
			<profile_COMMON>
				<technique sid="">
					<phong>
						<ambient>
							<color>1 1 1 1</color>
						</ambient>
						<diffuse>
							<color>1 1 1 1</color>
						</diffuse>
					</phong>
				</technique>
			</profile_COMMON>
		</effect>
	</library_effects>
	<library_materials id="materials">
		<material id="gkmodel0_base_link_geom0_mat">
			<instance_effect url="#gkmodel0_base_link_geom0_eff"/>
		</material>
		<material id="gkmodel0_base_link_geom0_mat">
			<instance_effect url="#gkmodel0_base_link_geom0"/>
		</material>
		<material id="gkmodel0_first_slot_link_geom0_mat">
			<instance_effect url="#gkmodel0_first_slot_link_geom0_eff"/>
		</material>
		<material id="gkmodel0_first_slot_link_geom0_mat">
			<instance_effect url="#gkmodel0_first_slot_link_geom0"/>
		</material>
		<material id="gkmodel0_link1_geom0_mat">
			<instance_effect url="#gkmodel0_link1_geom0_eff"/>
		</material>
		<material id="gkmodel0_link1_geom0_mat">
			<instance_effect url="#gkmodel0_link1_geom0"/>
		</material>
		<material id="gkmodel0_link2_geom0_mat">
			<instance_effect url="#gkmodel0_link2_geom0_eff"/>
		</material>
		<material id="gkmodel0_link2_geom0_mat">
			<instance_effect url="#gkmodel0_link2_geom0"/>
		</material>
		<material id="gkmodel0_link3_geom0_mat">
			<instance_effect url="#gkmodel0_link3_geom0_eff"/>
		</material>
		<material id="gkmodel0_link3_geom0_mat">
			<instance_effect url="#gkmodel0_link3_geom0"/>
		</material>
		<material id="gkmodel0_link4_geom0_mat">
			<instance_effect url="#gkmodel0_link4_geom0_eff"/>
		</material>
		<material id="gkmodel0_link4_geom0_mat">
			<instance_effect url="#gkmodel0_link4_geom0"/>
		</material>
		<material id="gkmodel0_link5_geom0_mat">
			<instance_effect url="#gkmodel0_link5_geom0_eff"/>
		</material>
		<material id="gkmodel0_link5_geom0_mat">
			<instance_effect url="#gkmodel0_link5_geom0"/>
		</material>
		<material id="gkmodel0_link6_geom0_mat">
			<instance_effect url="#gkmodel0_link6_geom0_eff"/>
		</material>
		<material id="gkmodel0_link6_geom0_mat">
			<instance_effect url="#gkmodel0_link6_geom0"/>
		</material>
		<material id="gkmodel0_left_finger_link_geom0_mat">
			<instance_effect url="#gkmodel0_left_finger_link_geom0_eff"/>
		</material>
		<material id="gkmodel0_left_finger_link_geom0_mat">
			<instance_effect url="#gkmodel0_left_finger_link_geom0"/>
		</material>
		<material id="gkmodel0_right_finger_link_geom0_mat">
			<instance_effect url="#gkmodel0_right_finger_link_geom0_eff"/>
		</material>
		<material id="gkmodel0_right_finger_link_geom0_mat">
			<instance_effect url="#gkmodel0_right_finger_link_geom0"/>
		</material>
		<material id="gkmodel0_tcp_link_geom0_mat">
			<instance_effect url="#gkmodel0_tcp_link_geom0_eff"/>
		</material>
		<material id="gkmodel0_tcp_link_geom0_mat">
			<instance_effect url="#gkmodel0_tcp_link_geom0"/>
		</material>
		<material id="gkmodel0_second_slot_link_geom0_mat">
			<instance_effect url="#gkmodel0_second_slot_link_geom0_eff"/>
		</material>
		<material id="gkmodel0_second_slot_link_geom0_mat">
			<instance_effect url="#gkmodel0_second_slot_link_geom0"/>
		</material>
	</library_materials>
	<library_kinematics_models id="kmodels">
		<kinematics_model id="kmodel0" name="engineer_v4">
			<technique_common>
				<joint name="first_slot_joint" sid="first_slot_joint">
					<revolute sid="axis0">
						<axis>0 0 0</axis>
						<limits>
							<min>0.0</min>
							<max>0.0</max>
						</limits>
					</revolute>
				</joint>
				<joint name="joint1" sid="joint1">
					<revolute sid="axis0">
						<axis>0 0 1</axis>
						<limits>
							<min>-179.90875</min>
							<max>179.90875</max>
						</limits>
					</revolute>
				</joint>
				<joint name="joint2" sid="joint2">
					<revolute sid="axis0">
						<axis>0 0 -1</axis>
						<limits>
							<min>-56.65407</min>
							<max>68.75494</max>
						</limits>
					</revolute>
				</joint>
				<joint name="joint3" sid="joint3">
					<revolute sid="axis0">
						<axis>0 0 1</axis>
						<limits>
							<min>-164.00344</min>
							<max>152.08019</max>
						</limits>
					</revolute>
				</joint>
				<joint name="joint4" sid="joint4">
					<revolute sid="axis0">
						<axis>0 0 -1</axis>
						<limits>
							<min>-179.90875</min>
							<max>179.90875</max>
						</limits>
					</revolute>
				</joint>
				<joint name="joint5" sid="joint5">
					<revolute sid="axis0">
						<axis>0 0 -1</axis>
						<limits>
							<min>-96.41734</min>
							<max>96.41734</max>
						</limits>
					</revolute>
				</joint>
				<joint name="joint6" sid="joint6">
					<revolute sid="axis0">
						<axis>0 0 1</axis>
						<limits>
							<min>-179.90875</min>
							<max>179.90875</max>
						</limits>
					</revolute>
				</joint>
				<joint name="left_finger_joint" sid="left_finger_joint">
					<prismatic sid="axis0">
						<axis>1 0 0</axis>
						<limits>
							<min>0.0</min>
							<max>0.047</max>
						</limits>
					</prismatic>
				</joint>
				<joint name="right_finger_joint" sid="right_finger_joint">
					<prismatic sid="axis0">
						<axis>-1 0 0</axis>
						<limits>
							<min>-3.14</min>
							<max>3.14</max>
						</limits>
					</prismatic>
				</joint>
				<joint name="second_slot_joint" sid="second_slot_joint">
					<revolute sid="axis0">
						<axis>0 0 0</axis>
						<limits>
							<min>0.0</min>
							<max>0.0</max>
						</limits>
					</revolute>
				</joint>
				<joint name="tcp_joint" sid="tcp_joint">
					<revolute sid="axis0">
						<axis>0 0 0</axis>
						<limits>
							<min>0.0</min>
							<max>0.0</max>
						</limits>
					</revolute>
				</joint>
				<link sid="base_link" name="base_link">
					<attachment_full joint="kmodel0/first_slot_joint">
						<translate>-0.0472 0.03002 0.25292</translate>
						<rotate>0.57735 -0.57735 0.57735 120.0</rotate>
						<link sid="first_slot_link" name="first_slot_link"/>
					</attachment_full>
					<attachment_full joint="kmodel0/joint1">
						<translate>-0.26121 0.19052 0.05743</translate>
						<rotate>0.0 0.0 1.0 180.0</rotate>
						<link sid="link1" name="link1">
							<attachment_full joint="kmodel0/joint2">
								<translate>0.0 0.0 0.091</translate>
								<rotate>-0.57843 -0.57681 -0.57681 119.90754</rotate>
								<link sid="link2" name="link2">
									<attachment_full joint="kmodel0/joint3">
										<translate>0.39 0.0 0.0</translate>
										<rotate>-0.58574 0.8105 -0.0 180.0</rotate>
										<link sid="link3" name="link3">
											<attachment_full joint="kmodel0/joint4">
												<translate>0.0 0.0 0.0592</translate>
												<rotate>0.11109 0.70273 0.70273 167.32182</rotate>
												<link sid="link4" name="link4">
													<attachment_full joint="kmodel0/joint5">
														<translate>0.0 0.0 -0.315</translate>
														<rotate>0.57735 -0.57735 0.57735 120.0</rotate>
														<link sid="link5" name="link5">
															<attachment_full joint="kmodel0/joint6">
																<translate>0.0 0.0 0.0</translate>
																<rotate>0.7071 0.00273 -0.7071 179.68725</rotate>
																<link sid="link6" name="link6">
																	<attachment_full joint="kmodel0/left_finger_joint">
																		<translate>0.0 0.0 0.076</translate>
																		<rotate>0.0 0.0 -1.0 94.68701</rotate>
																		<link sid="left_finger_link" name="left_finger_link"/>
																	</attachment_full>
																	<attachment_full joint="kmodel0/right_finger_joint">
																		<translate>0.0 0.0 0.076</translate>
																		<rotate>0.0 0.0 -1.0 94.68701</rotate>
																		<link sid="right_finger_link" name="right_finger_link"/>
																	</attachment_full>
																	<attachment_full joint="kmodel0/tcp_joint">
																		<translate>0.0 0.0 0.125</translate>
																		<rotate>1.0 0.0 0.0 0.0</rotate>
																		<link sid="tcp_link" name="tcp_link"/>
																	</attachment_full>
																</link>
															</attachment_full>
														</link>
													</attachment_full>
												</link>
											</attachment_full>
										</link>
									</attachment_full>
								</link>
							</attachment_full>
						</link>
					</attachment_full>
					<attachment_full joint="kmodel0/second_slot_joint">
						<translate>-0.0472 0.35102 0.25292</translate>
						<rotate>-0.0 -0.70711 0.70711 180.0</rotate>
						<link sid="second_slot_link" name="second_slot_link"/>
					</attachment_full>
				</link>
				<formula sid="right_finger_joint_formula">
					<target>
						<param>kmodel0/right_finger_joint</param>
					</target>
					<technique_common>
						<math>
							<apply>
								<plus/>
								<apply>
									<times/>
									<cn>1.000000</cn>
									<csymbol encoding="COLLADA">kmodel0/left_finger_joint</csymbol>
								</apply>
								<cn>0.000000</cn>
							</apply>
						</math>
					</technique_common>
					<technique profile="OpenRAVE">
						<equation type="position">
							<math>
								<apply>
									<plus/>
									<apply>
										<times/>
										<cn>1.000000</cn>
										<csymbol encoding="COLLADA">kmodel0/left_finger_joint</csymbol>
									</apply>
									<cn>0.000000</cn>
								</apply>
							</math>
						</equation>
						<equation type="first_partial" target="kmodel0/left_finger_joint">
							<cn>1.000000</cn>
						</equation>
						<equation type="second_partial" target="kmodel0/left_finger_joint">
							<cn>1.000000</cn>
						</equation>
					</technique>
				</formula>
			</technique_common>
		</kinematics_model>
	</library_kinematics_models>
	<library_articulated_systems id="asystems">
		<articulated_system id="robot0_motion">
			<motion>
				<instance_articulated_system url="#robot0_kinematics">
					<newparam sid="robot0_motion_kmodel0_inst">
						<SIDREF>robot0_kinematics/robot0_kinematics_kmodel0_inst</SIDREF>
					</newparam>
					<newparam sid="robot0_motion_robot0_kinematics_kmodel0_inst_first_slot_joint_axis0">
						<SIDREF>robot0_kinematics/robot0_kinematics_kmodel0_inst_first_slot_joint_axis0</SIDREF>
					</newparam>
					<newparam sid="robot0_motion_robot0_kinematics_kmodel0_inst_first_slot_joint_axis0_value">
						<SIDREF>robot0_kinematics/robot0_kinematics_kmodel0_inst_first_slot_joint_axis0_value</SIDREF>
					</newparam>
					<newparam sid="robot0_motion_robot0_kinematics_kmodel0_inst_joint1_axis0">
						<SIDREF>robot0_kinematics/robot0_kinematics_kmodel0_inst_joint1_axis0</SIDREF>
					</newparam>
					<newparam sid="robot0_motion_robot0_kinematics_kmodel0_inst_joint1_axis0_value">
						<SIDREF>robot0_kinematics/robot0_kinematics_kmodel0_inst_joint1_axis0_value</SIDREF>
					</newparam>
					<newparam sid="robot0_motion_robot0_kinematics_kmodel0_inst_joint2_axis0">
						<SIDREF>robot0_kinematics/robot0_kinematics_kmodel0_inst_joint2_axis0</SIDREF>
					</newparam>
					<newparam sid="robot0_motion_robot0_kinematics_kmodel0_inst_joint2_axis0_value">
						<SIDREF>robot0_kinematics/robot0_kinematics_kmodel0_inst_joint2_axis0_value</SIDREF>
					</newparam>
					<newparam sid="robot0_motion_robot0_kinematics_kmodel0_inst_joint3_axis0">
						<SIDREF>robot0_kinematics/robot0_kinematics_kmodel0_inst_joint3_axis0</SIDREF>
					</newparam>
					<newparam sid="robot0_motion_robot0_kinematics_kmodel0_inst_joint3_axis0_value">
						<SIDREF>robot0_kinematics/robot0_kinematics_kmodel0_inst_joint3_axis0_value</SIDREF>
					</newparam>
					<newparam sid="robot0_motion_robot0_kinematics_kmodel0_inst_joint4_axis0">
						<SIDREF>robot0_kinematics/robot0_kinematics_kmodel0_inst_joint4_axis0</SIDREF>
					</newparam>
					<newparam sid="robot0_motion_robot0_kinematics_kmodel0_inst_joint4_axis0_value">
						<SIDREF>robot0_kinematics/robot0_kinematics_kmodel0_inst_joint4_axis0_value</SIDREF>
					</newparam>
					<newparam sid="robot0_motion_robot0_kinematics_kmodel0_inst_joint5_axis0">
						<SIDREF>robot0_kinematics/robot0_kinematics_kmodel0_inst_joint5_axis0</SIDREF>
					</newparam>
					<newparam sid="robot0_motion_robot0_kinematics_kmodel0_inst_joint5_axis0_value">
						<SIDREF>robot0_kinematics/robot0_kinematics_kmodel0_inst_joint5_axis0_value</SIDREF>
					</newparam>
					<newparam sid="robot0_motion_robot0_kinematics_kmodel0_inst_joint6_axis0">
						<SIDREF>robot0_kinematics/robot0_kinematics_kmodel0_inst_joint6_axis0</SIDREF>
					</newparam>
					<newparam sid="robot0_motion_robot0_kinematics_kmodel0_inst_joint6_axis0_value">
						<SIDREF>robot0_kinematics/robot0_kinematics_kmodel0_inst_joint6_axis0_value</SIDREF>
					</newparam>
					<newparam sid="robot0_motion_robot0_kinematics_kmodel0_inst_left_finger_joint_axis0">
						<SIDREF>robot0_kinematics/robot0_kinematics_kmodel0_inst_left_finger_joint_axis0</SIDREF>
					</newparam>
					<newparam sid="robot0_motion_robot0_kinematics_kmodel0_inst_left_finger_joint_axis0_value">
						<SIDREF>robot0_kinematics/robot0_kinematics_kmodel0_inst_left_finger_joint_axis0_value</SIDREF>
					</newparam>
					<newparam sid="robot0_motion_robot0_kinematics_kmodel0_inst_right_finger_joint_axis0">
						<SIDREF>robot0_kinematics/robot0_kinematics_kmodel0_inst_right_finger_joint_axis0</SIDREF>
					</newparam>
					<newparam sid="robot0_motion_robot0_kinematics_kmodel0_inst_right_finger_joint_axis0_value">
						<SIDREF>robot0_kinematics/robot0_kinematics_kmodel0_inst_right_finger_joint_axis0_value</SIDREF>
					</newparam>
					<newparam sid="robot0_motion_robot0_kinematics_kmodel0_inst_second_slot_joint_axis0">
						<SIDREF>robot0_kinematics/robot0_kinematics_kmodel0_inst_second_slot_joint_axis0</SIDREF>
					</newparam>
					<newparam sid="robot0_motion_robot0_kinematics_kmodel0_inst_second_slot_joint_axis0_value">
						<SIDREF>robot0_kinematics/robot0_kinematics_kmodel0_inst_second_slot_joint_axis0_value</SIDREF>
					</newparam>
					<newparam sid="robot0_motion_robot0_kinematics_kmodel0_inst_tcp_joint_axis0">
						<SIDREF>robot0_kinematics/robot0_kinematics_kmodel0_inst_tcp_joint_axis0</SIDREF>
					</newparam>
					<newparam sid="robot0_motion_robot0_kinematics_kmodel0_inst_tcp_joint_axis0_value">
						<SIDREF>robot0_kinematics/robot0_kinematics_kmodel0_inst_tcp_joint_axis0_value</SIDREF>
					</newparam>
				</instance_articulated_system>
				<technique_common>
					<axis_info axis="robot0_kinematics/axis_info_inst0"/>
					<axis_info axis="robot0_kinematics/axis_info_inst1">
						<speed>
							<float>0.0</float>
						</speed>
						<acceleration>
							<float>0.0</float>
						</acceleration>
					</axis_info>
					<axis_info axis="robot0_kinematics/axis_info_inst2">
						<speed>
							<float>0.0</float>
						</speed>
						<acceleration>
							<float>0.0</float>
						</acceleration>
					</axis_info>
					<axis_info axis="robot0_kinematics/axis_info_inst3">
						<speed>
							<float>0.0</float>
						</speed>
						<acceleration>
							<float>0.0</float>
						</acceleration>
					</axis_info>
					<axis_info axis="robot0_kinematics/axis_info_inst4">
						<speed>
							<float>0.0</float>
						</speed>
						<acceleration>
							<float>0.0</float>
						</acceleration>
					</axis_info>
					<axis_info axis="robot0_kinematics/axis_info_inst5">
						<speed>
							<float>0.0</float>
						</speed>
						<acceleration>
							<float>0.0</float>
						</acceleration>
					</axis_info>
					<axis_info axis="robot0_kinematics/axis_info_inst6">
						<speed>
							<float>0.0</float>
						</speed>
						<acceleration>
							<float>0.0</float>
						</acceleration>
					</axis_info>
					<axis_info axis="robot0_kinematics/axis_info_inst7">
						<speed>
							<float>0.0</float>
						</speed>
						<acceleration>
							<float>0.0</float>
						</acceleration>
					</axis_info>
					<axis_info axis="robot0_kinematics/axis_info_inst8">
						<speed>
							<float>0.0</float>
						</speed>
						<acceleration>
							<float>0.0</float>
						</acceleration>
					</axis_info>
					<axis_info axis="robot0_kinematics/axis_info_inst9"/>
					<axis_info axis="robot0_kinematics/axis_info_inst10"/>
				</technique_common>
			</motion>
		</articulated_system>
		<articulated_system id="robot0_kinematics">
			<kinematics>
				<instance_kinematics_model url="#kmodel0" sid="kmodel0_inst">
					<newparam sid="robot0_kinematics_kmodel0_inst">
						<SIDREF>robot0_kinematics/kmodel0_inst</SIDREF>
					</newparam>
					<newparam sid="robot0_kinematics_kmodel0_inst_first_slot_joint_axis0">
						<SIDREF>robot0_kinematics/kmodel0_inst/first_slot_joint/axis0</SIDREF>
					</newparam>
					<newparam sid="robot0_kinematics_kmodel0_inst_first_slot_joint_axis0_value">
						<float>0.0</float>
					</newparam>
					<newparam sid="robot0_kinematics_kmodel0_inst_joint1_axis0">
						<SIDREF>robot0_kinematics/kmodel0_inst/joint1/axis0</SIDREF>
					</newparam>
					<newparam sid="robot0_kinematics_kmodel0_inst_joint1_axis0_value">
						<float>0.0</float>
					</newparam>
					<newparam sid="robot0_kinematics_kmodel0_inst_joint2_axis0">
						<SIDREF>robot0_kinematics/kmodel0_inst/joint2/axis0</SIDREF>
					</newparam>
					<newparam sid="robot0_kinematics_kmodel0_inst_joint2_axis0_value">
						<float>0.0</float>
					</newparam>
					<newparam sid="robot0_kinematics_kmodel0_inst_joint3_axis0">
						<SIDREF>robot0_kinematics/kmodel0_inst/joint3/axis0</SIDREF>
					</newparam>
					<newparam sid="robot0_kinematics_kmodel0_inst_joint3_axis0_value">
						<float>0.0</float>
					</newparam>
					<newparam sid="robot0_kinematics_kmodel0_inst_joint4_axis0">
						<SIDREF>robot0_kinematics/kmodel0_inst/joint4/axis0</SIDREF>
					</newparam>
					<newparam sid="robot0_kinematics_kmodel0_inst_joint4_axis0_value">
						<float>0.0</float>
					</newparam>
					<newparam sid="robot0_kinematics_kmodel0_inst_joint5_axis0">
						<SIDREF>robot0_kinematics/kmodel0_inst/joint5/axis0</SIDREF>
					</newparam>
					<newparam sid="robot0_kinematics_kmodel0_inst_joint5_axis0_value">
						<float>0.0</float>
					</newparam>
					<newparam sid="robot0_kinematics_kmodel0_inst_joint6_axis0">
						<SIDREF>robot0_kinematics/kmodel0_inst/joint6/axis0</SIDREF>
					</newparam>
					<newparam sid="robot0_kinematics_kmodel0_inst_joint6_axis0_value">
						<float>0.0</float>
					</newparam>
					<newparam sid="robot0_kinematics_kmodel0_inst_left_finger_joint_axis0">
						<SIDREF>robot0_kinematics/kmodel0_inst/left_finger_joint/axis0</SIDREF>
					</newparam>
					<newparam sid="robot0_kinematics_kmodel0_inst_left_finger_joint_axis0_value">
						<float>0.0</float>
					</newparam>
					<newparam sid="robot0_kinematics_kmodel0_inst_right_finger_joint_axis0">
						<SIDREF>robot0_kinematics/kmodel0_inst/right_finger_joint/axis0</SIDREF>
					</newparam>
					<newparam sid="robot0_kinematics_kmodel0_inst_right_finger_joint_axis0_value">
						<float>0.0</float>
					</newparam>
					<newparam sid="robot0_kinematics_kmodel0_inst_second_slot_joint_axis0">
						<SIDREF>robot0_kinematics/kmodel0_inst/second_slot_joint/axis0</SIDREF>
					</newparam>
					<newparam sid="robot0_kinematics_kmodel0_inst_second_slot_joint_axis0_value">
						<float>0.0</float>
					</newparam>
					<newparam sid="robot0_kinematics_kmodel0_inst_tcp_joint_axis0">
						<SIDREF>robot0_kinematics/kmodel0_inst/tcp_joint/axis0</SIDREF>
					</newparam>
					<newparam sid="robot0_kinematics_kmodel0_inst_tcp_joint_axis0_value">
						<float>0.0</float>
					</newparam>
				</instance_kinematics_model>
				<technique_common>
					<axis_info sid="axis_info_inst0" axis="kmodel0/first_slot_joint/axis0">
						<active>
							<bool>false</bool>
						</active>
						<locked>
							<bool>false</bool>
						</locked>
						<limits>
							<min><float>0.0</float>
							</min>
							<max><float>0.0</float>
							</max>
						</limits>
					</axis_info>
					<axis_info sid="axis_info_inst1" axis="kmodel0/joint1/axis0">
						<active>
							<bool>true</bool>
						</active>
						<locked>
							<bool>false</bool>
						</locked>
						<limits>
							<min><float>-179.90875</float>
							</min>
							<max><float>179.90875</float>
							</max>
						</limits>
					</axis_info>
					<axis_info sid="axis_info_inst2" axis="kmodel0/joint2/axis0">
						<active>
							<bool>true</bool>
						</active>
						<locked>
							<bool>false</bool>
						</locked>
						<limits>
							<min><float>-56.65407</float>
							</min>
							<max><float>68.75494</float>
							</max>
						</limits>
					</axis_info>
					<axis_info sid="axis_info_inst3" axis="kmodel0/joint3/axis0">
						<active>
							<bool>true</bool>
						</active>
						<locked>
							<bool>false</bool>
						</locked>
						<limits>
							<min><float>-164.00344</float>
							</min>
							<max><float>152.08019</float>
							</max>
						</limits>
					</axis_info>
					<axis_info sid="axis_info_inst4" axis="kmodel0/joint4/axis0">
						<active>
							<bool>true</bool>
						</active>
						<locked>
							<bool>false</bool>
						</locked>
						<limits>
							<min><float>-179.90875</float>
							</min>
							<max><float>179.90875</float>
							</max>
						</limits>
					</axis_info>
					<axis_info sid="axis_info_inst5" axis="kmodel0/joint5/axis0">
						<active>
							<bool>true</bool>
						</active>
						<locked>
							<bool>false</bool>
						</locked>
						<limits>
							<min><float>-96.41734</float>
							</min>
							<max><float>96.41734</float>
							</max>
						</limits>
					</axis_info>
					<axis_info sid="axis_info_inst6" axis="kmodel0/joint6/axis0">
						<active>
							<bool>true</bool>
						</active>
						<locked>
							<bool>false</bool>
						</locked>
						<limits>
							<min><float>-179.90875</float>
							</min>
							<max><float>179.90875</float>
							</max>
						</limits>
					</axis_info>
					<axis_info sid="axis_info_inst7" axis="kmodel0/left_finger_joint/axis0">
						<active>
							<bool>true</bool>
						</active>
						<locked>
							<bool>false</bool>
						</locked>
						<limits>
							<min><float>0.0</float>
							</min>
							<max><float>0.047</float>
							</max>
						</limits>
					</axis_info>
					<axis_info sid="axis_info_inst8" axis="kmodel0/right_finger_joint/axis0">
						<active>
							<bool>false</bool>
						</active>
						<locked>
							<bool>false</bool>
						</locked>
						<limits>
							<min><float>-3.14</float>
							</min>
							<max><float>3.14</float>
							</max>
						</limits>
					</axis_info>
					<axis_info sid="axis_info_inst9" axis="kmodel0/second_slot_joint/axis0">
						<active>
							<bool>false</bool>
						</active>
						<locked>
							<bool>false</bool>
						</locked>
						<limits>
							<min><float>0.0</float>
							</min>
							<max><float>0.0</float>
							</max>
						</limits>
					</axis_info>
					<axis_info sid="axis_info_inst10" axis="kmodel0/tcp_joint/axis0">
						<active>
							<bool>false</bool>
						</active>
						<locked>
							<bool>false</bool>
						</locked>
						<limits>
							<min><float>0.0</float>
							</min>
							<max><float>0.0</float>
							</max>
						</limits>
					</axis_info>
				</technique_common>
			</kinematics>
		</articulated_system>
	</library_articulated_systems>
	<library_kinematics_scenes id="kscenes">
		<kinematics_scene id="kscene" name="URDF Kinematics Scene">
			<instance_articulated_system sid="robot0_motion_inst" url="#robot0_motion" name="engineer_v4">
				<bind symbol="kscene_kmodel0_inst">
					<param ref="robot0_motion/robot0_motion_kmodel0_inst"/>
				</bind>
				<bind symbol="kscene_kmodel0_inst_robot0_kinematics_kmodel0_inst_first_slot_joint_axis0">
					<param ref="robot0_motion/robot0_motion_robot0_kinematics_kmodel0_inst_first_slot_joint_axis0"/>
				</bind>
				<bind symbol="kscene_kmodel0_inst_robot0_kinematics_kmodel0_inst_first_slot_joint_axis0_value">
					<param ref="robot0_motion/robot0_motion_robot0_kinematics_kmodel0_inst_first_slot_joint_axis0_value"/>
				</bind>
				<bind symbol="kscene_kmodel0_inst_robot0_kinematics_kmodel0_inst_joint1_axis0">
					<param ref="robot0_motion/robot0_motion_robot0_kinematics_kmodel0_inst_joint1_axis0"/>
				</bind>
				<bind symbol="kscene_kmodel0_inst_robot0_kinematics_kmodel0_inst_joint1_axis0_value">
					<param ref="robot0_motion/robot0_motion_robot0_kinematics_kmodel0_inst_joint1_axis0_value"/>
				</bind>
				<bind symbol="kscene_kmodel0_inst_robot0_kinematics_kmodel0_inst_joint2_axis0">
					<param ref="robot0_motion/robot0_motion_robot0_kinematics_kmodel0_inst_joint2_axis0"/>
				</bind>
				<bind symbol="kscene_kmodel0_inst_robot0_kinematics_kmodel0_inst_joint2_axis0_value">
					<param ref="robot0_motion/robot0_motion_robot0_kinematics_kmodel0_inst_joint2_axis0_value"/>
				</bind>
				<bind symbol="kscene_kmodel0_inst_robot0_kinematics_kmodel0_inst_joint3_axis0">
					<param ref="robot0_motion/robot0_motion_robot0_kinematics_kmodel0_inst_joint3_axis0"/>
				</bind>
				<bind symbol="kscene_kmodel0_inst_robot0_kinematics_kmodel0_inst_joint3_axis0_value">
					<param ref="robot0_motion/robot0_motion_robot0_kinematics_kmodel0_inst_joint3_axis0_value"/>
				</bind>
				<bind symbol="kscene_kmodel0_inst_robot0_kinematics_kmodel0_inst_joint4_axis0">
					<param ref="robot0_motion/robot0_motion_robot0_kinematics_kmodel0_inst_joint4_axis0"/>
				</bind>
				<bind symbol="kscene_kmodel0_inst_robot0_kinematics_kmodel0_inst_joint4_axis0_value">
					<param ref="robot0_motion/robot0_motion_robot0_kinematics_kmodel0_inst_joint4_axis0_value"/>
				</bind>
				<bind symbol="kscene_kmodel0_inst_robot0_kinematics_kmodel0_inst_joint5_axis0">
					<param ref="robot0_motion/robot0_motion_robot0_kinematics_kmodel0_inst_joint5_axis0"/>
				</bind>
				<bind symbol="kscene_kmodel0_inst_robot0_kinematics_kmodel0_inst_joint5_axis0_value">
					<param ref="robot0_motion/robot0_motion_robot0_kinematics_kmodel0_inst_joint5_axis0_value"/>
				</bind>
				<bind symbol="kscene_kmodel0_inst_robot0_kinematics_kmodel0_inst_joint6_axis0">
					<param ref="robot0_motion/robot0_motion_robot0_kinematics_kmodel0_inst_joint6_axis0"/>
				</bind>
				<bind symbol="kscene_kmodel0_inst_robot0_kinematics_kmodel0_inst_joint6_axis0_value">
					<param ref="robot0_motion/robot0_motion_robot0_kinematics_kmodel0_inst_joint6_axis0_value"/>
				</bind>
				<bind symbol="kscene_kmodel0_inst_robot0_kinematics_kmodel0_inst_left_finger_joint_axis0">
					<param ref="robot0_motion/robot0_motion_robot0_kinematics_kmodel0_inst_left_finger_joint_axis0"/>
				</bind>
				<bind symbol="kscene_kmodel0_inst_robot0_kinematics_kmodel0_inst_left_finger_joint_axis0_value">
					<param ref="robot0_motion/robot0_motion_robot0_kinematics_kmodel0_inst_left_finger_joint_axis0_value"/>
				</bind>
				<bind symbol="kscene_kmodel0_inst_robot0_kinematics_kmodel0_inst_right_finger_joint_axis0">
					<param ref="robot0_motion/robot0_motion_robot0_kinematics_kmodel0_inst_right_finger_joint_axis0"/>
				</bind>
				<bind symbol="kscene_kmodel0_inst_robot0_kinematics_kmodel0_inst_right_finger_joint_axis0_value">
					<param ref="robot0_motion/robot0_motion_robot0_kinematics_kmodel0_inst_right_finger_joint_axis0_value"/>
				</bind>
				<bind symbol="kscene_kmodel0_inst_robot0_kinematics_kmodel0_inst_second_slot_joint_axis0">
					<param ref="robot0_motion/robot0_motion_robot0_kinematics_kmodel0_inst_second_slot_joint_axis0"/>
				</bind>
				<bind symbol="kscene_kmodel0_inst_robot0_kinematics_kmodel0_inst_second_slot_joint_axis0_value">
					<param ref="robot0_motion/robot0_motion_robot0_kinematics_kmodel0_inst_second_slot_joint_axis0_value"/>
				</bind>
				<bind symbol="kscene_kmodel0_inst_robot0_kinematics_kmodel0_inst_tcp_joint_axis0">
					<param ref="robot0_motion/robot0_motion_robot0_kinematics_kmodel0_inst_tcp_joint_axis0"/>
				</bind>
				<bind symbol="kscene_kmodel0_inst_robot0_kinematics_kmodel0_inst_tcp_joint_axis0_value">
					<param ref="robot0_motion/robot0_motion_robot0_kinematics_kmodel0_inst_tcp_joint_axis0_value"/>
				</bind>
			</instance_articulated_system>
		</kinematics_scene>
	</library_kinematics_scenes>
	<library_physics_scenes id="pscenes">
		<physics_scene id="pscene" name="URDF Physics Scene">
			<instance_physics_model url="#pmodel0" sid="pmodel0_inst" parent="#visual0">
				<instance_rigid_body body="rigid0" target="#vkmodel0_node0"/>
				<instance_rigid_body body="rigid1" target="#vkmodel0_node1"/>
				<instance_rigid_body body="rigid2" target="#vkmodel0_node2"/>
				<instance_rigid_body body="rigid3" target="#vkmodel0_node3"/>
				<instance_rigid_body body="rigid4" target="#vkmodel0_node4"/>
				<instance_rigid_body body="rigid5" target="#vkmodel0_node5"/>
				<instance_rigid_body body="rigid6" target="#vkmodel0_node6"/>
				<instance_rigid_body body="rigid7" target="#vkmodel0_node7"/>
				<instance_rigid_body body="rigid8" target="#vkmodel0_node8"/>
				<instance_rigid_body body="rigid9" target="#vkmodel0_node9"/>
				<instance_rigid_body body="rigid10" target="#vkmodel0_node10"/>
				<instance_rigid_body body="rigid11" target="#vkmodel0_node11"/>
			</instance_physics_model>
			<technique_common>
				<gravity>0 0 0</gravity>
			</technique_common>
		</physics_scene>
	</library_physics_scenes>
	<library_physics_models id="pmodels">
		<physics_model id="pmodel0" name="engineer_v4">
			<rigid_body sid="rigid0" name="base_link">
				<technique_common/>
			</rigid_body>
			<rigid_body sid="rigid1" name="first_slot_link">
				<technique_common>
					<dynamic>true</dynamic>
					<mass>0.457371475868407</mass>
					<mass_frame>
						<translate>-0.0262 0.02947 0.22295</translate>
						<rotate>0.15484 -0.98611 -0.0601 119.66473</rotate>
					</mass_frame>
					<inertia>0.001746666242776346 0.001588577936876139 0.000705243048844065</inertia>
				</technique_common>
			</rigid_body>
			<rigid_body sid="rigid2" name="left_finger_link">
				<technique_common>
					<dynamic>true</dynamic>
					<mass>0.08425742603169981</mass>
					<mass_frame>
						<translate>-0.32336 0.25577 0.96534</translate>
						<rotate>-0.04041 -0.74314 -0.66792 10.75703</rotate>
					</mass_frame>
					<inertia>3.924769734345853e-05 4.058186532973189e-05 1.246651286001948e-05</inertia>
				</technique_common>
			</rigid_body>
			<rigid_body sid="rigid3" name="link1">
				<technique_common>
					<dynamic>true</dynamic>
					<mass>1.2003246264795</mass>
					<mass_frame>
						<translate>-0.26085 0.18976 0.13049</translate>
						<rotate>0.02509 -0.69995 -0.71375 177.03708</rotate>
					</mass_frame>
					<inertia>0.001102677872615308 0.001251598797124754 0.001682325585481778</inertia>
				</technique_common>
			</rigid_body>
			<rigid_body sid="rigid4" name="link2">
				<technique_common>
					<dynamic>true</dynamic>
					<mass>0.813392084625707</mass>
					<mass_frame>
						<translate>-0.26169 0.16731 0.34532</translate>
						<rotate>-0.70345 -0.00011 -0.71075 179.98592</rotate>
					</mass_frame>
					<inertia>0.0006726127063111848 0.008156238592855275 0.007683156060286823</inertia>
				</technique_common>
			</rigid_body>
			<rigid_body sid="rigid5" name="link3">
				<technique_common>
					<dynamic>true</dynamic>
					<mass>0.799120380289198</mass>
					<mass_frame>
						<translate>-0.26214 0.22484 0.59772</translate>
						<rotate>0.99997 0.00769 0.00174 88.02553</rotate>
					</mass_frame>
					<inertia>0.0005690999099977432 0.0005212678605998909 0.000668205883036953</inertia>
				</technique_common>
			</rigid_body>
			<rigid_body sid="rigid6" name="link4">
				<technique_common>
					<dynamic>true</dynamic>
					<mass>0.451620229714316</mass>
					<mass_frame>
						<translate>-0.26168 0.25326 0.749</translate>
						<rotate>0.00146 0.0 1.0 179.8795</rotate>
					</mass_frame>
					<inertia>0.000450940794528537 0.0004754679730850192 0.0001733743170391107</inertia>
				</technique_common>
			</rigid_body>
			<rigid_body sid="rigid7" name="link5">
				<technique_common>
					<dynamic>true</dynamic>
					<mass>0.386292385114177</mass>
					<mass_frame>
						<translate>-0.26122 0.24973 0.82978</translate>
						<rotate>0.57572 0.57802 -0.5783 120.14994</rotate>
					</mass_frame>
					<inertia>0.0002065803751659595 0.0001285931472172086 0.0001178168488199489</inertia>
				</technique_common>
			</rigid_body>
			<rigid_body sid="rigid8" name="link6">
				<technique_common>
					<dynamic>true</dynamic>
					<mass>0.288814280860144</mass>
					<mass_frame>
						<translate>-0.26164 0.24972 0.90779</translate>
						<rotate>0.73549 0.67753 0.00188 179.8005</rotate>
					</mass_frame>
					<inertia>0.0002162488811901442 7.456511383999172e-05 0.0002558803916381337</inertia>
				</technique_common>
			</rigid_body>
			<rigid_body sid="rigid9" name="right_finger_link">
				<technique_common>
					<dynamic>true</dynamic>
					<mass>0.08742373761391289</mass>
					<mass_frame>
						<translate>-0.20098 0.24366 0.96488</translate>
						<rotate>0.99733 -0.02062 0.07003 179.81282</rotate>
					</mass_frame>
					<inertia>3.927112010525877e-05 4.071317313040444e-05 1.259601424200509e-05</inertia>
				</technique_common>
			</rigid_body>
			<rigid_body sid="rigid10" name="second_slot_link">
				<technique_common>
					<dynamic>true</dynamic>
					<mass>0.457374603004739</mass>
					<mass_frame>
						<translate>-0.0262 0.35158 0.22295</translate>
						<rotate>-0.05842 0.24965 0.96657 164.89892</rotate>
					</mass_frame>
					<inertia>0.0007052532127383523 0.00158858737261155 0.001746671109471858</inertia>
				</technique_common>
			</rigid_body>
			<rigid_body sid="rigid11" name="tcp_link">
				<technique_common/>
			</rigid_body>
		</physics_model>
	</library_physics_models>
	<scene>
		<instance_physics_scene url="#pscene"/>
		<instance_visual_scene url="#vscene"/>
		<instance_kinematics_scene url="#kscene">
			<bind_kinematics_model node="visual0/node0">
				<param>kscene_kmodel0_inst</param>
			</bind_kinematics_model>
			<bind_joint_axis target="node1/node_first_slot_joint_axis0">
				<axis>
					<param>kscene_kmodel0_inst_robot0_kinematics_kmodel0_inst_first_slot_joint_axis0</param>
				</axis>
				<value>
					<param>kscene_kmodel0_inst_robot0_kinematics_kmodel0_inst_first_slot_joint_axis0_value</param>
				</value>
			</bind_joint_axis>
			<bind_joint_axis target="node3/node_joint1_axis0">
				<axis>
					<param>kscene_kmodel0_inst_robot0_kinematics_kmodel0_inst_joint1_axis0</param>
				</axis>
				<value>
					<param>kscene_kmodel0_inst_robot0_kinematics_kmodel0_inst_joint1_axis0_value</param>
				</value>
			</bind_joint_axis>
			<bind_joint_axis target="node0/node4/node_joint2_axis0">
				<axis>
					<param>kscene_kmodel0_inst_robot0_kinematics_kmodel0_inst_joint2_axis0</param>
				</axis>
				<value>
					<param>kscene_kmodel0_inst_robot0_kinematics_kmodel0_inst_joint2_axis0_value</param>
				</value>
			</bind_joint_axis>
			<bind_joint_axis target="node0/node3/node5/node_joint3_axis0">
				<axis>
					<param>kscene_kmodel0_inst_robot0_kinematics_kmodel0_inst_joint3_axis0</param>
				</axis>
				<value>
					<param>kscene_kmodel0_inst_robot0_kinematics_kmodel0_inst_joint3_axis0_value</param>
				</value>
			</bind_joint_axis>
			<bind_joint_axis target="node0/node3/node4/node6/node_joint4_axis0">
				<axis>
					<param>kscene_kmodel0_inst_robot0_kinematics_kmodel0_inst_joint4_axis0</param>
				</axis>
				<value>
					<param>kscene_kmodel0_inst_robot0_kinematics_kmodel0_inst_joint4_axis0_value</param>
				</value>
			</bind_joint_axis>
			<bind_joint_axis target="node0/node3/node4/node5/node7/node_joint5_axis0">
				<axis>
					<param>kscene_kmodel0_inst_robot0_kinematics_kmodel0_inst_joint5_axis0</param>
				</axis>
				<value>
					<param>kscene_kmodel0_inst_robot0_kinematics_kmodel0_inst_joint5_axis0_value</param>
				</value>
			</bind_joint_axis>
			<bind_joint_axis target="node0/node3/node4/node5/node6/node8/node_joint6_axis0">
				<axis>
					<param>kscene_kmodel0_inst_robot0_kinematics_kmodel0_inst_joint6_axis0</param>
				</axis>
				<value>
					<param>kscene_kmodel0_inst_robot0_kinematics_kmodel0_inst_joint6_axis0_value</param>
				</value>
			</bind_joint_axis>
			<bind_joint_axis target="node0/node3/node4/node5/node6/node7/node2/node_left_finger_joint_axis0">
				<axis>
					<param>kscene_kmodel0_inst_robot0_kinematics_kmodel0_inst_left_finger_joint_axis0</param>
				</axis>
				<value>
					<param>kscene_kmodel0_inst_robot0_kinematics_kmodel0_inst_left_finger_joint_axis0_value</param>
				</value>
			</bind_joint_axis>
			<bind_joint_axis target="node0/node3/node4/node5/node6/node7/node9/node_right_finger_joint_axis0">
				<axis>
					<param>kscene_kmodel0_inst_robot0_kinematics_kmodel0_inst_right_finger_joint_axis0</param>
				</axis>
				<value>
					<param>kscene_kmodel0_inst_robot0_kinematics_kmodel0_inst_right_finger_joint_axis0_value</param>
				</value>
			</bind_joint_axis>
			<bind_joint_axis target="node10/node_second_slot_joint_axis0">
				<axis>
					<param>kscene_kmodel0_inst_robot0_kinematics_kmodel0_inst_second_slot_joint_axis0</param>
				</axis>
				<value>
					<param>kscene_kmodel0_inst_robot0_kinematics_kmodel0_inst_second_slot_joint_axis0_value</param>
				</value>
			</bind_joint_axis>
			<bind_joint_axis target="node0/node3/node4/node5/node6/node7/node11/node_tcp_joint_axis0">
				<axis>
					<param>kscene_kmodel0_inst_robot0_kinematics_kmodel0_inst_tcp_joint_axis0</param>
				</axis>
				<value>
					<param>kscene_kmodel0_inst_robot0_kinematics_kmodel0_inst_tcp_joint_axis0_value</param>
				</value>
			</bind_joint_axis>
		</instance_kinematics_scene>
	</scene>
	<extra id="sensors" type="library_sensors">
		<technique profile="OpenRAVE"/>
	</extra>
</COLLADA>