<?xml version="1.0" encoding="UTF-8"?>
<COLLADA xmlns="http://www.collada.org/2005/11/COLLADASchema" version="1.4.1">
<!--
# File generated by ImageToStl.com - Free Image and 3D model conversion tools
-->
  <asset>
    <contributor>
      <author>ImageToStl.com</author>
      <authoring_tool>ImageToStl.com</authoring_tool>
    </contributor>
    <created>2026-04-08T11:06:30</created>
    <modified>2026-04-08T11:06:30</modified>
    <up_axis>Z_UP</up_axis>
  </asset>
  <library_effects>
    <effect id="effect_0">
        <profile_COMMON>
          <technique sid="common">
            <phong>
              <diffuse>
                <color>0.85 0.85 0.85 1</color>
              </diffuse>
              <specular>
                <color>0.05 0.05 0.05 1</color>
              </specular>
              <shininess>
                <float>64</float>
              </shininess>
            </phong>
          </technique>
        </profile_COMMON>
    </effect>
  </library_effects>
  <library_materials>
    <material id="mat_0">
      <instance_effect url="#effect_0"/>
    </material>
  </library_materials>
  <library_geometries>
    <geometry id="geometry_5b9aa684_8111_4882_a1e6_d8898d941c77">
      <mesh>
        <source id="pos_0">
          <float_array id="pos_0-array" count="1311">-0.00423021 -0.0575 0.03713331 0.00971652 -0.0575 0.0383535 0.00935773 -0.05703617 0.04245447 -0.004589 -0.05703617 0.04123429 0.00901693 -0.05566793 0.0463498 -0.0049298 -0.05566793 0.04512962 -0.01190316 -0.05566793 0.04451953 -0.01216229 -0.05387448 0.04748137 -0.01718985 -0.05346389 0.04757812 -0.00518892 -0.05387448 0.04809146 -0.01688413 -0.05566793 0.04408375 -0.01654334 -0.05703617 0.04018842 -0.01156236 -0.05703617 0.0406242 -0.01618455 -0.0575 0.03608745 -0.01120357 -0.0575 0.03652323 0.00871121 -0.05346389 0.04984416 0.00845591 -0.05053457 0.05276234 -0.01744516 -0.05053457 0.05049629 0.00826381 -0.04702685 0.05495799 -0.01763725 -0.04702685 0.05269194 0.00814456 -0.04311664 0.05632103 -0.0177565 -0.04311664 0.05405498 0.00810413 -0.039 0.0567831 -0.01779693 -0.039 0.05451705 -0.0032715 0.04682624 0.02617517 -0.01024486 0.04682624 0.02556508 -0.01021375 0.04629865 0.02520952 -0.01219339 0.04629865 0.04783693 -0.01216229 0.04682624 0.04748137 -0.00518892 0.04682624 0.04809146 0.00853991 0.039 0.05180212 -0.01238018 0.039 0.04997185 0.00858757 0.04280338 0.05125736 -0.01233252 0.04280338 0.04942709 0.00872669 0.04629865 0.0496672 0.008946 0.04920262 0.04716047 -0.00500072 0.04920262 0.04594029 0.00922774 0.05128003 0.04394026 -0.00471899 0.05128003 0.04272008 0.00954907 0.05236259 0.04026743 -0.00439766 0.05236259 0.03904726 0.00988396 0.05236259 0.03643956 -0.00406276 0.05236259 0.03521938 0.01020529 0.05128003 0.03276673 -0.00374143 0.05128003 0.03154655 0.01048703 0.04920262 0.02954652 -0.0034597 0.04920262 0.02832634 0.01070634 0.04629865 0.02703979 0.01084546 0.04280338 0.02544963 -0.01007463 0.04280338 0.02361936 0.01089312 0.039 0.02490487 -0.01002697 0.039 0.0230746 0.00566309 0.0302 0.0244473 0.00638534 0.03000573 0.02451049 0.00638534 -0.02749427 0.02451049 0.00691405 -0.02802501 0.02455674 0.00710758 -0.02875001 0.02457367 0.01089312 -0.039 0.02490487 0.00691405 -0.02947501 0.02455674 -0.00479695 0.02729999 0.02353216 -0.00551919 0.02749426 0.02346898 -0.00624143 -0.02875001 0.02340579 -0.01002697 -0.039 0.0230746 -0.00604791 -0.02947501 0.02342272 -0.00551919 -0.03000574 0.02346898 -0.00604791 0.02802499 0.02342272 -0.00624143 0.02874999 0.02340579 -0.00604791 0.02947499 0.02342272 -0.00551919 0.03000573 0.02346898 0.00566309 -0.02730001 0.0244473 0.00638534 0.02749426 0.02451049 0.00638534 -0.03000574 0.02451049 0.00566309 -0.03020001 0.0244473 0.00494085 -0.03000574 0.02438411 0.00441214 -0.02947501 0.02433785 0.00494085 0.02749426 0.02438411 0.00441214 0.02802499 0.02433785 -0.00407471 0.02749426 0.02359535 0.00691405 0.02947499 0.02455674 0.00710758 0.02874999 0.02457367 0.00691405 0.02802499 0.02455674 -0.00479695 -0.02730001 0.02353216 -0.00407471 -0.02749427 0.02359535 0.00566309 0.02729999 0.0244473 0.00494085 0.03000573 0.02438411 0.00441214 0.02947499 0.02433785 -0.00604791 -0.02802501 0.02342272 -0.00551919 -0.02749427 0.02346898 0.00421861 -0.02875001 0.02432092 0.00441214 -0.02802501 0.02433785 0.00494085 -0.02749427 0.02438411 -0.00479695 0.0302 0.02353216 -0.00407471 0.03000573 0.02359535 -0.00354599 0.02947499 0.02364161 0.00421861 0.02874999 0.02432092 -0.00335247 0.02874999 0.02365854 -0.00354599 0.02802499 0.02364161 -0.00354599 -0.02802501 0.02364161 -0.00335247 -0.02875001 0.02365854 -0.00354599 -0.02947501 0.02364161 -0.00407471 -0.03000574 0.02359535 -0.00479695 -0.03020001 0.02353216 -0.00518892 -0.04682624 0.04809146 -0.01216229 -0.04682624 0.04748137 -0.01219339 -0.04629866 0.04783693 -0.01021375 -0.04629866 0.02520952 -0.01024486 -0.04682624 0.02556508 -0.0032715 -0.04682624 0.02617517 0.01084546 -0.04280339 0.02544963 -0.01007463 -0.04280339 0.02361936 0.01070634 -0.04629866 0.02703979 0.01048703 -0.04920262 0.02954652 -0.0034597 -0.04920262 0.02832634 0.01020529 -0.05128004 0.03276673 -0.00374143 -0.05128004 0.03154655 0.00988396 -0.05236259 0.03643956 -0.00406276 -0.05236259 0.03521938 0.00954907 -0.05236259 0.04026743 -0.00439766 -0.05236259 0.03904726 0.00922774 -0.05128004 0.04394026 -0.00471899 -0.05128004 0.04272008 0.008946 -0.04920262 0.04716047 -0.00500072 -0.04920262 0.04594029 0.00872669 -0.04629866 0.0496672 0.00858757 -0.04280339 0.05125736 -0.01233252 -0.04280339 0.04942709 0.00853991 -0.039 0.05180212 -0.01238018 -0.039 0.04997185 0.00682112 -0.03000574 0.01952951 0.00734983 -0.02947501 0.01957577 0.0113289 -0.0575 0.01992389 0.00754336 -0.02875001 0.0195927 0.0113289 0.0575 0.01992389 -0.00363893 -0.02749427 0.01861438 -0.00580565 0.02874999 0.01842481 -0.00311021 -0.02802501 0.01866063 -0.00561213 0.02802499 0.01844175 -0.00291669 -0.02875001 0.01867757 0.00609887 0.0302 0.01946633 -0.01457217 0.0575 0.01765784 0.00537663 0.03000573 0.01940314 0.00484792 0.02947499 0.01935688 0.00754336 0.02874999 0.0195927 0.00734983 0.02947499 0.01957577 0.00682112 0.03000573 0.01952951 0.00734983 -0.02802501 0.01957577 0.00682112 -0.02749427 0.01952951 0.00734983 0.02802499 0.01957577 0.00484792 -0.02802501 0.01935688 -0.00436117 -0.03020001 0.01855119 -0.00363893 -0.03000574 0.01861438 -0.00580565 -0.02875001 0.01842481 -0.01457217 -0.0575 0.01765784 -0.00436117 0.02729999 0.01855119 -0.00363893 0.02749426 0.01861438 0.00484792 0.02802499 0.01935688 -0.00311021 0.02802499 0.01866063 0.00465439 0.02874999 0.01933995 -0.00291669 0.02874999 0.01867757 -0.00311021 0.02947499 0.01866063 -0.00363893 0.03000573 0.01861438 -0.00436117 0.0302 0.01855119 0.00537663 0.02749426 0.01940314 -0.00508341 0.02749426 0.018488 -0.00311021 -0.02947501 0.01866063 0.00537663 -0.02749427 0.01940314 0.00609887 -0.02730001 0.01946633 0.00609887 0.02729999 0.01946633 0.00682112 0.02749426 0.01952951 -0.00508341 0.03000573 0.018488 -0.00561213 0.02947499 0.01844175 -0.00561213 -0.02947501 0.01844175 -0.00508341 -0.03000574 0.018488 -0.00436117 -0.02730001 0.01855119 -0.00508341 -0.02749427 0.018488 -0.00561213 -0.02802501 0.01844175 0.00465439 -0.02875001 0.01933995 0.00484792 -0.02947501 0.01935688 0.00537663 -0.03000574 0.01940314 0.00609887 -0.03020001 0.01946633 -0.0049298 0.05566792 0.04512962 -0.00518892 0.05387447 0.04809146 0.00871121 0.05346388 0.04984416 -0.01216229 0.05387447 0.04748137 -0.01718985 0.05346388 0.04757812 -0.01688413 0.05566792 0.04408375 0.00901693 0.05566792 0.0463498 0.00935773 0.05703616 0.04245447 -0.004589 0.05703616 0.04123429 0.00971652 0.0575 0.0383535 -0.00423021 0.0575 0.03713331 -0.01190316 0.05566792 0.04451953 -0.01156236 0.05703616 0.0406242 -0.01654334 0.05703616 0.04018842 -0.01120357 0.0575 0.03652323 -0.01618455 0.0575 0.03608745 -0.01744516 0.05053456 0.05049629 0.00845591 0.05053456 0.05276234 -0.01763725 0.04702685 0.05269194 0.00826381 0.04702685 0.05495799 -0.0177565 0.04311663 0.05405498 0.00814456 0.04311663 0.05632103 -0.01779693 0.039 0.05451705 0.00810413 0.039 0.0567831 0.01082916 0.05374692 0.02563589 0.01087542 0.05427766 0.02510717 0.01081223 0.05302192 0.02582941 0.01093861 0.05447192 0.02438493 0.01100179 0.05427766 0.02366268 0.01104805 0.05374692 0.02313397 0.01087542 0.05176619 0.02510717 0.01082916 0.05229693 0.02563589 0.00821258 0.000725 0.05554357 0.00819565 -0 0.05573709 0.00821258 -0.000725 0.05554357 0.00825884 -0.00125574 0.05501485 0.01100179 -0.05176619 0.02366268 0.01104805 -0.05229693 0.02313397 0.01106498 -0.05302193 0.02294044 0.01104805 -0.05374693 0.02313397 0.01082916 -0.05374693 0.02563589 0.01081223 -0.05302193 0.02582941 0.01100179 -0.05427767 0.02366268 0.01093861 -0.05447193 0.02438493 0.01087542 -0.05427767 0.02510717 0.01106498 0.05302192 0.02294044 0.01104805 0.05229693 0.02313397 0.01100179 0.05176619 0.02366268 0.01093861 -0.05157193 0.02438493 0.01093861 0.05157192 0.02438493 0.00838521 -0.00125574 0.05357037 0.00832202 -0.00145 0.05429261 0.01082916 -0.05229693 0.02563589 0.00838521 0.00125573 0.05357037 0.00843147 0.000725 0.05304165 0.0084484 -0 0.05284813 0.00843147 -0.000725 0.05304165 0.00825884 0.00125573 0.05501485 0.00832202 0.00144999 0.05429261 0.01087542 -0.05176619 0.02510717 -0.01618455 0.02409999 0.03608745 -0.01611482 0.02388564 0.03529049 -0.01606378 0.02329999 0.03470708 -0.0160451 0.0225 0.03449354 -0.01606378 0.02169999 0.03470708 -0.01625427 -0.02111436 0.0368844 -0.01630531 -0.02170001 0.03746781 -0.01625427 0.02388564 0.0368844 -0.01611482 -0.02388565 0.03529049 -0.01618455 -0.02410001 0.03608745 -0.01630531 0.02329999 0.03746781 -0.016324 0.0225 0.03768136 -0.01630531 0.02169999 0.03746781 -0.01625427 0.02111435 0.0368844 -0.01618455 -0.02090001 0.03608745 -0.01618455 0.02089999 0.03608745 -0.01611482 -0.02111436 0.03529049 -0.01611482 0.02111435 0.03529049 -0.01606378 -0.02170001 0.03470708 -0.0160451 -0.02250001 0.03449354 -0.01606378 -0.02330001 0.03470708 -0.016324 -0.02250001 0.03768136 -0.01630531 -0.02330001 0.03746781 -0.01625427 -0.02388565 0.0368844 -0.01132434 -0.02330001 0.03790359 -0.01134302 -0.02250001 0.03811714 -0.01024486 0.0575 0.02556508 -0.01024486 -0.0575 0.02556508 -0.01108281 -0.02170001 0.03514286 -0.01106413 -0.02250001 0.03492931 -0.01108281 0.02329999 0.03514286 -0.01113385 0.02388564 0.03572627 -0.01120357 0.02409999 0.03652323 -0.01134302 0.0225 0.03811714 -0.01132434 0.02329999 0.03790359 -0.0112733 0.02388564 0.03732018 -0.01132434 -0.02170001 0.03790359 -0.0112733 -0.02111436 0.03732018 -0.01120357 -0.02410001 0.03652323 -0.01113385 -0.02388565 0.03572627 -0.01108281 -0.02330001 0.03514286 -0.01132434 0.02169999 0.03790359 -0.0112733 0.02111435 0.03732018 -0.0112733 -0.02388565 0.03732018 -0.01106413 0.0225 0.03492931 -0.01108281 0.02169999 0.03514286 -0.01113385 0.02111435 0.03572627 -0.01120357 0.02089999 0.03652323 -0.01120357 -0.02090001 0.03652323 -0.01113385 -0.02111436 0.03572627 -0.0032715 -0.0575 0.02617517 -0.0032715 0.0575 0.02617517 -0.00413069 -0.05302193 0.02452207 -0.00411376 -0.05374693 0.02432855 -0.0040675 -0.05427767 0.02379983 -0.00400431 -0.05447193 0.02307759 -0.00394113 -0.05427767 0.02235535 -0.00389487 -0.05374693 0.02182663 -0.00387794 -0.05302193 0.02163311 -0.00389487 -0.05229693 0.02182663 -0.00394113 -0.05176619 0.02235535 -0.00400431 -0.05157193 0.02307759 -0.0040675 -0.05176619 0.02379983 -0.00411376 -0.05229693 0.02432855 -0.00400431 -0.05302193 0.02307759 -0.00674727 -0 0.05442975 -0.00673034 -0.000725 0.05423623 -0.00668409 -0.00125574 0.05370752 -0.0066209 -0.00145 0.05298528 -0.00655771 -0.00125574 0.05226303 -0.00651145 -0.000725 0.05173432 -0.00649452 -0 0.05154079 -0.00651145 0.000725 0.05173432 -0.00655771 0.00125573 0.05226303 -0.0066209 0.00144999 0.05298528 -0.00668409 0.00125573 0.05370752 -0.00673034 0.000725 0.05423623 -0.0066209 -0 0.05298528 -0.00413069 0.05302192 0.02452207 -0.00411376 0.05229693 0.02432855 -0.0040675 0.05176619 0.02379983 -0.00400431 0.05157192 0.02307759 -0.00394113 0.05176619 0.02235535 -0.00389487 0.05229693 0.02182663 -0.00387794 0.05302192 0.02163311 -0.00389487 0.05374692 0.02182663 -0.00394113 0.05427766 0.02235535 -0.00400431 0.05447192 0.02307759 -0.0040675 0.05427766 0.02379983 -0.00411376 0.05374692 0.02432855 -0.00400431 0.05302192 0.02307759 -0.01457217 -0.0575 0.01765784 -0.01457217 0.0575 0.01765784 -0.0130273 -0.0575 0 -0.0130273 0.0575 0 0.01307201 0.0575 0 0.01307201 -0.0575 0 0.00754336 0.02874999 0.0195927 -0.00311021 -0.02947501 0.01866064 -0.00363893 -0.03000574 0.01861438 0.00682112 0.02749426 0.01952951 0.00609887 0.02729999 0.01946633 -0.00311021 0.02802499 0.01866064 -0.00363893 0.02749426 0.01861438 -0.00561213 -0.02802501 0.01844175 -0.00580565 -0.02875001 0.01842481 -0.00561213 -0.02947501 0.01844175 -0.00561213 0.02802499 0.01844175 -0.00580565 0.02874999 0.01842481 -0.00561213 0.02947499 0.01844175 -0.00311021 -0.02802501 0.01866064 0.00537663 -0.02749427 0.01940314 -0.00363893 -0.02749427 0.01861438 -0.00363893 0.03000573 0.01861438 0.00754336 -0.02875001 0.0195927 0.00682112 -0.03000574 0.01952951 0.00609887 -0.03020001 0.01946633 0.00537663 -0.03000574 0.01940314 0.00484792 -0.02947501 0.01935688 -0.00291669 -0.02875001 0.01867757 0.00465439 -0.02875001 0.01933995 0.00484792 -0.02802501 0.01935688 0.00537663 0.02749426 0.01940314 0.00484792 0.02802499 0.01935688 -0.00291669 0.02874999 0.01867757 0.00465439 0.02874999 0.01933995 -0.00311021 0.02947499 0.01866064 0.00484792 0.02947499 0.01935688 0.00537663 0.03000573 0.01940314 0.00609887 0.0302 0.01946633 0.00682112 0.03000573 0.01952951 0.00609887 -0.02730001 0.01946633 0.00682112 -0.02749427 0.01952951 -0.00399869 -0.02947501 -0 -0.00346592 -0.03000574 -0 0.00906249 -0.02802501 0 0.00852973 -0.02749427 0 0.00780196 -0.02730001 0 -0.00414409 -0.02912529 -0 0.00654142 -0.02947501 0 0.00707419 -0.03000574 -0 -0.00133221 -0.02837472 -0 -0.00147762 -0.02802501 -0 -0.00201038 -0.02749427 0 0.00906249 0.02947499 0 0.00852973 0.03000573 0 0.00780196 0.0302 0 -0.00273815 0.0302 -0 -0.00201038 0.03000573 0 -0.00147762 0.02947499 -0 0.00654142 0.02802499 0 0.00707419 0.02749426 -0 -0.00346592 -0.02749427 -0 -0.00128261 -0.02875001 -0 0.00707419 -0.02749427 -0 0.00654142 -0.02802501 0 0.00852973 -0.03000574 0 0.00906249 -0.02947501 0 0.00780196 0.02729999 0 0.00852973 0.02749426 0 -0.00399869 -0.02802501 -0 -0.00414409 -0.02837472 -0 -0.00419369 -0.02875001 0 0.00780196 -0.03020001 0 0.0092079 -0.02912529 0 0.0092575 -0.02875001 -0 0.0092079 -0.02837472 0 -0.00346592 0.03000573 -0 -0.00399869 0.02947499 -0 -0.00414409 0.02912528 -0 0.00906249 0.02802499 0 0.0092079 0.02837471 0 0.0092575 0.02874999 -0 0.0092079 0.02912528 0 -0.00419369 0.02874999 0 -0.00414409 0.02837471 -0 -0.00399869 0.02802499 -0 -0.00346592 0.02749426 -0 -0.00133221 0.02912528 -0 -0.00128261 0.02874999 -0 0.00707419 0.03000573 -0 0.00654142 0.02947499 0 -0.00273815 -0.02730001 -0 -0.00273815 -0.03020001 -0 -0.00201038 -0.03000574 0 -0.00147762 -0.02947501 -0 -0.00133221 -0.02912529 -0 -0.00273815 0.02729999 -0 -0.00201038 0.02749426 0 -0.00147762 0.02802499 -0 -0.00133221 0.02837471 -0 0.00639601 -0.02837472 0 0.00634642 -0.02875001 0 0.00639601 -0.02912529 0 0.00639601 0.02912528 0 0.00634642 0.02874999 0 0.00639601 0.02837471 0</float_array>
          <technique_common>
            <accessor source="#pos_0-array" count="1311" stride="3">
              <param name="X" type="float"/>
              <param name="Y" type="float"/>
              <param name="Z" type="float"/>
            </accessor>
          </technique_common>
        </source>
        <source id="norm_0">
          <float_array id="norm_0-array" count="753">-0.00976 -0.99371 0.11154 -0.02879 -0.94388 0.32902 -0.06005 -0.85618 0.51318 -0.05309 -0.79306 0.60682 -0.04637 -0.84672 0.53001 -0.04502 -0.85628 0.51455 -0.04187 -0.84672 0.5304 -0.06163 -0.70711 0.70442 -0.0738 -0.53203 0.8435 -0.08226 -0.33028 0.94029 -0.08661 -0.11196 0.98993 -0.07219 -0.56034 0.82511 0.07219 -0.56034 -0.82511 0.08627 -0.14232 -0.98605 0.07928 -0.41541 -0.90617 0.06048 -0.65485 -0.75333 0.0645 -0.67251 -0.73727 0.04712 -0.84125 -0.53858 0.02455 -0.95949 -0.28066 0 -1 0 -0.02455 -0.95949 0.28066 -0.04712 -0.84125 0.53858 -0.06587 -0.65486 0.75287 -0.07095 -0.67249 0.73669 -0.07928 -0.41541 0.90617 -0.08627 -0.14232 0.98605 -0.08716 0 0.99619 0.07219 0.56034 -0.82511 -0.07219 0.56034 0.82511 -0.08627 0.14232 0.98605 -0.07928 0.41541 0.90617 -0.07126 0.65485 0.75239 -0.0645 0.67251 0.73727 -0.04712 0.84125 0.53858 -0.02455 0.95949 0.28066 -0 1 -0 0.02455 0.95949 -0.28066 0.04712 0.84125 -0.53858 0.06587 0.65486 -0.75287 0.05805 0.67249 -0.73782 0.07928 0.41541 -0.90617 0.08627 0.14232 -0.98605 0.08716 -0 -0.99619 -0.03965 0.85626 0.51502 -0.05309 0.79306 0.60682 -0.05897 0.84666 0.52886 -0.04637 0.84672 0.53001 -0.02879 0.94388 0.32902 -0.00976 0.99371 0.11154 -0.04502 0.85628 0.51455 -0.06163 0.70711 0.70442 -0.0738 0.53203 0.8435 -0.08226 0.33028 0.94029 -0.08661 0.11196 0.98993 0.99619 0 0.08716 -0.99619 -0 -0.08716 -0.08419 0.25882 0.96225 -0.06163 0.70711 0.70442 -0.02256 0.96593 0.25783 0.02256 0.96593 -0.25783 0.06163 0.70711 -0.70442 0.08419 0.25882 -0.96225 0.08419 -0.25882 -0.96225 0.06163 -0.70711 -0.70442 0.02256 -0.96593 -0.25783 -0.02256 -0.96593 0.25783 -0.06163 -0.70711 0.70442 -0.08419 -0.25882 0.96225 -0.08419 0.25882 0.96225 0.08419 0.25882 -0.96225 0.08419 -0.25882 -0.96225 -0.08419 -0.25882 0.96225 0.08419 0.25882 -0.96225 0.06163 0.70711 -0.70442 -0.06163 0.70711 0.70442 -0.08419 0.25882 0.96225 -0.08419 -0.25882 0.96225 -0.06163 -0.70711 0.70442 0.06163 -0.70711 -0.70442 0.08419 -0.25882 -0.96225 0.08419 0.25882 -0.96225 0.06163 0.70711 -0.70442 0.02256 0.96593 -0.25783 -0.02256 0.96593 0.25783 -0.06163 0.70711 0.70442 -0.08419 0.25882 0.96225 -0.08419 -0.25882 0.96225 -0.06163 -0.70711 0.70442 -0.02256 -0.96593 0.25783 0.02256 -0.96593 -0.25783 0.06163 -0.70711 -0.70442 0.08419 -0.25882 -0.96225 0.08419 0.25882 -0.96225 -0.08419 0.25882 0.96225 -0.08419 -0.25882 0.96225 0.08419 -0.25882 -0.96225 -0.25784 -0.96593 -0.02256 -0.70442 -0.70711 -0.06163 -0.96225 -0.25882 -0.08419 -0.96225 0.25882 -0.08419 -0.70442 0.70711 -0.06163 -0.25783 0.96593 -0.02256 0.25783 0.96593 0.02256 0.70442 0.70711 0.06163 0.96225 0.25882 0.08419 0.96225 -0.25882 0.08419 0.70442 -0.70711 0.06163 0.25784 -0.96593 0.02256 -0.25783 -0.96593 -0.02256 -0.96225 -0.25882 -0.08419 -0.96225 0.25882 -0.08419 -0.25784 0.96593 -0.02256 0.25784 0.96593 0.02256 0.96225 0.25882 0.08419 0.96225 -0.25882 0.08419 0.25783 -0.96593 0.02256 -0.25784 -0.96593 -0.02256 -0.25783 0.96593 -0.02256 0.25783 0.96593 0.02256 0.96225 0.25882 0.08419 0.96225 -0.25882 0.08419 0.25784 -0.96593 0.02256 -0.25783 -0.96593 -0.02256 -0.25784 0.96593 -0.02256 0.25784 0.96593 0.02256 0.96225 0.25882 0.08419 0.96225 -0.25882 0.08419 0.25783 -0.96593 0.02256 -0.99619 0 -0.08716 0 1 -0 0.99619 -0 0.08716 0 -1 0 -0.08716 -0 0.99619 -0 0 -1 -0 0 -1 0 -0 -1 -0 0 -1 -0 0 -1 -0 0 -1 -0 0 -1 -0 0 -1 0 -0 -1 0 0 -1 0 -0 -1 -0 0 -1 -0 0 -1 -0 0 -1 -0 1E-05 -1 0 -0 -1 -0 -0 -1 0 -0 -1 -0 -0 -1 -0 -0 -1 -0 0 -1 1E-05 -0 -1 -0 0 -1 0 -0 -1 0 0 -1 0 0 -1 -0 -0 -1 -1E-05 -0 -1 0 0 -1 -1E-05 0 -1 -0 0 -1 0 0 -1 -0 -0 -1 -0 -0 -1 -0 0 -1 -0 0 -1 -0 0 -1 -1E-05 0 -1 0 -0 -1 -1E-05 0 -1 -0 0 -1 -0 -0 -1 1E-05 0 -1 -0 0 -1 -0 -0 -1 -0 0 -1 -0 0 -1 0 -0 -1 -0 1E-05 -1 0 -0 -1 0 -0 -1 0 -0 -1 0 -0 -1 0 -0 -1 0 -0 -1 -0 0 -1 0 -0 -1 0 -0 -1 0 0 -1 -0 0 -1 0 -0 -1 0 -0 -1 0 -0 -1 0 0 -1 0 0 -1 0 -0 -1 0 0 -1 -0.98767 0.13053 -0.08641 -0.96202 0.25882 -0.08681 -0.98767 -0.13053 -0.08641 -0.96202 -0.25882 -0.08681 -0.92036 -0.38268 -0.08052 -0.70442 -0.70711 -0.06163 -0.25783 -0.96593 -0.02256 0.25783 -0.96593 0.02256 0.70442 -0.70711 0.06163 -0.92036 0.38268 -0.08052 -0.70442 0.70711 -0.06163 -0.25784 0.96593 -0.02256 0.25784 0.96593 0.02256 0.70442 0.70711 0.06163 0.92036 0.38268 0.08052 0.96248 0.25882 0.08153 0.98767 0.13053 0.08641 0.96225 -0.25882 0.08419 0.98811 -0.13058 0.08113 0.92036 -0.38268 0.08052 -0.96203 0.25882 -0.08669 -0.96203 -0.25882 -0.08669 -0.92036 -0.38269 -0.08052 0.25784 -0.96593 0.02256 0.70442 -0.70711 0.06163 -0.92036 0.38268 -0.08052 0.25783 0.96593 0.02256 0.70442 0.70711 0.06163 0.92036 0.38268 0.08052 0.96247 0.25882 0.08165 0.96225 -0.25882 0.08419 0.98809 -0.13058 0.08138 0.92036 -0.38268 0.08052 -0.96202 0.25882 -0.08681 -0.96202 -0.25882 -0.08681 -0.92036 -0.38268 -0.08052 -0.25784 -0.96593 -0.02256 0.25784 -0.96593 0.02256 -0.92036 0.38268 -0.08052 -0.25783 0.96593 -0.02256 0.25783 0.96593 0.02256 0.96248 0.25882 0.08153 0.98811 -0.13058 0.08113 -0.96203 0.25882 -0.08669 -0.96203 -0.25882 -0.08669 -0.92036 -0.38268 -0.08052 0.25783 -0.96593 0.02256 -0.92036 0.38269 -0.08052 0.25784 0.96593 0.02256 0.96247 0.25882 0.08165 0.98809 -0.13058 0.08138</float_array>
          <technique_common>
            <accessor source="#norm_0-array" count="753" stride="3">
              <param name="X" type="float"/>
              <param name="Y" type="float"/>
              <param name="Z" type="float"/>
            </accessor>
          </technique_common>
        </source>
        <vertices id="vert_0">
          <input semantic="POSITION" source="#pos_0"/>
        </vertices>
        <triangles count="942" material="mat_0">
          <input semantic="VERTEX" source="#vert_0" offset="0"/>
          <input semantic="NORMAL" source="#norm_0" offset="1"/>
          <p>0 0 1 0 2 0 0 0 2 0 3 0 3 1 2 1 4 1 3 1 4 1 5 1 6 2 7 2 8 2 8 3 7 3 9 3 8 4 10 4 6 4 6 1 10 1 11 1 6 1 11 1 12 1 12 0 11 0 13 0 12 0 13 0 14 0 5 5 4 5 9 5 9 6 4 6 15 6 9 3 15 3 8 3 8 7 15 7 16 7 8 7 16 7 17 7 17 8 16 8 18 8 17 8 18 8 19 8 19 9 18 9 20 9 19 9 20 9 21 9 21 10 20 10 22 10 21 10 22 10 23 10 24 11 25 11 26 11 27 12 28 12 29 12 30 13 31 13 32 13 32 13 31 13 33 13 32 14 33 14 34 14 33 14 27 14 34 14 34 12 27 12 29 12 34 15 29 15 35 15 35 16 29 16 36 16 35 17 36 17 37 17 37 17 36 17 38 17 37 18 38 18 39 18 39 18 38 18 40 18 39 19 40 19 41 19 41 19 40 19 42 19 41 20 42 20 43 20 43 20 42 20 44 20 43 21 44 21 45 21 45 21 44 21 46 21 45 22 46 22 47 22 46 23 24 23 47 23 47 11 24 11 26 11 47 24 26 24 48 24 48 24 26 24 49 24 48 25 49 25 50 25 50 25 49 25 51 25 52 26 53 26 50 26 54 26 55 26 50 26 50 26 55 26 56 26 50 26 56 26 57 26 57 26 56 26 58 26 59 26 60 26 61 26 61 26 60 26 62 26 61 26 62 26 63 26 63 26 62 26 64 26 60 26 65 26 62 26 62 26 65 26 66 26 62 26 66 26 51 26 51 26 66 26 67 26 51 26 67 26 68 26 69 26 54 26 70 26 58 26 71 26 57 26 57 26 71 26 72 26 57 26 72 26 62 26 62 26 72 26 73 26 62 26 73 26 74 26 75 26 76 26 59 26 59 26 76 26 77 26 53 26 78 26 50 26 50 26 78 26 79 26 50 26 79 26 54 26 54 26 79 26 80 26 54 26 80 26 70 26 81 26 82 26 83 26 52 26 50 26 84 26 84 26 50 26 51 26 84 26 51 26 85 26 59 26 61 26 75 26 75 26 61 26 86 26 75 26 86 26 83 26 83 26 86 26 87 26 83 26 87 26 81 26 82 26 88 26 83 26 83 26 88 26 89 26 83 26 89 26 70 26 70 26 89 26 90 26 70 26 90 26 69 26 68 26 91 26 51 26 51 26 91 26 92 26 51 26 92 26 85 26 85 26 92 26 93 26 85 26 93 26 94 26 94 26 93 26 95 26 94 26 95 26 76 26 76 26 95 26 96 26 76 26 96 26 77 26 82 26 97 26 88 26 88 26 97 26 98 26 88 26 98 26 74 26 98 26 99 26 74 26 74 26 99 26 100 26 74 26 100 26 62 26 62 26 100 26 101 26 62 26 101 26 64 26 102 27 103 27 104 27 105 28 106 28 107 28 57 29 62 29 108 29 108 29 62 29 109 29 108 30 109 30 110 30 109 30 105 30 110 30 110 28 105 28 107 28 110 31 107 31 111 31 111 32 107 32 112 32 111 33 112 33 113 33 113 33 112 33 114 33 113 34 114 34 115 34 115 34 114 34 116 34 115 35 116 35 117 35 117 35 116 35 118 35 117 36 118 36 119 36 119 36 118 36 120 36 119 37 120 37 121 37 121 37 120 37 122 37 121 38 122 38 123 38 122 39 102 39 123 39 123 27 102 27 104 27 123 40 104 40 124 40 124 40 104 40 125 40 124 41 125 41 126 41 126 41 125 41 127 41 30 42 126 42 31 42 31 42 126 42 127 42 128 42 129 42 130 42 130 42 129 42 131 42 130 42 131 42 132 42 133 42 134 42 135 42 135 42 134 42 136 42 135 42 136 42 137 42 132 42 138 42 139 42 139 42 138 42 140 42 139 42 140 42 141 42 142 42 143 42 132 42 132 42 143 42 144 42 132 42 144 42 138 42 131 42 145 42 132 42 132 42 145 42 146 42 132 42 146 42 142 42 142 42 146 42 147 42 148 42 149 42 150 42 151 42 152 42 139 42 153 42 154 42 155 42 155 42 154 42 156 42 155 42 156 42 157 42 157 42 156 42 158 42 157 42 158 42 141 42 141 42 158 42 159 42 141 42 159 42 139 42 139 42 159 42 160 42 139 42 160 42 161 42 155 42 162 42 153 42 153 42 162 42 137 42 153 42 137 42 163 42 163 42 137 42 136 42 150 42 164 42 148 42 148 42 164 42 137 42 148 42 137 42 165 42 165 42 137 42 162 42 165 42 162 42 166 42 166 42 162 42 167 42 166 42 167 42 146 42 146 42 167 42 168 42 146 42 168 42 147 42 161 42 169 42 139 42 139 42 169 42 170 42 139 42 170 42 134 42 151 42 171 42 152 42 152 42 171 42 172 42 152 42 172 42 149 42 133 42 173 42 134 42 134 42 173 42 174 42 134 42 174 42 139 42 139 42 174 42 175 42 139 42 175 42 151 42 148 42 176 42 149 42 149 42 176 42 177 42 149 42 177 42 152 42 152 42 177 42 178 42 152 42 178 42 130 42 130 42 178 42 179 42 130 42 179 42 128 42 180 43 181 43 182 43 181 44 183 44 184 44 184 45 183 45 185 45 182 46 186 46 180 46 180 47 186 47 187 47 180 47 187 47 188 47 188 48 187 48 189 48 188 48 189 48 190 48 183 49 191 49 185 49 185 47 191 47 192 47 185 47 192 47 193 47 193 48 192 48 194 48 193 48 194 48 195 48 181 44 184 44 182 44 182 50 184 50 196 50 182 50 196 50 197 50 197 51 196 51 198 51 197 51 198 51 199 51 199 52 198 52 200 52 199 52 200 52 201 52 201 53 200 53 202 53 201 53 202 53 203 53 22 26 203 26 23 26 23 26 203 26 202 26 204 54 205 54 189 54 186 54 182 54 206 54 189 54 205 54 132 54 204 54 189 54 206 54 206 54 189 54 187 54 206 54 187 54 186 54 205 54 207 54 132 54 132 54 207 54 208 54 132 54 208 54 209 54 124 54 126 54 22 54 41 54 210 54 211 54 212 54 203 54 213 54 213 54 203 54 22 54 213 54 22 54 214 54 214 54 22 54 215 54 132 54 216 54 217 54 132 54 217 54 130 54 130 54 217 54 218 54 130 54 218 54 219 54 1 54 220 54 2 54 2 54 220 54 221 54 2 54 221 54 4 54 4 54 221 54 15 54 219 54 222 54 130 54 130 54 222 54 223 54 130 54 223 54 1 54 1 54 223 54 224 54 1 54 224 54 220 54 209 54 225 54 132 54 132 54 225 54 226 54 132 54 226 54 216 54 216 54 226 54 227 54 216 54 227 54 228 54 228 54 227 54 229 54 126 54 230 54 22 54 22 54 230 54 231 54 22 54 231 54 215 54 117 54 15 54 115 54 115 54 15 54 221 54 115 54 221 54 113 54 113 54 221 54 232 54 199 54 201 54 203 54 233 54 234 54 30 54 30 54 234 54 235 54 30 54 235 54 126 54 126 54 235 54 236 54 126 54 236 54 230 54 41 54 43 54 210 54 210 54 43 54 45 54 210 54 45 54 229 54 229 54 45 54 47 54 229 54 47 54 48 54 22 54 20 54 124 54 124 54 20 54 18 54 124 54 18 54 123 54 123 54 18 54 16 54 123 54 16 54 121 54 121 54 16 54 15 54 121 54 15 54 119 54 119 54 15 54 117 54 212 54 237 54 203 54 203 54 237 54 238 54 203 54 238 54 199 54 199 54 238 54 233 54 233 54 30 54 199 54 199 54 30 54 32 54 199 54 32 54 197 54 197 54 32 54 34 54 197 54 34 54 182 54 182 54 34 54 35 54 182 54 35 54 37 54 48 54 50 54 229 54 229 54 50 54 57 54 229 54 57 54 228 54 228 54 57 54 108 54 228 54 108 54 239 54 239 54 108 54 110 54 239 54 110 54 232 54 232 54 110 54 111 54 232 54 111 54 113 54 211 54 206 54 41 54 41 54 206 54 182 54 41 54 182 54 39 54 39 54 182 54 37 54 193 55 195 55 240 55 240 55 195 55 241 55 241 55 195 55 139 55 241 55 139 55 242 55 242 55 139 55 243 55 243 55 139 55 152 55 243 55 152 55 244 55 202 55 245 55 246 55 247 55 184 55 240 55 240 55 184 55 185 55 240 55 185 55 193 55 202 55 246 55 23 55 248 55 152 55 249 55 249 55 152 55 13 55 249 55 13 55 11 55 250 55 202 55 247 55 247 55 202 55 200 55 200 55 198 55 247 55 247 55 198 55 196 55 247 55 196 55 184 55 250 55 251 55 202 55 202 55 251 55 252 55 202 55 252 55 245 55 245 55 252 55 253 55 245 55 253 55 254 55 254 55 253 55 255 55 254 55 255 55 256 55 256 55 255 55 257 55 256 55 257 55 258 55 258 55 257 55 244 55 258 55 244 55 259 55 259 55 244 55 152 55 259 55 152 55 260 55 260 55 152 55 248 55 246 55 261 55 23 55 23 55 261 55 262 55 23 55 262 55 21 55 21 55 262 55 263 55 21 55 263 55 19 55 11 55 10 55 249 55 249 55 10 55 8 55 249 55 8 55 263 55 263 55 8 55 17 55 263 55 17 55 19 55 264 54 265 54 127 54 25 54 266 54 194 54 62 54 103 54 109 54 109 54 103 54 105 54 28 54 27 54 25 54 25 54 27 54 33 54 25 54 33 54 31 54 105 54 103 54 106 54 106 54 103 54 7 54 106 54 7 54 6 54 6 54 12 54 106 54 106 54 12 54 14 54 106 54 14 54 267 54 51 54 268 54 62 54 62 54 268 54 269 54 183 54 28 54 191 54 191 54 28 54 25 54 191 54 25 54 192 54 192 54 25 54 194 54 270 54 51 54 271 54 271 54 51 54 49 54 271 54 49 54 272 54 273 54 274 54 31 54 31 54 274 54 275 54 31 54 275 54 25 54 25 54 275 54 272 54 25 54 272 54 26 54 26 54 272 54 49 54 127 54 265 54 31 54 31 54 265 54 276 54 31 54 276 54 277 54 278 54 103 54 279 54 279 54 103 54 62 54 279 54 62 54 280 54 280 54 62 54 269 54 273 54 31 54 281 54 281 54 31 54 277 54 281 54 277 54 282 54 264 54 127 54 283 54 283 54 127 54 125 54 283 54 125 54 278 54 278 54 125 54 104 54 278 54 104 54 103 54 270 54 284 54 51 54 51 54 284 54 285 54 51 54 285 54 268 54 268 54 285 54 286 54 282 54 277 54 287 54 287 54 277 54 288 54 287 54 288 54 286 54 286 54 288 54 289 54 286 54 289 54 268 54 269 56 259 56 280 56 280 56 259 56 260 56 280 57 260 57 279 57 279 57 260 57 248 57 279 58 248 58 278 58 278 58 248 58 249 58 278 59 249 59 283 59 283 59 249 59 263 59 283 60 263 60 264 60 264 60 263 60 262 60 264 61 262 61 265 61 265 61 262 61 261 61 265 62 261 62 276 62 276 62 261 62 246 62 276 63 246 63 277 63 277 63 246 63 245 63 277 64 245 64 288 64 288 64 245 64 254 64 288 65 254 65 289 65 289 65 254 65 256 65 289 66 256 66 268 66 268 66 256 66 258 66 268 67 258 67 269 67 269 67 258 67 259 67 284 68 243 68 285 68 285 68 243 68 244 68 285 57 244 57 286 57 286 57 244 57 257 57 286 58 257 58 287 58 287 58 257 58 255 58 287 59 255 59 282 59 282 59 255 59 253 59 282 60 253 60 281 60 281 60 253 60 252 60 281 69 252 69 273 69 273 69 252 69 251 69 273 70 251 70 274 70 274 70 251 70 250 70 274 63 250 63 275 63 275 63 250 63 247 63 275 64 247 64 272 64 272 64 247 64 240 64 272 65 240 65 271 65 271 65 240 65 241 65 271 66 241 66 270 66 270 66 241 66 242 66 270 71 242 71 284 71 284 71 242 71 243 71 14 19 13 19 267 19 267 19 13 19 152 19 267 19 152 19 290 19 290 19 152 19 130 19 290 19 130 19 0 19 0 19 130 19 1 19 190 35 189 35 291 35 291 35 189 35 132 35 291 35 132 35 266 35 266 35 132 35 139 35 266 35 139 35 194 35 194 35 139 35 195 35 292 72 221 72 293 72 293 72 221 72 220 72 293 73 220 73 294 73 294 73 220 73 224 73 294 59 224 59 295 59 295 59 224 59 223 59 295 58 223 58 296 58 296 58 223 58 222 58 296 74 222 74 297 74 297 74 222 74 219 74 297 75 219 75 298 75 298 75 219 75 218 75 298 76 218 76 299 76 299 76 218 76 217 76 299 77 217 77 300 77 300 77 217 77 216 77 300 65 216 65 301 65 301 65 216 65 228 65 301 64 228 64 302 64 302 64 228 64 239 64 302 78 239 78 303 78 303 78 239 78 232 78 303 79 232 79 292 79 292 79 232 79 221 79 296 54 297 54 304 54 304 54 297 54 298 54 304 54 298 54 299 54 293 54 294 54 304 54 304 54 294 54 295 54 304 54 295 54 296 54 302 54 303 54 304 54 304 54 303 54 292 54 304 54 292 54 293 54 299 54 300 54 304 54 304 54 300 54 301 54 304 54 301 54 302 54 305 80 213 80 306 80 306 80 213 80 214 80 306 81 214 81 307 81 307 81 214 81 215 81 307 82 215 82 308 82 308 82 215 82 231 82 308 83 231 83 309 83 309 83 231 83 230 83 309 84 230 84 310 84 310 84 230 84 236 84 310 85 236 85 311 85 311 85 236 85 235 85 311 86 235 86 312 86 312 86 235 86 234 86 312 87 234 87 313 87 313 87 234 87 233 87 313 88 233 88 314 88 314 88 233 88 238 88 314 89 238 89 315 89 315 89 238 89 237 89 315 90 237 90 316 90 316 90 237 90 212 90 316 91 212 91 305 91 305 91 212 91 213 91 315 54 316 54 317 54 317 54 316 54 305 54 317 54 305 54 306 54 312 54 313 54 317 54 317 54 313 54 314 54 317 54 314 54 315 54 309 54 310 54 317 54 317 54 310 54 311 54 317 54 311 54 312 54 306 54 307 54 317 54 317 54 307 54 308 54 317 54 308 54 309 54 318 92 206 92 319 92 319 92 206 92 211 92 319 73 211 73 320 73 320 73 211 73 210 73 320 59 210 59 321 59 321 59 210 59 229 59 321 58 229 58 322 58 322 58 229 58 227 58 322 74 227 74 323 74 323 74 227 74 226 74 323 93 226 93 324 93 324 93 226 93 225 93 324 94 225 94 325 94 325 94 225 94 209 94 325 77 209 77 326 77 326 77 209 77 208 77 326 65 208 65 327 65 327 65 208 65 207 65 327 64 207 64 328 64 328 64 207 64 205 64 328 78 205 78 329 78 329 78 205 78 204 78 329 95 204 95 318 95 318 95 204 95 206 95 328 54 329 54 330 54 330 54 329 54 318 54 330 54 318 54 319 54 325 54 326 54 330 54 330 54 326 54 327 54 330 54 327 54 328 54 322 54 323 54 330 54 330 54 323 54 324 54 330 54 324 54 325 54 319 54 320 54 330 54 330 54 320 54 321 54 330 54 321 54 322 54 52 96 138 96 53 96 53 96 138 96 144 96 53 97 144 97 78 97 78 97 144 97 143 97 78 98 143 98 79 98 79 98 143 98 142 98 79 99 142 99 80 99 80 99 142 99 147 99 80 100 147 100 70 100 70 100 147 100 168 100 70 101 168 101 83 101 83 101 168 101 167 101 83 102 167 102 75 102 75 102 167 102 162 102 75 103 162 103 76 103 76 103 162 103 155 103 76 104 155 104 94 104 94 104 155 104 157 104 94 105 157 105 85 105 85 105 157 105 141 105 85 106 141 106 84 106 84 106 141 106 140 106 84 107 140 107 52 107 52 107 140 107 138 107 81 108 173 108 82 108 82 108 173 108 133 108 82 97 133 97 97 97 97 97 133 97 135 97 97 109 135 109 98 109 98 109 135 109 137 109 98 110 137 110 99 110 99 110 137 110 164 110 99 100 164 100 100 100 100 100 164 100 150 100 100 111 150 111 101 111 101 111 150 111 149 111 101 112 149 112 64 112 64 112 149 112 172 112 64 103 172 103 63 103 63 103 172 103 171 103 63 113 171 113 61 113 61 113 171 113 151 113 61 114 151 114 86 114 86 114 151 114 175 114 86 106 175 106 87 106 87 106 175 106 174 106 87 115 174 115 81 115 81 115 174 115 173 115 91 116 161 116 92 116 92 116 161 116 160 116 92 97 160 97 93 97 93 97 160 97 159 97 93 98 159 98 95 98 95 98 159 98 158 98 95 99 158 99 96 99 96 99 158 99 156 99 96 100 156 100 77 100 77 100 156 100 154 100 77 117 154 117 59 117 59 117 154 117 153 117 59 118 153 118 60 118 60 118 153 118 163 118 60 103 163 103 65 103 65 103 163 103 136 103 65 119 136 119 66 119 66 119 136 119 134 119 66 120 134 120 67 120 67 120 134 120 170 120 67 106 170 106 68 106 68 106 170 106 169 106 68 121 169 121 91 121 91 121 169 121 161 121 69 122 166 122 54 122 54 122 166 122 146 122 54 97 146 97 55 97 55 97 146 97 145 97 55 109 145 109 56 109 56 109 145 109 131 109 56 110 131 110 58 110 58 110 131 110 129 110 58 100 129 100 71 100 71 100 129 100 128 100 71 123 128 123 72 123 72 123 128 123 179 123 72 124 179 124 73 124 73 124 179 124 178 124 73 103 178 103 74 103 74 103 178 103 177 103 74 125 177 125 88 125 88 125 177 125 176 125 88 126 176 126 89 126 89 126 176 126 148 126 89 106 148 106 90 106 90 106 148 106 165 106 90 127 165 127 69 127 69 127 165 127 166 127 24 55 46 55 291 55 291 55 46 55 44 55 291 55 44 55 190 55 190 55 44 55 42 55 190 55 42 55 188 55 188 55 42 55 40 55 188 55 40 55 180 55 180 55 40 55 38 55 180 55 38 55 181 55 181 55 38 55 36 55 181 55 36 55 29 55 291 26 266 26 24 26 24 26 266 26 25 26 183 42 181 42 28 42 28 42 181 42 29 42 102 42 9 42 103 42 103 42 9 42 7 42 112 55 107 55 290 55 9 55 102 55 122 55 9 55 122 55 5 55 5 55 122 55 120 55 5 55 120 55 3 55 3 55 120 55 118 55 3 55 118 55 0 55 0 55 118 55 116 55 0 55 116 55 290 55 290 55 116 55 114 55 290 55 114 55 112 55 267 26 290 26 106 26 106 26 290 26 107 26 331 128 332 128 333 128 333 128 332 128 334 128 332 129 132 129 334 129 334 129 132 129 335 129 336 130 335 130 130 130 130 130 335 130 132 130 336 131 130 131 333 131 333 131 130 131 331 131 174 132 337 132 147 132 338 132 339 132 331 132 331 132 339 132 149 132 331 132 149 132 172 132 147 132 340 132 174 132 174 132 340 132 341 132 174 132 341 132 342 132 342 132 343 132 174 132 174 132 343 132 153 132 174 132 153 132 344 132 344 132 153 132 163 132 344 132 163 132 345 132 345 132 163 132 331 132 345 132 331 132 346 132 346 132 331 132 172 132 163 132 347 132 331 132 331 132 347 132 348 132 331 132 348 132 332 132 332 132 348 132 349 132 350 132 351 132 352 132 352 132 351 132 337 132 352 132 337 132 173 132 173 132 337 132 174 132 349 132 169 132 332 132 332 132 169 132 161 132 332 132 161 132 132 132 132 132 161 132 353 132 132 132 354 132 130 132 130 132 354 132 129 132 129 132 355 132 130 132 130 132 355 132 356 132 130 132 356 132 331 132 331 132 356 132 357 132 331 132 357 132 338 132 338 132 357 132 358 132 338 132 358 132 359 132 359 132 358 132 360 132 359 132 360 132 350 132 350 132 360 132 361 132 350 132 361 132 351 132 341 132 362 132 342 132 342 132 362 132 363 132 342 132 363 132 364 132 364 132 363 132 365 132 364 132 365 132 366 132 366 132 365 132 367 132 366 132 367 132 353 132 353 132 367 132 132 132 132 132 367 132 368 132 132 132 368 132 369 132 369 132 370 132 132 132 132 132 370 132 143 132 132 132 143 132 337 132 351 132 371 132 337 132 337 132 371 132 372 132 337 132 372 132 132 132 132 132 372 132 145 132 132 132 145 132 354 132 373 133 374 133 333 133 375 134 376 134 335 134 335 135 376 135 377 135 373 136 333 136 378 136 379 137 380 137 333 137 381 138 382 138 377 138 377 139 382 139 383 139 384 140 385 140 335 140 335 141 385 141 386 141 387 142 334 142 388 142 388 143 334 143 335 143 388 144 335 144 389 144 390 145 391 145 392 145 381 146 377 146 393 146 393 147 377 147 394 147 393 148 394 148 395 148 336 149 396 149 397 149 398 150 399 150 383 150 392 151 400 151 334 151 334 152 400 152 401 152 334 153 401 153 333 153 333 154 401 154 402 154 333 155 402 155 378 155 333 156 380 156 336 156 336 157 380 157 403 157 336 158 403 158 396 158 397 159 404 159 336 159 336 160 404 160 405 160 336 161 405 161 335 161 335 162 405 162 406 162 335 163 406 163 375 163 387 164 407 164 334 164 334 165 407 165 408 165 334 166 408 166 409 166 399 167 410 167 383 167 383 168 410 168 411 168 383 169 411 169 377 169 377 170 411 170 412 170 377 171 412 171 335 171 335 172 412 172 413 172 335 173 413 173 384 173 409 174 414 174 334 174 334 175 414 175 415 175 334 176 415 176 392 176 392 177 415 177 416 177 392 178 416 178 417 178 389 179 335 179 418 179 418 180 335 180 386 180 418 146 386 146 419 146 419 181 386 181 420 181 419 182 420 182 421 182 398 183 383 183 391 183 391 184 383 184 422 184 391 185 422 185 392 185 374 186 423 186 333 186 333 187 423 187 424 187 333 188 424 188 379 188 379 189 424 189 425 189 379 190 425 190 426 190 417 191 427 191 392 191 392 191 427 191 428 191 392 192 428 192 390 192 390 189 428 189 429 189 390 193 429 193 430 193 395 194 431 194 393 194 393 195 431 195 432 195 393 195 432 195 426 195 426 196 432 196 433 196 426 197 433 197 379 197 421 198 434 198 419 198 419 195 434 195 435 195 419 195 435 195 430 195 430 196 435 196 436 196 430 199 436 199 390 199 359 200 393 200 426 200 359 201 426 201 338 201 393 202 359 202 381 202 381 203 359 203 350 203 381 204 350 204 382 204 382 205 350 205 352 205 382 205 352 205 383 205 383 206 352 206 173 206 383 206 173 206 422 206 422 207 173 207 174 207 422 207 174 207 392 207 392 208 174 208 344 208 392 208 344 208 400 208 426 209 425 209 338 209 338 210 425 210 424 210 338 210 424 210 339 210 339 211 424 211 423 211 339 211 423 211 149 211 149 212 423 212 374 212 149 212 374 212 172 212 172 213 374 213 373 213 172 213 373 213 346 213 346 214 373 214 378 214 346 215 378 215 345 215 345 216 378 216 402 216 345 217 402 217 344 217 344 218 402 218 401 218 344 219 401 219 400 219 337 200 412 200 411 200 337 220 411 220 147 220 412 202 337 202 413 202 413 221 337 221 143 221 413 222 143 222 384 222 384 97 143 97 370 97 384 97 370 97 385 97 385 116 370 116 369 116 385 116 369 116 386 116 386 223 369 223 368 223 386 223 368 223 420 223 420 224 368 224 367 224 420 224 367 224 421 224 411 225 410 225 147 225 147 100 410 100 399 100 147 100 399 100 340 100 340 117 399 117 398 117 340 117 398 117 341 117 341 226 398 226 391 226 341 226 391 226 362 226 362 227 391 227 390 227 362 227 390 227 363 227 363 228 390 228 436 228 363 229 436 229 365 229 365 216 436 216 435 216 365 230 435 230 367 230 367 231 435 231 434 231 367 232 434 232 421 232 364 200 419 200 430 200 364 233 430 233 342 233 419 202 364 202 418 202 418 234 364 234 366 234 418 235 366 235 389 235 389 205 366 205 353 205 389 205 353 205 388 205 388 236 353 236 161 236 388 236 161 236 387 236 387 237 161 237 169 237 387 237 169 237 407 237 407 208 169 208 349 208 407 208 349 208 408 208 430 238 429 238 342 238 342 210 429 210 428 210 342 210 428 210 343 210 343 239 428 239 427 239 343 239 427 239 153 239 153 240 427 240 417 240 153 240 417 240 163 240 163 213 417 213 416 213 163 213 416 213 347 213 347 228 416 228 415 228 347 241 415 241 348 241 348 216 415 216 414 216 348 230 414 230 349 230 349 242 414 242 409 242 349 232 409 232 408 232 354 200 405 200 404 200 354 243 404 243 129 243 405 202 354 202 406 202 406 244 354 244 145 244 406 245 145 245 375 245 375 97 145 97 372 97 375 97 372 97 376 97 376 108 372 108 371 108 376 108 371 108 377 108 377 246 371 246 351 246 377 246 351 246 394 246 394 224 351 224 361 224 394 224 361 224 395 224 404 247 397 247 129 247 129 100 397 100 396 100 129 100 396 100 355 100 355 111 396 111 403 111 355 111 403 111 356 111 356 248 403 248 380 248 356 248 380 248 357 248 357 227 380 227 379 227 357 227 379 227 358 227 358 214 379 214 433 214 358 249 433 249 360 249 360 216 433 216 432 216 360 217 432 217 361 217 361 250 432 250 431 250 361 219 431 219 395 219</p>
        </triangles>
      </mesh>
    </geometry>
  </library_geometries>
  <library_visual_scenes>
    <visual_scene id="DefaultScene">
      <node id="node_6c00ff2c_0780_4dc2_8a21_ec40a885dce8" type="NODE">
        <matrix>1 0 0 0 0 1 0 0 0 0 1 0 0 0 0 1</matrix>
        <node id="node_e41d835d_1739_42d2_ad34_7a7c1d4982df" type="NODE">
          <matrix>1 0 0 0 0 1 0 0 0 0 1 0 0 0 0 1</matrix>
          <node id="node_e41d835d_1739_42d2_ad34_7a7c1d4982df_mesh0" type="NODE">
            <matrix>1 0 0 0 0 1 0 0 0 0 1 0 0 0 0 1</matrix>
            <instance_geometry url="#geometry_5b9aa684_8111_4882_a1e6_d8898d941c77">
              <bind_material>
                <technique_common>
                  <instance_material symbol="mat_0" target="#mat_0"/>
                </technique_common>
              </bind_material>
            </instance_geometry>
          </node>
        </node>
      </node>
    </visual_scene>
  </library_visual_scenes>
  <scene>
    <instance_visual_scene url="#DefaultScene"/>
  </scene>
</COLLADA>
